<svg width="120" height="120" viewBox="0 0 120 120" fill="none" xmlns="http://www.w3.org/2000/svg">
<rect width="120" height="120" rx="18" fill="#304872"/>
<path fill-rule="evenodd" clip-rule="evenodd" d="M73.4208 28.6756V90.9778C73.4205 91.8023 73.2406 92.6169 72.8937 93.3649C72.5467 94.1129 72.041 94.7763 71.4117 95.3091C70.7824 95.8419 70.0446 96.2311 69.2496 96.4499C68.4547 96.6687 67.6216 96.7117 66.8083 96.5759L34.3248 91.1633C32.5573 90.8685 30.9516 89.9562 29.7934 88.5888C28.6353 87.2213 27.9998 85.4873 28 83.6953V35.9581C27.9998 34.1661 28.6353 32.4321 29.7934 31.0647C30.9516 29.6972 32.5573 28.7849 34.3248 28.4901L66.8083 23.0775C67.6219 22.9417 68.4553 22.9848 69.2505 23.2038C70.0458 23.4227 70.7838 23.8124 71.4132 24.3456C72.0425 24.8787 72.5482 25.5427 72.8949 26.2911C73.2416 27.0395 73.4211 27.8508 73.4208 28.6756ZM80.9909 33.3312C82.9008 33.3306 84.7403 34.0519 86.1407 35.3506C87.5411 36.6492 88.3989 38.4291 88.5421 40.3336L88.5611 40.9014V78.752C88.5617 80.6619 87.8404 82.5014 86.5417 83.9018C85.2431 85.3022 83.4632 86.16 81.5587 86.3033L80.9909 86.3222H77.2059V33.3312H80.9909ZM56.388 54.1491C54.8822 54.1491 53.4381 54.7473 52.3733 55.812C51.3086 56.8768 50.7104 58.3209 50.7104 59.8267C50.7104 61.3325 51.3086 62.7766 52.3733 63.8414C53.4381 64.9061 54.8822 65.5043 56.388 65.5043C57.8938 65.5043 59.3379 64.9061 60.4027 63.8414C61.4674 62.7766 62.0656 61.3325 62.0656 59.8267C62.0656 58.3209 61.4674 56.8768 60.4027 55.812C59.3379 54.7473 57.8938 54.1491 56.388 54.1491Z" fill="url(#paint0_linear_335_3620)"/>
<g filter="url(#filter0_bi_335_3620)">
<path d="M85 55L65 64.0909V77.7273C65 90.3409 73.5333 102.136 85 105C96.4667 102.136 105 90.3409 105 77.7273V64.0909L85 55Z" fill="url(#paint1_linear_335_3620)"/>
</g>
<path d="M78.25 91C77.6312 91 77.1017 90.7857 76.6615 90.3571C76.2212 89.9285 76.0007 89.4126 76 88.8095V77.8571C76 77.2548 76.2205 76.7393 76.6615 76.3107C77.1025 75.8821 77.632 75.6674 78.25 75.6667H79.375V73.4762C79.375 71.9611 79.9236 70.6698 81.0209 69.6023C82.1181 68.5348 83.4445 68.0007 85 68C86.5555 67.9993 87.8822 68.5334 88.9802 69.6023C90.0782 70.6713 90.6265 71.9626 90.625 73.4762V75.6667H91.75C92.3687 75.6667 92.8986 75.8813 93.3396 76.3107C93.7806 76.74 94.0007 77.2555 94 77.8571V88.8095C94 89.4119 93.7799 89.9278 93.3396 90.3571C92.8994 90.7864 92.3695 91.0007 91.75 91H78.25ZM85 85.5238C85.6187 85.5238 86.1486 85.3095 86.5896 84.8809C87.0306 84.4523 87.2507 83.9364 87.25 83.3333C87.2492 82.7302 87.0291 82.2147 86.5896 81.7869C86.1501 81.359 85.6202 81.1443 85 81.1429C84.3797 81.1414 83.8502 81.3561 83.4115 81.7869C82.9727 82.2177 82.7522 82.7331 82.75 83.3333C82.7477 83.9335 82.9682 84.4494 83.4115 84.8809C83.8547 85.3124 84.3842 85.5267 85 85.5238ZM81.625 75.6667H88.375V73.4762C88.375 72.5635 88.0469 71.7877 87.3906 71.1488C86.7344 70.5099 85.9375 70.1905 85 70.1905C84.0625 70.1905 83.2656 70.5099 82.6094 71.1488C81.9531 71.7877 81.625 72.5635 81.625 73.4762V75.6667Z" fill="white"/>
<defs>
<filter id="filter0_bi_335_3620" x="57" y="47" width="56" height="66" filterUnits="userSpaceOnUse" color-interpolation-filters="sRGB">
<feFlood flood-opacity="0" result="BackgroundImageFix"/>
<feGaussianBlur in="BackgroundImageFix" stdDeviation="4"/>
<feComposite in2="SourceAlpha" operator="in" result="effect1_backgroundBlur_335_3620"/>
<feBlend mode="normal" in="SourceGraphic" in2="effect1_backgroundBlur_335_3620" result="shape"/>
<feColorMatrix in="SourceAlpha" type="matrix" values="0 0 0 0 0 0 0 0 0 0 0 0 0 0 0 0 0 0 127 0" result="hardAlpha"/>
<feOffset dy="0.5"/>
<feGaussianBlur stdDeviation="1.5"/>
<feComposite in2="hardAlpha" operator="arithmetic" k2="-1" k3="1"/>
<feColorMatrix type="matrix" values="0 0 0 0 1 0 0 0 0 1 0 0 0 0 1 0 0 0 0.6 0"/>
<feBlend mode="normal" in2="shape" result="effect2_innerShadow_335_3620"/>
</filter>
<linearGradient id="paint0_linear_335_3620" x1="78.7707" y1="35.044" x2="38.2546" y2="68.3398" gradientUnits="userSpaceOnUse">
<stop stop-color="#FFA502"/>
<stop offset="1" stop-color="#FF8430"/>
</linearGradient>
<linearGradient id="paint1_linear_335_3620" x1="85" y1="55" x2="85" y2="105" gradientUnits="userSpaceOnUse">
<stop stop-color="white" stop-opacity="0.1"/>
<stop offset="1" stop-color="white" stop-opacity="0.8"/>
</linearGradient>
</defs>
</svg>
