<svg width="120" height="120" viewBox="0 0 120 120" fill="none" xmlns="http://www.w3.org/2000/svg">
<g clip-path="url(#clip0_6_807)">
<path d="M52.4996 0H18.4613C8.26505 0 0 8.26512 0 18.4615V52.5001C0 55.9519 2.79822 58.749 6.24889 58.749H52.5007C55.9524 58.749 58.7496 55.9508 58.7496 52.5001V6.25003C58.7496 2.79825 55.9514 0 52.4996 0Z" fill="#C1C9D5"/>
<path d="M52.4996 0.230918C55.8185 0.230918 58.5187 2.93113 58.5187 6.25003V52.5001C58.5187 55.819 55.8185 58.5181 52.5007 58.5181H6.24889C2.93002 58.5181 0.230916 55.8179 0.230916 52.5001V18.4615C0.230916 8.4089 8.40882 0.230918 18.4613 0.230918H52.4996ZM52.4996 0H18.4613C8.26505 0 0 8.26512 0 18.4615V52.5001C0 55.9519 2.79822 58.749 6.24889 58.749H52.5007C55.9524 58.749 58.7496 55.9508 58.7496 52.5001V6.25003C58.7496 2.79825 55.9514 0 52.4996 0Z" fill="#C1C9D5"/>
<path d="M42.0485 26.4227H32.3271V16.7002C32.3271 15.0707 31.0048 13.7483 29.3753 13.7483C27.7458 13.7483 26.4224 15.0707 26.4224 16.7002V26.4227H16.7022C15.0705 26.4227 13.7493 27.7439 13.7493 29.3734C13.7493 31.0029 15.0705 32.3253 16.7022 32.3253H26.4224V42.0478C26.4224 43.6773 27.7437 44.9985 29.3753 44.9985C31.007 44.9985 32.3271 43.6784 32.3271 42.0478V32.3253H42.0485C43.679 32.3253 45.0003 31.0051 45.0003 29.3734C45.0003 27.7417 43.679 26.4227 42.0485 26.4227Z" fill="white"/>
<path d="M52.4996 61.251H6.24998C2.79822 61.251 0 64.0492 0 67.501V101.539C0 111.735 8.26505 120 18.4613 120H52.4996C55.9514 120 58.7496 117.202 58.7496 113.75V67.4999C58.7496 64.0482 55.9514 61.2499 52.4996 61.2499V61.251Z" fill="#FFB632"/>
<path d="M29.9995 83.7502C32.0701 83.7502 33.7497 82.0728 33.7497 80C33.7497 77.9272 32.0701 76.2498 29.9995 76.2498C27.9288 76.2498 26.2493 77.9283 26.2493 80C26.2493 82.0717 27.9288 83.7502 29.9995 83.7502ZM29.9995 100.001C27.9288 100.001 26.2493 101.678 26.2493 103.751C26.2493 105.824 27.9288 107.501 29.9995 107.501C32.0701 107.501 33.7497 105.823 33.7497 103.751C33.7497 101.679 32.0701 100.001 29.9995 100.001ZM42.0485 88.9241H16.7022C15.0705 88.9241 13.7493 90.2453 13.7493 91.8748C13.7493 93.5043 15.0705 94.8267 16.7022 94.8267H42.0485C43.679 94.8267 45.0003 93.5065 45.0003 91.8748C45.0003 90.2432 43.679 88.9241 42.0485 88.9241Z" fill="white"/>
<path d="M101.538 0H67.4993C64.0476 0 61.2493 2.79825 61.2493 6.25003V52.5001C61.2493 55.9519 64.0476 58.749 67.4982 58.749H113.748C117.2 58.749 119.998 55.9508 119.998 52.499V18.4615C119.998 8.26512 111.733 0 101.537 0H101.538Z" fill="#FFB632"/>
<path d="M101.538 0.230918C111.59 0.230918 119.768 8.4089 119.768 18.4615V52.499C119.768 55.8179 117.068 58.5192 113.748 58.5192H67.4982C64.1794 58.5192 61.4803 55.819 61.4803 52.5012V6.25003C61.4803 2.93113 64.1805 0.230918 67.4993 0.230918H101.538ZM101.538 0H67.4993C64.0476 0 61.2493 2.79825 61.2493 6.25003V52.5001C61.2493 55.9519 64.0476 58.749 67.4982 58.749H113.748C117.2 58.749 119.998 55.9508 119.998 52.499V18.4615C119.998 8.26512 111.733 0 101.537 0H101.538Z" fill="#FFB632"/>
<path d="M103.298 26.4227H77.9515C76.3199 26.4227 74.9997 27.7439 74.9997 29.3734C74.9997 31.0029 76.3199 32.3253 77.9515 32.3253H103.298C104.929 32.3253 106.25 31.0051 106.25 29.3734C106.25 27.7417 104.929 26.4227 103.298 26.4227Z" fill="white"/>
<path d="M113.75 61.251H67.4993C64.0476 61.251 61.2493 64.0492 61.2493 67.501V113.75C61.2493 117.202 64.0476 120 67.4993 120H101.537C111.733 120 119.998 111.735 119.998 101.539V67.4999C119.998 64.0492 117.2 61.251 113.749 61.251H113.75Z" fill="#304872"/>
<path d="M113.75 61.4819C117.069 61.4819 119.768 64.1821 119.768 67.4999V101.539C119.768 111.591 111.59 119.769 101.538 119.769H67.5004C64.1815 119.769 61.4803 117.069 61.4803 113.749V67.4999C61.4803 64.181 64.1805 61.4808 67.4993 61.4808H113.75M113.75 61.251H67.4993C64.0476 61.251 61.2493 64.0492 61.2493 67.501V113.75C61.2493 117.202 64.0476 120 67.4993 120H101.537C111.733 120 119.998 111.735 119.998 101.539V67.4999C119.998 64.0492 117.2 61.251 113.749 61.251H113.75Z" fill="#304872"/>
<path d="M94.7986 90.6244L101.674 83.7491C102.826 82.5978 102.826 80.7287 101.675 79.5763C100.52 78.4239 98.6534 78.4239 97.4999 79.5763L90.6247 86.4515L83.7495 79.5763C82.5982 78.4239 80.7302 78.4239 79.5778 79.5763C78.4254 80.7287 78.4254 82.5978 79.5767 83.7491L86.4519 90.6244L79.5778 97.4986C78.4254 98.6532 78.4254 100.519 79.5778 101.673C80.7302 102.827 82.5982 102.827 83.7495 101.674L90.6247 94.7984L97.4999 101.674C98.6523 102.826 100.52 102.826 101.675 101.673C102.826 100.52 102.826 98.6532 101.674 97.4986L94.7986 90.6244Z" fill="white"/>
</g>
<defs>
<clipPath id="clip0_6_807">
<rect width="120" height="120" fill="white"/>
</clipPath>
</defs>
</svg>
