<svg width="120" height="120" viewBox="80 80 140 140" fill="none" xmlns="http://www.w3.org/2000/svg">
<path d="M192.819 119.715L194.388 116.951C195.937 114.728 194.959 111.771 192.636 110.476L186.217 106.958C187.582 106.03 188.56 105.102 189.538 103.633C192.269 99.013 190.7 92.9048 185.646 90.3339C180.776 87.5504 174.541 89.2321 171.627 93.8326C170.832 95.321 170.445 96.7901 170.262 98.2785L161.683 93.4654C159.34 92.1702 156.222 92.9048 154.857 95.321L153.104 98.0852L142.203 91.9963C138.311 89.7733 133.237 91.0684 130.914 94.7605L89.0188 163.517C86.8792 167.209 88.2444 172.022 92.1364 174.245L153.879 208.053C157.771 210.083 162.641 208.788 164.984 205.096L206.859 136.184C209.202 132.666 207.837 127.873 203.945 125.843L192.839 119.735L192.819 119.715Z" fill="#304872"/>
<path d="M159.91 197.518C158.749 199.548 156.202 200.108 154.062 199.006L100.104 169.432C97.9643 168.31 97.3734 165.74 98.5553 163.884L135.947 102.357C137.312 100.501 139.839 99.7666 141.775 100.888L148.988 104.773C147.827 106.803 148.601 109.2 150.354 110.301L182.875 128.046C184.831 129.148 187.562 128.607 188.52 126.558L195.733 130.443C197.873 131.545 198.647 133.961 197.282 135.991L159.89 197.518H159.91Z" fill="#FFB632"/>
<path d="M146.947 127C132.439 127 120.632 138.143 120.632 152C120.632 165.857 132.439 177 146.947 177C161.455 177 173.263 165.708 173.263 152C173.263 138.292 161.455 127 146.947 127Z" fill="#304872"/>
<path d="M155.883 141.928C156.454 141.387 157.228 141 158.023 141C158.818 141 159.572 141.174 160.163 141.735L161.915 143.204C163.077 144.305 163.077 146.161 161.915 147.263L146.327 162.978C145.736 163.345 144.961 163.713 144.187 163.713C143.413 163.887 142.638 163.519 142.048 162.978L133.082 154.473C131.92 153.371 131.92 151.515 133.082 150.414L134.651 148.945C135.221 148.384 136.016 148.017 136.79 148.017C137.565 148.017 138.339 148.384 138.93 148.945L144.187 153.738L155.883 141.909V141.928Z" fill="#FFB632"/>
</svg>
