<svg width="120" height="120" viewBox="0 0 120 120" fill="none" xmlns="http://www.w3.org/2000/svg">
<g clip-path="url(#clip0_6_813)">
<path d="M0 101.538C0 111.692 8.3076 120 18.4615 120H101.539C111.692 120 120 111.692 120 101.538V36.6919H0V101.538Z" fill="#FFB632"/>
<path d="M101.539 0H18.4615C8.3076 0 0 8.37734 0 18.6164V37H120V18.6164C120 8.37734 111.692 0 101.539 0Z" fill="#FFB632"/>
<path d="M38.2493 20.703C38.6577 18.1871 36.9492 15.8165 34.4333 15.4081C31.9174 14.9997 29.5468 16.7082 29.1384 19.2241C28.73 21.74 30.4385 24.1106 32.9544 24.519C35.4703 24.9274 37.8409 23.2189 38.2493 20.703Z" fill="white"/>
<path d="M89.5704 23.225C91.3727 21.4227 91.3727 18.5006 89.5704 16.6983C87.7681 14.896 84.8459 14.896 83.0436 16.6983C81.2413 18.5006 81.2413 21.4227 83.0436 23.225C84.8459 25.0273 87.7681 25.0273 89.5704 23.225Z" fill="white"/>
<path d="M4.61523 97.124C4.61523 107.153 12.8204 115.358 22.849 115.358H97.1512C107.18 115.358 115.385 107.153 115.385 97.124V37.1812H4.61523V97.124Z" fill="white"/>
<path d="M32.263 61.4308C33.5941 59.6924 35.1844 58.296 37.0339 57.2416C38.8834 56.1872 41.2503 55.6611 44.1346 55.6611C46.0201 55.6611 47.7215 55.9019 49.2388 56.3822C50.755 56.8636 52.049 57.539 53.1219 58.4082C54.1937 59.2774 55.0259 60.3318 55.6184 61.5702C56.2099 62.8098 56.5061 64.1692 56.5061 65.6472V66.2017C56.5061 66.9794 56.4234 67.8203 56.2567 68.7265C56.0901 69.6328 55.7851 70.502 55.3418 71.3341C54.8973 72.1663 54.3059 72.9342 53.5663 73.6368C52.8267 74.3393 51.8834 74.9134 50.7376 75.3556C53.4007 75.837 55.3603 76.8914 56.6172 78.5176C57.8742 80.145 58.5038 82.1056 58.5038 84.3973V85.2295C58.5038 86.7468 58.2075 88.2064 57.6161 89.6126C57.0246 91.0177 56.1271 92.2562 54.9257 93.3291C53.7231 94.4031 52.208 95.2614 50.377 95.9095C48.546 96.5554 46.4111 96.88 43.9701 96.88C41.5292 96.88 39.3932 96.5194 37.2299 95.7984C35.0667 95.0773 33.0418 93.9597 31.1553 92.4424L34.6506 86.895C35.6113 87.5975 36.4903 88.1901 37.2855 88.6704C38.0806 89.1519 38.8475 89.5309 39.587 89.8076C40.3266 90.0842 41.0477 90.2781 41.7503 90.3903C42.4517 90.5014 43.2109 90.557 44.0246 90.557C46.5396 90.557 48.3881 90.057 49.5721 89.0593C50.755 88.0604 51.3475 86.6738 51.3475 84.8995V84.1784C51.3475 82.2189 50.7735 80.7854 49.6276 79.8792C48.4807 78.9729 46.6322 78.5198 44.0801 78.5198H38.6993V72.4179H43.4702C44.7271 72.4179 45.7532 72.2796 46.5494 72.0018C47.3446 71.7241 47.9644 71.3363 48.4077 70.8375C48.851 70.3375 49.156 69.7275 49.3226 69.0064C49.4893 68.2854 49.5721 67.4989 49.5721 66.6483V66.2038C49.5721 64.6887 49.0819 63.5886 48.1027 62.9035C47.1224 62.2194 45.8 61.8774 44.1368 61.8774C42.4735 61.8774 41.0575 62.1922 40.0042 62.8207C38.9509 63.4492 37.9793 64.2454 37.0916 65.2061L32.2652 61.4341L32.263 61.4308Z" fill="#304872"/>
<path d="M77.5915 96.2678V64.2596L68.4943 69.4737L65.0544 63.7051L78.4237 56.2711H84.6923V96.2678H77.5915Z" fill="#304872"/>
</g>
<defs>
<clipPath id="clip0_6_813">
<rect width="120" height="120" fill="white"/>
</clipPath>
</defs>
</svg>
