<svg width="120" height="120" viewBox="0 0 120 120" fill="none" xmlns="http://www.w3.org/2000/svg">
<g id="Contract Management">
<rect width="120" height="120" rx="18" fill="#304872"/>
<g id="Vector" filter="url(#filter0_bi_335_17355)">
<path d="M65.8333 40.9844V20H35.625C33.6161 20 32 21.651 32 23.7031V95.2969C32 97.349 33.6161 99 35.625 99H86.375C88.3839 99 90 97.349 90 95.2969V44.6875H69.4583C67.4646 44.6875 65.8333 43.0211 65.8333 40.9844ZM41.6667 31.1094C41.6667 30.4274 42.2074 29.875 42.875 29.875H54.9583C55.6259 29.875 56.1667 30.4274 56.1667 31.1094V33.5781C56.1667 34.2601 55.6259 34.8125 54.9583 34.8125H42.875C42.2074 34.8125 41.6667 34.2601 41.6667 33.5781V31.1094ZM41.6667 40.9844C41.6667 40.3024 42.2074 39.75 42.875 39.75H54.9583C55.6259 39.75 56.1667 40.3024 56.1667 40.9844V43.4531C56.1667 44.1351 55.6259 44.6875 54.9583 44.6875H42.875C42.2074 44.6875 41.6667 44.1351 41.6667 43.4531V40.9844ZM70.789 79.25H77.9167C79.2519 79.25 80.3333 80.3548 80.3333 81.7188C80.3333 83.0827 79.2519 84.1875 77.9167 84.1875H70.789C68.3044 84.1875 66.0659 82.7772 64.9528 80.506C64.5072 79.5925 63.7308 79.5 63.4167 79.5C63.1025 79.5 62.3261 79.591 61.9032 80.4551L60.7447 82.822C60.5441 83.232 60.2356 83.5768 59.8538 83.8177C59.472 84.0587 59.0321 84.1862 58.5833 84.186C58.5259 84.186 58.4701 84.1829 58.4111 84.1782C57.4369 84.1088 56.5986 83.4453 56.292 82.4979L53.75 74.7121L52.1474 79.6311C51.2578 82.356 48.7671 84.1875 45.9547 84.1875H44.0833C42.7481 84.1875 41.6667 83.0827 41.6667 81.7188C41.6667 80.3548 42.7481 79.25 44.0833 79.25H45.9547C46.6843 79.25 47.3307 78.7748 47.5618 78.0681L50.3093 69.6373C50.8077 68.1237 52.1882 67.1053 53.75 67.1053C55.3118 67.1053 56.6923 68.1221 57.1892 69.6373L59.2857 76.0622C62.2718 73.5642 67.4495 74.5655 69.2544 78.2471C69.5595 78.8735 70.1546 79.25 70.789 79.25ZM88.9427 36.2012L74.1557 21.0801C73.476 20.3857 72.5547 20 71.588 20H70.6667V39.75H90V38.8088C90 37.8367 89.6224 36.8955 88.9427 36.2012Z" fill="url(#paint0_linear_335_17355)"/>
</g>
<path id="Vector_2" d="M106.513 56.2474L106.883 55.8774C107.162 55.5991 107.492 55.3784 107.856 55.2279C108.22 55.0773 108.609 54.9999 109.003 55C109.397 55.0001 109.787 55.0778 110.15 55.2285C110.514 55.3793 110.844 55.6002 111.123 55.8787C111.401 56.1571 111.622 56.4877 111.772 56.8514C111.923 57.2152 112 57.6051 112 57.9987C112 58.3924 111.922 58.7822 111.771 59.1459C111.621 59.5096 111.4 59.84 111.121 60.1183L110.751 60.4858C111.384 61.1955 111.722 62.1205 111.694 63.0711C111.667 64.0216 111.277 64.9258 110.605 65.5981L85.0513 91.155C84.8916 91.3139 84.6916 91.4264 84.4728 91.4803L74.5414 93.9632C74.3336 94.015 74.1159 94.0121 73.9095 93.9548C73.7031 93.8975 73.5151 93.7878 73.3636 93.6364C73.2122 93.4849 73.1025 93.2969 73.0452 93.0905C72.9879 92.8841 72.985 92.6664 73.0368 92.4586L75.5196 82.5268C75.574 82.3089 75.6864 82.1098 75.8449 81.9508L99.7846 58.0103C99.5452 57.8418 99.2539 57.7633 98.9622 57.7887C98.6706 57.8142 98.3973 57.9419 98.1906 58.1493L90.0171 66.3256C89.9016 66.4411 89.7646 66.5326 89.6138 66.5951C89.463 66.6576 89.3014 66.6897 89.1381 66.6897C88.9749 66.6897 88.8133 66.6576 88.6624 66.5951C88.5116 66.5326 88.3746 66.4411 88.2592 66.3256C88.1438 66.2102 88.0522 66.0732 87.9897 65.9224C87.9273 65.7716 87.8951 65.6099 87.8951 65.4467C87.8951 65.2834 87.9273 65.1218 87.9897 64.971C88.0522 64.8202 88.1438 64.6831 88.2592 64.5677L96.4377 56.3939C97.1105 55.721 98.0153 55.3312 98.9664 55.3045C99.9175 55.2777 100.843 55.616 101.552 56.2499C102.235 55.6402 103.117 55.3029 104.032 55.3025C104.947 55.302 105.83 55.6384 106.513 56.2474Z" fill="url(#paint1_linear_335_17355)"/>
</g>
<defs>
<filter id="filter0_bi_335_17355" x="28" y="16" width="66" height="87" filterUnits="userSpaceOnUse" color-interpolation-filters="sRGB">
<feFlood flood-opacity="0" result="BackgroundImageFix"/>
<feGaussianBlur in="BackgroundImageFix" stdDeviation="2"/>
<feComposite in2="SourceAlpha" operator="in" result="effect1_backgroundBlur_335_17355"/>
<feBlend mode="normal" in="SourceGraphic" in2="effect1_backgroundBlur_335_17355" result="shape"/>
<feColorMatrix in="SourceAlpha" type="matrix" values="0 0 0 0 0 0 0 0 0 0 0 0 0 0 0 0 0 0 127 0" result="hardAlpha"/>
<feOffset dy="0.5"/>
<feGaussianBlur stdDeviation="2"/>
<feComposite in2="hardAlpha" operator="arithmetic" k2="-1" k3="1"/>
<feColorMatrix type="matrix" values="0 0 0 0 1 0 0 0 0 1 0 0 0 0 1 0 0 0 0.8 0"/>
<feBlend mode="normal" in2="shape" result="effect2_innerShadow_335_17355"/>
</filter>
<linearGradient id="paint0_linear_335_17355" x1="61" y1="20" x2="61" y2="99" gradientUnits="userSpaceOnUse">
<stop stop-color="white" stop-opacity="0.8"/>
<stop offset="1" stop-color="white" stop-opacity="0.1"/>
</linearGradient>
<linearGradient id="paint1_linear_335_17355" x1="105.695" y1="61.3774" x2="83.8271" y2="83.2335" gradientUnits="userSpaceOnUse">
<stop stop-color="#FFA502"/>
<stop offset="1" stop-color="#FF8430"/>
</linearGradient>
</defs>
</svg>
