<svg width="120" height="120" viewBox="0 0 120 120" fill="none" xmlns="http://www.w3.org/2000/svg">
<g id="CRM" clip-path="url(#clip)">
<rect width="120" height="120" rx="18" fill="white"/>
<rect width="120" height="24" fill="#FFB632"/>
<circle cx="15" cy="14" r="4" fill="white"/>
<circle cx="27" cy="14" r="4" fill="white"/>
<circle cx="39" cy="14" r="4" fill="white"/>
<path d="M30.0025 51.9973V33C40.4944 33 48.9998 41.5054 48.9998 51.9973C48.9998 54.4921 48.5084 56.9624 47.5537 59.2673L30.0025 51.9973Z" fill="#304872" stroke="white"/>
<path d="M30.0025 51.9973L47.5537 59.2673C43.5387 68.9605 32.4258 73.5636 22.7325 69.5485L30.0025 51.9973Z" fill="#C1C9D5" stroke="white"/>
<path d="M30.0023 51.9973L22.7323 69.5486C13.0391 65.5335 8.43597 54.4207 12.4511 44.7274C15.3915 37.6286 22.3186 33 30.0023 33V51.9973Z" fill="#FFB632" stroke="white"/>
<path d="M64.658 54.288C62.962 54.288 61.506 53.928 60.29 53.208C59.074 52.472 58.138 51.456 57.482 50.16C56.826 48.848 56.498 47.336 56.498 45.624C56.498 43.912 56.826 42.4 57.482 41.088C58.138 39.776 59.074 38.752 60.29 38.016C61.506 37.28 62.962 36.912 64.658 36.912C66.706 36.912 68.378 37.416 69.674 38.424C70.97 39.432 71.778 40.856 72.098 42.696H68.546C68.338 41.8 67.906 41.104 67.25 40.608C66.594 40.096 65.722 39.84 64.634 39.84C63.626 39.84 62.754 40.08 62.018 40.56C61.298 41.024 60.746 41.688 60.362 42.552C59.978 43.4 59.786 44.424 59.786 45.624C59.786 46.808 59.978 47.832 60.362 48.696C60.746 49.56 61.298 50.224 62.018 50.688C62.754 51.152 63.626 51.384 64.634 51.384C65.722 51.384 66.594 51.152 67.25 50.688C67.906 50.208 68.338 49.544 68.546 48.696H72.098C71.778 50.44 70.97 51.808 69.674 52.8C68.378 53.792 66.706 54.288 64.658 54.288ZM74.7916 54V37.2H81.0796C82.4236 37.2 83.5356 37.432 84.4156 37.896C85.3116 38.36 85.9756 38.984 86.4076 39.768C86.8396 40.536 87.0556 41.392 87.0556 42.336C87.0556 43.232 86.8396 44.072 86.4076 44.856C85.9916 45.624 85.3356 46.248 84.4396 46.728C83.5596 47.192 82.4236 47.424 81.0316 47.424H78.0316V54H74.7916ZM83.5036 54L80.0476 46.608H83.5516L87.1996 54H83.5036ZM78.0316 45.072H80.8636C81.8556 45.072 82.5836 44.832 83.0476 44.352C83.5116 43.872 83.7436 43.24 83.7436 42.456C83.7436 41.672 83.5116 41.056 83.0476 40.608C82.5836 40.144 81.8556 39.912 80.8636 39.912H78.0316V45.072ZM89.8619 54V37.2H93.7259L98.9579 47.664L104.118 37.2H107.982V54H104.742V42.696L100.206 51.6H97.6379L93.1019 42.672V54H89.8619Z" fill="#304872"/>
<rect x="49" y="67" width="61" height="8" rx="4" fill="#C1C9D5"/>
<rect x="11" y="84" width="99" height="8" rx="4" fill="#C1C9D5"/>
<rect x="11" y="101" width="99" height="8" rx="4" fill="#C1C9D5"/>
</g>
<clipPath id="clip">
<rect width="120" height="120" rx="18" fill="white"/>
</clipPath>
</svg>
