<svg width="120" height="120" viewBox="85 80 125 125" fill="none" xmlns="http://www.w3.org/2000/svg">
<path fill-rule="evenodd" clip-rule="evenodd" d="M176.584 88.9998C168.464 88.9998 161.059 91.9611 155.511 96.7611C149.788 101.561 145.342 101.561 139.793 96.7611C134.264 92.1353 126.879 89.1934 118.739 89.1934C106.173 89.1934 95.2692 96.0256 90.2813 106.013C87.1493 112.497 87.5167 124.148 89.7206 131C90.4553 134.135 92.1179 137.851 93.9739 141.722C94.3412 141.529 94.9019 141.529 95.2692 141.529H112.456L121.697 123.955C122.258 123.026 123.167 122.464 124.288 122.464C125.39 122.639 126.144 123.2 126.685 124.129L146.637 170.193L152.186 156.316C152.553 155.387 153.674 154.845 154.776 154.845H189.711C190.446 154.845 191.18 155.213 191.567 155.58C192.476 154.477 193.404 153.18 194.351 151.884C196.942 148.729 202.297 141.142 204.501 134.484C208.019 125.058 208.019 118.206 208.019 118.206C208.019 101.929 193.964 88.9805 176.603 88.9805L176.584 88.9998Z" fill="#304872"/>
<path fill-rule="evenodd" clip-rule="evenodd" d="M156.874 159.665L149.489 177.8C149.122 178.729 148.02 179.465 146.898 179.465C145.797 179.465 144.869 178.729 144.501 177.8L124.163 131L116.778 144.877C116.41 145.806 115.482 146.348 114.554 146.348H97C97.1933 146.716 97.3673 146.91 97.5607 147.277L102.181 153.568C103.477 155.039 104.772 156.335 106.067 157.826C121.766 173.561 132.689 185.387 139.32 192.8C144.134 198.161 151.886 198.161 156.7 192.8C163.158 185.581 173.327 174.49 187.923 159.684H156.874V159.665Z" fill="#FFB632"/>
<path d="M187.25 100.613C190.214 102.324 192.676 104.786 194.388 107.75C196.099 110.715 197 114.077 197 117.5C197 120.923 196.099 124.286 194.387 127.25C192.676 130.215 190.214 132.676 187.25 134.388C184.285 136.099 180.923 137 177.5 137C174.077 137 170.714 136.099 167.75 134.387C164.785 132.676 162.324 130.214 160.612 127.25C158.901 124.285 158 120.923 158 117.5L158.01 116.868C158.119 113.5 159.099 110.218 160.854 107.342C162.609 104.466 165.08 102.094 168.025 100.457C170.97 98.8194 174.289 97.9733 177.658 98.0006C181.027 98.028 184.332 98.928 187.25 100.613ZM177.5 105.8C176.983 105.8 176.487 106.005 176.121 106.371C175.755 106.737 175.55 107.233 175.55 107.75C173.998 107.75 172.511 108.366 171.413 109.463C170.316 110.56 169.7 112.048 169.7 113.6C169.7 115.151 170.316 116.639 171.413 117.736C172.511 118.833 173.998 119.45 175.55 119.45V123.35C175.227 123.368 174.904 123.306 174.609 123.171C174.315 123.036 174.058 122.831 173.861 122.574L173.729 122.377C173.462 121.946 173.038 121.637 172.547 121.513C172.056 121.39 171.537 121.462 171.098 121.715C170.659 121.967 170.336 122.381 170.197 122.868C170.057 123.354 170.113 123.876 170.351 124.323C170.849 125.186 171.559 125.908 172.414 126.419C173.269 126.931 174.24 127.216 175.236 127.248H175.55C175.55 127.726 175.725 128.187 176.042 128.544C176.36 128.902 176.797 129.13 177.272 129.186L177.5 129.2C178.017 129.2 178.513 128.994 178.879 128.628C179.245 128.263 179.45 127.767 179.45 127.25L179.793 127.24C181.313 127.152 182.739 126.475 183.768 125.352C184.797 124.23 185.348 122.75 185.303 121.228C185.258 119.706 184.622 118.261 183.529 117.201C182.436 116.141 180.973 115.548 179.45 115.55V111.65C180.148 111.626 180.758 111.923 181.139 112.426L181.271 112.623C181.538 113.053 181.962 113.363 182.453 113.486C182.944 113.61 183.463 113.537 183.902 113.285C184.341 113.032 184.664 112.618 184.803 112.132C184.943 111.645 184.887 111.123 184.649 110.677C184.151 109.813 183.441 109.091 182.587 108.579C181.732 108.066 180.76 107.781 179.764 107.75H179.45C179.45 107.233 179.245 106.737 178.879 106.371C178.513 106.005 178.017 105.8 177.5 105.8ZM179.45 119.45C179.967 119.45 180.463 119.655 180.829 120.021C181.195 120.386 181.4 120.882 181.4 121.4C181.4 121.917 181.195 122.413 180.829 122.778C180.463 123.144 179.967 123.35 179.45 123.35V119.45ZM175.55 111.65V115.55C175.033 115.55 174.537 115.344 174.171 114.979C173.805 114.613 173.6 114.117 173.6 113.6C173.6 113.083 173.805 112.587 174.171 112.221C174.537 111.855 175.033 111.65 175.55 111.65Z" fill="#FFB632"/>
</svg>
