<svg width="120" height="120" viewBox="80 80 140 140" fill="none" xmlns="http://www.w3.org/2000/svg">
<path d="M207.946 194.021L187.386 173.48C185.178 171.465 182.433 170.908 179.861 172.021L176.021 168.163C193.26 148.716 192.723 118.98 174.006 100.455C154.924 81.1816 123.537 81.1816 104.455 100.455C85.1816 119.537 85.1816 150.924 104.455 170.179C123 188.704 152.716 189.26 171.99 172.021L175.849 175.88C174.927 178.452 175.484 181.39 177.5 183.405L198.232 203.965C200.805 206.71 205.201 206.71 207.946 203.965C210.691 201.22 210.691 196.997 207.946 194.06V194.021Z" fill="#304872"/>
<path d="M168.132 164.304C152.16 180.084 126.282 180.084 110.33 164.304C94.3577 148.352 94.3577 122.282 110.33 106.31C126.282 90.3385 152.16 90.3385 168.132 106.31C184.103 122.282 184.103 148.332 168.132 164.304Z" fill="#FFB632"/>
<path d="M152.5 111.618C156.605 113.987 160.013 117.396 162.383 121.5C164.752 125.605 166 130.261 166 135C166 139.74 164.752 144.396 162.383 148.5C160.013 152.605 156.604 156.013 152.5 158.383C148.395 160.753 143.739 162 139 162C134.26 162 129.604 160.752 125.5 158.382C121.395 156.013 117.987 152.604 115.617 148.5C113.247 144.395 112 139.739 112 135L112.014 134.125C112.165 129.462 113.522 124.918 115.952 120.935C118.382 116.953 121.803 113.668 125.88 111.401C129.958 109.135 134.553 107.963 139.219 108.001C143.884 108.039 148.46 109.285 152.5 111.618ZM139 118.8C138.284 118.8 137.597 119.084 137.091 119.59C136.584 120.097 136.3 120.784 136.3 121.5C134.152 121.5 132.091 122.353 130.572 123.872C129.053 125.391 128.2 127.451 128.2 129.6C128.2 131.748 129.053 133.808 130.572 135.327C132.091 136.846 134.152 137.699 136.3 137.699V143.099C135.852 143.124 135.405 143.039 134.998 142.852C134.59 142.665 134.235 142.381 133.962 142.025L133.778 141.752C133.409 141.156 132.822 140.728 132.142 140.557C131.463 140.386 130.743 140.486 130.136 140.836C129.528 141.186 129.081 141.758 128.888 142.432C128.695 143.106 128.772 143.828 129.102 144.447C129.791 145.642 130.774 146.641 131.958 147.35C133.141 148.059 134.486 148.454 135.865 148.497H136.3C136.299 149.158 136.542 149.797 136.981 150.292C137.421 150.787 138.027 151.103 138.684 151.18L139 151.199C139.716 151.199 140.403 150.915 140.909 150.409C141.416 149.902 141.7 149.215 141.7 148.499L142.175 148.486C144.28 148.364 146.255 147.427 147.679 145.872C149.104 144.318 149.866 142.269 149.804 140.162C149.742 138.054 148.861 136.054 147.348 134.586C145.835 133.118 143.808 132.297 141.7 132.3V126.9C142.667 126.867 143.512 127.278 144.038 127.974L144.222 128.247C144.591 128.843 145.178 129.271 145.858 129.442C146.537 129.613 147.257 129.513 147.864 129.163C148.472 128.813 148.919 128.241 149.112 127.567C149.305 126.893 149.228 126.171 148.898 125.552C148.209 124.357 147.227 123.357 146.043 122.647C144.859 121.938 143.514 121.543 142.135 121.5H141.7C141.7 120.784 141.416 120.097 140.909 119.59C140.403 119.084 139.716 118.8 139 118.8ZM141.7 137.699C142.416 137.699 143.103 137.984 143.609 138.49C144.116 138.997 144.4 139.683 144.4 140.399C144.4 141.116 144.116 141.802 143.609 142.309C143.103 142.815 142.416 143.099 141.7 143.099V137.699ZM136.3 126.9V132.3C135.584 132.3 134.897 132.015 134.391 131.509C133.884 131.002 133.6 130.316 133.6 129.6C133.6 128.883 133.884 128.197 134.391 127.69C134.897 127.184 135.584 126.9 136.3 126.9Z" fill="#304872"/>
</svg>
