<svg width="120" height="120" viewBox="0 0 120 120" fill="none" xmlns="http://www.w3.org/2000/svg">
<rect width="120" height="120" rx="18" fill="#304872"/>
<path d="M53.5 56.5C56.9612 56.5 60.3446 55.4883 63.2225 53.5929C66.1003 51.6974 68.3434 49.0033 69.6679 45.8513C70.9924 42.6993 71.339 39.2309 70.6637 35.8847C69.9885 32.5385 68.3218 29.4649 65.8744 27.0524C63.4269 24.64 60.3088 22.9971 56.9141 22.3315C53.5194 21.6659 50.0007 22.0075 46.803 23.3131C43.6053 24.6187 40.8722 26.8297 38.9493 29.6664C37.0264 32.5032 36 35.8383 36 39.25C36 43.825 37.8437 48.2126 41.1256 51.4476C44.4075 54.6826 48.8587 56.5 53.5 56.5ZM53.5 61.4286C42.6531 61.4286 21 68.0329 21 81.1429V91H86V81.1429C86 68.0329 64.3469 61.4286 53.5 61.4286Z" fill="url(#paint0_linear_335_22737)"/>
<g filter="url(#filter0_bi_335_22737)">
<rect x="66" y="72" width="40" height="30" rx="4" fill="url(#paint1_linear_335_22737)"/>
<rect x="82" y="69" width="8" height="10" rx="2" fill="white"/>
<path d="M70 85.25C70 84.9185 70.1686 84.6005 70.4686 84.3661C70.7687 84.1317 71.1757 84 71.6 84H78C78.4243 84 78.8313 84.1317 79.1314 84.3661C79.4314 84.6005 79.6 84.9185 79.6 85.25V92.75C79.6 93.0815 79.4314 93.3995 79.1314 93.6339C78.8313 93.8683 78.4243 94 78 94H71.6C71.1757 94 70.7687 93.8683 70.4686 93.6339C70.1686 93.3995 70 93.0815 70 92.75V85.25ZM102 85.875C102 86.3723 101.747 86.8492 101.297 87.2008C100.847 87.5525 100.237 87.75 99.6 87.75H85.2C84.5635 87.75 83.953 87.5525 83.5029 87.2008C83.0529 86.8492 82.8 86.3723 82.8 85.875C82.8 85.3777 83.0529 84.9008 83.5029 84.5492C83.953 84.1975 84.5635 84 85.2 84H99.6C100.237 84 100.847 84.1975 101.297 84.5492C101.747 84.9008 102 85.3777 102 85.875ZM93.2 94C93.8365 94 94.447 93.8025 94.8971 93.4508C95.3471 93.0992 95.6 92.6223 95.6 92.125C95.6 91.6277 95.3471 91.1508 94.8971 90.7992C94.447 90.4475 93.8365 90.25 93.2 90.25H85.2C84.5635 90.25 83.953 90.4475 83.5029 90.7992C83.0529 91.1508 82.8 91.6277 82.8 92.125C82.8 92.6223 83.0529 93.0992 83.5029 93.4508C83.953 93.8025 84.5635 94 85.2 94H93.2Z" fill="#304872"/>
</g>
<defs>
<filter id="filter0_bi_335_22737" x="58" y="61" width="56" height="49" filterUnits="userSpaceOnUse" color-interpolation-filters="sRGB">
<feFlood flood-opacity="0" result="BackgroundImageFix"/>
<feGaussianBlur in="BackgroundImageFix" stdDeviation="4"/>
<feComposite in2="SourceAlpha" operator="in" result="effect1_backgroundBlur_335_22737"/>
<feBlend mode="normal" in="SourceGraphic" in2="effect1_backgroundBlur_335_22737" result="shape"/>
<feColorMatrix in="SourceAlpha" type="matrix" values="0 0 0 0 0 0 0 0 0 0 0 0 0 0 0 0 0 0 127 0" result="hardAlpha"/>
<feOffset dy="0.5"/>
<feGaussianBlur stdDeviation="1"/>
<feComposite in2="hardAlpha" operator="arithmetic" k2="-1" k3="1"/>
<feColorMatrix type="matrix" values="0 0 0 0 1 0 0 0 0 1 0 0 0 0 1 0 0 0 0.8 0"/>
<feBlend mode="normal" in2="shape" result="effect2_innerShadow_335_22737"/>
</filter>
<linearGradient id="paint0_linear_335_22737" x1="75.492" y1="33.283" x2="36.8725" y2="69.6438" gradientUnits="userSpaceOnUse">
<stop stop-color="#FFA502"/>
<stop offset="1" stop-color="#FF8430"/>
</linearGradient>
<linearGradient id="paint1_linear_335_22737" x1="86" y1="72" x2="86" y2="102" gradientUnits="userSpaceOnUse">
<stop stop-color="white" stop-opacity="0.2"/>
<stop offset="1" stop-color="white" stop-opacity="0.8"/>
</linearGradient>
</defs>
</svg>
