<svg width="120" height="120" viewBox="0 0 120 120" fill="none" xmlns="http://www.w3.org/2000/svg">
<g id="Procurement Management">
<rect width="120" height="120" rx="18" fill="#304872"/>
<path id="Vector" d="M60.5625 24H47.4375C45.3621 24.0001 43.3595 24.7752 41.8127 26.1773C40.2658 27.5794 39.2831 29.51 39.0525 31.6H32.4375C30.1997 31.6 28.0536 32.5008 26.4713 34.1042C24.8889 35.7077 24 37.8824 24 40.15V91.45C24 93.7176 24.8889 95.8923 26.4713 97.4958C28.0536 99.0992 30.1997 100 32.4375 100H75.5625C76.6705 100 77.7677 99.7788 78.7914 99.3492C79.8151 98.9195 80.7452 98.2897 81.5287 97.4958C82.3122 96.7018 82.9337 95.7593 83.3577 94.7219C83.7818 93.6846 84 92.5728 84 91.45V40.15C84 39.0272 83.7818 37.9154 83.3577 36.8781C82.9337 35.8407 82.3122 34.8982 81.5287 34.1042C80.7452 33.3103 79.8151 32.6805 78.7914 32.2508C77.7677 31.8212 76.6705 31.6 75.5625 31.6H68.9475C68.7169 29.51 67.7342 27.5794 66.1873 26.1773C64.6405 24.7752 62.6379 24.0001 60.5625 24ZM47.4375 29.7H60.5625C61.3084 29.7 62.0238 30.0003 62.5512 30.5347C63.0787 31.0692 63.375 31.7941 63.375 32.55C63.375 33.3059 63.0787 34.0308 62.5512 34.5653C62.0238 35.0997 61.3084 35.4 60.5625 35.4H47.4375C46.6916 35.4 45.9762 35.0997 45.4488 34.5653C44.9213 34.0308 44.625 33.3059 44.625 32.55C44.625 31.7941 44.9213 31.0692 45.4488 30.5347C45.9762 30.0003 46.6916 29.7 47.4375 29.7ZM72.8625 58.314L52.2375 79.214C51.7102 79.7477 50.9953 80.0475 50.25 80.0475C49.5047 80.0475 48.7898 79.7477 48.2625 79.214L38.8875 69.714C38.6112 69.4531 38.3895 69.1384 38.2358 68.7888C38.0821 68.4392 37.9994 68.0619 37.9928 67.6792C37.9861 67.2965 38.0556 66.9164 38.197 66.5615C38.3385 66.2067 38.549 65.8843 38.8161 65.6137C39.0832 65.343 39.4013 65.1297 39.7515 64.9863C40.1017 64.843 40.4768 64.7726 40.8545 64.7794C41.2321 64.7861 41.6045 64.8699 41.9495 65.0256C42.2945 65.1814 42.605 65.406 42.8625 65.686L50.25 73.172L68.8875 54.286C69.145 54.006 69.4555 53.7814 69.8005 53.6256C70.1455 53.4699 70.5179 53.3861 70.8955 53.3794C71.2732 53.3726 71.6483 53.443 71.9985 53.5863C72.3487 53.7297 72.6668 53.943 72.9339 54.2137C73.201 54.4843 73.4115 54.8067 73.553 55.1615C73.6944 55.5164 73.7639 55.8965 73.7572 56.2792C73.7506 56.6619 73.6679 57.0392 73.5142 57.3888C73.3605 57.7384 73.1388 58.0531 72.8625 58.314Z" fill="url(#paint0_linear_335_2954)"/>
<g id="Vector_2" filter="url(#filter0_bi_335_2954)">
<path d="M70.0741 74.1295L66 82.2857H82.7143V72H73.5295C72.067 72 70.733 72.8277 70.0741 74.1295ZM85.2857 82.2857H102L97.9259 74.1295C97.267 72.8277 95.933 72 94.4705 72H85.2857V82.2857ZM102 84.8571H66V102.857C66 105.694 68.3063 108 71.1429 108H96.8571C99.6937 108 102 105.694 102 102.857V84.8571Z" fill="url(#paint1_linear_335_2954)"/>
</g>
</g>
<defs>
<filter id="filter0_bi_335_2954" x="58" y="64" width="52" height="52" filterUnits="userSpaceOnUse" color-interpolation-filters="sRGB">
<feFlood flood-opacity="0" result="BackgroundImageFix"/>
<feGaussianBlur in="BackgroundImageFix" stdDeviation="4"/>
<feComposite in2="SourceAlpha" operator="in" result="effect1_backgroundBlur_335_2954"/>
<feBlend mode="normal" in="SourceGraphic" in2="effect1_backgroundBlur_335_2954" result="shape"/>
<feColorMatrix in="SourceAlpha" type="matrix" values="0 0 0 0 0 0 0 0 0 0 0 0 0 0 0 0 0 0 127 0" result="hardAlpha"/>
<feOffset dy="-1"/>
<feGaussianBlur stdDeviation="1.5"/>
<feComposite in2="hardAlpha" operator="arithmetic" k2="-1" k3="1"/>
<feColorMatrix type="matrix" values="0 0 0 0 1 0 0 0 0 1 0 0 0 0 1 0 0 0 0.8 0"/>
<feBlend mode="normal" in2="shape" result="effect2_innerShadow_335_2954"/>
</filter>
<linearGradient id="paint0_linear_335_2954" x1="74.3003" y1="36.4277" x2="32.8544" y2="69.1302" gradientUnits="userSpaceOnUse">
<stop stop-color="#FFA502"/>
<stop offset="1" stop-color="#FF8430"/>
</linearGradient>
<linearGradient id="paint1_linear_335_2954" x1="84" y1="72" x2="84" y2="108" gradientUnits="userSpaceOnUse">
<stop stop-color="white" stop-opacity="0.8"/>
<stop offset="1" stop-color="white" stop-opacity="0.1"/>
</linearGradient>
</defs>
</svg>
