<svg width="120" height="120" viewBox="0 0 120 120" fill="none" xmlns="http://www.w3.org/2000/svg">
<g id="Online Store" filter="url(#filter0_ii_335_1851)">
<rect width="120" height="120" rx="18" fill="#FFB632"/>
<path id="Vector" fill-rule="evenodd" clip-rule="evenodd" d="M47.507 36.9231H73.493C75.1851 36.9232 76.818 37.5478 78.0812 38.6779C79.3444 39.8081 80.1495 41.3649 80.3436 43.0523L84.0585 75.36C84.17 76.3297 84.076 77.312 83.7826 78.2426C83.4892 79.1733 83.0031 80.0311 82.3562 80.7598C81.7093 81.4885 80.9162 82.0717 80.0289 82.471C79.1417 82.8704 78.1803 83.0769 77.208 83.0769H43.7921C42.8197 83.0769 41.8583 82.8704 40.9711 82.471C40.0838 82.0717 39.2907 81.4885 38.6438 80.7598C37.9969 80.0311 37.5108 79.1733 37.2174 78.2426C36.924 77.312 36.83 76.3297 36.9415 75.36L40.6564 43.0523C40.8505 41.3649 41.6557 39.8081 42.9188 38.6779C44.182 37.5478 45.8149 36.9232 47.507 36.9231ZM33.8059 42.2585C34.1939 38.8837 35.8043 35.77 38.3306 33.5097C40.857 31.2494 44.1229 30.0002 47.507 30H73.493C76.8771 30.0002 80.143 31.2494 82.6694 33.5097C85.1957 35.77 86.8061 38.8837 87.1941 42.2585L90.909 74.5662C91.132 76.5055 90.944 78.4702 90.3572 80.3315C89.7705 82.1927 88.7983 83.9083 87.5045 85.3658C86.2106 86.8232 84.6244 87.9896 82.8499 88.7882C81.0754 89.5869 79.1527 89.9999 77.208 90H43.7921C41.8473 89.9999 39.9246 89.5869 38.1501 88.7882C36.3756 87.9896 34.7894 86.8232 33.4956 85.3658C32.2017 83.9083 31.2295 82.1927 30.6428 80.3315C30.056 78.4702 29.868 76.5055 30.091 74.5662L33.8059 42.2585ZM46.707 47.3077C46.707 46.3896 47.0703 45.5092 47.7169 44.86C48.3636 44.2108 49.2407 43.8462 50.1552 43.8462C51.0698 43.8462 51.9468 44.2108 52.5935 44.86C53.2402 45.5092 53.6035 46.3896 53.6035 47.3077V48.4615C53.6035 50.2977 54.3301 52.0586 55.6234 53.3569C56.9168 54.6552 58.6709 55.3846 60.5 55.3846C62.3291 55.3846 64.0832 54.6552 65.3766 53.3569C66.6699 52.0586 67.3965 50.2977 67.3965 48.4615V47.3077C67.3965 46.3896 67.7598 45.5092 68.4065 44.86C69.0532 44.2108 69.9302 43.8462 70.8448 43.8462C71.7593 43.8462 72.6364 44.2108 73.2831 44.86C73.9297 45.5092 74.293 46.3896 74.293 47.3077V48.4615C74.293 52.1338 72.8398 55.6556 70.2531 58.2522C67.6665 60.8489 64.1581 62.3077 60.5 62.3077C56.8419 62.3077 53.3336 60.8489 50.7469 58.2522C48.1602 55.6556 46.707 52.1338 46.707 48.4615V47.3077Z" fill="#CC8401"/>
<path id="Vector_2" fill-rule="evenodd" clip-rule="evenodd" d="M73.493 36.9231H47.507C45.8149 36.9232 44.182 37.5478 42.9188 38.6779C41.6556 39.8081 40.8505 41.3649 40.6564 43.0523L36.9415 75.36C36.83 76.3297 36.924 77.312 37.2174 78.2426C37.5108 79.1733 37.9969 80.0311 38.6438 80.7598C39.2907 81.4885 40.0838 82.0717 40.9711 82.471C41.8583 82.8704 42.8197 83.0769 43.7921 83.0769H77.2079C78.1803 83.0769 79.1417 82.8704 80.0289 82.471C80.9162 82.0717 81.7093 81.4885 82.3562 80.7598C83.0031 80.0311 83.4892 79.1733 83.7826 78.2426C84.076 77.312 84.17 76.3297 84.0585 75.36L80.3436 43.0523C80.1495 41.3649 79.3443 39.8081 78.0812 38.6779C76.818 37.5478 75.1851 36.9232 73.493 36.9231ZM38.3306 33.5097C35.8043 35.77 34.1939 38.8837 33.8059 42.2585L30.091 74.5662C29.868 76.5055 30.056 78.4702 30.6428 80.3315C31.2295 82.1927 32.2017 83.9083 33.4956 85.3658C34.7894 86.8232 36.3756 87.9896 38.1501 88.7882C39.9246 89.5869 41.8473 89.9999 43.7921 90H77.2079C79.1527 89.9999 81.0754 89.5869 82.8499 88.7882C84.6244 87.9896 86.2106 86.8232 87.5044 85.3658C88.7983 83.9083 89.7705 82.1927 90.3572 80.3315C90.944 78.4702 91.132 76.5055 90.909 74.5662L87.1941 42.2585C86.8061 38.8837 85.1957 35.77 82.6694 33.5097C80.143 31.2494 76.8771 30.0002 73.493 30H47.507C44.1229 30.0002 40.857 31.2494 38.3306 33.5097Z" fill="white"/>
</g>
<defs>
<filter id="filter0_ii_335_1851" x="-4" y="-4" width="129" height="129" filterUnits="userSpaceOnUse" color-interpolation-filters="sRGB">
<feFlood flood-opacity="0" result="BackgroundImageFix"/>
<feBlend mode="normal" in="SourceGraphic" in2="BackgroundImageFix" result="shape"/>
<feColorMatrix in="SourceAlpha" type="matrix" values="0 0 0 0 0 0 0 0 0 0 0 0 0 0 0 0 0 0 127 0" result="hardAlpha"/>
<feOffset dx="5" dy="5"/>
<feGaussianBlur stdDeviation="3"/>
<feComposite in2="hardAlpha" operator="arithmetic" k2="-1" k3="1"/>
<feColorMatrix type="matrix" values="0 0 0 0 1 0 0 0 0 1 0 0 0 0 1 0 0 0 0.4 0"/>
<feBlend mode="normal" in2="shape" result="effect1_innerShadow_335_1851"/>
<feColorMatrix in="SourceAlpha" type="matrix" values="0 0 0 0 0 0 0 0 0 0 0 0 0 0 0 0 0 0 127 0" result="hardAlpha"/>
<feOffset dx="-4" dy="-4"/>
<feGaussianBlur stdDeviation="4"/>
<feComposite in2="hardAlpha" operator="arithmetic" k2="-1" k3="1"/>
<feColorMatrix type="matrix" values="0 0 0 0 0 0 0 0 0 0 0 0 0 0 0 0 0 0 0.1 0"/>
<feBlend mode="normal" in2="effect1_innerShadow_335_1851" result="effect2_innerShadow_335_1851"/>
</filter>
</defs>
</svg>
