<svg width="120" height="120" viewBox="0 0 120 120" fill="none" xmlns="http://www.w3.org/2000/svg">
<g filter="url(#filter0_ii_335_17024)">
<rect width="120" height="120" rx="18" fill="#FFB632"/>
<path d="M25.8922 78V39.6H36.1162C39.7002 39.6 42.2842 40.328 43.8682 41.784C45.4682 43.224 46.3242 45.616 46.4362 48.96C46.4842 50.304 46.5082 51.552 46.5082 52.704C46.5082 53.856 46.4842 55.104 46.4362 56.448C46.3242 59.776 45.4682 62.168 43.8682 63.624C42.2842 65.08 39.7002 65.808 36.1162 65.808H33.0922V78H25.8922ZM33.0922 59.472H36.1162C37.1242 59.472 37.8842 59.24 38.3962 58.776C38.9082 58.312 39.1882 57.664 39.2362 56.832C39.2842 56.048 39.3162 55.168 39.3322 54.192C39.3482 53.2 39.3482 52.216 39.3322 51.24C39.3162 50.248 39.2842 49.36 39.2362 48.576C39.1882 47.728 38.9082 47.08 38.3962 46.632C37.8842 46.168 37.1242 45.936 36.1162 45.936H33.0922V59.472ZM60.4443 78.48C56.7323 78.48 54.0523 77.736 52.4043 76.248C50.7723 74.76 49.9163 72.288 49.8363 68.832C49.8043 67.024 49.7803 65.296 49.7643 63.648C49.7483 62 49.7403 60.376 49.7403 58.776C49.7403 57.176 49.7483 55.552 49.7643 53.904C49.7803 52.24 49.8043 50.512 49.8363 48.72C49.9163 45.28 50.7723 42.824 52.4043 41.352C54.0523 39.864 56.7323 39.12 60.4443 39.12C64.0923 39.12 66.7323 39.864 68.3643 41.352C70.0123 42.824 70.8923 45.28 71.0043 48.72C71.0843 50.528 71.1403 52.264 71.1723 53.928C71.2043 55.576 71.2203 57.208 71.2203 58.824C71.2203 60.424 71.2043 62.048 71.1723 63.696C71.1403 65.328 71.0843 67.04 71.0043 68.832C70.8923 72.288 70.0123 74.76 68.3643 76.248C66.7323 77.736 64.0923 78.48 60.4443 78.48ZM60.4443 72.624C61.6283 72.624 62.4763 72.36 62.9883 71.832C63.5163 71.304 63.7883 70.432 63.8043 69.216C63.8843 67.456 63.9483 65.712 63.9963 63.984C64.0443 62.24 64.0683 60.504 64.0683 58.776C64.0683 57.048 64.0443 55.312 63.9963 53.568C63.9483 51.824 63.8843 50.08 63.8043 48.336C63.7883 47.136 63.5163 46.28 62.9883 45.768C62.4763 45.24 61.6283 44.976 60.4443 44.976C59.2763 44.976 58.4203 45.24 57.8763 45.768C57.3483 46.28 57.0683 47.136 57.0363 48.336C56.9563 50.08 56.8923 51.824 56.8443 53.568C56.8123 55.312 56.7963 57.048 56.7963 58.776C56.7963 60.504 56.8123 62.24 56.8443 63.984C56.8923 65.712 56.9563 67.456 57.0363 69.216C57.0683 70.432 57.3483 71.304 57.8763 71.832C58.4203 72.36 59.2763 72.624 60.4443 72.624ZM85.3488 78.48C81.7488 78.48 79.1408 77.736 77.5248 76.248C75.9088 74.76 75.0288 72.288 74.8848 68.832C74.8688 68.32 74.8608 67.76 74.8608 67.152C74.8608 66.528 74.8768 65.912 74.9088 65.304C74.9408 64.68 74.9968 64.112 75.0768 63.6H81.8448C81.7808 64.768 81.7408 65.92 81.7248 67.056C81.7088 68.192 81.7488 69.232 81.8448 70.176C81.9248 70.96 82.2608 71.568 82.8528 72C83.4608 72.416 84.2928 72.624 85.3488 72.624C86.3408 72.624 87.1248 72.416 87.7008 72C88.2768 71.568 88.6128 70.96 88.7088 70.176C88.7728 69.632 88.8128 69.096 88.8288 68.568C88.8608 68.024 88.8608 67.488 88.8288 66.96C88.8128 66.416 88.7728 65.872 88.7088 65.328C88.6448 64.656 88.3568 64.04 87.8448 63.48C87.3328 62.92 86.6928 62.56 85.9248 62.4L81.5088 61.392C79.8288 61.008 78.5008 60.408 77.5248 59.592C76.5488 58.776 75.8448 57.76 75.4128 56.544C74.9808 55.328 74.7408 53.92 74.6928 52.32C74.6768 51.616 74.6688 50.992 74.6688 50.448C74.6688 49.888 74.6768 49.312 74.6928 48.72C74.7888 46.432 75.2128 44.584 75.9648 43.176C76.7168 41.768 77.8528 40.744 79.3728 40.104C80.9088 39.448 82.9008 39.12 85.3488 39.12C88.9328 39.12 91.5248 39.864 93.1248 41.352C94.7408 42.824 95.6208 45.28 95.7648 48.72C95.7968 49.408 95.7968 50.248 95.7648 51.24C95.7488 52.232 95.7168 53.152 95.6688 54H88.7568C88.8048 52.896 88.8368 51.792 88.8528 50.688C88.8688 49.584 88.8528 48.48 88.8048 47.376C88.7888 46.608 88.4768 46.016 87.8688 45.6C87.2768 45.184 86.4368 44.976 85.3488 44.976C84.3408 44.976 83.5328 45.184 82.9248 45.6C82.3328 46.016 81.9888 46.608 81.8928 47.376C81.7968 48.192 81.7488 49.016 81.7488 49.848C81.7488 50.68 81.7968 51.504 81.8928 52.32C81.9728 52.96 82.1968 53.552 82.5648 54.096C82.9328 54.624 83.5248 54.976 84.3408 55.152L88.2288 55.968C90.0368 56.352 91.4928 56.968 92.5968 57.816C93.7168 58.648 94.5408 59.696 95.0688 60.96C95.5968 62.224 95.8928 63.68 95.9568 65.328C95.9728 65.696 95.9808 66.08 95.9808 66.48C95.9808 66.88 95.9728 67.28 95.9568 67.68C95.9408 68.08 95.9248 68.464 95.9088 68.832C95.7648 72.288 94.8768 74.76 93.2448 76.248C91.6128 77.736 88.9808 78.48 85.3488 78.48Z" fill="white"/>
</g>
<defs>
<filter id="filter0_ii_335_17024" x="-4" y="-4" width="129" height="129" filterUnits="userSpaceOnUse" color-interpolation-filters="sRGB">
<feFlood flood-opacity="0" result="BackgroundImageFix"/>
<feBlend mode="normal" in="SourceGraphic" in2="BackgroundImageFix" result="shape"/>
<feColorMatrix in="SourceAlpha" type="matrix" values="0 0 0 0 0 0 0 0 0 0 0 0 0 0 0 0 0 0 127 0" result="hardAlpha"/>
<feOffset dx="5" dy="5"/>
<feGaussianBlur stdDeviation="3"/>
<feComposite in2="hardAlpha" operator="arithmetic" k2="-1" k3="1"/>
<feColorMatrix type="matrix" values="0 0 0 0 1 0 0 0 0 1 0 0 0 0 1 0 0 0 0.4 0"/>
<feBlend mode="normal" in2="shape" result="effect1_innerShadow_335_17024"/>
<feColorMatrix in="SourceAlpha" type="matrix" values="0 0 0 0 0 0 0 0 0 0 0 0 0 0 0 0 0 0 127 0" result="hardAlpha"/>
<feOffset dx="-4" dy="-4"/>
<feGaussianBlur stdDeviation="4"/>
<feComposite in2="hardAlpha" operator="arithmetic" k2="-1" k3="1"/>
<feColorMatrix type="matrix" values="0 0 0 0 0 0 0 0 0 0 0 0 0 0 0 0 0 0 0.1 0"/>
<feBlend mode="normal" in2="effect1_innerShadow_335_17024" result="effect2_innerShadow_335_17024"/>
</filter>
</defs>
</svg>
