<svg width="120" height="120" viewBox="0 0 120 120" fill="none" xmlns="http://www.w3.org/2000/svg">
<rect width="120" height="120" rx="18" fill="#304872"/>
<g clip-path="url(#clip0_335_17341)">
<path d="M86.7137 37.3761C86.6077 37.0937 86.3779 36.8642 86.0951 36.7584L65.6468 28.0924C65.0636 27.8453 64.392 28.1101 64.1445 28.6925L57.0928 45.3008C56.9691 45.5831 56.9691 45.9008 57.0928 46.1656C57.1988 46.448 57.4286 46.6774 57.7114 46.7833L78.1597 55.4493C78.3011 55.5199 78.4601 55.5375 78.6015 55.5375C79.0434 55.5375 79.4675 55.2728 79.6443 54.8492L86.696 38.2409C86.8197 37.9585 86.8197 37.6408 86.696 37.3761H86.7137Z" fill="url(#paint0_linear_335_17341)"/>
<g filter="url(#filter0_i_335_17341)">
<path d="M79.2891 55.9927C79.1831 55.7104 78.9533 55.4809 78.6705 55.375L42.2629 39.9669C41.6797 39.7198 41.0081 39.9846 40.7607 40.567L29.5203 67.059C29.2729 67.6415 29.538 68.3122 30.1212 68.5593L66.5288 83.9673C66.6702 84.0203 66.8292 84.0556 66.9706 84.0556C67.112 84.0556 67.2534 84.0203 67.3948 83.9673C67.6776 83.8615 67.9073 83.632 68.0133 83.3496L79.2537 56.8576C79.3775 56.5752 79.3775 56.2751 79.2537 55.9927H79.2891Z" fill="url(#paint1_linear_335_17341)"/>
</g>
<path d="M68.1197 29.135L60.1812 47.8389L67.2921 50.8488L75.2307 32.1449L68.1197 29.135Z" fill="#FBB040"/>
<path d="M62.9587 93.5684C62.8173 93.5684 62.6583 93.5331 62.5169 93.4802C61.9336 93.2331 61.6685 92.5624 61.916 91.98L90.0523 25.6881C90.2997 25.1057 90.9713 24.8409 91.5546 25.088C92.1378 25.3351 92.4029 26.0058 92.1555 26.5882L64.0191 92.8624C63.8424 93.3037 63.4182 93.5508 62.9764 93.5508L62.9587 93.5684Z" fill="url(#paint2_linear_335_17341)"/>
<path d="M113.311 34.3014L91.5369 25.0883C91.2541 24.9647 90.9536 24.9647 90.6709 25.0883C90.3881 25.1942 90.1583 25.4236 90.0523 25.706L87.8078 31.0009C87.5603 31.5833 87.8254 32.254 88.4087 32.5011L110.165 41.7142C110.306 41.7671 110.465 41.8024 110.607 41.8024C110.748 41.8024 110.889 41.7671 111.031 41.7142C111.314 41.6083 111.543 41.3788 111.649 41.0964L113.894 35.8016C114.141 35.2191 113.876 34.5484 113.293 34.3014H113.311Z" fill="url(#paint3_linear_335_17341)"/>
<path d="M48.7724 42.7226L36.6404 71.3066L43.7514 74.3166L55.8834 45.7326L48.7724 42.7226Z" fill="#F7941E"/>
<path d="M67.4478 81.867L21.6202 62.4701C21.3374 62.3466 21.0193 62.3466 20.7542 62.4701C20.4714 62.576 20.2417 62.8054 20.1356 63.0878L16.0884 72.5833C15.9646 72.8657 15.9646 73.1658 16.0884 73.4481C16.1944 73.7305 16.4242 73.96 16.7069 74.0659L62.5345 93.4628C62.6759 93.5157 62.835 93.551 62.9764 93.551C63.1178 93.551 63.2591 93.5157 63.4005 93.4628C63.6833 93.3569 63.9131 93.1274 64.0191 92.845L68.0487 83.3319C68.2961 82.7495 68.031 82.0788 67.4478 81.8317V81.867Z" fill="url(#paint4_linear_335_17341)"/>
<path d="M68.6496 79.0075C61.2444 75.8659 52.655 79.3429 49.5268 86.738C46.3809 94.1332 49.8626 102.711 57.2678 105.835C59.1235 106.611 61.05 106.982 62.941 106.982C68.6319 106.982 74.04 103.646 76.3906 98.1044C79.5365 90.7092 76.0548 82.1315 68.6496 79.0075Z" fill="url(#paint5_linear_335_17341)"/>
<path d="M64.9912 87.6563C62.3578 86.5443 59.3179 87.7798 58.1868 90.4096C57.0734 93.0394 58.3106 96.0751 60.9439 97.2047C61.5978 97.4871 62.2871 97.6106 62.9587 97.6106C64.9735 97.6106 66.8999 96.4281 67.7482 94.4513C68.8617 91.8216 67.6245 88.7858 64.9912 87.6563Z" fill="url(#paint6_linear_335_17341)"/>
</g>
<defs>
<filter id="filter0_i_335_17341" x="29.4278" y="37.8745" width="49.9188" height="46.1812" filterUnits="userSpaceOnUse" color-interpolation-filters="sRGB">
<feFlood flood-opacity="0" result="BackgroundImageFix"/>
<feBlend mode="normal" in="SourceGraphic" in2="BackgroundImageFix" result="shape"/>
<feColorMatrix in="SourceAlpha" type="matrix" values="0 0 0 0 0 0 0 0 0 0 0 0 0 0 0 0 0 0 127 0" result="hardAlpha"/>
<feOffset dy="-2"/>
<feGaussianBlur stdDeviation="2"/>
<feComposite in2="hardAlpha" operator="arithmetic" k2="-1" k3="1"/>
<feColorMatrix type="matrix" values="0 0 0 0 1 0 0 0 0 1 0 0 0 0 1 0 0 0 0.8 0"/>
<feBlend mode="normal" in2="shape" result="effect1_innerShadow_335_17341"/>
</filter>
<linearGradient id="paint0_linear_335_17341" x1="71.8944" y1="28" x2="71.8944" y2="55.5375" gradientUnits="userSpaceOnUse">
<stop stop-color="white" stop-opacity="0.8"/>
<stop offset="1" stop-color="white" stop-opacity="0.1"/>
</linearGradient>
<linearGradient id="paint1_linear_335_17341" x1="54.3871" y1="39.8745" x2="54.3871" y2="84.0556" gradientUnits="userSpaceOnUse">
<stop stop-color="white" stop-opacity="0.8"/>
<stop offset="1" stop-color="white" stop-opacity="0.1"/>
</linearGradient>
<linearGradient id="paint2_linear_335_17341" x1="87.3295" y1="36.2088" x2="58.8325" y2="48.8455" gradientUnits="userSpaceOnUse">
<stop stop-color="#FFA502"/>
<stop offset="1" stop-color="#FF8430"/>
</linearGradient>
<linearGradient id="paint3_linear_335_17341" x1="109.739" y1="27.7439" x2="101.181" y2="41.1138" gradientUnits="userSpaceOnUse">
<stop stop-color="#FFA502"/>
<stop offset="1" stop-color="#FF8430"/>
</linearGradient>
<linearGradient id="paint4_linear_335_17341" x1="59.7113" y1="67.475" x2="44.3105" y2="93.2225" gradientUnits="userSpaceOnUse">
<stop stop-color="#FFA502"/>
<stop offset="1" stop-color="#FF8430"/>
</linearGradient>
<linearGradient id="paint5_linear_335_17341" x1="48.2" y1="86.3247" x2="77.6449" y2="99.8939" gradientUnits="userSpaceOnUse">
<stop stop-color="#FFA502"/>
<stop offset="1" stop-color="#FF8430"/>
</linearGradient>
<linearGradient id="paint6_linear_335_17341" x1="66.4795" y1="88.9422" x2="60.6687" y2="94.7592" gradientUnits="userSpaceOnUse">
<stop stop-color="#FFA502"/>
<stop offset="1" stop-color="#FF8430"/>
</linearGradient>
<clipPath id="clip0_335_17341">
<rect width="98" height="82" fill="white" transform="translate(16 25)"/>
</clipPath>
</defs>
</svg>
