<svg width="120" height="120" viewBox="0 0 120 120" fill="none" xmlns="http://www.w3.org/2000/svg">
<rect width="120" height="120" rx="18" fill="#304872"/>
<path d="M45.4375 23C43.5976 23 41.833 23.7309 40.5319 25.0319C39.2309 26.333 38.5 28.0976 38.5 29.9375V34.5625C38.5 36.4024 39.2309 38.167 40.5319 39.4681C41.833 40.7691 43.5976 41.5 45.4375 41.5H59.3125C61.1524 41.5 62.917 40.7691 64.2181 39.4681C65.5191 38.167 66.25 36.4024 66.25 34.5625V29.9375C66.25 28.0976 65.5191 26.333 64.2181 25.0319C62.917 23.7309 61.1524 23 59.3125 23H45.4375ZM59.3125 27.625C59.9258 27.625 60.514 27.8686 60.9477 28.3023C61.3814 28.736 61.625 29.3242 61.625 29.9375V34.5625C61.625 35.1758 61.3814 35.764 60.9477 36.1977C60.514 36.6314 59.9258 36.875 59.3125 36.875H45.4375C44.8242 36.875 44.236 36.6314 43.8023 36.1977C43.3686 35.764 43.125 35.1758 43.125 34.5625V29.9375C43.125 29.3242 43.3686 28.736 43.8023 28.3023C44.236 27.8686 44.8242 27.625 45.4375 27.625H59.3125Z" fill="url(#paint0_linear_335_1817)"/>
<path d="M33.875 29.9375H29.25C26.7967 29.9375 24.444 30.9121 22.7093 32.6468C20.9746 34.3815 20 36.7342 20 39.1875V87.75C20 90.2033 20.9746 92.556 22.7093 94.2907C24.444 96.0254 26.7967 97 29.25 97H75.5C77.9533 97 80.306 96.0254 82.0407 94.2907C83.7754 92.556 84.75 90.2033 84.75 87.75V39.1875C84.75 36.7342 83.7754 34.3815 82.0407 32.6468C80.306 30.9121 77.9533 29.9375 75.5 29.9375H70.875V34.5625C70.875 36.0809 70.5759 37.5845 69.9949 38.9873C69.4138 40.3901 68.5621 41.6647 67.4884 42.7384C66.4147 43.8121 65.1401 44.6638 63.7373 45.2449C62.3344 45.8259 60.8309 46.125 59.3125 46.125H45.4375C42.3709 46.125 39.43 44.9068 37.2616 42.7384C35.0932 40.57 33.875 37.6291 33.875 34.5625V29.9375ZM61.625 60C61.625 58.7734 62.1123 57.597 62.9796 56.7296C63.847 55.8623 65.0234 55.375 66.25 55.375C67.4766 55.375 68.653 55.8623 69.5204 56.7296C70.3877 57.597 70.875 58.7734 70.875 60V83.125C70.875 84.3516 70.3877 85.528 69.5204 86.3954C68.653 87.2627 67.4766 87.75 66.25 87.75C65.0234 87.75 63.847 87.2627 62.9796 86.3954C62.1123 85.528 61.625 84.3516 61.625 83.125V60ZM33.875 78.5C33.875 77.2734 34.3623 76.097 35.2296 75.2296C36.097 74.3623 37.2734 73.875 38.5 73.875C39.7266 73.875 40.903 74.3623 41.7704 75.2296C42.6377 76.097 43.125 77.2734 43.125 78.5V83.125C43.125 84.3516 42.6377 85.528 41.7704 86.3954C40.903 87.2627 39.7266 87.75 38.5 87.75C37.2734 87.75 36.097 87.2627 35.2296 86.3954C34.3623 85.528 33.875 84.3516 33.875 83.125V78.5ZM52.375 64.625C53.6016 64.625 54.778 65.1123 55.6454 65.9796C56.5127 66.847 57 68.0234 57 69.25V83.125C57 84.3516 56.5127 85.528 55.6454 86.3954C54.778 87.2627 53.6016 87.75 52.375 87.75C51.1484 87.75 49.972 87.2627 49.1046 86.3954C48.2373 85.528 47.75 84.3516 47.75 83.125V69.25C47.75 68.0234 48.2373 66.847 49.1046 65.9796C49.972 65.1123 51.1484 64.625 52.375 64.625Z" fill="url(#paint1_linear_335_1817)"/>
<g filter="url(#filter0_b_335_1817)">
<circle cx="75.9048" cy="64.9047" r="12.6825" fill="url(#paint2_linear_335_1817)"/>
</g>
<path d="M92.4636 77.3107H90.2857L89.5139 76.5668C91.2367 74.5664 92.4958 72.2102 93.2012 69.6668C93.9065 67.1234 94.0406 64.4555 93.5939 61.8542C92.2982 54.1949 85.9025 48.0785 78.1835 47.1417C75.4698 46.7986 72.7135 47.0805 70.1256 47.9658C67.5376 48.851 65.1866 50.3163 63.2524 52.2493C61.3182 54.1824 59.8521 56.532 58.9663 59.1184C58.0805 61.7049 57.7985 64.4596 58.1418 67.1717C59.0791 74.8861 65.1991 81.2781 72.863 82.573C75.4658 83.0195 78.1352 82.8855 80.6801 82.1805C83.225 81.4756 85.5826 80.2172 87.5841 78.4954L88.3284 79.2668V81.4434L100.045 93.1528C101.175 94.2824 103.022 94.2824 104.152 93.1528C105.283 92.0232 105.283 90.1772 104.152 89.0476L92.4636 77.3107ZM75.923 77.3107C69.0586 77.3107 63.5175 71.7728 63.5175 64.9125C63.5175 58.0521 69.0586 52.5143 75.923 52.5143C82.7873 52.5143 88.3284 58.0521 88.3284 64.9125C88.3284 71.7728 82.7873 77.3107 75.923 77.3107Z" fill="white"/>
<defs>
<filter id="filter0_b_335_1817" x="55.2222" y="44.2222" width="41.3651" height="41.3652" filterUnits="userSpaceOnUse" color-interpolation-filters="sRGB">
<feFlood flood-opacity="0" result="BackgroundImageFix"/>
<feGaussianBlur in="BackgroundImageFix" stdDeviation="4"/>
<feComposite in2="SourceAlpha" operator="in" result="effect1_backgroundBlur_335_1817"/>
<feBlend mode="normal" in="SourceGraphic" in2="effect1_backgroundBlur_335_1817" result="shape"/>
</filter>
<linearGradient id="paint0_linear_335_1817" x1="61.7639" y1="26.0252" x2="52.1865" y2="40.3834" gradientUnits="userSpaceOnUse">
<stop stop-color="#FFA502"/>
<stop offset="1" stop-color="#FF8430"/>
</linearGradient>
<linearGradient id="paint1_linear_335_1817" x1="74.2824" y1="40.9037" x2="36.703" y2="77.1674" gradientUnits="userSpaceOnUse">
<stop stop-color="#FFA502"/>
<stop offset="1" stop-color="#FF8430"/>
</linearGradient>
<linearGradient id="paint2_linear_335_1817" x1="75.9048" y1="52.2222" x2="75.9048" y2="77.5872" gradientUnits="userSpaceOnUse">
<stop stop-color="white" stop-opacity="0.8"/>
<stop offset="1" stop-color="white" stop-opacity="0.1"/>
</linearGradient>
</defs>
</svg>
