<svg width="120" height="120" viewBox="0 0 120 120" fill="none" xmlns="http://www.w3.org/2000/svg">
<g clip-path="url(#clip0_6_811)">
<path d="M2.5 18.4615C2.5 9.68829 9.68826 2.5 18.4613 2.5H79.2012L117.499 40.7981V101.539C117.499 110.312 110.311 117.5 101.538 117.5H18.4613C9.68826 117.5 2.5 110.312 2.5 101.539V18.4615Z" fill="white" stroke="#FFB632" stroke-width="5"/>
<path d="M38.2607 75H14.7393C13.2251 75 12 76.3431 12 77.9994C12 79.6558 13.2251 81 14.7393 81H38.2607C39.7749 81 41 79.6581 41 77.9994C41 76.3408 39.7749 75 38.2607 75Z" fill="#304872"/>
<path d="M50.9383 89H16.0617C13.8165 89 12 90.3431 12 91.9994C12 93.6558 13.8165 95 16.0617 95H50.9383C53.1835 95 55 93.6581 55 91.9994C55 90.3408 53.1835 89 50.9383 89Z" fill="#304872"/>
<path d="M50.9383 103H16.0617C13.8165 103 12 104.343 12 105.999C12 107.656 13.8165 109 16.0617 109H50.9383C53.1835 109 55 107.658 55 105.999C55 104.341 53.1835 103 50.9383 103Z" fill="#304872"/>
<path d="M98.4613 39.7626H119.762L80 0V21.3011C80 31.455 88.3075 39.7626 98.4613 39.7626Z" fill="#FFB632"/>
<path d="M34.503 34.497V12C46.9278 12 57 22.0722 57 34.497C57 37.4513 56.4181 40.3767 55.2875 43.1062L34.503 34.497Z" fill="#304872" stroke="white" stroke-width="2"/>
<path d="M34.503 34.4969L55.2874 43.1062C50.5327 54.5851 37.3727 60.0362 25.8937 55.2814L34.503 34.4969Z" fill="#C1C9D5" stroke="white" stroke-width="2"/>
<path d="M34.5029 34.497L25.8936 55.2815C14.4147 50.5267 8.96363 37.3667 13.7184 25.8878C17.2005 17.4812 25.4037 12 34.5029 12V34.497Z" fill="#FFB632" stroke="white" stroke-width="2"/>
<rect x="68" y="92" width="11" height="20" fill="#FFB632"/>
<rect x="82" y="72" width="11" height="40" fill="#304872"/>
<rect x="96" y="81" width="11" height="31" fill="#FFB632"/>
</g>
<defs>
<clipPath id="clip0_6_811">
<rect width="120" height="120" fill="white"/>
</clipPath>
</defs>
</svg>
