<svg width="120" height="120" viewBox="0 0 120 120" fill="none" xmlns="http://www.w3.org/2000/svg">
<rect width="120" height="120" rx="18" fill="#304872"/>
<path fill-rule="evenodd" clip-rule="evenodd" d="M52.0845 21C42.2977 21 33.3818 24.2327 28.106 26.8738C27.6293 27.1122 27.1844 27.3447 26.7713 27.5715C25.9523 28.0178 25.2547 28.4338 24.7 28.8L30.7017 37.6357L33.527 38.7602C44.5683 44.3307 59.3753 44.3307 70.4188 38.7602L73.6255 37.0962L79.3 28.8C78.1233 28.0354 76.9012 27.343 75.6405 26.7265C70.3907 24.1135 61.6872 21 52.0867 21M38.129 31.0013C36.0042 30.6015 33.9053 30.0747 31.8435 29.424C36.7857 27.2292 44.1502 24.9 52.0867 24.9C57.5835 24.9 62.7813 26.018 67.08 27.435C62.0425 28.1435 56.667 29.346 51.545 30.8258C47.515 31.9915 42.8047 31.8658 38.129 31.0013ZM72.709 41.9733L72.176 42.242C60.0297 48.3693 43.9183 48.3693 31.772 42.242L31.2672 41.9863C13.0173 62.0085 -0.914332 98.9935 52.0845 98.9935C105.083 98.9935 90.8137 61.3217 72.709 41.9733ZM49.8333 60C48.6841 60 47.5819 60.4565 46.7692 61.2692C45.9566 62.0819 45.5 63.1841 45.5 64.3333C45.5 65.4826 45.9566 66.5848 46.7692 67.3975C47.5819 68.2101 48.6841 68.6667 49.8333 68.6667V60ZM54.1667 55.6667V53.5H49.8333V55.6667C47.5348 55.6667 45.3304 56.5798 43.7051 58.2051C42.0798 59.8304 41.1667 62.0348 41.1667 64.3333C41.1667 66.6319 42.0798 68.8363 43.7051 70.4616C45.3304 72.0869 47.5348 73 49.8333 73V81.6667C47.9483 81.6667 46.3428 80.4642 45.7448 78.7785C45.6561 78.5027 45.513 78.2475 45.3239 78.028C45.1349 77.8085 44.9037 77.6292 44.6441 77.5006C44.3845 77.372 44.1017 77.2967 43.8126 77.2793C43.5234 77.2619 43.2336 77.3026 42.9605 77.3991C42.6873 77.4956 42.4363 77.646 42.2223 77.8412C42.0082 78.0364 41.8355 78.2726 41.7143 78.5357C41.5931 78.7988 41.5259 79.0836 41.5167 79.3732C41.5075 79.6627 41.5565 79.9512 41.6607 80.2215C42.2581 81.9116 43.3648 83.3749 44.8285 84.4098C46.2922 85.4447 48.0407 86.0003 49.8333 86V88.1667H54.1667V86C56.4652 86 58.6696 85.0869 60.2949 83.4616C61.9202 81.8363 62.8333 79.6319 62.8333 77.3333C62.8333 75.0348 61.9202 72.8304 60.2949 71.2051C58.6696 69.5798 56.4652 68.6667 54.1667 68.6667V60C56.0517 60 57.6572 61.2025 58.2552 62.8882C58.3439 63.1639 58.487 63.4191 58.6761 63.6386C58.8652 63.8581 59.0963 64.0375 59.3559 64.1661C59.6155 64.2947 59.8983 64.3699 60.1875 64.3874C60.4766 64.4048 60.7664 64.364 61.0395 64.2675C61.3127 64.171 61.5637 64.0207 61.7778 63.8255C61.9918 63.6303 62.1645 63.3941 62.2857 63.131C62.4069 62.8678 62.4741 62.583 62.4833 62.2935C62.4925 62.0039 62.4436 61.7155 62.3393 61.4452C61.742 59.755 60.6352 58.2917 59.1715 57.2568C57.7078 56.2219 55.9593 55.6664 54.1667 55.6667ZM54.1667 73V81.6667C55.3159 81.6667 56.4181 81.2101 57.2308 80.3975C58.0435 79.5848 58.5 78.4826 58.5 77.3333C58.5 76.1841 58.0435 75.0819 57.2308 74.2692C56.4181 73.4565 55.3159 73 54.1667 73Z" fill="url(#paint0_linear_1548_11165)"/>
<path d="M69 60.75C69 58.9598 69.7024 57.2429 70.9526 55.977C72.2029 54.7112 73.8986 54 75.6667 54H102.333C104.101 54 105.797 54.7112 107.047 55.977C108.298 57.2429 109 58.9598 109 60.75V101.25C109 103.04 108.298 104.757 107.047 106.023C105.797 107.289 104.101 108 102.333 108H75.6667C73.8986 108 72.2029 107.289 70.9526 106.023C69.7024 104.757 69 103.04 69 101.25V60.75ZM75.6667 62.4375V69.1875C75.6667 69.6351 75.8423 70.0643 76.1548 70.3807C76.4674 70.6972 76.8913 70.875 77.3333 70.875H100.667C101.109 70.875 101.533 70.6972 101.845 70.3807C102.158 70.0643 102.333 69.6351 102.333 69.1875V62.4375C102.333 61.9899 102.158 61.5607 101.845 61.2443C101.533 60.9278 101.109 60.75 100.667 60.75H77.3333C76.8913 60.75 76.4674 60.9278 76.1548 61.2443C75.8423 61.5607 75.6667 61.9899 75.6667 62.4375ZM75.6667 75.9375V79.3125C75.6667 79.7601 75.8423 80.1893 76.1548 80.5057C76.4674 80.8222 76.8913 81 77.3333 81H80.6667C81.1087 81 81.5326 80.8222 81.8452 80.5057C82.1577 80.1893 82.3333 79.7601 82.3333 79.3125V75.9375C82.3333 75.4899 82.1577 75.0607 81.8452 74.7443C81.5326 74.4278 81.1087 74.25 80.6667 74.25H77.3333C76.8913 74.25 76.4674 74.4278 76.1548 74.7443C75.8423 75.0607 75.6667 75.4899 75.6667 75.9375ZM77.3333 84.375C76.8913 84.375 76.4674 84.5528 76.1548 84.8693C75.8423 85.1857 75.6667 85.6149 75.6667 86.0625V89.4375C75.6667 89.8851 75.8423 90.3143 76.1548 90.6307C76.4674 90.9472 76.8913 91.125 77.3333 91.125H80.6667C81.1087 91.125 81.5326 90.9472 81.8452 90.6307C82.1577 90.3143 82.3333 89.8851 82.3333 89.4375V86.0625C82.3333 85.6149 82.1577 85.1857 81.8452 84.8693C81.5326 84.5528 81.1087 84.375 80.6667 84.375H77.3333ZM75.6667 96.1875V99.5625C75.6667 100.01 75.8423 100.439 76.1548 100.756C76.4674 101.072 76.8913 101.25 77.3333 101.25H80.6667C81.1087 101.25 81.5326 101.072 81.8452 100.756C82.1577 100.439 82.3333 100.01 82.3333 99.5625V96.1875C82.3333 95.7399 82.1577 95.3107 81.8452 94.9943C81.5326 94.6778 81.1087 94.5 80.6667 94.5H77.3333C76.8913 94.5 76.4674 94.6778 76.1548 94.9943C75.8423 95.3107 75.6667 95.7399 75.6667 96.1875ZM87.3333 74.25C86.8913 74.25 86.4674 74.4278 86.1548 74.7443C85.8423 75.0607 85.6667 75.4899 85.6667 75.9375V79.3125C85.6667 79.7601 85.8423 80.1893 86.1548 80.5057C86.4674 80.8222 86.8913 81 87.3333 81H90.6667C91.1087 81 91.5326 80.8222 91.8452 80.5057C92.1577 80.1893 92.3333 79.7601 92.3333 79.3125V75.9375C92.3333 75.4899 92.1577 75.0607 91.8452 74.7443C91.5326 74.4278 91.1087 74.25 90.6667 74.25H87.3333ZM85.6667 86.0625V89.4375C85.6667 89.8851 85.8423 90.3143 86.1548 90.6307C86.4674 90.9472 86.8913 91.125 87.3333 91.125H90.6667C91.1087 91.125 91.5326 90.9472 91.8452 90.6307C92.1577 90.3143 92.3333 89.8851 92.3333 89.4375V86.0625C92.3333 85.6149 92.1577 85.1857 91.8452 84.8693C91.5326 84.5528 91.1087 84.375 90.6667 84.375H87.3333C86.8913 84.375 86.4674 84.5528 86.1548 84.8693C85.8423 85.1857 85.6667 85.6149 85.6667 86.0625ZM87.3333 94.5C86.8913 94.5 86.4674 94.6778 86.1548 94.9943C85.8423 95.3107 85.6667 95.7399 85.6667 96.1875V99.5625C85.6667 100.01 85.8423 100.439 86.1548 100.756C86.4674 101.072 86.8913 101.25 87.3333 101.25H90.6667C91.1087 101.25 91.5326 101.072 91.8452 100.756C92.1577 100.439 92.3333 100.01 92.3333 99.5625V96.1875C92.3333 95.7399 92.1577 95.3107 91.8452 94.9943C91.5326 94.6778 91.1087 94.5 90.6667 94.5H87.3333ZM95.6667 75.9375V79.3125C95.6667 79.7601 95.8423 80.1893 96.1548 80.5057C96.4674 80.8222 96.8913 81 97.3333 81H100.667C101.109 81 101.533 80.8222 101.845 80.5057C102.158 80.1893 102.333 79.7601 102.333 79.3125V75.9375C102.333 75.4899 102.158 75.0607 101.845 74.7443C101.533 74.4278 101.109 74.25 100.667 74.25H97.3333C96.8913 74.25 96.4674 74.4278 96.1548 74.7443C95.8423 75.0607 95.6667 75.4899 95.6667 75.9375ZM97.3333 84.375C96.8913 84.375 96.4674 84.5528 96.1548 84.8693C95.8423 85.1857 95.6667 85.6149 95.6667 86.0625V99.5625C95.6667 100.01 95.8423 100.439 96.1548 100.756C96.4674 101.072 96.8913 101.25 97.3333 101.25H100.667C101.109 101.25 101.533 101.072 101.845 100.756C102.158 100.439 102.333 100.01 102.333 99.5625V86.0625C102.333 85.6149 102.158 85.1857 101.845 84.8693C101.533 84.5528 101.109 84.375 100.667 84.375H97.3333Z" fill="url(#paint1_linear_1548_11165)"/>
<rect x="74" y="60" width="30" height="11" rx="2" fill="white"/>
<rect x="75" y="74" width="8" height="8" rx="2" fill="white"/>
<rect x="75" y="84" width="8" height="8" rx="2" fill="white"/>
<rect x="75" y="94" width="8" height="8" rx="2" fill="white"/>
<rect x="85" y="74" width="8" height="8" rx="2" fill="white"/>
<rect x="85" y="84" width="8" height="8" rx="2" fill="white"/>
<rect x="95" y="84" width="8" height="18" rx="2" fill="white"/>
<rect x="85" y="94" width="8" height="8" rx="2" fill="white"/>
<rect x="95" y="74" width="8" height="8" rx="2" fill="white"/>
<defs>
<linearGradient id="paint0_linear_1548_11165" x1="77.115" y1="33.7537" x2="33.4374" y2="75.2947" gradientUnits="userSpaceOnUse">
<stop stop-color="#FFA502"/>
<stop offset="1" stop-color="#FF8430"/>
</linearGradient>
<linearGradient id="paint1_linear_1548_11165" x1="89" y1="54" x2="89" y2="108" gradientUnits="userSpaceOnUse">
<stop stop-color="white" stop-opacity="0.8"/>
<stop offset="1" stop-color="white" stop-opacity="0.1"/>
</linearGradient>
</defs>
</svg>
