<svg width="120" height="120" viewBox="0 0 120 120" fill="none" xmlns="http://www.w3.org/2000/svg">
<g clip-path="url(#clip0_6_810)">
<path d="M101.538 0H18.4613C8.30753 0 0 8.3076 0 18.4615V101.539C0 111.692 8.30753 120 18.4613 120H101.538C111.691 120 119.999 111.692 119.999 101.539V18.4615C119.999 8.3076 111.691 0 101.538 0Z" fill="#FFB632"/>
<path d="M35.9521 36.5003C35.9521 47.6116 39.9016 58.3656 47.0742 66.7843C54.0365 74.9558 63.5999 80.452 74.0586 82.3092L74.4823 90.2965C74.4867 90.3728 74.5019 90.448 74.5281 90.5198C75.0629 91.962 76.4767 92.8682 77.9755 92.8682C78.3709 92.8682 78.7728 92.8051 79.1649 92.6722C79.2586 92.6406 79.3457 92.5905 79.4198 92.5251C85.8343 86.9319 89.6117 83.4703 90.6835 82.2057C102.932 79.8856 113.282 72.8111 119.999 63.082V18.4615C119.999 8.3076 111.691 0 101.538 0H53.5224C42.8273 8.52763 35.9521 21.7194 35.9521 36.5003Z" fill="white"/>
<path d="M23.3574 112.053C24.0926 112.336 26.173 112.95 32.46 114.443C32.5123 114.455 32.5657 114.461 32.619 114.461C32.6561 114.461 32.692 114.458 32.7291 114.453C34.059 114.237 35.0001 112.997 34.8258 111.689C34.8171 111.621 34.7975 111.554 34.7681 111.492L32.7498 107.129C37.9051 103.061 41.53 97.2938 42.9798 90.827C44.4873 84.1032 43.5374 77.0286 40.3024 70.9071C32.8293 56.7666 15.3287 51.2954 1.28965 58.7076C0.85178 58.9385 0.421536 59.1804 -0.00108337 59.432V101.539C-0.00108337 104.711 0.81039 107.705 2.23619 110.32C8.63648 113.478 16.1521 114.253 23.3563 112.053H23.3574Z" fill="white"/>
<path d="M66.97 35.5167C64.7654 35.5167 62.9758 37.3041 62.9758 39.5109C62.9758 41.7177 64.7654 43.5052 66.97 43.5052C69.1746 43.5052 70.9642 41.7177 70.9642 39.5109C70.9642 37.3041 69.1756 35.5167 66.97 35.5167Z" fill="#FFB632"/>
<path d="M66.97 35.7465C69.0449 35.7465 70.7332 37.4349 70.7332 39.5098C70.7332 41.5848 69.0449 43.2732 66.97 43.2732C64.895 43.2732 63.2067 41.5848 63.2067 39.5098C63.2067 37.4349 64.895 35.7465 66.97 35.7465ZM66.97 35.5167C64.7654 35.5167 62.9758 37.3041 62.9758 39.5109C62.9758 41.7177 64.7654 43.5052 66.97 43.5052C69.1746 43.5052 70.9642 41.7177 70.9642 39.5109C70.9642 37.3041 69.1756 35.5167 66.97 35.5167Z" fill="#FFB632"/>
<path d="M82.5916 35.5167C80.387 35.5167 78.5975 37.3041 78.5975 39.5109C78.5975 41.7177 80.387 43.5052 82.5916 43.5052C84.7962 43.5052 86.5858 41.7177 86.5858 39.5109C86.5858 37.3041 84.7973 35.5167 82.5916 35.5167Z" fill="#FFB632"/>
<path d="M82.5916 35.7465C84.6666 35.7465 86.3549 37.4349 86.3549 39.5098C86.3549 41.5848 84.6666 43.2732 82.5916 43.2732C80.5167 43.2732 78.8284 41.5848 78.8284 39.5098C78.8284 37.4349 80.5167 35.7465 82.5916 35.7465ZM82.5916 35.5167C80.387 35.5167 78.5975 37.3041 78.5975 39.5109C78.5975 41.7177 80.387 43.5052 82.5916 43.5052C84.7962 43.5052 86.5858 41.7177 86.5858 39.5109C86.5858 37.3041 84.7973 35.5167 82.5916 35.5167Z" fill="#FFB632"/>
<path d="M98.2122 35.5167C96.0076 35.5167 94.218 37.3041 94.218 39.5109C94.218 41.7177 96.0076 43.5052 98.2122 43.5052C100.417 43.5052 102.206 41.7177 102.206 39.5109C102.206 37.3041 100.418 35.5167 98.2122 35.5167Z" fill="#FFB632"/>
<path d="M98.2122 35.7465C100.287 35.7465 101.975 37.4349 101.975 39.5098C101.975 41.5848 100.287 43.2732 98.2122 43.2732C96.1372 43.2732 94.4489 41.5848 94.4489 39.5098C94.4489 37.4349 96.1372 35.7465 98.2122 35.7465ZM98.2122 35.5167C96.0076 35.5167 94.218 37.3041 94.218 39.5109C94.218 41.7177 96.0076 43.5052 98.2122 43.5052C100.417 43.5052 102.206 41.7177 102.206 39.5109C102.206 37.3041 100.418 35.5167 98.2122 35.5167Z" fill="#FFB632"/>
<path d="M14.5028 89.55C13.31 89.55 12.1659 89.0706 11.3225 88.2173C10.479 87.364 10.0051 86.2067 10.0051 85C10.0051 83.7933 10.479 82.636 11.3225 81.7827C12.1659 80.9294 13.31 80.45 14.5028 80.45C15.6957 80.45 16.8397 80.9294 17.6832 81.7827C18.5267 82.636 19.0006 83.7933 19.0006 85C19.0006 86.2067 18.5267 87.364 17.6832 88.2173C16.8397 89.0706 15.6957 89.55 14.5028 89.55ZM24.0509 86.261C24.1023 85.845 24.1408 85.429 24.1408 85C24.1408 84.571 24.1023 84.142 24.0509 83.7L26.7624 81.581C27.0065 81.386 27.0708 81.035 26.9166 80.749L24.3464 76.251C24.1922 75.965 23.8453 75.848 23.5626 75.965L20.3627 77.265C19.6945 76.758 19.0006 76.316 18.191 75.991L17.7155 72.546C17.6894 72.3929 17.6106 72.2541 17.493 72.1541C17.3753 72.0542 17.2266 71.9996 17.073 72H11.9327C11.6114 72 11.3416 72.234 11.2902 72.546L10.8147 75.991C10.0051 76.316 9.31117 76.758 8.64293 77.265L5.44312 75.965C5.1604 75.848 4.81344 75.965 4.65923 76.251L2.0891 80.749C1.92204 81.035 1.99914 81.386 2.2433 81.581L4.95479 83.7C4.90339 84.142 4.86484 84.571 4.86484 85C4.86484 85.429 4.90339 85.845 4.95479 86.261L2.2433 88.419C1.99914 88.614 1.92204 88.965 2.0891 89.251L4.65923 93.749C4.81344 94.035 5.1604 94.139 5.44312 94.035L8.64293 92.722C9.31117 93.242 10.0051 93.684 10.8147 94.009L11.2902 97.454C11.3416 97.766 11.6114 98 11.9327 98H17.073C17.3942 98 17.6641 97.766 17.7155 97.454L18.191 94.009C19.0006 93.671 19.6945 93.242 20.3627 92.722L23.5626 94.035C23.8453 94.139 24.1922 94.035 24.3464 93.749L26.9166 89.251C27.0708 88.965 27.0065 88.614 26.7624 88.419L24.0509 86.261Z" fill="#FFB632"/>
</g>
<defs>
<clipPath id="clip0_6_810">
<rect width="120" height="120" fill="white"/>
</clipPath>
</defs>
</svg>
