<svg width="120" height="120" viewBox="0 0 120 120" fill="none" xmlns="http://www.w3.org/2000/svg">
<rect width="120" height="120" rx="18" fill="#304872"/>
<path d="M80.5 88C80.0875 88 79.7345 87.8509 79.441 87.5528C79.1475 87.2546 79.0005 86.8957 79 86.4762V78.8571C79 78.4381 79.147 78.0795 79.441 77.7813C79.735 77.4832 80.088 77.3338 80.5 77.3333H81.25V75.8095C81.25 74.7556 81.6158 73.8573 82.3472 73.1147C83.0788 72.3721 83.963 72.0005 85 72C86.037 71.9995 86.9215 72.371 87.6535 73.1147C88.3855 73.8583 88.751 74.7566 88.75 75.8095V77.3333H89.5C89.9125 77.3333 90.2657 77.4827 90.5597 77.7813C90.8537 78.08 91.0005 78.4386 91 78.8571V86.4762C91 86.8952 90.8532 87.2541 90.5597 87.5528C90.2662 87.8514 89.913 88.0005 89.5 88H80.5ZM85 84.1905C85.4125 84.1905 85.7657 84.0414 86.0597 83.7432C86.3537 83.4451 86.5005 83.0862 86.5 82.6667C86.4995 82.2471 86.3527 81.8885 86.0597 81.5909C85.7667 81.2932 85.4135 81.1439 85 81.1429C84.5865 81.1418 84.2335 81.2912 83.941 81.5909C83.6485 81.8905 83.5015 82.2491 83.5 82.6667C83.4985 83.0842 83.6455 83.443 83.941 83.7432C84.2365 84.0434 84.5895 84.1925 85 84.1905ZM82.75 77.3333H87.25V75.8095C87.25 75.1746 87.0312 74.6349 86.5937 74.1905C86.1562 73.746 85.625 73.5238 85 73.5238C84.375 73.5238 83.8437 73.746 83.4062 74.1905C82.9687 74.6349 82.75 75.1746 82.75 75.8095V77.3333Z" fill="white"/>
<rect x="29" y="20" width="62" height="80" rx="10" fill="url(#paint0_linear_335_17189)"/>
<path d="M60.5 30C49.775 30 41 38.775 41 49.5C41 60.225 49.775 69 60.5 69C71.225 69 80 60.225 80 49.5C80 38.775 71.225 30 60.5 30ZM64.4 59.25L58.55 49.11V39.75H61.475V48.33L66.935 57.885L64.4 59.25Z" fill="#304872"/>
<rect x="37" y="77" width="46" height="3" fill="#304872"/>
<g filter="url(#filter0_bi_335_17189)">
<path d="M39.3333 79H80.6667L91 102H29L39.3333 79Z" fill="url(#paint1_linear_335_17189)"/>
</g>
<defs>
<filter id="filter0_bi_335_17189" x="21" y="71" width="78" height="39" filterUnits="userSpaceOnUse" color-interpolation-filters="sRGB">
<feFlood flood-opacity="0" result="BackgroundImageFix"/>
<feGaussianBlur in="BackgroundImageFix" stdDeviation="4"/>
<feComposite in2="SourceAlpha" operator="in" result="effect1_backgroundBlur_335_17189"/>
<feBlend mode="normal" in="SourceGraphic" in2="effect1_backgroundBlur_335_17189" result="shape"/>
<feColorMatrix in="SourceAlpha" type="matrix" values="0 0 0 0 0 0 0 0 0 0 0 0 0 0 0 0 0 0 127 0" result="hardAlpha"/>
<feOffset dy="-0.5"/>
<feGaussianBlur stdDeviation="1"/>
<feComposite in2="hardAlpha" operator="arithmetic" k2="-1" k3="1"/>
<feColorMatrix type="matrix" values="0 0 0 0 1 0 0 0 0 1 0 0 0 0 1 0 0 0 0.8 0"/>
<feBlend mode="normal" in2="shape" result="effect2_innerShadow_335_17189"/>
</filter>
<linearGradient id="paint0_linear_335_17189" x1="80.977" y1="33.0818" x2="37.5441" y2="66.7238" gradientUnits="userSpaceOnUse">
<stop stop-color="#FFA502"/>
<stop offset="1" stop-color="#FF8430"/>
</linearGradient>
<linearGradient id="paint1_linear_335_17189" x1="60" y1="79" x2="60" y2="102" gradientUnits="userSpaceOnUse">
<stop stop-color="white" stop-opacity="0.8"/>
<stop offset="1" stop-color="white" stop-opacity="0.1"/>
</linearGradient>
</defs>
</svg>
