<svg width="160" height="160" viewBox="0 0 160 160" fill="none" xmlns="http://www.w3.org/2000/svg">
<g id="Frame" clip-path="url(#clip0_793_131887)">
<g id="Group">
<g id="Layer 1">
<path id="Vector" d="M160 80C160 124.192 124.172 160 80 160C35.8283 160 0 124.192 0 80C0 35.8084 35.8283 0 80 0C124.172 0 160 35.8283 160 80Z" fill="#F6B900"/>
<g id="Group_2">
<g id="Group_3" style="mix-blend-mode:multiply">
<path id="Vector_2" d="M160 80.0002C160 79.7407 160 79.4812 160 79.2217C152.894 72.056 138.343 57.5251 137.984 57.3055C137.425 56.4473 136.667 55.8684 135.629 55.7287C135.429 55.5291 135.23 55.3495 134.99 55.1898C134.691 54.7507 134.292 54.3515 133.812 54.0121C133.513 53.573 133.114 53.1738 132.635 52.8345C129.441 48.2636 116.507 48.6828 111.258 57.2457C111.058 57.0461 96.8065 42.8145 96.527 42.555C96.4073 42.3954 96.3075 42.2756 96.1877 42.1558C95.9083 41.8764 95.6288 41.6369 95.3693 41.3974C95.2496 41.2377 95.1298 41.098 95.03 40.9982C87.8045 33.6928 79.2815 35.0501 74.531 36.2077C68.8624 37.6049 64.4113 42.9543 63.0739 47.6249C61.8564 51.9163 62.555 56.2876 62.9342 58.084C62.5151 57.7846 62.1159 57.6449 61.7765 57.7646C60.7785 58.104 60.6388 60.3794 61.4971 62.8145C61.9761 64.1918 62.9143 65.3295 63.8125 66.0281C64.1917 66.5071 64.5909 66.9063 64.9901 67.2057C65.3694 67.6848 65.7686 68.064 66.1678 68.3834C66.1877 68.4233 66.2276 68.4632 66.2476 68.4832C67.2656 70.7187 68.5031 72.7746 69.8803 74.4912V77.9642L69.3214 77.6449C69.3214 77.6449 69.1817 77.565 69.1218 77.5251C68.7825 77.066 68.4033 76.6868 67.9442 76.3475C67.6049 75.8884 67.2256 75.5091 66.7666 75.1698C66.4472 74.7107 43.7326 52.0161 43.2935 51.6768C42.9542 51.2177 42.5749 50.8385 42.1159 50.4992C40.8783 48.8026 38.8424 47.8844 35.8284 47.9642C24.032 48.7227 17.7246 55.6688 15.3095 66.9662C14.5909 70.9982 15.6089 75.8884 18.4632 80.4792C20.4392 84.3714 20.3793 87.6449 19.3414 91.1778L18.3434 91.7766L18.8823 92.575C18.7226 93.0141 18.563 93.4532 18.3833 93.9123C14.4113 96.8465 10.2596 98.7626 9.30149 104.012L8.88232 109.521L57.3254 156.747C64.531 158.882 72.1358 160.04 80.02 160.04C124.192 160.04 160.02 124.232 160.02 80.0401L160 80.0002Z" fill="#CCCCCC"/>
</g>
<g id="Group_4">
<g id="Group_5">
<path id="Vector_3" d="M41.3175 88.7424L24.9901 88.4829L23.1338 89.0019L22.4951 89.3612L22.6548 89.8402L27.7247 105.309L29.2017 109.481H37.6049L38.4033 105.609L42.8344 89.9001L43.0141 89.2614L41.3175 88.7424Z" fill="#DBD5D5"/>
<path id="Vector_4" d="M22.6548 89.8403C18.044 95.8284 10.6189 96.7066 9.30149 103.972L8.88232 109.481H29.2216L27.7446 105.309L22.6747 89.8403H22.6548Z" fill="#0C0A0A"/>
<path id="Vector_5" d="M37.605 109.481H57.2457L56.8265 103.972C55.8086 99.0221 50.2397 96.6469 42.8345 89.9004L38.4233 105.589L37.6249 109.481H37.605Z" fill="#161313"/>
<path id="Vector_6" d="M38.1637 81.2373H27.9441C26.1876 81.2373 24.7505 82.4948 24.7505 84.0517V91.2972C24.7505 92.8541 26.1876 94.1116 27.9441 94.1116H38.1637C39.7006 94.1116 40.978 93.1535 41.2774 91.896C41.2974 91.896 41.3373 91.896 41.3573 91.876V84.0517C41.3573 82.4948 39.9401 81.2373 38.1637 81.2373Z" fill="#D1AB86"/>
<path id="Vector_7" d="M48.0441 67.9044C47.6449 67.7846 47.1859 68.0641 46.7467 68.6429C46.7467 68.3635 46.7467 68.084 46.7467 67.8046C46.7467 58.7427 40.599 51.3774 33.0342 51.3774C25.4693 51.3774 19.3216 58.7228 19.3216 67.8046C19.3216 68.084 19.3216 68.3635 19.3216 68.6429C18.8825 68.0641 18.4234 67.7846 18.0242 67.9044C17.0661 68.2038 16.7667 70.7387 17.3855 73.5531C17.9843 76.3675 19.2617 78.4233 20.2398 78.1239C20.5791 78.0241 20.8386 77.6249 20.9982 77.0461C23.3336 83.8325 27.8446 89.9802 33.0142 89.9802C38.1839 89.9802 42.6948 83.8325 45.0302 77.0461C45.1899 77.6249 45.4493 78.0241 45.7887 78.1239C46.7667 78.4233 48.0242 76.3675 48.643 73.5531C49.2418 70.7387 48.9623 68.2038 48.0042 67.9044H48.0441Z" fill="#FFE2C2"/>
<path id="Vector_8" d="M24.6307 89.1416C24.6307 89.1416 24.9101 91.6965 29.5608 93.0937C34.2315 94.4909 31.1177 97.7444 31.1177 97.7444L27.465 98.5029L25.3293 94.3113L24.4111 91.1177L24.6307 89.1416Z" fill="#FFF8F8"/>
<path id="Vector_9" d="M41.4769 89.6206C41.4769 89.6206 41.2174 92.1755 36.5468 93.5727C31.8761 94.9699 34.9899 98.2234 34.9899 98.2234L38.6426 98.9819L40.7783 94.7903L41.6965 91.5966L41.4769 89.6206Z" fill="#FFF8F8"/>
<path id="Vector_10" d="M23.3932 88.7427L18.3433 91.7567L27.7245 105.31L23.3932 88.7427Z" fill="#333030"/>
<path id="Vector_11" d="M42.8145 88.6826L48.1239 92.6746L38.4033 105.609L42.8145 88.6826Z" fill="#333030"/>
<g id="Group_6">
<path id="Vector_12" d="M32.3955 99.6606L29.9204 109.461H36.8066L33.9723 99.6606H32.3955Z" fill="#0C0A0A"/>
<path id="Vector_13" d="M31.1378 93.8921L35.2296 93.952L35.9881 96.9659L35.1498 100.04H31.2775L30.3594 97.1655L31.1378 93.8921Z" fill="#0C0A0A"/>
</g>
<path id="Vector_14" d="M18.4633 80.3792C15.609 75.7684 14.611 70.8982 15.3096 66.8662C16.587 60.8982 18.9423 56.1676 22.615 52.9141C23.2337 48.9421 25.5691 46.6866 30.2796 46.7864C42.076 47.5449 48.3834 54.491 50.7986 65.7884C51.5172 69.8203 50.4992 74.7105 47.6449 79.3013C44.5511 85.4291 46.4273 90.0598 49.4014 96.5469C41.7966 94.1916 36.8066 91.6167 38.3236 88.3832C42.595 78.8822 47.1858 70.2594 41.078 62.1556C39.082 62.0958 30.1798 68.5229 24.7707 63.972C19.4613 71.8962 23.8525 80.3992 27.7846 89.461C29.3216 92.6746 24.3116 95.2694 16.7068 97.6247C19.6808 91.1177 21.5571 86.487 18.4633 80.3792Z" fill="#6B4A3B"/>
</g>
<g id="Group_7">
<path id="Vector_15" d="M133.114 88.5031L115.409 88.2437L113.393 88.7626L112.694 89.1219L112.874 89.6009L118.363 105.07L119.98 109.262H129.082L129.96 105.369L134.75 89.6808L134.93 89.0221L133.114 88.5031Z" fill="#DBD5D5"/>
<path id="Vector_16" d="M112.874 89.6011C104.411 91.2777 97.8641 95.0901 97.8641 101.178L97.1655 109.242H119.96L118.343 105.07L112.854 89.6011H112.874Z" fill="#161313"/>
<path id="Vector_17" d="M129.082 109.262H151.117L150.419 101.198C150.419 95.3094 143.513 91.4372 134.73 89.6807L129.94 105.369L129.082 109.262Z" fill="#0C0A0A"/>
<path id="Vector_18" d="M129.68 81.5171H118.623C116.706 81.5171 115.169 82.7347 115.169 84.2117V91.1778C115.169 92.6748 116.726 93.8724 118.623 93.8724H129.68C131.337 93.8724 132.734 92.9542 133.054 91.7366C133.074 91.7366 133.114 91.7367 133.133 91.7167V84.2117C133.133 82.7147 131.577 81.5171 129.68 81.5171Z" fill="#D1AB86"/>
<path id="Vector_19" d="M140.399 68.6827C139.96 68.5629 139.481 68.8423 139.002 69.3813C139.002 69.1018 139.022 68.8423 139.022 68.5829C139.022 59.8603 132.375 52.7944 124.152 52.7944C115.928 52.7944 109.301 59.8603 109.301 68.5829C109.301 68.8423 109.301 69.1218 109.301 69.3813C108.822 68.8224 108.343 68.5629 107.904 68.6827C106.866 68.9621 106.547 71.3972 107.206 74.1118C107.864 76.8264 109.242 78.7825 110.299 78.503C110.659 78.4032 110.938 78.024 111.118 77.4651C113.653 83.992 118.523 89.9002 124.152 89.9002C129.78 89.9002 134.651 83.992 137.186 77.4651C137.365 78.024 137.645 78.4032 138.004 78.503C139.042 78.7825 140.439 76.8264 141.098 74.1118C141.757 71.3972 141.437 68.9621 140.399 68.6827Z" fill="#FFE2C2"/>
<path id="Vector_20" d="M115.03 88.9224C115.03 88.9224 115.329 91.4773 120.379 92.8745C125.449 94.2717 122.056 97.5252 122.056 97.5252L118.103 98.2836L115.788 94.092L114.79 90.8984L115.03 88.9224Z" fill="#FFF8F8"/>
<path id="Vector_21" d="M133.273 89.3813C133.273 89.3813 132.974 91.9362 127.924 93.3334C122.874 94.7306 126.247 97.9841 126.247 97.9841L130.199 98.7426L132.515 94.551L133.513 91.3574L133.273 89.3813Z" fill="#FFF8F8"/>
<path id="Vector_22" d="M113.493 87.8047L109.002 89.9005L118.363 105.07L113.493 87.8047Z" fill="#333030"/>
<path id="Vector_23" d="M134.83 88.104L139.321 90.1998L129.96 105.369L134.83 88.104Z" fill="#333030"/>
<path id="Vector_24" d="M123.553 99.3613L121.078 109.182H127.964L125.13 99.3613H123.553Z" fill="#0C0A0A"/>
<path id="Vector_25" d="M122.295 93.5928L126.387 93.6527L127.145 96.6866L126.307 99.7604H122.435L121.517 96.8862L122.295 93.5928Z" fill="#0C0A0A"/>
<path id="Vector_26" d="M133.254 56.048C135.23 46.1878 105.729 46.7067 109.321 69.4013L111.138 77.4852C111.138 77.4852 122.535 70.8385 130.878 60.3594C133.972 61.7566 135.749 64.4113 136.347 70.7786L137.206 77.4652L139.002 69.3814C139.002 69.3814 141.557 53.0341 133.254 56.0281V56.048Z" fill="#6B4A3B"/>
</g>
<path id="Vector_27" d="M113.673 88.3235C111.198 85.1897 102.934 83.6728 100.599 83.3135L98.8027 82.8544L97.625 82.1957L93.7528 79.1817C93.2538 78.6628 92.9743 78.1837 92.9144 77.4053L92.7548 74.551C94.112 72.6947 95.2697 70.6189 96.1879 68.4432C97.9444 67.6648 99.6809 65.7286 100.459 63.4732C101.278 61.0979 101.358 58.8025 100.659 57.3454C100.34 56.6867 99.9005 56.2476 99.5013 55.9881C99.621 55.07 98.2238 48.4632 97.2458 43.8524C96.3276 44.052 95.7687 43.3135 94.7108 43.3135C94.6709 43.3135 94.631 43.3135 94.611 43.3135C98.5232 49.4013 97.1659 58.8624 90.5591 62.6348C93.0741 70.3594 89.0621 80.4991 78.4833 80.4991C74.2518 80.4991 71.1579 79.6608 69.0422 77.2057C68.3835 76.7666 67.6649 75.9482 67.106 75.3893L67.0062 77.3853C66.9663 78.2237 66.647 78.7027 66.2078 79.1618L62.2558 82.4752L61.9564 82.6348L59.5013 83.2736C56.9663 83.6728 48.7029 85.1897 46.2278 88.3235C41.8166 92.7346 42.4753 117.804 42.6949 118.882C43.0142 120.439 44.2318 120.739 44.5512 120.779C44.8106 120.818 45.0302 120.858 53.4134 120.858C61.3775 120.858 72.4753 120.818 75.5891 120.818C79.6011 120.818 93.9524 120.858 104.172 120.858C114.91 120.858 115.11 120.818 115.35 120.779C115.709 120.719 116.906 120.419 117.246 118.862C117.465 117.785 118.124 92.7147 113.713 88.3035L113.673 88.3235Z" fill="#C29200"/>
<g id="Group_8">
<path id="Vector_28" d="M77.4054 114.97L60.0801 87.2855L69.142 80.519L91.6569 82.1158L100.2 90.1598L80.8984 116.986C79.7408 116.268 78.5831 115.609 77.4054 114.99V114.97Z" fill="#DBD5D5"/>
<path id="Vector_29" d="M93.5328 83.7524L100.06 85.4091C100.06 85.4091 110.199 87.0059 112.076 89.7804C115.429 91.9161 115.669 118.543 115.01 118.643C114.351 118.742 83.4729 118.643 83.4729 118.643C82.3152 117.844 81.1376 117.086 79.96 116.387V116.347L93.5528 83.7524H93.5328Z" fill="#0C0A0A"/>
<path id="Vector_30" d="M66.3473 83.7524L59.8204 85.4091C59.8204 85.4091 49.6807 87.0059 47.8244 89.7804C44.4711 91.9161 44.2316 118.543 44.8902 118.643C45.5489 118.742 85.4292 118.643 85.4292 118.643C86.5868 117.844 82.3753 117.405 79.9601 116.387V116.347L66.3673 83.7524H66.3473Z" fill="#0C0A0A"/>
<path id="Vector_31" d="M90.02 69.6606H69.8604V85.4091H90.02V69.6606Z" fill="#D1AB86"/>
<g id="Group_9">
<path id="Vector_32" d="M63.6125 59.581C64.85 71.7567 74.0516 80.7986 79.8999 80.7986C86.1474 80.7986 94.7103 71.4972 96.1873 59.581C97.6045 47.9443 88.9019 42.0361 79.8999 42.0361C70.8979 42.0361 62.4349 47.9244 63.6125 59.581Z" fill="#FFE2C2"/>
<path id="Vector_33" d="M96.8061 47.5849C95.4887 42.9142 91.0177 37.5649 85.349 36.1677C80.5985 35.01 72.0756 33.6527 64.85 40.9581C63.9119 41.9162 61.7762 49.3813 62.0157 51.517C62.834 59.2016 63.5526 61.3972 63.5526 61.3972L65.4887 62.2954C65.4887 62.2954 64.5506 59.6408 65.8081 55.9881C66.1474 55.01 66.6065 54.0719 67.1255 53.2136C71.9358 55.8683 81.1574 52.9342 86.7263 53.6927C90.7382 54.2316 91.4568 58.7625 93.832 58.8424C94.0117 60.9382 93.5526 62.2954 93.5526 62.2954L95.4887 61.3972C95.4887 61.3972 95.7083 60.7386 96.0276 58.8823C96.4867 58.8823 96.7462 58.8823 96.7462 58.8823C96.7462 58.8823 98.4029 53.1537 96.8061 47.5849Z" fill="#0C0A0A"/>
<path id="Vector_34" d="M94.7502 61.4972C93.9119 63.9323 93.2532 66.2876 94.2512 66.6269C95.2492 66.9862 97.5246 65.1898 98.3829 62.7546C99.2412 60.3195 99.1015 58.064 98.1035 57.7047C97.0855 57.3455 95.5885 59.0421 94.7502 61.4772V61.4972Z" fill="#FFE2C2"/>
<path id="Vector_35" d="M65.1097 61.4972C65.948 63.9323 66.6067 66.2876 65.6087 66.6269C64.6107 66.9862 62.3352 65.1898 61.4769 62.7546C60.6386 60.3195 60.7584 58.064 61.7564 57.7047C62.7544 57.3455 64.2714 59.0421 65.1097 61.4772V61.4972Z" fill="#FFE2C2"/>
</g>
<g id="Group_10">
<path id="Vector_36" d="M74.8501 88.0039L79.9399 92.2754L85.0098 88.0039L79.9399 83.7524L74.8501 88.0039Z" fill="#0C0A0A"/>
<path id="Vector_37" d="M80.8383 91.2974L83.8323 105.868L80.1397 117.864L75.5688 105.868L78.9621 91.2974H80.8383Z" fill="#0C0A0A"/>
</g>
<g id="Group_11">
<path id="Vector_38" d="M90.7189 77.5048L79.9404 83.7723L83.4933 91.3172L91.9165 83.5128C91.9165 83.5128 94.132 82.934 93.3935 81.936C92.655 80.938 90.8586 80.0398 90.7388 77.4849L90.7189 77.5048Z" fill="#FFF8F8"/>
<path id="Vector_39" d="M69.1418 77.5249L79.9203 83.7724L76.3873 91.2974L67.9642 83.5129C67.9642 83.5129 65.7486 82.9341 66.4871 81.956C67.2257 80.958 69.0021 80.0798 69.1418 77.5249Z" fill="#FFF8F8"/>
</g>
<path id="Vector_40" d="M79.9399 116.367L92.2753 80.7983L96.407 84.2714L100.738 86.6067L95.429 95.449L93.0138 95.3892L94.5507 100.499L79.9399 116.367Z" fill="#333030"/>
<path id="Vector_41" d="M79.9403 116.367L67.6049 80.7983L63.4533 84.0119L58.7427 86.6067L64.4313 95.449L66.8664 95.3892L65.3095 100.499L79.9403 116.367Z" fill="#333030"/>
</g>
</g>
</g>
</g>
</g>
</g>
<defs>
<clipPath id="clip0_793_131887">
<rect width="160" height="160" fill="white"/>
</clipPath>
</defs>
</svg>
