<svg width="471" height="618" viewBox="0 0 471 618" fill="none" xmlns="http://www.w3.org/2000/svg">
<path d="M355.527 616.515C351.233 617.909 228.486 616.843 223.837 613.835C222.059 612.714 221.184 594.833 220.719 573.206C220.609 568.531 211.365 493.233 211.365 493.233L293.415 493.725L299.87 573.671C299.87 573.671 346.666 595.106 351.425 598.934C356.156 602.762 359.848 615.12 355.527 616.515Z" fill="#FFC7A0"/>
<path d="M219.215 558.77C220.09 566.48 220.691 572.057 220.719 573.178C221.184 594.833 222.059 612.687 223.837 613.835C228.486 616.842 351.233 617.909 355.527 616.514C359.848 615.12 356.156 602.762 351.425 598.934C346.693 595.079 299.87 573.671 299.87 573.671L298.666 558.77H219.215Z" fill="#C1C9D5"/>
<path d="M357.797 617.007C353.366 618.483 226.79 618.292 221.949 615.257C220.117 614.109 220.008 592.4 219.379 570.089H300.034L300.307 573.288C311.521 578.866 349.236 595.571 353.421 598.907C358.317 602.817 362.228 615.558 357.797 617.034V617.007Z" fill="#1D283A"/>
<path d="M355.992 611.949C334.768 611.402 249.136 611.183 228.103 612.249C227.939 612.249 227.939 612.386 228.103 612.386C249.136 613.398 334.768 612.906 355.992 612.304C356.43 612.304 356.43 611.976 355.992 611.949Z" fill="#002462"/>
<path d="M345.27 594.313C340.238 594.095 335.315 596.473 332.58 599.481C329.927 602.352 327.684 606.398 327.821 610.8C327.821 610.937 328.067 610.937 328.067 610.8C329.298 602.488 336.847 595.216 345.27 594.587C345.435 594.587 345.435 594.341 345.27 594.313Z" fill="#002462"/>
<path d="M308.267 575.339C299.761 575.202 289.915 578.182 284.636 585.127C284.445 585.401 284.828 585.674 285.074 585.565C292.759 581.627 300.062 578.675 308.431 576.405C309.032 576.241 308.896 575.366 308.294 575.366L308.267 575.339Z" fill="#002462"/>
<path d="M314.83 577.908C306.324 577.772 296.478 580.752 291.2 587.696C291.008 587.97 291.391 588.243 291.637 588.134C299.323 584.197 306.625 581.244 314.994 578.975C315.596 578.811 315.459 577.936 314.857 577.936L314.83 577.908Z" fill="#002462"/>
<path d="M321.394 580.479C312.888 580.342 303.042 583.322 297.764 590.267C297.545 590.54 297.955 590.814 298.201 590.704C305.887 586.767 313.189 583.814 321.558 581.545C322.16 581.381 322.023 580.506 321.421 580.506L321.394 580.479Z" fill="#002462"/>
<path d="M327.93 583.049C319.424 582.912 309.578 585.892 304.3 592.837C304.108 593.111 304.491 593.384 304.737 593.275C312.423 589.337 319.725 586.385 328.094 584.115C328.696 583.951 328.559 583.076 327.957 583.076L327.93 583.049Z" fill="#002462"/>
<path d="M316.799 565.141C312.204 571.046 305.23 574.765 299.158 578.921C298.529 579.358 297.818 578.839 297.627 578.237C297.49 578.237 297.353 578.182 297.353 577.991C297.846 570.663 300.799 562.27 305.093 556.282C307.746 552.591 313.162 549.119 317.456 552.673C321.531 556.036 319.452 561.668 316.772 565.113L316.799 565.141ZM317.182 558.114C316.362 548.872 307.992 555.954 306.16 558.77C304.984 560.575 303.972 562.543 303.042 564.484C301.1 568.558 299.76 572.823 298.228 577.061C301.073 574.819 304.081 572.851 307.008 570.745C310.509 568.203 317.62 563.227 317.155 558.114H317.182Z" fill="#002462"/>
<path d="M267.214 572.55C267.897 566.999 274.215 565.824 278.673 566.671C285.921 568.066 293.825 572.139 299.213 577.143C299.35 577.252 299.295 577.416 299.213 577.498C299.487 578.073 299.322 578.92 298.584 579.057C291.309 580.178 283.678 582.256 276.294 581.135C271.972 580.479 266.612 577.799 267.241 572.55H267.214ZM287.179 578.51C290.762 578.045 294.317 577.416 297.928 577.088C293.907 575.065 290.023 572.85 285.812 571.237C283.815 570.472 281.709 569.706 279.63 569.214C276.348 568.448 265.436 569.023 271.152 576.295C274.325 580.315 282.912 579.057 287.206 578.51H287.179Z" fill="#002462"/>
<path d="M125.896 161.338C125.896 161.338 104.453 192.48 116.241 226.328C136.398 284.128 187.57 349.172 189.156 356.609C192.849 374.135 213.306 569.242 213.306 569.242L301.62 568.668C301.62 568.668 289.175 400.847 273.613 350.512C265.107 323.034 216.561 247.682 195.611 210.908C193.751 207.627 198.155 193.409 198.155 193.409L125.868 161.338H125.896Z" fill="#002462"/>
<path d="M296.286 553.358C282.037 553.085 238.96 551.882 219.98 553.413C219.843 553.413 219.843 553.659 219.98 553.686C226.489 554.698 282.064 554.014 296.286 553.741C296.56 553.741 296.56 553.358 296.286 553.358Z" fill="#C1C9D5"/>
<path d="M110.606 203.855C116.733 213.725 123.187 223.377 129.451 233.165C135.714 242.953 141.95 252.741 148.131 262.611C160.438 282.297 172.417 302.201 184.178 322.215C189.703 331.593 194.927 341.081 198.673 351.279C202.366 361.395 204.855 371.894 206.66 382.475C208.465 393.138 209.613 403.884 210.707 414.629C211.856 426.085 212.978 437.513 214.126 448.969C216.451 472.401 219.487 511.198 221.812 534.629C222.085 537.5 222.386 540.371 222.632 543.242C222.659 543.652 221.921 543.734 221.866 543.324C219.241 520.029 216.396 481.314 214.017 457.992C212.841 446.399 211.665 434.779 210.489 423.186C209.395 412.387 208.355 401.587 206.824 390.869C205.32 380.315 203.296 369.816 200.232 359.591C197.005 348.9 192.383 338.839 186.886 329.105C175.645 309.146 163.72 289.542 151.796 269.966C139.761 250.226 127.645 230.54 115.037 211.155C113.478 208.749 111.919 206.37 110.306 204.019C110.169 203.828 110.497 203.663 110.606 203.855Z" fill="#C1C9D5"/>
<path d="M101.635 616.953C99.9121 616.953 69.2527 618.457 66.6271 616.105C40.0429 592.291 2.65544 529.762 1.91699 526.618C1.39734 524.649 29.5131 501.518 29.6772 501.354C32.5763 498.155 83.5294 444.566 83.5294 444.566L138.339 499.796L85.4166 553.986L84.4867 554.888C84.4867 554.888 86.7294 572.606 92.2814 588.792C93.0472 591.034 102.921 600.74 103.577 602.599C105.765 608.778 104.069 616.953 101.663 616.953H101.635Z" fill="#FFC7A0"/>
<path d="M101.635 616.925C99.8851 616.925 69.253 618.428 66.6274 616.05C40.0432 592.263 2.65577 529.733 1.91732 526.562C1.39767 524.593 29.5135 501.462 29.6776 501.298C30.3887 500.506 33.6707 496.24 39.1407 491.264L92.9655 546.193L85.4169 553.93L84.487 554.833C84.487 554.833 86.7571 572.55 92.2818 588.763C93.0749 591.005 102.921 600.684 103.577 602.57C105.765 608.722 104.07 616.925 101.69 616.925H101.635Z" fill="#C1C9D5"/>
<path d="M102.811 617.417C101.827 618.101 68.1042 618.347 65.8615 616.351C44.5832 597.13 0.467636 529.734 0.00268555 525.906C-0.243462 523.91 14.8264 510.267 31.4826 498.783L84.8698 554.997C84.8698 554.997 88.1518 577.034 92.4458 588.873C93.4304 591.552 103.112 600.411 103.987 602.379C106.695 608.394 104.206 616.487 102.784 617.444L102.811 617.417Z" fill="#1D283A"/>
<path d="M100.268 599.782C95.4272 596.583 89.2462 595.845 84.8702 596.966C80.6583 598.06 76.1728 600.439 73.8481 604.594C73.7934 604.704 74.0122 604.868 74.0943 604.758C79.9472 597.814 91.4615 595.599 100.104 600.056C100.268 600.138 100.405 599.919 100.241 599.81L100.268 599.782Z" fill="#002462"/>
<path d="M29.158 520.219C23.5239 513.329 12.8026 522.105 18.4641 528.995C24.0982 535.885 34.8194 527.109 29.158 520.219Z" fill="#002462"/>
<path d="M88.0421 563.992C83.3379 557.622 75.5158 551.989 67.3655 551.989C67.0373 551.989 67.0646 552.427 67.2834 552.563C74.5586 556.036 80.9038 559.809 87.331 564.703C87.796 565.058 88.3703 564.457 88.0148 563.992H88.0421Z" fill="#002462"/>
<path d="M89.8483 570.336C85.1441 563.965 77.322 558.333 69.1716 558.333C68.8434 558.333 68.8708 558.77 69.0896 558.907C76.3647 562.379 82.7099 566.153 89.1372 571.047C89.6021 571.402 90.1765 570.801 89.8209 570.336H89.8483Z" fill="#002462"/>
<path d="M91.6525 576.651C86.9483 570.281 79.1262 564.648 70.9759 564.648C70.6477 564.648 70.675 565.086 70.8938 565.223C78.1689 568.695 84.5141 572.468 90.9414 577.362C91.4063 577.718 91.9807 577.116 91.6251 576.651H91.6525Z" fill="#002462"/>
<path d="M93.4582 582.968C88.754 576.597 80.9318 570.965 72.7815 570.965C72.4533 570.965 72.4807 571.402 72.6995 571.539C79.9746 575.011 86.3198 578.784 92.747 583.679C93.212 584.034 93.7863 583.432 93.4308 582.968H93.4582Z" fill="#002462"/>
<path d="M103.113 612.797C93.8686 611.567 84.3781 611.758 75.1064 610.856C74.0124 610.747 72.9458 610.637 71.8518 610.528C70.6757 610.419 69.4997 610.446 68.5971 609.544C67.0382 607.985 65.7801 605.962 64.4399 604.239C61.6502 600.63 58.8879 596.994 56.1255 593.33C45.0214 578.703 34.1361 563.911 23.3329 549.065C20.297 544.882 17.2064 540.698 14.1706 536.488C11.1074 532.277 7.77066 528.285 4.70746 524.102C4.59806 523.938 4.35192 524.102 4.46132 524.266C7.05957 528.203 9.38434 532.304 12.0373 536.214C14.6902 540.124 17.3432 544.007 20.0782 547.862C25.4935 555.517 30.9908 563.091 36.5429 570.637C42.0949 578.183 47.7291 585.675 53.4179 593.139C56.2896 596.885 59.1614 600.63 62.0605 604.376C63.4553 606.181 64.8502 607.985 66.2724 609.79C67.4758 611.293 68.5971 612.114 70.539 612.278C81.2875 613.317 92.2549 613.043 103.031 613.59C103.468 613.59 103.578 612.852 103.113 612.797Z" fill="#002462"/>
<path d="M101.171 563.829C94.0323 563.883 87.0854 560.848 80.3573 558.798C79.6736 558.579 79.6189 557.731 79.9744 557.239C79.8924 557.13 79.865 556.993 79.9744 556.884C85.7453 552.892 93.8136 550.131 100.843 549.803C105.191 549.611 111.017 551.607 110.88 556.939C110.771 561.997 105.301 563.774 101.143 563.801L101.171 563.829ZM106.668 559.973C113.095 553.876 102.839 551.826 99.6391 552.099C97.5879 552.291 95.5092 552.701 93.5127 553.166C89.3008 554.122 85.3077 555.654 81.2326 557.021C84.5966 557.841 87.8513 558.907 91.188 559.864C95.1537 560.985 103.14 563.336 106.668 559.973Z" fill="#002462"/>
<path d="M66.1896 531.073C70.757 528.285 75.3792 532.331 77.4031 536.186C80.6577 542.447 82.2987 550.787 81.7244 557.786C81.7244 557.95 81.5603 558.005 81.4509 557.977C81.2048 558.524 80.4389 558.907 79.9193 558.415C74.7775 553.63 68.6784 549.146 65.1503 542.94C63.099 539.303 61.8956 533.698 66.2169 531.073H66.1896ZM73.5741 549.583C76.0629 551.99 78.6338 554.286 81.0133 556.774C80.1654 552.564 79.4817 548.326 78.1962 544.225C77.5945 542.256 76.9108 540.26 76.0356 538.374C74.6681 535.475 67.7485 527.601 65.6973 536.241C64.5486 540.998 70.6203 546.713 73.5467 549.583H73.5741Z" fill="#002462"/>
<path d="M88.1246 556.118L27.7084 491.975C27.7084 491.975 144.52 373.642 145.45 362.077C146.271 351.824 84.6785 236.553 83.4751 210.497C82.764 194.967 97.4783 168.747 112.493 155.432L198.126 193.409C198.126 193.409 190.633 208.692 175.891 216.785C175.891 216.785 235.651 346.301 228.567 382.391C222.386 413.807 88.1246 556.118 88.1246 556.118Z" fill="#002462"/>
<path d="M96.384 536.651C87.9055 527.792 90.4764 530.198 81.9158 521.449C77.7313 517.157 50.1077 489.022 45.4309 485.769C45.3215 485.687 45.1574 485.851 45.2394 485.96C48.4941 490.636 76.6099 518.25 80.9038 522.433C89.6559 531.019 87.2491 528.448 96.1105 536.897C96.2746 537.061 96.5481 536.788 96.384 536.624V536.651Z" fill="#C1C9D5"/>
<path d="M188.691 217.631C179.31 218.151 169.929 219.928 160.821 222.033C160.466 222.115 160.548 222.635 160.931 222.58C170.23 221.405 179.665 220.393 188.882 218.725C189.594 218.588 189.402 217.604 188.691 217.631Z" fill="#C1C9D5"/>
<path d="M178.926 212.41C177.832 213.777 176.848 215.226 175.945 216.702C175.234 217.851 174.386 219.081 174.195 220.421C174.167 220.694 174.496 220.803 174.687 220.667C175.863 219.819 176.629 218.479 177.449 217.331C178.407 216.019 179.419 214.706 180.349 213.367C180.978 212.464 179.61 211.562 178.926 212.382V212.41Z" fill="#C1C9D5"/>
<path d="M197.388 187.612C197.416 187.475 197.142 187.338 197.087 187.475C195.282 192.424 193.286 196.662 191.043 201.091C190.004 203.141 183.494 214.269 179.365 211.863C178.681 211.453 178.517 210.715 178.763 209.731C179.036 208.555 180.076 207.352 180.705 206.313C182.127 204.016 183.467 201.665 184.643 199.232C186.858 194.72 188.636 190.045 189.703 185.151C189.73 184.987 189.457 184.905 189.402 185.069C186.995 191.549 184.37 197.947 180.814 203.962C179.091 206.86 175.508 210.824 179.2 212.656C182.975 214.515 188.417 207.653 189.703 205.684C193.258 200.216 195.72 193.818 197.388 187.639V187.612Z" fill="#C1C9D5"/>
<path d="M112.685 197.455C114.216 196.908 116.322 197.865 117.881 198.139C119.878 198.494 121.902 198.74 123.926 198.822C125.922 198.904 127.946 198.85 129.943 198.686C131.939 198.522 133.963 198.303 135.713 197.237C138.64 195.459 141.129 192.288 143.125 189.554C145.341 186.546 147.638 183.101 148.951 179.601C149.033 179.383 149.334 179.547 149.279 179.738C148.623 181.789 148.103 183.839 147.255 185.835C146.462 187.694 145.45 189.499 144.383 191.221C142.387 194.448 140.062 197.865 136.671 199.752C133.115 201.72 128.548 201.556 124.582 201.283C122.312 201.119 120.015 200.791 117.799 200.299C116.186 199.943 113.478 199.643 112.466 198.221C112.274 197.975 112.384 197.592 112.685 197.483V197.455Z" fill="#C1C9D5"/>
<path d="M122.12 167.899C116.596 173.368 111.426 179.191 106.722 185.398C101.909 192.069 96.7942 199.178 95.9464 207.626C96.1105 211.099 97.2592 214.434 98.2711 217.715C101.909 228.816 106.339 239.616 110.743 250.443C125.512 286.396 142.004 321.585 156.581 357.566C157.703 360.628 159.098 363.718 159.617 366.916C158.441 370.744 155.323 373.943 152.916 377.333C123.351 413.315 90.9413 446.972 59.2974 481.148C81.0953 458.975 102.647 436.555 123.679 413.67C134.209 402.214 144.602 390.649 154.393 378.509C156.882 374.927 160.574 371.482 161.559 366.916C159.016 355.925 153.655 345.754 149.525 335.283C132.787 295.966 114.079 257.469 99.3651 217.387C98.3532 213.805 96.6028 210.032 97.1498 206.287C97.6147 202.541 99.1737 198.932 100.951 195.514C106.586 185.316 114.162 176.321 122.175 167.927L122.12 167.899Z" fill="#C1C9D5"/>
<path d="M177.587 220.121C194.981 264.277 213.142 308.433 225.066 354.421C226.981 363.417 229.552 373.095 227.829 382.2C222.14 400.218 210.188 415.83 198.263 430.293C210.872 416.103 223.261 400.929 229.36 382.61C231.439 372.931 228.786 363.389 226.899 353.984C215.33 307.777 196.759 263.621 177.614 220.121H177.587Z" fill="#C1C9D5"/>
<path d="M216.643 92.9584C213.661 112.507 214.017 186.493 223.89 195.187C234.967 204.921 283.924 224.47 296.587 227.614C304.299 229.528 314.446 180.368 305.339 177.306C294.07 173.506 259.09 161.968 253.428 157.812C250.365 155.57 247.193 130.033 236.061 90.7711C230.345 70.5933 219.213 76.0615 216.643 92.9584Z" fill="#FFC7A0"/>
<path d="M294.782 227.04C299.869 229.145 327.191 238.086 334.412 238.715C341.632 239.344 362.528 239.617 363.567 234.149C364.606 228.681 358.48 228.106 358.48 228.106C358.48 228.106 367.314 226.821 367.861 221.216C368.408 215.612 358.863 215.037 358.863 215.037C358.863 215.037 367.861 213.069 367.998 207.436C368.134 201.804 358.452 202.816 358.452 202.816C358.452 202.816 366.767 201.394 364.907 196.719C362.692 191.086 347.677 195.434 339.772 194.149C337.967 193.848 303.752 185.646 303.752 185.646L294.754 227.068L294.782 227.04Z" fill="#FFC7A0"/>
<path d="M359.3 202.734C348.251 205.906 342.863 205.386 332.005 202.215C331.786 202.16 331.65 202.461 331.868 202.543C342.234 206.617 348.88 208.23 359.465 203.254C359.984 203.007 359.82 202.57 359.273 202.734H359.3Z" fill="#002462"/>
<path d="M359.766 214.736C348.005 217.033 342.152 216.513 330.556 214.053C330.392 214.025 330.31 214.299 330.474 214.353C341.66 217.744 348.333 219.193 359.793 215.365C360.313 215.201 360.313 214.654 359.793 214.764L359.766 214.736Z" fill="#002462"/>
<path d="M357.906 227.943C346.364 229.337 339.937 229.064 328.969 225.208C328.723 225.126 328.559 225.482 328.805 225.591C339.608 230.595 347.622 231.032 357.933 228.298C358.644 228.107 358.644 227.861 357.933 227.943H357.906Z" fill="#002462"/>
<path d="M297.08 179.083C297.08 179.083 311.356 173.259 317.811 172.603C324.265 171.946 349.181 178.29 348.115 183.758C346.747 190.812 331.623 189.964 324.265 188.597C324.265 188.597 321.093 204.893 310.126 206.643C299.158 208.392 297.08 179.083 297.08 179.083Z" fill="#FFC7A0"/>
<path d="M347.103 185.562C341.195 191.085 331.678 188.652 324.457 187.859C323.91 187.804 323.664 188.215 323.691 188.652C321.914 195.405 317.428 204.401 310.481 206.916C310.29 206.998 310.345 207.299 310.563 207.244C318.358 205.549 323.5 197.073 324.977 189.554C332.389 190.484 342.043 192.507 347.13 185.645C347.158 185.617 347.13 185.562 347.076 185.59L347.103 185.562Z" fill="#002462"/>
<path d="M299.048 172.466L286.111 227.859C286.111 227.859 240.409 213.068 223.37 198.413C210.68 187.504 211.035 121.994 214.591 94.5982C218.147 67.2296 232.533 74.2016 237.839 92.2742C243.144 110.347 252.252 154.913 253.92 156.69C255.069 157.893 299.048 172.466 299.048 172.466Z" fill="#FFA502"/>
<path d="M280.231 196.692C281.106 192.509 281.981 188.326 282.911 184.17C283.814 180.014 284.607 175.776 285.783 171.702C285.838 171.511 286.111 171.538 286.111 171.757C285.646 175.831 284.771 179.932 284.033 183.978C283.24 188.271 282.446 192.564 281.626 196.856C280.012 205.332 278.07 213.726 276.019 222.092C275.964 222.311 275.718 222.202 275.746 222.01C277.058 213.534 278.508 205.113 280.258 196.719L280.231 196.692Z" fill="#002462"/>
<path opacity="0.1" d="M223.37 198.414C226.461 201.066 230.673 203.773 235.514 206.425L230.837 79.2879C224.628 73.1908 217.08 75.7609 214.618 94.599C211.063 121.968 210.707 187.477 223.398 198.386L223.37 198.414Z" fill="#1D283A"/>
<path d="M203.925 220.342C200.26 221.162 98.0528 170.854 97.9707 169.898C97.8887 169.05 158.113 79.6714 201.299 68.3794C213.743 65.1258 230.153 73.7657 232.123 85.1943C236.717 111.989 206.249 219.795 203.925 220.342Z" fill="#FFA502"/>
<path d="M211.582 99.3012L219.432 93.0127L223.124 103.32L218.557 108.652L211.856 106.437L211.582 99.3012Z" fill="#002462"/>
<path d="M211.856 106.437L179.473 179.246L180.65 205.931L201.189 186.71L218.557 108.651L211.856 106.437Z" fill="#002462"/>
<path d="M21.4699 256.429L184.118 267.229L177.31 369.697L14.6618 358.897L21.4699 256.429Z" fill="#FFA502"/>
<path opacity="0.1" d="M21.4699 256.429L184.118 267.229L177.31 369.697L14.6618 358.897L21.4699 256.429Z" fill="#1D283A"/>
<path opacity="0.1" d="M21.4622 256.44L184.11 267.239L180.903 315.5L18.2557 304.7L21.4622 256.44Z" fill="#1D283A"/>
<path d="M18.6092 241.137L188.953 252.448L185.775 300.272L15.4317 288.961L18.6092 241.137Z" fill="#FFA502"/>
<path opacity="0.1" d="M18.6092 241.137L188.953 252.448L185.775 300.272L15.4317 288.961L18.6092 241.137Z" fill="#1D283A"/>
<path d="M81.2043 227.86L80.0556 245.222L87.9051 245.742L88.5615 235.871L118.51 237.867L117.853 247.737L125.703 248.257L126.879 230.895L81.2043 227.86Z" fill="#002462"/>
<path d="M152.073 286.567L163.18 287.304L161.663 310.139L150.556 309.401L152.073 286.567Z" fill="#002462"/>
<path d="M39.5878 279.103L50.6948 279.84L49.1777 302.675L38.0707 301.937L39.5878 279.103Z" fill="#002462"/>
<path d="M192.574 68.5425C178.052 69.8548 117.143 80.9007 108.254 88.775C94.7708 100.75 79.0992 162.268 76.7198 176.513C75.6805 182.72 124.309 189.336 125.868 182.802C126.934 178.4 133.225 126.861 136.015 122.678C138.804 118.495 178.927 96.6766 201.08 87.0525C222.195 77.8932 223.316 65.699 192.547 68.5151L192.574 68.5425Z" fill="#FFC7A0"/>
<path d="M121.492 244.84C116.405 246.507 113.177 242.023 113.177 242.023C113.177 242.023 110.552 245.386 106.476 245.933C101.827 246.562 98.7911 239.535 98.7911 239.535C98.7911 239.535 95.4271 242.379 91.0511 242.543C86.5383 242.707 82.4632 236.036 82.4632 236.036C82.4632 236.036 77.8684 236.965 74.012 234.395C67.4207 229.993 67.7762 217.881 67.9403 210.198C68.1044 202.515 75.735 180.806 76.7743 176.541L126.196 177.088C126.196 177.088 135.331 211.784 133.881 220.807C132.65 228.407 127.262 242.98 121.546 244.867L121.492 244.84Z" fill="#FFC7A0"/>
<path d="M113.97 241.667C117.225 233.903 117.991 225.591 119.249 217.361C119.249 217.17 118.976 217.142 118.976 217.334C117.827 225.536 115.064 233.438 113.615 241.585C113.588 241.804 113.916 241.914 113.998 241.695L113.97 241.667Z" fill="#002462"/>
<path d="M99.4205 239.37C100.104 237.592 100.186 235.597 100.378 233.71C100.569 231.687 100.761 229.663 100.897 227.64C101.171 223.566 101.362 219.493 101.417 215.446C101.417 215.255 101.144 215.227 101.144 215.419C100.87 219.465 100.514 223.512 100.077 227.558C99.8581 229.581 99.6119 231.605 99.3657 233.601C99.1196 235.487 98.7093 237.428 98.9008 239.315C98.9008 239.588 99.3384 239.67 99.4478 239.397L99.4205 239.37Z" fill="#002462"/>
<path d="M82.464 235.843C83.1204 234.312 82.9836 232.344 83.0657 230.703C83.1477 228.844 83.2571 226.985 83.3665 225.153C83.5853 221.435 83.8041 217.744 84.1323 214.052C84.1323 213.861 83.8588 213.834 83.8588 214.025C83.5033 217.771 83.0656 221.517 82.7374 225.29C82.5733 227.122 82.4093 228.981 82.2725 230.813C82.1631 232.371 81.8076 234.34 82.2725 235.871C82.2725 235.953 82.4366 235.953 82.464 235.871V235.843Z" fill="#002462"/>
<path d="M129.915 178.044L73.0817 174.654C73.0817 174.654 86.3191 109.663 106.668 88.3646C115.064 79.5881 171.542 69.6905 194.899 67.5306C218.009 65.3979 232.724 73.2722 200.834 88.5833C168.944 103.894 141.074 118.631 140.527 120.955C139.98 123.307 129.888 178.017 129.888 178.017L129.915 178.044Z" fill="#FFA502"/>
<path d="M127.563 167.409C123.788 166.589 119.823 166.343 115.994 165.932C112.001 165.495 107.98 165.194 103.96 164.866C99.9392 164.538 83.8574 163.745 79.837 163.554C79.6455 163.554 79.6455 163.827 79.837 163.827C83.8301 164.265 99.7204 166.042 103.659 166.343C107.597 166.643 111.536 166.971 115.474 167.19C119.467 167.381 123.542 167.792 127.535 167.6C127.617 167.6 127.672 167.464 127.563 167.436V167.409Z" fill="#002462"/>
<path d="M126.359 177.823C126.359 177.823 129.915 178.124 129.969 178.097C131.856 168.773 133.607 159.423 135.385 150.099C137.463 140.53 138.448 130.304 141.648 121.254C147.446 116.743 157.948 111.63 164.403 107.884L189.346 94.1865C176.382 100.065 163.555 106.299 151.056 113.161C147.391 115.267 143.59 117.126 140.253 119.805C139.569 120.379 139.323 121.227 139.132 121.774C134.701 140.339 132.294 159.149 129.833 178.042C130.188 177.988 126.277 177.823 126.332 177.851L126.359 177.823Z" fill="#002462"/>
<path d="M180.211 98.8075C182.481 99.2176 184.998 98.6981 186.857 97.2764C184.587 97.8505 182.481 98.2606 180.211 98.8075Z" fill="#002462"/>
<path d="M219.842 94.7085C213.169 93.5055 206.605 80.3817 205.757 71.113C205.702 70.4842 208.847 65.3987 212.376 59.0555C214.509 55.2004 216.779 50.8531 218.584 46.7246L241.695 64.223C241.695 64.223 235.404 71.7419 232.314 78.96C232.068 79.5615 231.876 80.1356 231.767 80.7371C231.767 80.8192 231.712 80.9285 231.685 81.0379C230.81 84.4829 226.324 95.8842 219.842 94.7359V94.7085Z" fill="#FFC7A0"/>
<path d="M219.87 47.6816C218.037 55.1731 215.302 73.6832 228.95 79.999C229.907 80.4365 230.81 80.7646 231.657 81.0106C231.712 80.9013 231.712 80.7919 231.739 80.7099C231.876 80.1357 232.04 79.5616 232.286 78.96C235.377 71.742 241.667 64.2231 241.667 64.2231L219.842 47.6816H219.87Z" fill="#002462"/>
<path d="M228.458 14.0511C221.702 22.0074 215.138 50.6064 219.131 59.3283C224.902 71.9599 240.054 79.4514 252.225 71.2217C264.013 63.238 271.917 25.8352 266.939 17.3321C259.609 4.80977 238.44 2.29438 228.458 14.0785V14.0511Z" fill="#FFC7A0"/>
<path d="M223.125 36.8539C228.13 38.221 231.713 26.1088 231.713 26.1088C231.713 26.1088 239.645 27.3118 246.756 18.2892C246.756 18.2892 254.332 27.5852 262.865 28.8429C276.266 30.8388 281.49 14.2974 277.907 9.34861C272.82 2.34925 258.544 5.19274 258.544 5.19274C258.544 5.19274 242.188 -5.96249 232.67 4.42719C232.67 4.42719 224.493 2.0485 220.91 10.743C217.327 19.4649 219.378 35.815 223.098 36.8266L223.125 36.8539Z" fill="#002462"/>
<path d="M226.461 38.0303C226.461 38.0303 223.945 26.9298 219.131 27.504C214.345 28.0508 213.771 42.4323 217.682 46.014C221.593 49.5957 224.984 46.0413 224.984 46.0413L226.461 38.0303Z" fill="#FFC7A0"/>
<path d="M232.971 77.8677L219.952 90.1987L209.942 62.4199L201.792 66.111C201.792 66.111 206.222 104.963 206.961 103.651L219.186 93.4796L224.027 106.685L233.764 83.5821L232.998 77.8677H232.971Z" fill="#FFA502"/>
<path d="M229.47 95.5295C230.947 91.6471 232.533 87.792 233.846 83.8822C233.901 83.7454 233.709 83.5814 233.6 83.7181C231.193 86.9991 225.614 101.818 224 105.263C224 105.263 224 105.236 224 105.208C223.808 104.634 219.323 93.3969 219.186 93.4789C216.889 94.928 207.945 102.338 207.234 103.048C206.551 96.8693 202.94 72.1801 201.6 66.0283C201.573 65.8643 201.299 65.8643 201.327 66.0283C201.545 72.3168 205.976 104.771 206.222 104.798C206.332 104.99 217.381 95.9123 219.077 93.9984C219.679 96.2677 223.781 108.517 224.055 107.97C225.969 104.279 228.02 99.3573 229.497 95.5022L229.47 95.5295Z" fill="#002462"/>
<path d="M466.534 164.357L368.919 107.998C368.417 107.709 367.775 107.88 367.485 108.382L292.524 238.218C292.235 238.72 292.407 239.361 292.909 239.651L390.525 296.01C391.026 296.3 391.668 296.128 391.958 295.626L466.919 165.79C467.208 165.288 467.036 164.647 466.534 164.357Z" fill="#CDD1D9" stroke="#CDD1D9" stroke-width="3" stroke-miterlimit="10"/>
<path d="M459.291 166.794L370.431 115.49L300.015 237.453L388.875 288.756L459.291 166.794Z" fill="#FCFDFF" stroke="#CDD1D9" stroke-width="3" stroke-miterlimit="10"/>
<path d="M451.551 153.795L438.612 146.325L439.734 145.848C440.972 145.321 440.969 143.632 439.729 142.916L400.875 120.484C399.635 119.768 398.173 120.608 398.334 121.943L398.48 123.155L385.542 115.685C384.459 115.06 383.12 115.352 382.551 116.337L378.618 123.15L448.549 163.524L452.482 156.712C453.051 155.726 452.634 154.421 451.551 153.795L451.551 153.795Z" fill="#002462"/>
<path d="M443.987 167.999L377.023 129.338L372.632 136.944L439.596 175.605L443.987 167.999Z" fill="#FFB632"/>
<path d="M442.185 182.585L363.391 137.093L358.091 146.272L436.886 191.764L442.185 182.585Z" fill="#FCFDFF" stroke="#CDD1D9" stroke-width="3" stroke-miterlimit="10"/>
<path d="M436.886 191.764L358.092 146.272L352.792 155.452L431.586 200.944L436.886 191.764Z" fill="#FCFDFF" stroke="#CDD1D9" stroke-width="3" stroke-miterlimit="10"/>
<path d="M431.587 200.942L352.793 155.45L347.493 164.63L426.287 210.122L431.587 200.942Z" fill="#FCFDFF" stroke="#CDD1D9" stroke-width="3" stroke-miterlimit="10"/>
<path d="M426.37 209.978L347.576 164.486L342.276 173.666L421.07 219.158L426.37 209.978Z" fill="#FCFDFF" stroke="#CDD1D9" stroke-width="3" stroke-miterlimit="10"/>
<path d="M421.07 219.158L342.276 173.666L336.976 182.846L415.77 228.337L421.07 219.158Z" fill="#FCFDFF" stroke="#CDD1D9" stroke-width="3" stroke-miterlimit="10"/>
<path d="M415.771 228.336L336.977 182.844L331.677 192.023L410.471 237.515L415.771 228.336Z" fill="#FCFDFF" stroke="#CDD1D9" stroke-width="3" stroke-miterlimit="10"/>
<path d="M410.471 237.514L331.677 192.022L326.377 201.202L405.172 246.694L410.471 237.514Z" fill="#FCFDFF" stroke="#CDD1D9" stroke-width="3" stroke-miterlimit="10"/>
<path d="M405.172 246.694L326.378 201.202L321.078 210.382L399.872 255.874L405.172 246.694Z" fill="#FCFDFF" stroke="#CDD1D9" stroke-width="3" stroke-miterlimit="10"/>
<path d="M383.209 148.534L363.391 137.093L321.078 210.381L340.896 221.823L383.209 148.534Z" stroke="#CDD1D9" stroke-width="3" stroke-miterlimit="10"/>
<path d="M431.425 176.372L383.202 148.53L340.888 221.819L389.112 249.661L431.425 176.372Z" stroke="#CDD1D9" stroke-width="3" stroke-miterlimit="10"/>
<path d="M379.493 149.667L363.747 140.576L361.475 144.51L377.222 153.601L379.493 149.667Z" fill="#CDD1D9"/>
<path d="M374.098 159.011L358.352 149.92L356.081 153.854L371.827 162.945L374.098 159.011Z" fill="#CDD1D9"/>
<path d="M368.93 167.963L353.183 158.872L350.912 162.806L366.658 171.897L368.93 167.963Z" fill="#CDD1D9"/>
<path d="M363.535 177.307L347.789 168.216L345.518 172.15L361.264 181.241L363.535 177.307Z" fill="#CDD1D9"/>
<path d="M358.164 186.611L342.417 177.52L340.146 181.453L355.893 190.545L358.164 186.611Z" fill="#CDD1D9"/>
<path d="M352.769 195.954L337.022 186.863L334.751 190.797L350.498 199.888L352.769 195.954Z" fill="#CDD1D9"/>
<path d="M347.6 204.908L331.854 195.816L329.583 199.75L345.329 208.842L347.6 204.908Z" fill="#CDD1D9"/>
<path d="M342.206 214.25L326.459 205.159L324.188 209.093L339.935 218.184L342.206 214.25Z" fill="#CDD1D9"/>
<path d="M427.217 177.222L384.571 152.6L382.3 156.534L424.946 181.155L427.217 177.222Z" fill="#CDD1D9"/>
<path d="M421.823 186.564L379.176 161.942L376.905 165.876L419.551 190.498L421.823 186.564Z" fill="#CDD1D9"/>
<path d="M416.654 195.517L374.007 170.896L371.736 174.829L414.382 199.451L416.654 195.517Z" fill="#CDD1D9"/>
<path d="M411.26 204.86L368.613 180.238L366.342 184.172L408.988 208.794L411.26 204.86Z" fill="#CDD1D9"/>
<path d="M405.888 214.165L363.241 189.543L360.97 193.477L403.616 218.099L405.888 214.165Z" fill="#CDD1D9"/>
<path d="M400.493 223.508L357.847 198.886L355.575 202.82L398.222 227.442L400.493 223.508Z" fill="#CDD1D9"/>
<path d="M395.324 232.461L352.678 207.839L350.406 211.773L393.053 236.395L395.324 232.461Z" fill="#CDD1D9"/>
<path d="M389.93 241.804L347.284 217.182L345.012 221.116L387.659 245.737L389.93 241.804Z" fill="#CDD1D9"/>
<path d="M397.753 259.544L318.959 214.052L317.898 215.889L396.692 261.381L397.753 259.544Z" fill="#CDD1D9"/>
<path d="M395.851 262.839L317.057 217.347L315.996 219.184L394.79 264.676L395.851 262.839Z" fill="#CDD1D9"/>
<path d="M375.695 255.603L315.151 220.647L314.09 222.485L374.634 257.44L375.695 255.603Z" fill="#CDD1D9"/>
<path d="M331.322 239.985L310.82 228.148L309.759 229.986L330.261 241.823L331.322 239.985Z" fill="#CDD1D9"/>
<path d="M348.315 254.19L308.918 231.444L307.857 233.281L347.254 256.027L348.315 254.19Z" fill="#CDD1D9"/>
</svg>
