<svg width="160" height="160" viewBox="0 0 160 160" fill="none" xmlns="http://www.w3.org/2000/svg">
<g id="calculator">
<g id="Group">
<path id="Vector" d="M139.264 -4H19.7364C6.62714 -4 -4 6.62714 -4 19.7364V139.264C-4 152.373 6.62714 163 19.7364 163H139.264C152.373 163 163 152.373 163 139.264V19.7364C163 6.62714 152.373 -4 139.264 -4Z" fill="#FCC357"/>
<g id="Vector_2" style="mix-blend-mode:multiply">
<path d="M156.134 141.477V101.698L119.5 24L39 133.5L50.8698 163.327H134.339C146.37 163.327 156.124 153.544 156.124 141.477H156.134Z" fill="#CCCCCC"/>
</g>
<g id="Group_2">
<path id="Vector_3" d="M121.503 129.855C121.503 133.33 118.731 136.132 115.316 136.132H44.1869C40.7721 136.132 38 133.32 38 129.845V30.0911C38 26.6159 40.7921 23.8037 44.207 23.8037H115.336C118.751 23.8037 121.503 26.636 121.503 30.1111V129.855Z" fill="#333333"/>
<path id="Vector_4" d="M121.503 129.041C121.503 132.516 118.731 135.319 115.316 135.319H44.1869C40.7721 135.319 38 132.506 38 129.031V29.2874C38 25.8122 40.7921 23 44.207 23H115.336C118.751 23 121.503 25.8323 121.503 29.3074V129.051V129.041Z" fill="#666666"/>
<path id="Vector_5" d="M115.196 53.5019C115.196 55.1893 113.84 56.5552 112.173 56.5552H47.3505C45.6833 56.5452 44.3274 55.1792 44.3274 53.4919V34.2984C44.3274 32.6111 45.6833 31.2451 47.3606 31.2451H112.183C113.85 31.2451 115.206 32.6211 115.206 34.3084V53.4919L115.196 53.5019Z" fill="#E6E6E6"/>
<path id="Vector_6" d="M59.2424 90.0211C59.2424 90.8848 58.5093 91.5778 57.6053 91.5778H47.9734C47.0695 91.5778 46.3363 90.8748 46.3363 90.011V81.1625C46.3363 80.2988 47.0695 79.5957 47.9734 79.5957H57.6053C58.5093 79.5957 59.2424 80.2988 59.2424 81.1625V90.011V90.0211Z" fill="#999999"/>
<path id="Vector_7" d="M59.2424 107.98C59.2424 108.844 58.5093 109.547 57.6053 109.547H47.9734C47.0695 109.547 46.3363 108.844 46.3363 107.98V99.1313C46.3363 98.2675 47.0695 97.5645 47.9734 97.5645H57.6053C58.5093 97.5645 59.2424 98.2675 59.2424 99.1313V107.98Z" fill="#999999"/>
<path id="Vector_8" d="M59.2424 125.938C59.2424 126.802 58.5093 127.505 57.6053 127.505H47.9734C47.0695 127.505 46.3363 126.802 46.3363 125.938V117.089C46.3363 116.226 47.0695 115.522 47.9734 115.522H57.6053C58.5093 115.522 59.2424 116.226 59.2424 117.089V125.938Z" fill="#999999"/>
<path id="Vector_9" d="M77.2206 90.0211C77.2206 90.8848 76.4874 91.5778 75.5835 91.5778H65.9516C65.0476 91.5778 64.3145 90.8748 64.3145 90.011V81.1625C64.3145 80.2988 65.0476 79.5957 65.9616 79.5957H75.5935C76.4974 79.5957 77.2306 80.2988 77.2306 81.1625V90.011L77.2206 90.0211Z" fill="#999999"/>
<path id="Vector_10" d="M77.2206 107.98C77.2206 108.844 76.4874 109.547 75.5835 109.547H65.9516C65.0476 109.547 64.3145 108.844 64.3145 107.98V99.1313C64.3145 98.2675 65.0476 97.5645 65.9616 97.5645H75.5935C76.4974 97.5645 77.2306 98.2675 77.2306 99.1313V107.98H77.2206Z" fill="#999999"/>
<path id="Vector_11" d="M77.2206 125.938C77.2206 126.802 76.4874 127.505 75.5835 127.505H65.9516C65.0476 127.505 64.3145 126.802 64.3145 125.938V117.089C64.3145 116.226 65.0476 115.522 65.9516 115.522H75.5835C76.4874 115.522 77.2206 116.226 77.2206 117.089V125.938Z" fill="#999999"/>
<path id="Vector_12" d="M95.1989 90.0208C95.1989 90.8845 94.4657 91.5876 93.5617 91.5876H83.9299C83.0259 91.5876 82.2927 90.8845 82.2927 90.0208V81.1723C82.2927 80.3085 83.0259 79.6055 83.9299 79.6055H93.5617C94.4657 79.6055 95.1989 80.3085 95.1989 81.1723V90.0208Z" fill="#999999"/>
<path id="Vector_13" d="M112.725 90.2522C112.725 91.116 111.992 91.819 111.088 91.819H101.456C100.552 91.819 99.8187 91.116 99.8187 90.2522V81.4037C99.8187 80.54 100.552 79.8369 101.456 79.8369H111.098C112.002 79.8369 112.735 80.54 112.735 81.4037V90.2522H112.725Z" fill="#999999"/>
<path id="Vector_14" d="M95.1989 107.989C95.1989 108.853 94.4657 109.556 93.5617 109.556H83.9299C83.0259 109.556 82.2927 108.853 82.2927 107.989V99.1408C82.2927 98.277 83.0259 97.584 83.9299 97.584H93.5617C94.4657 97.584 95.1989 98.287 95.1989 99.1508V107.999V107.989Z" fill="#999999"/>
<path id="Vector_15" d="M95.1989 125.948C95.1989 126.811 94.4657 127.514 93.5617 127.514H83.9299C83.0259 127.514 82.2927 126.811 82.2927 125.948V117.099C82.2927 116.235 83.0259 115.532 83.9299 115.532H93.5617C94.4657 115.532 95.1989 116.235 95.1989 117.099V125.948Z" fill="#999999"/>
<path id="Vector_16" d="M59.7044 72.8563C59.7044 73.5995 59.0716 74.2122 58.2882 74.2122H47.3105C46.5271 74.2122 45.8843 73.5995 45.8843 72.8563V65.2934C45.8843 64.5502 46.517 63.9375 47.3105 63.9375H58.2882C59.0716 63.9375 59.7044 64.5502 59.7044 65.2934V72.8563Z" fill="#CCCCCC"/>
<path id="Vector_17" d="M77.6825 72.8563C77.6825 73.5995 77.0498 74.2122 76.2663 74.2122H65.2886C64.5052 74.2122 63.8724 73.5995 63.8724 72.8563V65.2934C63.8724 64.5502 64.5052 63.9375 65.2886 63.9375H76.2663C77.0498 63.9375 77.6825 64.5502 77.6825 65.2934V72.8563Z" fill="#CCCCCC"/>
<path id="Vector_18" d="M95.6606 72.8563C95.6606 73.6096 95.0278 74.2122 94.2444 74.2122H83.2667C82.4832 74.2122 81.8405 73.5995 81.8405 72.8563V65.2934C81.8405 64.5401 82.4732 63.9375 83.2667 63.9375H94.2444C95.0278 63.9375 95.6606 64.5502 95.6606 65.2934V72.8563Z" fill="#CCCCCC"/>
<path id="Vector_19" d="M113.639 72.8661C113.639 73.6093 113.006 74.222 112.223 74.222H101.245C100.462 74.222 99.8289 73.6093 99.8289 72.8661V65.3032C99.8289 64.5499 100.462 63.9473 101.255 63.9473H112.233C113.016 63.9473 113.649 64.5599 113.649 65.3032V72.8661H113.639Z" fill="#CCCCCC"/>
<path id="Vector_20" d="M113.629 123.185C113.629 125.305 112.996 127.022 112.213 127.022H101.235C100.451 127.022 99.8187 125.305 99.8187 123.185V101.772C99.8187 99.653 100.462 97.9355 101.245 97.9355H112.223C113.006 97.9355 113.639 99.653 113.639 101.772V123.185H113.629Z" fill="#DD9043"/>
<g id="Group_3">
<path id="Vector_21" d="M89.534 35.9058L88.7506 34.9717L89.534 34.0276L96.3738 34.0176L97.1672 34.9617L96.3738 35.9058H89.534Z" fill="#4D4D4D"/>
<path id="Vector_22" d="M89.052 44.8648L88.2787 43.9207L89.052 42.9766H95.8918L96.6853 43.9207L95.8918 44.8648H89.052Z" fill="#4D4D4D"/>
<path id="Vector_23" d="M88.6404 54.0952L87.5457 53.1411L88.6404 52.207H95.4802L96.2736 53.1411L95.4802 54.0852L88.6404 54.0952Z" fill="#4D4D4D"/>
<path id="Vector_24" d="M102.882 35.7749L102.109 34.8308L102.882 33.8968L109.722 33.8867L110.516 34.8308L109.722 35.7649L102.882 35.7749Z" fill="#4D4D4D"/>
<path id="Vector_25" d="M101.998 44.8648L101.215 43.9307L101.998 42.9866L108.828 42.9766L109.632 43.9207L108.828 44.8648H101.998Z" fill="#4D4D4D"/>
<path id="Vector_26" d="M101.356 53.9543L100.582 53.0203L101.356 52.0762H108.195L108.989 53.0102L108.195 53.9543H101.356Z" fill="#4D4D4D"/>
<path id="Vector_27" d="M83.5179 52.0562L82.5336 52.7693L81.6799 51.9055L82.2424 44.9754L83.2367 44.2422L84.0904 45.126L83.5179 52.0562Z" fill="#4D4D4D"/>
<path id="Vector_28" d="M110.988 42.9768L110.003 43.6899L109.14 42.8261L109.712 35.896L110.696 35.1729L111.55 36.0567L110.988 42.9768Z" fill="#4D4D4D"/>
<path id="Vector_29" d="M97.9509 42.9768L96.9666 43.6899L96.1129 42.8261L96.6754 35.896L97.6596 35.1729L98.5234 36.0567L97.9509 42.9768Z" fill="#4D4D4D"/>
<path id="Vector_30" d="M84.241 42.9771L83.2567 43.6902L82.3929 42.8264L82.9654 35.8963L83.9497 35.1631L84.8034 36.0469L84.241 42.9771Z" fill="#4D4D4D"/>
<path id="Vector_31" d="M110.264 52.0659L109.28 52.769L108.416 51.9052L108.989 44.9751L109.973 44.252L110.837 45.1358L110.264 52.0659Z" fill="#4D4D4D"/>
<path id="Vector_32" d="M88.1881 52.0562L87.2038 52.7693L86.3401 51.9055L86.9126 44.9754L87.8969 44.2422L88.7506 45.126L88.1881 52.0562Z" fill="#4D4D4D"/>
</g>
</g>
</g>
</g>
</svg>
