<svg width="566" height="671" viewBox="0 0 566 671" fill="none" xmlns="http://www.w3.org/2000/svg">
<g clip-path="url(#clip0_6278_409733)">
<path d="M497.779 338.73C472.759 357.208 437.376 351.899 418.893 326.904C411.848 317.378 408.268 306.354 407.905 295.326C407.716 289.484 408.427 283.633 410.019 278.015C413.295 266.407 420.303 255.767 430.734 248.064C455.745 229.593 491.128 234.901 509.618 259.904C517.331 270.336 520.898 282.571 520.611 294.634C520.591 295.887 520.52 297.124 520.406 298.369C519.034 313.884 511.272 328.765 497.778 338.73H497.779Z" fill="#CDD1D9"/>
<path opacity="0.7" d="M512.228 312.045C518.389 296.159 516.534 277.522 505.663 262.821C488.794 240.007 456.491 235.154 433.652 252.019C418.941 262.883 411.705 280.13 412.918 297.132C413.582 306.536 416.838 315.861 422.843 323.983C439.72 346.806 472.015 351.65 494.853 334.784C502.98 328.782 508.822 320.83 512.226 312.045H512.228ZM424.972 322.411C421.465 317.668 418.944 312.487 417.38 307.123C411.805 288.045 418.312 266.638 435.225 254.147C456.896 238.144 487.536 242.741 503.543 264.386C516.029 281.27 515.98 303.613 505.079 320.219C502.006 324.904 498.063 329.14 493.288 332.667C471.627 348.664 440.979 344.058 424.972 322.411Z" fill="#F4F5F7"/>
<path d="M464.577 320.009C476.182 320.345 482.675 314.633 483.806 307.104C485.344 296.859 476.888 292.845 469.113 289.755L470.967 277.415C474.529 278.393 478.118 280.194 481.503 282.861L486.48 274.471C482.865 271.334 477.785 269.092 472.404 267.842L473.593 259.92L466.329 258.839L465.126 266.901C453.442 266.479 446.874 272.246 445.718 279.939C444.159 290.315 452.747 294.348 460.527 297.523L458.698 309.642C453.543 308.341 448.62 305.603 445.388 302.374L440.061 310.628C443.588 314.353 450.146 317.63 457.278 319.144L456.082 327.055L463.347 328.137L464.575 320.012L464.577 320.009ZM457.492 281.109C457.851 278.72 459.691 276.836 463.67 276.547L462.131 286.85C459.089 285.356 457.111 283.645 457.492 281.109ZM466.015 310.435L467.519 300.419C470.475 301.976 472.365 303.665 471.985 306.201C471.633 308.542 469.753 310.192 466.015 310.435Z" fill="#F4F5F7"/>
<path d="M554.337 201.265C536.675 222.259 505.225 224.979 484.225 207.333C476.221 200.607 470.881 191.885 468.3 182.5C466.934 177.527 466.341 172.361 466.55 167.214C466.972 156.582 470.794 146.013 478.158 137.261C495.814 116.272 527.263 113.554 548.271 131.205C557.037 138.569 562.614 148.332 564.85 158.74C565.09 159.819 565.284 160.894 565.442 161.987C567.459 175.579 563.863 189.942 554.336 201.265H554.337Z" fill="#CDD1D9"/>
<path opacity="0.7" d="M561.241 175.402C563.258 160.506 557.83 144.898 545.478 134.52C526.31 118.415 497.597 120.891 481.475 140.055C471.091 152.399 468.43 168.683 472.971 183.02C475.476 190.952 480.187 198.283 487.012 204.017C506.189 220.128 534.893 217.646 551.015 198.482C556.752 191.662 560.127 183.64 561.24 175.403L561.241 175.402ZM488.515 202.228C484.53 198.88 481.301 194.952 478.855 190.672C470.145 175.45 471.321 155.747 483.262 141.555C498.56 123.371 525.794 121.016 543.982 136.297C558.169 148.217 562.726 167.395 556.791 183.882C555.119 188.533 552.608 192.978 549.237 196.985C533.946 215.161 506.703 217.509 488.515 202.228Z" fill="#F4F5F7"/>
<path d="M521.999 192.028C532.024 189.93 536.419 183.695 535.84 177.005C535.052 167.898 526.97 166.193 519.664 165.14L518.714 154.172C521.972 154.279 525.422 155.087 528.875 156.679L531.419 148.457C527.672 146.509 522.851 145.629 517.979 145.662L517.369 138.622L510.914 139.187L511.542 146.351C501.431 148.391 496.983 154.688 497.575 161.525C498.373 170.748 506.572 172.442 513.899 173.568L514.824 184.34C510.134 184.284 505.347 182.946 501.909 180.84L499.039 189.016C502.831 191.488 509.132 192.95 515.562 192.783L516.164 199.817L522.619 199.252L522.001 192.028H521.999ZM507.915 160.11C507.732 157.986 508.922 155.992 512.276 154.925L513.077 164.081C510.16 163.425 508.11 162.364 507.915 160.108V160.11ZM521.263 183.518L520.492 174.616C523.349 175.344 525.318 176.405 525.513 178.66C525.693 180.74 524.42 182.543 521.263 183.52V183.518Z" fill="#F4F5F7"/>
<path d="M436.834 125.249C429.023 134.533 415.116 135.736 405.83 127.932C402.289 124.958 399.928 121.101 398.787 116.951C398.183 114.752 397.921 112.468 398.014 110.191C398.2 105.491 399.89 100.817 403.147 96.946C410.955 87.6649 424.863 86.463 434.152 94.2675C438.028 97.5245 440.494 101.841 441.484 106.444C441.59 106.921 441.676 107.396 441.747 107.88C442.638 113.891 441.047 120.242 436.835 125.249H436.834Z" fill="#CDD1D9"/>
<path opacity="0.7" d="M439.887 113.811C440.78 107.224 438.379 100.322 432.916 95.7321C424.44 88.6105 411.743 89.7055 404.613 98.1797C400.021 103.639 398.845 110.839 400.853 117.18C401.961 120.687 404.044 123.929 407.062 126.464C415.542 133.59 428.236 132.492 435.366 124.017C437.902 121 439.396 117.453 439.887 113.811ZM407.726 125.674C405.964 124.194 404.537 122.458 403.454 120.564C399.603 113.833 400.123 105.12 405.404 98.8433C412.169 90.8017 424.212 89.7614 432.255 96.5184C438.529 101.789 440.544 110.271 437.919 117.561C437.18 119.617 436.07 121.584 434.579 123.356C427.817 131.394 415.77 132.431 407.728 125.674H407.726Z" fill="#F4F5F7"/>
<path d="M422.534 121.163C426.968 120.236 428.911 117.478 428.655 114.519C428.306 110.493 424.733 109.738 421.501 109.272L421.082 104.422C422.523 104.47 424.048 104.827 425.575 105.531L426.7 101.894C425.043 101.033 422.912 100.644 420.757 100.658L420.487 97.5449L417.633 97.7953L417.91 100.964C413.439 101.865 411.472 104.651 411.734 107.673C412.087 111.752 415.712 112.5 418.953 112.999L419.362 117.762C417.288 117.738 415.172 117.146 413.652 116.215L412.382 119.831C414.059 120.923 416.845 121.571 419.69 121.497L419.956 124.607L422.81 124.357L422.536 121.163H422.534ZM416.306 107.048C416.225 106.109 416.751 105.228 418.235 104.756L418.589 108.806C417.299 108.515 416.393 108.046 416.306 107.05V107.048ZM422.208 117.4L421.868 113.464C423.131 113.786 424.002 114.255 424.088 115.252C424.167 116.172 423.604 116.969 422.209 117.4H422.208Z" fill="#F4F5F7"/>
<path d="M505.803 51.0917C496.474 62.18 479.865 63.6165 468.773 54.2965C464.546 50.7442 461.724 46.1382 460.362 41.1798C459.641 38.5536 459.328 35.8241 459.438 33.1067C459.661 27.492 461.679 21.909 465.57 17.286C474.895 6.20139 491.505 4.76491 502.601 14.0874C507.23 17.9775 510.176 23.134 511.357 28.6308C511.483 29.2007 511.586 29.7695 511.669 30.3455C512.734 37.5243 510.835 45.1101 505.804 51.0905L505.803 51.0917Z" fill="#CDD1D9"/>
<path opacity="0.7" d="M509.45 37.4321C510.515 29.5644 507.649 21.321 501.124 15.8401C491 7.33429 475.836 8.64194 467.321 18.7629C461.836 25.2829 460.432 33.8835 462.83 41.4547C464.153 45.6438 466.641 49.5158 470.246 52.5443C480.373 61.0537 495.534 59.7424 504.049 49.6215C507.08 46.0194 508.862 41.7829 509.45 37.4321ZM471.038 51.6012C468.933 49.833 467.228 47.7584 465.937 45.498C461.338 37.4589 461.958 27.0524 468.265 19.5564C476.344 9.95202 490.728 8.70878 500.334 16.7795C507.826 23.0747 510.233 33.2041 507.099 41.9117C506.216 44.3678 504.889 46.7157 503.109 48.8316C495.033 58.4311 480.644 59.6719 471.038 51.6V51.6012Z" fill="#F4F5F7"/>
<path d="M488.724 46.2127C494.019 45.1044 496.34 41.8122 496.034 38.2781C495.618 33.4692 491.35 32.5687 487.491 32.0121L486.99 26.2188C488.711 26.2747 490.532 26.7025 492.357 27.5434L493.7 23.2012C491.722 22.1731 489.175 21.7076 486.602 21.7246L486.28 18.0059L482.871 18.3048L483.203 22.088C477.863 23.1648 475.514 26.491 475.826 30.1028C476.248 34.9737 480.578 35.8694 484.447 36.4625L484.936 42.1524C482.459 42.1233 479.931 41.416 478.115 40.304L476.599 44.6231C478.601 45.9283 481.929 46.7013 485.325 46.6125L485.643 50.3277L489.051 50.0287L488.725 46.2139L488.724 46.2127ZM481.285 29.3554C481.188 28.2337 481.817 27.1813 483.589 26.6174L484.011 31.453C482.47 31.1067 481.387 30.5464 481.284 29.3554H481.285ZM488.335 41.7186L487.928 37.0166C489.437 37.4007 490.476 37.9609 490.58 39.1519C490.675 40.2505 490.002 41.2033 488.335 41.7186Z" fill="#F4F5F7"/>
<path d="M107.4 295.675C82.3803 314.152 46.997 308.844 28.5137 283.849C21.4689 274.322 17.8887 263.298 17.5263 252.271C17.3366 246.429 18.048 240.577 19.6399 234.959C22.916 223.352 29.9243 212.712 40.3547 205.008C65.366 186.537 100.749 191.845 119.239 216.849C126.952 227.281 130.519 239.515 130.232 251.578C130.211 252.831 130.141 254.068 130.027 255.314C128.655 270.828 120.893 285.709 107.399 295.675H107.4Z" fill="#CDD1D9"/>
<path opacity="0.7" d="M121.848 268.989C128.01 253.103 126.155 234.466 115.284 219.765C98.4144 196.952 66.1115 192.098 43.2733 208.964C28.5623 219.827 21.3254 237.074 22.539 254.076C23.203 263.48 26.4585 272.805 32.4635 280.927C49.3404 303.75 81.636 308.594 104.474 291.728C112.601 285.726 118.443 277.775 121.847 268.989H121.848ZM34.5929 279.356C31.0857 274.612 28.5648 269.432 27.0009 264.067C21.4263 244.99 27.9324 223.582 44.8457 211.092C66.5164 195.089 97.157 199.685 113.164 221.33C125.65 238.214 125.601 260.558 114.7 277.163C111.627 281.848 107.683 286.085 102.909 289.611C81.2481 305.608 50.6003 301.002 34.5929 279.356Z" fill="#F4F5F7"/>
<path d="M74.1985 276.955C85.8036 277.29 92.2963 271.578 93.4272 264.049C94.9656 253.805 86.5089 249.79 78.7345 246.7L80.5878 234.36C84.1497 235.338 87.7396 237.139 91.124 239.807L96.1014 231.416C92.486 228.28 87.4064 226.038 82.0252 224.787L83.2145 216.866L75.9496 215.784L74.7469 223.846C63.0627 223.425 56.4947 229.191 55.3394 236.884C53.7803 247.26 62.3684 251.294 70.1477 254.468L68.3187 266.587C63.1637 265.287 58.241 262.549 55.0086 259.319L49.6821 267.574C53.2088 271.299 59.7671 274.575 66.8995 276.089L65.7029 284.001L72.9678 285.082L74.196 276.957L74.1985 276.955ZM67.1123 238.053C67.4711 235.664 69.311 233.78 73.29 233.491L71.7505 243.794C68.709 242.301 66.7305 240.589 67.1123 238.053ZM75.6359 267.379L77.1402 257.363C80.0965 258.92 81.9863 260.609 81.6056 263.145C81.2542 265.486 79.3741 267.136 75.6359 267.379Z" fill="#F4F5F7"/>
<path d="M87.1535 161.03C69.6272 181.863 38.42 184.562 17.5799 167.052C9.6376 160.379 4.33789 151.724 1.77681 142.41C0.422091 137.476 -0.167711 132.348 0.0402398 127.241C0.458574 116.691 4.25155 106.203 11.559 97.517C29.0804 76.6906 60.2864 73.9926 81.1338 91.5074C89.8313 98.8149 95.3657 108.503 97.5851 118.831C97.8234 119.901 98.0168 120.97 98.1736 122.054C100.174 135.541 96.6061 149.794 87.1535 161.029V161.03Z" fill="#CDD1D9"/>
<path opacity="0.7" d="M94.0037 135.365C96.0054 120.583 90.6193 105.095 78.3624 94.7971C59.3416 78.8161 30.8499 81.2722 14.8522 100.289C4.54711 112.538 1.9082 128.698 6.4138 142.924C8.89949 150.794 13.5753 158.069 20.3465 163.759C39.3746 179.746 67.8591 177.284 83.8567 158.268C89.5504 151.5 92.8995 143.54 94.0037 135.366V135.365ZM21.8374 161.986C17.8827 158.663 14.6783 154.767 12.2522 150.518C3.60951 135.413 4.77695 115.862 16.6253 101.779C31.8057 83.7356 58.8308 81.3986 76.8776 96.5617C90.955 108.389 95.4764 127.42 89.5881 143.781C87.9281 148.396 85.4364 152.807 82.0921 156.783C66.919 174.819 39.8854 177.149 21.8374 161.986Z" fill="#F4F5F7"/>
<path d="M55.0634 151.864C65.011 149.782 69.3731 143.595 68.7979 136.956C68.0159 127.92 59.9958 126.228 52.7455 125.182L51.803 114.298C55.0354 114.403 58.4587 115.206 61.8844 116.785L64.409 108.627C60.6914 106.695 55.9073 105.821 51.0722 105.854L50.4678 98.8672L44.0626 99.4287L44.6853 106.537C34.6526 108.56 30.2382 114.811 30.8255 121.594C31.6172 130.745 39.7528 132.427 47.0238 133.544L47.942 144.234C43.288 144.178 38.538 142.851 35.1268 140.761L32.2788 148.874C36.0413 151.326 42.2945 152.777 48.6753 152.612L49.2724 159.592L55.6775 159.03L55.0646 151.862L55.0634 151.864ZM41.0881 120.192C40.9057 118.085 42.0877 116.106 45.4162 115.048L46.2103 124.133C43.316 123.482 41.2827 122.429 41.0893 120.192H41.0881ZM54.3325 143.42L53.5676 134.586C56.4023 135.308 58.3565 136.36 58.5499 138.597C58.7287 140.661 57.4651 142.451 54.3325 143.42Z" fill="#F4F5F7"/>
<path d="M103.338 64.8112C90.9147 73.1481 74.0269 69.8316 65.687 57.421C62.5081 52.6911 61.0269 47.3159 61.0914 42.0087C61.1266 39.1978 61.596 36.4014 62.4826 33.7362C64.3079 28.2298 67.9063 23.2677 73.0856 19.792C85.5043 11.4576 102.393 14.7741 110.736 27.1895C114.216 32.369 115.665 38.3252 115.266 44.116C115.228 44.7176 115.168 45.3107 115.086 45.9074C114.091 53.3328 110.038 60.3158 103.337 64.8124L103.338 64.8112Z" fill="#CDD1D9"/>
<path opacity="0.7" d="M110.858 52.3012C114.164 44.8004 113.676 35.8049 108.77 28.5058C101.159 17.1781 85.7414 14.146 74.4014 21.7561C67.0975 26.6586 63.245 34.7889 63.4602 42.9848C63.5757 47.5178 64.9378 52.0691 67.6472 56.1026C75.2623 67.4352 90.6763 70.4625 102.016 62.8523C106.052 60.1435 109.031 56.449 110.857 52.3012H110.858ZM68.7052 55.3929C67.1231 53.0377 66.0237 50.4929 65.3877 47.8824C63.1221 38.594 66.712 28.4487 75.1115 22.8122C85.8715 15.591 100.496 18.4627 107.719 29.2107C113.353 37.5938 112.844 48.3296 107.247 56.0735C105.668 58.2585 103.681 60.2091 101.311 61.7999C90.5559 69.0175 75.9275 66.1409 68.7052 55.3929Z" fill="#F4F5F7"/>
<path d="M87.7893 55.0958C93.359 55.5078 96.6023 52.9034 97.3088 49.311C98.2708 44.4207 94.2929 42.3097 90.624 40.6557L91.7817 34.7664C93.4721 35.3133 95.1576 36.2576 96.7263 37.6114L99.3008 33.6873C97.6311 32.1025 95.2391 30.914 92.6804 30.1969L93.4234 26.4162L89.9564 25.7393L89.2036 29.5869C83.5987 29.1311 80.3165 31.761 79.5953 35.4312C78.6212 40.3835 82.6611 42.5078 86.33 44.2019L85.1893 49.9855C82.7401 49.249 80.4344 47.8271 78.9508 46.2047L76.2122 50.056C77.8259 51.9227 80.9063 53.6387 84.3004 54.521L83.5537 58.2969L87.0207 58.9738L87.7869 55.0958H87.7893ZM85.227 36.2491C85.4508 35.1091 86.3762 34.2439 88.2952 34.1904L87.3321 39.1087C85.9032 38.3248 84.9899 37.4595 85.227 36.2491ZM88.6868 50.5263L89.6268 45.7453C91.0144 46.5572 91.8851 47.4103 91.6467 48.6207C91.4266 49.7376 90.4878 50.4898 88.6868 50.5263Z" fill="#F4F5F7"/>
<path d="M383.48 13.2871H93.5293C92.0383 13.2871 90.8296 14.495 90.8296 15.9851V401.641C90.8296 403.131 92.0383 404.339 93.5293 404.339H383.48C384.971 404.339 386.18 403.131 386.18 401.641V15.9851C386.18 14.495 384.971 13.2871 383.48 13.2871Z" fill="#CDD1D9" stroke="#CDD1D9" stroke-width="3" stroke-miterlimit="10"/>
<path d="M370.476 28.0322H106.533V390.301H370.476V28.0322Z" fill="#FCFDFF" stroke="#CDD1D9" stroke-width="3" stroke-miterlimit="10"/>
<path d="M336.522 9.03081H298.089L299.974 6.52489C302.056 3.75767 299.878 0 296.193 0H180.784C177.102 0 174.924 3.75281 177.001 6.52003L178.885 9.03081H140.455C137.238 9.03081 134.631 11.4043 134.631 14.3307V34.5653H342.347V14.3307C342.347 11.4031 339.74 9.03081 336.524 9.03081H336.522Z" fill="#002462"/>
<path d="M337.942 50.4033H139.037V72.9955H337.942V50.4033Z" fill="#FFB632"/>
<path d="M352.681 85.2129H118.637V112.479H352.681V85.2129Z" fill="#FCFDFF" stroke="#CDD1D9" stroke-width="3" stroke-miterlimit="10"/>
<path d="M352.681 112.478H118.637V139.744H352.681V112.478Z" fill="#FCFDFF" stroke="#CDD1D9" stroke-width="3" stroke-miterlimit="10"/>
<path d="M352.681 139.739H118.637V167.005H352.681V139.739Z" fill="#FCFDFF" stroke="#CDD1D9" stroke-width="3" stroke-miterlimit="10"/>
<path d="M352.681 166.58H118.637V193.846H352.681V166.58Z" fill="#FCFDFF" stroke="#CDD1D9" stroke-width="3" stroke-miterlimit="10"/>
<path d="M352.681 193.845H118.637V221.111H352.681V193.845Z" fill="#FCFDFF" stroke="#CDD1D9" stroke-width="3" stroke-miterlimit="10"/>
<path d="M352.681 221.106H118.637V248.373H352.681V221.106Z" fill="#FCFDFF" stroke="#CDD1D9" stroke-width="3" stroke-miterlimit="10"/>
<path d="M352.681 248.372H118.637V275.638H352.681V248.372Z" fill="#FCFDFF" stroke="#CDD1D9" stroke-width="3" stroke-miterlimit="10"/>
<path d="M352.681 275.638H118.637V302.904H352.681V275.638Z" fill="#FCFDFF" stroke="#CDD1D9" stroke-width="3" stroke-miterlimit="10"/>
<path d="M177.501 85.2129H118.637V302.904H177.501V85.2129Z" stroke="#CDD1D9" stroke-width="3" stroke-miterlimit="10"/>
<path d="M320.725 85.2129H177.486V302.904H320.725V85.2129Z" stroke="#CDD1D9" stroke-width="3" stroke-miterlimit="10"/>
<path d="M170.68 92.5146H123.908V104.2H170.68V92.5146Z" fill="#CDD1D9"/>
<path d="M170.68 120.268H123.908V131.953H170.68V120.268Z" fill="#CDD1D9"/>
<path d="M170.68 146.86H123.908V158.545H170.68V146.86Z" fill="#CDD1D9"/>
<path d="M170.68 174.612H123.908V186.297H170.68V174.612Z" fill="#CDD1D9"/>
<path d="M170.68 202.25H123.908V213.935H170.68V202.25Z" fill="#CDD1D9"/>
<path d="M170.68 230.003H123.908V241.688H170.68V230.003Z" fill="#CDD1D9"/>
<path d="M170.68 256.595H123.908V268.28H170.68V256.595Z" fill="#CDD1D9"/>
<path d="M170.68 284.348H123.908V296.033H170.68V284.348Z" fill="#CDD1D9"/>
<path d="M312.443 92.5146H185.769V104.2H312.443V92.5146Z" fill="#CDD1D9"/>
<path d="M312.443 120.268H185.769V131.953H312.443V120.268Z" fill="#CDD1D9"/>
<path d="M312.443 146.86H185.769V158.545H312.443V146.86Z" fill="#CDD1D9"/>
<path d="M312.443 174.612H185.769V186.297H312.443V174.612Z" fill="#CDD1D9"/>
<path d="M312.443 202.25H185.769V213.935H312.443V202.25Z" fill="#CDD1D9"/>
<path d="M312.443 230.003H185.769V241.688H312.443V230.003Z" fill="#CDD1D9"/>
<path d="M312.443 256.595H185.769V268.28H312.443V256.595Z" fill="#CDD1D9"/>
<path d="M312.443 284.348H185.769V296.033H312.443V284.348Z" fill="#CDD1D9"/>
<path d="M352.681 313.805H118.637V319.263H352.681V313.805Z" fill="#CDD1D9"/>
<path d="M352.681 323.592H118.637V329.05H352.681V323.592Z" fill="#CDD1D9"/>
<path d="M298.473 333.396H118.637V338.854H298.473V333.396Z" fill="#CDD1D9"/>
<path d="M179.534 355.678H118.637V361.136H179.534V355.678Z" fill="#CDD1D9"/>
<path d="M235.66 365.464H118.637V370.922H235.66V365.464Z" fill="#CDD1D9"/>
<path d="M488.841 49.4502H363.115C361.209 49.4502 359.665 50.9938 359.665 52.898V95.9083C359.665 97.8124 361.209 99.356 363.115 99.356H488.841C490.746 99.356 492.291 97.8124 492.291 95.9083V52.898C492.291 50.9938 490.746 49.4502 488.841 49.4502Z" fill="#FFB632"/>
<path d="M398.392 88.9511H393.271V64.7669H384.103V60.0625H407.56V64.7669H398.392V88.9511Z" fill="white"/>
<path d="M437.748 88.9507H432.379L429.447 81.9762H415.779L412.805 88.9507H407.602L420.321 59.8555H425.028L437.747 88.9507H437.748ZM422.592 65.9222L417.637 77.4772H427.589L422.592 65.9222Z" fill="white"/>
<path d="M461.866 88.9511L454.268 78.0147L446.628 88.9511H440.806L451.336 74.2595L441.218 60.0625H447.206L454.392 70.4216L461.619 60.0625H467.442L457.365 74.1769L467.855 88.9511H461.867H461.866Z" fill="white"/>
<path d="M500.079 574.995L528.224 596.637C528.224 596.637 473.182 669.282 470.081 670.643C463.465 673.549 463 658.197 467.536 641.183C471.634 625.809 473.685 610.535 473.685 610.535" fill="#002462"/>
<path d="M338.135 634.87L338.533 670.357C338.533 670.357 248.758 671.86 245.77 670.267C239.393 666.87 249.784 657.231 265.967 650.267C280.589 643.973 293.866 636.134 293.866 636.134" fill="#002462"/>
<path d="M421.519 321.8L443.478 482.696C444.028 486.724 445.937 490.444 448.888 493.242L512.363 561.274L462.853 625.072L381.854 538.663C372.649 529.804 366.807 518.039 365.318 505.355C361.954 476.701 355.928 424.667 354.171 404.856L354.026 638.645L270.117 634.872C270.117 634.872 286.436 390.385 295.046 325.009C336.017 325.009 380.544 321.801 421.517 321.801L421.519 321.8Z" fill="#FFA502"/>
<path d="M318.211 161.783L342.79 265.761H348.594L361.042 157.224L339.983 166.016L318.211 161.783Z" fill="#FCFDFF"/>
<path d="M329.628 172.795L334.824 185.278L323.297 244.826L343.942 269.814L358.957 242.66L344.435 185.218L350.587 173.241L339.984 166.019L329.629 172.797L329.628 172.795Z" fill="#FFA502"/>
<path d="M356.657 151.922H354.671L343.942 265.933L319.272 156.467C267.842 134.674 243.147 250.096 231.595 250.5C216.96 251.01 200.491 239.312 185.773 256.866C177.511 266.72 181.196 286.087 184.136 292.443C197.71 321.79 260.843 333.01 288.372 295.83L287.656 357.526C323.275 373.377 344.584 335.794 344.584 335.794C344.584 335.794 370.774 381.756 429.638 355.958L425.437 320.007C533.232 292.452 449.941 114.628 356.657 151.923V151.922Z" fill="#002462"/>
<path d="M334.893 276.4C336.933 276.4 338.585 274.748 338.585 272.71C338.585 270.672 336.933 269.021 334.893 269.021C332.854 269.021 331.201 270.672 331.201 272.71C331.201 274.748 332.854 276.4 334.893 276.4Z" fill="#FCFDFF"/>
<path d="M334.893 315.524C336.933 315.524 338.585 313.872 338.585 311.834C338.585 309.796 336.933 308.145 334.893 308.145C332.854 308.145 331.201 309.796 331.201 311.834C331.201 313.872 332.854 315.524 334.893 315.524Z" fill="#FCFDFF"/>
<path d="M320.76 178.6L339.983 166.018L325.865 149.586L319.271 156.467L320.76 178.601V178.6Z" fill="#FCFDFF"/>
<path d="M356.905 177.545L339.983 166.018L352.66 149.586L361.19 156.494L356.906 177.545H356.905Z" fill="#FCFDFF"/>
<path d="M356.986 284.755C356.986 284.755 340.575 274.501 326.023 277.332C306.645 281.102 298.397 299.571 304.809 304.538C306.979 306.217 306.449 300.152 311.507 295.23C316.129 290.733 322.409 287.817 322.409 287.817C322.409 287.817 310.93 293.594 307.99 299.962C303.167 310.405 308.378 312.634 310.753 311.831C313.206 311.002 314.593 306.648 317.947 302.716C321.301 298.786 327.635 295.688 327.635 295.688C327.635 295.688 322.374 302.621 319.622 307.538C317.587 311.173 315.683 316.307 319.538 318.307C323.499 320.36 333.749 305.212 333.749 305.212C333.749 305.212 345.67 311.966 357.837 305.793" fill="#FFC7A0"/>
<path d="M178.905 240.251C173.256 240.251 168.665 245.099 168.665 251.118L179.732 317.531C179.732 323.551 184.322 328.462 189.97 328.462H190.033L330.82 329.227C333.281 329.227 335.334 327.176 335.334 324.716V321.538C335.334 319.078 333.281 317.089 330.82 317.089L312.07 316.323L301.259 251.118C301.258 245.1 296.668 240.251 291.02 240.251H178.904H178.905Z" fill="#1D283A"/>
<path d="M221.189 284.739C221.189 278.205 226.49 272.907 233.029 272.907C239.568 272.907 244.869 278.205 244.869 284.739C244.869 291.274 239.568 296.571 233.029 296.571C226.49 296.571 221.189 291.274 221.189 284.739Z" fill="#FCFDFF"/>
<path d="M174.949 275.597C174.949 275.597 158.333 273.561 158.354 266.672C158.354 260.442 170.637 264.809 170.637 264.809" fill="#FFC7A0"/>
<path d="M172.951 275.887C172.951 275.887 193.922 274.22 194.767 278.891C195.611 283.56 188.951 286.383 181.353 286.686C173.756 286.988 166.819 286.839 166.295 281.589C165.772 276.34 172.951 275.887 172.951 275.887Z" fill="#FFC7A0"/>
<path d="M173.892 287.332L180.095 287.441C180.095 287.441 194.34 286.473 195.023 289.263C196.105 293.7 189.87 296.694 182.589 297.312C175.309 297.931 168.637 298.089 167.83 293.082C167.023 288.075 173.892 287.332 173.892 287.332Z" fill="#FFC7A0"/>
<path d="M175.847 297.87L181.123 297.962C181.123 297.962 193.236 297.139 193.816 299.512C194.737 303.286 189.435 305.831 183.244 306.357C177.053 306.884 171.378 307.017 170.692 302.76C170.007 298.503 175.847 297.87 175.847 297.87Z" fill="#FFC7A0"/>
<path d="M315.592 131.416C307.6 120.088 310.308 104.431 321.643 96.4424C332.978 88.4543 348.646 91.162 356.64 102.488C364.633 113.816 361.924 129.474 350.588 137.463C339.253 145.451 323.585 142.744 315.592 131.417V131.416Z" fill="#FFC7A0"/>
<path d="M320.383 96.8862C320.383 96.8862 323.977 106.194 333.854 109.851C337.948 111.368 346.389 109.093 346.389 109.093C346.389 109.093 347.148 115.449 351.25 118.534C355.351 121.621 362.794 121.44 362.794 121.44C362.794 121.44 374.073 111.249 372.542 102.224C369.567 84.6811 353.524 90.2094 353.524 90.2094C353.524 90.2094 354.963 77.6761 341.82 75.5166C331.721 73.9695 327.945 81.9868 327.945 81.9868C327.945 81.9868 307.637 71.1403 298.687 87.4629C295.939 92.4747 296.258 101.126 303.698 104.534C308.095 106.549 314.98 104.291 314.98 104.291L320.382 96.8838L320.383 96.8862Z" fill="#002462"/>
</g>
<defs>
<clipPath id="clip0_6278_409733">
<rect width="566" height="671" fill="white"/>
</clipPath>
</defs>
</svg>
