<svg width="64" height="64" viewBox="0 0 64 64" fill="none" xmlns="http://www.w3.org/2000/svg">
<path d="M0 32C0 14.3269 14.3269 0 32 0C49.6731 0 64 14.3269 64 32C64 49.6731 49.6731 64 32 64C14.3269 64 0 49.6731 0 32Z" fill="#CDD1D9"/>
<g clip-path="url(#clip0_1_478)">
<path d="M26.0001 30.6667H22.1334C21.3867 30.6667 21.0133 30.6667 20.7281 30.812C20.4772 30.9398 20.2732 31.1438 20.1454 31.3947C20.0001 31.6799 20.0001 32.0533 20.0001 32.8V44M38.0001 30.6667H41.8667C42.6135 30.6667 42.9869 30.6667 43.2721 30.812C43.523 30.9398 43.7269 31.1438 43.8548 31.3947C44.0001 31.6799 44.0001 32.0533 44.0001 32.8V44M38.0001 44V24.2667C38.0001 22.7732 38.0001 22.0265 37.7094 21.456C37.4538 20.9543 37.0458 20.5463 36.5441 20.2906C35.9736 20 35.2269 20 33.7334 20H30.2667C28.7733 20 28.0265 20 27.4561 20.2906C26.9543 20.5463 26.5464 20.9543 26.2907 21.456C26.0001 22.0265 26.0001 22.7732 26.0001 24.2667V44M45.3334 44H18.6667M30.6667 25.3333H33.3334M30.6667 30.6667H33.3334M30.6667 36H33.3334" stroke="#A6AEBB" stroke-width="3.5" stroke-linecap="round" stroke-linejoin="round"/>
</g>
<defs>
<clipPath id="clip0_1_478">
<rect width="32" height="32" fill="white" transform="translate(16 16)"/>
</clipPath>
</defs>
</svg>
