<svg width="446" height="545" viewBox="0 0 446 545" fill="none" xmlns="http://www.w3.org/2000/svg">
<g clip-path="url(#clip0_6278_409505)">
<path d="M185.632 139.691L220.201 150.574L266.759 128.179L306.15 542.769L174.544 540.292L185.634 139.691H185.632Z" fill="#FFD892"/>
<path d="M306.765 380.654H168.051V402.346H306.765V380.654Z" fill="white"/>
<path d="M211.767 199.894L185.632 139.69C185.632 139.69 111.885 164.537 67.1764 237.57C22.4677 310.603 37.876 426.425 74.517 436.639C111.157 446.851 127.472 421.846 127.472 421.846L103.094 542.134H194.013L196.74 205.468C196.74 205.468 204.105 215.046 206.429 217.659C208.752 220.272 211.606 220.437 214.038 218.439C216.472 216.439 250.015 188.904 250.015 188.904L251.754 295.036H239.025L218.95 425.756L258.031 429.164L266.335 545H412.285L387.917 429.164C387.917 429.164 421.376 418.4 436.835 392.029C452.294 365.66 449.779 280.462 417.041 224.086C384.306 167.71 373.35 165.669 350.687 150.575C328.025 135.479 266.758 128.18 266.758 128.18L211.767 199.895V199.894Z" fill="#002462"/>
<path d="M244.691 193.322L293.032 150.573L311.551 297.596L249.26 295.191L245.948 221.358L244.691 193.322Z" fill="#FFA502"/>
<g opacity="0.2">
<path d="M303.836 297.298L306.765 297.411V259.591L303.836 236.342V297.298Z" fill="white"/>
<path d="M288.313 154.746L285.384 157.336V296.585L288.313 296.698V154.746Z" fill="white"/>
<path d="M266.932 295.872L269.861 295.985V171.063L266.932 173.654V295.872Z" fill="white"/>
</g>
<path d="M258.031 429.163V501.059L336.956 500.698L325.263 431.368L258.032 429.163H258.031Z" fill="#FFA502"/>
<g opacity="0.2">
<path d="M325.218 431.366L322.29 431.271V500.765L325.218 500.752V431.366Z" fill="white"/>
<path d="M306.765 430.762L303.836 430.666V500.851L306.765 500.836V430.762Z" fill="white"/>
<path d="M288.313 430.157L285.384 430.06V500.934L288.313 500.92V430.157Z" fill="white"/>
<path d="M266.932 501.019L269.861 501.006V429.551L266.932 429.455V501.019Z" fill="white"/>
</g>
<path d="M201.761 211.845L196.3 491.338H133.164L171.251 169.527L201.761 211.845Z" fill="#FFA502"/>
<g opacity="0.2">
<path d="M185.04 491.338H187.968V192.715L185.04 188.653V491.338Z" fill="white"/>
<path d="M169.515 184.189L166.586 208.933V491.338H169.515V184.189Z" fill="white"/>
<path d="M148.135 491.338H151.063V340.101L148.135 364.846V491.338Z" fill="white"/>
</g>
<path d="M132.337 509.961C132.312 509.961 132.287 509.96 132.262 509.956C131.93 509.915 131.693 509.612 131.735 509.28L134.176 489.626C134.217 489.294 134.519 489.057 134.852 489.098C135.184 489.14 135.421 489.443 135.379 489.775L132.938 509.429C132.901 509.736 132.639 509.96 132.337 509.96V509.961Z" fill="#FFA502"/>
<path d="M146.819 510.113C146.485 510.113 146.213 509.841 146.213 509.507V489.701C146.213 489.366 146.485 489.095 146.819 489.095C147.154 489.095 147.425 489.366 147.425 489.701V509.507C147.425 509.841 147.154 510.113 146.819 510.113Z" fill="#FFA502"/>
<path d="M158.825 510.113C158.491 510.113 158.219 509.841 158.219 509.507V489.701C158.219 489.366 158.491 489.095 158.825 489.095C159.16 489.095 159.431 489.366 159.431 489.701V509.507C159.431 509.841 159.16 510.113 158.825 510.113Z" fill="#FFA502"/>
<path d="M170.829 510.113C170.494 510.113 170.223 509.841 170.223 509.507V489.701C170.223 489.366 170.494 489.095 170.829 489.095C171.163 489.095 171.435 489.366 171.435 489.701V509.507C171.435 509.841 171.163 510.113 170.829 510.113Z" fill="#FFA502"/>
<path d="M194.84 510.113C194.505 510.113 194.234 509.841 194.234 509.507V489.701C194.234 489.366 194.505 489.095 194.84 489.095C195.174 489.095 195.446 489.366 195.446 489.701V509.507C195.446 509.841 195.174 510.113 194.84 510.113Z" fill="#FFA502"/>
<path d="M182.834 510.113C182.499 510.113 182.228 509.841 182.228 509.507V489.701C182.228 489.366 182.499 489.095 182.834 489.095C183.168 489.095 183.44 489.366 183.44 489.701V509.507C183.44 509.841 183.168 510.113 182.834 510.113Z" fill="#FFA502"/>
<path d="M272.075 520.016C271.741 520.016 271.469 519.745 271.469 519.41V499.604C271.469 499.27 271.741 498.998 272.075 498.998C272.41 498.998 272.681 499.27 272.681 499.604V519.41C272.681 519.745 272.41 520.016 272.075 520.016Z" fill="#FFA502"/>
<path d="M259.451 519.865C259.117 519.865 258.845 519.593 258.845 519.259V499.453C258.845 499.118 259.117 498.847 259.451 498.847C259.786 498.847 260.057 499.118 260.057 499.453V519.259C260.057 519.593 259.786 519.865 259.451 519.865Z" fill="#FFA502"/>
<path d="M284.701 520.016C284.366 520.016 284.095 519.745 284.095 519.41V499.604C284.095 499.27 284.366 498.998 284.701 498.998C285.035 498.998 285.307 499.27 285.307 499.604V519.41C285.307 519.745 285.035 520.016 284.701 520.016Z" fill="#FFA502"/>
<path d="M297.326 520.016C296.991 520.016 296.72 519.745 296.72 519.41V499.604C296.72 499.27 296.991 498.998 297.326 498.998C297.66 498.998 297.932 499.27 297.932 499.604V519.41C297.932 519.745 297.66 520.016 297.326 520.016Z" fill="#FFA502"/>
<path d="M309.951 520.016C309.617 520.016 309.345 519.745 309.345 519.41V499.604C309.345 499.27 309.617 498.998 309.951 498.998C310.286 498.998 310.557 499.27 310.557 499.604V519.41C310.557 519.745 310.286 520.016 309.951 520.016Z" fill="#FFA502"/>
<path d="M338.704 519.553C338.416 519.553 338.161 519.347 338.108 519.054L334.611 499.559C334.551 499.23 334.771 498.915 335.1 498.856C335.43 498.797 335.745 499.016 335.803 499.346L339.3 518.841C339.36 519.17 339.14 519.485 338.811 519.543C338.774 519.55 338.738 519.553 338.703 519.553H338.704Z" fill="#FFA502"/>
<path d="M323.753 519.865C323.435 519.865 323.168 519.618 323.148 519.296L321.941 499.527C321.92 499.193 322.175 498.905 322.509 498.886C322.842 498.864 323.131 499.12 323.15 499.455L324.358 519.223C324.378 519.557 324.124 519.845 323.789 519.864C323.777 519.864 323.764 519.864 323.752 519.864L323.753 519.865Z" fill="#FFA502"/>
<path d="M74.5171 185.7C74.5171 185.7 105.398 242.024 120.875 274.944C136.352 307.861 154.135 378.567 154.135 378.567C154.135 378.567 169.504 383.676 185.633 377.904C201.76 372.131 207.274 355.335 207.274 355.335C207.274 355.335 179.796 302.896 170.904 278.855C162.012 254.814 130.29 158.715 130.29 158.715C130.29 158.715 112.871 151.433 93.8757 161.725C74.8819 172.019 74.5171 185.698 74.5171 185.698V185.7Z" fill="#FFD892"/>
<path d="M88.2272 189.451C84.5545 189.451 81.3497 188.334 78.3315 185.343C78.117 185.131 78.1157 184.785 78.3279 184.572C78.54 184.358 78.8854 184.356 79.0988 184.569C81.3036 186.754 83.6478 187.927 86.4781 188.259C88.906 188.545 91.7605 188.218 95.7314 187.201C99.7253 186.178 107.992 182.621 114.913 178.437C123.353 173.335 127.588 168.693 126.839 165.366C126.34 163.149 124.181 161.843 120.421 161.48C116.578 161.111 112.394 161.884 111.203 162.13C100.135 164.417 92.1084 168.37 86.6623 174.212C84.7108 176.306 83.9448 177.903 84.5048 178.712C85.1096 179.585 87.329 179.878 90.4417 179.497C93.232 179.157 96.6113 178.287 99.0525 177.281C104.553 175.014 111.484 170.042 111.553 169.993C111.798 169.817 112.138 169.871 112.314 170.116C112.49 170.361 112.435 170.702 112.191 170.877C111.903 171.085 105.089 175.973 99.4683 178.289C94.8392 180.197 85.5787 182.178 83.609 179.334C82.6878 178.004 83.426 176.087 85.866 173.469C91.4708 167.456 99.6877 163.397 110.983 161.062C112.212 160.808 116.532 160.009 120.528 160.394C124.749 160.802 127.301 162.438 127.906 165.127C129.009 170.026 121.757 175.578 115.479 179.371C108.472 183.606 100.074 187.216 96.0029 188.259C93.1665 188.985 90.5993 189.452 88.2272 189.452V189.451Z" fill="white"/>
<path d="M154.368 224.085C154.368 224.085 129.737 221.639 115.822 224.085C101.908 226.531 94.5338 232.9 74.517 234.812C54.5014 236.723 49.4626 233.248 35.7585 232.569C24.4289 232.009 16.7453 233.261 9.4072 236.409C4.08239 238.693 0 242.765 0 242.765L18.9029 239.805C18.9029 239.805 15.5453 242.142 12.1114 245.527C8.6775 248.914 7.47873 252.257 7.47873 252.257C7.47873 252.257 24.8265 243.824 37.4215 243.599C50.0154 243.375 62.5219 248.761 74.6661 246.738C86.8102 244.714 105.522 235.695 118.929 233.082C132.337 230.469 156.796 231.688 156.796 231.688L154.37 224.084L154.368 224.085Z" fill="#FFA502"/>
<path d="M134.368 320.141C134.368 320.141 116.88 322.577 103.651 313.753C90.4224 304.928 86.6842 287.524 89.7751 274.943C97.5557 243.263 140.435 229.264 139.601 242.603C139.346 246.7 132.654 249.324 124.745 254.151C116.507 259.177 111.649 265.264 111.649 265.264C111.649 265.264 125.802 252.662 136.3 252.438C153.51 252.072 151.819 263.962 151.819 263.962C151.819 263.962 142.393 266.043 134.995 268.291C127.598 270.54 118.372 277.058 118.372 277.058C118.372 277.058 130.06 269.591 138.262 267.64C146.573 265.662 152.697 262.543 152.993 269.484C153.399 279.037 124.771 292.815 124.771 292.815" fill="#FFC7A0"/>
<path d="M186.856 314.89C186.856 314.89 178.774 318.056 167.873 317.274C156.97 316.494 138.603 308.419 137.138 315.729C135.673 323.04 140.872 327.057 153.075 329.981C165.28 332.907 179.001 331.583 179.001 331.583C179.001 331.583 159.112 332.706 151.582 330.353C144.051 327.999 134.011 323.607 133.227 329.882C132.443 336.157 138.932 341.744 148.816 344.254C158.698 346.766 171.528 347.608 171.528 347.608C171.528 347.608 160.644 347.246 149.779 344.611C138.915 341.976 139.015 338.102 137.286 343.412C135.559 348.722 141.097 356.003 163.736 362.343C186.377 368.684 229.375 359.261 229.375 359.261L236.051 315.868C236.051 315.868 217.735 297.744 207.274 294.108C199.615 291.445 174.754 288.223 174.754 288.223L186.854 314.89H186.856Z" fill="#FFC7A0"/>
<path d="M168.807 42.1359C168.517 41.9686 168.146 42.068 167.979 42.3589C167.948 42.4134 164.772 47.8822 159.431 53.466C156.307 56.7337 153.063 59.4002 149.79 61.394C145.726 63.8702 141.606 65.3053 137.546 65.6592C129.463 66.3658 123.358 68.8517 118.881 73.2587C115.537 76.5518 113.752 80.331 112.478 83.3453C112.477 83.349 112.474 83.3514 112.472 83.355L112.044 84.2337L99.7398 90.8309C99.4452 90.9885 99.3337 91.3569 99.4925 91.6515C99.6016 91.8551 99.8113 91.9714 100.027 91.9714C100.124 91.9714 100.222 91.9484 100.313 91.8999L111.14 86.0942L106.232 96.1857C106.085 96.4863 106.211 96.8487 106.512 96.9954C106.597 97.0366 106.688 97.056 106.776 97.056C107 97.056 107.216 96.9299 107.322 96.7154L112.003 87.0905L112.589 99.1443C112.605 99.4679 112.873 99.7212 113.194 99.7212C113.204 99.7212 113.214 99.7212 113.225 99.7212C113.559 99.7055 113.816 99.4207 113.8 99.0861L113.113 84.9719L113.145 84.8967C114.412 81.84 116.148 77.6536 119.732 74.1241C124 69.9232 129.861 67.55 137.651 66.8688C141.903 66.4979 146.205 65.0011 150.434 62.423C153.799 60.3723 157.127 57.6343 160.326 54.2854C165.761 48.5973 168.997 43.0207 169.029 42.9649C169.196 42.6752 169.096 42.3043 168.806 42.1371L168.807 42.1359Z" fill="#002462"/>
<path d="M261.472 90.9429C266.067 73.2725 255.466 55.2215 237.793 50.6267C220.123 46.0318 202.071 56.6324 197.477 74.3039C192.882 91.9755 203.483 110.024 221.153 114.619C238.826 119.215 256.877 108.614 261.472 90.9429Z" fill="#FFC7A0"/>
<path d="M184.523 71.8511C184.523 71.8511 196.758 65.1388 215.529 60.1076C234.299 55.0777 258.686 57.2278 258.686 57.2278L256.661 39.7429L296.296 20.6375L234.797 0L146.5 39.9017L183.453 54.9019L184.523 71.8511Z" fill="#002462"/>
<path d="M277.306 110.487C272.486 111.263 268.393 110.999 265.058 110.305C262.781 113.458 259.1 115.504 254.941 115.504C251.277 115.504 247.976 113.92 245.731 111.411C252.911 107.35 258.572 100.633 261.131 92.1828C261.263 92.2652 261.412 92.3476 261.543 92.43C261.626 92.0834 261.708 91.7198 261.775 91.3404C261.972 90.1356 262.104 88.8981 262.171 87.6267C262.485 82.5264 261.857 77.1304 261.363 73.9112C261.38 73.8785 261.363 73.8615 261.346 73.8288C261.081 72.0798 260.85 70.9902 260.85 70.9902C260.85 70.9902 260.702 70.9732 260.421 70.9575C258.391 70.7757 249.411 69.8678 242.299 67.3432C234.211 64.4718 226.982 59.6685 226.982 59.6685C226.982 59.6685 212.689 78.5497 196.415 83.3518C196.118 83.4512 195.821 83.5336 195.524 83.616C195.128 88.8472 199.568 96.8855 200.112 97.826C200.129 97.8588 200.145 97.8915 200.162 97.9254C200.162 97.9254 200.162 98.0406 200.145 98.2224C200.21 98.2393 200.294 98.2551 200.359 98.2878C202.67 102.578 205.905 106.342 209.9 109.263C209.933 109.642 209.95 110.022 209.95 110.402C209.95 117.301 204.37 122.896 197.472 122.896C193.791 122.896 190.49 121.295 188.196 118.753C181.494 121.873 172.235 123.342 165.22 114.809C157.959 105.962 160.88 94.459 165.303 86.9176C169.726 79.3921 184.911 71.5029 184.911 71.5029C184.911 71.5029 187.304 55.4942 205.807 46.5821C210.428 44.3374 214.884 42.7363 219.11 41.5981C231.736 38.1814 244.907 44.8004 249.546 47.1275C254.183 49.4716 264.731 61.9484 266.546 71.1575C269.846 71.2568 284.156 72.6761 289.504 83.2549C295.381 94.8577 291.65 108.177 277.307 110.487H277.306Z" fill="#FFA502"/>
<path d="M226.489 57.9728C228.388 69.2594 259.365 74.3911 269.862 71.4689C292.171 65.2572 271.293 38.082 258.685 57.2274C240.383 37.8662 226.488 57.9728 226.488 57.9728H226.489Z" fill="#FFA502"/>
</g>
<defs>
<clipPath id="clip0_6278_409505">
<rect width="446" height="545" fill="white"/>
</clipPath>
</defs>
</svg>
