<svg width="160" height="160" viewBox="0 0 160 160" fill="none" xmlns="http://www.w3.org/2000/svg">
<path d="M139.264 -4H19.7364C6.62714 -4 -4 6.62714 -4 19.7364V139.264C-4 152.373 6.62714 163 19.7364 163H139.264C152.373 163 163 152.373 163 139.264V19.7364C163 6.62714 152.373 -4 139.264 -4Z" fill="#96BCFF"/>
<g style="mix-blend-mode:multiply">
<path d="M155.134 150.477L169.5 118L147.5 72H10L46.5 172.327H133.339C145.37 172.327 155.124 162.544 155.124 150.477H155.134Z" fill="#CCCCCC"/>
</g>
<g clip-path="url(#clip0_6641_13993)">
<path d="M110.037 108.005C113.187 108.005 115.742 106.02 115.742 103.57C115.742 101.121 113.187 99.1357 110.037 99.1357C106.886 99.1357 104.332 101.121 104.332 103.57C104.332 106.02 106.886 108.005 110.037 108.005Z" fill="#1B2424"/>
<path d="M47.9565 108.005C51.1073 108.005 53.6615 106.02 53.6615 103.57C53.6615 101.121 51.1073 99.1357 47.9565 99.1357C44.8057 99.1357 42.2515 101.121 42.2515 103.57C42.2515 106.02 44.8057 108.005 47.9565 108.005Z" fill="#283636"/>
<path d="M44.6948 79.3897V107.095C44.6948 113.804 56.8122 104.86 79 104.86V74.2373L44.6948 79.3897Z" fill="#2C3B3B"/>
<path d="M113.298 79.3897V107.095C113.298 113.804 101.181 104.86 78.9929 104.86V74.2373L113.298 79.3897Z" fill="#283636"/>
<path d="M42.2441 103.4V115.236C42.2441 122.421 55.2296 112.841 78.9964 112.841V101.005C55.226 101.005 42.2441 110.588 42.2441 103.4Z" fill="#486161"/>
<path d="M115.749 103.4V115.236C115.749 122.421 102.763 112.841 78.9963 112.841V101.005C102.767 101.005 115.749 110.588 115.749 103.4Z" fill="#486161"/>
<path d="M78.9963 101.005V111.754C102.767 111.754 115.749 121.337 115.749 114.149V103.4C115.749 110.585 102.763 101.005 78.9963 101.005Z" fill="#425959"/>
<path d="M9.21434 68.5625L9 68.6158V71.8138L79 89.2715V68.5625H9.21434Z" fill="#405454"/>
<path d="M79 68.5625V89.2715L149 71.8138V68.6158L148.786 68.5625H79Z" fill="#344545"/>
<path d="M79 86.3368L9 68.879V68.1684L79 50V86.3368Z" fill="#4D6565"/>
<path d="M79 86.3368L149 68.879V68.1684L79 50V86.3368Z" fill="#405454"/>
<path d="M82.7366 65.0738C82.7366 65.7028 81.0683 66.2109 79.0106 66.2109C76.9529 66.2109 75.2847 65.7028 75.2847 65.0738C75.2847 64.4449 76.9529 62.5723 79.0106 62.5723C81.0683 62.5723 82.7366 64.4449 82.7366 65.0738Z" fill="#577373"/>
<path d="M79.0107 62.5752C79.0107 62.5752 79.0107 62.5752 79.0071 62.5752V65.6879C79.0071 65.6879 79.0071 65.6879 79.0107 65.6879C80.8147 65.6879 82.3115 65.2971 82.658 64.7747C82.3008 63.993 80.804 62.5752 79.0107 62.5752Z" fill="#4D6565"/>
<path d="M149 68.168L78.832 85.2881L78.9999 86.3363L149 68.8786V68.168Z" fill="#4D6565"/>
<path d="M104.792 120.826C104.139 116.825 102.963 113.666 101.517 112.067C101.713 111.715 101.824 111.31 101.824 110.88C101.824 109.693 100.977 108.702 99.8483 108.474V85.921C99.8483 82.7833 99.0767 81.8559 96.8475 79.6386L85.9626 68.8115C82.1616 65.0307 82.1616 64.0145 82.1616 62.1738C82.1616 60.8342 81.2007 60.2266 80.3112 60.2266C79.4217 60.2266 78.4607 60.8626 78.4607 61.9286V63.1581C78.4607 63.453 78.7 63.6911 78.9965 63.6911C79.293 63.6911 79.5324 63.453 79.5324 63.1581V61.9286C79.5324 61.4667 80.0111 61.2926 80.3112 61.2926C80.5469 61.2926 81.0899 61.3779 81.0899 62.1738C81.0899 64.4018 81.265 65.6455 85.2053 69.5648L96.0902 80.3919C98.2193 82.5097 98.7766 83.1778 98.7766 85.921V108.496C97.6942 108.755 96.8904 109.721 96.8904 110.876C96.8904 111.306 97.0047 111.711 97.1976 112.063C95.7508 113.662 94.5719 116.821 93.9218 120.822C93.3288 124.454 95.0756 127.996 97.4548 127.996H101.256C103.635 127.996 105.382 124.454 104.789 120.822L104.792 120.826Z" fill="#FFBD54"/>
<path d="M97.4582 128H101.259C103.638 128 105.385 124.457 104.792 120.826C104.139 116.825 102.963 113.666 101.516 112.067C101.713 111.715 101.824 111.31 101.824 110.88C101.824 109.693 100.977 108.702 99.8481 108.474V85.9211C99.8481 84.0769 99.5766 82.9967 98.905 81.9697C98.5514 81.9982 98.212 82.1616 97.9619 82.4779C98.5764 83.3875 98.7764 84.283 98.7764 85.9211V108.496C97.694 108.755 96.8902 109.722 96.8902 110.876C96.8902 111.306 97.0046 111.711 97.1975 112.063C95.7507 113.662 94.5718 116.821 93.9216 120.822C93.3286 124.454 95.0755 127.997 97.4547 127.997L97.4582 128Z" fill="#E6A745"/>
</g>
<defs>
<clipPath id="clip0_6641_13993">
<rect width="140" height="78" fill="white" transform="translate(9 50)"/>
</clipPath>
</defs>
</svg>
