<svg width="123" height="135" viewBox="0 0 123 135" fill="none" xmlns="http://www.w3.org/2000/svg">
<path d="M111.29 31.3699H19.6159C14.1623 31.3699 9.74121 35.7909 9.74121 41.2446V99.3176C9.74121 107.602 16.4569 114.318 24.7412 114.318H102.709C110.472 114.318 116.952 108.395 117.649 100.663L122.759 43.9182C122.917 42.1594 122.669 40.3877 122.033 38.7402C120.32 34.299 116.05 31.3699 111.29 31.3699Z" fill="#CDD1D9"/>
<path d="M50.6901 36.4161H41.538C39.3873 36.4161 37.9352 34.2196 38.7778 32.2408L51.3035 2.82336C51.963 1.2745 53.7675 0.571357 55.3011 1.26571L113.782 27.7443C115.305 28.434 115.97 30.236 115.261 31.7502L107.247 48.8509C106.754 49.9047 105.695 50.5779 104.531 50.5779H61.7368C60.6207 50.5779 59.5969 49.9583 59.0792 48.9696L53.3478 38.0244C52.8301 37.0357 51.8062 36.4161 50.6901 36.4161Z" fill="#FCFDFF"/>
<path d="M50.6901 36.4161H41.538C39.3873 36.4161 37.9352 34.2196 38.7778 32.2408L51.3035 2.82336C51.963 1.2745 53.7675 0.571357 55.3011 1.26571L113.782 27.7443C115.305 28.434 115.97 30.236 115.261 31.7502L107.247 48.8509C106.754 49.9047 105.695 50.5779 104.531 50.5779H61.7368C60.6207 50.5779 59.5969 49.9583 59.0792 48.9696L53.3478 38.0244C52.8301 37.0357 51.8062 36.4161 50.6901 36.4161Z" fill="#002462" fill-opacity="0.1"/>
<path d="M46.8525 36.5L47.29 36.5146C49.465 36.661 51.4345 37.8918 52.5146 39.8076L58.0234 49.5781L58.1455 49.7803C58.7893 50.7617 59.8881 51.3594 61.0723 51.3594H109C112.59 51.3594 115.5 54.2696 115.5 57.8594V110C115.5 113.59 112.59 116.5 109 116.5H8C4.41015 116.5 1.5 113.59 1.5 110V43C1.5 39.4101 4.41015 36.5 8 36.5H46.8525Z" fill="#CDD1D9" stroke="#F4F5F7" stroke-width="3"/>
<ellipse cx="93.2917" cy="28.9979" rx="1.34831" ry="1.34874" fill="#C1C9D5"/>
<ellipse cx="69.696" cy="19.5568" rx="1.34831" ry="1.34874" fill="#C1C9D5"/>
<path d="M60.7211 34.331C63.1688 32.4147 66.0986 31.2128 69.1865 30.8582C72.2745 30.5037 75.4003 31.0102 78.2185 32.3219C81.0366 33.6335 83.4372 35.6992 85.155 38.2905C86.8727 40.8818 87.8406 43.8978 87.9517 47.005L87.1101 47.0351C87.0045 44.0831 86.085 41.2179 84.4531 38.756C82.8212 36.2942 80.5405 34.3318 77.8632 33.0857C75.1859 31.8396 72.2162 31.3583 69.2826 31.6952C66.3489 32.032 63.5655 33.1738 61.2401 34.9944L60.7211 34.331Z" fill="#C1C9D5"/>
<path d="M56.5957 64.5538C71.9628 64.5539 84.4208 77.0155 84.4209 92.3887C84.4209 107.762 71.9629 120.224 56.5957 120.224C41.2284 120.224 28.7695 107.762 28.7695 92.3887C28.7696 77.0154 41.2284 64.5538 56.5957 64.5538Z" fill="#CDD1D9" stroke="#A6AEBB" stroke-width="3"/>
<path d="M77.1572 112.957L87.2696 123.073" stroke="#A6AEBB" stroke-width="3"/>
<path d="M82.772 122.389C81.7189 121.335 81.7189 119.627 82.772 118.574C83.8251 117.52 85.5325 117.52 86.5856 118.574L97.0731 129.064C98.1262 130.118 98.1262 131.826 97.0731 132.879C96.02 133.933 94.3126 133.933 93.2595 132.879L82.772 122.389Z" fill="#002462"/>
</svg>
