<svg width="120" height="135" viewBox="0 0 120 135" fill="none" xmlns="http://www.w3.org/2000/svg">
<g id="EMPTY">
<g id="Vector 1424">
<path d="M108.29 31.3701H16.6159C11.1623 31.3701 6.74121 35.7912 6.74121 41.2448V99.3178C6.74121 107.602 13.4569 114.318 21.7412 114.318H99.709C107.472 114.318 113.952 108.395 114.649 100.663L119.759 43.9184C119.917 42.1596 119.669 40.388 119.033 38.7404C117.32 34.2992 113.05 31.3701 108.29 31.3701Z" fill="#C1C9D5"/>
<path d="M108.29 31.3701H16.6159C11.1623 31.3701 6.74121 35.7912 6.74121 41.2448V99.3178C6.74121 107.602 13.4569 114.318 21.7412 114.318H99.709C107.472 114.318 113.952 108.395 114.649 100.663L119.759 43.9184C119.917 42.1596 119.669 40.388 119.033 38.7404C117.32 34.2992 113.05 31.3701 108.29 31.3701Z" fill="#FFA502" fill-opacity="0.1"/>
</g>
<path id="Vector 1422" d="M0 110V43C0 40.2386 2.23858 38 5 38H43.8526C45.6572 38 47.3218 38.9725 48.2081 40.5445L53.7164 50.3151C54.6027 51.8872 56.2673 52.8596 58.072 52.8596H106C108.761 52.8596 111 55.0982 111 57.8596V110C111 112.761 108.761 115 106 115H5C2.23858 115 0 112.761 0 110Z" fill="#FFD892"/>
<g id="Vector 1423">
<path d="M47.6901 36.4161H38.538C36.3873 36.4161 34.9352 34.2196 35.7778 32.2408L48.3035 2.82336C48.963 1.2745 50.7675 0.571357 52.3011 1.26571L110.782 27.7443C112.305 28.434 112.97 30.236 112.261 31.7502L104.247 48.8509C103.754 49.9047 102.695 50.5779 101.531 50.5779H58.7368C57.6207 50.5779 56.5969 49.9583 56.0792 48.9696L50.3478 38.0244C49.8301 37.0357 48.8062 36.4161 47.6901 36.4161Z" fill="#FCFDFF"/>
<path d="M47.6901 36.4161H38.538C36.3873 36.4161 34.9352 34.2196 35.7778 32.2408L48.3035 2.82336C48.963 1.2745 50.7675 0.571357 52.3011 1.26571L110.782 27.7443C112.305 28.434 112.97 30.236 112.261 31.7502L104.247 48.8509C103.754 49.9047 102.695 50.5779 101.531 50.5779H58.7368C57.6207 50.5779 56.5969 49.9583 56.0792 48.9696L50.3478 38.0244C49.8301 37.0357 48.8062 36.4161 47.6901 36.4161Z" fill="#002462" fill-opacity="0.1"/>
</g>
<ellipse id="Ellipse 637" cx="90.2917" cy="28.9982" rx="1.34831" ry="1.34874" fill="#C1C9D5"/>
<ellipse id="Ellipse 638" cx="66.696" cy="19.5568" rx="1.34831" ry="1.34874" fill="#C1C9D5"/>
<path id="Ellipse 639" d="M57.7211 34.331C60.1688 32.4147 63.0986 31.2128 66.1865 30.8582C69.2745 30.5037 72.4003 31.0102 75.2185 32.3219C78.0366 33.6335 80.4372 35.6992 82.155 38.2905C83.8727 40.8818 84.8406 43.8978 84.9517 47.005L84.1101 47.0351C84.0045 44.0831 83.085 41.2179 81.4531 38.756C79.8212 36.2942 77.5405 34.3318 74.8632 33.0857C72.1859 31.8396 69.2162 31.3583 66.2826 31.6952C63.3489 32.032 60.5655 33.1738 58.2401 34.9944L57.7211 34.331Z" fill="#C1C9D5"/>
<path id="Ellipse 640" d="M81.4212 92.3889C81.4212 107.762 68.9627 120.224 53.5954 120.224C38.228 120.224 25.7695 107.762 25.7695 92.3889C25.7695 77.0155 38.228 64.5537 53.5954 64.5537C68.9627 64.5537 81.4212 77.0155 81.4212 92.3889Z" fill="white" stroke="#C1C9D5" stroke-width="3"/>
<path id="Vector 1425" d="M74.1572 112.958L84.2696 123.073" stroke="#C1C9D5" stroke-width="3"/>
<path id="Rectangle 663" d="M79.772 122.388C78.7189 121.335 78.7189 119.627 79.772 118.574C80.8251 117.52 82.5325 117.52 83.5856 118.574L94.0731 129.064C95.1262 130.118 95.1262 131.826 94.0731 132.879C93.02 133.933 91.3126 133.933 90.2595 132.879L79.772 122.388Z" fill="#CDD1D9"/>
</g>
</svg>
