<svg width="737" height="702" viewBox="0 0 737 702" fill="none" xmlns="http://www.w3.org/2000/svg">
<g clip-path="url(#clip0_824_132036)">
<path d="M647.98 418.369C654.007 399.202 643.351 378.768 624.18 372.729C605.009 366.691 584.582 377.334 578.556 396.502C572.529 415.67 583.185 436.104 602.356 442.142C621.527 448.181 641.954 437.537 647.98 418.369Z" fill="#CDD1D9"/>
<path d="M165.195 269.922C179.671 255.991 180.106 232.956 166.166 218.472C152.227 203.987 129.192 203.538 114.716 217.469C100.241 231.4 99.806 254.435 113.745 268.92C127.685 283.404 150.72 283.853 165.195 269.922Z" fill="#CDD1D9"/>
<path d="M202.276 493.581C197.364 486.554 187.687 484.836 180.663 489.745C173.639 494.653 171.927 504.329 176.84 511.356C181.752 518.383 191.429 520.101 198.453 515.193C205.477 510.284 207.189 500.608 202.276 493.581Z" fill="#CDD1D9"/>
<path d="M642.822 90.9128C648.996 84.9709 649.181 75.1457 643.236 68.9676C637.29 62.7895 627.465 62.5981 621.291 68.54C615.117 74.482 614.931 84.3071 620.877 90.4852C626.822 96.6633 636.647 96.8547 642.822 90.9128Z" fill="#CDD1D9"/>
<path d="M196.311 497.021L198.321 499.209L324.624 383.188L322.614 381L196.311 497.021Z" fill="#CDD1D9"/>
<path d="M367.738 338.555L366.955 341.419L612.879 408.854L613.663 405.989L367.738 338.555Z" fill="#CDD1D9"/>
<path d="M153.321 243.55L152.272 246.328L333.389 314.775L334.438 311.996L153.321 243.55Z" fill="#CDD1D9"/>
<path d="M631.026 78.6559L392.95 307.772L395.01 309.913L633.086 80.7968L631.026 78.6559Z" fill="#CDD1D9"/>
</g>
<g clip-path="url(#clip1_824_132036)">
<path d="M518.923 221.874C512.731 239.803 487.253 328.119 470.243 333.075C442.525 341.146 421.382 338.541 399.309 339.088C386.834 339.397 367.475 279.397 378.767 279.087C396.76 278.577 437.626 281.729 444.146 281.419C450.666 281.11 474.978 230.821 497.925 208.974C518.595 189.278 523.294 209.247 518.923 221.874Z" fill="#FED7D7"/>
<path d="M406.448 337.485C405.428 337.867 391.023 343.352 382.3 344.937C375.798 346.121 356.967 349.018 354.946 341.985C353.562 337.193 364.434 334.168 372.083 331.873C376.108 330.67 381.28 327.117 380.406 324.511C378.858 319.975 368.477 323.309 361.557 326.425C348.171 332.474 329.978 343.953 322.93 336.756C320.271 334.023 324.114 329.959 329.504 326.151C320.945 330.36 311.948 333.622 308.871 330.706C307.104 329.048 307.213 327.026 308.525 324.858C305.957 325.404 303.79 325.022 302.424 323.254C300.093 320.248 301.786 316.349 305.064 312.486C304.154 312.304 303.389 311.739 302.843 310.682C298.18 301.663 328.375 280.272 338.191 278.996C367.075 275.188 396.632 279.507 396.632 279.507C406.794 289.491 406.485 337.466 406.466 337.485H406.448Z" fill="#FED7D7"/>
<path d="M367.675 307.256C360.937 307.62 354.144 309.424 348.134 312.558C340.504 316.548 335.186 321.577 328.63 326.515C328.466 326.642 328.648 326.916 328.83 326.788C331.963 324.438 344.82 315.71 348.116 313.779C354.144 310.207 360.7 307.948 367.712 307.365C367.785 307.365 367.766 307.237 367.712 307.256H367.675Z" fill="#002462"/>
<path d="M363.651 294.756C356.039 296.014 348.226 297.289 340.996 300.077C333.074 303.138 326.536 308.786 320.144 314.216C316.301 317.478 312.513 320.812 308.816 324.237C308.67 324.383 308.852 324.656 309.016 324.511C315.536 318.899 322.22 313.469 329.067 308.276C335.514 303.375 342.489 299.84 350.302 297.745C354.709 296.56 359.189 295.722 363.669 294.884C363.76 294.884 363.742 294.738 363.669 294.756H363.651Z" fill="#002462"/>
<path d="M356.822 283.478C349.464 284.207 343.054 284.827 336.297 288.033C327.337 292.279 318.304 300.041 315.135 302.792C311.639 305.835 308.233 309.005 304.882 312.212C304.755 312.34 304.973 312.576 305.119 312.449C312.75 305.452 320.854 298.911 329.322 292.953C333.365 290.11 337.681 287.724 342.416 286.23C347.097 284.754 352.014 284.171 356.84 283.515C356.876 283.515 356.858 283.46 356.84 283.46L356.822 283.478Z" fill="#002462"/>
<path d="M446.44 269.885L491.095 323.982C491.095 323.982 516.937 252.649 522.182 221.072C527.646 188.166 516.737 178.345 488.873 212.618C461.429 246.399 446.44 269.885 446.44 269.885Z" fill="#FFA502"/>
<path opacity="0.1" d="M522.183 221.054C516.938 252.649 491.114 323.982 491.114 323.982L463.013 289.928L516.045 191.19C523.202 191.628 525.224 202.797 522.183 221.036V221.054Z" fill="#1D283A"/>
<path d="M609.835 366.254C588.254 382.744 561.283 392.51 532.035 392.51C505.009 392.51 479.932 384.165 459.262 369.88C468.568 321.669 491.496 218.176 503.862 202.05C507.249 197.623 518.486 196.384 528.029 197.568C530.687 197.896 533.201 198.406 535.386 199.08C535.422 199.099 535.514 199.117 535.641 199.135C537.863 199.864 539.739 200.757 541.032 201.795C560.882 217.647 594.61 316.749 609.817 366.273L609.835 366.254Z" fill="#FFA502"/>
<path d="M564.16 222.075C599.272 279.069 631.233 342.367 619.541 358.529C610.108 371.575 524.568 406.522 496.049 408.709C486.979 409.401 464.524 342.677 479.531 337.284C483.792 335.753 553.342 322.452 553.761 320.831C555.109 315.674 545.748 280.873 537.134 241.225C526.043 190.207 549.318 197.933 564.178 222.057L564.16 222.075Z" fill="#FED7D7"/>
<path d="M445.603 349.091C449.846 347.561 452.359 344.19 444.747 341.657C437.062 339.088 404.882 335.572 407.067 324.421C409.234 313.215 454.017 320.995 467.038 324.111C488.91 329.322 498.671 346.54 498.671 346.54C477.874 347.779 461.975 348.763 445.585 349.073L445.603 349.091Z" fill="#FED7D7"/>
<path d="M421.473 318.59C425.771 318.189 430.105 318.189 434.421 318.335C438.737 318.463 443.053 318.864 447.333 319.392C455.893 320.54 464.434 322.435 472.429 325.714C470.298 325.314 468.24 324.712 466.109 324.366C464.015 323.892 461.902 323.51 459.79 323.127C455.565 322.435 451.34 321.706 447.096 321.196C442.853 320.613 438.592 320.175 434.33 319.72C432.199 319.501 430.05 319.301 427.92 319.137C425.771 318.9 423.64 318.772 421.473 318.59Z" fill="#002462"/>
<path d="M354.933 339.701L354.917 346.333L503.031 346.696L503.047 340.063L354.933 339.701Z" fill="#1D283A"/>
<path d="M354.927 339.689L354.909 346.322L455.601 346.577L450.538 339.926L354.927 339.689Z" fill="#002462"/>
<path d="M444.128 346.559L299.783 346.194L288 248.076L432.363 248.422L444.128 346.559Z" fill="#1D283A"/>
<path d="M374.851 297.327C374.924 302.173 371.045 306.109 366.201 306.091C361.356 306.091 357.35 302.137 357.277 297.272C357.204 292.407 361.083 288.49 365.927 288.508C370.772 288.508 374.778 292.462 374.851 297.327Z" fill="#F4F5F7"/>
<path d="M495.867 408.727C470.407 410.167 433.838 406.413 410.072 389.96C405.41 386.735 404.335 382.544 404.335 382.544C393.554 375.365 393.7 368.114 393.7 368.114C385.705 358.347 386.87 350.95 386.87 350.95C386.87 350.95 374.304 342.386 378.22 333.914C382.591 324.402 399.382 338.305 413.295 340.291C445.166 344.846 492.37 347.051 501.694 347.451L495.867 408.727Z" fill="#FED7D7"/>
<path d="M443.308 368.496C433.947 366.966 424.732 365.709 415.626 362.921C405.647 359.86 396.559 355.25 387.18 350.768C386.889 350.622 386.67 351.023 386.925 351.205C402.623 361.992 424.259 368.442 443.235 368.915C443.69 368.915 443.763 368.569 443.29 368.496H443.308Z" fill="#002462"/>
<path d="M443.363 388.138C434.348 386.152 418.522 382.544 393.827 367.786C393.754 367.731 393.645 367.859 393.718 367.931C408.469 379.647 424.75 386.097 443.272 388.575C443.854 388.648 443.964 388.284 443.363 388.138Z" fill="#002462"/>
<path d="M443.18 398.706C427.974 394.734 418.886 390.306 404.39 382.453C404.317 382.417 404.208 382.544 404.299 382.599C419.851 393.24 426.699 395.335 443.126 399.234C443.69 399.362 443.781 398.852 443.18 398.688V398.706Z" fill="#002462"/>
<path d="M547.879 304.741L617.975 306.582C617.975 306.582 581.17 240.24 560.809 215.533C539.593 189.787 525.024 191.573 532.563 235.102C539.993 277.993 547.861 304.723 547.861 304.723L547.879 304.741Z" fill="#FFA502"/>
<path d="M509.125 226.794C517.921 228.179 531.743 213.875 536.788 202.724C537.134 201.959 535.422 194.307 533.783 184.923C532.818 179.22 531.871 172.843 531.434 166.976L495.266 178.71C495.266 178.71 499.819 190.753 500.529 201.012C500.583 201.868 500.547 202.67 500.456 203.435C500.456 203.544 500.438 203.69 500.438 203.836C500.037 208.482 500.638 225.446 509.125 226.794Z" fill="#FED7D7"/>
<path d="M528.902 167.814C528.411 175.685 525.223 201.704 504.244 203.745C502.878 203.891 501.603 203.927 500.438 203.836C500.438 203.672 500.456 203.563 500.456 203.435C500.565 202.652 500.583 201.85 500.529 200.994C499.818 190.754 495.284 178.692 495.284 178.692L528.902 167.796V167.814Z" fill="#002462"/>
<path d="M525.734 119.038C532.654 130.863 534.694 169.308 527.591 179.676C517.283 194.708 496.031 200.976 482.172 187.584C468.731 174.592 466.965 124.449 475.306 114.574C487.599 100.034 515.517 101.564 525.752 119.038H525.734Z" fill="#FED7D7"/>
<path d="M527.482 120.896C527.482 120.896 525.752 109.253 522.401 105.937C519.05 102.62 512.257 102.402 512.257 102.402C512.257 102.402 507.449 92.836 497.943 93.0182C489.402 93.1822 484.339 101.181 484.339 101.181C484.339 101.181 471.554 90.5584 458.715 98.3933C446.532 105.827 449.883 125.086 462.776 130.188C471.827 133.778 483.082 125.141 483.082 125.141C484.23 125.214 496.431 131.354 504.463 120.258C504.463 120.258 512.949 125.761 517.156 121.005C517.156 121.005 523.53 123.356 527.482 120.896Z" fill="#002462"/>
<path opacity="0.2" d="M531.998 151.634C529.613 150.213 524.477 140.757 522.146 136.821C520.033 133.25 518.504 118.127 517.866 110.602C521.017 112.788 523.712 115.612 525.734 119.056C529.358 125.233 531.652 138.716 531.998 151.634Z" fill="#002462"/>
<path d="M525.023 150.941C525.023 150.941 530.797 137.167 536.861 138.97C542.944 140.774 540.412 159.487 534.548 163.24C528.684 166.994 525.115 161.637 525.115 161.637L525.023 150.941Z" fill="#FED7D7"/>
<path d="M500.383 203.034L512.421 223.35L535.058 192.047L543.964 199.645C543.964 199.645 524.332 246.891 523.876 244.96L512.203 227.741L501.349 242.591L497.488 210.012L500.402 203.034H500.383Z" fill="#1D283A"/>
<path d="M498.526 226.593C498.07 221.2 497.451 215.77 497.251 210.34C497.251 210.14 497.524 210.012 497.615 210.231C499.473 215.242 501.112 235.904 501.858 240.805C501.858 240.787 501.895 240.769 501.913 240.732C502.368 240.094 512.075 227.577 512.203 227.723C514.57 230.383 523.13 242.919 523.749 244.085C526.845 236.578 538.937 209.174 542.853 201.94C542.962 201.74 543.272 201.849 543.199 202.086C540.649 209.903 524.732 246.745 524.404 246.69C524.204 246.891 513.605 231.458 512.166 228.47C510.6 231.112 501.003 245.032 500.839 244.249C499.764 238.928 498.981 232.004 498.526 226.593Z" fill="#002462"/>
</g>
<g clip-path="url(#clip2_824_132036)">
<path d="M227.208 346.934C239.189 364.651 301.808 449.472 335.574 448.198C376.491 446.656 426.45 430.296 447.268 416.197C458.921 408.305 418.579 351.723 407.214 357.498C389.294 366.624 347.637 379.798 340.424 381.381C333.231 382.963 281.011 343.954 249.609 326.854C221.331 311.439 218.762 334.438 227.208 346.934Z" fill="#FFC7A0"/>
<path d="M445.275 416.834C453.002 413.607 493.775 393.609 502.16 386.498C510.524 379.387 533.131 357.19 528.342 350.222C523.554 343.255 516.402 349.236 516.402 349.236C516.402 349.236 524.458 338.343 518.991 331.766C513.525 325.189 502.736 334.849 502.736 334.849C502.736 334.849 510.196 323.051 504.277 316.906C498.358 310.74 489.131 322.27 489.131 322.27C489.131 322.27 496.468 311.809 489.439 308.788C481.013 305.15 469.669 325.949 459.846 333.102C457.606 334.725 412.25 362.821 412.25 362.821L445.275 416.834Z" fill="#FFC7A0"/>
<path d="M489.932 321.304C481.568 336.595 475.259 341.816 460.257 350.14C459.969 350.304 460.133 350.777 460.462 350.633C475.896 343.809 484.733 338.383 490.693 321.653C490.981 320.831 490.323 320.564 489.932 321.284V321.304Z" fill="#002462"/>
<path d="M503.373 333.636C493.303 348.742 486.501 354.497 471.437 364.362C471.231 364.506 471.437 364.876 471.663 364.753C487.261 356.306 495.954 350.674 504.051 334.252C504.421 333.513 503.825 332.937 503.373 333.615V333.636Z" fill="#002462"/>
<path d="M515.621 349.708C504.812 363.643 497.639 370.261 481.774 377.968C481.404 378.153 481.63 378.708 482.02 378.564C498.955 372.275 507.956 364.095 515.991 350.078C516.546 349.133 516.279 348.824 515.601 349.708H515.621Z" fill="#002462"/>
<path d="M395.747 368.205C395.747 368.205 403.536 347.817 408.941 339.596C414.346 331.395 445.707 308.212 451.091 314.706C458.058 323.092 442.583 340.027 433.91 347.344C433.91 347.344 450.022 366.726 441.555 381.277C433.088 395.828 395.747 368.185 395.747 368.185V368.205Z" fill="#FFC7A0"/>
<path d="M452.242 317.666C453.064 329.895 441.083 338.754 433.212 346.461C432.616 347.057 432.883 347.735 433.417 348.105C439.623 356.676 445.892 370.569 442.213 381.133C442.11 381.442 442.521 381.647 442.686 381.339C448.173 370.569 443.117 356.408 435.719 347.447C443.919 339.658 455.551 330.245 452.365 317.646C452.365 317.584 452.242 317.584 452.242 317.646V317.666Z" fill="#002462"/>
<path d="M393.281 360.684L429.369 432.968C429.369 432.968 350.309 463.571 319.523 446.368C288.738 429.166 241.162 370.076 231.257 356.594C209.575 327.1 226.592 311.624 250.76 326.669C274.928 341.713 334.731 378.441 338.574 379.469C342.417 380.496 393.281 360.663 393.281 360.663V360.684Z" fill="#FFA502"/>
<path opacity="0.1" d="M312.721 442.073C282.182 421.006 240.463 369.11 231.257 356.573C211.589 329.793 223.756 314.584 244.286 323.298L312.721 442.073Z" fill="black"/>
<path d="M409.886 434.9C405.303 426.946 401.131 418.745 397.001 410.545C392.849 402.324 388.698 394.123 384.752 385.82C382.533 381.113 380.272 376.427 378.217 371.659C378.155 371.535 378.361 371.412 378.422 371.535C383.005 379.469 387.198 387.649 391.39 395.829C395.583 404.009 399.693 412.251 403.741 420.513C406.022 425.178 408.221 429.905 410.277 434.674C410.379 434.9 410.009 435.146 409.886 434.92V434.9Z" fill="#455A64"/>
<path d="M298.685 487.228C276.305 501.389 249.753 509.589 221.29 509.589C187.422 509.589 156.287 497.977 131.605 478.493C139.517 437.305 158.979 367.015 199.3 320.709C210.562 307.761 241.245 311.563 244.8 316.742C268.865 351.703 290.218 442.916 298.664 487.207L298.685 487.228Z" fill="#FFA502"/>
<path d="M265.844 517.215L354.399 537.993L400.556 416.547L311.981 395.768L265.844 517.215Z" fill="#A6A6A6"/>
<path d="M270.201 518.222L358.755 539.001L404.892 417.575L316.338 396.796L270.201 518.222Z" fill="#C7C7C7"/>
<path d="M350.473 465.154C348.932 469.82 343.835 472.697 339.088 471.567C334.341 470.457 331.71 465.771 333.252 461.105C334.793 456.44 339.89 453.563 344.637 454.693C349.405 455.803 352.015 460.489 350.473 465.154Z" fill="white"/>
<path d="M183.353 337.336C157.746 372.995 102.649 454.446 118.905 473.252C145.642 504.184 210.871 531.272 231.319 537.397C240.135 540.048 271.722 475.924 263.399 470.662C253.411 464.332 189.497 439.216 189.189 436.133C188.84 432.742 200.821 388.883 204.746 354.251C209.617 311.296 194.06 322.456 183.373 337.316L183.353 337.336Z" fill="#FFC7A0"/>
<path d="M231.278 466.182C231.278 466.182 258.158 458.289 275.976 453.973C285.923 451.548 303.329 448.938 311.447 450.5C323.593 452.843 372.853 470.395 368.867 482.439C365.25 493.332 324.826 472.882 324.826 472.882C324.826 472.882 367.428 489.92 360.667 502.252C353.885 514.563 311.303 485.378 311.303 485.378C311.303 485.378 354.686 503.875 345.706 515.467C338.903 524.243 298.849 499.97 298.849 499.97C298.849 499.97 336.026 516.125 329.429 525.435C322.134 535.732 283.744 515.652 283.744 515.652C262.988 536.513 244.965 539.288 231.339 537.418C228.174 536.986 231.298 466.182 231.298 466.182H231.278Z" fill="#FFC7A0"/>
<path d="M312.454 466.922C344.801 477.075 357.543 491.975 357.132 491.647C347.226 483.919 329.819 475.533 324.928 473.272C320.037 471.012 317.263 469.367 312.372 467.107C312.248 467.045 312.351 466.88 312.474 466.922H312.454Z" fill="#002462"/>
<path d="M301.973 483.59C317.591 487.413 333.888 496.764 338.985 500.875C339.396 501.203 339.17 501.286 338.677 501.06C332.532 497.997 308.159 486.467 301.89 483.734C301.788 483.692 301.87 483.569 301.973 483.59Z" fill="#002462"/>
<path d="M291.965 497.319C305.672 501.779 311.365 505.17 320.222 511.542C320.654 511.85 320.284 511.994 319.791 511.727C310.481 506.815 303.226 502.91 291.821 497.648C291.636 497.566 291.738 497.237 291.944 497.299L291.965 497.319Z" fill="#002462"/>
<path d="M243.731 460.756L207.747 537.5C207.747 537.5 121.967 491.277 115.493 469.532C109.02 447.787 167.343 352.258 185.079 332.774C202.794 313.289 208.548 321.264 208.055 343.502C207.562 365.74 190.073 435.044 190.504 436.339C190.936 437.634 243.752 460.735 243.752 460.735L243.731 460.756Z" fill="#FFA502"/>
<path d="M196.875 403.619C198.047 398.419 199.177 393.219 200.266 387.999C200.841 385.286 201.396 382.573 202.013 379.881C202.301 378.627 202.568 377.394 202.855 376.14C202.999 375.523 203.205 374.907 203.308 374.29C203.678 372.009 203.349 374.023 203.924 371.824C203.965 371.68 204.191 371.721 204.191 371.865C204.047 373.304 204.335 372.728 204.068 373.818C203.862 374.64 203.76 375.441 203.636 376.284C203.451 377.538 203.246 378.791 203.04 380.066C202.629 382.635 202.157 385.204 201.684 387.773C201.622 388.102 201.54 388.451 201.479 388.78C201.52 388.677 201.54 388.595 201.561 388.492C202.506 385.718 203.493 382.943 204.479 380.168C204.52 380.045 204.705 380.107 204.664 380.23C204.006 383.107 203.246 385.923 202.321 388.718C201.787 390.342 201.15 391.925 200.513 393.487C199.834 396.919 199.177 400.331 198.458 403.742C196.217 414.307 193.916 424.953 190.854 435.311C195.334 437.367 199.937 439.217 204.417 441.272C208.918 443.348 213.398 445.485 217.858 447.602C222.338 449.719 226.818 451.836 231.236 454.035C233.353 455.083 235.449 456.173 237.546 457.241C239.827 458.413 242.005 459.831 244.307 460.941C244.533 461.064 244.307 461.393 244.101 461.29C241.697 460.18 239.128 459.379 236.703 458.331C234.566 457.406 232.428 456.501 230.291 455.535C225.77 453.501 221.269 451.404 216.789 449.308C212.309 447.212 207.808 445.115 203.349 442.978C198.889 440.84 194.553 438.456 190.114 436.319C189.949 436.236 189.867 436.113 189.826 435.99C189.662 435.866 189.518 435.661 189.58 435.394C191.799 424.747 194.491 414.204 196.875 403.599V403.619Z" fill="#002462"/>
<path d="M207.973 491.03C210.644 485.481 221.516 463.304 224.64 458.002C224.681 457.92 224.845 457.961 224.804 458.063C222.811 463.695 212.72 485.892 210.049 491.462C204.726 502.581 199.588 513.864 193.073 524.346C192.95 524.531 192.621 524.428 192.703 524.202C197.04 512.816 202.691 501.985 207.973 491.03Z" fill="#002462"/>
<path d="M146.032 499.539C148.005 500.669 149.855 502.047 151.704 503.341C153.636 504.698 155.588 506.013 157.52 507.37C161.322 510.021 165.145 512.755 169.173 515.015C169.399 515.139 169.173 515.488 168.967 515.365C164.877 513.001 160.706 510.843 156.719 508.274C152.937 505.828 148.93 503.095 145.806 499.827C145.662 499.683 145.847 499.457 146.012 499.56L146.032 499.539Z" fill="#002462"/>
<path d="M240.998 344.611C231.545 348.003 213.193 335.054 205.24 323.771C204.705 322.99 204.973 314.152 204.808 303.403C204.685 296.888 204.377 289.612 203.637 283.015L246.218 288.379C246.218 288.379 243.711 302.684 245.088 314.193C245.211 315.159 245.417 316.043 245.684 316.865C245.705 316.988 245.766 317.132 245.787 317.317C247.205 322.373 250.123 341.302 240.998 344.591V344.611Z" fill="#FFC7A0"/>
<path d="M245.088 314.214C245.191 315.056 245.376 315.817 245.581 316.536C224.722 315.365 211.898 305.582 204.644 297.196C204.479 292.489 204.171 287.598 203.657 283.035L246.218 288.399C246.218 288.399 243.732 302.725 245.109 314.214H245.088Z" fill="#002462"/>
<path d="M189.292 237.511C187.442 252.864 202.589 293.538 214.611 301.081C232.038 312.015 256.843 308.932 265.187 288.852C273.263 269.368 252.569 216.691 239.498 210.237C220.242 200.721 192.025 214.862 189.292 237.531V237.511Z" fill="#FFC7A0"/>
<path d="M203.637 269.491C210.686 266.984 204.931 249.678 204.931 249.678C204.931 249.678 215.31 244.56 216.317 227.995C216.317 227.995 232.942 232.763 244.122 227.214C261.652 218.5 254.213 194.617 245.869 191.719C234.052 187.609 219.502 202.777 219.502 202.777C219.502 202.777 190.915 203.044 188.223 223.206C188.223 223.206 176.571 227.132 179.53 240.388C182.49 253.645 198.396 271.341 203.657 269.491H203.637Z" fill="#002462"/>
<path d="M204.376 270.19C204.376 270.19 192.21 258.516 186.743 263.12C181.256 267.724 192.292 285.933 200.04 287.187C207.788 288.441 209.082 281.289 209.082 281.289L204.376 270.17V270.19Z" fill="#FFC7A0"/>
<path d="M245.663 316.433L236.6 341.487L204.91 311.583L196.649 321.88C196.649 321.88 228.38 370.097 228.482 367.857L237.792 346.317L252.959 360.478L250.369 323.565L245.663 316.433Z" fill="white"/>
<path d="M252.712 342.166C252.075 336.082 251.623 329.937 250.698 323.894C250.657 323.689 250.328 323.586 250.287 323.853C249.28 329.793 251.828 353.038 252.013 358.628C251.993 358.628 251.972 358.587 251.952 358.567C251.315 357.95 237.915 346.132 237.792 346.317C235.716 349.77 228.893 365.452 228.441 366.87C223.427 359.204 204.253 331.396 198.375 324.202C198.211 323.997 197.882 324.202 198.026 324.429C202.506 332.547 227.907 370.015 228.277 369.891C228.544 370.076 237.032 350.736 237.997 347.119C240.279 349.729 253.863 363.129 253.883 362.225C253.945 356.1 253.349 348.27 252.733 342.166H252.712Z" fill="#002462"/>
</g>
<defs>
<clipPath id="clip0_824_132036">
<rect width="643" height="519" fill="white" transform="translate(0 327.868) rotate(-43.9013)"/>
</clipPath>
<clipPath id="clip1_824_132036">
<rect width="334" height="316" fill="white" transform="translate(288 93)"/>
</clipPath>
<clipPath id="clip2_824_132036">
<rect width="414" height="348" fill="white" transform="translate(115 191)"/>
</clipPath>
</defs>
</svg>
