<svg width="160" height="160" viewBox="0 0 160 160" fill="none" xmlns="http://www.w3.org/2000/svg">
<g id="company">
<g id="Group">
<path id="Vector" d="M139.264 -4H19.7364C6.62714 -4 -4 6.62714 -4 19.7364V139.264C-4 152.373 6.62714 163 19.7364 163H139.264C152.373 163 163 152.373 163 139.264V19.7364C163 6.62714 152.373 -4 139.264 -4Z" fill="#9EE9A6"/>
<g id="Group_2">
<g id="&#229;&#136;&#134;&#233;&#155;&#162;&#230;&#168;&#161;&#229;&#188;&#143;">
<path id="Vector_2" style="mix-blend-mode:multiply" opacity="0.5" d="M23 128.72L67.79 173.5L155.94 149.89L184.71 89.5L115.21 20L78.86 83.34H77.09L72.47 78.39L61.45 82.56L57.45 78.39L28.77 124.23L23 128.72Z" fill="#CCCCCC"/>
<g id="Group_3">
<path id="Vector_3" d="M121.84 29.3496H78.8601V127.44H121.84V29.3496Z" fill="#E6E6E6"/>
<path id="Vector_4" d="M57.4599 78.3896H35.8899V83.3396H57.4599V78.3896Z" fill="#C8C8C8"/>
<g id="Group_4">
<g id="Group_5">
<path id="Vector_5" d="M84.72 31.4805H81.52V39.7905H84.72V31.4805Z" fill="#1EA8D2"/>
<path id="Vector_6" d="M90.49 31.4805H87.29V39.7905H90.49V31.4805Z" fill="#1EA8D2"/>
<path id="Vector_7" d="M96.2501 31.4805H93.0601V39.7905H96.2501V31.4805Z" fill="#1EA8D2"/>
<path id="Vector_8" d="M102.03 31.4805H98.8301V39.7905H102.03V31.4805Z" fill="#1EA8D2"/>
<path id="Vector_9" d="M107.79 31.4805H104.6V39.7905H107.79V31.4805Z" fill="#1EA8D2"/>
<path id="Vector_10" d="M113.57 31.4805H110.37V39.7905H113.57V31.4805Z" fill="#1EA8D2"/>
<path id="Vector_11" d="M119.34 31.4805H116.14V39.7905H119.34V31.4805Z" fill="#1EA8D2"/>
</g>
<g id="Group_6">
<path id="Vector_12" d="M84.72 42.4707H81.52V50.7807H84.72V42.4707Z" fill="#1EA8D2"/>
<path id="Vector_13" d="M90.48 42.4707H87.29V50.7807H90.48V42.4707Z" fill="#1EA8D2"/>
<path id="Vector_14" d="M96.2501 42.4707H93.0601V50.7807H96.2501V42.4707Z" fill="#1EA8D2"/>
<path id="Vector_15" d="M102.03 42.4707H98.8301V50.7807H102.03V42.4707Z" fill="#1EA8D2"/>
<path id="Vector_16" d="M107.79 42.4707H104.6V50.7807H107.79V42.4707Z" fill="#1EA8D2"/>
<path id="Vector_17" d="M113.57 42.4707H110.37V50.7807H113.57V42.4707Z" fill="#1EA8D2"/>
<path id="Vector_18" d="M119.34 42.4707H116.14V50.7807H119.34V42.4707Z" fill="#1EA8D2"/>
</g>
<g id="Group_7">
<path id="Vector_19" d="M84.72 53.4609H81.52V61.7709H84.72V53.4609Z" fill="#1EA8D2"/>
<path id="Vector_20" d="M90.49 53.4609H87.29V61.7709H90.49V53.4609Z" fill="#1EA8D2"/>
<path id="Vector_21" d="M96.2501 53.4609H93.0601V61.7709H96.2501V53.4609Z" fill="#1EA8D2"/>
<path id="Vector_22" d="M102.03 53.4609H98.8301V61.7709H102.03V53.4609Z" fill="#1EA8D2"/>
<path id="Vector_23" d="M107.79 53.4609H104.6V61.7709H107.79V53.4609Z" fill="#1EA8D2"/>
<path id="Vector_24" d="M113.57 53.4609H110.37V61.7709H113.57V53.4609Z" fill="#1EA8D2"/>
<path id="Vector_25" d="M119.34 53.4609H116.14V61.7709H119.34V53.4609Z" fill="#1EA8D2"/>
</g>
<g id="Group_8">
<path id="Vector_26" d="M84.72 64.4502H81.52V72.7602H84.72V64.4502Z" fill="#1EA8D2"/>
<path id="Vector_27" d="M90.49 64.4502H87.29V72.7602H90.49V64.4502Z" fill="#1EA8D2"/>
<path id="Vector_28" d="M96.2501 64.4502H93.0601V72.7602H96.2501V64.4502Z" fill="#1EA8D2"/>
<path id="Vector_29" d="M102.03 64.4502H98.8301V72.7602H102.03V64.4502Z" fill="#1EA8D2"/>
<path id="Vector_30" d="M107.79 64.4502H104.6V72.7602H107.79V64.4502Z" fill="#1EA8D2"/>
<path id="Vector_31" d="M113.57 64.4502H110.37V72.7602H113.57V64.4502Z" fill="#1EA8D2"/>
<path id="Vector_32" d="M119.34 64.4502H116.14V72.7602H119.34V64.4502Z" fill="#1EA8D2"/>
</g>
<g id="Group_9">
<path id="Vector_33" d="M84.72 75.4404H81.52V83.7504H84.72V75.4404Z" fill="#1EA8D2"/>
<path id="Vector_34" d="M90.49 75.4404H87.29V83.7504H90.49V75.4404Z" fill="#1EA8D2"/>
<path id="Vector_35" d="M96.2501 75.4404H93.0601V83.7504H96.2501V75.4404Z" fill="#1EA8D2"/>
<path id="Vector_36" d="M102.03 75.4404H98.8301V83.7504H102.03V75.4404Z" fill="#1EA8D2"/>
<path id="Vector_37" d="M107.79 75.4404H104.6V83.7504H107.79V75.4404Z" fill="#1EA8D2"/>
<path id="Vector_38" d="M113.57 75.4404H110.37V83.7504H113.57V75.4404Z" fill="#1EA8D2"/>
<path id="Vector_39" d="M119.34 75.4404H116.14V83.7504H119.34V75.4404Z" fill="#1EA8D2"/>
</g>
<g id="Group_10">
<path id="Vector_40" d="M102.03 86.4307H98.8301V94.7407H102.03V86.4307Z" fill="#1EA8D2"/>
<path id="Vector_41" d="M107.79 86.4404H104.6V94.7504H107.79V86.4404Z" fill="#1EA8D2"/>
<path id="Vector_42" d="M113.57 86.4307H110.37V94.7407H113.57V86.4307Z" fill="#1EA8D2"/>
<path id="Vector_43" d="M119.34 86.4307H116.14V94.7407H119.34V86.4307Z" fill="#1EA8D2"/>
</g>
</g>
<path id="Vector_44" d="M72.47 78.3896H61.45V83.3396H72.47V78.3896Z" fill="#C8C8C8"/>
<path id="Vector_45" d="M100.43 83.3398H25.02V127.43H100.43V83.3398Z" fill="#1EA8D2"/>
<path id="Vector_46" d="M92.28 94.8496H25.02V127.44H92.28V94.8496Z" fill="#5DD5FF"/>
<path id="Vector_47" d="M121.84 127.92V83.3398H128.55L133.18 88.9398V127.92H121.84Z" fill="#1EA8D2"/>
<path id="Vector_48" d="M119.76 24.71H81.1001V29.34H119.76V24.71Z" fill="#1EA8D2"/>
<path id="Vector_49" d="M115.13 20.0801H85.73V24.7101H115.13V20.0801Z" fill="#5DD5FF"/>
<g id="Group_11">
<path id="Vector_50" d="M119.34 109.229H100.35V113.059H119.34V109.229Z" fill="#1EA8D2"/>
<path id="Vector_51" d="M119.34 103.41H100.35V107.25H119.34V103.41Z" fill="#1EA8D2"/>
<path id="Vector_52" d="M119.34 97.5898H100.35V101.42H119.34V97.5898Z" fill="#1EA8D2"/>
</g>
<path id="Vector_53" d="M117.74 115.83H105.4V127.44H117.74V115.83Z" fill="#1EA8D2"/>
<g id="Group_12">
<path id="Vector_54" d="M127.97 87.8203H124.77V96.1303H127.97V87.8203Z" fill="white"/>
<path id="Vector_55" d="M127.97 101.08H124.77V109.39H127.97V101.08Z" fill="white"/>
<path id="Vector_56" d="M127.97 114.34H124.77V122.65H127.97V114.34Z" fill="white"/>
</g>
<g id="Group_13">
<path id="Vector_57" d="M42.4799 94.8496H41.2V126.16H42.4799V94.8496Z" fill="white"/>
<path id="Vector_58" d="M59.29 94.8496H58.01V126.16H59.29V94.8496Z" fill="white"/>
<path id="Vector_59" d="M76.1098 94.8496H74.8298V126.16H76.1098V94.8496Z" fill="white"/>
</g>
<g id="Group_14">
<path id="Vector_60" d="M92.28 94.21H25.02V95.49H92.28V94.21Z" fill="white"/>
<path id="Vector_61" d="M92.28 101.88H25.02V103.16H92.28V101.88Z" fill="white"/>
<path id="Vector_62" d="M92.28 109.55H25.02V110.83H92.28V109.55Z" fill="white"/>
<path id="Vector_63" d="M92.28 117.21H25.02V118.49H92.28V117.21Z" fill="white"/>
<path id="Vector_64" d="M92.28 124.88H25.02V126.16H92.28V124.88Z" fill="white"/>
</g>
<path id="Vector_65" d="M92.9199 94.21H91.6399V126.8H92.9199V94.21Z" fill="white"/>
<path id="Vector_66" d="M138.88 126.16H23V128.72H138.88V126.16Z" fill="#1EA8D2"/>
</g>
</g>
</g>
</g>
</g>
</svg>
