<svg width="91" height="55" viewBox="0 0 91 55" fill="none" xmlns="http://www.w3.org/2000/svg">
<g id="Group">
<path id="Vector" d="M85.1853 10.6481C84.4942 9.75582 83.7485 8.89997 82.9301 8.08053C82.9301 8.08053 82.912 8.06232 82.8938 8.04411C72.182 -2.68137 54.8139 -2.68137 44.1021 8.04411L46.7028 10.6481C50.14 14.0897 55.1595 15.3462 59.8516 14.0715C60.6336 13.853 61.452 13.7073 62.2522 13.6345L69.4358 9.77403C74.8008 6.87869 80.7841 7.60708 85.1853 10.6481Z" fill="#FFA502"/>
<path id="Vector_2" d="M69.4358 45.2646L62.2158 41.3678C61.4338 41.2949 60.6518 41.1493 59.8879 40.949C55.1958 39.6925 50.2128 40.949 46.7755 44.3906L44.1567 47.0128C54.8867 57.6836 72.2183 57.6654 82.9302 46.9399C83.0575 46.8125 83.1848 46.685 83.3121 46.5575C83.985 45.8656 84.6033 45.1372 85.1853 44.3906C80.7842 47.4134 74.819 48.1236 69.454 45.2464L69.4358 45.2646Z" fill="#FFA502"/>
<path id="Vector_3" d="M87.7678 14.636C87.0403 13.2521 86.1855 11.9228 85.2035 10.6481C80.7842 7.60707 74.819 6.87869 69.454 9.77402L62.2704 13.6345C64.0708 13.4706 65.9077 13.6709 67.6536 14.199C69.7996 14.8727 71.8183 16.0563 73.4914 17.8045C76.0921 20.4813 77.3833 23.9593 77.4015 27.4556C77.4742 27.4556 77.4742 27.4556 77.4015 27.4556C77.4015 30.97 76.1103 34.4845 73.5096 37.1795C71.8364 38.9095 69.8359 40.1113 67.6899 40.785C65.9259 41.3495 64.0527 41.5316 62.234 41.3678L69.454 45.2646C74.819 48.1418 80.766 47.4316 85.1853 44.4088C86.1492 43.1705 86.9857 41.8594 87.7132 40.5119C92.0052 32.4632 92.0416 22.7029 87.786 14.636H87.7678Z" fill="#FFC40C"/>
<path id="Vector_4" d="M78.0743 27.4556C78.2016 27.4556 78.3471 27.4556 78.4744 27.4374C78.3471 27.4374 78.2016 27.4556 78.0743 27.4556Z" fill="#FFA502"/>
<path id="Vector_5" d="M22.0965 0.0682983C28.1526 0.0682983 33.0629 4.9849 33.0629 11.0487V54.9704C27.0068 54.9704 22.0965 50.0538 22.0965 43.99V0.0682983Z" fill="#FFA502"/>
<path id="Vector_6" d="M67.4171 23.6316C65.2711 21.4828 61.7975 21.4828 59.6697 23.6316C58.924 24.3782 57.9965 24.9063 56.9599 25.0884C56.0688 25.234 55.1776 25.3433 54.2865 25.3797C51.2857 25.5254 48.3759 24.3782 46.2663 22.2476L45.2842 21.2643C44.8477 20.8273 44.1567 20.8273 43.7384 21.2643L38.6462 26.363L38.2824 26.7272C37.846 27.1643 37.846 27.8562 38.2824 28.275L38.6462 28.6392L43.7384 33.7379C44.1748 34.175 44.8659 34.175 45.2842 33.7379L46.2663 32.7546C48.1031 30.9154 50.5947 29.8411 53.2135 29.8229C54.723 29.8229 56.2506 29.9685 57.7419 30.2781C58.4876 30.4238 59.1605 30.8244 59.7061 31.3707C61.8521 33.5194 65.3257 33.5194 67.4535 31.3707C69.5995 29.2219 69.5995 25.7439 67.4535 23.6134L67.4171 23.6316Z" fill="#FFA502"/>
<path id="Vector_7" d="M13.7126 3.52811C5.51049 8.37187 0 17.2946 0 27.5102C0 37.7258 5.51049 46.6668 13.7126 51.5105V3.52811Z" fill="#FFA502"/>
</g>
</svg>
