<svg width="120" height="121" viewBox="0 0 120 121" fill="none" xmlns="http://www.w3.org/2000/svg">
<rect y="0.333008" width="120" height="120" rx="60" fill="#6CDEA0"/>
<path d="M44.1319 79.717C41.6999 79.717 39.5719 79.269 37.7479 78.373C35.9559 77.445 34.5639 76.165 33.5719 74.533C32.5799 72.869 32.0839 70.949 32.0839 68.773V65.749C32.0839 65.589 32.1319 65.461 32.2279 65.365C32.3559 65.237 32.4999 65.173 32.6599 65.173H38.2759C38.4359 65.173 38.5639 65.237 38.6599 65.365C38.7879 65.461 38.8519 65.589 38.8519 65.749V68.773C38.8519 70.309 39.3159 71.557 40.2439 72.517C41.2039 73.445 42.4999 73.909 44.1319 73.909C45.6999 73.909 46.9799 73.445 47.9719 72.517C48.9959 71.557 49.5079 70.309 49.5079 68.773V46.309C49.5079 46.149 49.5559 46.021 49.6519 45.925C49.7799 45.797 49.9239 45.733 50.0839 45.733H55.6519C55.8119 45.733 55.9399 45.797 56.0359 45.925C56.1639 46.021 56.2279 46.149 56.2279 46.309V68.773C56.2279 70.949 55.7159 72.869 54.6919 74.533C53.6679 76.165 52.2439 77.445 50.4199 78.373C48.5959 79.269 46.4999 79.717 44.1319 79.717ZM62.6603 79.333C62.5003 79.333 62.3563 79.285 62.2283 79.189C62.1323 79.061 62.0843 78.917 62.0843 78.757V46.309C62.0843 46.149 62.1323 46.021 62.2283 45.925C62.3563 45.797 62.5003 45.733 62.6603 45.733H74.6603C77.0603 45.733 79.1563 46.165 80.9483 47.029C82.7723 47.861 84.1803 49.045 85.1723 50.581C86.1643 52.117 86.6603 53.893 86.6603 55.909V69.157C86.6603 71.173 86.1643 72.949 85.1723 74.485C84.1803 76.021 82.7723 77.221 80.9483 78.085C79.1563 78.917 77.0603 79.333 74.6603 79.333H62.6603ZM68.8523 73.285C68.8523 73.445 68.9323 73.525 69.0923 73.525H74.9003C76.3723 73.525 77.5563 73.029 78.4523 72.037C79.3803 71.045 79.8603 69.717 79.8923 68.053V57.013C79.8923 55.349 79.4283 54.021 78.5003 53.029C77.6043 52.037 76.3883 51.541 74.8523 51.541H69.0923C68.9323 51.541 68.8523 51.621 68.8523 51.781V73.285Z" fill="#FCFDFF"/>
</svg>
