<svg width="60" height="60" viewBox="0 0 60 60" fill="none" xmlns="http://www.w3.org/2000/svg">
<g id="app">
<path d="M0.5 10C0.5 4.7533 4.7533 0.5 10 0.5H50C55.2467 0.5 59.5 4.7533 59.5 10V50C59.5 55.2467 55.2467 59.5 50 59.5H10C4.7533 59.5 0.5 55.2467 0.5 50V10Z" fill="#F4F5F7"/>
<path d="M0.5 10C0.5 4.7533 4.7533 0.5 10 0.5H50C55.2467 0.5 59.5 4.7533 59.5 10V50C59.5 55.2467 55.2467 59.5 50 59.5H10C4.7533 59.5 0.5 55.2467 0.5 50V10Z" stroke="#CDD1D9"/>
<g id="Group">
<path id="Vector" d="M50.7641 21.1898C50.4017 20.7202 50.0107 20.2698 49.5816 19.8386C49.5816 19.8386 49.572 19.829 49.5625 19.8194C43.9454 14.1748 34.8378 14.1748 29.2207 19.8194L30.5845 21.1898C32.3869 23.0011 35.019 23.6623 37.4795 22.9915C37.8896 22.8765 38.3187 22.7998 38.7383 22.7615L42.5053 20.7298C45.3187 19.2061 48.4562 19.5894 50.7641 21.1898Z" fill="#FFA502"/>
<path id="Vector_2" d="M42.5041 39.4077L38.718 37.3569C38.3079 37.3186 37.8978 37.2419 37.4973 37.1365C35.0368 36.4752 32.4238 37.1365 30.6213 38.9477L29.248 40.3277C34.8747 45.9436 43.9632 45.934 49.5803 40.2894C49.647 40.2223 49.7138 40.1552 49.7806 40.0881C50.1334 39.724 50.4577 39.3406 50.7628 38.9477C48.455 40.5386 45.3269 40.9123 42.5136 39.3981L42.5041 39.4077Z" fill="#FFA502"/>
<path id="Vector_3" d="M52.118 23.2881C51.7366 22.5597 51.2883 21.8601 50.7734 21.1893C48.4559 19.5889 45.3279 19.2055 42.5146 20.7293L38.7476 22.761C39.6917 22.6747 40.6549 22.7801 41.5705 23.0581C42.6958 23.4126 43.7544 24.0356 44.6317 24.9556C45.9955 26.3643 46.6726 28.1947 46.6821 30.0347C46.7203 30.0347 46.7203 30.0347 46.6821 30.0347C46.6821 31.8843 46.005 33.7339 44.6413 35.1523C43.7639 36.0627 42.7149 36.6952 41.5895 37.0498C40.6645 37.3468 39.6822 37.4427 38.7285 37.3564L42.5146 39.4073C45.3279 40.9214 48.4464 40.5477 50.7638 38.9568C51.2693 38.3052 51.708 37.6152 52.0894 36.906C54.3401 32.6702 54.3592 27.5335 52.1276 23.2881H52.118Z" fill="#FFC40C"/>
<path id="Vector_4" d="M47.0352 30.035C47.1019 30.035 47.1782 30.035 47.245 30.0254C47.1782 30.0254 47.1019 30.035 47.0352 30.035Z" fill="#FFA502"/>
<path id="Vector_5" d="M17.6816 15.6221C20.8574 15.6221 23.4323 18.2096 23.4323 21.4008V44.5159C20.2565 44.5159 17.6816 41.9284 17.6816 38.7371V15.6221Z" fill="#FFA502"/>
<path id="Vector_6" d="M41.4455 28.0228C40.3202 26.892 38.4987 26.892 37.3829 28.0228C36.9919 28.4157 36.5055 28.6937 35.9619 28.7895C35.4946 28.8662 35.0273 28.9237 34.56 28.9428C32.9865 29.0195 31.4606 28.4157 30.3544 27.2945L29.8394 26.777C29.6105 26.547 29.2481 26.547 29.0288 26.777L26.3585 29.4603L26.1678 29.652C25.9389 29.882 25.9389 30.2462 26.1678 30.4666L26.3585 30.6583L29.0288 33.3416C29.2576 33.5716 29.62 33.5716 29.8394 33.3416L30.3544 32.8241C31.3176 31.8562 32.6241 31.2908 33.9974 31.2812C34.7889 31.2812 35.59 31.3578 36.372 31.5208C36.763 31.5974 37.1159 31.8083 37.402 32.0958C38.5273 33.2266 40.3488 33.2266 41.4646 32.0958C42.5899 30.9649 42.5899 29.1345 41.4646 28.0132L41.4455 28.0228Z" fill="#FFA502"/>
<path id="Vector_7" d="M13.2844 17.4424C8.98337 19.9916 6.09375 24.6874 6.09375 30.0637C6.09375 35.4399 8.98337 40.1454 13.2844 42.6945V17.4424Z" fill="#FFA502"/>
</g>
</g>
</svg>
