<svg width="481" height="615" viewBox="0 0 481 615" fill="none" xmlns="http://www.w3.org/2000/svg">
<path d="M422.252 287.345C401.028 303.019 371.013 298.516 355.333 277.313C349.357 269.231 346.32 259.88 346.013 250.525C345.852 245.569 346.455 240.605 347.806 235.839C350.585 225.993 356.53 216.967 365.378 210.432C386.595 194.763 416.611 199.266 432.295 220.476C438.839 229.326 441.864 239.704 441.621 249.937C441.603 251 441.544 252.05 441.447 253.106C440.283 266.267 433.698 278.891 422.251 287.345H422.252Z" fill="#CDD1D9"/>
<path opacity="0.7" d="M434.509 264.708C439.736 251.231 438.162 235.422 428.94 222.951C414.63 203.598 387.227 199.481 367.854 213.788C355.375 223.003 349.235 237.634 350.265 252.057C350.828 260.034 353.59 267.945 358.684 274.834C373.001 294.195 400.397 298.304 419.77 283.997C426.665 278.906 431.62 272.16 434.508 264.708H434.509ZM360.49 273.501C357.515 269.478 355.377 265.083 354.05 260.532C349.321 244.349 354.84 226.189 369.188 215.593C387.571 202.018 413.563 205.917 427.142 224.279C437.734 238.601 437.692 257.555 428.445 271.642C425.838 275.616 422.493 279.21 418.443 282.201C400.068 295.771 374.069 291.864 360.49 273.501Z" fill="#F4F5F7"/>
<path d="M394.087 271.463C403.932 271.748 409.44 266.902 410.399 260.516C411.704 251.825 404.53 248.42 397.935 245.798L399.507 235.33C402.529 236.16 405.574 237.688 408.445 239.951L412.667 232.833C409.6 230.172 405.291 228.27 400.727 227.209L401.736 220.49L395.573 219.572L394.552 226.411C384.641 226.054 379.069 230.945 378.089 237.471C376.767 246.273 384.052 249.695 390.651 252.388L389.099 262.668C384.726 261.565 380.55 259.242 377.808 256.503L373.29 263.505C376.282 266.665 381.845 269.444 387.896 270.729L386.88 277.44L393.043 278.358L394.085 271.465L394.087 271.463ZM388.077 238.464C388.381 236.437 389.942 234.839 393.318 234.594L392.012 243.334C389.432 242.067 387.753 240.616 388.077 238.464ZM395.307 263.341L396.583 254.844C399.09 256.165 400.694 257.598 400.371 259.75C400.073 261.735 398.478 263.135 395.307 263.341Z" fill="#F4F5F7"/>
<path d="M470.23 170.733C455.247 188.542 428.569 190.849 410.754 175.88C403.964 170.175 399.434 162.776 397.245 154.814C396.087 150.596 395.583 146.213 395.761 141.847C396.119 132.829 399.361 123.863 405.607 116.438C420.585 98.634 447.264 96.3278 465.085 111.301C472.52 117.548 477.251 125.83 479.149 134.659C479.352 135.574 479.517 136.487 479.651 137.413C481.361 148.943 478.311 161.128 470.229 170.733H470.23Z" fill="#CDD1D9"/>
<path opacity="0.7" d="M476.087 148.792C477.798 136.156 473.193 122.916 462.715 114.113C446.455 100.451 422.098 102.551 408.422 118.808C399.613 129.279 397.356 143.094 401.208 155.255C403.333 161.984 407.329 168.203 413.119 173.067C429.386 186.734 453.736 184.629 467.412 168.372C472.279 162.586 475.142 155.781 476.086 148.794L476.087 148.792ZM414.394 171.549C411.013 168.709 408.274 165.377 406.199 161.746C398.81 148.834 399.808 132.119 409.937 120.08C422.915 104.655 446.018 102.657 461.446 115.62C473.481 125.732 477.347 142.001 472.312 155.986C470.894 159.932 468.764 163.703 465.904 167.102C452.933 182.52 429.823 184.512 414.394 171.549Z" fill="#F4F5F7"/>
<path d="M442.798 162.897C451.303 161.118 455.031 155.828 454.54 150.153C453.871 142.428 447.015 140.981 440.817 140.088L440.012 130.783C442.775 130.874 445.702 131.56 448.631 132.91L450.789 125.936C447.61 124.283 443.521 123.537 439.388 123.565L438.871 117.593L433.395 118.072L433.927 124.149C425.351 125.879 421.577 131.222 422.079 137.022C422.756 144.845 429.711 146.282 435.927 147.237L436.712 156.375C432.733 156.328 428.672 155.193 425.756 153.406L423.321 160.342C426.538 162.439 431.883 163.679 437.338 163.537L437.848 169.504L443.324 169.025L442.8 162.897H442.798ZM430.851 135.821C430.695 134.02 431.705 132.328 434.55 131.423L435.229 139.19C432.755 138.633 431.016 137.733 430.851 135.82V135.821ZM442.174 155.678L441.52 148.127C443.943 148.744 445.613 149.644 445.779 151.557C445.932 153.322 444.852 154.85 442.174 155.679V155.678Z" fill="#F4F5F7"/>
<path d="M370.553 106.249C363.927 114.124 352.129 115.145 344.252 108.525C341.249 106.003 339.246 102.731 338.278 99.2099C337.765 97.345 337.543 95.4069 337.622 93.4759C337.78 89.4883 339.214 85.5233 341.976 82.2398C348.6 74.3666 360.398 73.3471 368.278 79.9677C371.566 82.7306 373.658 86.3924 374.498 90.2965C374.587 90.7017 374.661 91.1048 374.72 91.5151C375.477 96.6141 374.127 102.002 370.554 106.249H370.553Z" fill="#CDD1D9"/>
<path opacity="0.7" d="M373.143 96.5466C373.9 90.959 371.864 85.1044 367.23 81.2106C360.039 75.1693 349.268 76.0982 343.22 83.2869C339.325 87.9178 338.327 94.026 340.03 99.4044C340.97 102.38 342.737 105.13 345.298 107.281C352.491 113.325 363.259 112.394 369.307 105.204C371.459 102.646 372.726 99.6363 373.143 96.5466ZM345.861 106.611C344.366 105.355 343.155 103.882 342.237 102.276C338.97 96.5652 339.411 89.1745 343.891 83.8497C349.63 77.0281 359.846 76.1456 366.669 81.8776C371.991 86.3487 373.7 93.5436 371.474 99.7281C370.847 101.472 369.905 103.14 368.64 104.644C362.904 111.462 352.684 112.343 345.862 106.611H345.861Z" fill="#F4F5F7"/>
<path d="M358.422 102.783C362.184 101.996 363.832 99.6573 363.614 97.147C363.318 93.7316 360.287 93.0913 357.547 92.6965L357.191 88.5821C358.413 88.6223 359.707 88.9254 361.002 89.5223L361.957 86.4377C360.551 85.7068 358.743 85.3769 356.915 85.3893L356.686 82.748L354.265 82.9604L354.5 85.648C350.707 86.413 349.039 88.7759 349.261 91.3398C349.56 94.7996 352.635 95.4346 355.384 95.8573L355.732 99.8986C353.972 99.8779 352.177 99.3759 350.888 98.5862L349.811 101.653C351.233 102.58 353.597 103.129 356.009 103.067L356.235 105.705L358.657 105.492L358.424 102.783H358.422ZM353.14 90.8099C353.07 90.013 353.517 89.2656 354.776 88.8656L355.076 92.3006C353.981 92.0542 353.213 91.6563 353.14 90.8109V90.8099ZM358.146 99.5913L357.857 96.2522C358.929 96.5254 359.668 96.9233 359.741 97.7687C359.808 98.5491 359.33 99.2254 358.147 99.5913H358.146Z" fill="#F4F5F7"/>
<path d="M429.059 43.3417C421.145 52.7479 407.056 53.9665 397.646 46.0603C394.061 43.0469 391.667 39.1397 390.512 34.9335C389.9 32.7057 389.634 30.3902 389.728 28.085C389.917 23.3222 391.629 18.5861 394.929 14.6644C402.84 5.26134 416.93 4.04278 426.343 11.951C430.27 15.251 432.769 19.6253 433.77 24.2881C433.877 24.7716 433.965 25.2541 434.035 25.7428C434.939 31.8325 433.328 38.2675 429.06 43.3407L429.059 43.3417Z" fill="#CDD1D9"/>
<path opacity="0.7" d="M432.152 31.7542C433.056 25.08 430.625 18.0872 425.09 13.4377C416.502 6.22227 403.638 7.33155 396.415 15.9171C391.762 21.448 390.571 28.7439 392.605 35.1666C393.727 38.7202 395.838 42.0047 398.896 44.5738C407.487 51.7924 420.348 50.68 427.571 42.0944C430.142 39.0388 431.654 35.4449 432.152 31.7542ZM399.568 43.7738C397.782 42.2738 396.336 40.514 395.241 38.5965C391.339 31.7769 391.865 22.9491 397.215 16.5903C404.069 8.44289 416.271 7.38825 424.42 14.2346C430.775 19.5748 432.817 28.1676 430.158 35.5542C429.409 37.6377 428.284 39.6295 426.774 41.4243C419.923 49.5676 407.717 50.6202 399.568 43.7728V43.7738Z" fill="#F4F5F7"/>
<path d="M414.571 39.2032C419.063 38.263 421.032 35.4702 420.772 32.4723C420.419 28.3929 416.798 27.629 413.525 27.1568L413.1 22.2424C414.56 22.2898 416.105 22.6527 417.652 23.3661L418.792 19.6826C417.114 18.8104 414.954 18.4156 412.771 18.43L412.497 15.2754L409.606 15.529L409.887 18.7383C405.358 19.6517 403.365 22.4733 403.63 25.5372C403.988 29.6692 407.66 30.429 410.943 30.9321L411.358 35.7589C409.256 35.7341 407.111 35.1342 405.571 34.1909L404.285 37.8548C405.984 38.962 408.806 39.6177 411.688 39.5424L411.957 42.6939L414.848 42.4403L414.572 39.2043L414.571 39.2032ZM408.261 24.9032C408.178 23.9517 408.711 23.0589 410.214 22.5805L410.572 26.6826C409.265 26.3888 408.347 25.9135 408.26 24.9032H408.261ZM414.241 35.3909L413.895 31.4022C415.175 31.728 416.057 32.2032 416.145 33.2135C416.226 34.1455 415.655 34.9537 414.241 35.3909Z" fill="#F4F5F7"/>
<path d="M91.1077 250.821C69.8835 266.495 39.8679 261.992 24.1885 240.789C18.2124 232.708 15.1754 223.356 14.868 214.001C14.707 209.046 15.3105 204.082 16.6609 199.316C19.44 189.47 25.3852 180.444 34.2333 173.909C55.4503 158.24 85.4659 162.743 101.15 183.953C107.694 192.803 110.72 203.181 110.476 213.414C110.459 214.477 110.399 215.526 110.302 216.583C109.138 229.744 102.553 242.367 91.1067 250.821H91.1077Z" fill="#CDD1D9"/>
<path opacity="0.7" d="M103.364 228.184C108.591 214.708 107.017 198.899 97.7956 186.427C83.4852 167.075 56.0826 162.957 36.7091 177.265C24.2298 186.48 18.0907 201.111 19.1202 215.534C19.6835 223.511 22.4451 231.421 27.5392 238.311C41.8558 257.672 69.2521 261.781 88.6257 247.474C95.5199 242.382 100.476 235.637 103.363 228.184H103.364ZM29.3455 236.978C26.3704 232.954 24.2318 228.559 22.9052 224.009C18.1763 207.825 23.6954 189.666 38.043 179.07C56.4262 165.494 82.4185 169.393 95.9975 187.755C106.589 202.078 106.548 221.032 97.3004 235.118C94.6936 239.092 91.3481 242.686 87.298 245.678C68.923 259.248 42.9245 255.341 29.3455 236.978Z" fill="#F4F5F7"/>
<path d="M62.9429 234.941C72.7875 235.225 78.2953 230.38 79.2547 223.993C80.5596 215.302 73.3859 211.897 66.7908 209.276L68.363 198.808C71.3845 199.637 74.4298 201.165 77.3008 203.428L81.5232 196.311C78.4562 193.65 74.1472 191.748 69.5823 190.687L70.5912 183.967L64.4284 183.05L63.4082 189.889C53.4965 189.531 47.9248 194.423 46.9448 200.949C45.6223 209.751 52.9075 213.172 59.5066 215.865L57.9551 226.146C53.5821 225.043 49.4062 222.72 46.6642 219.981L42.1458 226.983C45.1374 230.143 50.7009 232.922 56.7512 234.207L55.7361 240.918L61.8989 241.835L62.9408 234.943L62.9429 234.941ZM56.9317 201.941C57.2361 199.914 58.7969 198.316 62.1723 198.07L60.8663 206.811C58.2862 205.544 56.6078 204.092 56.9317 201.941ZM64.1623 226.818L65.4384 218.321C67.9462 219.642 69.5493 221.075 69.2264 223.226C68.9283 225.212 67.3334 226.612 64.1623 226.818Z" fill="#F4F5F7"/>
<path d="M73.9325 136.602C59.0651 154.274 32.592 156.564 14.9134 141.711C8.17598 136.05 3.68024 128.707 1.50768 120.806C0.358473 116.621 -0.141855 112.271 0.0345495 107.938C0.389422 98.9889 3.607 90.092 9.80591 82.724C24.6693 65.057 51.1413 62.7683 68.8261 77.626C76.2041 83.825 80.899 92.0436 82.7817 100.804C82.9838 101.713 83.1479 102.619 83.2809 103.538C84.9779 114.98 81.9512 127.07 73.9325 136.601V136.602Z" fill="#CDD1D9"/>
<path opacity="0.7" d="M79.7437 114.83C81.4418 102.291 76.8728 89.1529 66.4752 80.4168C50.3399 66.8601 26.1704 68.9437 12.5997 85.0756C3.85783 95.4663 1.61925 109.175 5.44135 121.243C7.54995 127.919 11.5165 134.09 17.2604 138.917C33.402 152.479 57.5653 150.39 71.136 134.259C75.966 128.518 78.807 121.765 79.7437 114.831V114.83ZM18.5252 137.413C15.1704 134.594 12.4521 131.289 10.3941 127.685C3.06247 114.871 4.05281 98.2859 14.1037 86.3395C26.9813 71.0333 49.9066 69.0509 65.2156 81.9138C77.1575 91.9467 80.993 108.091 75.998 121.969C74.5898 125.885 72.4761 129.626 69.6392 132.999C56.7678 148.299 33.8352 150.276 18.5252 137.413Z" fill="#F4F5F7"/>
<path d="M46.7107 128.826C55.1492 127.06 58.8496 121.811 58.3616 116.179C57.6983 108.514 50.8948 107.079 44.7444 106.192L43.9449 96.9588C46.6869 97.0485 49.5909 97.7289 52.4969 99.0691L54.6385 92.1485C51.4849 90.5093 47.4266 89.7681 43.3249 89.7959L42.8122 83.8691L37.3788 84.3454L37.9069 90.3753C29.3962 92.0918 25.6515 97.3939 26.1497 103.149C26.8213 110.911 33.7227 112.338 39.8907 113.286L40.6696 122.354C36.7216 122.306 32.6922 121.18 29.7985 119.407L27.3825 126.29C30.5743 128.37 35.8788 129.601 41.2916 129.461L41.7982 135.382L47.2316 134.905L46.7117 128.825L46.7107 128.826ZM34.8555 101.959C34.7007 100.171 35.7034 98.4928 38.5269 97.5949L39.2006 105.302C36.7454 104.75 35.0205 103.857 34.8565 101.959H34.8555ZM46.0907 121.663L45.4418 114.169C47.8465 114.781 49.5042 115.674 49.6683 117.572C49.8199 119.323 48.7481 120.841 46.0907 121.663Z" fill="#F4F5F7"/>
<path d="M87.6622 54.9798C77.1233 62.052 62.7974 59.2386 55.7227 48.7108C53.026 44.6984 51.7695 40.1386 51.8242 35.6365C51.8541 33.252 52.2523 30.8798 53.0044 28.619C54.5528 23.9479 57.6053 19.7386 61.9989 16.7902C72.5337 9.72005 86.8606 12.5334 93.9374 23.0654C96.8899 27.4592 98.1185 32.5118 97.7802 37.4242C97.7482 37.9345 97.6976 38.4376 97.6275 38.9438C96.7836 45.2427 93.3453 51.1664 87.6611 54.9809L87.6622 54.9798Z" fill="#CDD1D9"/>
<path opacity="0.7" d="M94.0415 44.3679C96.8454 38.005 96.4317 30.3741 92.2702 24.1823C85.8134 14.5731 72.7347 12.0009 63.115 18.4566C56.9192 22.6153 53.6511 29.5122 53.8337 36.4648C53.9317 40.3102 55.0871 44.171 57.3855 47.5926C63.8454 57.2061 76.921 59.7741 86.5407 53.3184C89.9646 51.0205 92.491 47.8865 94.0405 44.3679H94.0415ZM58.283 46.9906C56.9409 44.9926 56.0083 42.8339 55.4688 40.6194C53.5469 32.7401 56.5922 24.1339 63.7175 19.3524C72.8451 13.2267 85.2512 15.6627 91.3779 24.7803C96.1573 31.8916 95.7261 40.9988 90.9776 47.5679C89.6386 49.4215 87.953 51.0761 85.9424 52.4256C76.8189 58.5483 64.4097 56.1081 58.283 46.9906Z" fill="#F4F5F7"/>
<path d="M74.472 46.7381C79.1968 47.0875 81.948 44.8783 82.5474 41.8308C83.3634 37.6824 79.989 35.8917 76.8767 34.4886L77.8588 29.4927C79.2927 29.9566 80.7225 30.7576 82.0533 31.9061L84.2372 28.5772C82.8208 27.2329 80.7916 26.2247 78.6211 25.6164L79.2514 22.4092L76.3103 21.835L75.6718 25.0989C70.9171 24.7123 68.1328 26.9432 67.521 30.0566C66.6947 34.2576 70.1217 36.0597 73.2341 37.4968L72.2664 42.403C70.1888 41.7783 68.2329 40.5721 66.9743 39.1958L64.6511 42.4628C66.0201 44.0463 68.6331 45.502 71.5123 46.2504L70.8789 49.4535L73.82 50.0277L74.4699 46.7381H74.472ZM72.2984 30.7504C72.4882 29.7834 73.2733 29.0494 74.9011 29.004L74.0841 33.1762C72.872 32.5112 72.0972 31.7772 72.2984 30.7504ZM75.2333 42.8618L76.0308 38.8061C77.2078 39.4948 77.9464 40.2185 77.7443 41.2453C77.5575 42.1927 76.7611 42.8308 75.2333 42.8618Z" fill="#F4F5F7"/>
<path d="M325.306 11.2715H79.3412C78.0764 11.2715 77.051 12.2962 77.051 13.5601V340.712C77.051 341.976 78.0764 343 79.3412 343H325.306C326.571 343 327.596 341.976 327.596 340.712V13.5601C327.596 12.2962 326.571 11.2715 325.306 11.2715Z" fill="#CDD1D9" stroke="#CDD1D9" stroke-width="3" stroke-miterlimit="10"/>
<path d="M314.275 23.7793H90.3721V331.092H314.275V23.7793Z" fill="#FCFDFF" stroke="#CDD1D9" stroke-width="3" stroke-miterlimit="10"/>
<path d="M285.459 7.66082H252.856L254.455 5.53505C256.221 3.18763 254.373 0 251.247 0H153.346C150.222 0 148.375 3.18351 150.137 5.53093L151.735 7.66082H119.135C116.406 7.66082 114.195 9.67423 114.195 12.1567V29.3216H290.4V12.1567C290.4 9.6732 288.188 7.66082 285.46 7.66082H285.459Z" fill="#002462"/>
<path d="M286.663 42.7568H117.932V61.9218H286.663V42.7568Z" fill="#FFB632"/>
<path d="M299.18 72.2861H100.64V95.416H299.18V72.2861Z" fill="#FCFDFF" stroke="#CDD1D9" stroke-width="3" stroke-miterlimit="10"/>
<path d="M299.18 95.4141H100.64V118.544H299.18V95.4141Z" fill="#FCFDFF" stroke="#CDD1D9" stroke-width="3" stroke-miterlimit="10"/>
<path d="M299.18 118.541H100.64V141.671H299.18V118.541Z" fill="#FCFDFF" stroke="#CDD1D9" stroke-width="3" stroke-miterlimit="10"/>
<path d="M299.18 141.31H100.64V164.439H299.18V141.31Z" fill="#FCFDFF" stroke="#CDD1D9" stroke-width="3" stroke-miterlimit="10"/>
<path d="M299.18 164.438H100.64V187.568H299.18V164.438Z" fill="#FCFDFF" stroke="#CDD1D9" stroke-width="3" stroke-miterlimit="10"/>
<path d="M299.18 187.564H100.64V210.694H299.18V187.564Z" fill="#FCFDFF" stroke="#CDD1D9" stroke-width="3" stroke-miterlimit="10"/>
<path d="M299.18 210.693H100.64V233.823H299.18V210.693Z" fill="#FCFDFF" stroke="#CDD1D9" stroke-width="3" stroke-miterlimit="10"/>
<path d="M299.18 233.822H100.64V256.952H299.18V233.822Z" fill="#FCFDFF" stroke="#CDD1D9" stroke-width="3" stroke-miterlimit="10"/>
<path d="M150.575 72.2861H100.64V256.953H150.575V72.2861Z" stroke="#CDD1D9" stroke-width="3" stroke-miterlimit="10"/>
<path d="M272.058 72.2861H150.548V256.953H272.058V72.2861Z" stroke="#CDD1D9" stroke-width="3" stroke-miterlimit="10"/>
<path d="M144.788 78.4805H105.112V88.3928H144.788V78.4805Z" fill="#CDD1D9"/>
<path d="M144.788 102.022H105.112V111.935H144.788V102.022Z" fill="#CDD1D9"/>
<path d="M144.788 124.581H105.112V134.493H144.788V124.581Z" fill="#CDD1D9"/>
<path d="M144.788 148.123H105.112V158.035H144.788V148.123Z" fill="#CDD1D9"/>
<path d="M144.788 171.568H105.112V181.481H144.788V171.568Z" fill="#CDD1D9"/>
<path d="M144.788 195.111H105.112V205.024H144.788V195.111Z" fill="#CDD1D9"/>
<path d="M144.788 217.669H105.112V227.581H144.788V217.669Z" fill="#CDD1D9"/>
<path d="M144.788 241.211H105.112V251.123H144.788V241.211Z" fill="#CDD1D9"/>
<path d="M265.032 78.4805H157.575V88.3928H265.032V78.4805Z" fill="#CDD1D9"/>
<path d="M265.032 102.022H157.575V111.935H265.032V102.022Z" fill="#CDD1D9"/>
<path d="M265.032 124.581H157.575V134.493H265.032V124.581Z" fill="#CDD1D9"/>
<path d="M265.032 148.123H157.575V158.035H265.032V148.123Z" fill="#CDD1D9"/>
<path d="M265.032 171.568H157.575V181.481H265.032V171.568Z" fill="#CDD1D9"/>
<path d="M265.032 195.111H157.575V205.024H265.032V195.111Z" fill="#CDD1D9"/>
<path d="M265.032 217.669H157.575V227.581H265.032V217.669Z" fill="#CDD1D9"/>
<path d="M265.032 241.211H157.575V251.123H265.032V241.211Z" fill="#CDD1D9"/>
<path d="M299.18 266.2H100.64V270.83H299.18V266.2Z" fill="#CDD1D9"/>
<path d="M299.18 274.502H100.64V279.132H299.18V274.502Z" fill="#CDD1D9"/>
<path d="M253.195 282.82H100.64V287.45H253.195V282.82Z" fill="#CDD1D9"/>
<path d="M152.299 301.72H100.64V306.35H152.299V301.72Z" fill="#CDD1D9"/>
<path d="M199.91 310.023H100.64V314.653H199.91V310.023Z" fill="#CDD1D9"/>
<path d="M414.67 41.9482H308.017C306.4 41.9482 305.09 43.2577 305.09 44.873V81.3585C305.09 82.9738 306.4 84.2833 308.017 84.2833H414.67C416.286 84.2833 417.597 82.9738 417.597 81.3585V44.873C417.597 43.2577 416.286 41.9482 414.67 41.9482Z" fill="#FFB632"/>
<path d="M337.943 75.4574H333.599V54.9419H325.821V50.9512H345.72V54.9419H337.943V75.4574Z" fill="white"/>
<path d="M371.328 75.4568H366.774L364.287 69.5403H352.691L350.169 75.4568H345.755L356.544 50.7754H360.538L371.327 75.4568H371.328ZM358.471 55.9218L354.268 65.7238H362.71L358.471 55.9218Z" fill="white"/>
<path d="M391.787 75.4574L385.342 66.18L378.861 75.4574H373.922L382.855 62.9945L374.272 50.9512H379.351L385.447 59.7388L391.578 50.9512H396.517L387.969 62.9244L396.868 75.4574H391.788H391.787Z" fill="white"/>
<path d="M31.8614 522.885L5.00003 543.539C5.00003 543.539 57.5319 612.871 60.4915 614.17C66.8053 616.943 67.2498 602.292 62.9207 586.054C59.0094 571.381 57.0515 556.804 57.0515 556.804" fill="#002462"/>
<path d="M186.419 580.029L186.039 613.897C186.039 613.897 271.719 615.332 274.571 613.811C280.657 610.57 270.74 601.371 255.295 594.724C241.34 588.717 228.669 581.236 228.669 581.236" fill="#002462"/>
<path d="M106.839 281.238L85.8814 434.795C85.3568 438.64 83.5346 442.19 80.7178 444.86L20.1382 509.789L67.3904 570.676L144.695 488.21C153.479 479.754 159.055 468.526 160.477 456.42C163.687 429.073 169.438 379.413 171.115 360.506L171.253 583.631L251.334 580.029C251.334 580.029 235.76 346.694 227.543 284.301C188.441 284.301 145.945 281.239 106.841 281.239L106.839 281.238Z" fill="#FFA502"/>
<path d="M205.434 128.518L181.976 227.753H176.437L164.557 124.166L184.655 132.558L205.434 128.518Z" fill="#FCFDFF"/>
<path d="M194.538 139.028L189.579 150.942L200.58 207.774L180.876 231.622L166.546 205.706L180.406 150.884L174.535 139.454L184.654 132.561L194.537 139.03L194.538 139.028Z" fill="#FFA502"/>
<path d="M168.742 119.107H170.637L180.876 227.918L204.422 123.445C253.505 102.647 277.074 212.804 288.099 213.189C302.067 213.676 317.784 202.511 331.831 219.264C339.716 228.67 336.199 247.153 333.393 253.219C320.438 281.227 260.185 291.935 233.912 256.452L234.596 315.333C200.601 330.461 180.263 294.592 180.263 294.592C180.263 294.592 155.268 338.458 99.0899 313.837L103.099 279.526C0.220276 253.227 79.7122 83.5148 168.742 119.108V119.107Z" fill="#002462"/>
<path d="M189.512 237.908C187.566 237.908 185.989 236.331 185.989 234.387C185.989 232.442 187.566 230.865 189.512 230.865C191.459 230.865 193.036 232.442 193.036 234.387C193.036 236.331 191.459 237.908 189.512 237.908Z" fill="#FCFDFF"/>
<path d="M189.512 275.247C187.566 275.247 185.989 273.671 185.989 271.726C185.989 269.781 187.566 268.205 189.512 268.205C191.459 268.205 193.036 269.781 193.036 271.726C193.036 273.671 191.459 275.247 189.512 275.247Z" fill="#FCFDFF"/>
<path d="M203.001 144.568L184.655 132.56L198.129 116.878L204.422 123.445L203.001 144.569V144.568Z" fill="#FCFDFF"/>
<path d="M168.505 143.562L184.655 132.56L172.556 116.878L164.415 123.471L168.504 143.562H168.505Z" fill="#FCFDFF"/>
<path d="M168.428 245.884C168.428 245.884 184.09 236.098 197.978 238.8C216.473 242.398 224.344 260.024 218.225 264.765C216.154 266.367 216.66 260.579 211.833 255.881C207.421 251.59 201.428 248.806 201.428 248.806C201.428 248.806 212.383 254.32 215.189 260.398C219.792 270.364 214.819 272.492 212.552 271.725C210.211 270.934 208.887 266.778 205.686 263.026C202.485 259.275 196.44 256.318 196.44 256.318C196.44 256.318 201.461 262.935 204.088 267.628C206.029 271.097 207.847 275.997 204.168 277.906C200.388 279.865 190.605 265.408 190.605 265.408C190.605 265.408 179.227 271.854 167.615 265.963" fill="#FFC7A0"/>
<path d="M338.386 203.408C343.777 203.408 348.159 208.035 348.159 213.78L337.597 277.163C337.597 282.908 333.216 287.595 327.826 287.595H327.765L193.401 288.326C191.052 288.326 189.092 286.368 189.092 284.021V280.988C189.092 278.64 191.052 276.741 193.401 276.741L211.295 276.011L221.613 213.78C221.614 208.036 225.994 203.408 231.385 203.408H338.387H338.386Z" fill="#1D283A"/>
<path d="M298.031 245.868C298.031 239.631 292.972 234.575 286.731 234.575C280.49 234.575 275.431 239.631 275.431 245.868C275.431 252.104 280.49 257.16 286.731 257.16C292.972 257.16 298.031 252.104 298.031 245.868Z" fill="#FCFDFF"/>
<path d="M342.162 237.144C342.162 237.144 358.02 235.2 358 228.626C358 222.679 346.278 226.848 346.278 226.848" fill="#FFC7A0"/>
<path d="M344.069 237.42C344.069 237.42 324.054 235.83 323.247 240.287C322.442 244.744 328.798 247.438 336.05 247.727C343.3 248.016 349.921 247.873 350.421 242.862C350.92 237.853 344.069 237.42 344.069 237.42Z" fill="#FFC7A0"/>
<path d="M343.171 248.345L337.25 248.448C337.25 248.448 323.655 247.525 323.004 250.188C321.971 254.422 327.921 257.279 334.87 257.869C341.818 258.46 348.186 258.61 348.956 253.832C349.726 249.053 343.171 248.345 343.171 248.345Z" fill="#FFC7A0"/>
<path d="M341.305 258.401L336.27 258.49C336.27 258.49 324.709 257.704 324.155 259.968C323.277 263.571 328.337 266 334.246 266.502C340.154 267.004 345.57 267.132 346.224 263.069C346.879 259.006 341.305 258.401 341.305 258.401Z" fill="#FFC7A0"/>
<path d="M201.998 60.3652C208.446 67.9586 214.71 95.253 210.899 103.577C205.392 115.633 190.931 122.782 179.315 114.928C168.065 107.309 160.522 71.6117 165.272 63.4965C172.268 51.5453 192.471 49.1447 201.998 60.3913V60.3652Z" fill="#FFC7A0"/>
<path d="M203.361 66.5841C203.361 66.5841 199.932 75.4674 190.505 78.9574C186.598 80.4049 178.542 78.2337 178.542 78.2337C178.542 78.2337 177.817 84.2997 173.903 87.2446C169.989 90.1906 162.885 90.0178 162.885 90.0178C162.885 90.0178 152.12 80.2913 153.581 71.6782C156.421 54.9356 171.732 60.2118 171.732 60.2118C171.732 60.2118 170.359 48.2502 182.902 46.1892C192.541 44.7127 196.145 52.3642 196.145 52.3642C196.145 52.3642 215.526 42.0125 224.068 57.5906C226.691 62.3738 226.386 70.6308 219.285 73.883C215.09 75.8061 208.518 73.6511 208.518 73.6511L203.363 66.5818L203.361 66.5841Z" fill="#002462"/>
</svg>

