<svg width="160" height="160" viewBox="0 0 160 160" fill="none" xmlns="http://www.w3.org/2000/svg">
<g id="Frame" clip-path="url(#clip0_793_108573)">
<g id="Group">
<g id="Layer 1">
<g id="Group_2">
<path id="Vector" d="M157.862 98.3124C167.981 55.304 141.319 12.2356 98.3109 2.11638C55.3025 -8.00283 12.2341 18.6591 2.11492 61.6675C-8.00428 104.676 18.6577 147.744 61.666 157.863C104.674 167.983 147.743 141.321 157.862 98.3124Z" fill="#FDB100"/>
<g id="Group_3" style="mix-blend-mode:multiply">
<path id="Vector_2" d="M159.76 85.9084C146.048 72.1958 100.2 26.4074 99.9002 26.108C99.7405 25.9084 99.6008 25.7288 99.4411 25.5691C90.1197 16.1479 79.1417 17.8844 73.0139 19.3815C65.7086 21.1779 59.9601 28.084 58.2435 34.112C56.6666 39.6409 57.5648 45.2896 58.0638 47.585C57.5249 47.1858 57.006 47.0062 56.5469 47.1659C55.2495 47.625 55.0898 50.5192 56.1876 53.6729C56.8064 55.4693 58.0239 56.9463 59.2016 57.8246C59.7006 58.4633 60.2395 58.9823 60.7784 59.4014C61.2575 60.0202 61.7764 60.5391 62.2954 60.9383C63.6127 63.8525 65.2295 66.5072 67.006 68.7427V73.2337L66.0878 72.6948C65.968 74.7906 65.0099 76.0082 64.0718 76.9663L58.7425 81.4373L57.8044 81.9363L54.0319 82.8944C54.0319 82.8944 40.9381 84.9503 38.5429 88.5232C34.2115 91.2976 33.9121 125.629 34.7704 125.769C34.8303 125.769 57.2056 148.224 68.0838 159.122C71.976 159.701 75.9481 160 79.98 160C122.176 160 156.707 127.326 159.74 85.9084H159.76Z" fill="#CCCCCC"/>
</g>
<g id="Group_4">
<path id="Vector_3" d="M83.2733 121.018L105.629 85.2894L93.932 76.5669L64.89 78.6228L53.8721 89.002L78.7623 123.613C80.2593 122.675 81.7563 121.836 83.2733 121.018Z" fill="#DBD5D5"/>
<path id="Vector_4" d="M121.437 88.5233C119.042 84.9504 105.968 82.8945 105.968 82.8945L97.5449 80.7588L80 122.815L62.4551 80.7588L54.0519 82.8945C54.0519 82.8945 40.9581 84.9504 38.5629 88.5233C34.2316 91.2977 33.9322 125.629 34.7905 125.769C35.5489 125.889 67.9641 125.789 74.3713 125.769C82.6148 125.789 124.471 125.889 125.23 125.769C126.088 125.649 125.768 91.2977 121.437 88.5233Z" fill="#161313"/>
<path id="Vector_5" d="M93.0138 62.5752H67.0059V82.8946H93.0138V62.5752Z" fill="#D1AB86"/>
<g id="Group_5">
<path id="Vector_6" d="M101.058 49.561C99.4611 65.2696 87.5848 76.9462 80.0599 76.9462C71.996 76.9462 60.9381 64.9502 59.0619 49.561C57.2255 34.551 68.4631 26.9263 80.0599 26.9263C91.6567 26.9263 102.595 34.5311 101.058 49.561Z" fill="#FFE2C2"/>
<path id="Vector_7" d="M58.2234 34.112C59.94 28.084 65.6885 21.1779 72.9939 19.3815C79.1216 17.8844 90.1196 16.1479 99.421 25.5691C100.639 26.8066 102.016 29.7807 102.096 32.8944C102.914 34.4114 103.373 36.4274 103.074 39.2018C102.016 49.122 101.098 51.9363 101.098 51.9363L98.6027 53.094C98.6027 53.094 99.8202 49.6809 98.2035 44.9703C97.7643 43.6928 97.1655 42.4952 96.5068 41.3974C85.8482 47.2856 69.3811 48.4433 62.0558 48.6429C61.8162 51.3375 62.415 53.094 62.415 53.094L59.92 51.9363C59.92 51.9363 59.6406 51.0781 59.2214 48.6828C58.6226 48.6828 58.2833 48.6828 58.2833 48.6828C58.2833 48.6828 56.1675 41.2976 58.2035 34.112H58.2234Z" fill="#0C0A0A"/>
<path id="Vector_8" d="M60.8782 52.0364C61.976 55.1901 62.8143 58.204 61.5169 58.6631C60.2195 59.1222 57.2854 56.8268 56.1876 53.6731C55.0898 50.5394 55.2495 47.6252 56.5469 47.1661C57.8443 46.707 59.7804 48.8827 60.8782 52.0364Z" fill="#FFE2C2"/>
<path id="Vector_9" d="M99.1418 52.0364C98.044 55.1901 97.2057 58.204 98.5031 58.6631C99.8005 59.1222 102.735 56.8268 103.832 53.6731C104.93 50.5394 104.771 47.6252 103.473 47.1661C102.176 46.707 100.24 48.8827 99.1418 52.0364Z" fill="#FFE2C2"/>
</g>
<g id="Group_6">
<path id="Vector_10" d="M86.5469 86.2478L80 91.7368L73.4531 86.2478L80 80.7588L86.5469 86.2478Z" fill="#0C0A0A"/>
<path id="Vector_11" d="M78.8225 90.4795L74.9702 109.302L79.7407 124.771L85.6489 109.302L81.2576 90.4795H78.8225Z" fill="#0C0A0A"/>
</g>
<g id="Group_7">
<path id="Vector_12" d="M66.0878 72.6948L80 80.7787L75.4292 90.5192L64.5709 80.4393C64.5709 80.4393 61.7166 79.7008 62.6747 78.4234C63.6328 77.1459 65.9282 75.9882 66.1078 72.6948H66.0878Z" fill="#FFF8F8"/>
<path id="Vector_13" d="M93.9323 72.7148L80.04 80.7787L84.6109 90.4793L95.4692 80.4393C95.4692 80.4393 98.3235 79.7008 97.3654 78.4234C96.4073 77.1459 94.1119 76.0082 93.9323 72.6948V72.7148Z" fill="#FFF8F8"/>
</g>
<path id="Vector_14" d="M80.0002 122.815L64.092 76.9463L58.7427 81.4373L53.1738 84.4313L60.0002 95.8285L63.1339 95.7886L61.1379 102.375L80.0002 122.815Z" fill="#333030"/>
<path id="Vector_15" d="M80 122.815L95.9281 76.9463L101.257 81.1179L107.325 84.4313L100 95.8285L96.8663 95.7886L98.8623 102.375L80 122.815Z" fill="#333030"/>
</g>
</g>
</g>
</g>
</g>
<defs>
<clipPath id="clip0_793_108573">
<rect width="160" height="160" fill="white"/>
</clipPath>
</defs>
</svg>
