<svg width="48" height="48" viewBox="0 0 48 48" fill="none" xmlns="http://www.w3.org/2000/svg">
<g id="wrapper">
<path id="Union" fill-rule="evenodd" clip-rule="evenodd" d="M13.5455 4.75195L13.6 4.75195H34.4L34.4545 4.75195C36.0885 4.75194 37.391 4.75193 38.4426 4.83785C39.5204 4.92591 40.4441 5.11043 41.2914 5.54216C42.6556 6.23724 43.7647 7.34635 44.4598 8.71052C44.8915 9.55784 45.076 10.4816 45.1641 11.5594C45.25 12.6109 45.25 13.9135 45.25 15.5474V15.602V30.0004C45.25 30.0014 45.25 30.0025 45.25 30.0035V32.402V32.4565C45.25 34.0904 45.25 35.393 45.1641 36.4445C45.076 37.5223 44.8915 38.4461 44.4598 39.2934C43.7647 40.6576 42.6556 41.7667 41.2914 42.4618C40.4441 42.8935 39.5204 43.078 38.4426 43.1661C37.391 43.252 36.0885 43.252 34.4545 43.252H34.4H13.6H13.5455C11.9115 43.252 10.609 43.252 9.55742 43.1661C8.47961 43.078 7.55589 42.8935 6.70857 42.4618C5.34439 41.7667 4.23528 40.6576 3.5402 39.2934C3.10847 38.4461 2.92396 37.5223 2.8359 36.4445C2.74998 35.393 2.74999 34.0904 2.75 32.4564L2.75 32.402V15.602L2.75 15.5475C2.74999 13.9135 2.74998 12.6109 2.8359 11.5594C2.92396 10.4816 3.10847 9.55784 3.5402 8.71052C4.23529 7.34635 5.34439 6.23724 6.70857 5.54216C7.55589 5.11043 8.47961 4.92591 9.55742 4.83785C10.609 4.75193 11.9115 4.75194 13.5455 4.75195ZM42.75 26.9842V15.602C42.75 13.9012 42.749 12.7008 42.6724 11.763C42.597 10.8397 42.4545 10.2816 42.2323 9.8455C41.7769 8.95173 41.0502 8.22507 40.1565 7.76967C39.7203 7.54744 39.1622 7.40498 38.239 7.32955C37.3012 7.25293 36.1008 7.25195 34.4 7.25195H13.6C11.8992 7.25195 10.6988 7.25293 9.761 7.32955C8.83779 7.40498 8.2797 7.54744 7.84355 7.76967C6.94978 8.22507 6.22312 8.95173 5.76772 9.8455C5.54549 10.2816 5.40302 10.8397 5.32759 11.763C5.25097 12.7008 5.25 13.9012 5.25 15.602V32.402C5.25 34.1027 5.25097 35.3031 5.32759 36.241C5.40302 37.1642 5.54549 37.7223 5.76772 38.1584C6.22312 39.0522 6.94978 39.7788 7.84355 40.2342C7.87788 40.2517 7.91298 40.2687 7.94894 40.2852L20.8534 27.3808L20.8858 27.3484C21.254 26.9801 21.582 26.6521 21.8764 26.4022C22.1906 26.1354 22.5479 25.8849 22.9957 25.7394C23.6484 25.5274 24.3516 25.5274 25.0043 25.7394C25.4521 25.8849 25.8094 26.1354 26.1236 26.4022C26.418 26.6521 26.746 26.9801 27.1142 27.3483L27.1466 27.3808L28 28.2342L32.8534 23.3808L32.8858 23.3484C33.254 22.9801 33.582 22.6522 33.8764 22.4022C34.1906 22.1354 34.5479 21.8849 34.9957 21.7394C35.6484 21.5274 36.3516 21.5274 37.0043 21.7394C37.4521 21.8849 37.8094 22.1354 38.1236 22.4022C38.4181 22.6522 38.746 22.9802 39.1143 23.3485L39.1466 23.3808L42.75 26.9842ZM29.7678 30.002L34.6211 25.1486C35.0317 24.738 35.2872 24.4839 35.4944 24.308C35.689 24.1428 35.7584 24.1203 35.7681 24.1171L35.7682 24.1171C35.9189 24.0681 36.0811 24.0681 36.2318 24.1171L36.2319 24.1171C36.2416 24.1203 36.311 24.1428 36.5056 24.308C36.7128 24.4839 36.9683 24.738 37.3789 25.1486L42.75 30.5197V32.402C42.75 34.1027 42.749 35.3031 42.6724 36.241C42.597 37.1642 42.4545 37.7223 42.2323 38.1584C41.7769 39.0522 41.0502 39.7788 40.1565 40.2342C40.1221 40.2517 40.087 40.2687 40.0511 40.2852L29.7678 30.002ZM27.1161 30.8858L25.3789 29.1486C24.9683 28.738 24.7128 28.4839 24.5057 28.308C24.311 28.1428 24.2416 28.1203 24.232 28.1171L24.2318 28.1171C24.0811 28.0681 23.9189 28.0681 23.7682 28.1171L23.768 28.1171C23.7584 28.1203 23.689 28.1428 23.4944 28.308C23.2872 28.4839 23.0317 28.738 22.6211 29.1486L11.0348 40.7349C11.7448 40.7516 12.5829 40.752 13.6 40.752H34.4C35.4171 40.752 36.2552 40.7516 36.9652 40.7349L27.1161 30.8858ZM16 15.252C14.4812 15.252 13.25 16.4832 13.25 18.002C13.25 19.5207 14.4812 20.752 16 20.752C17.5188 20.752 18.75 19.5207 18.75 18.002C18.75 16.4832 17.5188 15.252 16 15.252ZM10.75 18.002C10.75 15.1025 13.1005 12.752 16 12.752C18.8995 12.752 21.25 15.1025 21.25 18.002C21.25 20.9014 18.8995 23.252 16 23.252C13.1005 23.252 10.75 20.9014 10.75 18.002Z" fill="#7F8A9D"/>
</g>
</svg>
