<svg width="735" height="357" viewBox="0 0 735 357" fill="none" xmlns="http://www.w3.org/2000/svg">
<g clip-path="url(#clip0_6278_409835)">
<g style="mix-blend-mode:multiply">
<path d="M367.46 294.59C299.78 294.59 244.72 239.53 244.72 171.85C244.72 104.17 299.78 49.1104 367.46 49.1104C435.14 49.1104 490.2 104.17 490.2 171.85C490.2 239.53 435.14 294.59 367.46 294.59ZM367.46 50.1104C300.33 50.1104 245.72 104.72 245.72 171.85C245.72 238.98 300.33 293.59 367.46 293.59C434.59 293.59 489.2 238.98 489.2 171.85C489.2 104.72 434.59 50.1104 367.46 50.1104Z" fill="#002462" fill-opacity="0.1"/>
</g>
<g style="mix-blend-mode:multiply">
<path d="M457.04 268.84L452.97 264.43C478.72 240.63 493.49 206.89 493.49 171.85C493.49 153.01 489.44 134.9 481.44 118L486.86 115.43C495.24 133.13 499.49 152.11 499.49 171.84C499.49 208.55 484.02 243.9 457.04 268.83V268.84Z" fill="#002462" fill-opacity="0.1"/>
</g>
<g style="mix-blend-mode:multiply">
<path d="M314.12 292.66C289.59 281.81 269.16 263.99 255.04 241.11L260.15 237.96C273.63 259.8 293.14 276.82 316.55 287.17L314.12 292.66Z" fill="#002462" fill-opacity="0.5"/>
</g>
<g style="mix-blend-mode:multiply">
<path d="M245.41 222.28C238.79 206.28 235.43 189.31 235.43 171.85C235.43 138.72 247.75 107.04 270.13 82.6396L274.55 86.6996C253.19 109.99 241.43 140.23 241.43 171.86C241.43 188.53 244.63 204.73 250.95 220L245.41 222.29V222.28Z" fill="#002462" fill-opacity="0.1"/>
</g>
<g style="mix-blend-mode:multiply">
<path d="M307.77 60.8297L304.92 55.5497C317.96 48.5197 332 43.7797 346.62 41.4697L347.56 47.3997C333.6 49.6097 320.21 54.1297 307.76 60.8397L307.77 60.8297Z" fill="#002462" fill-opacity="0.1"/>
</g>
<g style="mix-blend-mode:multiply">
<path d="M406.53 52.0003C393.96 47.9003 380.81 45.8303 367.45 45.8303C364.66 45.8303 361.83 45.9203 359.06 46.1003L358.67 40.1103C361.58 39.9203 364.53 39.8203 367.46 39.8203C381.45 39.8203 395.22 42.0003 408.4 46.2903L406.54 52.0003H406.53Z" fill="#002462" fill-opacity="0.1"/>
</g>
<g style="mix-blend-mode:multiply">
<path d="M451.33 77.7898C439.88 67.5698 426.84 59.6198 412.58 54.1498L414.73 48.5498C429.67 54.2798 443.33 62.6098 455.32 73.3198L451.33 77.7998V77.7898Z" fill="#002462" fill-opacity="0.5"/>
</g>
<g style="mix-blend-mode:multiply">
<path d="M518.83 153.03L518.78 152.58L532.66 150.77L532.73 151.31L518.83 153.03Z" fill="#002462" fill-opacity="0.3"/>
<path d="M524.18 228.269L511.01 223.509L511.33 222.619L524.54 227.269L524.19 228.269H524.18ZM525.87 223.349L512.56 218.999L512.85 218.109L526.2 222.339L525.87 223.349ZM527.4 218.349L513.96 214.439L514.22 213.519L527.69 217.339L527.4 218.339V218.349ZM528.78 213.309L515.21 209.859L515.45 208.919L529.03 212.319L528.78 213.309ZM529.99 208.269L516.33 205.189L516.53 204.269L530.21 207.229L529.98 208.259L529.99 208.269ZM531.05 203.139L517.29 200.549L517.47 199.589L531.24 202.129L531.05 203.139ZM531.94 198.019L518.11 195.839L518.26 194.889L532.1 196.989L531.94 198.019ZM532.67 192.849L518.78 191.119L518.9 190.149L532.8 191.829L532.68 192.839L532.67 192.849ZM533.24 187.679L519.3 186.359L519.39 185.409L533.34 186.639L533.25 187.679H533.24ZM533.65 182.499L519.68 181.589L519.74 180.659L533.72 181.439L533.66 182.499H533.65ZM533.9 177.289L519.91 176.839L519.94 175.879L533.94 176.249L533.91 177.289H533.9ZM533.98 172.079H519.98V171.109L533.98 171.059V172.079ZM519.92 167.289L519.89 166.329L533.88 165.839L533.91 166.879L519.92 167.289ZM519.7 162.509L519.64 161.579L533.61 160.629L533.68 161.689L519.7 162.509ZM519.34 157.759L519.25 156.809L533.18 155.449L533.28 156.489L519.34 157.759Z" fill="#002462" fill-opacity="0.3"/>
<path d="M522.52 232.679L509.52 227.489L509.67 227.109L522.74 232.129L522.52 232.679Z" fill="#002462" fill-opacity="0.3"/>
</g>
<g style="mix-blend-mode:multiply">
<path d="M262.01 300.74L261.62 300.42L270.49 289.59L270.87 289.9L262.01 300.74Z" fill="#002462" fill-opacity="0.3"/>
<path d="M258.32 297.62L257.51 296.91L266.75 286.4L267.5 287.05L258.32 297.62ZM254.31 294.03L253.52 293.3L263.1 283.09L263.82 283.76L254.31 294.03ZM250.42 290.31L249.66 289.55L259.56 279.65L260.26 280.35L250.42 290.31ZM246.65 286.46L245.91 285.68L256.12 276.1L256.8 276.82L246.65 286.46ZM243.01 282.5L242.3 281.7L252.82 272.46L253.47 273.2L243.01 282.51V282.5ZM239.5 278.42L238.81 277.58L249.64 268.7L250.26 269.45L239.5 278.41V278.42ZM236.13 274.25C235.9 273.96 235.68 273.67 235.45 273.38L246.56 264.86L247.15 265.62L236.13 274.25ZM232.88 269.95C232.66 269.65 232.45 269.36 232.23 269.06L243.61 260.9L244.17 261.68L232.88 269.95Z" fill="#002462" fill-opacity="0.3"/>
<path d="M241.063 257.284L229.473 265.137L229.754 265.551L241.344 257.698L241.063 257.284Z" fill="#002462" fill-opacity="0.3"/>
</g>
<g style="mix-blend-mode:multiply">
<path d="M509.47 188.68L493.58 186.82C494.16 181.88 494.45 176.85 494.45 171.85C494.45 166.85 494.19 162.32 493.66 157.64L509.56 155.87C510.15 161.14 510.44 166.52 510.44 171.85C510.44 177.47 510.11 183.13 509.46 188.68H509.47Z" fill="#002462" fill-opacity="0.1"/>
</g>
<g style="mix-blend-mode:multiply">
<path d="M424.26 303.11L417.9 288.43C446.45 276.06 469.43 253.71 482.6 225.49L497.1 232.26C482.28 264.02 456.41 289.18 424.27 303.11H424.26Z" fill="#002462" fill-opacity="0.5"/>
</g>
<g style="mix-blend-mode:multiply">
<path d="M355.22 314.32C322.14 311.51 290.86 297.1 267.13 273.73L278.36 262.33C299.44 283.09 327.21 295.89 356.58 298.38L355.23 314.32H355.22Z" fill="#002462" fill-opacity="0.1"/>
</g>
<g style="mix-blend-mode:multiply">
<path d="M367.46 332.03C333.9 332.03 301.78 321.77 274.55 302.35L276.29 299.91C303 318.96 334.53 329.03 367.46 329.03C426.84 329.03 480.52 296.15 507.54 243.22L510.21 244.58C482.67 298.52 427.97 332.03 367.46 332.03Z" fill="#002462" fill-opacity="0.5"/>
</g>
<g style="mix-blend-mode:multiply">
<path d="M223.5 248.23C211.08 224.88 204.52 198.46 204.52 171.85C204.52 132.12 218.98 93.8496 245.23 64.0996L261.73 78.6496C239.02 104.39 226.52 137.49 226.52 171.85C226.52 194.88 232.19 217.72 242.92 237.91L223.49 248.24L223.5 248.23Z" fill="#002462" fill-opacity="0.5"/>
</g>
<g style="mix-blend-mode:multiply">
<path d="M504.57 139.06C497.36 108.76 479.9 81.3002 455.43 61.7202C430.23 41.5602 399.81 30.9102 367.46 30.9102C358.15 30.9102 348.85 31.8202 339.8 33.6202L335.51 12.0402C345.96 9.96016 356.71 8.91016 367.46 8.91016C404.32 8.91016 440.44 21.5702 469.17 44.5502C497.45 67.1702 517.63 98.9302 525.97 133.97L504.57 139.07V139.06Z" fill="#002462" fill-opacity="0.5"/>
</g>
<g style="mix-blend-mode:multiply">
<path d="M488.97 255.5L480.74 249.82C496.59 226.84 504.97 199.88 504.97 171.85C504.97 142.18 495.67 113.93 478.08 90.1502L486.12 84.2002C504.99 109.71 514.97 140.02 514.97 171.84C514.97 201.9 505.98 230.83 488.98 255.49L488.97 255.5Z" fill="#002462" fill-opacity="0.1"/>
</g>
<g style="mix-blend-mode:multiply">
<path d="M367.46 319.36C337.16 319.36 308.05 310.24 283.28 292.99L288.99 284.78C312.08 300.86 339.22 309.35 367.46 309.35C399.1 309.35 429.98 298.34 454.43 278.36L460.76 286.1C434.53 307.54 401.4 319.35 367.46 319.35V319.36Z" fill="#002462" fill-opacity="0.1"/>
</g>
<g style="mix-blend-mode:multiply">
<path d="M245.34 255.5L245.06 255.09C243.8 253.24 242.56 251.33 241.39 249.43L241.13 249L250.49 243.22L250.75 243.65C251.84 245.41 252.98 247.18 254.15 248.89L254.43 249.3L245.34 255.49V255.5ZM242.5 249.33C243.5 250.94 244.54 252.54 245.6 254.11L253.04 249.04C252.05 247.58 251.09 246.09 250.16 244.6L242.5 249.33Z" fill="#002462" fill-opacity="0.1"/>
<path d="M234.96 136.84L224.33 134L224.46 133.52C225.65 129.08 227.06 124.64 228.67 120.32L228.84 119.85L239.15 123.68L238.98 124.15C237.5 128.13 236.19 132.24 235.09 136.36L234.96 136.84ZM225.56 133.29L234.25 135.62C235.29 131.8 236.5 127.98 237.87 124.27L229.43 121.14C227.97 125.12 226.67 129.2 225.56 133.3V133.29Z" fill="#002462" fill-opacity="0.1"/>
<path d="M237.36 242.48L237.12 242.04C234.93 237.98 232.91 233.78 231.12 229.55L230.92 229.09L241.05 224.8L241.24 225.26C242.9 229.18 244.77 233.06 246.79 236.81L247.03 237.25L237.35 242.48H237.36ZM232.24 229.62C233.9 233.51 235.76 237.38 237.77 241.12L245.69 236.84C243.82 233.34 242.09 229.74 240.53 226.1L232.24 229.61V229.62Z" fill="#002462" fill-opacity="0.1"/>
<path d="M228.19 222.08L228.02 221.61C226.47 217.27 225.11 212.81 223.98 208.36L223.86 207.88L234.52 205.18L234.64 205.66C235.68 209.78 236.94 213.91 238.37 217.92L238.54 218.39L228.18 222.09L228.19 222.08ZM225.08 208.59C226.14 212.69 227.38 216.8 228.8 220.8L237.28 217.78C235.96 214.04 234.8 210.21 233.81 206.39L225.09 208.6L225.08 208.59Z" fill="#002462" fill-opacity="0.1"/>
<path d="M251.42 98.9802L242.13 93.0902L242.4 92.6702C244.86 88.7902 247.54 84.9702 250.36 81.3402L250.67 80.9502L259.37 87.6802L259.06 88.0802C256.45 91.4502 253.97 94.9802 251.69 98.5802L251.42 99.0002V98.9802ZM243.51 92.7702L251.11 97.5902C253.24 94.2602 255.54 90.9802 257.96 87.8402L250.84 82.3302C248.26 85.6902 245.79 89.2002 243.51 92.7702Z" fill="#002462" fill-opacity="0.1"/>
<path d="M230.6 185.31L220.65 186.27C221.09 190.84 221.76 195.43 222.63 199.93L232.45 198.04C231.64 193.85 231.02 189.56 230.61 185.31H230.6Z" fill="#002462" fill-opacity="0.5"/>
<path d="M232.78 143.93L222.99 141.91C222.07 146.39 221.34 150.98 220.84 155.54L230.78 156.63C231.25 152.37 231.92 148.1 232.78 143.92V143.93Z" fill="#002462" fill-opacity="0.5"/>
<path d="M241.75 117.28L231.68 112.86L231.88 112.4C233.73 108.19 235.8 104.02 238.04 99.9898L238.28 99.5498L247.89 104.9L247.65 105.34C245.58 109.07 243.66 112.93 241.95 116.82L241.75 117.28ZM232.99 112.34L241.23 115.96C242.83 112.34 244.61 108.76 246.53 105.29L238.66 100.91C236.61 104.63 234.7 108.47 232.99 112.34Z" fill="#002462" fill-opacity="0.1"/>
<path d="M229.95 171.85C229.95 169.41 230.01 166.95 230.14 164.53L220.15 164.01C220.01 166.6 219.94 169.24 219.94 171.85C219.94 173.84 219.98 175.84 220.06 177.8L230.05 177.4C229.98 175.57 229.94 173.7 229.94 171.85H229.95Z" fill="#002462" fill-opacity="0.5"/>
<path d="M387.81 36.34L387.31 36.27C383.11 35.66 378.81 35.24 374.55 35.02L374.05 34.99L374.61 24L375.11 24.03C379.72 24.27 384.35 24.72 388.9 25.38L389.39 25.45L387.81 36.34ZM375.11 34.05C379.08 34.27 383.06 34.66 386.97 35.21L388.26 26.3C384.07 25.71 379.81 25.29 375.56 25.06L375.1 34.05H375.11Z" fill="#002462" fill-opacity="0.1"/>
<path d="M353.35 35.5598L352.27 24.6098L352.77 24.5598C357.34 24.1098 361.99 23.8698 366.59 23.8398H367.09L367.15 34.8398H366.65C362.38 34.8698 358.07 35.0898 353.84 35.5098L353.34 35.5598H353.35ZM353.37 25.5098L354.25 34.4698C358.18 34.0998 362.18 33.8898 366.15 33.8498L366.1 24.8498C361.85 24.8898 357.58 25.1098 353.37 25.5098Z" fill="#002462" fill-opacity="0.1"/>
<path d="M332.99 39.2096L330.27 28.5496L330.75 28.4296C335.2 27.2896 339.77 26.3596 344.32 25.6396L344.81 25.5596L346.52 36.4296L346.03 36.5096C341.82 37.1696 337.6 38.0396 333.48 39.0896L332.99 39.2096ZM331.48 29.2796L333.71 37.9996C337.55 37.0396 341.47 36.2296 345.38 35.5996L343.98 26.7096C339.79 27.3796 335.59 28.2496 331.48 29.2796Z" fill="#002462" fill-opacity="0.1"/>
<path d="M395.2 37.1396C399.39 37.9996 403.58 39.0596 407.67 40.3096L410.59 30.7496C406.21 29.4096 401.7 28.2696 397.21 27.3496L395.2 37.1496V37.1396Z" fill="#002462" fill-opacity="0.5"/>
<path d="M263.73 82.3301L255.43 75.1101L255.76 74.7301C258.78 71.2601 262 67.8901 265.33 64.7201L265.69 64.3701L273.28 72.3301L272.92 72.6701C269.84 75.6001 266.86 78.7201 264.06 81.9401L263.73 82.3201V82.3301ZM256.85 75.0201L263.64 80.9301C266.26 77.9501 269.02 75.0501 271.87 72.3101L265.66 65.8001C262.6 68.7401 259.64 71.8301 256.85 75.0201Z" fill="#002462" fill-opacity="0.1"/>
<path d="M415.17 42.84C419.18 44.32 423.16 46.01 427.01 47.87L431.35 38.86C427.22 36.87 422.94 35.05 418.64 33.46L415.17 42.84Z" fill="#002462" fill-opacity="0.5"/>
<path d="M278.4 67.7295L271.28 59.3495L271.66 59.0295C275.17 56.0495 278.86 53.1995 282.62 50.5595L283.03 50.2695L289.34 59.2795L288.93 59.5695C285.44 62.0095 282.03 64.6495 278.78 67.4095L278.4 67.7295ZM272.69 59.4595L278.52 66.3195C281.55 63.7695 284.71 61.3195 287.95 59.0295L282.79 51.6595C279.33 54.0995 275.94 56.7195 272.7 59.4595H272.69Z" fill="#002462" fill-opacity="0.1"/>
<path d="M313.42 45.9099L309.11 35.7899L309.57 35.5899C313.8 33.7899 318.17 32.1699 322.55 30.7799L323.03 30.6299L326.36 41.1099L325.88 41.2599C321.82 42.5499 317.78 44.0499 313.87 45.7099L313.41 45.9099H313.42ZM310.42 36.3199L313.94 44.5999C317.58 43.0699 321.34 41.6699 325.1 40.4599L322.37 31.8799C318.33 33.1799 314.31 34.6699 310.41 36.3099L310.42 36.3199Z" fill="#002462" fill-opacity="0.3"/>
<path d="M289.99 46.2996L295.25 54.8096C298.89 52.5596 302.67 50.4596 306.5 48.5596L302.06 39.5996C297.95 41.6296 293.89 43.8896 289.99 46.2996Z" fill="#002462" fill-opacity="0.5"/>
<path d="M439.01 42.8301L434.15 51.5701C435.97 52.5801 437.79 53.6501 439.56 54.7401L444.81 46.2301C442.91 45.0601 440.96 43.9101 439.01 42.8301Z" fill="#002462" fill-opacity="0.5"/>
</g>
<g style="mix-blend-mode:multiply">
<path d="M214.83 187.04L203.94 180.75L214.83 174.46V187.03V187.04ZM205.94 180.76L213.83 185.31V176.2L205.94 180.75V180.76Z" fill="#002462" fill-opacity="0.1"/>
<path d="M202.33 187.04L191.44 180.75L202.33 174.46V187.03V187.04ZM193.44 180.76L201.33 185.31V176.2L193.44 180.75V180.76Z" fill="#002462" fill-opacity="0.1"/>
<path d="M189.83 187.04L178.94 180.75L189.83 174.46V187.03V187.04ZM180.94 180.76L188.83 185.31V176.2L180.94 180.75V180.76Z" fill="#002462" fill-opacity="0.1"/>
<path d="M177.32 187.04L166.43 180.75L177.32 174.46V187.03V187.04ZM168.44 180.76L176.33 185.31V176.2L168.44 180.75V180.76Z" fill="#002462" fill-opacity="0.1"/>
<path d="M164.82 187.04L153.93 180.75L164.82 174.46V187.03V187.04ZM155.93 180.76L163.82 185.31V176.2L155.93 180.75V180.76Z" fill="#002462" fill-opacity="0.1"/>
</g>
<g style="mix-blend-mode:multiply">
<path d="M531.3 72.0401V45.1201L554.61 58.5801L531.3 72.0401ZM532.3 46.8501V70.3001L552.61 58.5701L532.3 46.8401V46.8501Z" fill="#002462" fill-opacity="0.1"/>
<path d="M560.84 45.9902L582.65 58.5802L560.84 71.1702V45.9902Z" fill="#002462" fill-opacity="0.1"/>
<path d="M589.89 45.9902L611.7 58.5802L589.89 71.1702V45.9902Z" fill="#002462" fill-opacity="0.1"/>
<path d="M618.44 72.0401V45.1201L641.75 58.5801L618.44 72.0401ZM619.44 46.8501V70.3001L639.75 58.5701L619.44 46.8401V46.8501Z" fill="#002462" fill-opacity="0.1"/>
<path d="M647.48 72.0401V45.1201L670.79 58.5801L647.48 72.0401ZM648.48 46.8501V70.3001L668.79 58.5701L648.48 46.8401V46.8501Z" fill="#002462" fill-opacity="0.1"/>
</g>
<g style="mix-blend-mode:multiply">
<path d="M586.12 237.54L597.14 243.9L586.12 250.26V237.54Z" fill="#002462" fill-opacity="0.1"/>
<path d="M600.79 237.54L611.82 243.9L600.79 250.26V237.54Z" fill="#002462" fill-opacity="0.1"/>
<path d="M615.47 237.54L626.5 243.9L615.47 250.26V237.54Z" fill="#002462" fill-opacity="0.1"/>
<path d="M630.15 237.54L641.17 243.9L630.15 250.26V237.54Z" fill="#002462" fill-opacity="0.1"/>
<path d="M644.83 237.54L655.85 243.9L644.83 250.26V237.54Z" fill="#002462" fill-opacity="0.1"/>
</g>
<g style="mix-blend-mode:multiply">
<path d="M708.54 97.8398L717.93 103.26L708.54 108.68V97.8398Z" fill="#002462" fill-opacity="0.1"/>
</g>
<g style="mix-blend-mode:multiply">
<path d="M9.39 139.2L0 133.78L9.39 128.36V139.2Z" fill="#002462" fill-opacity="0.1"/>
</g>
<g style="mix-blend-mode:multiply">
<path d="M21.9601 197.02L12.5701 191.6L21.9601 186.18V197.02Z" fill="#002462" fill-opacity="0.1"/>
</g>
<g style="mix-blend-mode:multiply">
<path d="M52.85 215.45L43.46 210.03L52.85 204.61V215.45Z" fill="#002462" fill-opacity="0.1"/>
</g>
<g style="mix-blend-mode:multiply">
<path d="M713.23 185.42L722.62 190.84L713.23 196.26V185.42Z" fill="#002462" fill-opacity="0.1"/>
</g>
<g style="mix-blend-mode:multiply">
<path d="M682.07 204.61L691.46 210.03L682.07 215.45V204.61Z" fill="#002462" fill-opacity="0.1"/>
</g>
<g style="mix-blend-mode:multiply">
<path d="M613.05 146.25L622.44 151.67L613.05 157.09V146.25Z" fill="#002462" fill-opacity="0.5"/>
</g>
<g style="mix-blend-mode:multiply">
<path d="M121.87 157.09L112.48 151.67L121.87 146.25V157.09Z" fill="#002462" fill-opacity="0.5"/>
</g>
<g style="mix-blend-mode:multiply">
<path d="M26.38 235.31L16.99 229.89L26.38 224.47V235.31Z" fill="#002462" fill-opacity="0.5"/>
</g>
<g style="mix-blend-mode:multiply">
<path d="M725.53 225.92L734.92 231.34L725.53 236.76V225.92Z" fill="#002462" fill-opacity="0.5"/>
</g>
<g style="mix-blend-mode:multiply">
<path d="M575.13 130.11H475.74V129.11H574.72L601.07 102.76H708.54V103.76H601.49L575.13 130.11Z" fill="#002462" fill-opacity="0.1"/>
</g>
<g style="mix-blend-mode:multiply">
<path d="M665.32 148.18L629.51 112.38H482.1V111.38H629.93L666.02 147.47L665.32 148.18Z" fill="#002462" fill-opacity="0.5"/>
</g>
<g style="mix-blend-mode:multiply">
<path d="M589.35 229.38H468.24V228.38H588.94L626.63 190.69H712.95V191.69H627.04L589.35 229.38Z" fill="#002462" fill-opacity="0.1"/>
</g>
<g style="mix-blend-mode:multiply">
<path d="M670.6 256.78H629.33L558.47 185.92H482.1V184.92H558.88L629.74 255.78H670.19L695.22 230.75H725.53V231.75H695.63L670.6 256.78Z" fill="#002462" fill-opacity="0.5"/>
</g>
<g style="mix-blend-mode:multiply">
<path d="M682.07 209.53H477.9V210.53H682.07V209.53Z" fill="#002462" fill-opacity="0.1"/>
</g>
<g style="mix-blend-mode:multiply">
<path d="M613.05 151.17H482.1V152.17H613.05V151.17Z" fill="#002462" fill-opacity="0.5"/>
</g>
<g style="mix-blend-mode:multiply">
<path d="M259.18 256.75H159.78L133.43 230.39H26.3799V229.39H133.85L160.2 255.75H259.18V256.75Z" fill="#002462" fill-opacity="0.5"/>
</g>
<g style="mix-blend-mode:multiply">
<path d="M45.23 172.55L44.52 171.84L104.99 111.38H252.82V112.38H105.4L45.23 172.55Z" fill="#002462" fill-opacity="0.5"/>
</g>
<g style="mix-blend-mode:multiply">
<path d="M266.68 229.38H145.56L107.88 191.69H21.96V190.69H108.29L145.98 228.38H266.68V229.38Z" fill="#002462" fill-opacity="0.1"/>
</g>
<g style="mix-blend-mode:multiply">
<path d="M105.59 159.38H64.3099L39.2799 134.35H9.38989V133.35H39.6999L64.7299 158.38H105.17L176.03 87.5195H252.82V88.5195H176.45L105.59 159.38Z" fill="#002462" fill-opacity="0.1"/>
</g>
<g style="mix-blend-mode:multiply">
<path d="M257.02 209.53H52.8501V210.53H257.02V209.53Z" fill="#002462" fill-opacity="0.1"/>
</g>
<g style="mix-blend-mode:multiply">
<path d="M252.82 151.17H121.87V152.17H252.82V151.17Z" fill="#002462" fill-opacity="0.5"/>
</g>
<g style="mix-blend-mode:multiply">
<path d="M583.38 182.18H576.75L573.43 176.44L576.75 170.7H583.38L586.69 176.44L583.38 182.18ZM577.32 181.18H582.8L585.54 176.44L582.8 171.7H577.32L574.58 176.44L577.32 181.18Z" fill="#002462" fill-opacity="0.5"/>
</g>
<g style="mix-blend-mode:multiply">
<path d="M597.37 171.2H591.31L588.29 176.44L591.31 181.68H597.37L600.4 176.44L597.37 171.2Z" fill="#002462" fill-opacity="0.1"/>
</g>
<g style="mix-blend-mode:multiply">
<path d="M611.65 171.2H605.59L602.57 176.44L605.59 181.68H611.65L614.68 176.44L611.65 171.2Z" fill="#002462" fill-opacity="0.1"/>
</g>
<g style="mix-blend-mode:multiply">
<path d="M169.31 61.2204H148.05L137.42 42.8104L148.05 24.4004H169.31L179.94 42.8104L169.31 61.2204ZM148.63 60.2204H168.73L178.78 42.8104L168.73 25.4004H148.63L138.58 42.8104L148.63 60.2204Z" fill="#002462" fill-opacity="0.1"/>
</g>
<g style="mix-blend-mode:multiply">
<path d="M90.02 276.11H72.48L63.72 291.29L72.48 306.48H90.02L98.78 291.29L90.02 276.11Z" fill="#002462" fill-opacity="0.1"/>
</g>
<g style="mix-blend-mode:multiply">
<path d="M134.07 317.99H128.14L125.18 323.12L128.14 328.26H134.07L137.03 323.12L134.07 317.99Z" fill="#002462" fill-opacity="0.1"/>
</g>
<g style="mix-blend-mode:multiply">
<path d="M109.57 304.29H96.1399L89.4299 292.66L96.1399 281.03H109.57L116.28 292.66L109.57 304.29ZM96.7299 303.29H109L115.14 292.66L109 282.03H96.7299L90.5899 292.66L96.7299 303.29Z" fill="#002462" fill-opacity="0.5"/>
</g>
<g style="mix-blend-mode:multiply">
<path d="M214.28 53.6405H201.78L195.53 42.8105L201.78 31.9805H214.28L220.53 42.8105L214.28 53.6405ZM202.35 52.6405H213.7L219.37 42.8105L213.7 32.9805H202.35L196.68 42.8105L202.35 52.6405Z" fill="#002462" fill-opacity="0.1"/>
</g>
<g style="mix-blend-mode:multiply">
<path d="M199 11.8H192.19L188.78 5.9L192.19 0H199L202.41 5.9L199 11.8ZM192.77 10.8H198.43L201.26 5.9L198.43 1H192.77L189.94 5.9L192.77 10.8Z" fill="#002462" fill-opacity="0.5"/>
</g>
<g style="mix-blend-mode:multiply">
<path d="M558.2 305.26H536.94L526.31 286.85L536.94 268.44H558.2L568.83 286.85L558.2 305.26ZM537.52 304.26H557.62L567.67 286.85L557.62 269.44H537.52L527.47 286.85L537.52 304.26Z" fill="#002462" fill-opacity="0.1"/>
</g>
<g style="mix-blend-mode:multiply">
<path d="M568.33 356.48H555.83L549.58 345.65L555.83 334.82H568.33L574.58 345.65L568.33 356.48ZM556.41 355.48H567.76L573.43 345.65L567.76 335.82H556.41L550.74 345.65L556.41 355.48Z" fill="#002462" fill-opacity="0.1"/>
</g>
<g style="mix-blend-mode:multiply">
<path d="M593.91 304.31H587.1L583.69 298.41L587.1 292.51H593.91L597.32 298.41L593.91 304.31ZM587.68 303.31H593.34L596.17 298.41L593.34 293.51H587.68L584.85 298.41L587.68 303.31Z" fill="#002462" fill-opacity="0.5"/>
</g>
</g>
<defs>
<clipPath id="clip0_6278_409835">
<rect width="734.92" height="356.48" fill="white"/>
</clipPath>
</defs>
</svg>
