<svg width="201" height="200" viewBox="0 0 201 200" fill="none" xmlns="http://www.w3.org/2000/svg">
<path d="M0.5 100C0.5 44.7715 45.2715 0 100.5 0C155.728 0 200.5 44.7715 200.5 100C200.5 155.228 155.728 200 100.5 200C45.2715 200 0.5 155.228 0.5 100Z" fill="#CDD1D9"/>
<g clip-path="url(#clip0_13_13411)">
<path fill-rule="evenodd" clip-rule="evenodd" d="M100.5 68.0127C88.5581 68.0127 78.8773 77.6935 78.8773 89.6355C78.8773 97.7864 83.3871 104.884 90.0477 108.569C87.0707 109.599 84.2442 111.07 81.6675 112.95C76.1989 116.939 72.1383 122.562 70.0713 129.008C69.8483 129.703 69.9709 130.463 70.4012 131.053C70.8315 131.643 71.5177 131.992 72.2478 131.992H128.751C129.481 131.992 130.167 131.643 130.597 131.053C131.028 130.463 131.15 129.703 130.927 129.008C128.86 122.562 124.799 116.939 119.331 112.95C116.755 111.071 113.928 109.6 110.952 108.569C117.613 104.884 122.123 97.7866 122.123 89.6355C122.123 77.6935 112.442 68.0127 100.5 68.0127Z" fill="#7F8A9D"/>
</g>
<defs>
<clipPath id="clip0_13_13411">
<rect width="64" height="64" fill="white" transform="translate(68.5 68)"/>
</clipPath>
</defs>
</svg>
