<svg width="16" height="16" viewBox="0 0 16 16" fill="none" xmlns="http://www.w3.org/2000/svg">
<g clip-path="url(#clip0_27_86733)">
<g clip-path="url(#clip1_27_86733)">
<path fill-rule="evenodd" clip-rule="evenodd" d="M12.2857 0C12.7591 0 13.1428 0.383755 13.1428 0.857143V2.85714H15.1428C15.6162 2.85714 16 3.2409 16 3.71429C16 4.18767 15.6162 4.57143 15.1428 4.57143H13.1428V6.57143C13.1428 7.04481 12.7591 7.42857 12.2857 7.42857C11.8123 7.42857 11.4286 7.04481 11.4286 6.57143V4.57143H9.42855C8.95517 4.57143 8.57141 4.18767 8.57141 3.71429C8.57141 3.2409 8.95517 2.85714 9.42855 2.85714H11.4286V0.857143C11.4286 0.383755 11.8123 0 12.2857 0Z" fill="#FFA502"/>
<path fill-rule="evenodd" clip-rule="evenodd" d="M8.09878 1.85492C7.69514 1.7621 7.27844 1.71423 6.85713 1.71423C5.48346 1.71423 4.15879 2.22306 3.17624 3.13991C2.19234 4.058 1.63146 5.31202 1.63146 6.62867V10.9427C1.63146 11.2099 1.5181 11.4748 1.30184 11.6765C1.05178 11.9099 0.854779 11.9999 0.571429 11.9999C0.255837 11.9999 0 12.2558 0 12.5714C0 12.8869 0.255837 13.1428 0.571429 13.1428H13.1428C13.4585 13.1428 13.7142 12.8869 13.7142 12.5714C13.7142 12.2558 13.4585 11.9999 13.1428 11.9999C12.8595 11.9999 12.6625 11.9099 12.4124 11.6765C12.1962 11.4748 12.0828 11.2099 12.0828 10.9427V8.84821C10.9155 8.74554 9.99996 7.76536 9.99996 6.57138V5.99995H9.42854C8.16617 5.99995 7.14282 4.9766 7.14282 3.71423C7.14282 2.94788 7.51996 2.26962 8.09878 1.85492ZM5.71418 14.2857C5.2408 14.2857 4.85704 14.6694 4.85704 15.1428C4.85704 15.6162 5.2408 15.9999 5.71418 15.9999H7.9999C8.47328 15.9999 8.85704 15.6162 8.85704 15.1428C8.85704 14.6694 8.47328 14.2857 7.9999 14.2857H5.71418Z" fill="#002462"/>
</g>
</g>
<defs>
<clipPath id="clip0_27_86733">
<rect width="16" height="16" rx="8" fill="white"/>
</clipPath>
<clipPath id="clip1_27_86733">
<rect width="16" height="16" fill="white"/>
</clipPath>
</defs>
</svg>
