<svg width="757" height="646" viewBox="0 0 757 646" fill="none" xmlns="http://www.w3.org/2000/svg">
<g clip-path="url(#clip0_1221_109030)">
<mask id="mask0_1221_109030" style="mask-type:alpha" maskUnits="userSpaceOnUse" x="417" y="-194" width="508" height="472">
<path d="M677.528 228.995C666.829 227.178 656.13 230.61 648.459 238.281C593.349 293.391 502.509 290.968 450.428 231.216C407.027 181.355 406.219 106.26 448.813 55.5918C458.503 43.8836 469.605 34.3958 481.717 27.1286C492.012 20.8708 499.078 10.1718 500.087 -1.73828C504.73 -50.3881 526.33 -97.8267 564.684 -134.566C647.853 -214.506 781.489 -212.891 862.841 -130.731C945.203 -47.5619 945.001 86.6793 862.236 169.445C811.971 219.709 742.932 239.492 677.528 228.995Z" fill="url(#paint0_linear_1221_109030)"/>
</mask>
<g mask="url(#mask0_1221_109030)">
<g filter="url(#filter0_iif_1221_109030)">
<path d="M677.528 228.995C666.829 227.178 656.13 230.61 648.459 238.281C593.349 293.391 502.509 290.968 450.428 231.216C407.027 181.355 406.219 106.26 448.813 55.5918C458.503 43.8836 469.605 34.3958 481.717 27.1286C492.012 20.8708 499.078 10.1718 500.087 -1.73828C504.73 -50.3881 526.33 -97.8267 564.684 -134.566C647.853 -214.506 781.489 -212.891 862.841 -130.731C945.203 -47.5619 945.001 86.6793 862.236 169.445C811.971 219.709 742.932 239.492 677.528 228.995Z" fill="url(#paint1_radial_1221_109030)"/>
<path d="M677.528 228.995C666.829 227.178 656.13 230.61 648.459 238.281C593.349 293.391 502.509 290.968 450.428 231.216C407.027 181.355 406.219 106.26 448.813 55.5918C458.503 43.8836 469.605 34.3958 481.717 27.1286C492.012 20.8708 499.078 10.1718 500.087 -1.73828C504.73 -50.3881 526.33 -97.8267 564.684 -134.566C647.853 -214.506 781.489 -212.891 862.841 -130.731C945.203 -47.5619 945.001 86.6793 862.236 169.445C811.971 219.709 742.932 239.492 677.528 228.995Z" fill="#1F2E7E" fill-opacity="0.2"/>
</g>
</g>
<mask id="mask1_1221_109030" style="mask-type:alpha" maskUnits="userSpaceOnUse" x="309" y="-150" width="340" height="264">
<path d="M339.508 -100.933C383.022 -154.336 461.639 -164.73 517.651 -124.707C517.909 -124.397 518.452 -124.062 518.737 -124.036C539.166 -109.008 563.054 -100.547 588.359 -98.2643C602.576 -96.9819 616.666 -91.1247 627.994 -80.0704C650.16 -58.8661 654.5 -24.3642 638.39 1.70021C627.986 18.5335 611.296 28.7804 593.542 31.7652C574.909 34.9573 558.271 44.6356 546.883 59.6603C546.548 60.2033 545.928 60.7207 545.566 61.548C501.384 119.191 419.252 130.414 361.609 86.2311C302.855 41.6615 292.431 -42.9781 339.508 -100.933Z" fill="url(#paint2_linear_1221_109030)"/>
</mask>
<g mask="url(#mask1_1221_109030)">
<g filter="url(#filter1_dii_1221_109030)">
<path d="M339.508 -100.933C383.022 -154.336 461.639 -164.73 517.651 -124.707C517.909 -124.397 518.452 -124.062 518.737 -124.036C539.166 -109.008 563.054 -100.547 588.359 -98.2643C602.576 -96.9819 616.666 -91.1247 627.994 -80.0704C650.16 -58.8661 654.5 -24.3642 638.39 1.70021C627.986 18.5335 611.296 28.7804 593.542 31.7652C574.909 34.9573 558.271 44.6356 546.883 59.6603C546.548 60.2033 545.928 60.7207 545.566 61.548C501.384 119.191 419.252 130.414 361.609 86.2311C302.855 41.6615 292.431 -42.9781 339.508 -100.933Z" fill="url(#paint3_radial_1221_109030)"/>
<path d="M339.508 -100.933C383.022 -154.336 461.639 -164.73 517.651 -124.707C517.909 -124.397 518.452 -124.062 518.737 -124.036C539.166 -109.008 563.054 -100.547 588.359 -98.2643C602.576 -96.9819 616.666 -91.1247 627.994 -80.0704C650.16 -58.8661 654.5 -24.3642 638.39 1.70021C627.986 18.5335 611.296 28.7804 593.542 31.7652C574.909 34.9573 558.271 44.6356 546.883 59.6603C546.548 60.2033 545.928 60.7207 545.566 61.548C501.384 119.191 419.252 130.414 361.609 86.2311C302.855 41.6615 292.431 -42.9781 339.508 -100.933Z" fill="#1F2E7E" fill-opacity="0.2"/>
</g>
</g>
<g filter="url(#filter2_iif_1221_109030)">
<path d="M755.819 249.069C741.882 258.263 720.465 256.6 714.533 275.103C713.147 278.426 712.456 282.114 712.489 285.702C712.443 289.393 713.146 293.166 714.65 296.736C716.154 300.307 718.332 303.416 721.003 306.089C723.673 308.762 726.709 310.74 730.031 312.126C752.424 314.852 781.391 304.422 794.375 284.949C795.839 281.524 796.555 278.017 796.497 274.247C796.543 270.556 795.84 266.784 794.336 263.213C792.832 259.643 790.654 256.534 787.983 253.861C785.416 251.266 782.199 249.313 778.877 247.927C775.476 246.644 771.608 245.978 767.682 246.241C763.757 246.504 759.648 247.438 755.819 249.069Z" fill="url(#paint4_radial_1221_109030)"/>
<path d="M755.819 249.069C741.882 258.263 720.465 256.6 714.533 275.103C713.147 278.426 712.456 282.114 712.489 285.702C712.443 289.393 713.146 293.166 714.65 296.736C716.154 300.307 718.332 303.416 721.003 306.089C723.673 308.762 726.709 310.74 730.031 312.126C752.424 314.852 781.391 304.422 794.375 284.949C795.839 281.524 796.555 278.017 796.497 274.247C796.543 270.556 795.84 266.784 794.336 263.213C792.832 259.643 790.654 256.534 787.983 253.861C785.416 251.266 782.199 249.313 778.877 247.927C775.476 246.644 771.608 245.978 767.682 246.241C763.757 246.504 759.648 247.438 755.819 249.069Z" fill="#1F2E7E" fill-opacity="0.2"/>
</g>
<g filter="url(#filter3_dii_1221_109030)">
<path d="M808.278 -29.93C844.102 -9.24693 856.376 36.5612 835.693 72.3853C815.01 108.209 769.202 120.484 733.378 99.8006C697.554 79.1175 685.28 33.3094 705.963 -2.51468C726.646 -38.3388 772.454 -50.613 808.278 -29.93Z" fill="url(#paint5_radial_1221_109030)"/>
<path d="M808.278 -29.93C844.102 -9.24693 856.376 36.5612 835.693 72.3853C815.01 108.209 769.202 120.484 733.378 99.8006C697.554 79.1175 685.28 33.3094 705.963 -2.51468C726.646 -38.3388 772.454 -50.613 808.278 -29.93Z" fill="#1F2E7E" fill-opacity="0.2"/>
</g>
<g filter="url(#filter4_diif_1221_109030)">
<path d="M369.965 132.377C379.532 137.901 382.81 150.134 377.286 159.7C371.763 169.267 359.53 172.545 349.963 167.021C340.396 161.498 337.119 149.265 342.642 139.698C348.165 130.132 360.398 126.854 369.965 132.377Z" fill="url(#paint6_radial_1221_109030)"/>
<path d="M369.965 132.377C379.532 137.901 382.81 150.134 377.286 159.7C371.763 169.267 359.53 172.545 349.963 167.021C340.396 161.498 337.119 149.265 342.642 139.698C348.165 130.132 360.398 126.854 369.965 132.377Z" fill="#1F2E7E" fill-opacity="0.2"/>
</g>
<g filter="url(#filter5_dii_1221_109030)">
<path d="M545.503 237.679C571.225 233.53 595.441 251.019 599.589 276.742C603.738 302.464 586.249 326.679 560.527 330.828C534.804 334.976 510.589 317.487 506.44 291.765C502.292 266.043 519.781 241.827 545.503 237.679Z" fill="url(#paint7_radial_1221_109030)"/>
<path d="M545.503 237.679C571.225 233.53 595.441 251.019 599.589 276.742C603.738 302.464 586.249 326.679 560.527 330.828C534.804 334.976 510.589 317.487 506.44 291.765C502.292 266.043 519.781 241.827 545.503 237.679Z" fill="#1F2E7E" fill-opacity="0.2"/>
</g>
</g>
<defs>
<filter id="filter0_iif_1221_109030" x="399.014" y="-198.041" width="551.797" height="508.051" filterUnits="userSpaceOnUse" color-interpolation-filters="sRGB">
<feFlood flood-opacity="0" result="BackgroundImageFix"/>
<feBlend mode="normal" in="SourceGraphic" in2="BackgroundImageFix" result="shape"/>
<feColorMatrix in="SourceAlpha" type="matrix" values="0 0 0 0 0 0 0 0 0 0 0 0 0 0 0 0 0 0 127 0" result="hardAlpha"/>
<feOffset dx="-18.3516" dy="32.1153"/>
<feGaussianBlur stdDeviation="38.9971"/>
<feComposite in2="hardAlpha" operator="arithmetic" k2="-1" k3="1"/>
<feColorMatrix type="matrix" values="0 0 0 0 1 0 0 0 0 1 0 0 0 0 1 0 0 0 0.87 0"/>
<feBlend mode="lighten" in2="shape" result="effect1_innerShadow_1221_109030"/>
<feColorMatrix in="SourceAlpha" type="matrix" values="0 0 0 0 0 0 0 0 0 0 0 0 0 0 0 0 0 0 127 0" result="hardAlpha"/>
<feOffset dx="26.35" dy="15.3705"/>
<feGaussianBlur stdDeviation="15.3705"/>
<feComposite in2="hardAlpha" operator="arithmetic" k2="-1" k3="1"/>
<feColorMatrix type="matrix" values="0 0 0 0 0.413356 0 0 0 0 0.00611111 0 0 0 0 0.733333 0 0 0 0.9 0"/>
<feBlend mode="multiply" in2="effect1_innerShadow_1221_109030" result="effect2_innerShadow_1221_109030"/>
<feGaussianBlur stdDeviation="2.29395" result="effect3_foregroundBlur_1221_109030"/>
</filter>
<filter id="filter1_dii_1221_109030" x="291.587" y="-149.021" width="382.837" height="306.275" filterUnits="userSpaceOnUse" color-interpolation-filters="sRGB">
<feFlood flood-opacity="0" result="BackgroundImageFix"/>
<feColorMatrix in="SourceAlpha" type="matrix" values="0 0 0 0 0 0 0 0 0 0 0 0 0 0 0 0 0 0 127 0" result="hardAlpha"/>
<feOffset dy="36"/>
<feGaussianBlur stdDeviation="4"/>
<feComposite in2="hardAlpha" operator="out"/>
<feColorMatrix type="matrix" values="0 0 0 0 0 0 0 0 0 0 0 0 0 0 0 0 0 0 0.16 0"/>
<feBlend mode="multiply" in2="BackgroundImageFix" result="effect1_dropShadow_1221_109030"/>
<feBlend mode="normal" in="SourceGraphic" in2="effect1_dropShadow_1221_109030" result="shape"/>
<feColorMatrix in="SourceAlpha" type="matrix" values="0 0 0 0 0 0 0 0 0 0 0 0 0 0 0 0 0 0 127 0" result="hardAlpha"/>
<feOffset dx="-18.3516" dy="32.1153"/>
<feGaussianBlur stdDeviation="38.9971"/>
<feComposite in2="hardAlpha" operator="arithmetic" k2="-1" k3="1"/>
<feColorMatrix type="matrix" values="0 0 0 0 1 0 0 0 0 1 0 0 0 0 1 0 0 0 0.87 0"/>
<feBlend mode="lighten" in2="shape" result="effect2_innerShadow_1221_109030"/>
<feColorMatrix in="SourceAlpha" type="matrix" values="0 0 0 0 0 0 0 0 0 0 0 0 0 0 0 0 0 0 127 0" result="hardAlpha"/>
<feOffset dx="26.3494" dy="15.3705"/>
<feGaussianBlur stdDeviation="15.3705"/>
<feComposite in2="hardAlpha" operator="arithmetic" k2="-1" k3="1"/>
<feColorMatrix type="matrix" values="0 0 0 0 0.411765 0 0 0 0 0.00784314 0 0 0 0 0.733333 0 0 0 0.9 0"/>
<feBlend mode="multiply" in2="effect2_innerShadow_1221_109030" result="effect3_innerShadow_1221_109030"/>
</filter>
<filter id="filter2_iif_1221_109030" x="688.801" y="240.263" width="141.709" height="113.742" filterUnits="userSpaceOnUse" color-interpolation-filters="sRGB">
<feFlood flood-opacity="0" result="BackgroundImageFix"/>
<feBlend mode="normal" in="SourceGraphic" in2="BackgroundImageFix" result="shape"/>
<feColorMatrix in="SourceAlpha" type="matrix" values="0 0 0 0 0 0 0 0 0 0 0 0 0 0 0 0 0 0 127 0" result="hardAlpha"/>
<feOffset dx="-23.6862" dy="41.4509"/>
<feGaussianBlur stdDeviation="50.3332"/>
<feComposite in2="hardAlpha" operator="arithmetic" k2="-1" k3="1"/>
<feColorMatrix type="matrix" values="0 0 0 0 1 0 0 0 0 1 0 0 0 0 1 0 0 0 0.87 0"/>
<feBlend mode="lighten" in2="shape" result="effect1_innerShadow_1221_109030"/>
<feColorMatrix in="SourceAlpha" type="matrix" values="0 0 0 0 0 0 0 0 0 0 0 0 0 0 0 0 0 0 127 0" result="hardAlpha"/>
<feOffset dx="34.0089" dy="19.8385"/>
<feGaussianBlur stdDeviation="19.8385"/>
<feComposite in2="hardAlpha" operator="arithmetic" k2="-1" k3="1"/>
<feColorMatrix type="matrix" values="0 0 0 0 0.411765 0 0 0 0 0.00784314 0 0 0 0 0.733333 0 0 0 0.9 0"/>
<feBlend mode="multiply" in2="effect1_innerShadow_1221_109030" result="effect2_innerShadow_1221_109030"/>
<feGaussianBlur stdDeviation="2.96078" result="effect3_foregroundBlur_1221_109030"/>
</filter>
<filter id="filter3_dii_1221_109030" x="677.564" y="-39.9771" width="194.526" height="193.825" filterUnits="userSpaceOnUse" color-interpolation-filters="sRGB">
<feFlood flood-opacity="0" result="BackgroundImageFix"/>
<feColorMatrix in="SourceAlpha" type="matrix" values="0 0 0 0 0 0 0 0 0 0 0 0 0 0 0 0 0 0 127 0" result="hardAlpha"/>
<feOffset dy="36"/>
<feGaussianBlur stdDeviation="4"/>
<feComposite in2="hardAlpha" operator="out"/>
<feColorMatrix type="matrix" values="0 0 0 0 0 0 0 0 0 0 0 0 0 0 0 0 0 0 0.16 0"/>
<feBlend mode="multiply" in2="BackgroundImageFix" result="effect1_dropShadow_1221_109030"/>
<feBlend mode="normal" in="SourceGraphic" in2="effect1_dropShadow_1221_109030" result="shape"/>
<feColorMatrix in="SourceAlpha" type="matrix" values="0 0 0 0 0 0 0 0 0 0 0 0 0 0 0 0 0 0 127 0" result="hardAlpha"/>
<feOffset dx="-18.3516" dy="32.1153"/>
<feGaussianBlur stdDeviation="38.9971"/>
<feComposite in2="hardAlpha" operator="arithmetic" k2="-1" k3="1"/>
<feColorMatrix type="matrix" values="0 0 0 0 1 0 0 0 0 1 0 0 0 0 1 0 0 0 0.87 0"/>
<feBlend mode="lighten" in2="shape" result="effect2_innerShadow_1221_109030"/>
<feColorMatrix in="SourceAlpha" type="matrix" values="0 0 0 0 0 0 0 0 0 0 0 0 0 0 0 0 0 0 127 0" result="hardAlpha"/>
<feOffset dx="26.3494" dy="15.3705"/>
<feGaussianBlur stdDeviation="15.3705"/>
<feComposite in2="hardAlpha" operator="arithmetic" k2="-1" k3="1"/>
<feColorMatrix type="matrix" values="0 0 0 0 0.411765 0 0 0 0 0.00784314 0 0 0 0 0.733333 0 0 0 0.9 0"/>
<feBlend mode="multiply" in2="effect2_innerShadow_1221_109030" result="effect3_innerShadow_1221_109030"/>
</filter>
<filter id="filter4_diif_1221_109030" x="335.058" y="128.469" width="51.9475" height="52.9858" filterUnits="userSpaceOnUse" color-interpolation-filters="sRGB">
<feFlood flood-opacity="0" result="BackgroundImageFix"/>
<feColorMatrix in="SourceAlpha" type="matrix" values="0 0 0 0 0 0 0 0 0 0 0 0 0 0 0 0 0 0 127 0" result="hardAlpha"/>
<feOffset dy="9.6137"/>
<feGaussianBlur stdDeviation="1.06819"/>
<feComposite in2="hardAlpha" operator="out"/>
<feColorMatrix type="matrix" values="0 0 0 0 0 0 0 0 0 0 0 0 0 0 0 0 0 0 0.16 0"/>
<feBlend mode="multiply" in2="BackgroundImageFix" result="effect1_dropShadow_1221_109030"/>
<feBlend mode="normal" in="SourceGraphic" in2="effect1_dropShadow_1221_109030" result="shape"/>
<feColorMatrix in="SourceAlpha" type="matrix" values="0 0 0 0 0 0 0 0 0 0 0 0 0 0 0 0 0 0 127 0" result="hardAlpha"/>
<feOffset dx="-4.90074" dy="8.5763"/>
<feGaussianBlur stdDeviation="10.4141"/>
<feComposite in2="hardAlpha" operator="arithmetic" k2="-1" k3="1"/>
<feColorMatrix type="matrix" values="0 0 0 0 1 0 0 0 0 1 0 0 0 0 1 0 0 0 0.87 0"/>
<feBlend mode="lighten" in2="shape" result="effect2_innerShadow_1221_109030"/>
<feColorMatrix in="SourceAlpha" type="matrix" values="0 0 0 0 0 0 0 0 0 0 0 0 0 0 0 0 0 0 127 0" result="hardAlpha"/>
<feOffset dx="7.03654" dy="4.10465"/>
<feGaussianBlur stdDeviation="4.10465"/>
<feComposite in2="hardAlpha" operator="arithmetic" k2="-1" k3="1"/>
<feColorMatrix type="matrix" values="0 0 0 0 0.168627 0 0 0 0 0.180392 0 0 0 0 0.239216 0 0 0 0.9 0"/>
<feBlend mode="multiply" in2="effect2_innerShadow_1221_109030" result="effect3_innerShadow_1221_109030"/>
<feGaussianBlur stdDeviation="0.612593" result="effect4_foregroundBlur_1221_109030"/>
</filter>
<filter id="filter5_dii_1221_109030" x="487.48" y="237.07" width="139.068" height="138.367" filterUnits="userSpaceOnUse" color-interpolation-filters="sRGB">
<feFlood flood-opacity="0" result="BackgroundImageFix"/>
<feColorMatrix in="SourceAlpha" type="matrix" values="0 0 0 0 0 0 0 0 0 0 0 0 0 0 0 0 0 0 127 0" result="hardAlpha"/>
<feOffset dy="36"/>
<feGaussianBlur stdDeviation="4"/>
<feComposite in2="hardAlpha" operator="out"/>
<feColorMatrix type="matrix" values="0 0 0 0 0 0 0 0 0 0 0 0 0 0 0 0 0 0 0.16 0"/>
<feBlend mode="multiply" in2="BackgroundImageFix" result="effect1_dropShadow_1221_109030"/>
<feBlend mode="normal" in="SourceGraphic" in2="effect1_dropShadow_1221_109030" result="shape"/>
<feColorMatrix in="SourceAlpha" type="matrix" values="0 0 0 0 0 0 0 0 0 0 0 0 0 0 0 0 0 0 127 0" result="hardAlpha"/>
<feOffset dx="-18.3516" dy="32.1153"/>
<feGaussianBlur stdDeviation="38.9971"/>
<feComposite in2="hardAlpha" operator="arithmetic" k2="-1" k3="1"/>
<feColorMatrix type="matrix" values="0 0 0 0 1 0 0 0 0 1 0 0 0 0 1 0 0 0 0.87 0"/>
<feBlend mode="lighten" in2="shape" result="effect2_innerShadow_1221_109030"/>
<feColorMatrix in="SourceAlpha" type="matrix" values="0 0 0 0 0 0 0 0 0 0 0 0 0 0 0 0 0 0 127 0" result="hardAlpha"/>
<feOffset dx="26.3494" dy="15.3705"/>
<feGaussianBlur stdDeviation="15.3705"/>
<feComposite in2="hardAlpha" operator="arithmetic" k2="-1" k3="1"/>
<feColorMatrix type="matrix" values="0 0 0 0 0.411765 0 0 0 0 0.00784314 0 0 0 0 0.733333 0 0 0 0.9 0"/>
<feBlend mode="multiply" in2="effect2_innerShadow_1221_109030" result="effect3_innerShadow_1221_109030"/>
</filter>
<linearGradient id="paint0_linear_1221_109030" x1="895.963" y1="-165.099" x2="608.924" y2="100.316" gradientUnits="userSpaceOnUse">
<stop offset="0.515679" stop-opacity="0"/>
<stop offset="1"/>
</linearGradient>
<radialGradient id="paint1_radial_1221_109030" cx="0" cy="0" r="1" gradientUnits="userSpaceOnUse" gradientTransform="translate(394.718 239.209) rotate(-42.8349) scale(195.28 394.569)">
<stop stop-color="#11FFF5"/>
<stop offset="0.635171" stop-color="#7160FF"/>
<stop offset="1" stop-color="#6000FF"/>
</radialGradient>
<linearGradient id="paint2_linear_1221_109030" x1="219.5" y1="32.3603" x2="513.745" y2="16.4585" gradientUnits="userSpaceOnUse">
<stop offset="0.119214" stop-opacity="0"/>
<stop offset="1"/>
</linearGradient>
<radialGradient id="paint3_radial_1221_109030" cx="0" cy="0" r="1" gradientUnits="userSpaceOnUse" gradientTransform="translate(410.243 132.503) rotate(-81.2744) scale(93.6123 311.487)">
<stop stop-color="#11FFF5"/>
<stop offset="0.635171" stop-color="#7160FF"/>
<stop offset="1" stop-color="#6000FF"/>
</radialGradient>
<radialGradient id="paint4_radial_1221_109030" cx="0" cy="0" r="1" gradientUnits="userSpaceOnUse" gradientTransform="translate(778.846 315.161) rotate(-139.586) scale(25.3379 76.5258)">
<stop stop-color="#11FFF5"/>
<stop offset="0.635171" stop-color="#7160FF"/>
<stop offset="1" stop-color="#6000FF"/>
</radialGradient>
<radialGradient id="paint5_radial_1221_109030" cx="0" cy="0" r="1" gradientUnits="userSpaceOnUse" gradientTransform="translate(706.363 98.3206) rotate(-57.2124) scale(53.4175 138.872)">
<stop stop-color="#11FFF5"/>
<stop offset="0.635171" stop-color="#7160FF"/>
<stop offset="1" stop-color="#6000FF"/>
</radialGradient>
<radialGradient id="paint6_radial_1221_109030" cx="0" cy="0" r="1" gradientUnits="userSpaceOnUse" gradientTransform="translate(342.749 166.626) rotate(-57.2124) scale(14.265 37.0853)">
<stop stop-color="#11FFF5"/>
<stop offset="0.635171" stop-color="#7160FF"/>
<stop offset="1" stop-color="#6000FF"/>
</radialGradient>
<radialGradient id="paint7_radial_1221_109030" cx="0" cy="0" r="1" gradientUnits="userSpaceOnUse" gradientTransform="translate(546.744 340.851) rotate(-96.3744) scale(33.6454 87.4693)">
<stop stop-color="#11FFF5"/>
<stop offset="0.635171" stop-color="#7160FF"/>
<stop offset="1" stop-color="#6000FF"/>
</radialGradient>
<clipPath id="clip0_1221_109030">
<rect width="900" height="900" fill="white" transform="matrix(0.866025 0.5 0.5 -0.866025 0 196)"/>
</clipPath>
</defs>
</svg>
