<svg width="655" height="491" viewBox="0 0 655 491" fill="none" xmlns="http://www.w3.org/2000/svg">
<mask id="mask0_1221_109017" style="mask-type:alpha" maskUnits="userSpaceOnUse" x="70" y="187" width="426" height="535">
<path d="M358.254 310.189C348.08 306.413 340.53 298.092 337.722 287.613C317.551 212.332 237.67 169.01 162.69 194.716C100.173 216.196 61.9261 280.826 73.4792 346.003C76.0165 360.988 80.8879 374.756 87.7436 387.105C93.5305 397.672 94.2998 410.471 89.2189 421.29C68.9148 465.743 63.9014 517.626 78.7477 568.621C110.805 679.435 227.344 744.854 338.877 714.378C451.789 683.532 518.734 567.175 488.44 454.115C470.042 385.452 420.144 333.801 358.254 310.189Z" fill="url(#paint0_linear_1221_109017)"/>
</mask>
<g mask="url(#mask0_1221_109017)">
<g filter="url(#filter0_ii_1221_109017)">
<path d="M358.254 310.189C348.08 306.413 340.53 298.092 337.722 287.613C317.551 212.332 237.67 169.01 162.69 194.716C100.173 216.196 61.9261 280.826 73.4792 346.003C76.0165 360.988 80.8879 374.756 87.7436 387.105C93.5305 397.672 94.2998 410.471 89.2189 421.29C68.9148 465.743 63.9014 517.626 78.7477 568.621C110.805 679.435 227.344 744.854 338.877 714.378C451.789 683.532 518.734 567.175 488.44 454.115C470.042 385.452 420.144 333.801 358.254 310.189Z" fill="url(#paint1_radial_1221_109017)"/>
<path d="M358.254 310.189C348.08 306.413 340.53 298.092 337.722 287.613C317.551 212.332 237.67 169.01 162.69 194.716C100.173 216.196 61.9261 280.826 73.4792 346.003C76.0165 360.988 80.8879 374.756 87.7436 387.105C93.5305 397.672 94.2998 410.471 89.2189 421.29C68.9148 465.743 63.9014 517.626 78.7477 568.621C110.805 679.435 227.344 744.854 338.877 714.378C451.789 683.532 518.734 567.175 488.44 454.115C470.042 385.452 420.144 333.801 358.254 310.189Z" fill="#1F2E7E" fill-opacity="0.2"/>
</g>
</g>
<mask id="mask1_1221_109017" style="mask-type:alpha" maskUnits="userSpaceOnUse" x="-102" y="274" width="313" height="282">
<path d="M-99.4437 426.905C-88.4614 494.911 -25.5736 543.22 42.9449 536.566C43.3239 536.426 43.962 536.407 44.221 536.527C69.4274 533.727 94.3454 538.344 117.402 549.02C130.355 555.017 145.486 556.99 160.824 553.081C190.621 545.8 211.631 518.091 210.712 487.463C210.118 467.683 200.788 450.464 186.905 439.002C172.364 426.921 162.794 410.22 160.445 391.515C160.425 390.877 160.147 390.119 160.248 389.222C150.806 317.21 85.2893 266.425 13.278 275.867C-59.8894 285.088 -111.236 353.176 -99.4437 426.905Z" fill="url(#paint2_linear_1221_109017)"/>
</mask>
<g mask="url(#mask1_1221_109017)">
<g filter="url(#filter1_dii_1221_109017)">
<path d="M-99.4437 426.905C-88.4614 494.911 -25.5736 543.22 42.9449 536.566C43.3239 536.426 43.962 536.407 44.221 536.527C69.4274 533.727 94.3454 538.344 117.402 549.02C130.355 555.017 145.486 556.99 160.824 553.081C190.621 545.8 211.631 518.091 210.712 487.463C210.118 467.683 200.788 450.464 186.905 439.002C172.364 426.921 162.794 410.22 160.445 391.515C160.425 390.877 160.147 390.119 160.248 389.222C150.806 317.21 85.2893 266.425 13.278 275.867C-59.8894 285.088 -111.236 353.176 -99.4437 426.905Z" fill="url(#paint3_radial_1221_109017)"/>
<path d="M-99.4437 426.905C-88.4614 494.911 -25.5736 543.22 42.9449 536.566C43.3239 536.426 43.962 536.407 44.221 536.527C69.4274 533.727 94.3454 538.344 117.402 549.02C130.355 555.017 145.486 556.99 160.824 553.081C190.621 545.8 211.631 518.091 210.712 487.463C210.118 467.683 200.788 450.464 186.905 439.002C172.364 426.921 162.794 410.22 160.445 391.515C160.425 390.877 160.147 390.119 160.248 389.222C150.806 317.21 85.2893 266.425 13.278 275.867C-59.8894 285.088 -111.236 353.176 -99.4437 426.905Z" fill="#1F2E7E" fill-opacity="0.2"/>
</g>
</g>
<g filter="url(#filter2_ii_1221_109017)">
<path d="M436.093 331.95C428.62 317.02 409.241 307.751 413.355 288.761C413.816 285.19 415.062 281.651 416.884 278.56C418.691 275.34 421.185 272.425 424.273 270.085C427.361 267.745 430.802 266.141 434.451 265.161C438.1 264.182 441.718 263.986 445.288 264.448C466.044 273.283 485.915 296.799 487.424 320.155C486.978 323.854 485.845 327.249 483.91 330.484C482.104 333.703 479.609 336.619 476.521 338.959C473.434 341.299 469.993 342.903 466.344 343.883C462.823 344.846 459.061 344.929 455.49 344.468C451.904 343.879 448.22 342.521 444.953 340.331C441.685 338.14 438.593 335.277 436.093 331.95Z" fill="url(#paint4_radial_1221_109017)"/>
<path d="M436.093 331.95C428.62 317.02 409.241 307.751 413.355 288.761C413.816 285.19 415.062 281.651 416.884 278.56C418.691 275.34 421.185 272.425 424.273 270.085C427.361 267.745 430.802 266.141 434.451 265.161C438.1 264.182 441.718 263.986 445.288 264.448C466.044 273.283 485.915 296.799 487.424 320.155C486.978 323.854 485.845 327.249 483.91 330.484C482.104 333.703 479.609 336.619 476.521 338.959C473.434 341.299 469.993 342.903 466.344 343.883C462.823 344.846 459.061 344.929 455.49 344.468C451.904 343.879 448.22 342.521 444.953 340.331C441.685 338.14 438.593 335.277 436.093 331.95Z" fill="#1F2E7E" fill-opacity="0.2"/>
</g>
<g filter="url(#filter3_dii_1221_109017)">
<path d="M342.024 599.8C383.39 599.8 416.924 566.266 416.924 524.9C416.924 483.534 383.39 450 342.024 450C300.658 450 267.124 483.534 267.124 524.9C267.124 566.266 300.658 599.8 342.024 599.8Z" fill="url(#paint5_radial_1221_109017)"/>
<path d="M342.024 599.8C383.39 599.8 416.924 566.266 416.924 524.9C416.924 483.534 383.39 450 342.024 450C300.658 450 267.124 483.534 267.124 524.9C267.124 566.266 300.658 599.8 342.024 599.8Z" fill="#1F2E7E" fill-opacity="0.2"/>
</g>
<g filter="url(#filter4_di_1221_109017)">
<path d="M43.5878 240.081C54.6345 240.081 63.5896 231.126 63.5896 220.079C63.5896 209.033 54.6345 200.078 43.5878 200.078C32.5411 200.078 23.5859 209.033 23.5859 220.079C23.5859 231.126 32.5411 240.081 43.5878 240.081Z" fill="url(#paint6_radial_1221_109017)"/>
<path d="M43.5878 240.081C54.6345 240.081 63.5896 231.126 63.5896 220.079C63.5896 209.033 54.6345 200.078 43.5878 200.078C32.5411 200.078 23.5859 209.033 23.5859 220.079C23.5859 231.126 32.5411 240.081 43.5878 240.081Z" fill="#1F2E7E" fill-opacity="0.2"/>
</g>
<g filter="url(#filter5_diif_1221_109017)">
<path d="M248.259 236.656C268.461 253.11 298.176 250.072 314.63 229.87C331.084 209.668 328.046 179.953 307.844 163.499C287.642 147.045 257.927 150.083 241.473 170.285C225.019 190.487 228.057 220.202 248.259 236.656Z" fill="url(#paint7_radial_1221_109017)"/>
<path d="M248.259 236.656C268.461 253.11 298.176 250.072 314.63 229.87C331.084 209.668 328.046 179.953 307.844 163.499C287.642 147.045 257.927 150.083 241.473 170.285C225.019 190.487 228.057 220.202 248.259 236.656Z" fill="#1F2E7E" fill-opacity="0.2"/>
</g>
<defs>
<filter id="filter0_ii_1221_109017" x="51.8169" y="187.277" width="470.259" height="566.697" filterUnits="userSpaceOnUse" color-interpolation-filters="sRGB">
<feFlood flood-opacity="0" result="BackgroundImageFix"/>
<feBlend mode="normal" in="SourceGraphic" in2="BackgroundImageFix" result="shape"/>
<feColorMatrix in="SourceAlpha" type="matrix" values="0 0 0 0 0 0 0 0 0 0 0 0 0 0 0 0 0 0 127 0" result="hardAlpha"/>
<feOffset dx="-18.3516" dy="32.1153"/>
<feGaussianBlur stdDeviation="38.9971"/>
<feComposite in2="hardAlpha" operator="arithmetic" k2="-1" k3="1"/>
<feColorMatrix type="matrix" values="0 0 0 0 1 0 0 0 0 1 0 0 0 0 1 0 0 0 0.87 0"/>
<feBlend mode="lighten" in2="shape" result="effect1_innerShadow_1221_109017"/>
<feColorMatrix in="SourceAlpha" type="matrix" values="0 0 0 0 0 0 0 0 0 0 0 0 0 0 0 0 0 0 127 0" result="hardAlpha"/>
<feOffset dx="26.35" dy="15.3705"/>
<feGaussianBlur stdDeviation="15.3705"/>
<feComposite in2="hardAlpha" operator="arithmetic" k2="-1" k3="1"/>
<feColorMatrix type="matrix" values="0 0 0 0 0.413356 0 0 0 0 0.00611111 0 0 0 0 0.733333 0 0 0 0.9 0"/>
<feBlend mode="multiply" in2="effect1_innerShadow_1221_109017" result="effect2_innerShadow_1221_109017"/>
</filter>
<filter id="filter1_dii_1221_109017" x="-119.482" y="274.737" width="356.573" height="324.366" filterUnits="userSpaceOnUse" color-interpolation-filters="sRGB">
<feFlood flood-opacity="0" result="BackgroundImageFix"/>
<feColorMatrix in="SourceAlpha" type="matrix" values="0 0 0 0 0 0 0 0 0 0 0 0 0 0 0 0 0 0 127 0" result="hardAlpha"/>
<feOffset dy="36"/>
<feGaussianBlur stdDeviation="4"/>
<feComposite in2="hardAlpha" operator="out"/>
<feColorMatrix type="matrix" values="0 0 0 0 0 0 0 0 0 0 0 0 0 0 0 0 0 0 0.16 0"/>
<feBlend mode="multiply" in2="BackgroundImageFix" result="effect1_dropShadow_1221_109017"/>
<feBlend mode="normal" in="SourceGraphic" in2="effect1_dropShadow_1221_109017" result="shape"/>
<feColorMatrix in="SourceAlpha" type="matrix" values="0 0 0 0 0 0 0 0 0 0 0 0 0 0 0 0 0 0 127 0" result="hardAlpha"/>
<feOffset dx="-18.3516" dy="32.1153"/>
<feGaussianBlur stdDeviation="38.9971"/>
<feComposite in2="hardAlpha" operator="arithmetic" k2="-1" k3="1"/>
<feColorMatrix type="matrix" values="0 0 0 0 1 0 0 0 0 1 0 0 0 0 1 0 0 0 0.87 0"/>
<feBlend mode="lighten" in2="shape" result="effect2_innerShadow_1221_109017"/>
<feColorMatrix in="SourceAlpha" type="matrix" values="0 0 0 0 0 0 0 0 0 0 0 0 0 0 0 0 0 0 127 0" result="hardAlpha"/>
<feOffset dx="26.3494" dy="15.3705"/>
<feGaussianBlur stdDeviation="15.3705"/>
<feComposite in2="hardAlpha" operator="arithmetic" k2="-1" k3="1"/>
<feColorMatrix type="matrix" values="0 0 0 0 0.411765 0 0 0 0 0.00784314 0 0 0 0 0.733333 0 0 0 0.9 0"/>
<feBlend mode="multiply" in2="effect2_innerShadow_1221_109017" result="effect3_innerShadow_1221_109017"/>
</filter>
<filter id="filter2_ii_1221_109017" x="389.102" y="264.21" width="132.33" height="121.98" filterUnits="userSpaceOnUse" color-interpolation-filters="sRGB">
<feFlood flood-opacity="0" result="BackgroundImageFix"/>
<feBlend mode="normal" in="SourceGraphic" in2="BackgroundImageFix" result="shape"/>
<feColorMatrix in="SourceAlpha" type="matrix" values="0 0 0 0 0 0 0 0 0 0 0 0 0 0 0 0 0 0 127 0" result="hardAlpha"/>
<feOffset dx="-23.6862" dy="41.4509"/>
<feGaussianBlur stdDeviation="50.3332"/>
<feComposite in2="hardAlpha" operator="arithmetic" k2="-1" k3="1"/>
<feColorMatrix type="matrix" values="0 0 0 0 1 0 0 0 0 1 0 0 0 0 1 0 0 0 0.87 0"/>
<feBlend mode="lighten" in2="shape" result="effect1_innerShadow_1221_109017"/>
<feColorMatrix in="SourceAlpha" type="matrix" values="0 0 0 0 0 0 0 0 0 0 0 0 0 0 0 0 0 0 127 0" result="hardAlpha"/>
<feOffset dx="34.0089" dy="19.8385"/>
<feGaussianBlur stdDeviation="19.8385"/>
<feComposite in2="hardAlpha" operator="arithmetic" k2="-1" k3="1"/>
<feColorMatrix type="matrix" values="0 0 0 0 0.411765 0 0 0 0 0.00784314 0 0 0 0 0.733333 0 0 0 0.9 0"/>
<feBlend mode="multiply" in2="effect1_innerShadow_1221_109017" result="effect2_innerShadow_1221_109017"/>
</filter>
<filter id="filter3_dii_1221_109017" x="248.772" y="450" width="194.501" height="193.8" filterUnits="userSpaceOnUse" color-interpolation-filters="sRGB">
<feFlood flood-opacity="0" result="BackgroundImageFix"/>
<feColorMatrix in="SourceAlpha" type="matrix" values="0 0 0 0 0 0 0 0 0 0 0 0 0 0 0 0 0 0 127 0" result="hardAlpha"/>
<feOffset dy="36"/>
<feGaussianBlur stdDeviation="4"/>
<feComposite in2="hardAlpha" operator="out"/>
<feColorMatrix type="matrix" values="0 0 0 0 0 0 0 0 0 0 0 0 0 0 0 0 0 0 0.16 0"/>
<feBlend mode="multiply" in2="BackgroundImageFix" result="effect1_dropShadow_1221_109017"/>
<feBlend mode="normal" in="SourceGraphic" in2="effect1_dropShadow_1221_109017" result="shape"/>
<feColorMatrix in="SourceAlpha" type="matrix" values="0 0 0 0 0 0 0 0 0 0 0 0 0 0 0 0 0 0 127 0" result="hardAlpha"/>
<feOffset dx="-18.3516" dy="32.1153"/>
<feGaussianBlur stdDeviation="38.9971"/>
<feComposite in2="hardAlpha" operator="arithmetic" k2="-1" k3="1"/>
<feColorMatrix type="matrix" values="0 0 0 0 1 0 0 0 0 1 0 0 0 0 1 0 0 0 0.87 0"/>
<feBlend mode="lighten" in2="shape" result="effect2_innerShadow_1221_109017"/>
<feColorMatrix in="SourceAlpha" type="matrix" values="0 0 0 0 0 0 0 0 0 0 0 0 0 0 0 0 0 0 127 0" result="hardAlpha"/>
<feOffset dx="26.3494" dy="15.3705"/>
<feGaussianBlur stdDeviation="15.3705"/>
<feComposite in2="hardAlpha" operator="arithmetic" k2="-1" k3="1"/>
<feColorMatrix type="matrix" values="0 0 0 0 0.411765 0 0 0 0 0.00784314 0 0 0 0 0.733333 0 0 0 0.9 0"/>
<feBlend mode="multiply" in2="effect2_innerShadow_1221_109017" result="effect3_innerShadow_1221_109017"/>
</filter>
<filter id="filter4_di_1221_109017" x="18.6852" y="200.078" width="47.041" height="51.7537" filterUnits="userSpaceOnUse" color-interpolation-filters="sRGB">
<feFlood flood-opacity="0" result="BackgroundImageFix"/>
<feColorMatrix in="SourceAlpha" type="matrix" values="0 0 0 0 0 0 0 0 0 0 0 0 0 0 0 0 0 0 127 0" result="hardAlpha"/>
<feOffset dy="9.6137"/>
<feGaussianBlur stdDeviation="1.06819"/>
<feComposite in2="hardAlpha" operator="out"/>
<feColorMatrix type="matrix" values="0 0 0 0 0 0 0 0 0 0 0 0 0 0 0 0 0 0 0.16 0"/>
<feBlend mode="multiply" in2="BackgroundImageFix" result="effect1_dropShadow_1221_109017"/>
<feBlend mode="normal" in="SourceGraphic" in2="effect1_dropShadow_1221_109017" result="shape"/>
<feColorMatrix in="SourceAlpha" type="matrix" values="0 0 0 0 0 0 0 0 0 0 0 0 0 0 0 0 0 0 127 0" result="hardAlpha"/>
<feOffset dx="-4.90074" dy="8.5763"/>
<feGaussianBlur stdDeviation="10.4141"/>
<feComposite in2="hardAlpha" operator="arithmetic" k2="-1" k3="1"/>
<feColorMatrix type="matrix" values="0 0 0 0 1 0 0 0 0 1 0 0 0 0 1 0 0 0 0.87 0"/>
<feBlend mode="lighten" in2="shape" result="effect2_innerShadow_1221_109017"/>
</filter>
<filter id="filter5_diif_1221_109017" x="212.522" y="140.31" width="139.056" height="150.945" filterUnits="userSpaceOnUse" color-interpolation-filters="sRGB">
<feFlood flood-opacity="0" result="BackgroundImageFix"/>
<feColorMatrix in="SourceAlpha" type="matrix" values="0 0 0 0 0 0 0 0 0 0 0 0 0 0 0 0 0 0 127 0" result="hardAlpha"/>
<feOffset dy="36"/>
<feGaussianBlur stdDeviation="4"/>
<feComposite in2="hardAlpha" operator="out"/>
<feColorMatrix type="matrix" values="0 0 0 0 0 0 0 0 0 0 0 0 0 0 0 0 0 0 0.16 0"/>
<feBlend mode="multiply" in2="BackgroundImageFix" result="effect1_dropShadow_1221_109017"/>
<feBlend mode="normal" in="SourceGraphic" in2="effect1_dropShadow_1221_109017" result="shape"/>
<feColorMatrix in="SourceAlpha" type="matrix" values="0 0 0 0 0 0 0 0 0 0 0 0 0 0 0 0 0 0 127 0" result="hardAlpha"/>
<feOffset dx="-18.3516" dy="32.1153"/>
<feGaussianBlur stdDeviation="38.9971"/>
<feComposite in2="hardAlpha" operator="arithmetic" k2="-1" k3="1"/>
<feColorMatrix type="matrix" values="0 0 0 0 1 0 0 0 0 1 0 0 0 0 1 0 0 0 0.87 0"/>
<feBlend mode="lighten" in2="shape" result="effect2_innerShadow_1221_109017"/>
<feColorMatrix in="SourceAlpha" type="matrix" values="0 0 0 0 0 0 0 0 0 0 0 0 0 0 0 0 0 0 127 0" result="hardAlpha"/>
<feOffset dx="26.3494" dy="15.3705"/>
<feGaussianBlur stdDeviation="15.3705"/>
<feComposite in2="hardAlpha" operator="arithmetic" k2="-1" k3="1"/>
<feColorMatrix type="matrix" values="0 0 0 0 0.411765 0 0 0 0 0.00784314 0 0 0 0 0.733333 0 0 0 0.9 0"/>
<feBlend mode="multiply" in2="effect2_innerShadow_1221_109017" result="effect3_innerShadow_1221_109017"/>
<feGaussianBlur stdDeviation="6.295" result="effect4_foregroundBlur_1221_109017"/>
</filter>
<linearGradient id="paint0_linear_1221_109017" x1="350.377" y1="760.702" x2="234.502" y2="387.327" gradientUnits="userSpaceOnUse">
<stop offset="0.515679" stop-opacity="0"/>
<stop offset="1"/>
</linearGradient>
<radialGradient id="paint1_radial_1221_109017" cx="0" cy="0" r="1" gradientUnits="userSpaceOnUse" gradientTransform="translate(118.44 159.939) rotate(72.8349) scale(195.28 394.569)">
<stop stop-color="#11FFF5"/>
<stop offset="0.635171" stop-color="#7160FF"/>
<stop offset="1" stop-color="#6000FF"/>
</radialGradient>
<linearGradient id="paint2_linear_1221_109017" x1="-136.728" y1="251.466" x2="110.145" y2="412.36" gradientUnits="userSpaceOnUse">
<stop offset="0.119214" stop-opacity="0"/>
<stop offset="1"/>
</linearGradient>
<radialGradient id="paint3_radial_1221_109017" cx="0" cy="0" r="1" gradientUnits="userSpaceOnUse" gradientTransform="translate(78.5323 260.111) rotate(111.274) scale(93.6123 311.487)">
<stop stop-color="#11FFF5"/>
<stop offset="0.635171" stop-color="#7160FF"/>
<stop offset="1" stop-color="#6000FF"/>
</radialGradient>
<radialGradient id="paint4_radial_1221_109017" cx="0" cy="0" r="1" gradientUnits="userSpaceOnUse" gradientTransform="translate(489.08 286.226) rotate(169.586) scale(25.3379 76.5258)">
<stop stop-color="#11FFF5"/>
<stop offset="0.635171" stop-color="#7160FF"/>
<stop offset="1" stop-color="#6000FF"/>
</radialGradient>
<radialGradient id="paint5_radial_1221_109017" cx="0" cy="0" r="1" gradientUnits="userSpaceOnUse" gradientTransform="translate(317.888 437.774) rotate(87.2124) scale(53.4175 138.872)">
<stop stop-color="#11FFF5"/>
<stop offset="0.635171" stop-color="#7160FF"/>
<stop offset="1" stop-color="#6000FF"/>
</radialGradient>
<radialGradient id="paint6_radial_1221_109017" cx="0" cy="0" r="1" gradientUnits="userSpaceOnUse" gradientTransform="translate(37.1423 196.813) rotate(87.2124) scale(14.265 37.0853)">
<stop stop-color="#11FFF5"/>
<stop offset="0.635171" stop-color="#7160FF"/>
<stop offset="1" stop-color="#6000FF"/>
</radialGradient>
<radialGradient id="paint7_radial_1221_109017" cx="0" cy="0" r="1" gradientUnits="userSpaceOnUse" gradientTransform="translate(300.92 147.928) rotate(126.374) scale(33.6454 87.4693)">
<stop stop-color="#11FFF5"/>
<stop offset="0.635171" stop-color="#7160FF"/>
<stop offset="1" stop-color="#6000FF"/>
</radialGradient>
</defs>
</svg>
