<svg width="64" height="64" viewBox="0 0 64 64" fill="none" xmlns="http://www.w3.org/2000/svg">
<g clip-path="url(#clip0_109_220833)">
<path fill-rule="evenodd" clip-rule="evenodd" d="M32.0001 2.6687C33.4728 2.6687 34.6667 3.86261 34.6667 5.33537V8.00203C34.6667 9.47479 33.4728 10.6687 32.0001 10.6687C30.5273 10.6687 29.3334 9.47479 29.3334 8.00203V5.33537C29.3334 3.86261 30.5273 2.6687 32.0001 2.6687ZM11.1809 11.1828C12.2223 10.1414 13.9107 10.1414 14.9521 11.1828L16.5524 12.7831C17.5938 13.8245 17.5938 15.5129 16.5524 16.5543C15.511 17.5957 13.8225 17.5957 12.7811 16.5543L11.1809 14.9541C10.1395 13.9127 10.1395 12.2242 11.1809 11.1828ZM52.8199 11.1831C53.8612 12.2246 53.861 13.913 52.8195 14.9543L51.2188 16.5546C50.1773 17.5958 48.4888 17.5956 47.4476 16.5541C46.4063 15.5126 46.4065 13.8241 47.448 12.7828L49.0487 11.1826C50.0902 10.1413 51.7787 10.1415 52.8199 11.1831ZM13.3334 32.002C13.3334 21.6927 21.6908 13.3354 32.0001 13.3354C42.3094 13.3354 50.6667 21.6927 50.6667 32.002C50.6667 37.744 48.0719 42.88 44.0001 46.3008V50.2381C44.0001 51.6439 44.0002 52.8566 43.9186 53.8554C43.8324 54.9097 43.6422 55.9583 43.1281 56.9673C42.3611 58.4726 41.1373 59.6964 39.632 60.4634C38.623 60.9775 37.5744 61.1677 36.5202 61.2538C35.5213 61.3355 34.3086 61.3354 32.9029 61.3354H31.0972C29.6915 61.3354 28.4788 61.3355 27.48 61.2538C26.4258 61.1677 25.3772 60.9775 24.3682 60.4634C22.8629 59.6964 21.639 58.4726 20.872 56.9673C20.3579 55.9583 20.1677 54.9097 20.0816 53.8554C20 52.8566 20 51.6439 20.0001 50.2381L20.0001 46.3008C15.9282 42.88 13.3334 37.744 13.3334 32.002ZM32.0001 18.6687C24.6363 18.6687 18.6667 24.6382 18.6667 32.002C18.6667 36.4612 20.8531 40.4096 24.224 42.8345C24.9205 43.3356 25.3334 44.1412 25.3334 44.9992V50.1354C25.3334 51.6728 25.3355 52.6656 25.3972 53.4211C25.4564 54.1456 25.5569 54.4142 25.6241 54.546C25.8797 55.0478 26.2877 55.4557 26.7894 55.7114C26.9213 55.7786 27.1899 55.879 27.9143 55.9382C28.6699 56 29.6626 56.002 31.2001 56.002H32.8001C34.3376 56.002 35.3303 56 36.0858 55.9382C36.8103 55.879 37.0789 55.7786 37.2107 55.7114C37.7125 55.4557 38.1204 55.0478 38.3761 54.546C38.4433 54.4142 38.5438 54.1456 38.6029 53.4211C38.6647 52.6656 38.6667 51.6728 38.6667 50.1354V44.9992C38.6667 44.1412 39.0796 43.3356 39.7762 42.8345C43.1471 40.4096 45.3334 36.4612 45.3334 32.002C45.3334 24.6382 39.3639 18.6687 32.0001 18.6687ZM2.66675 32.002C2.66675 30.5293 3.86066 29.3354 5.33341 29.3354H8.00008C9.47284 29.3354 10.6667 30.5293 10.6667 32.002C10.6667 33.4748 9.47284 34.6687 8.00008 34.6687H5.33341C3.86066 34.6687 2.66675 33.4748 2.66675 32.002ZM53.3334 32.002C53.3334 30.5293 54.5273 29.3354 56.0001 29.3354H58.6667C60.1395 29.3354 61.3334 30.5293 61.3334 32.002C61.3334 33.4748 60.1395 34.6687 58.6667 34.6687H56.0001C54.5273 34.6687 53.3334 33.4748 53.3334 32.002ZM24.0001 36.002C24.0001 34.5293 25.194 33.3354 26.6667 33.3354H37.3334C38.8062 33.3354 40.0001 34.5293 40.0001 36.002C40.0001 37.4748 38.8062 38.6687 37.3334 38.6687H34.6667V49.3354C34.6667 50.8081 33.4728 52.002 32.0001 52.002C30.5273 52.002 29.3334 50.8081 29.3334 49.3354V38.6687H26.6667C25.194 38.6687 24.0001 37.4748 24.0001 36.002Z" fill="#FCFCFF"/>
</g>
<defs>
<clipPath id="clip0_109_220833">
<rect width="64" height="64" fill="white"/>
</clipPath>
</defs>
</svg>
