<svg width="20" height="20" viewBox="0 0 20 20" fill="none" xmlns="http://www.w3.org/2000/svg">
<g id="wrapper">
<path id="Union" fill-rule="evenodd" clip-rule="evenodd" d="M6.66862 0.917969C7.08283 0.917969 7.41862 1.25376 7.41862 1.66797V2.58464H12.5853V1.66797C12.5853 1.25376 12.9211 0.917969 13.3353 0.917969C13.7495 0.917969 14.0853 1.25376 14.0853 1.66797V2.5855C14.5155 2.58766 14.8864 2.59515 15.205 2.62119C15.6683 2.65904 16.0867 2.73977 16.4774 2.93886C17.0889 3.25045 17.5861 3.74764 17.8977 4.35917C18.0968 4.74991 18.1776 5.16831 18.2154 5.63157C18.252 6.07914 18.252 6.62986 18.252 7.30325V7.33464V8.33464V14.3346V14.366C18.252 15.0394 18.252 15.5901 18.2154 16.0377C18.1776 16.501 18.0968 16.9194 17.8977 17.3101C17.5861 17.9216 17.0889 18.4188 16.4774 18.7304C16.0867 18.9295 15.6683 19.0102 15.205 19.0481C14.7575 19.0847 14.2068 19.0846 13.5334 19.0846H13.502H6.50195H6.47052C5.79715 19.0846 5.24644 19.0847 4.79888 19.0481C4.33562 19.0102 3.91723 18.9295 3.52648 18.7304C2.91496 18.4188 2.41777 17.9216 2.10618 17.3101C1.90709 16.9194 1.82635 16.501 1.7885 16.0377C1.75194 15.5901 1.75194 15.0394 1.75195 14.3661L1.75195 14.3346V8.33464V7.33464L1.75195 7.30322C1.75194 6.62984 1.75194 6.07913 1.7885 5.63157C1.82635 5.16831 1.90709 4.74991 2.10618 4.35917C2.41777 3.74764 2.91496 3.25045 3.52648 2.93886C3.91723 2.73977 4.33562 2.65904 4.79888 2.62119C5.11751 2.59515 5.4884 2.58766 5.91862 2.5855V1.66797C5.91862 1.25376 6.25441 0.917969 6.66862 0.917969ZM5.91862 4.08559C5.50621 4.08771 5.18665 4.0945 4.92103 4.11621C4.55053 4.14648 4.35151 4.20198 4.20747 4.27537C3.87819 4.44315 3.61047 4.71087 3.44269 5.04015C3.3693 5.18419 3.31379 5.38321 3.28352 5.75371C3.25254 6.13297 3.25195 6.62219 3.25195 7.33464V7.58464H16.752V7.33464C16.752 6.62219 16.7514 6.13297 16.7204 5.75371C16.6901 5.38321 16.6346 5.18419 16.5612 5.04015C16.3934 4.71087 16.1257 4.44315 15.7964 4.27537C15.6524 4.20198 15.4534 4.14648 15.0829 4.11621C14.8173 4.0945 14.4977 4.08771 14.0853 4.08559V5.0013C14.0853 5.41552 13.7495 5.7513 13.3353 5.7513C12.9211 5.7513 12.5853 5.41552 12.5853 5.0013V4.08464H7.41862V5.0013C7.41862 5.41552 7.08283 5.7513 6.66862 5.7513C6.25441 5.7513 5.91862 5.41552 5.91862 5.0013V4.08559ZM16.752 9.08464H3.25195V14.3346C3.25195 15.0471 3.25254 15.5363 3.28352 15.9156C3.31379 16.2861 3.3693 16.4851 3.44269 16.6291C3.61047 16.9584 3.87819 17.2261 4.20747 17.3939C4.35151 17.4673 4.55053 17.5228 4.92103 17.5531C5.30029 17.5841 5.78951 17.5846 6.50195 17.5846H13.502C14.2144 17.5846 14.7036 17.5841 15.0829 17.5531C15.4534 17.5228 15.6524 17.4673 15.7964 17.3939C16.1257 17.2261 16.3934 16.9584 16.5612 16.6291C16.6346 16.4851 16.6901 16.2861 16.7204 15.9156C16.7514 15.5363 16.752 15.0471 16.752 14.3346V9.08464Z" fill="#314362"/>
</g>
</svg>
