<svg width="16" height="16" viewBox="0 0 16 16" fill="none" xmlns="http://www.w3.org/2000/svg">
<g clip-path="url(#clip0_602_20374)">
<g clip-path="url(#clip1_602_20374)">
<path fill-rule="evenodd" clip-rule="evenodd" d="M15.5852 1.36958C16.0717 1.77166 16.1403 2.49202 15.7382 2.97857L6.5496 14.0977L6.54683 14.101C6.33782 14.352 6.07552 14.5532 5.77898 14.6901C5.48244 14.8269 5.15913 14.896 4.83254 14.8922C4.50062 14.8881 4.17293 14.8088 3.87603 14.6604C3.58012 14.5124 3.32145 14.2996 3.11928 14.0377C3.1186 14.0369 3.11792 14.036 3.11724 14.0351L0.240793 10.3368C-0.146716 9.83859 -0.0569622 9.12056 0.441264 8.73305C0.939489 8.34554 1.65752 8.4353 2.04502 8.93352L4.86053 12.5535L13.9762 1.52254C14.3783 1.03599 15.0987 0.967509 15.5852 1.36958Z" fill="#4BD394"/>
</g>
</g>
<defs>
<clipPath id="clip0_602_20374">
<rect width="16" height="16" fill="white"/>
</clipPath>
<clipPath id="clip1_602_20374">
<rect width="16" height="16" fill="white"/>
</clipPath>
</defs>
</svg>
