<svg width="88" height="128" viewBox="0 0 88 128" fill="none" xmlns="http://www.w3.org/2000/svg">
<g id="fastforward-clock--time-clock-reset-stopwatch-circle-measure-loading">
<path id="Vector 1560 (Stroke)" fill-rule="evenodd" clip-rule="evenodd" d="M64.0002 25.1431C67.7873 25.1431 70.8574 28.2131 70.8574 32.0002V64.6892L90.3853 76.406C93.6331 78.3544 94.6855 82.5665 92.7371 85.8139C90.7889 89.0613 86.5768 90.1143 83.3294 88.1659L60.4723 74.4516C58.4068 73.2124 57.1431 70.9803 57.1431 68.5716V32.0002C57.1431 28.2131 60.2131 25.1431 64.0002 25.1431Z" fill="#FFA502"/>
<path id="Union" fill-rule="evenodd" clip-rule="evenodd" d="M13.7143 64C13.7143 36.2279 36.2279 13.7143 64 13.7143C80.0077 13.7143 94.2766 21.1928 103.491 32.8645L94.6615 41.6945C91.7815 44.5744 93.8213 49.4985 97.8935 49.4985H123.429C125.953 49.4985 128 47.4518 128 44.9271V19.392C128 15.3193 123.076 13.2797 120.196 16.1595L113.24 23.1158C101.506 8.99932 83.8075 0 64 0C28.6538 0 0 28.6538 0 64C0 99.3463 28.6538 128 64 128C94.272 128 119.62 106.99 126.288 78.7632C127.158 75.0776 124.876 71.384 121.19 70.5134C117.505 69.6427 113.811 71.9248 112.94 75.6104C107.702 97.7874 87.7691 114.286 64 114.286C36.2279 114.286 13.7143 91.7723 13.7143 64Z" fill="#002462"/>
</g>
</svg>
