<svg width="21" height="20" viewBox="0 0 21 20" fill="none" xmlns="http://www.w3.org/2000/svg">
<g clip-path="url(#clip0_419_91528)">
<path fill-rule="evenodd" clip-rule="evenodd" d="M4.94418 6.02367C5.59649 3.56377 7.83714 1.75098 10.5024 1.75098C13.1678 1.75098 15.4084 3.56377 16.0607 6.02367C18.0776 6.46934 19.5858 8.267 19.5858 10.4176C19.5858 11.9786 18.7904 13.3534 17.5863 14.1594C17.2421 14.3898 16.7763 14.2976 16.5459 13.9534C16.3154 13.6091 16.4077 13.1433 16.7519 12.9129C17.5578 12.3735 18.0858 11.4571 18.0858 10.4176C18.0858 8.85569 16.8915 7.5718 15.3668 7.43059C15.027 7.39912 14.7513 7.1422 14.6959 6.80545C14.3645 4.78924 12.6124 3.25098 10.5024 3.25098C8.39252 3.25098 6.64042 4.78924 6.30896 6.80545C6.2536 7.1422 5.97788 7.39912 5.63806 7.43059C4.11337 7.5718 2.91911 8.85569 2.91911 10.4176C2.91911 11.4571 3.44709 12.3735 4.25297 12.9129C4.59719 13.1433 4.68945 13.6091 4.45904 13.9534C4.22863 14.2976 3.7628 14.3898 3.41859 14.1594C2.21449 13.3534 1.41911 11.9786 1.41911 10.4176C1.41911 8.267 2.92733 6.46934 4.94418 6.02367ZM9.75245 11.8116L7.69944 13.8646C7.40655 14.1575 6.93168 14.1575 6.63878 13.8646C6.34589 13.5717 6.34589 13.0969 6.63878 12.804L9.97212 9.47065C10.265 9.17775 10.7399 9.17775 11.0328 9.47065L14.3661 12.804C14.659 13.0969 14.659 13.5717 14.3661 13.8646C14.0732 14.1575 13.5983 14.1575 13.3055 13.8646L11.2524 11.8116V17.501C11.2524 17.9152 10.9167 18.251 10.5024 18.251C10.0882 18.251 9.75245 17.9152 9.75245 17.501V11.8116Z" fill="#314362"/>
</g>
<defs>
<clipPath id="clip0_419_91528">
<rect width="20" height="20" fill="white" transform="translate(0.5)"/>
</clipPath>
</defs>
</svg>
