<svg width="88" height="122" viewBox="0 0 88 122" fill="none" xmlns="http://www.w3.org/2000/svg">
<g id="cloud-check--cloud-network-internet-check-server-approve">
<path id="Subtract" fill-rule="evenodd" clip-rule="evenodd" d="M46.0921 6.83501C53.8366 1.99075 63.0078 -0.052111 72.0761 1.04709C81.1446 2.14629 89.562 6.32111 95.9251 12.8754C101.88 19.0096 105.699 26.8811 106.844 35.3226C113.161 37.2203 118.68 41.1856 122.496 46.6074C126.657 52.5174 128.506 59.7479 127.693 66.9296C126.88 74.1112 123.462 80.7456 118.086 85.5764C112.71 90.4072 105.75 93.0991 98.5226 93.1421H98.4952H98.3461L105.095 85.5495C111.805 78.0014 111.125 66.4436 103.577 59.7342C96.0293 53.0248 84.4711 53.7047 77.7617 61.2527L52.3684 89.8202L47.5429 86.2011C39.4637 80.1418 28.0023 81.7791 21.9429 89.8582C21.7171 90.1593 21.5021 90.4651 21.2975 90.7751C17.8088 89.3738 14.5464 87.3867 11.6619 84.8653C4.92057 78.9723 0.796355 70.6427 0.196513 61.7089C-0.40333 52.775 2.57034 43.9689 8.46336 37.2276C11.3813 33.8896 14.9281 31.159 18.9013 29.1918C22.442 27.4387 26.2595 26.3223 30.1794 25.8899C33.3183 18.0245 38.8846 11.3433 46.0921 6.83501Z" fill="#002462"/>
<path id="Vector (Stroke)" fill-rule="evenodd" clip-rule="evenodd" d="M95.9843 68.277C98.8149 70.7931 99.07 75.1272 96.5539 77.9578L59.9822 119.101C57.6128 121.766 53.5959 122.171 50.7428 120.03L32.4571 106.316C29.4274 104.044 28.8135 99.7461 31.0857 96.7162C33.3579 93.6871 37.656 93.0727 40.6857 95.3447L53.9238 105.274L86.3035 68.8465C88.8195 66.016 93.1537 65.761 95.9843 68.277Z" fill="#FFA502"/>
</g>
</svg>
