<svg width="240" height="320" viewBox="0 0 240 320" fill="none" xmlns="http://www.w3.org/2000/svg">
<rect x="0.5" y="0.5" width="239" height="319" fill="#CDD1D9"/>
<rect x="0.5" y="0.5" width="239" height="319" stroke="#CDD1D9"/>
<g clip-path="url(#clip0_4922_206959)">
<path fill-rule="evenodd" clip-rule="evenodd" d="M113.038 147.251L113.071 147.251H126.938L126.971 147.251C128.063 147.251 128.928 147.251 129.626 147.308C130.339 147.366 130.943 147.488 131.494 147.769C132.388 148.224 133.114 148.951 133.57 149.845C133.851 150.396 133.972 150.999 134.031 151.713C134.088 152.41 134.088 153.276 134.088 154.368V154.401V165.601V165.634C134.088 166.726 134.088 167.592 134.031 168.289C133.972 169.003 133.851 169.606 133.57 170.157C133.114 171.051 132.388 171.778 131.494 172.233C130.943 172.514 130.339 172.636 129.626 172.694C128.928 172.751 128.063 172.751 126.971 172.751H126.938H113.071H113.038C111.946 172.751 111.08 172.751 110.383 172.694C109.669 172.636 109.066 172.514 108.514 172.233C107.621 171.778 106.894 171.051 106.439 170.157C106.158 169.606 106.036 169.003 105.978 168.289C105.921 167.592 105.921 166.726 105.921 165.634L105.921 165.601V154.401L105.921 154.368C105.921 153.276 105.921 152.41 105.978 151.713C106.036 150.999 106.158 150.396 106.439 149.845C106.894 148.951 107.621 148.224 108.514 147.769C109.066 147.488 109.669 147.366 110.383 147.308C111.08 147.251 111.946 147.251 113.038 147.251ZM110.505 148.803C109.884 148.854 109.5 148.95 109.195 149.105C108.584 149.417 108.087 149.914 107.775 150.526C107.62 150.83 107.524 151.214 107.473 151.835C107.421 152.464 107.421 153.268 107.421 154.401V165.601C107.421 166.733 107.421 167.538 107.473 168.167C107.524 168.788 107.62 169.172 107.775 169.476C108.087 170.088 108.584 170.585 109.195 170.897C109.236 170.917 109.278 170.937 109.322 170.956L117.965 162.312L117.985 162.293C118.232 162.046 118.449 161.829 118.642 161.665C118.848 161.49 119.077 161.331 119.36 161.239C119.779 161.103 120.23 161.103 120.648 161.239C120.932 161.331 121.16 161.49 121.366 161.665C121.56 161.829 121.776 162.046 122.023 162.293L122.043 162.312L122.671 162.94L125.965 159.646L125.985 159.626C126.232 159.379 126.449 159.162 126.642 158.998C126.848 158.824 127.077 158.664 127.36 158.572C127.779 158.436 128.23 158.436 128.648 158.572C128.932 158.664 129.16 158.824 129.366 158.998C129.56 159.162 129.776 159.379 130.023 159.626L130.043 159.646L132.588 162.19V154.401C132.588 153.268 132.587 152.464 132.536 151.835C132.485 151.214 132.388 150.83 132.233 150.526C131.922 149.914 131.425 149.417 130.813 149.105C130.509 148.95 130.124 148.854 129.504 148.803C128.874 148.752 128.07 148.751 126.938 148.751H113.071C111.938 148.751 111.134 148.752 110.505 148.803ZM132.588 164.312L128.982 160.706C128.71 160.434 128.537 160.261 128.395 160.142C128.261 160.027 128.205 160.005 128.184 159.998C128.067 159.96 127.941 159.96 127.824 159.998C127.803 160.005 127.748 160.027 127.613 160.142C127.472 160.261 127.299 160.434 127.026 160.706L123.732 164.001L130.686 170.956C130.73 170.937 130.772 170.917 130.813 170.897C131.425 170.585 131.922 170.088 132.233 169.476C132.388 169.172 132.485 168.788 132.536 168.167C132.587 167.538 132.588 166.733 132.588 165.601V164.312ZM128.844 171.234L122.141 164.531L120.982 163.373C120.71 163.1 120.537 162.928 120.395 162.808C120.261 162.694 120.205 162.672 120.184 162.665C120.067 162.627 119.941 162.627 119.824 162.665C119.803 162.672 119.748 162.694 119.613 162.808C119.472 162.928 119.299 163.1 119.026 163.373L111.165 171.234C111.68 171.251 112.299 171.251 113.071 171.251H126.938C127.709 171.251 128.328 171.251 128.844 171.234ZM114.671 154.084C113.612 154.084 112.754 154.942 112.754 156.001C112.754 157.06 113.612 157.918 114.671 157.918C115.729 157.918 116.588 157.06 116.588 156.001C116.588 154.942 115.729 154.084 114.671 154.084ZM111.254 156.001C111.254 154.114 112.784 152.584 114.671 152.584C116.558 152.584 118.088 154.114 118.088 156.001C118.088 157.888 116.558 159.418 114.671 159.418C112.784 159.418 111.254 157.888 111.254 156.001Z" fill="#7F8A9D"/>
</g>
<defs>
<clipPath id="clip0_4922_206959">
<rect width="32" height="32" fill="white" transform="translate(104 144)"/>
</clipPath>
</defs>
</svg>
