<svg width="1440" height="1009" viewBox="0 0 1440 1009" fill="none" xmlns="http://www.w3.org/2000/svg">
<g clip-path="url(#clip0_19_13811)">
<rect width="1440" height="1009" fill="#120C00"/>
<g opacity="0.3">
<path style="mix-blend-mode:screen" d="M22.1815 834.132L2.67708 814.638V738.193H19.8104V180.334H18.1659V736.549H1.07083V815.288L20.5753 834.781V860.696H6.0043C5.66011 859.397 4.47454 858.441 3.05952 858.441C1.37678 858.441 0 859.817 0 861.499C0 863.181 1.37678 864.557 3.05952 864.557C4.47454 864.557 5.66011 863.601 6.0043 862.302H22.1815V834.093V834.132Z" fill="url(#paint0_linear_19_13811)"/>
<path style="mix-blend-mode:screen" d="M9.3315 744.767H26.4648V177.009H24.8203V743.162H7.68701V812.001L27.1914 831.494V870.175H17.9364C17.5922 868.876 16.4066 867.92 14.9916 867.92C13.3089 867.92 11.9321 869.296 11.9321 870.978C11.9321 872.66 13.3089 874.036 14.9916 874.036C16.4066 874.036 17.5922 873.08 17.9364 871.781H28.7977V830.768L9.29326 811.274V744.729L9.3315 744.767Z" fill="url(#paint1_linear_19_13811)"/>
<path style="mix-blend-mode:screen" d="M36.2171 879.846V828.054L16.7127 808.561V752.412H33.846V174.295H32.2015V750.806H15.1064V809.287L34.6109 828.781V879.884C33.3106 880.228 32.3545 881.413 32.3545 882.827C32.3545 884.509 33.7313 885.885 35.414 885.885C37.0967 885.885 38.4735 884.509 38.4735 882.827C38.4735 881.413 37.5174 880.266 36.2171 879.884V879.846Z" fill="url(#paint2_linear_19_13811)"/>
<path style="mix-blend-mode:screen" d="M24.8587 794.992C23.5584 795.336 22.6023 796.521 22.6023 797.935C22.6023 799.617 23.9791 800.993 25.6618 800.993C27.3445 800.993 28.7213 799.617 28.7213 797.935C28.7213 796.521 27.7652 795.374 26.4649 794.992V761.012H43.5982V203.153H41.9537V759.368H24.8204V794.992H24.8587Z" fill="url(#paint3_linear_19_13811)"/>
<path style="mix-blend-mode:screen" d="M31.513 805.159C30.2127 805.503 29.2566 806.688 29.2566 808.102C29.2566 809.784 30.6334 811.16 32.3161 811.16C33.9988 811.16 35.3756 809.784 35.3756 808.102C35.3756 806.688 34.4195 805.503 33.1192 805.159V767.586H50.2525V199.789H48.608V765.942H31.4747V805.159H31.513Z" fill="url(#paint4_linear_19_13811)"/>
<path style="mix-blend-mode:screen" d="M40.5386 812.459V775.231H57.6719V197.076H56.0274V773.587H38.8941V812.459C37.5938 812.803 36.6377 813.988 36.6377 815.402C36.6377 817.084 38.0145 818.46 39.6972 818.46C41.3799 818.46 42.7567 817.084 42.7567 815.402C42.7567 813.988 41.8006 812.842 40.5003 812.459H40.5386Z" fill="url(#paint5_linear_19_13811)"/>
<path style="mix-blend-mode:screen" d="M63.9058 794.074H46.7725V854.734H65.5502V806.726H55.8363V834.093C54.536 834.437 53.5799 835.622 53.5799 837.037C53.5799 838.718 54.9567 840.094 56.6394 840.094C58.3221 840.094 59.6989 838.718 59.6989 837.037C59.6989 835.622 58.7428 834.437 57.4425 834.093V808.331H63.9058V853.09H48.417V795.68H65.5502V241.185H63.9058V794.074Z" fill="url(#paint6_linear_19_13811)"/>
<path style="mix-blend-mode:screen" d="M201.354 948.799V893.071L181.85 873.577V764.031H133.433V178.194H131.827V765.637H180.244V874.265L199.748 893.759V948.799C198.448 949.143 197.492 950.328 197.492 951.743C197.492 953.424 198.869 954.8 200.551 954.8C202.234 954.8 203.611 953.424 203.611 951.743C203.611 950.328 202.655 949.182 201.354 948.799Z" fill="url(#paint7_linear_19_13811)"/>
<path style="mix-blend-mode:color-dodge" d="M371.693 1003.04V944.251L352.189 924.757V850.529H367.066V744.729L351.271 730.09V684.911H368.557V177.888C369.857 177.544 370.813 176.359 370.813 174.945C370.813 173.263 369.437 171.887 367.754 171.887C366.071 171.887 364.694 173.263 364.694 174.945C364.694 176.359 365.651 177.506 366.951 177.888V683.305H349.665V730.816L365.459 745.455V848.924H350.582V925.484L370.087 944.977V1003.08C368.787 1003.42 367.792 1004.6 367.792 1006.02C367.792 1007.7 369.169 1009.08 370.852 1009.08C372.534 1009.08 373.911 1007.7 373.911 1006.02C373.911 1004.64 372.993 1003.46 371.693 1003.08V1003.04Z" fill="url(#paint8_linear_19_13811)"/>
<path style="mix-blend-mode:color-dodge" d="M378.347 992.641V944.098L358.843 924.604V858.059H375.976V740.563L358.843 723.286V692.899H376.015V151.017C377.315 150.673 378.271 149.489 378.271 148.074C378.271 146.393 376.894 145.016 375.211 145.016C373.529 145.016 372.152 146.393 372.152 148.074C372.152 149.489 373.108 150.635 374.408 151.017V691.217H357.237V723.898L374.37 741.212V856.415H357.237V925.254L376.741 944.748V992.488C375.364 992.794 374.332 994.017 374.332 995.469C374.332 997.151 375.709 998.527 377.391 998.527C379.074 998.527 380.451 997.151 380.451 995.469C380.451 994.131 379.571 992.985 378.386 992.602L378.347 992.641Z" fill="url(#paint9_linear_19_13811)"/>
<path style="mix-blend-mode:color-dodge" d="M208.009 935.154V889.745L188.504 870.252V756.54H140.088V178.194H138.443V758.145H186.86V870.864L206.364 890.357V935.116C205.064 935.46 204.108 936.645 204.108 938.059C204.108 939.741 205.485 941.117 207.168 941.117C208.85 941.117 210.227 939.741 210.227 938.059C210.227 936.645 209.271 935.498 207.971 935.116L208.009 935.154Z" fill="url(#paint10_linear_19_13811)"/>
<path style="mix-blend-mode:color-dodge" d="M217.685 881.91V826.181L198.18 806.688V730.243H215.314V165.58H213.707V728.599H196.574V807.338L216.078 826.831V881.872C214.778 882.216 213.822 883.401 213.822 884.815C213.822 886.497 215.199 887.873 216.882 887.873C218.564 887.873 219.941 886.497 219.941 884.815C219.941 883.401 218.985 882.254 217.685 881.872V881.91Z" fill="url(#paint11_linear_19_13811)"/>
<path style="mix-blend-mode:screen" d="M224.339 868.264V822.856L204.835 803.362V736.817H221.968V162.255H220.323V735.212H203.19V804.05L222.695 823.544V868.303C221.394 868.647 220.438 869.832 220.438 871.246C220.438 872.928 221.815 874.304 223.498 874.304C225.18 874.304 226.557 872.928 226.557 871.246C226.557 869.832 225.601 868.647 224.301 868.303L224.339 868.264Z" fill="url(#paint12_linear_19_13811)"/>
<path style="mix-blend-mode:screen" d="M231.759 865.551V820.142L212.254 800.649V744.5H229.387V159.541H227.743V742.856H210.61V801.298L230.114 820.792V865.551C228.814 865.895 227.858 867.08 227.858 868.494C227.858 870.176 229.234 871.552 230.917 871.552C232.6 871.552 233.977 870.176 233.977 868.494C233.977 867.08 233.021 865.933 231.72 865.551H231.759Z" fill="url(#paint13_linear_19_13811)"/>
<path style="mix-blend-mode:color-dodge" d="M147.43 730.51C148.845 730.51 149.993 729.555 150.375 728.255H166.552V700.009L147.048 680.515V604.07H164.181V216.875H162.537V602.464H145.403V681.241L164.908 700.735V726.65H150.375C150.031 725.35 148.845 724.395 147.43 724.395C145.748 724.395 144.371 725.771 144.371 727.452C144.371 729.134 145.748 730.51 147.43 730.51Z" fill="url(#paint14_linear_19_13811)"/>
<path style="mix-blend-mode:color-dodge" d="M152.058 677.878L171.562 697.371V736.052H162.307C161.963 734.753 160.778 733.797 159.363 733.797C157.68 733.797 156.303 735.173 156.303 736.855C156.303 738.537 157.68 739.913 159.363 739.913C160.778 739.913 161.925 738.957 162.307 737.658H173.169V696.645L153.664 677.151V610.606H170.798V213.55H169.153V609.039H152.02V677.878H152.058Z" fill="url(#paint15_linear_19_13811)"/>
<path style="mix-blend-mode:color-dodge" d="M159.477 675.164L178.982 694.657V745.761C177.681 746.105 176.725 747.29 176.725 748.704C176.725 750.386 178.102 751.762 179.785 751.762C181.467 751.762 182.844 750.386 182.844 748.704C182.844 747.29 181.888 746.143 180.588 745.761V693.969L161.083 674.476V618.327H178.217V210.836H176.572V616.722H159.439V675.164H159.477Z" fill="url(#paint16_linear_19_13811)"/>
<path style="mix-blend-mode:color-dodge" d="M169.23 660.869C167.929 661.213 166.973 662.397 166.973 663.812C166.973 665.494 168.35 666.87 170.033 666.87C171.715 666.87 173.092 665.494 173.092 663.812C173.092 662.397 172.136 661.213 170.836 660.869V626.889H187.969V239.694H186.325V625.245H169.191V660.869H169.23Z" fill="url(#paint17_linear_19_13811)"/>
<path style="mix-blend-mode:color-dodge" d="M175.884 671.036C174.584 671.38 173.628 672.565 173.628 673.979C173.628 675.661 175.004 677.037 176.687 677.037C178.37 677.037 179.747 675.661 179.747 673.979C179.747 672.565 178.791 671.38 177.49 671.036V633.463H194.624V236.33H192.979V631.819H175.846V671.036H175.884Z" fill="url(#paint18_linear_19_13811)"/>
<path style="mix-blend-mode:color-dodge" d="M183.303 678.375C182.003 678.757 181.047 679.903 181.047 681.318C181.047 682.999 182.424 684.375 184.106 684.375C185.789 684.375 187.166 682.999 187.166 681.318C187.166 679.903 186.21 678.757 184.91 678.375V641.146H202.043V233.616H200.398V639.502H183.265V678.375H183.303Z" fill="url(#paint19_linear_19_13811)"/>
<path style="mix-blend-mode:color-dodge" d="M191.182 720.61H209.921V672.565H200.207V699.97C198.907 700.314 197.951 701.499 197.951 702.913C197.951 704.595 199.328 705.971 201.01 705.971C202.693 705.971 204.07 704.595 204.07 702.913C204.07 701.499 203.114 700.314 201.813 699.97V674.208H208.277V719.005H192.788V661.595H209.921V277.725H208.277V659.951H191.143V720.61H191.182Z" fill="url(#paint20_linear_19_13811)"/>
<path style="mix-blend-mode:color-dodge" d="M128.194 935.46V890.051L108.689 870.558V814.371H125.823V178.194H124.178V812.727H107.045V871.208L126.549 890.701V935.46C125.249 935.804 124.293 936.989 124.293 938.403C124.293 940.085 125.67 941.461 127.352 941.461C129.035 941.461 130.412 940.085 130.412 938.403C130.412 936.989 129.456 935.842 128.156 935.46H128.194Z" fill="url(#paint21_linear_19_13811)"/>
<path style="mix-blend-mode:color-dodge" d="M122.151 950.519V897.008L102.647 877.514V806.841H119.78V170.664H118.135V805.197H101.002V878.164L120.507 897.658V950.481C119.206 950.825 118.25 952.01 118.25 953.424C118.25 955.106 119.627 956.482 121.31 956.482C122.992 956.482 124.369 955.106 124.369 953.424C124.369 952.01 123.413 950.863 122.113 950.481L122.151 950.519Z" fill="url(#paint22_linear_19_13811)"/>
<path style="mix-blend-mode:color-dodge" d="M113.738 937.753V900.486L94.2331 880.992V800.152H111.366V163.975H109.722V798.508H92.5886V881.642L112.093 901.136V937.715C110.793 938.059 109.837 939.244 109.837 940.658C109.837 942.34 111.213 943.716 112.896 943.716C114.579 943.716 115.956 942.34 115.956 940.658C115.956 939.244 115 938.059 113.699 937.715L113.738 937.753Z" fill="url(#paint23_linear_19_13811)"/>
<path style="mix-blend-mode:color-dodge" d="M90.3706 789.755V709.335L70.8662 689.841V613.396H87.9995V226.201H86.355V611.791H69.2217V690.529L88.7261 710.023V789.755C87.4258 790.099 86.4697 791.284 86.4697 792.698C86.4697 794.38 87.8465 795.756 89.5292 795.756C91.212 795.756 92.5887 794.38 92.5887 792.698C92.5887 791.284 91.6326 790.099 90.3323 789.755H90.3706Z" fill="url(#paint24_linear_19_13811)"/>
<path style="mix-blend-mode:color-dodge" d="M93.1242 774.81C93.1242 776.492 94.5009 777.868 96.1837 777.868C97.8664 777.868 99.2432 776.492 99.2432 774.81C99.2432 773.396 98.2871 772.211 96.9868 771.867V706.01L77.4824 686.516V619.97H94.6157V222.876H92.9712V618.365H75.8379V687.204L95.3423 706.698V771.867C94.042 772.211 93.0859 773.396 93.0859 774.81H93.1242Z" fill="url(#paint25_linear_19_13811)"/>
<path style="mix-blend-mode:color-dodge" d="M83.2953 684.49L102.8 703.984V756.119C101.499 756.463 100.543 757.648 100.543 759.062C100.543 760.744 101.92 762.12 103.603 762.12C105.286 762.12 106.662 760.744 106.662 759.062C106.662 757.648 105.706 756.502 104.406 756.119V703.296L84.9016 683.802V627.653H102.035V220.162H100.39V626.01H83.2571V684.49H83.2953Z" fill="url(#paint26_linear_19_13811)"/>
<path style="mix-blend-mode:color-dodge" d="M307.329 929.956V874.227L287.824 854.734V778.288H304.957V164.319H303.313V776.645H286.18V855.422L305.684 874.915V929.956C304.384 930.3 303.428 931.485 303.428 932.899C303.428 934.581 304.804 935.957 306.487 935.957C308.17 935.957 309.547 934.581 309.547 932.899C309.547 931.485 308.591 930.3 307.29 929.956H307.329Z" fill="url(#paint27_linear_19_13811)"/>
<path style="mix-blend-mode:color-dodge" d="M313.945 916.31V870.902L294.44 851.408V784.863H311.574V160.994H309.929V783.257H292.796V852.096L312.3 871.59V916.348C311 916.692 310.044 917.877 310.044 919.292C310.044 920.973 311.421 922.349 313.103 922.349C314.786 922.349 316.163 920.973 316.163 919.292C316.163 917.877 315.207 916.731 313.907 916.348L313.945 916.31Z" fill="url(#paint28_linear_19_13811)"/>
<path style="mix-blend-mode:color-dodge" d="M321.364 913.596V868.188L301.86 848.694V792.545H318.993V158.28H317.348V790.902H300.215V849.382L319.72 868.876V913.635C318.419 914.017 317.463 915.164 317.463 916.578C317.463 918.26 318.84 919.636 320.523 919.636C322.205 919.636 323.582 918.26 323.582 916.578C323.582 915.164 322.626 914.017 321.326 913.635L321.364 913.596Z" fill="url(#paint29_linear_19_13811)"/>
<path style="mix-blend-mode:screen" d="M254.552 774.695H224.989C224.645 773.396 223.459 772.44 222.044 772.44C220.362 772.44 218.985 773.816 218.985 775.498C218.985 777.18 220.362 778.556 222.044 778.556C223.459 778.556 224.645 777.6 224.989 776.301H256.158V748.054L236.654 728.561V652.116H253.787V264.921H252.142V650.51H235.009V729.287L254.514 748.781V774.695H254.552Z" fill="url(#paint30_linear_19_13811)"/>
<path style="mix-blend-mode:color-dodge" d="M243.308 658.728H260.441V261.595H258.797V657.085H241.664V725.923L261.168 745.417V784.098H236.921C236.577 782.799 235.392 781.843 233.977 781.843C232.294 781.843 230.917 783.219 230.917 784.901C230.917 786.583 232.294 787.959 233.977 787.959C235.392 787.959 236.539 787.003 236.921 785.704H262.812V744.691L243.308 725.197V658.652V658.728Z" fill="url(#paint31_linear_19_13811)"/>
<path style="mix-blend-mode:color-dodge" d="M270.232 813.912V742.053L250.727 722.56V666.411H267.861V258.92H266.216V664.767H249.083V723.248L268.587 742.741V813.95C267.287 814.294 266.331 815.479 266.331 816.893C266.331 818.575 267.708 819.951 269.391 819.951C271.073 819.951 272.45 818.575 272.45 816.893C272.45 815.479 271.494 814.332 270.194 813.95L270.232 813.912Z" fill="url(#paint32_linear_19_13811)"/>
<path style="mix-blend-mode:screen" d="M258.835 708.914C257.535 709.258 256.579 710.443 256.579 711.858C256.579 713.539 257.956 714.915 259.638 714.915C261.321 714.915 262.698 713.539 262.698 711.858C262.698 710.443 261.742 709.297 260.442 708.914V674.935H277.575V287.74H275.93V673.329H258.797V708.953L258.835 708.914Z" fill="url(#paint33_linear_19_13811)"/>
<path style="mix-blend-mode:color-dodge" d="M265.49 719.082C264.189 719.426 263.233 720.61 263.233 722.025C263.233 723.707 264.61 725.083 266.293 725.083C267.975 725.083 269.352 723.707 269.352 722.025C269.352 720.61 268.396 719.426 267.096 719.082V681.509H284.229V284.376H282.585V679.865H265.451V719.082H265.49Z" fill="url(#paint34_linear_19_13811)"/>
<path style="mix-blend-mode:color-dodge" d="M274.553 726.42V689.153H291.687V281.662H290.042V687.548H272.909V726.42C271.609 726.764 270.653 727.949 270.653 729.364C270.653 731.045 272.029 732.421 273.712 732.421C275.395 732.421 276.772 731.045 276.772 729.364C276.772 727.949 275.816 726.764 274.515 726.42H274.553Z" fill="url(#paint35_linear_19_13811)"/>
<path style="mix-blend-mode:color-dodge" d="M299.527 720.611H289.813V748.016C288.513 748.36 287.556 749.545 287.556 750.959C287.556 752.641 288.933 754.017 290.616 754.017C292.299 754.017 293.675 752.641 293.675 750.959C293.675 749.545 292.719 748.398 291.419 748.016V722.254H297.882V767.051H282.393V709.641H299.527V164.319H297.882V707.997H280.749V768.656H299.527V720.611Z" fill="url(#paint36_linear_19_13811)"/>
<path style="mix-blend-mode:color-dodge" d="M458.01 997.036V941.308L438.505 921.814V812.268H390.088V174.792H388.444V813.874H436.861V922.502L456.365 941.958V996.998C455.065 997.342 454.109 998.527 454.109 999.941C454.109 1001.62 455.486 1003 457.168 1003C458.851 1003 460.228 1001.62 460.228 999.941C460.228 998.527 459.272 997.38 457.971 996.998L458.01 997.036Z" fill="url(#paint37_linear_19_13811)"/>
<path style="mix-blend-mode:color-dodge" d="M464.626 983.391V937.982L445.121 918.489V804.815H396.705V174.792H395.06V806.42H443.477V919.139L462.981 938.632V983.391C461.681 983.735 460.725 984.92 460.725 986.334C460.725 988.016 462.102 989.392 463.784 989.392C465.467 989.392 466.844 988.016 466.844 986.334C466.844 984.92 465.888 983.773 464.626 983.391Z" fill="url(#paint38_linear_19_13811)"/>
<path style="mix-blend-mode:screen" d="M404.086 778.747C405.501 778.747 406.648 777.791 407.03 776.492H423.208V748.284L403.703 728.79V652.345H420.836V131.295H419.192V650.701H402.059V729.44L421.563 748.933V774.848H407.03C406.686 773.549 405.501 772.593 404.086 772.593C402.403 772.593 401.026 773.969 401.026 775.651C401.026 777.333 402.403 778.709 404.086 778.709V778.747Z" fill="url(#paint39_linear_19_13811)"/>
<path style="mix-blend-mode:screen" d="M408.713 726.153L428.218 745.646V784.328H418.963C418.618 783.028 417.433 782.072 416.018 782.072C414.335 782.072 412.958 783.448 412.958 785.13C412.958 786.812 414.335 788.188 416.018 788.188C417.433 788.188 418.58 787.232 418.963 785.933H429.824V744.92L410.32 725.427V658.881H427.453V127.931H425.808V657.276H408.675V726.115L408.713 726.153Z" fill="url(#paint40_linear_19_13811)"/>
<path style="mix-blend-mode:screen" d="M416.133 723.401L435.637 742.894V793.998C434.337 794.342 433.381 795.527 433.381 796.941C433.381 798.623 434.757 799.999 436.44 799.999C438.123 799.999 439.5 798.623 439.5 796.941C439.5 795.527 438.544 794.38 437.243 793.998V742.206L417.739 722.713V666.564H434.872V125.217H433.266V664.92H416.133V723.401Z" fill="url(#paint41_linear_19_13811)"/>
<path style="mix-blend-mode:screen" d="M425.885 709.105C424.585 709.449 423.628 710.634 423.628 712.049C423.628 713.73 425.005 715.106 426.688 715.106C428.371 715.106 429.747 713.73 429.747 712.049C429.747 710.634 428.791 709.449 427.491 709.105V675.126H444.624V154.075H442.98V673.52H425.847V709.144L425.885 709.105Z" fill="url(#paint42_linear_19_13811)"/>
<path style="mix-blend-mode:screen" d="M432.501 719.273C431.201 719.617 430.245 720.802 430.245 722.216C430.245 723.898 431.621 725.274 433.304 725.274C434.987 725.274 436.364 723.898 436.364 722.216C436.364 720.802 435.408 719.655 434.107 719.273V681.7H451.241V150.75H449.596V680.094H432.463V719.311L432.501 719.273Z" fill="url(#paint43_linear_19_13811)"/>
<path style="mix-blend-mode:color-dodge" d="M439.92 726.612C438.62 726.994 437.664 728.14 437.664 729.555C437.664 731.236 439.041 732.612 440.724 732.612C442.406 732.612 443.783 731.236 443.783 729.555C443.783 728.14 442.827 726.994 441.527 726.612V689.383H458.66V148.036H457.015V687.739H439.882V726.612H439.92Z" fill="url(#paint44_linear_19_13811)"/>
<path style="mix-blend-mode:color-dodge" d="M447.799 768.847H466.576V720.84H456.862V748.207C455.562 748.551 454.606 749.736 454.606 751.15C454.606 752.832 455.983 754.208 457.666 754.208C459.348 754.208 460.725 752.832 460.725 751.15C460.725 749.736 459.769 748.551 458.469 748.207V722.445H464.932V767.204H449.443V709.793H466.576V192.107H464.932V708.188H447.799V768.847Z" fill="url(#paint45_linear_19_13811)"/>
<path style="mix-blend-mode:screen" d="M384.849 983.697V938.288L365.345 918.795V862.646H382.478V174.792H380.834V861.002H363.7V919.483L383.205 938.976V983.735C381.904 984.079 380.948 985.264 380.948 986.678C380.948 988.36 382.325 989.736 384.008 989.736C385.69 989.736 387.067 988.36 387.067 986.678C387.067 985.264 386.111 984.079 384.811 983.735L384.849 983.697Z" fill="url(#paint46_linear_19_13811)"/>
<path style="mix-blend-mode:screen" d="M346.988 837.992V757.572L327.483 738.078V661.633H344.616V154.305H342.972V660.028H325.839V738.804L345.343 758.298V838.03C344.043 838.374 343.087 839.559 343.087 840.973C343.087 842.655 344.463 844.031 346.146 844.031C347.829 844.031 349.206 842.655 349.206 840.973C349.206 839.559 348.25 838.374 346.949 838.03L346.988 837.992Z" fill="url(#paint47_linear_19_13811)"/>
<path style="mix-blend-mode:color-dodge" d="M349.741 823.047C349.741 824.729 351.118 826.105 352.801 826.105C354.483 826.105 355.86 824.729 355.86 823.047C355.86 821.633 354.904 820.448 353.604 820.104V754.246L334.099 734.753V668.207H351.233V150.979H349.588V666.64H332.455V735.479L351.921 754.973V820.142C350.621 820.486 349.665 821.671 349.665 823.085L349.741 823.047Z" fill="url(#paint48_linear_19_13811)"/>
<path style="mix-blend-mode:color-dodge" d="M339.912 732.727L359.417 752.221V804.356C358.116 804.7 357.16 805.885 357.16 807.299C357.16 808.981 358.537 810.357 360.22 810.357C361.903 810.357 363.279 808.981 363.279 807.299C363.279 805.885 362.323 804.738 361.023 804.356V751.532L341.519 732.039V675.89H358.652V148.265H357.007V674.285H339.874V732.727H339.912Z" fill="url(#paint49_linear_19_13811)"/>
<path style="mix-blend-mode:screen" d="M602.381 862.913V807.185L582.876 787.691V678.145H534.46V297.486H532.853V679.789H581.27V788.417L600.775 807.911V862.951C599.474 863.295 598.518 864.48 598.518 865.895C598.518 867.576 599.895 868.952 601.578 868.952C603.26 868.952 604.637 867.576 604.637 865.895C604.637 864.48 603.681 863.334 602.381 862.951V862.913Z" fill="url(#paint50_linear_19_13811)"/>
<path style="mix-blend-mode:screen" d="M608.997 849.268V803.859L589.492 784.366V670.692H541.076V297.486H539.431V672.297H587.848V785.016L607.352 804.509V849.268C606.052 849.612 605.096 850.797 605.096 852.211C605.096 853.893 606.473 855.269 608.156 855.269C609.838 855.269 611.215 853.893 611.215 852.211C611.215 850.797 610.259 849.612 608.959 849.268H608.997Z" fill="url(#paint51_linear_19_13811)"/>
<path style="mix-blend-mode:color-dodge" d="M618.711 796.024V740.295L599.245 720.802V644.356H616.378V224.367H614.733V642.713H597.6V721.49L617.105 740.983V796.024C615.804 796.368 614.886 797.553 614.886 798.967C614.886 800.649 616.263 802.025 617.946 802.025C619.629 802.025 621.005 800.649 621.005 798.967C621.005 797.553 620.049 796.406 618.749 796.024H618.711Z" fill="url(#paint52_linear_19_13811)"/>
<path style="mix-blend-mode:color-dodge" d="M625.327 782.378V736.97L605.823 717.476V650.931H622.956V221.041H621.312V649.325H604.178V718.164L623.683 737.658V782.416C622.382 782.76 621.426 783.945 621.426 785.36C621.426 787.041 622.803 788.417 624.486 788.417C626.168 788.417 627.545 787.041 627.545 785.36C627.545 783.945 626.589 782.76 625.289 782.416L625.327 782.378Z" fill="url(#paint53_linear_19_13811)"/>
<path style="mix-blend-mode:color-dodge" d="M632.785 779.664V734.218L613.28 714.724V658.575H630.414V218.327H628.769V656.97H611.636V715.45L631.14 734.944V779.703C629.84 780.047 628.884 781.231 628.884 782.646C628.884 784.327 630.261 785.703 631.943 785.703C633.626 785.703 635.003 784.327 635.003 782.646C635.003 781.231 634.047 780.085 632.746 779.703L632.785 779.664Z" fill="url(#paint54_linear_19_13811)"/>
<path style="mix-blend-mode:color-dodge" d="M548.457 644.662C549.872 644.662 551.057 643.707 551.401 642.407H567.579V614.199L548.074 594.705V518.26H565.208V200.936H563.563V516.617H546.43V595.393L565.934 614.887V640.802H551.401C551.057 639.502 549.872 638.547 548.457 638.547C546.774 638.547 545.397 639.923 545.397 641.604C545.397 643.286 546.774 644.662 548.457 644.662Z" fill="url(#paint55_linear_19_13811)"/>
<path style="mix-blend-mode:color-dodge" d="M553.084 592.03L572.589 611.523V650.205H563.334C562.989 648.905 561.804 647.949 560.389 647.949C558.706 647.949 557.329 649.325 557.329 651.007C557.329 652.689 558.706 654.065 560.389 654.065C561.804 654.065 562.951 653.109 563.334 651.81H574.195V610.797L554.69 591.304V524.758H571.824V197.611H570.179V523.191H553.046V592.03H553.084Z" fill="url(#paint56_linear_19_13811)"/>
<path style="mix-blend-mode:color-dodge" d="M560.503 589.316L580.008 608.809V659.913C578.708 660.257 577.751 661.442 577.751 662.856C577.751 664.538 579.128 665.914 580.811 665.914C582.494 665.914 583.87 664.538 583.87 662.856C583.87 661.442 582.914 660.257 581.614 659.913V608.16L562.11 588.666V532.517H579.243V194.897H577.637V530.874H560.503V589.354V589.316Z" fill="url(#paint57_linear_19_13811)"/>
<path style="mix-blend-mode:color-dodge" d="M610.947 586.717H601.233V614.084C599.933 614.428 598.977 615.613 598.977 617.027C598.977 618.709 600.354 620.085 602.036 620.085C603.719 620.085 605.096 618.709 605.096 617.027C605.096 615.613 604.14 614.466 602.84 614.084V588.322H609.303V633.081H593.814V575.709H610.947V159.082H609.303V574.103H592.169V634.763H610.947V586.717Z" fill="url(#paint58_linear_19_13811)"/>
<path style="mix-blend-mode:color-dodge" d="M496.598 716.406H511.475V610.606L495.718 595.928V550.749H513.005V300.506C514.305 300.162 515.261 298.977 515.261 297.563C515.261 295.881 513.884 294.505 512.201 294.505C510.519 294.505 509.142 295.881 509.142 297.563C509.142 298.977 510.098 300.162 511.398 300.506V549.106H494.112V596.616L509.869 611.256V714.724H494.992V791.246L514.496 810.74V868.991C513.693 869.105 512.087 870.634 513.961 872.316C514.152 872.469 514.726 872.775 515.261 872.775C515.682 872.775 516.523 872.469 516.714 872.278C518.282 870.825 516.905 869.105 516.332 868.991C516.255 868.991 516.102 868.914 516.102 868.914V810.051L496.598 790.596V716.368V716.406Z" fill="url(#paint59_linear_19_13811)"/>
<path style="mix-blend-mode:color-dodge" d="M503.214 723.974H520.347V606.478L503.214 589.201V558.814H520.386V273.75C521.686 273.406 522.642 272.221 522.642 270.807C522.642 269.125 521.265 267.749 519.583 267.749C517.9 267.749 516.523 269.125 516.523 270.807C516.523 272.221 517.479 273.406 518.779 273.75V557.171H501.608V589.851L518.741 607.166V722.369H501.608V791.208L521.112 810.701V861.461H522.757V810.051L503.252 790.558V724.012L503.214 723.974Z" fill="url(#paint60_linear_19_13811)"/>
<path style="mix-blend-mode:color-dodge" d="M529.22 849.574V804.165L509.716 784.71V728.561H526.849V297.525H525.204V726.917H508.071V785.398L527.575 804.891V849.65C526.275 849.994 525.319 851.179 525.319 852.593C525.319 854.275 526.696 855.651 528.379 855.651C530.061 855.651 531.438 854.275 531.438 852.593C531.438 851.179 530.482 850.032 529.182 849.65L529.22 849.574Z" fill="url(#paint61_linear_19_13811)"/>
<path style="mix-blend-mode:color-dodge" d="M491.358 703.907V623.487L471.854 603.993V527.548H488.987V210.262H487.343V525.943H470.209V604.681L470.324 604.758V776.836H453.191V855.613L472.695 875.106V930.147C471.395 930.491 470.439 931.676 470.439 933.09C470.439 934.772 471.816 936.148 473.498 936.148C475.181 936.148 476.558 934.772 476.558 933.09C476.558 931.676 475.602 930.529 474.302 930.147V874.418L454.797 854.925V778.479H471.93V606.401L476.94 611.409V783.41H459.807V852.249L479.312 871.743V916.501C478.011 916.845 477.093 918.03 477.093 919.444C477.093 921.126 478.47 922.502 480.153 922.502C481.836 922.502 483.212 921.126 483.212 919.444C483.212 918.03 482.256 916.884 480.956 916.501V871.093L461.452 851.599V785.054H478.585V613.014L484.36 618.786V791.055H467.226V849.535L486.731 869.029V913.788C485.431 914.132 484.474 915.316 484.474 916.731C484.474 918.412 485.851 919.788 487.534 919.788C489.217 919.788 490.594 918.412 490.594 916.731C490.594 915.316 489.637 914.17 488.337 913.788V868.379L468.833 848.885V792.737H485.966V620.467L489.676 624.175V703.907C488.375 704.289 487.419 705.436 487.419 706.85C487.419 708.532 488.796 709.908 490.479 709.908C492.162 709.908 493.538 708.532 493.538 706.85C493.538 705.436 492.582 704.289 491.282 703.907H491.358Z" fill="url(#paint62_linear_19_13811)"/>
<path style="mix-blend-mode:color-dodge" d="M494.15 688.924C494.15 690.606 495.527 691.982 497.21 691.982C498.893 691.982 500.269 690.606 500.269 688.924C500.269 687.51 499.313 686.325 498.013 685.981V620.123L478.509 600.63V534.084H495.642V206.899H493.997V532.479H476.864V601.318L496.33 620.811V685.981C495.03 686.325 494.074 687.51 494.074 688.924H494.15Z" fill="url(#paint63_linear_19_13811)"/>
<path style="mix-blend-mode:color-dodge" d="M484.283 598.642L503.788 618.136V670.271C502.487 670.615 501.531 671.8 501.531 673.215C501.531 674.896 502.908 676.272 504.591 676.272C506.274 676.272 507.65 674.896 507.65 673.215C507.65 671.8 506.694 670.615 505.394 670.271V617.448L485.89 597.954V541.805H503.023V204.185H501.378V540.162H484.245V598.604L484.283 598.642Z" fill="url(#paint64_linear_19_13811)"/>
<path style="mix-blend-mode:screen" d="M708.317 844.108V788.379L688.812 768.886V692.44H705.945V229.412H704.339V690.759H687.206V799.846C685.906 800.19 684.949 801.375 684.949 802.789C684.949 804.471 686.326 805.847 688.009 805.847C689.692 805.847 691.068 804.471 691.068 802.789C691.068 801.375 690.112 800.228 688.812 799.846V771.141L693.822 776.148V825.493C692.522 825.837 691.566 827.022 691.566 828.436C691.566 830.118 692.942 831.494 694.625 831.494C696.308 831.494 697.685 830.118 697.685 828.436C697.685 827.022 696.729 825.875 695.428 825.493V777.753L706.634 788.991V844.031C705.333 844.375 704.377 845.56 704.377 846.974C704.377 848.656 705.754 850.032 707.437 850.032C709.12 850.032 710.496 848.656 710.496 846.974C710.496 845.56 709.54 844.413 708.24 844.031L708.317 844.108Z" fill="url(#paint65_linear_19_13811)"/>
<path style="mix-blend-mode:screen" d="M714.971 830.424V785.016L695.467 765.522V698.977H712.6V226.087H710.955V697.371H693.822V766.21L713.326 785.704V830.462C712.026 830.806 711.07 831.991 711.07 833.405C711.07 835.087 712.447 836.463 714.13 836.463C715.812 836.463 717.189 835.087 717.189 833.405C717.189 831.991 716.233 830.806 714.933 830.462L714.971 830.424Z" fill="url(#paint66_linear_19_13811)"/>
<path style="mix-blend-mode:color-dodge" d="M722.39 827.748V782.34L702.886 762.846V706.697H720.019V223.373H718.374V705.016H701.241V763.496L720.746 782.99V827.748C719.445 828.092 718.489 829.277 718.489 830.692C718.489 832.373 719.866 833.749 721.549 833.749C723.231 833.749 724.608 832.373 724.608 830.692C724.608 829.277 723.652 828.131 722.352 827.748H722.39Z" fill="url(#paint67_linear_19_13811)"/>
<path style="mix-blend-mode:color-dodge" d="M655.54 688.809H626.015C625.633 687.51 624.486 686.554 623.071 686.554C621.35 686.554 619.973 687.93 619.973 689.612C619.973 691.294 621.35 692.67 623.071 692.67C624.447 692.67 625.633 691.714 626.015 690.415H657.184V662.206L637.68 642.713V566.268H654.813V248.982H653.169V564.662H636.035V643.439L655.502 662.933V688.848L655.54 688.809Z" fill="url(#paint68_linear_19_13811)"/>
<path style="mix-blend-mode:screen" d="M644.334 572.842H661.468V245.618H659.861V571.198H642.728V640.037L662.232 659.531V698.212H637.986C637.642 696.913 636.456 695.957 635.041 695.957C633.358 695.957 631.981 697.333 631.981 699.015C631.981 700.697 633.358 702.073 635.041 702.073C636.456 702.073 637.603 701.117 637.986 699.817H663.877V658.805L644.373 639.311V572.766L644.334 572.842Z" fill="url(#paint69_linear_19_13811)"/>
<path style="mix-blend-mode:screen" d="M671.258 728.064V656.167L651.754 636.674V580.525H668.887V242.943H667.281V578.919H650.147V637.4L669.652 656.893V728.102C668.352 728.446 667.395 729.631 667.395 731.045C667.395 732.727 668.772 734.103 670.455 734.103C672.138 734.103 673.515 732.727 673.515 731.045C673.515 729.631 672.558 728.446 671.258 728.102V728.064Z" fill="url(#paint70_linear_19_13811)"/>
<path style="mix-blend-mode:screen" d="M659.861 623.066C658.561 623.41 657.605 624.595 657.605 626.01C657.605 627.691 658.982 629.067 660.665 629.067C662.347 629.067 663.724 627.691 663.724 626.01C663.724 624.595 662.768 623.449 661.468 623.066V589.086H678.601V271.801H676.956V587.481H659.823V623.105L659.861 623.066Z" fill="url(#paint71_linear_19_13811)"/>
<path style="mix-blend-mode:screen" d="M666.516 633.234C665.216 633.578 664.26 634.763 664.26 636.177C664.26 637.859 665.636 639.235 667.319 639.235C669.002 639.235 670.379 637.859 670.379 636.177C670.379 634.763 669.422 633.578 668.122 633.234V595.661H685.255V268.437H683.611V594.017H666.478V633.234H666.516Z" fill="url(#paint72_linear_19_13811)"/>
<path style="mix-blend-mode:screen" d="M675.541 640.572V603.305H692.675V265.723H691.03V601.7H673.897V640.572C672.597 640.916 671.679 642.101 671.679 643.515C671.679 645.197 673.055 646.573 674.738 646.573C676.421 646.573 677.798 645.197 677.798 643.515C677.798 642.101 676.842 640.916 675.58 640.572H675.541Z" fill="url(#paint73_linear_19_13811)"/>
<path style="mix-blend-mode:color-dodge" d="M700.553 634.763H690.839V662.13C689.539 662.474 688.583 663.659 688.583 665.073C688.583 666.755 689.959 668.131 691.642 668.131C693.325 668.131 694.702 666.755 694.702 665.073C694.702 663.659 693.745 662.512 692.445 662.13V636.368H698.908V681.127H683.381V623.755H700.515V309.794H698.908V622.111H681.775V682.77H700.553V634.724V634.763Z" fill="url(#paint74_linear_19_13811)"/>
<path style="mix-blend-mode:color-dodge" d="M724.685 707.844H741.818V197.917H740.174V706.239H723.041V775.078L742.545 794.571V833.253H733.29C732.946 831.953 731.76 830.997 730.345 830.997C728.662 830.997 727.286 832.373 727.286 834.055C727.286 835.737 728.662 837.113 730.345 837.113C731.76 837.113 732.908 836.157 733.29 834.858H744.151V793.845L724.647 774.352V707.806L724.685 707.844Z" fill="url(#paint75_linear_19_13811)"/>
<path style="mix-blend-mode:color-dodge" d="M751.609 842.961V791.169L732.104 771.676V715.527H749.238V195.203H747.593V713.922H730.46V772.402L749.964 791.896V842.999C748.664 843.343 747.708 844.528 747.708 845.942C747.708 847.624 749.085 849 750.767 849C752.45 849 753.827 847.624 753.827 845.942C753.827 844.566 752.871 843.381 751.57 842.999L751.609 842.961Z" fill="url(#paint76_linear_19_13811)"/>
<path style="mix-blend-mode:color-dodge" d="M740.212 758.069C738.912 758.413 737.956 759.598 737.956 761.012C737.956 762.694 739.332 764.07 741.015 764.07C742.698 764.07 744.075 762.694 744.075 761.012C744.075 759.598 743.118 758.451 741.818 758.069V724.089H758.951V224.023H757.307V722.445H740.174V758.069H740.212Z" fill="url(#paint77_linear_19_13811)"/>
<path style="mix-blend-mode:color-dodge" d="M746.866 768.236C745.566 768.58 744.61 769.765 744.61 771.179C744.61 772.861 745.987 774.237 747.669 774.237C749.352 774.237 750.729 772.861 750.729 771.179C750.729 769.765 749.773 768.618 748.473 768.236V730.663H765.606V220.697H763.961V729.019H746.828V768.236H746.866Z" fill="url(#paint78_linear_19_13811)"/>
<path style="mix-blend-mode:color-dodge" d="M755.892 775.575V738.346H773.025V217.983H771.381V736.702H754.248V775.575C752.947 775.919 751.991 777.103 751.991 778.518C751.991 780.199 753.368 781.576 755.051 781.576C756.733 781.576 758.11 780.199 758.11 778.518C758.11 777.103 757.154 775.957 755.854 775.575H755.892Z" fill="url(#paint79_linear_19_13811)"/>
<path style="mix-blend-mode:color-dodge" d="M779.297 757.151H762.164V817.811H780.942V769.765H771.228V797.132C769.928 797.476 768.972 798.661 768.972 800.075C768.972 801.757 770.348 803.133 772.031 803.133C773.714 803.133 775.091 801.757 775.091 800.075C775.091 798.661 774.134 797.514 772.834 797.132V771.37H779.297V816.129H763.809V758.718H780.942V262.054H779.336V757.113L779.297 757.151Z" fill="url(#paint80_linear_19_13811)"/>
<path style="mix-blend-mode:color-dodge" d="M916.708 911.876V856.148L897.204 836.654V727.108H848.787V199.101H847.18V728.752H895.597V837.342L915.102 856.836V911.876C913.801 912.22 912.845 913.405 912.845 914.819C912.845 916.501 914.222 917.877 915.905 917.877C917.588 917.877 918.964 916.501 918.964 914.819C918.964 913.405 918.008 912.259 916.708 911.876Z" fill="url(#paint81_linear_19_13811)"/>
<path style="mix-blend-mode:color-dodge" d="M1087.05 966.114V907.328L1067.54 887.834V813.606H1082.42V707.806L1066.66 693.128V647.949H1083.95V212.747C1085.25 212.403 1086.21 211.218 1086.21 209.804C1086.21 208.122 1084.83 206.746 1083.15 206.746C1081.46 206.746 1080.09 208.122 1080.09 209.804C1080.09 211.218 1081.04 212.365 1082.34 212.747V646.344H1065.06V693.855L1080.85 708.494V811.924H1065.97V888.446L1085.48 907.939V966.038C1084.18 966.382 1083.18 967.567 1083.18 968.981C1083.18 970.663 1084.56 972.039 1086.24 972.039C1087.93 972.039 1089.3 970.663 1089.3 968.981C1089.3 967.605 1088.39 966.42 1087.08 966.076L1087.05 966.114Z" fill="url(#paint82_linear_19_13811)"/>
<path style="mix-blend-mode:color-dodge" d="M1093.7 955.718V907.175L1074.2 887.681V821.136H1091.33V703.64L1074.2 686.325V655.938H1091.37V374.467C1092.67 374.123 1092.74 187.252 1092.74 185.838C1092.74 184.156 1092.25 179.914 1090.57 179.914C1088.88 179.914 1087.51 181.29 1087.51 182.972C1087.51 184.386 1088.46 185.532 1089.76 185.915V654.333H1072.59V687.013L1089.72 704.328V819.531H1072.59V888.369L1092.09 907.863V955.603C1090.72 955.909 1089.69 957.132 1089.69 958.584C1089.69 960.266 1091.06 961.642 1092.74 961.642C1094.43 961.642 1095.8 960.266 1095.8 958.584C1095.8 957.247 1094.92 956.138 1093.74 955.718H1093.7Z" fill="url(#paint83_linear_19_13811)"/>
<path style="mix-blend-mode:color-dodge" d="M923.362 898.231V852.822L903.858 833.329V719.617H855.441V199.101H853.796V721.26H902.213V833.979L921.718 853.472V898.231C920.417 898.575 919.461 899.76 919.461 901.174C919.461 902.856 920.838 904.232 922.521 904.232C924.204 904.232 925.58 902.856 925.58 901.174C925.58 899.76 924.624 898.575 923.324 898.231H923.362Z" fill="url(#paint84_linear_19_13811)"/>
<path style="mix-blend-mode:color-dodge" d="M933.038 844.987V789.258L913.533 769.765V693.32H930.667V186.45H929.061V691.676H911.927V770.415L931.432 789.908V844.949C930.131 845.293 929.175 846.478 929.175 847.892C929.175 849.574 930.552 850.95 932.235 850.95C933.918 850.95 935.294 849.574 935.294 847.892C935.294 846.478 934.338 845.331 933.038 844.949V844.987Z" fill="url(#paint85_linear_19_13811)"/>
<path style="mix-blend-mode:screen" d="M939.692 831.341V785.933L920.188 766.439V699.894H937.321V183.124H935.677V698.25H918.543V767.089L938.048 786.583V831.341C936.748 831.685 935.792 832.87 935.792 834.284C935.792 835.966 937.168 837.342 938.851 837.342C940.534 837.342 941.911 835.966 941.911 834.284C941.911 832.87 940.954 831.685 939.654 831.341H939.692Z" fill="url(#paint86_linear_19_13811)"/>
<path style="mix-blend-mode:color-dodge" d="M947.112 828.628V783.219L927.607 763.726V707.577H944.741V180.411H943.096V705.933H925.963V764.414L945.467 783.907V828.666C944.167 829.01 943.211 830.195 943.211 831.609C943.211 833.291 944.588 834.667 946.27 834.667C947.953 834.667 949.33 833.291 949.33 831.609C949.33 830.195 948.374 829.048 947.074 828.666L947.112 828.628Z" fill="url(#paint87_linear_19_13811)"/>
<path style="mix-blend-mode:color-dodge" d="M862.822 693.587C864.237 693.587 865.384 692.632 865.767 691.332H881.944V663.124L862.44 643.63V567.185H879.573V237.783H877.928V565.541H860.795V644.318L880.299 663.812V689.727H865.767C865.423 688.427 864.237 687.471 862.822 687.471C861.139 687.471 859.762 688.848 859.762 690.529C859.762 692.211 861.139 693.587 862.822 693.587Z" fill="url(#paint88_linear_19_13811)"/>
<path style="mix-blend-mode:color-dodge" d="M867.45 640.955L886.954 660.448V699.129H877.699C877.355 697.83 876.169 696.874 874.754 696.874C873.071 696.874 871.695 698.25 871.695 699.932C871.695 701.614 873.071 702.99 874.754 702.99C876.169 702.99 877.355 702.034 877.699 700.735H888.56V659.722L869.056 640.228V573.683H886.189V234.457H884.545V572.154H867.411V640.993L867.45 640.955Z" fill="url(#paint89_linear_19_13811)"/>
<path style="mix-blend-mode:color-dodge" d="M874.831 638.241L894.335 657.734V708.838C893.035 709.182 892.079 710.367 892.079 711.781C892.079 713.463 893.455 714.839 895.138 714.839C896.821 714.839 898.198 713.463 898.198 711.781C898.198 710.367 897.242 709.182 895.941 708.838V657.046L876.437 637.553V581.404H893.57V231.744H891.964V579.798H874.831V638.279V638.241Z" fill="url(#paint90_linear_19_13811)"/>
<path style="mix-blend-mode:color-dodge" d="M884.583 623.946C883.283 624.29 882.327 625.474 882.327 626.889C882.327 628.57 883.703 629.946 885.386 629.946C887.069 629.946 888.446 628.57 888.446 626.889C888.446 625.474 887.49 624.328 886.189 623.946V589.966H903.323V260.563H901.678V588.322H884.545V623.946H884.583Z" fill="url(#paint91_linear_19_13811)"/>
<path style="mix-blend-mode:color-dodge" d="M891.237 634.113C889.937 634.457 888.981 635.642 888.981 637.056C888.981 638.738 890.358 640.114 892.04 640.114C893.723 640.114 895.1 638.738 895.1 637.056C895.1 635.642 894.144 634.457 892.844 634.113V596.54H909.977V257.238H908.332V594.935H891.199V634.151L891.237 634.113Z" fill="url(#paint92_linear_19_13811)"/>
<path style="mix-blend-mode:color-dodge" d="M898.657 641.452C897.356 641.834 896.4 642.98 896.4 644.395C896.4 646.076 897.777 647.452 899.46 647.452C901.143 647.452 902.519 646.076 902.519 644.395C902.519 642.98 901.563 641.796 900.263 641.452V604.223H917.396V254.524H915.752V602.579H898.619V641.452H898.657Z" fill="url(#paint93_linear_19_13811)"/>
<path style="mix-blend-mode:color-dodge" d="M906.535 683.687H925.274V635.642H915.56V663.009C914.26 663.353 913.304 664.538 913.304 665.952C913.304 667.634 914.681 669.01 916.364 669.01C918.046 669.01 919.423 667.634 919.423 665.952C919.423 664.538 918.467 663.391 917.167 663.009V637.247H923.63V682.006H908.141V624.595H925.274V298.557H923.63V622.99H906.497V683.649L906.535 683.687Z" fill="url(#paint94_linear_19_13811)"/>
<path style="mix-blend-mode:color-dodge" d="M810.925 765.369H825.802V659.569L810.007 644.93V599.751H827.293V202.159C828.594 201.815 829.55 200.63 829.55 199.216C829.55 197.534 828.173 196.158 826.49 196.158C824.808 196.158 823.431 197.534 823.431 199.216C823.431 200.63 824.387 201.777 825.687 202.159V598.107H808.401V645.618L824.196 660.257V763.726H809.319V840.285L828.785 859.779V920.82H830.429V859.091L810.963 839.597V765.369H810.925Z" fill="url(#paint95_linear_19_13811)"/>
<path style="mix-blend-mode:screen" d="M817.579 772.899H834.713V655.403L817.579 638.126V607.739H834.751V175.289C836.051 174.945 837.007 173.76 837.007 172.346C837.007 170.664 835.631 169.288 833.948 169.288C832.265 169.288 830.888 170.664 830.888 172.346C830.888 173.76 831.844 174.907 833.145 175.289V606.057H815.973V638.738L833.106 656.053V771.255H815.973V840.094L835.478 859.588V910.347H837.122V858.938L817.618 839.445V772.899H817.579Z" fill="url(#paint96_linear_19_13811)"/>
<path style="mix-blend-mode:color-dodge" d="M843.585 898.537V853.128L824.081 833.635V777.447H841.214V199.101H839.57V775.842H822.437V834.323L841.941 853.816V898.575C840.641 898.919 839.685 900.104 839.685 901.518C839.685 903.2 841.061 904.576 842.744 904.576C844.427 904.576 845.804 903.2 845.804 901.518C845.804 900.104 844.848 898.919 843.547 898.575L843.585 898.537Z" fill="url(#paint97_linear_19_13811)"/>
<path style="mix-blend-mode:color-dodge" d="M805.724 752.832V672.412L786.219 652.918V576.473H803.353V247.071H801.708V574.83H784.575V653.568L804.079 673.062V752.794C802.779 753.138 801.823 754.323 801.823 755.737C801.823 757.419 803.2 758.795 804.883 758.795C806.565 758.795 807.942 757.419 807.942 755.737C807.942 754.361 806.986 753.176 805.686 752.794L805.724 752.832Z" fill="url(#paint98_linear_19_13811)"/>
<path style="mix-blend-mode:color-dodge" d="M808.477 737.887C808.477 739.569 809.854 740.945 811.537 740.945C813.22 740.945 814.596 739.569 814.596 737.887C814.596 736.473 813.64 735.288 812.34 734.944V669.086L792.836 649.593V583.047H809.969V243.745H808.324V581.442H791.191V650.281L810.696 669.774V734.944C809.395 735.288 808.439 736.473 808.439 737.887H808.477Z" fill="url(#paint99_linear_19_13811)"/>
<path style="mix-blend-mode:color-dodge" d="M798.649 647.567L818.153 667.061V719.196C816.853 719.54 815.897 720.725 815.897 722.139C815.897 723.821 817.274 725.197 818.956 725.197C820.639 725.197 822.016 723.821 822.016 722.139C822.016 720.725 821.06 719.54 819.76 719.196V666.373L800.255 646.879V590.73H817.388V241.032H815.744V589.087H798.611V647.567H798.649Z" fill="url(#paint100_linear_19_13811)"/>
<path style="mix-blend-mode:screen" d="M1022.68 893.033V837.304L1003.18 817.811V741.365H1020.31V199.216H1018.67V739.722H1001.53V818.499L1021.04 837.992V893.033C1019.74 893.377 1018.78 894.562 1018.78 895.976C1018.78 897.658 1020.16 899.034 1021.84 899.034C1023.52 899.034 1024.9 897.658 1024.9 895.976C1024.9 894.562 1023.94 893.415 1022.64 893.033H1022.68Z" fill="url(#paint101_linear_19_13811)"/>
<path style="mix-blend-mode:screen" d="M1029.3 879.387V833.979L1009.79 814.485V747.94H1026.93V195.891H1025.28V746.334H1008.15V815.173L1027.65 834.667V879.425C1026.35 879.769 1025.4 880.954 1025.4 882.369C1025.4 884.05 1026.77 885.426 1028.46 885.426C1030.14 885.426 1031.52 884.05 1031.52 882.369C1031.52 880.954 1030.56 879.808 1029.26 879.425L1029.3 879.387Z" fill="url(#paint102_linear_19_13811)"/>
<path style="mix-blend-mode:screen" d="M1036.72 876.673V831.265L1017.25 811.771V755.622H1034.38V193.177H1032.78V753.979H1015.65V812.459L1035.15 831.953V876.712C1033.85 877.056 1032.89 878.241 1032.89 879.655C1032.89 881.337 1034.27 882.713 1035.95 882.713C1037.64 882.713 1039.01 881.337 1039.01 879.655C1039.01 878.241 1038.06 877.094 1036.76 876.712L1036.72 876.673Z" fill="url(#paint103_linear_19_13811)"/>
<path style="mix-blend-mode:color-dodge" d="M969.905 737.772H940.343C939.999 736.473 938.813 735.517 937.398 735.517C935.715 735.517 934.338 736.893 934.338 738.575C934.338 740.257 935.715 741.633 937.398 741.633C938.813 741.633 939.999 740.677 940.343 739.378H971.512V711.169L952.007 691.676V615.231H969.14V285.828H967.496V613.587H950.363V692.364L969.867 711.858V737.772H969.905Z" fill="url(#paint104_linear_19_13811)"/>
<path style="mix-blend-mode:color-dodge" d="M958.662 621.805H975.795V282.503H974.15V620.2H957.017V689.039L976.521 708.532V747.213H952.275C951.931 745.914 950.745 744.958 949.33 744.958C947.647 744.958 946.271 746.334 946.271 748.016C946.271 749.698 947.647 751.074 949.33 751.074C950.745 751.074 951.892 750.118 952.275 748.819H978.166V707.806L958.662 688.312V621.767V621.805Z" fill="url(#paint105_linear_19_13811)"/>
<path style="mix-blend-mode:color-dodge" d="M985.585 776.989V705.13L966.081 685.637V629.488H983.214V279.789H981.608V627.844H964.475V686.325L983.941 705.818V777.027C982.64 777.371 981.684 778.556 981.684 779.97C981.684 781.652 983.061 783.028 984.744 783.028C986.427 783.028 987.803 781.652 987.803 779.97C987.803 778.556 986.847 777.409 985.547 777.027L985.585 776.989Z" fill="url(#paint106_linear_19_13811)"/>
<path style="mix-blend-mode:color-dodge" d="M974.227 671.991C972.927 672.335 971.97 673.52 971.97 674.934C971.97 676.616 973.347 677.992 975.03 677.992C976.713 677.992 978.09 676.616 978.09 674.934C978.09 673.52 977.133 672.335 975.833 671.991V638.011H992.966V308.609H991.322V636.368H974.189V671.991H974.227Z" fill="url(#paint107_linear_19_13811)"/>
<path style="mix-blend-mode:color-dodge" d="M980.843 682.197C979.543 682.541 978.587 683.726 978.587 685.14C978.587 686.822 979.963 688.198 981.646 688.198C983.329 688.198 984.706 686.822 984.706 685.14C984.706 683.726 983.75 682.541 982.449 682.197V644.624H999.583V305.322H997.938V642.98H980.805V682.197H980.843Z" fill="url(#paint108_linear_19_13811)"/>
<path style="mix-blend-mode:color-dodge" d="M989.907 689.497V652.269H1007.04V302.57H1005.4V650.625H988.262V689.497C986.962 689.841 986.006 691.026 986.006 692.44C986.006 694.122 987.383 695.498 989.065 695.498C990.748 695.498 992.125 694.122 992.125 692.44C992.125 691.026 991.169 689.88 989.868 689.497H989.907Z" fill="url(#paint109_linear_19_13811)"/>
<path style="mix-blend-mode:screen" d="M1014.92 683.688H1005.2V711.093C1003.9 711.437 1002.95 712.622 1002.95 714.036C1002.95 715.718 1004.32 717.094 1006.01 717.094C1007.69 717.094 1009.07 715.718 1009.07 714.036C1009.07 712.66 1008.11 711.475 1006.81 711.093V685.331H1013.27V730.09H997.785V672.679H1014.92V199.216H1013.27V671.074H996.141V731.733H1014.88V683.688H1014.92Z" fill="url(#paint110_linear_19_13811)"/>
<path style="mix-blend-mode:color-dodge" d="M1173.36 960.113V904.385L1153.86 884.891V775.307H1105.44V245.657H1103.8V776.989H1152.21V885.579L1171.72 905.073V960.113C1170.42 960.457 1169.46 961.642 1169.46 963.056C1169.46 964.738 1170.84 966.114 1172.52 966.114C1174.2 966.114 1175.58 964.738 1175.58 963.056C1175.58 961.642 1174.63 960.496 1173.32 960.113H1173.36Z" fill="url(#paint111_linear_19_13811)"/>
<path style="mix-blend-mode:color-dodge" d="M1179.98 946.468V901.059L1160.47 881.566V767.892H1112.06V245.657H1110.41V769.497H1158.83V882.216L1178.33 901.709V946.468C1177.03 946.812 1176.08 947.997 1176.08 949.411C1176.08 951.093 1177.46 952.469 1179.14 952.469C1180.82 952.469 1182.2 951.093 1182.2 949.411C1182.2 947.997 1181.24 946.85 1179.94 946.468H1179.98Z" fill="url(#paint112_linear_19_13811)"/>
<path style="mix-blend-mode:color-dodge" d="M1119.44 741.824C1120.85 741.824 1122 740.868 1122.38 739.569H1138.56V711.361L1119.09 691.867V615.422H1136.23V221.041H1134.62V613.778H1117.49V692.555L1136.95 712.049V737.964H1122.42C1122.08 736.664 1120.89 735.708 1119.48 735.708C1117.79 735.708 1116.42 737.084 1116.42 738.766C1116.42 740.448 1117.79 741.824 1119.48 741.824H1119.44Z" fill="url(#paint113_linear_19_13811)"/>
<path style="mix-blend-mode:screen" d="M1124.07 689.191L1143.57 708.685V747.366H1134.32C1133.97 746.067 1132.79 745.111 1131.37 745.111C1129.69 745.111 1128.31 746.487 1128.31 748.169C1128.31 749.851 1129.69 751.227 1131.37 751.227C1132.79 751.227 1133.93 750.271 1134.32 748.972H1145.18V707.959L1125.67 688.465V621.92H1142.81V217.716H1141.16V620.391H1124.03V689.23L1124.07 689.191Z" fill="url(#paint114_linear_19_13811)"/>
<path style="mix-blend-mode:color-dodge" d="M1131.49 686.478L1150.99 705.971V757.075C1149.69 757.419 1148.73 758.604 1148.73 760.018C1148.73 761.7 1150.11 763.076 1151.79 763.076C1153.48 763.076 1154.85 761.7 1154.85 760.018C1154.85 758.604 1153.9 757.419 1152.6 757.075V705.283L1133.09 685.79V629.641H1150.23V215.002H1148.62V628.035H1131.49V686.478Z" fill="url(#paint115_linear_19_13811)"/>
<path style="mix-blend-mode:color-dodge" d="M1141.24 672.182C1139.94 672.526 1138.98 673.711 1138.98 675.126C1138.98 676.807 1140.36 678.183 1142.04 678.183C1143.72 678.183 1145.1 676.807 1145.1 675.126C1145.1 673.711 1144.14 672.526 1142.84 672.182V638.203H1159.98V243.822H1158.33V636.559H1141.2V672.182H1141.24Z" fill="url(#paint116_linear_19_13811)"/>
<path style="mix-blend-mode:color-dodge" d="M1147.89 682.388C1146.59 682.732 1145.64 683.917 1145.64 685.331C1145.64 687.013 1147.01 688.389 1148.7 688.389C1150.38 688.389 1151.76 687.013 1151.76 685.331C1151.76 683.917 1150.8 682.77 1149.5 682.388V644.815H1166.63V240.497H1165.03V643.172H1147.89V682.388Z" fill="url(#paint117_linear_19_13811)"/>
<path style="mix-blend-mode:color-dodge" d="M1155.27 689.688C1153.97 690.071 1153.02 691.217 1153.02 692.632C1153.02 694.313 1154.39 695.689 1156.08 695.689C1157.76 695.689 1159.14 694.313 1159.14 692.632C1159.14 691.217 1158.18 690.071 1156.88 689.688V652.46H1174.01V237.783H1172.37V650.816H1155.24V689.688H1155.27Z" fill="url(#paint118_linear_19_13811)"/>
<path style="mix-blend-mode:color-dodge" d="M1163.15 731.924H1181.93V683.879H1172.22V711.246C1170.92 711.59 1169.96 712.775 1169.96 714.189C1169.96 715.871 1171.34 717.247 1173.02 717.247C1174.7 717.247 1176.08 715.871 1176.08 714.189C1176.08 712.775 1175.12 711.59 1173.82 711.246V685.484H1180.29V730.243H1164.8V672.832H1181.93V260.487H1180.29V671.189H1163.15V731.848V731.924Z" fill="url(#paint119_linear_19_13811)"/>
<path style="mix-blend-mode:color-dodge" d="M1100.2 946.774V901.365L1080.7 881.872V825.684H1097.83V245.657H1096.19V824.117H1079.05V882.598L1098.56 902.091V946.85C1097.26 947.194 1096.3 948.379 1096.3 949.793C1096.3 951.475 1097.68 952.851 1099.36 952.851C1101.04 952.851 1102.42 951.475 1102.42 949.793C1102.42 948.379 1101.46 947.194 1100.16 946.85L1100.2 946.774Z" fill="url(#paint120_linear_19_13811)"/>
<path style="mix-blend-mode:color-dodge" d="M1062.34 801.107V720.687L1042.84 701.193V624.748H1059.97V189.164H1058.33V623.066H1041.19V701.843L1060.7 721.299V801.031C1059.4 801.375 1058.44 802.56 1058.44 803.974C1058.44 805.656 1059.82 807.032 1061.5 807.032C1063.18 807.032 1064.56 805.656 1064.56 803.974C1064.56 802.56 1063.6 801.375 1062.3 801.031L1062.34 801.107Z" fill="url(#paint121_linear_19_13811)"/>
<path style="mix-blend-mode:color-dodge" d="M1065.13 786.124C1065.13 787.806 1066.51 789.182 1068.19 789.182C1069.87 789.182 1071.25 787.806 1071.25 786.124C1071.25 784.71 1070.3 783.525 1069 783.181V717.323L1049.49 697.83V631.284H1066.62V185.838H1064.98V629.679H1047.85V698.518L1067.31 718.011V783.181C1066.01 783.525 1065.06 784.71 1065.06 786.124H1065.13Z" fill="url(#paint122_linear_19_13811)"/>
<path style="mix-blend-mode:color-dodge" d="M1055.27 695.804L1074.77 715.297V767.433C1073.47 767.777 1072.51 768.962 1072.51 770.376C1072.51 772.058 1073.89 773.434 1075.57 773.434C1077.26 773.434 1078.63 772.058 1078.63 770.376C1078.63 769 1077.68 767.815 1076.38 767.433V714.609L1056.91 695.116V638.967H1074.04V183.124H1072.4V637.323H1055.27V695.804Z" fill="url(#paint123_linear_19_13811)"/>
<path style="mix-blend-mode:color-dodge" d="M1317.73 825.99V770.262L1298.23 750.768V641.184H1249.81V138.442H1248.21V642.866H1296.62V751.456L1316.13 770.95V825.99C1314.83 826.334 1313.87 827.519 1313.87 828.933C1313.87 830.615 1315.25 831.991 1316.93 831.991C1318.61 831.991 1319.99 830.615 1319.99 828.933C1319.99 827.519 1319.03 826.372 1317.77 825.99H1317.73Z" fill="url(#paint124_linear_19_13811)"/>
<path style="mix-blend-mode:screen" d="M1324.35 812.345V766.936L1304.88 747.443V633.731H1256.47V138.442H1254.82V635.412H1303.24V748.131L1322.74 767.624V812.383C1321.44 812.727 1320.49 813.912 1320.49 815.326C1320.49 817.008 1321.86 818.384 1323.55 818.384C1325.23 818.384 1326.61 817.008 1326.61 815.326C1326.61 813.912 1325.65 812.727 1324.35 812.383V812.345Z" fill="url(#paint125_linear_19_13811)"/>
<path style="mix-blend-mode:color-dodge" d="M1334.06 759.101V703.372L1314.56 683.879V607.433H1331.69V65.3224H1330.05V605.828H1312.92V684.605L1332.42 704.098V759.139C1331.12 759.483 1330.16 760.668 1330.16 762.082C1330.16 763.764 1331.54 765.14 1333.22 765.14C1334.91 765.14 1336.28 763.764 1336.28 762.082C1336.28 760.668 1335.33 759.521 1334.03 759.139L1334.06 759.101Z" fill="url(#paint126_linear_19_13811)"/>
<path style="mix-blend-mode:color-dodge" d="M1340.72 745.455V700.047L1321.21 680.553V614.008H1338.35V61.9589H1336.74V612.402H1319.61V681.241L1339.11 700.735V745.493C1337.81 745.837 1336.86 747.022 1336.86 748.437C1336.86 750.118 1338.23 751.494 1339.92 751.494C1341.6 751.494 1342.98 750.118 1342.98 748.437C1342.98 747.022 1342.02 745.837 1340.72 745.493V745.455Z" fill="url(#paint127_linear_19_13811)"/>
<path style="mix-blend-mode:color-dodge" d="M1348.14 742.741V697.333L1328.63 677.839V621.69H1345.77V59.245H1344.12V620.047H1326.99V678.489L1346.49 697.983V742.741C1345.19 743.085 1344.24 744.27 1344.24 745.685C1344.24 747.366 1345.61 748.742 1347.3 748.742C1348.98 748.742 1350.36 747.366 1350.36 745.685C1350.36 744.27 1349.4 743.085 1348.1 742.741H1348.14Z" fill="url(#paint128_linear_19_13811)"/>
<path style="mix-blend-mode:screen" d="M1263.81 607.739C1265.23 607.739 1266.41 606.784 1266.76 605.484H1282.93V577.238L1263.47 557.744V481.299H1280.6V41.8538H1278.95V479.694H1261.82V558.47L1281.33 577.964V603.879H1266.79C1266.45 602.579 1265.26 601.624 1263.85 601.624C1262.17 601.624 1260.79 603 1260.79 604.681C1260.79 606.363 1262.17 607.739 1263.85 607.739H1263.81Z" fill="url(#paint129_linear_19_13811)"/>
<path style="mix-blend-mode:screen" d="M1268.44 555.107L1287.94 574.6V613.281H1278.69C1278.34 611.982 1277.16 611.026 1275.74 611.026C1274.06 611.026 1272.68 612.402 1272.68 614.084C1272.68 615.766 1274.06 617.142 1275.74 617.142C1277.16 617.142 1278.34 616.186 1278.69 614.887H1289.55V573.874L1270.04 554.38V487.835H1287.18V38.5283H1285.53V486.268H1268.4V555.107H1268.44Z" fill="url(#paint130_linear_19_13811)"/>
<path style="mix-blend-mode:screen" d="M1275.86 552.393L1295.36 571.886V622.99C1294.06 623.334 1293.1 624.519 1293.1 625.933C1293.1 627.615 1294.48 628.991 1296.16 628.991C1297.85 628.991 1299.22 627.615 1299.22 625.933C1299.22 624.519 1298.27 623.372 1296.97 622.99V571.198L1277.46 551.705V495.556H1294.6V35.8146H1292.99V493.912H1275.86V552.355V552.393Z" fill="url(#paint131_linear_19_13811)"/>
<path style="mix-blend-mode:color-dodge" d="M1326.3 549.794H1316.59V577.161C1315.29 577.505 1314.33 578.69 1314.33 580.104C1314.33 581.786 1315.71 583.162 1317.39 583.162C1319.07 583.162 1320.45 581.786 1320.45 580.104C1320.45 578.69 1319.49 577.505 1318.19 577.161V551.399H1324.66V596.158H1309.17V538.747H1326.3V0H1324.66V537.18H1307.52V597.84H1326.3V549.794Z" fill="url(#paint132_linear_19_13811)"/>
<path style="mix-blend-mode:color-dodge" d="M1211.95 679.483H1226.83V573.683L1211.07 559.044V513.865H1228.36V141.5C1229.66 141.156 1230.61 139.971 1230.61 138.557C1230.61 136.875 1229.24 135.499 1227.55 135.499C1225.87 135.499 1224.5 136.875 1224.5 138.557C1224.5 139.971 1225.45 141.156 1226.75 141.5V512.259H1209.47V559.77L1225.22 574.409V677.878H1210.34V754.438L1229.85 773.931V832.182C1229.05 832.297 1227.44 833.826 1229.28 835.508C1229.47 835.661 1230.04 835.966 1230.61 835.966C1231.03 835.966 1231.88 835.661 1232.07 835.469C1233.64 834.017 1232.26 832.297 1231.69 832.182C1231.61 832.182 1231.49 832.106 1231.49 832.106V773.243L1211.99 753.75V679.521L1211.95 679.483Z" fill="url(#paint133_linear_19_13811)"/>
<path style="mix-blend-mode:color-dodge" d="M1218.57 687.051H1235.7V569.555L1218.57 552.278V521.891H1235.74V114.63C1237.04 114.286 1238 113.101 1238 111.686C1238 110.005 1236.62 108.629 1234.94 108.629C1233.25 108.629 1231.88 110.005 1231.88 111.686C1231.88 113.101 1232.83 114.286 1234.13 114.63V520.21H1216.96V552.89L1234.09 570.205V685.408H1216.96V754.246L1236.47 773.74V824.5H1238.07V773.09L1218.57 753.597V687.051Z" fill="url(#paint134_linear_19_13811)"/>
<path style="mix-blend-mode:color-dodge" d="M1244.57 812.689V767.28L1225.07 747.787V691.638H1242.2V138.442H1240.56V689.994H1223.42V748.475L1242.93 767.968V812.727C1241.63 813.071 1240.67 814.256 1240.67 815.67C1240.67 817.352 1242.05 818.728 1243.73 818.728C1245.41 818.728 1246.79 817.352 1246.79 815.67C1246.79 814.256 1245.84 813.109 1244.57 812.727V812.689Z" fill="url(#paint135_linear_19_13811)"/>
<path style="mix-blend-mode:color-dodge" d="M1206.71 666.984V586.564L1187.21 567.07V490.625H1204.34V268.437H1202.7V488.982H1185.56V567.758L1185.68 567.835V739.913H1168.54V818.69L1188.01 838.183V893.224C1186.71 893.568 1185.75 894.753 1185.75 896.167C1185.75 897.849 1187.13 899.225 1188.81 899.225C1190.5 899.225 1191.87 897.849 1191.87 896.167C1191.87 894.753 1190.92 893.606 1189.62 893.224V837.495L1170.11 818.002V741.556H1187.25V569.478L1192.26 574.486V746.525H1175.12V815.364L1194.63 834.858V879.616C1193.33 879.961 1192.37 881.145 1192.37 882.56C1192.37 884.241 1193.75 885.617 1195.43 885.617C1197.11 885.617 1198.49 884.241 1198.49 882.56C1198.49 881.145 1197.53 879.999 1196.23 879.616V834.208L1176.77 814.714V748.169H1193.9V576.129L1199.68 581.901V754.17H1182.54V812.651L1202.05 832.144V876.903C1200.75 877.247 1199.79 878.432 1199.79 879.846C1199.79 881.528 1201.17 882.904 1202.85 882.904C1204.53 882.904 1205.91 881.528 1205.91 879.846C1205.91 878.432 1204.95 877.247 1203.65 876.903V831.456L1184.15 811.962V755.814H1201.28V583.544L1204.99 587.252V666.984C1203.69 667.328 1202.77 668.513 1202.77 669.927C1202.77 671.609 1204.15 672.985 1205.83 672.985C1207.52 672.985 1208.89 671.609 1208.89 669.927C1208.89 668.513 1207.94 667.328 1206.64 666.984H1206.71Z" fill="url(#paint136_linear_19_13811)"/>
<path style="mix-blend-mode:color-dodge" d="M1209.5 652.001C1209.5 653.683 1210.88 655.059 1212.56 655.059C1214.25 655.059 1215.62 653.683 1215.62 652.001C1215.62 650.587 1214.67 649.402 1213.37 649.058V583.2L1193.86 563.707V497.161H1211V265.035H1209.35V495.518H1192.22V564.356L1211.68 583.85V649.02C1210.38 649.364 1209.43 650.548 1209.43 651.963L1209.5 652.001Z" fill="url(#paint137_linear_19_13811)"/>
<path style="mix-blend-mode:color-dodge" d="M1199.68 561.719L1219.18 581.213V633.348C1217.88 633.692 1216.92 634.877 1216.92 636.291C1216.92 637.973 1218.3 639.349 1219.98 639.349C1221.67 639.349 1223.04 637.973 1223.04 636.291C1223.04 634.877 1222.09 633.692 1220.79 633.348V580.525L1201.28 561.031V504.882H1218.41V262.398H1216.77V503.239H1199.64V561.719H1199.68Z" fill="url(#paint138_linear_19_13811)"/>
<path style="mix-blend-mode:color-dodge" d="M1423.67 807.185V751.456L1404.17 731.963V655.518H1421.3V369.001H1419.69V653.912H1402.56V762.999C1401.26 763.343 1400.3 764.528 1400.3 765.943C1400.3 767.624 1401.68 769 1403.36 769C1405.05 769 1406.42 767.624 1406.42 765.943C1406.42 764.528 1405.47 763.382 1404.17 762.999V734.294L1409.18 739.301V788.647C1407.88 788.991 1406.92 790.176 1406.92 791.59C1406.92 793.272 1408.3 794.648 1409.98 794.648C1411.66 794.648 1413.04 793.272 1413.04 791.59C1413.04 790.176 1412.08 788.991 1410.78 788.647V740.945L1421.99 752.182V807.223C1420.69 807.567 1419.73 808.752 1419.73 810.166C1419.73 811.848 1421.11 813.224 1422.79 813.224C1424.47 813.224 1425.85 811.848 1425.85 810.166C1425.85 808.752 1424.89 807.605 1423.59 807.223L1423.67 807.185Z" fill="url(#paint139_linear_19_13811)"/>
<path style="mix-blend-mode:color-dodge" d="M1430.32 793.501V748.093L1410.82 728.599V662.054H1427.95V365.599H1426.31V660.41H1409.18V729.249L1428.68 748.742V793.501C1427.38 793.845 1426.42 795.03 1426.42 796.444C1426.42 798.126 1427.8 799.502 1429.48 799.502C1431.17 799.502 1432.54 798.126 1432.54 796.444C1432.54 795.03 1431.59 793.883 1430.29 793.501H1430.32Z" fill="url(#paint140_linear_19_13811)"/>
<path style="mix-blend-mode:color-dodge" d="M1437.74 790.825V745.417L1418.24 725.923V669.774H1435.37V362.962H1433.73V668.169H1416.59V726.65L1436.1 746.143V790.902C1434.8 791.246 1433.84 792.431 1433.84 793.845C1433.84 795.527 1435.22 796.903 1436.9 796.903C1438.58 796.903 1439.96 795.527 1439.96 793.845C1439.96 792.431 1439.01 791.284 1437.71 790.902L1437.74 790.825Z" fill="url(#paint141_linear_19_13811)"/>
<path style="mix-blend-mode:color-dodge" d="M1370.89 651.886H1341.37C1340.99 650.587 1339.84 649.631 1338.42 649.631C1336.7 649.631 1335.36 651.007 1335.36 652.689C1335.36 654.371 1336.74 655.747 1338.42 655.747C1339.84 655.747 1340.99 654.791 1341.37 653.492H1372.54V625.283L1353.03 605.79V529.345H1370.17V89.8995H1368.52V527.701H1351.39V606.478L1370.85 625.971V651.886H1370.89Z" fill="url(#paint142_linear_19_13811)"/>
<path style="mix-blend-mode:color-dodge" d="M1359.69 535.919H1376.82V385.169L1375.18 86.5742V534.314H1358.04V603.153L1377.55 622.646V661.327H1353.3C1352.96 660.028 1351.77 659.072 1350.36 659.072C1348.67 659.072 1347.3 660.448 1347.3 662.13C1347.3 663.812 1348.67 665.188 1350.36 665.188C1351.73 665.188 1352.92 664.232 1353.3 662.933H1379.19V621.92L1359.69 602.426V535.881V535.919Z" fill="url(#paint143_linear_19_13811)"/>
<path style="mix-blend-mode:color-dodge" d="M1386.61 691.141V619.244L1367.11 599.751V543.602H1384.24V382.455H1382.63V541.958H1365.5V600.439L1385.01 619.932V691.141C1383.71 691.485 1382.75 692.67 1382.75 694.084C1382.75 695.766 1384.13 697.142 1385.81 697.142C1387.49 697.142 1388.87 695.766 1388.87 694.084C1388.87 692.67 1387.91 691.523 1386.61 691.141Z" fill="url(#paint144_linear_19_13811)"/>
<path style="mix-blend-mode:color-dodge" d="M1375.21 586.144C1373.95 586.488 1372.96 587.672 1372.96 589.087C1372.96 590.768 1374.34 592.144 1376.02 592.144C1377.7 592.144 1379.08 590.768 1379.08 589.087C1379.08 587.672 1378.12 586.526 1376.82 586.144V552.164H1393.95V411.313H1392.31V550.52H1375.18V586.144H1375.21Z" fill="url(#paint145_linear_19_13811)"/>
<path style="mix-blend-mode:color-dodge" d="M1381.87 596.311C1380.57 596.655 1379.61 597.84 1379.61 599.254C1379.61 600.936 1380.99 602.312 1382.67 602.312C1384.36 602.312 1385.73 600.936 1385.73 599.254C1385.73 597.84 1384.78 596.693 1383.48 596.311V558.738H1400.61V407.988H1398.96V557.094H1381.83V596.311H1381.87Z" fill="url(#paint146_linear_19_13811)"/>
<path style="mix-blend-mode:color-dodge" d="M1390.93 603.649V566.382H1408.07V405.274H1406.42V564.777H1389.29V603.649C1387.99 603.993 1387.03 605.178 1387.03 606.593C1387.03 608.274 1388.41 609.65 1390.09 609.65C1391.77 609.65 1393.15 608.274 1393.15 606.593C1393.15 605.178 1392.2 603.993 1390.89 603.649H1390.93Z" fill="url(#paint147_linear_19_13811)"/>
<path style="mix-blend-mode:color-dodge" d="M1415.91 597.84H1406.19V625.207C1404.89 625.551 1403.94 626.736 1403.94 628.15C1403.94 629.832 1405.31 631.208 1407 631.208C1408.68 631.208 1410.05 629.832 1410.05 628.15C1410.05 626.736 1409.1 625.589 1407.8 625.207V599.445H1414.26V644.203H1398.73V586.831H1415.87V449.345H1414.26V585.188H1397.13V645.847H1415.91V597.801V597.84Z" fill="url(#paint148_linear_19_13811)"/>
</g>
</g>
<defs>
<linearGradient id="paint0_linear_19_13811" x1="10.6701" y1="1000.48" x2="12.6565" y2="341.748" gradientUnits="userSpaceOnUse">
<stop stop-color="#D1D0D0"/>
<stop offset="1" stop-color="#231F20"/>
</linearGradient>
<linearGradient id="paint1_linear_19_13811" x1="17.6687" y1="1000.48" x2="19.6552" y2="341.748" gradientUnits="userSpaceOnUse">
<stop stop-color="#D1D0D0"/>
<stop offset="1" stop-color="#231F20"/>
</linearGradient>
<linearGradient id="paint2_linear_19_13811" x1="26.2354" y1="1000.51" x2="28.2219" y2="341.786" gradientUnits="userSpaceOnUse">
<stop stop-color="#D1D0D0"/>
<stop offset="1" stop-color="#231F20"/>
</linearGradient>
<linearGradient id="paint3_linear_19_13811" x1="32.431" y1="1000.51" x2="34.4175" y2="341.786" gradientUnits="userSpaceOnUse">
<stop stop-color="#D1D0D0"/>
<stop offset="1" stop-color="#231F20"/>
</linearGradient>
<linearGradient id="paint4_linear_19_13811" x1="39.1235" y1="1000.55" x2="41.11" y2="341.825" gradientUnits="userSpaceOnUse">
<stop stop-color="#D1D0D0"/>
<stop offset="1" stop-color="#231F20"/>
</linearGradient>
<linearGradient id="paint5_linear_19_13811" x1="46.5429" y1="1000.55" x2="48.5294" y2="341.825" gradientUnits="userSpaceOnUse">
<stop stop-color="#D1D0D0"/>
<stop offset="1" stop-color="#231F20"/>
</linearGradient>
<linearGradient id="paint6_linear_19_13811" x1="55.6451" y1="1000.59" x2="57.6315" y2="341.863" gradientUnits="userSpaceOnUse">
<stop stop-color="#D1D0D0"/>
<stop offset="1" stop-color="#231F20"/>
</linearGradient>
<linearGradient id="paint7_linear_19_13811" x1="166.399" y1="1000.93" x2="168.386" y2="342.207" gradientUnits="userSpaceOnUse">
<stop stop-color="#D1D0D0"/>
<stop offset="1" stop-color="#231F20"/>
</linearGradient>
<linearGradient id="paint8_linear_19_13811" x1="361.291" y1="1001.51" x2="363.277" y2="342.78" gradientUnits="userSpaceOnUse">
<stop stop-color="#D1D0D0"/>
<stop offset="1" stop-color="#231F20"/>
</linearGradient>
<linearGradient id="paint9_linear_19_13811" x1="368.519" y1="571.351" x2="354.652" y2="-27.8647" gradientUnits="userSpaceOnUse">
<stop stop-color="#D1D0D0"/>
<stop offset="1" stop-color="#231F20"/>
</linearGradient>
<linearGradient id="paint10_linear_19_13811" x1="173.016" y1="1000.94" x2="175.002" y2="342.207" gradientUnits="userSpaceOnUse">
<stop stop-color="#D1D0D0"/>
<stop offset="1" stop-color="#231F20"/>
</linearGradient>
<linearGradient id="paint11_linear_19_13811" x1="207.665" y1="1001.05" x2="209.651" y2="342.322" gradientUnits="userSpaceOnUse">
<stop stop-color="#D1D0D0"/>
<stop offset="1" stop-color="#231F20"/>
</linearGradient>
<linearGradient id="paint12_linear_19_13811" x1="214.319" y1="1001.09" x2="216.306" y2="342.36" gradientUnits="userSpaceOnUse">
<stop stop-color="#D1D0D0"/>
<stop offset="1" stop-color="#231F20"/>
</linearGradient>
<linearGradient id="paint13_linear_19_13811" x1="222.198" y1="574.715" x2="208.33" y2="-24.4628" gradientUnits="userSpaceOnUse">
<stop stop-color="#D1D0D0"/>
<stop offset="1" stop-color="#231F20"/>
</linearGradient>
<linearGradient id="paint14_linear_19_13811" x1="154.658" y1="1000.9" x2="156.645" y2="342.169" gradientUnits="userSpaceOnUse">
<stop stop-color="#D1D0D0"/>
<stop offset="1" stop-color="#231F20"/>
</linearGradient>
<linearGradient id="paint15_linear_19_13811" x1="161.657" y1="1000.9" x2="163.644" y2="342.169" gradientUnits="userSpaceOnUse">
<stop stop-color="#D1D0D0"/>
<stop offset="1" stop-color="#231F20"/>
</linearGradient>
<linearGradient id="paint16_linear_19_13811" x1="170.224" y1="1000.94" x2="172.21" y2="342.207" gradientUnits="userSpaceOnUse">
<stop stop-color="#D1D0D0"/>
<stop offset="1" stop-color="#231F20"/>
</linearGradient>
<linearGradient id="paint17_linear_19_13811" x1="180.359" y1="575.709" x2="166.491" y2="-23.5073" gradientUnits="userSpaceOnUse">
<stop stop-color="#D1D0D0"/>
<stop offset="1" stop-color="#231F20"/>
</linearGradient>
<linearGradient id="paint18_linear_19_13811" x1="183.074" y1="1000.97" x2="185.06" y2="342.245" gradientUnits="userSpaceOnUse">
<stop stop-color="#D1D0D0"/>
<stop offset="1" stop-color="#231F20"/>
</linearGradient>
<linearGradient id="paint19_linear_19_13811" x1="190.531" y1="1001.01" x2="192.518" y2="342.283" gradientUnits="userSpaceOnUse">
<stop stop-color="#D1D0D0"/>
<stop offset="1" stop-color="#231F20"/>
</linearGradient>
<linearGradient id="paint20_linear_19_13811" x1="199.595" y1="1001.01" x2="201.582" y2="342.283" gradientUnits="userSpaceOnUse">
<stop stop-color="#D1D0D0"/>
<stop offset="1" stop-color="#231F20"/>
</linearGradient>
<linearGradient id="paint21_linear_19_13811" x1="118.403" y1="1000.78" x2="120.39" y2="342.054" gradientUnits="userSpaceOnUse">
<stop stop-color="#D1D0D0"/>
<stop offset="1" stop-color="#231F20"/>
</linearGradient>
<linearGradient id="paint22_linear_19_13811" x1="112.284" y1="1017.6" x2="114.347" y2="339.378" gradientUnits="userSpaceOnUse">
<stop stop-color="#D1D0D0"/>
<stop offset="1" stop-color="#231F20"/>
</linearGradient>
<linearGradient id="paint23_linear_19_13811" x1="103.871" y1="1004.38" x2="105.895" y2="331.39" gradientUnits="userSpaceOnUse">
<stop stop-color="#D1D0D0"/>
<stop offset="1" stop-color="#231F20"/>
</linearGradient>
<linearGradient id="paint24_linear_19_13811" x1="80.0065" y1="1000.67" x2="81.9929" y2="341.939" gradientUnits="userSpaceOnUse">
<stop stop-color="#D1D0D0"/>
<stop offset="1" stop-color="#231F20"/>
</linearGradient>
<linearGradient id="paint25_linear_19_13811" x1="86.6609" y1="1000.67" x2="88.6092" y2="341.939" gradientUnits="userSpaceOnUse">
<stop stop-color="#D1D0D0"/>
<stop offset="1" stop-color="#231F20"/>
</linearGradient>
<linearGradient id="paint26_linear_19_13811" x1="94.0419" y1="1000.71" x2="96.0283" y2="341.978" gradientUnits="userSpaceOnUse">
<stop stop-color="#D1D0D0"/>
<stop offset="1" stop-color="#231F20"/>
</linearGradient>
<linearGradient id="paint27_linear_19_13811" x1="297.423" y1="1001.32" x2="299.41" y2="342.589" gradientUnits="userSpaceOnUse">
<stop stop-color="#D1D0D0"/>
<stop offset="1" stop-color="#231F20"/>
</linearGradient>
<linearGradient id="paint28_linear_19_13811" x1="303.772" y1="572.842" x2="289.867" y2="-26.374" gradientUnits="userSpaceOnUse">
<stop stop-color="#D1D0D0"/>
<stop offset="1" stop-color="#231F20"/>
</linearGradient>
<linearGradient id="paint29_linear_19_13811" x1="311.229" y1="572.651" x2="297.324" y2="-26.5268" gradientUnits="userSpaceOnUse">
<stop stop-color="#D1D0D0"/>
<stop offset="1" stop-color="#231F20"/>
</linearGradient>
<linearGradient id="paint30_linear_19_13811" x1="236.921" y1="1001.13" x2="238.87" y2="342.398" gradientUnits="userSpaceOnUse">
<stop stop-color="#D1D0D0"/>
<stop offset="1" stop-color="#231F20"/>
</linearGradient>
<linearGradient id="paint31_linear_19_13811" x1="246.865" y1="574.142" x2="232.998" y2="-25.0361" gradientUnits="userSpaceOnUse">
<stop stop-color="#D1D0D0"/>
<stop offset="1" stop-color="#231F20"/>
</linearGradient>
<linearGradient id="paint32_linear_19_13811" x1="260.021" y1="1001.2" x2="262.007" y2="342.474" gradientUnits="userSpaceOnUse">
<stop stop-color="#D1D0D0"/>
<stop offset="1" stop-color="#231F20"/>
</linearGradient>
<linearGradient id="paint33_linear_19_13811" x1="266.178" y1="1001.24" x2="268.165" y2="342.513" gradientUnits="userSpaceOnUse">
<stop stop-color="#D1D0D0"/>
<stop offset="1" stop-color="#231F20"/>
</linearGradient>
<linearGradient id="paint34_linear_19_13811" x1="272.832" y1="1001.24" x2="274.819" y2="342.513" gradientUnits="userSpaceOnUse">
<stop stop-color="#D1D0D0"/>
<stop offset="1" stop-color="#231F20"/>
</linearGradient>
<linearGradient id="paint35_linear_19_13811" x1="280.29" y1="1001.28" x2="282.277" y2="342.551" gradientUnits="userSpaceOnUse">
<stop stop-color="#D1D0D0"/>
<stop offset="1" stop-color="#231F20"/>
</linearGradient>
<linearGradient id="paint36_linear_19_13811" x1="289.354" y1="1001.28" x2="291.34" y2="342.551" gradientUnits="userSpaceOnUse">
<stop stop-color="#D1D0D0"/>
<stop offset="1" stop-color="#231F20"/>
</linearGradient>
<linearGradient id="paint37_linear_19_13811" x1="423.093" y1="1001.7" x2="425.079" y2="342.971" gradientUnits="userSpaceOnUse">
<stop stop-color="#D1D0D0"/>
<stop offset="1" stop-color="#231F20"/>
</linearGradient>
<linearGradient id="paint38_linear_19_13811" x1="423.399" y1="570.052" x2="409.532" y2="-29.126" gradientUnits="userSpaceOnUse">
<stop stop-color="#D1D0D0"/>
<stop offset="1" stop-color="#231F20"/>
</linearGradient>
<linearGradient id="paint39_linear_19_13811" x1="413.647" y1="570.281" x2="399.741" y2="-28.8967" gradientUnits="userSpaceOnUse">
<stop stop-color="#D1D0D0"/>
<stop offset="1" stop-color="#231F20"/>
</linearGradient>
<linearGradient id="paint40_linear_19_13811" x1="421.41" y1="570.128" x2="407.543" y2="-29.0878" gradientUnits="userSpaceOnUse">
<stop stop-color="#D1D0D0"/>
<stop offset="1" stop-color="#231F20"/>
</linearGradient>
<linearGradient id="paint41_linear_19_13811" x1="428.868" y1="569.937" x2="415.001" y2="-29.2789" gradientUnits="userSpaceOnUse">
<stop stop-color="#D1D0D0"/>
<stop offset="1" stop-color="#231F20"/>
</linearGradient>
<linearGradient id="paint42_linear_19_13811" x1="433.189" y1="1001.74" x2="435.176" y2="343.009" gradientUnits="userSpaceOnUse">
<stop stop-color="#D1D0D0"/>
<stop offset="1" stop-color="#231F20"/>
</linearGradient>
<linearGradient id="paint43_linear_19_13811" x1="439.844" y1="1001.74" x2="441.83" y2="343.009" gradientUnits="userSpaceOnUse">
<stop stop-color="#D1D0D0"/>
<stop offset="1" stop-color="#231F20"/>
</linearGradient>
<linearGradient id="paint44_linear_19_13811" x1="447.302" y1="1001.78" x2="449.288" y2="343.048" gradientUnits="userSpaceOnUse">
<stop stop-color="#D1D0D0"/>
<stop offset="1" stop-color="#231F20"/>
</linearGradient>
<linearGradient id="paint45_linear_19_13811" x1="456.365" y1="1001.81" x2="458.352" y2="343.086" gradientUnits="userSpaceOnUse">
<stop stop-color="#D1D0D0"/>
<stop offset="1" stop-color="#231F20"/>
</linearGradient>
<linearGradient id="paint46_linear_19_13811" x1="375.173" y1="1001.55" x2="377.16" y2="342.818" gradientUnits="userSpaceOnUse">
<stop stop-color="#D1D0D0"/>
<stop offset="1" stop-color="#231F20"/>
</linearGradient>
<linearGradient id="paint47_linear_19_13811" x1="338.153" y1="572.039" x2="324.286" y2="-27.1385" gradientUnits="userSpaceOnUse">
<stop stop-color="#D1D0D0"/>
<stop offset="1" stop-color="#231F20"/>
</linearGradient>
<linearGradient id="paint48_linear_19_13811" x1="344.884" y1="571.886" x2="330.979" y2="-27.2913" gradientUnits="userSpaceOnUse">
<stop stop-color="#D1D0D0"/>
<stop offset="1" stop-color="#231F20"/>
</linearGradient>
<linearGradient id="paint49_linear_19_13811" x1="352.342" y1="571.695" x2="338.474" y2="-27.4825" gradientUnits="userSpaceOnUse">
<stop stop-color="#D1D0D0"/>
<stop offset="1" stop-color="#231F20"/>
</linearGradient>
<linearGradient id="paint50_linear_19_13811" x1="567.464" y1="1002.12" x2="569.451" y2="343.392" gradientUnits="userSpaceOnUse">
<stop stop-color="#D1D0D0"/>
<stop offset="1" stop-color="#231F20"/>
</linearGradient>
<linearGradient id="paint51_linear_19_13811" x1="574.08" y1="1002.16" x2="576.067" y2="343.43" gradientUnits="userSpaceOnUse">
<stop stop-color="#D1D0D0"/>
<stop offset="1" stop-color="#231F20"/>
</linearGradient>
<linearGradient id="paint52_linear_19_13811" x1="608.423" y1="1002.27" x2="610.41" y2="343.545" gradientUnits="userSpaceOnUse">
<stop stop-color="#D1D0D0"/>
<stop offset="1" stop-color="#231F20"/>
</linearGradient>
<linearGradient id="paint53_linear_19_13811" x1="615.04" y1="1002.27" x2="617.026" y2="343.545" gradientUnits="userSpaceOnUse">
<stop stop-color="#D1D0D0"/>
<stop offset="1" stop-color="#231F20"/>
</linearGradient>
<linearGradient id="paint54_linear_19_13811" x1="622.459" y1="1002.31" x2="624.445" y2="343.583" gradientUnits="userSpaceOnUse">
<stop stop-color="#D1D0D0"/>
<stop offset="1" stop-color="#231F20"/>
</linearGradient>
<linearGradient id="paint55_linear_19_13811" x1="555.417" y1="1002.08" x2="557.365" y2="343.354" gradientUnits="userSpaceOnUse">
<stop stop-color="#D1D0D0"/>
<stop offset="1" stop-color="#231F20"/>
</linearGradient>
<linearGradient id="paint56_linear_19_13811" x1="562.416" y1="1002.12" x2="564.402" y2="343.392" gradientUnits="userSpaceOnUse">
<stop stop-color="#D1D0D0"/>
<stop offset="1" stop-color="#231F20"/>
</linearGradient>
<linearGradient id="paint57_linear_19_13811" x1="570.982" y1="1002.16" x2="572.969" y2="343.43" gradientUnits="userSpaceOnUse">
<stop stop-color="#D1D0D0"/>
<stop offset="1" stop-color="#231F20"/>
</linearGradient>
<linearGradient id="paint58_linear_19_13811" x1="600.354" y1="1002.23" x2="602.34" y2="343.506" gradientUnits="userSpaceOnUse">
<stop stop-color="#D1D0D0"/>
<stop offset="1" stop-color="#231F20"/>
</linearGradient>
<linearGradient id="paint59_linear_19_13811" x1="504.859" y1="1001.93" x2="506.807" y2="343.201" gradientUnits="userSpaceOnUse">
<stop stop-color="#D1D0D0"/>
<stop offset="1" stop-color="#231F20"/>
</linearGradient>
<linearGradient id="paint60_linear_19_13811" x1="511.284" y1="1001.97" x2="513.232" y2="343.239" gradientUnits="userSpaceOnUse">
<stop stop-color="#D1D0D0"/>
<stop offset="1" stop-color="#231F20"/>
</linearGradient>
<linearGradient id="paint61_linear_19_13811" x1="519.162" y1="1002.01" x2="521.11" y2="343.239" gradientUnits="userSpaceOnUse">
<stop stop-color="#D1D0D0"/>
<stop offset="1" stop-color="#231F20"/>
</linearGradient>
<linearGradient id="paint62_linear_19_13811" x1="472.619" y1="1001.85" x2="474.605" y2="343.124" gradientUnits="userSpaceOnUse">
<stop stop-color="#D1D0D0"/>
<stop offset="1" stop-color="#231F20"/>
</linearGradient>
<linearGradient id="paint63_linear_19_13811" x1="487.381" y1="1001.89" x2="489.368" y2="343.162" gradientUnits="userSpaceOnUse">
<stop stop-color="#D1D0D0"/>
<stop offset="1" stop-color="#231F20"/>
</linearGradient>
<linearGradient id="paint64_linear_19_13811" x1="494.8" y1="1001.93" x2="496.787" y2="343.201" gradientUnits="userSpaceOnUse">
<stop stop-color="#D1D0D0"/>
<stop offset="1" stop-color="#231F20"/>
</linearGradient>
<linearGradient id="paint65_linear_19_13811" x1="697.226" y1="1002.54" x2="699.212" y2="343.812" gradientUnits="userSpaceOnUse">
<stop stop-color="#D1D0D0"/>
<stop offset="1" stop-color="#231F20"/>
</linearGradient>
<linearGradient id="paint66_linear_19_13811" x1="704.798" y1="1002.54" x2="706.784" y2="343.812" gradientUnits="userSpaceOnUse">
<stop stop-color="#D1D0D0"/>
<stop offset="1" stop-color="#231F20"/>
</linearGradient>
<linearGradient id="paint67_linear_19_13811" x1="712.255" y1="1002.58" x2="714.242" y2="343.85" gradientUnits="userSpaceOnUse">
<stop stop-color="#D1D0D0"/>
<stop offset="1" stop-color="#231F20"/>
</linearGradient>
<linearGradient id="paint68_linear_19_13811" x1="637.642" y1="1002.35" x2="639.628" y2="343.621" gradientUnits="userSpaceOnUse">
<stop stop-color="#D1D0D0"/>
<stop offset="1" stop-color="#231F20"/>
</linearGradient>
<linearGradient id="paint69_linear_19_13811" x1="646.973" y1="1002.39" x2="648.96" y2="343.659" gradientUnits="userSpaceOnUse">
<stop stop-color="#D1D0D0"/>
<stop offset="1" stop-color="#231F20"/>
</linearGradient>
<linearGradient id="paint70_linear_19_13811" x1="660.779" y1="1002.43" x2="662.728" y2="343.698" gradientUnits="userSpaceOnUse">
<stop stop-color="#D1D0D0"/>
<stop offset="1" stop-color="#231F20"/>
</linearGradient>
<linearGradient id="paint71_linear_19_13811" x1="666.937" y1="1002.43" x2="668.923" y2="343.697" gradientUnits="userSpaceOnUse">
<stop stop-color="#D1D0D0"/>
<stop offset="1" stop-color="#231F20"/>
</linearGradient>
<linearGradient id="paint72_linear_19_13811" x1="673.591" y1="1002.46" x2="675.578" y2="343.736" gradientUnits="userSpaceOnUse">
<stop stop-color="#D1D0D0"/>
<stop offset="1" stop-color="#231F20"/>
</linearGradient>
<linearGradient id="paint73_linear_19_13811" x1="681.048" y1="1002.46" x2="683.035" y2="343.736" gradientUnits="userSpaceOnUse">
<stop stop-color="#D1D0D0"/>
<stop offset="1" stop-color="#231F20"/>
</linearGradient>
<linearGradient id="paint74_linear_19_13811" x1="690.112" y1="1002.5" x2="692.099" y2="343.774" gradientUnits="userSpaceOnUse">
<stop stop-color="#D1D0D0"/>
<stop offset="1" stop-color="#231F20"/>
</linearGradient>
<linearGradient id="paint75_linear_19_13811" x1="732.907" y1="1002.62" x2="734.894" y2="343.889" gradientUnits="userSpaceOnUse">
<stop stop-color="#D1D0D0"/>
<stop offset="1" stop-color="#231F20"/>
</linearGradient>
<linearGradient id="paint76_linear_19_13811" x1="741.665" y1="562.713" x2="727.798" y2="-36.5029" gradientUnits="userSpaceOnUse">
<stop stop-color="#D1D0D0"/>
<stop offset="1" stop-color="#231F20"/>
</linearGradient>
<linearGradient id="paint77_linear_19_13811" x1="750.079" y1="562.484" x2="736.212" y2="-36.6941" gradientUnits="userSpaceOnUse">
<stop stop-color="#D1D0D0"/>
<stop offset="1" stop-color="#231F20"/>
</linearGradient>
<linearGradient id="paint78_linear_19_13811" x1="756.657" y1="562.331" x2="742.751" y2="-36.8469" gradientUnits="userSpaceOnUse">
<stop stop-color="#D1D0D0"/>
<stop offset="1" stop-color="#231F20"/>
</linearGradient>
<linearGradient id="paint79_linear_19_13811" x1="764" y1="562.178" x2="750.133" y2="-37.0381" gradientUnits="userSpaceOnUse">
<stop stop-color="#D1D0D0"/>
<stop offset="1" stop-color="#231F20"/>
</linearGradient>
<linearGradient id="paint80_linear_19_13811" x1="772.031" y1="561.987" x2="758.164" y2="-37.191" gradientUnits="userSpaceOnUse">
<stop stop-color="#D1D0D0"/>
<stop offset="1" stop-color="#231F20"/>
</linearGradient>
<linearGradient id="paint81_linear_19_13811" x1="877.011" y1="559.579" x2="863.105" y2="-39.6372" gradientUnits="userSpaceOnUse">
<stop stop-color="#D1D0D0"/>
<stop offset="1" stop-color="#231F20"/>
</linearGradient>
<linearGradient id="paint82_linear_19_13811" x1="1076.53" y1="1003.65" x2="1078.52" y2="344.921" gradientUnits="userSpaceOnUse">
<stop stop-color="#D1D0D0"/>
<stop offset="1" stop-color="#231F20"/>
</linearGradient>
<linearGradient id="paint83_linear_19_13811" x1="1083.57" y1="1003.69" x2="1085.55" y2="344.959" gradientUnits="userSpaceOnUse">
<stop stop-color="#D1D0D0"/>
<stop offset="1" stop-color="#231F20"/>
</linearGradient>
<linearGradient id="paint84_linear_19_13811" x1="883.856" y1="559.388" x2="869.989" y2="-39.7901" gradientUnits="userSpaceOnUse">
<stop stop-color="#D1D0D0"/>
<stop offset="1" stop-color="#231F20"/>
</linearGradient>
<linearGradient id="paint85_linear_19_13811" x1="923.171" y1="558.509" x2="909.304" y2="-40.7074" gradientUnits="userSpaceOnUse">
<stop stop-color="#D1D0D0"/>
<stop offset="1" stop-color="#231F20"/>
</linearGradient>
<linearGradient id="paint86_linear_19_13811" x1="929.902" y1="558.317" x2="915.997" y2="-40.8604" gradientUnits="userSpaceOnUse">
<stop stop-color="#D1D0D0"/>
<stop offset="1" stop-color="#231F20"/>
</linearGradient>
<linearGradient id="paint87_linear_19_13811" x1="937.36" y1="558.164" x2="923.493" y2="-41.0514" gradientUnits="userSpaceOnUse">
<stop stop-color="#D1D0D0"/>
<stop offset="1" stop-color="#231F20"/>
</linearGradient>
<linearGradient id="paint88_linear_19_13811" x1="871.848" y1="559.693" x2="857.981" y2="-39.5225" gradientUnits="userSpaceOnUse">
<stop stop-color="#D1D0D0"/>
<stop offset="1" stop-color="#231F20"/>
</linearGradient>
<linearGradient id="paint89_linear_19_13811" x1="879.649" y1="559.502" x2="865.744" y2="-39.7136" gradientUnits="userSpaceOnUse">
<stop stop-color="#D1D0D0"/>
<stop offset="1" stop-color="#231F20"/>
</linearGradient>
<linearGradient id="paint90_linear_19_13811" x1="887.107" y1="559.311" x2="873.24" y2="-39.8666" gradientUnits="userSpaceOnUse">
<stop stop-color="#D1D0D0"/>
<stop offset="1" stop-color="#231F20"/>
</linearGradient>
<linearGradient id="paint91_linear_19_13811" x1="895.521" y1="559.12" x2="881.654" y2="-40.0577" gradientUnits="userSpaceOnUse">
<stop stop-color="#D1D0D0"/>
<stop offset="1" stop-color="#231F20"/>
</linearGradient>
<linearGradient id="paint92_linear_19_13811" x1="902.099" y1="558.967" x2="888.193" y2="-40.2105" gradientUnits="userSpaceOnUse">
<stop stop-color="#D1D0D0"/>
<stop offset="1" stop-color="#231F20"/>
</linearGradient>
<linearGradient id="paint93_linear_19_13811" x1="909.442" y1="558.814" x2="895.575" y2="-40.4017" gradientUnits="userSpaceOnUse">
<stop stop-color="#D1D0D0"/>
<stop offset="1" stop-color="#231F20"/>
</linearGradient>
<linearGradient id="paint94_linear_19_13811" x1="914.834" y1="1003.19" x2="916.82" y2="344.462" gradientUnits="userSpaceOnUse">
<stop stop-color="#D1D0D0"/>
<stop offset="1" stop-color="#231F20"/>
</linearGradient>
<linearGradient id="paint95_linear_19_13811" x1="820.371" y1="560.878" x2="806.504" y2="-38.3376" gradientUnits="userSpaceOnUse">
<stop stop-color="#D1D0D0"/>
<stop offset="1" stop-color="#231F20"/>
</linearGradient>
<linearGradient id="paint96_linear_19_13811" x1="827.714" y1="560.687" x2="813.847" y2="-38.4905" gradientUnits="userSpaceOnUse">
<stop stop-color="#D1D0D0"/>
<stop offset="1" stop-color="#231F20"/>
</linearGradient>
<linearGradient id="paint97_linear_19_13811" x1="832.839" y1="560.572" x2="818.972" y2="-38.6052" gradientUnits="userSpaceOnUse">
<stop stop-color="#D1D0D0"/>
<stop offset="1" stop-color="#231F20"/>
</linearGradient>
<linearGradient id="paint98_linear_19_13811" x1="796.545" y1="561.413" x2="782.678" y2="-37.7643" gradientUnits="userSpaceOnUse">
<stop stop-color="#D1D0D0"/>
<stop offset="1" stop-color="#231F20"/>
</linearGradient>
<linearGradient id="paint99_linear_19_13811" x1="803.276" y1="561.261" x2="789.371" y2="-37.9172" gradientUnits="userSpaceOnUse">
<stop stop-color="#D1D0D0"/>
<stop offset="1" stop-color="#231F20"/>
</linearGradient>
<linearGradient id="paint100_linear_19_13811" x1="810.734" y1="561.108" x2="796.867" y2="-38.1082" gradientUnits="userSpaceOnUse">
<stop stop-color="#D1D0D0"/>
<stop offset="1" stop-color="#231F20"/>
</linearGradient>
<linearGradient id="paint101_linear_19_13811" x1="1012.05" y1="556.445" x2="998.145" y2="-42.7714" gradientUnits="userSpaceOnUse">
<stop stop-color="#D1D0D0"/>
<stop offset="1" stop-color="#231F20"/>
</linearGradient>
<linearGradient id="paint102_linear_19_13811" x1="1018.74" y1="556.292" x2="1004.88" y2="-42.9244" gradientUnits="userSpaceOnUse">
<stop stop-color="#D1D0D0"/>
<stop offset="1" stop-color="#231F20"/>
</linearGradient>
<linearGradient id="paint103_linear_19_13811" x1="1026.74" y1="1003.53" x2="1028.72" y2="344.806" gradientUnits="userSpaceOnUse">
<stop stop-color="#D1D0D0"/>
<stop offset="1" stop-color="#231F20"/>
</linearGradient>
<linearGradient id="paint104_linear_19_13811" x1="952.81" y1="557.82" x2="938.943" y2="-41.3955" gradientUnits="userSpaceOnUse">
<stop stop-color="#D1D0D0"/>
<stop offset="1" stop-color="#231F20"/>
</linearGradient>
<linearGradient id="paint105_linear_19_13811" x1="962.027" y1="557.591" x2="948.16" y2="-41.6247" gradientUnits="userSpaceOnUse">
<stop stop-color="#D1D0D0"/>
<stop offset="1" stop-color="#231F20"/>
</linearGradient>
<linearGradient id="paint106_linear_19_13811" x1="975.565" y1="557.285" x2="961.698" y2="-41.9306" gradientUnits="userSpaceOnUse">
<stop stop-color="#D1D0D0"/>
<stop offset="1" stop-color="#231F20"/>
</linearGradient>
<linearGradient id="paint107_linear_19_13811" x1="981.417" y1="1003.38" x2="983.403" y2="344.653" gradientUnits="userSpaceOnUse">
<stop stop-color="#D1D0D0"/>
<stop offset="1" stop-color="#231F20"/>
</linearGradient>
<linearGradient id="paint108_linear_19_13811" x1="988.071" y1="1003.42" x2="990.058" y2="344.691" gradientUnits="userSpaceOnUse">
<stop stop-color="#D1D0D0"/>
<stop offset="1" stop-color="#231F20"/>
</linearGradient>
<linearGradient id="paint109_linear_19_13811" x1="995.529" y1="1003.42" x2="997.515" y2="344.691" gradientUnits="userSpaceOnUse">
<stop stop-color="#D1D0D0"/>
<stop offset="1" stop-color="#231F20"/>
</linearGradient>
<linearGradient id="paint110_linear_19_13811" x1="1007.65" y1="556.521" x2="993.747" y2="-42.6567" gradientUnits="userSpaceOnUse">
<stop stop-color="#D1D0D0"/>
<stop offset="1" stop-color="#231F20"/>
</linearGradient>
<linearGradient id="paint111_linear_19_13811" x1="1138.48" y1="1003.84" x2="1140.47" y2="345.112" gradientUnits="userSpaceOnUse">
<stop stop-color="#D1D0D0"/>
<stop offset="1" stop-color="#231F20"/>
</linearGradient>
<linearGradient id="paint112_linear_19_13811" x1="1145.1" y1="1003.88" x2="1147.09" y2="345.15" gradientUnits="userSpaceOnUse">
<stop stop-color="#D1D0D0"/>
<stop offset="1" stop-color="#231F20"/>
</linearGradient>
<linearGradient id="paint113_linear_19_13811" x1="1126.67" y1="1003.8" x2="1128.65" y2="345.112" gradientUnits="userSpaceOnUse">
<stop stop-color="#D1D0D0"/>
<stop offset="1" stop-color="#231F20"/>
</linearGradient>
<linearGradient id="paint114_linear_19_13811" x1="1133.67" y1="1003.84" x2="1135.65" y2="345.112" gradientUnits="userSpaceOnUse">
<stop stop-color="#D1D0D0"/>
<stop offset="1" stop-color="#231F20"/>
</linearGradient>
<linearGradient id="paint115_linear_19_13811" x1="1142.23" y1="1003.88" x2="1144.22" y2="345.15" gradientUnits="userSpaceOnUse">
<stop stop-color="#D1D0D0"/>
<stop offset="1" stop-color="#231F20"/>
</linearGradient>
<linearGradient id="paint116_linear_19_13811" x1="1148.43" y1="1003.88" x2="1150.41" y2="345.15" gradientUnits="userSpaceOnUse">
<stop stop-color="#D1D0D0"/>
<stop offset="1" stop-color="#231F20"/>
</linearGradient>
<linearGradient id="paint117_linear_19_13811" x1="1155.12" y1="1003.92" x2="1157.07" y2="345.188" gradientUnits="userSpaceOnUse">
<stop stop-color="#D1D0D0"/>
<stop offset="1" stop-color="#231F20"/>
</linearGradient>
<linearGradient id="paint118_linear_19_13811" x1="1162.54" y1="1003.92" x2="1164.53" y2="345.188" gradientUnits="userSpaceOnUse">
<stop stop-color="#D1D0D0"/>
<stop offset="1" stop-color="#231F20"/>
</linearGradient>
<linearGradient id="paint119_linear_19_13811" x1="1171.64" y1="1003.95" x2="1173.63" y2="345.226" gradientUnits="userSpaceOnUse">
<stop stop-color="#D1D0D0"/>
<stop offset="1" stop-color="#231F20"/>
</linearGradient>
<linearGradient id="paint120_linear_19_13811" x1="1090.41" y1="1003.73" x2="1092.4" y2="344.997" gradientUnits="userSpaceOnUse">
<stop stop-color="#D1D0D0"/>
<stop offset="1" stop-color="#231F20"/>
</linearGradient>
<linearGradient id="paint121_linear_19_13811" x1="1052.05" y1="1003.57" x2="1054" y2="344.882" gradientUnits="userSpaceOnUse">
<stop stop-color="#D1D0D0"/>
<stop offset="1" stop-color="#231F20"/>
</linearGradient>
<linearGradient id="paint122_linear_19_13811" x1="1058.67" y1="1003.61" x2="1060.66" y2="344.882" gradientUnits="userSpaceOnUse">
<stop stop-color="#D1D0D0"/>
<stop offset="1" stop-color="#231F20"/>
</linearGradient>
<linearGradient id="paint123_linear_19_13811" x1="1066.05" y1="1003.65" x2="1068.04" y2="344.921" gradientUnits="userSpaceOnUse">
<stop stop-color="#D1D0D0"/>
<stop offset="1" stop-color="#231F20"/>
</linearGradient>
<linearGradient id="paint124_linear_19_13811" x1="1279.8" y1="550.214" x2="1265.89" y2="-48.9635" gradientUnits="userSpaceOnUse">
<stop stop-color="#D1D0D0"/>
<stop offset="1" stop-color="#231F20"/>
</linearGradient>
<linearGradient id="paint125_linear_19_13811" x1="1286.64" y1="550.061" x2="1272.77" y2="-49.1546" gradientUnits="userSpaceOnUse">
<stop stop-color="#D1D0D0"/>
<stop offset="1" stop-color="#231F20"/>
</linearGradient>
<linearGradient id="paint126_linear_19_13811" x1="1321.18" y1="1051.96" x2="1334.36" y2="-351.763" gradientUnits="userSpaceOnUse">
<stop stop-color="#D1D0D0"/>
<stop offset="1" stop-color="#231F20"/>
</linearGradient>
<linearGradient id="paint127_linear_19_13811" x1="1333.76" y1="1472.26" x2="1328.41" y2="-161.758" gradientUnits="userSpaceOnUse">
<stop stop-color="#D1D0D0"/>
<stop offset="1" stop-color="#231F20"/>
</linearGradient>
<linearGradient id="paint128_linear_19_13811" x1="1339.11" y1="1091.94" x2="1336.44" y2="-1243.53" gradientUnits="userSpaceOnUse">
<stop stop-color="#D1D0D0"/>
<stop offset="1" stop-color="#231F20"/>
</linearGradient>
<linearGradient id="paint129_linear_19_13811" x1="1275.93" y1="550.329" x2="1262.07" y2="-48.887" gradientUnits="userSpaceOnUse">
<stop stop-color="#D1D0D0"/>
<stop offset="1" stop-color="#231F20"/>
</linearGradient>
<linearGradient id="paint130_linear_19_13811" x1="1283.7" y1="550.138" x2="1269.83" y2="-49.0782" gradientUnits="userSpaceOnUse">
<stop stop-color="#D1D0D0"/>
<stop offset="1" stop-color="#231F20"/>
</linearGradient>
<linearGradient id="paint131_linear_19_13811" x1="1291.19" y1="549.985" x2="1277.29" y2="-49.231" gradientUnits="userSpaceOnUse">
<stop stop-color="#D1D0D0"/>
<stop offset="1" stop-color="#231F20"/>
</linearGradient>
<linearGradient id="paint132_linear_19_13811" x1="1310.51" y1="105.303" x2="1382.21" y2="2268.09" gradientUnits="userSpaceOnUse">
<stop stop-color="#D1D0D0"/>
<stop offset="1" stop-color="#231F20"/>
</linearGradient>
<linearGradient id="paint133_linear_19_13811" x1="1222.89" y1="551.552" x2="1208.98" y2="-47.6639" gradientUnits="userSpaceOnUse">
<stop stop-color="#D1D0D0"/>
<stop offset="1" stop-color="#231F20"/>
</linearGradient>
<linearGradient id="paint134_linear_19_13811" x1="1230.23" y1="551.361" x2="1216.33" y2="-47.8168" gradientUnits="userSpaceOnUse">
<stop stop-color="#D1D0D0"/>
<stop offset="1" stop-color="#231F20"/>
</linearGradient>
<linearGradient id="paint135_linear_19_13811" x1="1235.36" y1="551.246" x2="1221.45" y2="-47.9314" gradientUnits="userSpaceOnUse">
<stop stop-color="#D1D0D0"/>
<stop offset="1" stop-color="#231F20"/>
</linearGradient>
<linearGradient id="paint136_linear_19_13811" x1="1187.86" y1="1003.99" x2="1189.84" y2="345.265" gradientUnits="userSpaceOnUse">
<stop stop-color="#D1D0D0"/>
<stop offset="1" stop-color="#231F20"/>
</linearGradient>
<linearGradient id="paint137_linear_19_13811" x1="1202.62" y1="1004.03" x2="1204.61" y2="345.303" gradientUnits="userSpaceOnUse">
<stop stop-color="#D1D0D0"/>
<stop offset="1" stop-color="#231F20"/>
</linearGradient>
<linearGradient id="paint138_linear_19_13811" x1="1210.04" y1="1004.07" x2="1212.03" y2="345.341" gradientUnits="userSpaceOnUse">
<stop stop-color="#D1D0D0"/>
<stop offset="1" stop-color="#231F20"/>
</linearGradient>
<linearGradient id="paint139_linear_19_13811" x1="1400.19" y1="247.53" x2="1435.29" y2="1305.57" gradientUnits="userSpaceOnUse">
<stop stop-color="#D1D0D0"/>
<stop offset="1" stop-color="#231F20"/>
</linearGradient>
<linearGradient id="paint140_linear_19_13811" x1="1422.25" y1="1180.31" x2="1418.89" y2="152.088" gradientUnits="userSpaceOnUse">
<stop stop-color="#D1D0D0"/>
<stop offset="1" stop-color="#231F20"/>
</linearGradient>
<linearGradient id="paint141_linear_19_13811" x1="1416.17" y1="248.409" x2="1451.66" y2="1318.8" gradientUnits="userSpaceOnUse">
<stop stop-color="#D1D0D0"/>
<stop offset="1" stop-color="#231F20"/>
</linearGradient>
<linearGradient id="paint142_linear_19_13811" x1="1354.56" y1="1156.39" x2="1352.19" y2="-910.653" gradientUnits="userSpaceOnUse">
<stop stop-color="#D1D0D0"/>
<stop offset="1" stop-color="#231F20"/>
</linearGradient>
<linearGradient id="paint143_linear_19_13811" x1="1363.82" y1="1134.26" x2="1361.49" y2="-883.018" gradientUnits="userSpaceOnUse">
<stop stop-color="#D1D0D0"/>
<stop offset="1" stop-color="#231F20"/>
</linearGradient>
<linearGradient id="paint144_linear_19_13811" x1="1374.64" y1="887.911" x2="1380.26" y2="289.154" gradientUnits="userSpaceOnUse">
<stop stop-color="#D1D0D0"/>
<stop offset="1" stop-color="#231F20"/>
</linearGradient>
<linearGradient id="paint145_linear_19_13811" x1="1381.3" y1="433.903" x2="1404.87" y2="1144.96" gradientUnits="userSpaceOnUse">
<stop stop-color="#D1D0D0"/>
<stop offset="1" stop-color="#231F20"/>
</linearGradient>
<linearGradient id="paint146_linear_19_13811" x1="1391.93" y1="1052.57" x2="1389.67" y2="369.574" gradientUnits="userSpaceOnUse">
<stop stop-color="#D1D0D0"/>
<stop offset="1" stop-color="#231F20"/>
</linearGradient>
<linearGradient id="paint147_linear_19_13811" x1="1399.35" y1="1052.54" x2="1397.09" y2="369.574" gradientUnits="userSpaceOnUse">
<stop stop-color="#D1D0D0"/>
<stop offset="1" stop-color="#231F20"/>
</linearGradient>
<linearGradient id="paint148_linear_19_13811" x1="1408.18" y1="1052.5" x2="1405.97" y2="369.536" gradientUnits="userSpaceOnUse">
<stop stop-color="#D1D0D0"/>
<stop offset="1" stop-color="#231F20"/>
</linearGradient>
<clipPath id="clip0_19_13811">
<rect width="1440" height="1009" fill="white"/>
</clipPath>
</defs>
</svg>
