<svg width="20" height="20" viewBox="0 0 20 20" fill="none" xmlns="http://www.w3.org/2000/svg">
<g id="wrapper">
<path id="Union" fill-rule="evenodd" clip-rule="evenodd" d="M5.83577 2.58447C6.24999 2.58447 6.58577 2.92026 6.58577 3.33447V14.8571L8.63878 12.8041C8.93167 12.5112 9.40654 12.5112 9.69944 12.8041C9.99233 13.097 9.99233 13.5719 9.69944 13.8648L6.3661 17.1981C6.07321 17.491 5.59834 17.491 5.30544 17.1981L1.97211 13.8648C1.67922 13.5719 1.67922 13.097 1.97211 12.8041C2.265 12.5112 2.73988 12.5112 3.03277 12.8041L5.08577 14.8571V3.33447C5.08577 2.92026 5.42156 2.58447 5.83577 2.58447ZM14.1691 2.58447C14.5833 2.58447 14.9191 2.92026 14.9191 3.33447V10.6905L16.9721 8.63748C17.265 8.34458 17.7399 8.34458 18.0328 8.63748C18.3257 8.93037 18.3257 9.40524 18.0328 9.69814L14.6994 13.0315C14.4065 13.3244 13.9317 13.3244 13.6388 13.0315L10.3054 9.69814C10.0126 9.40524 10.0126 8.93037 10.3054 8.63748C10.5983 8.34458 11.0732 8.34458 11.3661 8.63748L13.4191 10.6905V3.33447C13.4191 2.92026 13.7549 2.58447 14.1691 2.58447Z" fill="#7F8A9D"/>
</g>
</svg>
