<svg width="16" height="16" viewBox="0 0 16 16" fill="none" xmlns="http://www.w3.org/2000/svg">
<g clip-path="url(#clip0_569_38576)">
<path d="M2.85735 0C2.4027 0 1.96665 0.180611 1.64517 0.502103C1.32368 0.823593 1.14307 1.25963 1.14307 1.71429V14.2857C1.14307 14.7403 1.32368 15.1765 1.64517 15.4979C1.96665 15.8194 2.40269 16 2.85735 16H13.1431C13.5977 16 14.0338 15.8194 14.3553 15.4979C14.6768 15.1765 14.8574 14.7403 14.8574 14.2857V5.14286C14.8574 4.9913 14.7971 4.84595 14.69 4.7388L10.1186 0.167368C10.0114 0.0602039 9.86605 0 9.71449 0H2.85735Z" fill="#002462"/>
<path fill-rule="evenodd" clip-rule="evenodd" d="M8.33245 12.3863L8.21367 12.505C8.07972 12.6391 7.89802 12.7143 7.70858 12.7143C7.51914 12.7143 7.33746 12.6391 7.20351 12.505L7.0847 12.3863C6.95162 12.2994 6.83777 12.1855 6.75089 12.0525L4.63208 9.93364C4.4278 9.72936 4.36669 9.42214 4.47725 9.15522C4.58781 8.88832 4.84825 8.71428 5.13715 8.71428H6.56574V4.57143C6.56574 3.94025 7.07742 3.42857 7.7086 3.42857C8.33977 3.42857 8.85145 3.94025 8.85145 4.57143V8.71428H10.28C10.5689 8.71428 10.8294 8.88832 10.9399 9.15522C11.0505 9.42214 10.9894 9.72936 10.7851 9.93364L8.66632 12.0525C8.57944 12.1855 8.46556 12.2994 8.33245 12.3863Z" fill="#FFA502"/>
</g>
<defs>
<clipPath id="clip0_569_38576">
<rect width="16" height="16" fill="white"/>
</clipPath>
</defs>
</svg>
