<svg width="16" height="16" viewBox="0 0 16 16" fill="none" xmlns="http://www.w3.org/2000/svg">
<g clip-path="url(#clip0_834_230058)">
<path fill-rule="evenodd" clip-rule="evenodd" d="M8.00195 1.25098C8.41617 1.25098 8.75195 1.58676 8.75195 2.00098V8.19032L10.805 6.13731C11.0979 5.84442 11.5727 5.84442 11.8656 6.13731C12.1585 6.43021 12.1585 6.90508 11.8656 7.19797L8.53228 10.5313C8.23939 10.8242 7.76452 10.8242 7.47162 10.5313L4.13829 7.19797C3.8454 6.90508 3.8454 6.43021 4.13829 6.13731C4.43118 5.84442 4.90606 5.84442 5.19895 6.13731L7.25195 8.19032V2.00098C7.25195 1.58676 7.58774 1.25098 8.00195 1.25098ZM2.00195 9.25098C2.41617 9.25098 2.75195 9.58676 2.75195 10.001V10.801C2.75195 11.3734 2.75254 11.7576 2.77671 12.0535C2.80017 12.3406 2.84205 12.4779 2.8882 12.5685C3.00804 12.8037 3.19926 12.9949 3.43447 13.1147C3.52503 13.1609 3.66231 13.2028 3.94943 13.2262C4.24531 13.2504 4.62953 13.251 5.20195 13.251H10.802C11.3744 13.251 11.7586 13.2504 12.0545 13.2262C12.3416 13.2028 12.4789 13.1609 12.5694 13.1147C12.8046 12.9949 12.9959 12.8037 13.1157 12.5685C13.1619 12.4779 13.2037 12.3406 13.2272 12.0535C13.2514 11.7576 13.252 11.3734 13.252 10.801V10.001C13.252 9.58676 13.5877 9.25098 14.002 9.25098C14.4162 9.25098 14.752 9.58676 14.752 10.001V10.801V10.8314C14.752 11.3656 14.752 11.8114 14.7222 12.1756C14.6912 12.5555 14.6241 12.9122 14.4522 13.2495C14.1886 13.7669 13.7679 14.1876 13.2504 14.4512C12.9132 14.6231 12.5565 14.6902 12.1766 14.7212C11.8124 14.751 11.3666 14.751 10.8324 14.751H10.802H5.20195H5.1715C4.63735 14.751 4.19151 14.751 3.82728 14.7212C3.4474 14.6902 3.09074 14.6231 2.75348 14.4512C2.23603 14.1876 1.81534 13.7669 1.55169 13.2495C1.37984 12.9122 1.31273 12.5555 1.28169 12.1756C1.25193 11.8114 1.25194 11.3656 1.25195 10.8314L1.25195 10.801V10.001C1.25195 9.58676 1.58774 9.25098 2.00195 9.25098Z" fill="#FCFDFF"/>
</g>
<defs>
<clipPath id="clip0_834_230058">
<rect width="16" height="16" fill="white"/>
</clipPath>
</defs>
</svg>
