<svg width="16" height="16" viewBox="0 0 16 16" fill="none" xmlns="http://www.w3.org/2000/svg">
<g id="icon-wrapper" clip-path="url(#clip0_717_37280)">
<path id="Union" fill-rule="evenodd" clip-rule="evenodd" d="M11.8628 1.44525C12.6951 0.613021 14.0444 0.613022 14.8766 1.44525C15.7089 2.27749 15.7089 3.6268 14.8766 4.45904L8.65089 10.6848C8.63729 10.6984 8.62377 10.7119 8.6103 10.7254C8.42585 10.9103 8.25265 11.0839 8.04324 11.2122C7.85963 11.3248 7.65947 11.4077 7.45008 11.4579C7.21127 11.5153 6.96604 11.515 6.70488 11.5147C6.68582 11.5147 6.66667 11.5146 6.64743 11.5146H5.55723C5.14302 11.5146 4.80723 11.1789 4.80723 10.7646V9.67446C4.80723 9.65522 4.80721 9.63607 4.80719 9.617C4.80688 9.35584 4.8066 9.11062 4.86393 8.87181C4.9142 8.66242 4.99711 8.46225 5.10963 8.27864C5.23795 8.06924 5.41155 7.89604 5.59644 7.71159C5.60993 7.69812 5.62349 7.68459 5.6371 7.67099L11.8628 1.44525ZM13.816 2.50591C13.5695 2.25947 13.17 2.25947 12.9235 2.50591L6.69775 8.73165C6.44731 8.98209 6.41194 9.02428 6.38859 9.06239C6.35831 9.11179 6.33601 9.16564 6.32248 9.22197C6.31205 9.26544 6.30723 9.32028 6.30723 9.67446V10.0146H6.64743C7.0016 10.0146 7.05645 10.0098 7.09991 9.99938C7.15624 9.98586 7.2101 9.96355 7.25949 9.93328C7.2976 9.90993 7.33979 9.87455 7.59023 9.62411L13.816 3.39838C14.0624 3.15193 14.0624 2.75236 13.816 2.50591ZM4.74568 2.20215L4.776 2.20215H7.51037C7.92458 2.20215 8.26037 2.53793 8.26037 2.95215C8.26037 3.36636 7.92458 3.70215 7.51037 3.70215H4.776C4.2167 3.70215 3.84233 3.70273 3.55427 3.72627C3.27496 3.74909 3.14347 3.78969 3.05792 3.83328C2.83154 3.94863 2.64748 4.13268 2.53213 4.35906C2.48855 4.44461 2.44794 4.5761 2.42512 4.85541C2.40159 5.14347 2.401 5.51784 2.401 6.07714V11.5459C2.401 12.1052 2.40159 12.4796 2.42512 12.7676C2.44794 13.0469 2.48855 13.1784 2.53213 13.264C2.64748 13.4903 2.83154 13.6744 3.05792 13.7898C3.14347 13.8333 3.27496 13.8739 3.55427 13.8968C3.84233 13.9203 4.2167 13.9209 4.776 13.9209H10.2447C10.804 13.9209 11.1784 13.9203 11.4665 13.8968C11.7458 13.8739 11.8773 13.8333 11.9628 13.7897C12.1892 13.6744 12.3733 13.4903 12.4886 13.264C12.5322 13.1784 12.5728 13.0469 12.5956 12.7676C12.6192 12.4796 12.6197 12.1052 12.6197 11.5459V8.81151C12.6197 8.3973 12.9555 8.06151 13.3697 8.06151C13.784 8.06151 14.1197 8.3973 14.1197 8.81151V11.5459V11.5762C14.1198 12.0973 14.1198 12.5333 14.0906 12.8898C14.0602 13.2618 13.9944 13.6127 13.8251 13.945C13.566 14.4536 13.1524 14.8671 12.6438 15.1263C12.3116 15.2955 11.9607 15.3614 11.5886 15.3918C11.2322 15.4209 10.7962 15.4209 10.2751 15.4209H10.2447H4.776H4.74566C4.22455 15.4209 3.78853 15.4209 3.43212 15.3918C3.06005 15.3614 2.70918 15.2955 2.37693 15.1263C1.86831 14.8671 1.45478 14.4536 1.19562 13.945C1.02634 13.6127 0.960502 13.2618 0.930102 12.8898C0.900982 12.5333 0.900991 12.0973 0.901001 11.5762L0.901002 11.5459V6.07714L0.901001 6.04682C0.900991 5.5257 0.900982 5.08968 0.930102 4.73326C0.960502 4.36119 1.02634 4.01033 1.19562 3.67808C1.45478 3.16945 1.86831 2.75593 2.37693 2.49677C2.70918 2.32748 3.06005 2.26165 3.43212 2.23125C3.78854 2.20213 4.22456 2.20213 4.74568 2.20215Z" fill="#314362"/>
</g>
<defs>
<clipPath id="clip0_717_37280">
<rect width="16" height="16" fill="white"/>
</clipPath>
</defs>
</svg>
