<svg width="33" height="32" viewBox="0 0 33 32" fill="none" xmlns="http://www.w3.org/2000/svg">
<g clip-path="url(#clip0_52_85037)">
<path fill-rule="evenodd" clip-rule="evenodd" d="M5.2758 3.25098C5.28516 3.25098 5.29456 3.25098 5.30399 3.25098H27.704L27.7322 3.25098C28.0814 3.25096 28.3876 3.25095 28.6408 3.27163C28.9095 3.29359 29.1838 3.34254 29.4498 3.47805C29.8418 3.67778 30.1605 3.99649 30.3603 4.3885C30.4958 4.65446 30.5447 4.92879 30.5667 5.19751C30.5874 5.45067 30.5873 5.75685 30.5873 6.1061V6.13431V8.53431V8.56252C30.5873 8.91177 30.5874 9.21795 30.5667 9.47112C30.5447 9.73983 30.4958 10.0142 30.3603 10.2801C30.1605 10.6721 29.8418 10.9908 29.4498 11.1906C29.1838 11.3261 28.9095 11.375 28.6408 11.397C28.6232 11.3984 28.6054 11.3998 28.5873 11.401V21.601V21.634C28.5873 22.7261 28.5873 23.5916 28.5303 24.2892C28.472 25.0026 28.3504 25.6063 28.0696 26.1574C27.6142 27.0512 26.8876 27.7779 25.9938 28.2333C25.4426 28.5141 24.839 28.6357 24.1256 28.694C23.428 28.751 22.5625 28.751 21.4703 28.751H21.4373H11.5707H11.5376C10.4455 28.751 9.58001 28.751 8.88239 28.694C8.169 28.6357 7.56538 28.5141 7.0142 28.2333C6.12043 27.7779 5.39377 27.0512 4.93837 26.1574C4.65754 25.6063 4.53593 25.0026 4.47764 24.2892C4.42065 23.5916 4.42065 22.7261 4.42066 21.634V21.601V11.401C4.40258 11.3998 4.38475 11.3984 4.36718 11.397C4.09847 11.375 3.82413 11.3261 3.55818 11.1906C3.16617 10.9908 2.84746 10.6721 2.64773 10.2801C2.51221 10.0142 2.46327 9.73983 2.44131 9.47112C2.42063 9.21794 2.42064 8.91176 2.42066 8.5625L2.42066 8.53431V6.13431C2.42066 6.12488 2.42066 6.11549 2.42066 6.10612C2.42064 5.75686 2.42063 5.45068 2.44131 5.19751C2.46327 4.92879 2.51221 4.65446 2.64773 4.3885C2.84746 3.99649 3.16617 3.67778 3.55818 3.47805C3.82413 3.34254 4.09847 3.29359 4.36718 3.27163C4.62036 3.25095 4.92654 3.25096 5.2758 3.25098ZM5.92066 11.4176V21.601C5.92066 22.7335 5.92124 23.5377 5.97266 24.1671C6.02337 24.7877 6.11975 25.172 6.27488 25.4764C6.58647 26.088 7.08366 26.5852 7.69519 26.8967C7.99966 27.0519 8.38391 27.1483 9.00454 27.199C9.63392 27.2504 10.4382 27.251 11.5707 27.251H21.4373C22.5698 27.251 23.3741 27.2504 24.0034 27.199C24.6241 27.1483 25.0083 27.0519 25.3128 26.8967C25.9243 26.5852 26.4215 26.088 26.7331 25.4764C26.8882 25.172 26.9846 24.7877 27.0353 24.1671C27.0867 23.5377 27.0873 22.7335 27.0873 21.601V11.4176H5.92066ZM4.48933 4.76665C4.31338 4.78103 4.25842 4.80475 4.23916 4.81456C4.1294 4.87048 4.04016 4.95972 3.98424 5.06948C3.97442 5.08874 3.95071 5.1437 3.93633 5.31965C3.92124 5.50437 3.92066 5.74857 3.92066 6.13431V8.53431C3.92066 8.92006 3.92124 9.16426 3.93633 9.34897C3.95071 9.52492 3.97442 9.57988 3.98424 9.59914L3.31598 9.93963L3.98424 9.59914C4.04016 9.7089 4.1294 9.79814 4.23916 9.85407C4.25842 9.86388 4.31338 9.88759 4.48933 9.90197C4.67404 9.91706 4.91825 9.91764 5.30399 9.91764H27.704C28.0897 9.91764 28.3339 9.91706 28.5186 9.90197C28.6946 9.88759 28.7496 9.86388 28.7688 9.85407C28.8786 9.79814 28.9678 9.7089 29.0237 9.59914L29.692 9.93963L29.0237 9.59914C29.0336 9.57988 29.0573 9.52492 29.0716 9.34897C29.0867 9.16426 29.0873 8.92006 29.0873 8.53431V6.13431C29.0873 5.74857 29.0867 5.50437 29.0716 5.31965C29.0573 5.1437 29.0336 5.08874 29.0237 5.06948L29.6879 4.73109L29.0237 5.06948C28.9678 4.95972 28.8786 4.87048 28.7688 4.81456C28.7496 4.80475 28.6946 4.78103 28.5186 4.76665C28.3339 4.75156 28.0897 4.75098 27.704 4.75098H5.30399C4.91825 4.75098 4.67404 4.75156 4.48933 4.76665ZM13.2758 14.5843H13.304H19.704H19.7322C20.0815 14.5843 20.3876 14.5843 20.6408 14.605C20.9095 14.6269 21.1838 14.6759 21.4498 14.8114C21.8418 15.0111 22.1605 15.3298 22.3603 15.7218C22.4958 15.9878 22.5447 16.2621 22.5667 16.5308C22.5874 16.784 22.5873 17.0902 22.5873 17.4395V17.4676V18.5343V18.5624C22.5873 18.9117 22.5874 19.2179 22.5667 19.4711C22.5447 19.7398 22.4958 20.0142 22.3603 20.2801C22.1605 20.6721 21.8418 20.9908 21.4498 21.1906C21.1838 21.3261 20.9095 21.375 20.6408 21.397C20.3876 21.4177 20.0814 21.4177 19.7321 21.4176H19.704H13.304H13.2759C12.9266 21.4177 12.6204 21.4177 12.3672 21.397C12.0985 21.375 11.8241 21.3261 11.5582 21.1906C11.1662 20.9908 10.8475 20.6721 10.6477 20.2801C10.5122 20.0142 10.4633 19.7398 10.4413 19.4711C10.4206 19.2179 10.4206 18.9118 10.4207 18.5625L10.4207 18.5343V17.4676L10.4207 17.4395C10.4206 17.0902 10.4206 16.784 10.4413 16.5308C10.4633 16.2621 10.5122 15.9878 10.6477 15.7218C10.8475 15.3298 11.1662 15.0111 11.5582 14.8114C11.8241 14.6759 12.0985 14.6269 12.3672 14.605C12.6204 14.5843 12.9265 14.5843 13.2758 14.5843ZM12.4893 16.1C12.3134 16.1144 12.2584 16.1381 12.2392 16.1479C12.1294 16.2038 12.0402 16.2931 11.9842 16.4028C11.9744 16.4221 11.9507 16.477 11.9363 16.653C11.9212 16.8377 11.9207 17.0819 11.9207 17.4676V18.5343C11.9207 18.9201 11.9212 19.1643 11.9363 19.349C11.9507 19.5249 11.9744 19.5799 11.9842 19.5991C12.0402 19.7089 12.1294 19.7981 12.2392 19.8541C12.2584 19.8639 12.3134 19.8876 12.4893 19.902C12.674 19.9171 12.9182 19.9176 13.304 19.9176H19.704C20.0897 19.9176 20.3339 19.9171 20.5186 19.902C20.6946 19.8876 20.7496 19.8639 20.7688 19.8541C20.8786 19.7981 20.9678 19.7089 21.0237 19.5991C21.0336 19.5799 21.0573 19.5249 21.0716 19.349C21.0867 19.1643 21.0873 18.9201 21.0873 18.5343V17.4676C21.0873 17.0819 21.0867 16.8377 21.0716 16.653C21.0573 16.477 21.0336 16.4221 21.0237 16.4028C20.9678 16.2931 20.8786 16.2038 20.7688 16.1479C20.7496 16.1381 20.6946 16.1144 20.5186 16.1C20.3339 16.0849 20.0897 16.0843 19.704 16.0843H13.304C12.9182 16.0843 12.674 16.0849 12.4893 16.1Z" fill="#A6AEBB"/>
</g>
<defs>
<clipPath id="clip0_52_85037">
<rect width="32" height="32" fill="white" transform="translate(0.5)"/>
</clipPath>
</defs>
</svg>
