<svg width="32" height="32" viewBox="0 0 32 32" fill="none" xmlns="http://www.w3.org/2000/svg">
<g clip-path="url(#clip0_419_28730)">
<path d="M22.3472 6.56639C21.4725 6.56569 20.6338 6.2758 20.0152 5.76037C19.3967 5.24495 19.0488 4.54608 19.048 3.81716V0H4.30559C3.16368 0 2.06854 0.378015 1.26108 1.05087C0.453627 1.72372 0 2.63628 0 3.58784V25.2163C0.00169574 26.1669 0.456067 27.0781 1.26334 27.7498C2.07061 28.4215 3.16479 28.7988 4.30559 28.7988H22.0032C23.144 28.7988 24.2382 28.4215 25.0455 27.7498C25.8527 27.0781 26.3071 26.1669 26.3088 25.2163V6.56639H22.3472Z" fill="white"/>
<path d="M22.3472 6.56639C21.4725 6.56569 20.6338 6.2758 20.0152 5.76037C19.3967 5.24495 19.0488 4.54608 19.048 3.81716V0H4.30559C3.16368 0 2.06854 0.378015 1.26108 1.05087C0.453627 1.72372 0 2.63628 0 3.58784V25.2163C0.00169574 26.1669 0.456067 27.0781 1.26334 27.7498C2.07061 28.4215 3.16479 28.7988 4.30559 28.7988H22.0032C23.144 28.7988 24.2382 28.4215 25.0455 27.7498C25.8527 27.0781 26.3071 26.1669 26.3088 25.2163V6.56639H22.3472Z" fill="#FF3E4C" fill-opacity="0.2"/>
<path d="M26.3088 6.56639H22.3472C21.4725 6.56569 20.6338 6.2758 20.0152 5.76037C19.3967 5.24495 19.0488 4.54608 19.048 3.81716V0L26.3088 6.56639Z" fill="#FF3E4C"/>
<path d="M20.896 20.1114H4.3776C4.21847 20.1114 4.06585 20.0587 3.95333 19.965C3.84081 19.8712 3.7776 19.744 3.7776 19.6114C3.77802 19.4791 3.84142 19.3522 3.95389 19.2588C4.06637 19.1653 4.21874 19.1128 4.3776 19.1128H20.896C21.0547 19.1128 21.2069 19.1653 21.3191 19.2588C21.4313 19.3523 21.4944 19.4792 21.4944 19.6114C21.4946 19.677 21.4793 19.742 21.4493 19.8027C21.4193 19.8633 21.3753 19.9184 21.3197 19.9649C21.2641 20.0113 21.1981 20.0482 21.1254 20.0733C21.0527 20.0985 20.9747 20.1114 20.896 20.1114Z" fill="#FF3E4C"/>
<path d="M20.896 14.4796H4.3776C4.21874 14.4796 4.06637 14.4271 3.95389 14.3336C3.84142 14.2401 3.77802 14.1133 3.7776 13.9809C3.7776 13.8483 3.84081 13.7211 3.95333 13.6274C4.06585 13.5336 4.21847 13.481 4.3776 13.481H20.896C20.9747 13.481 21.0527 13.4939 21.1254 13.519C21.1981 13.5442 21.2641 13.581 21.3197 13.6275C21.3753 13.6739 21.4193 13.729 21.4493 13.7897C21.4793 13.8504 21.4946 13.9153 21.4944 13.9809C21.4944 14.1132 21.4313 14.24 21.3191 14.3335C21.2069 14.427 21.0547 14.4796 20.896 14.4796Z" fill="#FF3E4C"/>
<path d="M20.896 17.2955H4.3776C4.21847 17.2955 4.06585 17.2428 3.95333 17.1491C3.84081 17.0553 3.7776 16.9281 3.7776 16.7955C3.77802 16.6631 3.84142 16.5363 3.95389 16.4428C4.06637 16.3494 4.21874 16.2969 4.3776 16.2969H20.896C21.0547 16.2969 21.2069 16.3494 21.3191 16.4429C21.4313 16.5364 21.4944 16.6633 21.4944 16.7955C21.4946 16.8611 21.4793 16.9261 21.4493 16.9868C21.4193 17.0474 21.3753 17.1025 21.3197 17.149C21.2641 17.1954 21.1981 17.2323 21.1254 17.2574C21.0527 17.2826 20.9747 17.2955 20.896 17.2955Z" fill="#FF3E4C"/>
<path d="M14.3808 11.6637H4.3776C4.21874 11.6637 4.06637 11.6112 3.95389 11.5177C3.84142 11.4242 3.77802 11.2974 3.7776 11.165C3.7776 11.0324 3.84081 10.9052 3.95333 10.8115C4.06585 10.7177 4.21847 10.665 4.3776 10.665H14.3808C14.5396 10.6654 14.6919 10.7182 14.804 10.8119C14.9162 10.9057 14.9792 11.0326 14.9792 11.165C14.9788 11.2972 14.9156 11.4238 14.8035 11.5172C14.6913 11.6107 14.5394 11.6633 14.3808 11.6637Z" fill="#FF3E4C"/>
<path d="M14.3808 8.84775H4.3776C4.21874 8.84775 4.06637 8.79523 3.95389 8.70176C3.84142 8.60828 3.77802 8.48147 3.7776 8.3491C3.7776 8.2165 3.84081 8.0893 3.95333 7.99553C4.06585 7.90177 4.21847 7.84912 4.3776 7.84912H14.3808C14.5396 7.84947 14.6919 7.9023 14.804 7.99602C14.9162 8.08975 14.9792 8.21673 14.9792 8.3491C14.9788 8.48124 14.9156 8.60786 14.8035 8.7013C14.6913 8.79474 14.5394 8.84739 14.3808 8.84775Z" fill="#FF3E4C"/>
<path d="M29.4304 22.7471H9.424C8.00485 22.7471 6.8544 23.7057 6.8544 24.8883V29.8588C6.8544 31.0414 8.00485 32 9.424 32H29.4304C30.8496 32 32 31.0414 32 29.8588V24.8883C32 23.7057 30.8496 22.7471 29.4304 22.7471Z" fill="#FF3E4C"/>
<path d="M13.4176 28.4497V29.419H12.2144V28.4497H13.4176Z" fill="white"/>
<path d="M15.1872 28.0122V29.4188H14.024V25.4097H15.9088C16.48 25.4097 16.9168 25.5283 17.216 25.7643C17.3674 25.8883 17.4856 26.0375 17.5628 26.2023C17.64 26.3671 17.6745 26.5436 17.664 26.7203C17.6698 26.9534 17.6008 27.1835 17.464 27.3869C17.3243 27.5857 17.1173 27.7458 16.8688 27.8469C16.5691 27.9649 16.2401 28.022 15.9088 28.0136L15.1872 28.0122ZM16.48 26.7203C16.48 26.3647 16.2464 26.1869 15.7792 26.1869H15.1872V27.2309H15.7792C16.2464 27.2345 16.48 27.0642 16.48 26.7203Z" fill="white"/>
<path d="M22.2608 28.452C22.0605 28.7551 21.7578 29.0027 21.3904 29.1639C20.9769 29.3403 20.5172 29.4278 20.0528 29.4186H18.2368V25.4094H20.0528C20.5175 25.3997 20.978 25.4853 21.3936 25.6587C21.76 25.8166 22.0619 26.0616 22.2608 26.3627C22.469 26.6824 22.5737 27.0417 22.5648 27.4054C22.5735 27.7702 22.4688 28.1308 22.2608 28.452ZM21.0096 28.2506C21.1397 28.1394 21.2404 28.0067 21.3054 27.8612C21.3705 27.7156 21.3983 27.5604 21.3872 27.4054C21.3984 27.2505 21.3706 27.0954 21.3055 26.9501C21.2405 26.8047 21.1397 26.6723 21.0096 26.5614C20.7186 26.3486 20.3384 26.2403 19.952 26.2601H19.4V28.5506H19.952C20.3381 28.5702 20.718 28.4624 21.0096 28.2506Z" fill="white"/>
<path d="M26.3616 25.4097V26.1816H24.3888V27.0603H25.912V27.7976H24.3888V29.4188H23.224V25.4097H26.3616Z" fill="white"/>
<path d="M20.6032 7.84912H17.7744C17.2813 7.84912 16.8816 8.18221 16.8816 8.59309V10.9503C16.8816 11.3612 17.2813 11.6943 17.7744 11.6943H20.6032C21.0963 11.6943 21.496 11.3612 21.496 10.9503V8.59309C21.496 8.18221 21.0963 7.84912 20.6032 7.84912Z" fill="#FF3E4C"/>
</g>
<defs>
<clipPath id="clip0_419_28730">
<rect width="32" height="32" fill="white"/>
</clipPath>
</defs>
</svg>
