<svg width="168" height="168" viewBox="0 0 168 168" fill="none" xmlns="http://www.w3.org/2000/svg">
<g id="Layer_1" clip-path="url(#clip0_2092_145928)">
<g id="Group">
<path id="Vector" d="M3.83423 102.409C2.80474 102.409 1.88362 101.684 1.67205 100.636C-0.237278 91.1596 -0.513356 81.5491 0.848973 72.0702C2.16744 62.9062 4.9824 54.0649 9.21646 45.789C9.7712 44.7022 11.1026 44.2737 12.1888 44.8287C13.2751 45.3837 13.7034 46.7157 13.1486 47.8025C9.13648 55.6422 6.46858 64.0188 5.21978 72.6975C3.9297 81.6782 4.19287 90.7828 6.00157 99.7609C6.24153 100.956 5.47006 102.12 4.27286 102.363C4.12579 102.391 3.97872 102.407 3.83423 102.407V102.409Z" fill="url(#paint0_linear_2092_145928)"/>
<path id="Vector_2" d="M17.9529 38.006C17.5014 38.006 17.0447 37.8692 16.6525 37.5801C15.6669 36.8599 15.4527 35.4788 16.17 34.4927C28.5651 17.502 46.7527 5.84955 67.3838 1.68834C85.6901 -2.00306 104.203 0.384731 120.925 8.59616C122.019 9.13309 122.47 10.4573 121.934 11.5519C121.397 12.6464 120.073 13.0981 118.979 12.5612C103.14 4.78343 85.5998 2.51955 68.2585 6.01992C48.7137 9.96172 31.4807 20.9998 19.7384 37.1C19.3075 37.6937 18.6341 38.006 17.9529 38.006Z" fill="url(#paint1_linear_2092_145928)"/>
<path id="Vector_3" d="M164.117 70.0773C163.087 70.0773 162.166 69.3519 161.954 68.3039C157.906 48.2129 146.445 30.6645 129.682 18.8959C128.683 18.1964 128.443 16.8179 129.142 15.8189C129.844 14.8199 131.22 14.5798 132.218 15.2794C149.913 27.7037 162.009 46.2226 166.281 67.4314C166.521 68.6266 165.747 69.7908 164.553 70.0334C164.406 70.0644 164.259 70.0773 164.114 70.0773H164.117Z" fill="url(#paint2_linear_2092_145928)"/>
</g>
<g id="Group_2">
<path id="Vector_4" d="M165.778 87.8897C165.765 87.8897 165.75 87.8897 165.734 87.8897C164.516 87.8665 163.546 86.8598 163.57 85.6388C163.68 79.8435 163.152 74.0096 162.001 68.2969C161.761 67.1017 162.532 65.9349 163.729 65.6949C164.927 65.4522 166.09 66.2266 166.33 67.4244C167.546 73.452 168.103 79.6086 167.987 85.7239C167.964 86.9295 166.98 87.8897 165.781 87.8897H165.778Z" fill="url(#paint3_linear_2092_145928)"/>
<path id="Vector_5" d="M4.66227 105.892C3.6689 105.892 2.76842 105.218 2.52073 104.211C2.22401 103.001 1.95309 101.795 1.71829 100.631C1.47576 99.4357 2.24981 98.2689 3.44443 98.0289C4.64163 97.7862 5.80528 98.5606 6.04524 99.7558C6.26713 100.861 6.52515 102.004 6.80897 103.153C7.10053 104.338 6.37808 105.533 5.19378 105.825C5.01575 105.869 4.83772 105.889 4.66485 105.889L4.66227 105.892Z" fill="url(#paint4_linear_2092_145928)"/>
</g>
<path id="Vector_6" d="M62.8709 165.274C62.3523 165.274 61.8336 165.094 61.4157 164.724C60.4997 163.919 60.4094 162.525 61.2144 161.606C70.1573 151.423 76.7909 139.153 80.3928 126.13C84.1702 112.474 84.6552 98.4574 81.8351 84.4688C81.5952 83.2736 82.3666 82.1094 83.5638 81.8667C84.7584 81.6241 85.9247 82.3985 86.1646 83.5963C89.1241 98.2715 88.6158 112.98 84.6501 127.31C80.8701 140.973 73.914 153.841 64.5325 164.523C64.0965 165.021 63.485 165.274 62.8734 165.274H62.8709Z" fill="url(#paint5_linear_2092_145928)"/>
<path id="Vector_7" d="M52.3029 161.653C51.7482 161.653 51.1908 161.444 50.7625 161.025C49.8904 160.174 49.8724 158.774 50.7238 157.902C58.2554 150.178 64.0607 141.167 67.98 131.117C68.4238 129.982 69.7036 129.419 70.8388 129.863C71.9741 130.307 72.5366 131.587 72.0928 132.723C67.9568 143.325 61.8315 152.835 53.8845 160.987C53.4511 161.431 52.8783 161.653 52.3029 161.653Z" fill="url(#paint6_linear_2092_145928)"/>
<path id="Vector_8" d="M74.317 167.479C73.8422 167.479 73.3623 167.327 72.9598 167.012C72 166.26 71.8297 164.872 72.5805 163.911C90.6133 140.823 97.6391 111.132 91.857 82.4502L91.7073 81.7119C91.1706 79.9101 90.0302 78.3664 88.4434 77.3106C86.6476 76.118 84.4983 75.6947 82.3877 76.1232C78.3936 76.9286 75.6819 80.5761 75.9296 84.5385L76.1463 85.6176C78.4427 97.0222 78.3833 108.525 75.9683 119.811C75.7128 121.003 74.5389 121.762 73.3468 121.507C72.1548 121.251 71.3962 120.077 71.6517 118.884C73.7906 108.897 73.979 98.7259 72.2193 88.6197L72.1728 88.6275L71.7445 86.503C70.3848 79.7526 74.7659 73.1546 81.5131 71.7942C84.7796 71.1333 88.108 71.7864 90.8868 73.6347C93.6631 75.4804 95.5569 78.2967 96.2174 81.5673L96.6071 83.4931L96.5554 83.5086C101.902 112.854 94.4836 143.043 76.0586 166.632C75.6225 167.19 74.9723 167.481 74.317 167.481V167.479Z" fill="url(#paint7_linear_2092_145928)"/>
<path id="Vector_9" d="M42.6451 156.807C42.0542 156.807 41.4659 156.572 41.0325 156.108C40.1991 155.217 40.2455 153.818 41.1357 152.987C57.5533 137.62 65.5596 115.187 62.5537 92.9771C62.3911 91.769 63.2374 90.6565 64.4449 90.4913C65.655 90.326 66.7645 91.1753 66.9296 92.3834C70.1265 116.008 61.6119 139.871 44.1545 156.211C43.7287 156.609 43.1869 156.807 42.6477 156.807H42.6451Z" fill="url(#paint8_linear_2092_145928)"/>
<path id="Vector_10" d="M106.277 104.235C105.062 104.235 104.074 103.249 104.071 102.033C104.053 94.8331 103.313 87.5639 101.878 80.4264L101.705 79.5719C100.598 75.1448 97.92 71.345 94.0961 68.8023C90.0298 66.0996 85.1559 65.1419 80.3696 66.1073C73.1865 67.5555 67.5797 73.1287 66.0832 80.3024C65.833 81.4976 64.6642 82.2643 63.4721 82.0139C62.2775 81.7635 61.5138 80.5941 61.7615 79.4015C63.6192 70.4931 70.5831 63.5776 79.4975 61.7783C85.4397 60.578 91.4902 61.7654 96.5396 65.1238C101.589 68.4796 105.028 73.6037 106.226 79.5487L106.582 81.3195L106.551 81.3324C107.82 88.1809 108.47 95.1326 108.488 102.025C108.491 103.246 107.505 104.237 106.287 104.24H106.282L106.277 104.235Z" fill="url(#paint9_linear_2092_145928)"/>
<path id="Vector_11" d="M86.5908 168C86.1625 168 85.7265 167.874 85.3472 167.613C84.3409 166.924 84.0829 165.551 84.7718 164.544C94.9144 149.711 101.344 132.488 103.367 114.744C103.506 113.533 104.6 112.66 105.81 112.8C107.021 112.937 107.893 114.034 107.753 115.244C105.651 133.704 98.9627 151.614 88.415 167.038C87.9867 167.662 87.2952 168 86.5908 168Z" fill="url(#paint10_linear_2092_145928)"/>
<path id="Vector_12" d="M33.9191 150.911C33.2999 150.911 32.6858 150.653 32.2497 150.15C31.4525 149.228 31.5505 147.832 32.4742 147.034C40.2663 140.281 46.1955 131.571 49.6194 121.842C52.9091 112.497 53.7787 102.448 52.1686 92.6413H52.1506L51.7274 90.5427C49.9884 81.9234 51.7119 73.1414 56.5756 65.818C61.4392 58.4946 68.8623 53.5047 77.4801 51.7649C80.4757 51.1608 83.5306 50.9724 86.5546 51.2073C87.7698 51.3028 88.678 52.3638 88.5851 53.5796C88.4897 54.7954 87.4318 55.7041 86.214 55.6112C83.5951 55.4072 80.9504 55.5699 78.3548 56.0939C70.8955 57.5988 64.4657 61.9201 60.2549 68.26C56.382 74.094 54.8107 80.9941 55.7551 87.8709L56.1163 89.6572C58.3843 100.904 57.5792 112.541 53.789 123.308C50.1097 133.76 43.7418 143.121 35.3691 150.372C34.9512 150.733 34.4377 150.911 33.9243 150.911H33.9191Z" fill="url(#paint11_linear_2092_145928)"/>
<path id="Vector_13" d="M99.6228 166.518C99.2435 166.518 98.8591 166.42 98.5082 166.214C97.4555 165.597 97.1045 164.244 97.7212 163.191C112.722 137.607 117.756 107.495 111.892 78.4024L111.698 77.4447C109.853 69.6721 104.845 63.0327 97.8399 59.1245C96.7743 58.5308 96.3924 57.1858 96.9884 56.1197C97.5819 55.0536 98.9262 54.6716 99.9918 55.2679C108.408 59.966 114.33 68.0768 116.237 77.5221L116.616 79.3988L116.585 79.4091C122.081 108.982 116.76 139.452 101.53 165.424C101.119 166.126 100.381 166.516 99.6228 166.516V166.518Z" fill="url(#paint12_linear_2092_145928)"/>
<path id="Vector_14" d="M26.1577 144.071C25.5179 144.071 24.8857 143.795 24.4497 143.263C23.6782 142.318 23.815 140.927 24.7593 140.155C31.2974 134.796 36.3726 127.795 39.4353 119.906C39.8765 118.768 41.1563 118.205 42.2915 118.647C43.4268 119.088 43.9919 120.368 43.5507 121.504C40.2119 130.1 34.6826 137.731 27.5562 143.57C27.146 143.906 26.6506 144.071 26.1577 144.071Z" fill="url(#paint13_linear_2092_145928)"/>
<path id="Vector_15" d="M124.97 126.012C124.852 126.012 124.73 126.001 124.609 125.981C123.407 125.782 122.591 124.646 122.79 123.443C125.355 107.849 125.061 92.0147 121.91 76.3818L121.792 75.7881C119.642 65.9013 113.839 57.393 105.397 51.7811C96.7871 46.0581 86.4664 44.0317 76.3341 46.0762C66.1992 48.1206 57.4679 53.9907 51.7451 62.6049C46.3938 70.6614 44.2781 80.2203 45.6998 89.7173L46.0945 91.674C47.1782 97.0588 47.4336 102.521 46.8531 107.916C46.7241 109.129 45.6327 110.007 44.4226 109.875C43.2099 109.746 42.3326 108.657 42.4642 107.444C42.9183 103.223 42.8126 98.951 42.152 94.7175L41.716 92.5594C39.4377 81.2632 41.6928 69.7579 48.0684 60.1603C54.4414 50.5626 64.1712 44.024 75.462 41.7472C86.7503 39.4704 98.2501 41.7265 107.843 48.1026C117.436 54.4786 123.972 64.2105 126.248 75.5067L126.454 76.5367L126.446 76.5444C129.509 92.3684 129.746 108.383 127.151 124.161C126.973 125.242 126.036 126.012 124.975 126.012H124.97Z" fill="url(#paint14_linear_2092_145928)"/>
<path id="Vector_16" d="M113.308 162.596C112.983 162.596 112.653 162.524 112.343 162.372C111.246 161.837 110.792 160.516 111.326 159.419C114.988 151.902 117.934 144.01 120.086 135.961C120.401 134.784 121.611 134.085 122.79 134.4C123.967 134.715 124.666 135.925 124.351 137.105C122.127 145.425 119.08 153.582 115.295 161.355C114.913 162.139 114.126 162.596 113.308 162.596Z" fill="url(#paint15_linear_2092_145928)"/>
<path id="Vector_17" d="M127.528 155.484C127.265 155.484 126.999 155.437 126.741 155.337C125.603 154.9 125.033 153.625 125.469 152.484C134.917 127.775 137.185 100.967 132.043 74.9183L131.93 74.3607C130.521 67.3806 127.701 60.9452 123.544 55.2326C122.827 54.2465 123.044 52.8654 124.029 52.1478C125.015 51.4302 126.395 51.647 127.112 52.6331C131.465 58.6116 134.476 65.3181 136.066 72.577L136.076 72.5822L136.262 73.4908C141.714 100.534 139.41 128.397 129.595 154.064C129.259 154.944 128.421 155.484 127.533 155.484H127.528Z" fill="url(#paint16_linear_2092_145928)"/>
<path id="Vector_18" d="M116.391 46.6901C115.899 46.6901 115.406 46.5274 114.996 46.1893C103.583 36.8394 88.7552 33.148 74.3114 36.0624C70.5934 36.811 66.976 37.9856 63.5599 39.5525C62.4504 40.061 61.1422 39.5731 60.6339 38.4657C60.1256 37.3557 60.6133 36.0469 61.7202 35.5384C65.446 33.8295 69.3885 32.5492 73.4393 31.7334C89.1861 28.5583 105.353 32.5827 117.792 42.7741C118.737 43.5459 118.874 44.9399 118.102 45.8821C117.666 46.4164 117.031 46.6926 116.394 46.6926L116.391 46.6901Z" fill="url(#paint17_linear_2092_145928)"/>
<path id="Vector_19" d="M19.3849 136.395C18.7399 136.395 18.0974 136.114 17.6614 135.569C16.8976 134.619 17.0499 133.228 17.9994 132.464C28.8877 123.713 34.177 109.99 32.051 96.3062L31.7027 94.5793C27.7705 75.0665 34.9304 55.1407 50.3882 42.5822C51.3352 41.8129 52.7259 41.9575 53.4948 42.9049C54.2637 43.8522 54.1192 45.2436 53.1722 46.0129C39.5051 57.118 32.9102 74.496 35.6813 91.7656L36.0709 93.699C39.2729 109.575 33.4081 125.75 20.7653 135.91C20.3577 136.238 19.87 136.398 19.3849 136.398V136.395Z" fill="url(#paint18_linear_2092_145928)"/>
<path id="Vector_20" d="M13.6131 127.914C12.9861 127.914 12.3643 127.648 11.9283 127.132C11.1387 126.203 11.2548 124.809 12.1863 124.019C19.7823 117.578 23.4565 107.676 21.96 97.9079L21.6968 96.5992C21.0311 93.3079 20.6234 89.9288 20.4841 86.5549C20.4325 85.3365 21.3794 84.3066 22.5973 84.2575C23.8151 84.211 24.8446 85.1533 24.8936 86.3717C24.9968 88.8576 25.2574 91.3486 25.6677 93.8009L26.0547 95.7189C28.4259 107.485 24.2047 119.62 15.0399 127.39C14.6245 127.741 14.1188 127.914 13.6131 127.914Z" fill="url(#paint19_linear_2092_145928)"/>
<path id="Vector_21" d="M145.499 82.0609C144.423 82.0609 143.481 81.2736 143.318 80.1765C142.98 77.9049 142.591 75.6307 142.157 73.4029L141.935 72.3419C138.813 56.8536 129.852 43.5077 116.699 34.7645C103.545 26.0213 87.775 22.9262 72.2914 26.0497C60.3814 28.453 49.6659 34.3463 41.2984 43.0921C33.1193 51.6443 27.7293 62.3029 25.7116 73.9166C25.5026 75.1195 24.3622 75.9249 23.1598 75.7158C21.9575 75.5067 21.155 74.3632 21.3615 73.1628C23.5288 60.6818 29.3187 49.2281 38.1068 40.0409C47.1012 30.6395 58.6191 24.3047 71.4168 21.7233C88.0563 18.3675 105.003 21.6923 119.14 31.0886C132.822 40.1829 142.286 53.9108 145.919 69.8793H145.94L146.273 71.4746C146.804 74.1128 147.279 76.8233 147.681 79.5286C147.862 80.7341 147.029 81.8596 145.824 82.0377C145.713 82.0532 145.604 82.0609 145.496 82.0609H145.499Z" fill="url(#paint20_linear_2092_145928)"/>
<path id="Vector_22" d="M142.015 143.861C141.827 143.861 141.636 143.837 141.445 143.786C140.266 143.471 139.566 142.26 139.881 141.083C144.076 125.349 145.681 109.13 144.657 92.8702C144.58 91.6518 145.506 90.6037 146.721 90.5263C147.939 90.4463 148.986 91.373 149.064 92.5914C150.119 109.327 148.465 126.026 144.146 142.219C143.883 143.207 142.99 143.858 142.015 143.858V143.861Z" fill="url(#paint21_linear_2092_145928)"/>
<path id="Vector_23" d="M8.791 118.398C8.25433 118.398 7.71507 118.204 7.28934 117.809C6.39661 116.981 6.34242 115.582 7.17066 114.688C10.9945 110.563 12.7129 104.889 11.8433 99.3729L11.6834 98.6191C7.7899 79.2999 11.6473 59.6168 22.551 43.2017C33.4523 26.7866 50.0918 15.6014 69.4018 11.706C77.5112 10.0694 85.742 9.79579 93.8618 10.8955C95.0693 11.0581 95.9182 12.1707 95.753 13.3814C95.5905 14.5894 94.4759 15.4387 93.2683 15.2735C85.6388 14.241 77.9008 14.4965 70.2739 16.0376C52.1198 19.7006 36.4762 30.2147 26.2278 45.6488C16.2116 60.7319 12.5193 78.7501 15.7755 96.5153L16.0387 97.744C17.4759 104.884 15.373 112.342 10.4113 117.696C9.9753 118.165 9.38444 118.403 8.791 118.403V118.398Z" fill="url(#paint22_linear_2092_145928)"/>
<path id="Vector_24" d="M156.145 124.689C156.054 124.689 155.961 124.684 155.868 124.671C154.658 124.521 153.799 123.416 153.951 122.206C156.039 105.429 155.466 88.459 152.246 71.7367L151.947 70.3195C146.985 45.6903 129.032 25.62 105.091 17.9403C103.93 17.5686 103.29 16.3244 103.661 15.1627C104.033 14.0011 105.276 13.3609 106.438 13.7326C131.228 21.6859 149.983 42.1332 155.827 67.3818L155.858 67.3767L156.294 69.4418C159.852 87.0882 160.539 105.024 158.333 122.748C158.193 123.865 157.241 124.684 156.145 124.684V124.689Z" fill="url(#paint23_linear_2092_145928)"/>
</g>
<defs>
<linearGradient id="paint0_linear_2092_145928" x1="6.69564" y1="-0.175397" x2="6.69564" y2="177.353" gradientUnits="userSpaceOnUse">
<stop stop-color="#FFA502"/>
<stop offset="1" stop-color="#EB4634"/>
</linearGradient>
<linearGradient id="paint1_linear_2092_145928" x1="68.9525" y1="-0.175433" x2="68.9525" y2="177.353" gradientUnits="userSpaceOnUse">
<stop stop-color="#FFA502"/>
<stop offset="1" stop-color="#EB4634"/>
</linearGradient>
<linearGradient id="paint2_linear_2092_145928" x1="147.537" y1="-0.175447" x2="147.537" y2="177.352" gradientUnits="userSpaceOnUse">
<stop stop-color="#FFA502"/>
<stop offset="1" stop-color="#EB4634"/>
</linearGradient>
<linearGradient id="paint3_linear_2092_145928" x1="164.978" y1="-0.174672" x2="164.978" y2="177.353" gradientUnits="userSpaceOnUse">
<stop stop-color="#FFA502"/>
<stop offset="1" stop-color="#EB4634"/>
</linearGradient>
<linearGradient id="paint4_linear_2092_145928" x1="4.27266" y1="-0.175259" x2="4.27266" y2="177.353" gradientUnits="userSpaceOnUse">
<stop stop-color="#FFA502"/>
<stop offset="1" stop-color="#EB4634"/>
</linearGradient>
<linearGradient id="paint5_linear_2092_145928" x1="74.3604" y1="-0.175257" x2="74.3604" y2="177.353" gradientUnits="userSpaceOnUse">
<stop stop-color="#FFA502"/>
<stop offset="1" stop-color="#EB4634"/>
</linearGradient>
<linearGradient id="paint6_linear_2092_145928" x1="61.1684" y1="-0.175097" x2="61.1684" y2="177.353" gradientUnits="userSpaceOnUse">
<stop stop-color="#FFA502"/>
<stop offset="1" stop-color="#EB4634"/>
</linearGradient>
<linearGradient id="paint7_linear_2092_145928" x1="84.875" y1="-0.175228" x2="84.875" y2="177.353" gradientUnits="userSpaceOnUse">
<stop stop-color="#FFA502"/>
<stop offset="1" stop-color="#EB4634"/>
</linearGradient>
<linearGradient id="paint8_linear_2092_145928" x1="54.0133" y1="-0.175207" x2="54.0133" y2="177.353" gradientUnits="userSpaceOnUse">
<stop stop-color="#FFA502"/>
<stop offset="1" stop-color="#EB4634"/>
</linearGradient>
<linearGradient id="paint9_linear_2092_145928" x1="85.0991" y1="-0.175229" x2="85.0991" y2="177.353" gradientUnits="userSpaceOnUse">
<stop stop-color="#FFA502"/>
<stop offset="1" stop-color="#EB4634"/>
</linearGradient>
<linearGradient id="paint10_linear_2092_145928" x1="96.0755" y1="-0.175125" x2="96.0755" y2="177.353" gradientUnits="userSpaceOnUse">
<stop stop-color="#FFA502"/>
<stop offset="1" stop-color="#EB4634"/>
</linearGradient>
<linearGradient id="paint11_linear_2092_145928" x1="60.1491" y1="-0.175438" x2="60.1491" y2="177.352" gradientUnits="userSpaceOnUse">
<stop stop-color="#FFA502"/>
<stop offset="1" stop-color="#EB4634"/>
</linearGradient>
<linearGradient id="paint12_linear_2092_145928" x1="107.699" y1="-0.175409" x2="107.699" y2="177.353" gradientUnits="userSpaceOnUse">
<stop stop-color="#FFA502"/>
<stop offset="1" stop-color="#EB4634"/>
</linearGradient>
<linearGradient id="paint13_linear_2092_145928" x1="33.8234" y1="-0.175234" x2="33.8234" y2="177.353" gradientUnits="userSpaceOnUse">
<stop stop-color="#FFA502"/>
<stop offset="1" stop-color="#EB4634"/>
</linearGradient>
<linearGradient id="paint14_linear_2092_145928" x1="84.89" y1="-0.174754" x2="84.89" y2="177.353" gradientUnits="userSpaceOnUse">
<stop stop-color="#FFA502"/>
<stop offset="1" stop-color="#EB4634"/>
</linearGradient>
<linearGradient id="paint15_linear_2092_145928" x1="117.764" y1="-0.176355" x2="117.764" y2="177.352" gradientUnits="userSpaceOnUse">
<stop stop-color="#FFA502"/>
<stop offset="1" stop-color="#EB4634"/>
</linearGradient>
<linearGradient id="paint16_linear_2092_145928" x1="131.13" y1="-0.174564" x2="131.13" y2="177.353" gradientUnits="userSpaceOnUse">
<stop stop-color="#FFA502"/>
<stop offset="1" stop-color="#EB4634"/>
</linearGradient>
<linearGradient id="paint17_linear_2092_145928" x1="89.5164" y1="-0.175238" x2="89.5164" y2="177.355" gradientUnits="userSpaceOnUse">
<stop stop-color="#FFA502"/>
<stop offset="1" stop-color="#EB4634"/>
</linearGradient>
<linearGradient id="paint18_linear_2092_145928" x1="35.5807" y1="-0.176109" x2="35.5807" y2="177.352" gradientUnits="userSpaceOnUse">
<stop stop-color="#FFA502"/>
<stop offset="1" stop-color="#EB4634"/>
</linearGradient>
<linearGradient id="paint19_linear_2092_145928" x1="19.0547" y1="-0.17487" x2="19.0547" y2="177.353" gradientUnits="userSpaceOnUse">
<stop stop-color="#FFA502"/>
<stop offset="1" stop-color="#EB4634"/>
</linearGradient>
<linearGradient id="paint20_linear_2092_145928" x1="84.5189" y1="-0.174697" x2="84.5189" y2="177.353" gradientUnits="userSpaceOnUse">
<stop stop-color="#FFA502"/>
<stop offset="1" stop-color="#EB4634"/>
</linearGradient>
<linearGradient id="paint21_linear_2092_145928" x1="144.587" y1="-0.176294" x2="144.587" y2="177.352" gradientUnits="userSpaceOnUse">
<stop stop-color="#FFA502"/>
<stop offset="1" stop-color="#EB4634"/>
</linearGradient>
<linearGradient id="paint22_linear_2092_145928" x1="51.178" y1="-0.176154" x2="51.178" y2="177.352" gradientUnits="userSpaceOnUse">
<stop stop-color="#FFA502"/>
<stop offset="1" stop-color="#EB4634"/>
</linearGradient>
<linearGradient id="paint23_linear_2092_145928" x1="131.576" y1="-0.175947" x2="131.576" y2="177.352" gradientUnits="userSpaceOnUse">
<stop stop-color="#FFA502"/>
<stop offset="1" stop-color="#EB4634"/>
</linearGradient>
<clipPath id="clip0_2092_145928">
<rect width="168" height="168" fill="white"/>
</clipPath>
</defs>
</svg>
