<svg width="20" height="20" viewBox="0 0 20 20" fill="#F4F5F7" xmlns="http://www.w3.org/2000/svg">
<g id="wrapper">
<g id="Union">
<path fill-rule="evenodd" clip-rule="evenodd" d="M14.7369 4.08614L5.05348 9.88153C5.0352 9.89246 5.00244 9.92673 5.00244 10.0011C5.00244 10.0755 5.03509 10.1097 5.05336 10.1206L14.7369 15.9161C14.7706 15.9362 14.7952 15.9393 14.8126 15.9386C14.8324 15.9379 14.858 15.9313 14.8861 15.913C14.9415 15.877 15.0024 15.7966 15.0024 15.6652V4.33704C15.0024 4.20564 14.9415 4.12521 14.8861 4.08918C14.858 4.07088 14.8324 4.06431 14.8126 4.06356C14.7952 4.0629 14.7706 4.06605 14.7369 4.08614ZM15.568 3.04153C15.9814 3.31058 16.2524 3.78718 16.2524 4.33704V15.6652C16.2524 16.215 15.9814 16.6916 15.568 16.9607C15.1493 17.2332 14.5899 17.2841 14.0961 16.9893L4.41168 11.1933C3.9566 10.921 3.75244 10.441 3.75244 10.0011C3.75244 9.56125 3.95648 9.08123 4.41156 8.80895L14.0958 3.01309C14.5896 2.71821 15.1493 2.76904 15.568 3.04153Z" />
<path fill-rule="evenodd" clip-rule="evenodd" d="M4.37744 2.5011C4.72262 2.5011 5.00244 2.78092 5.00244 3.1261V16.8761C5.00244 17.2213 4.72262 17.5011 4.37744 17.5011C4.03226 17.5011 3.75244 17.2213 3.75244 16.8761V3.1261C3.75244 2.78092 4.03226 2.5011 4.37744 2.5011Z" />
</g>
</g>
</svg>
