<svg width="24" height="25" viewBox="0 0 24 25" fill="none" xmlns="http://www.w3.org/2000/svg">
<path fill-rule="evenodd" clip-rule="evenodd" d="M13.3014 1.81304C13.6068 1.94562 13.7883 2.26367 13.747 2.59404L12.8524 9.75102H19.2948L19.3246 9.75102C19.5712 9.75099 19.8048 9.75096 19.9925 9.76796C20.1723 9.78424 20.4688 9.82507 20.7209 10.0288C21.0197 10.2703 21.1909 10.6357 21.1851 11.0199C21.1802 11.344 21.0218 11.5979 20.9192 11.7464C20.812 11.9015 20.6625 12.081 20.5046 12.2703L20.4855 12.2933L11.579 22.9812C11.3658 23.2369 11.0096 23.3216 10.7041 23.189C10.3987 23.0564 10.2173 22.7384 10.2586 22.408L11.1532 15.251H4.71083L4.68096 15.251C4.43444 15.251 4.20081 15.2511 4.01305 15.2341C3.83324 15.2178 3.53675 15.177 3.28465 14.9733C2.98584 14.7318 2.81466 14.3663 2.82045 13.9822C2.82534 13.6581 2.98379 13.4042 3.08639 13.2556C3.19354 13.1005 3.34312 12.921 3.50095 12.7317L3.52008 12.7087L12.4266 2.02088C12.6398 1.7651 12.996 1.68047 13.3014 1.81304ZM11.9413 4.94636L4.67241 13.669C4.64834 13.6979 4.62563 13.7252 4.6042 13.751C4.63773 13.751 4.67322 13.751 4.71083 13.751H12.0028C12.2179 13.751 12.4227 13.8434 12.5651 14.0047C12.7074 14.1659 12.7737 14.3806 12.747 14.594L12.0643 20.0557L19.3332 11.333C19.3572 11.3041 19.38 11.2769 19.4014 11.2511C19.3679 11.251 19.3324 11.251 19.2948 11.251H12.0028C11.7877 11.251 11.5829 11.1586 11.4405 10.9974C11.2982 10.8361 11.2319 10.6215 11.2586 10.408L11.9413 4.94636Z" fill="#FCFDFF"/>
</svg>
