<svg width="324" height="240" viewBox="0 0 324 240" fill="none" xmlns="http://www.w3.org/2000/svg">
<g clip-path="url(#clip0_41_24969)">
<rect width="324" height="240" rx="20" fill="#120C00"/>
<rect width="324" height="240" rx="20" fill="url(#paint0_linear_41_24969)" fill-opacity="0.2"/>
<circle cx="-56" cy="120" r="120" fill="url(#paint1_radial_41_24969)"/>
<circle cx="394" cy="46" r="161" fill="url(#paint2_radial_41_24969)"/>
<g opacity="0.8">
<path d="M162.162 42.1616C158.325 42.1616 154.608 44.2498 151.168 48.1608C147.728 52.071 144.607 57.7578 141.977 64.8281C136.716 78.9649 133.453 98.5282 133.453 120.162C133.453 141.795 136.716 161.358 141.977 175.495C144.607 182.565 147.728 188.252 151.168 192.162C154.608 196.073 158.325 198.162 162.162 198.162C165.999 198.162 169.716 196.073 173.156 192.162C176.596 188.252 179.717 182.565 182.348 175.495C187.608 161.358 190.871 141.795 190.871 120.162C190.871 98.5282 187.608 78.9649 182.348 64.8281C179.717 57.7578 176.596 52.071 173.156 48.1608C169.716 44.2498 165.999 42.1616 162.162 42.1616Z" fill="url(#paint3_radial_41_24969)" stroke="url(#paint4_linear_41_24969)"/>
<g filter="url(#filter0_f_41_24969)">
<path d="M130.453 120.162C130.453 98.2659 133.751 78.3321 139.165 63.7819C141.868 56.5163 145.148 50.4623 148.915 46.1793C152.68 41.9004 157.15 39.1616 162.162 39.1616C167.174 39.1616 171.644 41.9004 175.409 46.1793C179.177 50.4623 182.456 56.5163 185.159 63.7819C190.573 78.3321 193.871 98.2659 193.871 120.162C193.871 142.057 190.573 161.991 185.159 176.541C182.456 183.807 179.177 189.861 175.409 194.144C171.644 198.423 167.174 201.162 162.162 201.162C157.15 201.162 152.68 198.423 148.915 194.144C145.148 189.861 141.868 183.807 139.165 176.541C133.751 161.991 130.453 142.057 130.453 120.162Z" stroke="url(#paint5_linear_41_24969)" stroke-width="5"/>
</g>
<g filter="url(#filter1_f_41_24969)">
<path d="M131.453 120.162C131.453 98.3533 134.739 78.5431 140.102 64.1306C142.781 56.9301 146.008 50.9985 149.666 46.8398C153.323 42.6835 157.541 40.1616 162.162 40.1616C166.783 40.1616 171.001 42.6835 174.658 46.8398C178.316 50.9985 181.543 56.9301 184.222 64.1306C189.585 78.5431 192.871 98.3533 192.871 120.162C192.871 141.97 189.585 161.78 184.222 176.193C181.543 183.393 178.316 189.325 174.658 193.483C171.001 197.64 166.783 200.162 162.162 200.162C157.541 200.162 153.323 197.64 149.666 193.483C146.008 189.325 142.781 183.393 140.102 176.193C134.739 161.78 131.453 141.97 131.453 120.162Z" stroke="url(#paint6_linear_41_24969)" stroke-width="3"/>
</g>
<g filter="url(#filter2_f_41_24969)">
<path d="M132.453 120.162C132.453 98.4407 135.728 78.754 141.039 64.4794C143.694 57.344 146.868 51.5347 150.417 47.5003C153.966 43.4667 157.933 41.1616 162.162 41.1616C166.391 41.1616 170.359 43.4667 173.907 47.5003C177.456 51.5347 180.63 57.344 183.285 64.4794C188.596 78.754 191.871 98.4407 191.871 120.162C191.871 141.883 188.596 161.569 183.285 175.844C180.63 182.979 177.456 188.789 173.907 192.823C170.359 196.857 166.391 199.162 162.162 199.162C157.933 199.162 153.966 196.857 150.417 192.823C146.868 188.789 143.694 182.979 141.039 175.844C135.728 161.569 132.453 141.883 132.453 120.162Z" stroke="url(#paint7_linear_41_24969)"/>
</g>
</g>
<g opacity="0.8">
<path d="M162.162 42.1616C158.325 42.1616 154.608 44.2498 151.168 48.1608C147.728 52.071 144.607 57.7578 141.977 64.8281C136.716 78.9649 133.453 98.5282 133.453 120.162C133.453 141.795 136.716 161.358 141.977 175.495C144.607 182.565 147.728 188.252 151.168 192.162C154.608 196.073 158.325 198.162 162.162 198.162C165.999 198.162 169.716 196.073 173.156 192.162C176.596 188.252 179.717 182.565 182.348 175.495C187.608 161.358 190.871 141.795 190.871 120.162C190.871 98.5282 187.608 78.9649 182.348 64.8281C179.717 57.7578 176.596 52.071 173.156 48.1608C169.716 44.2498 165.999 42.1616 162.162 42.1616Z" fill="url(#paint8_radial_41_24969)" stroke="url(#paint9_linear_41_24969)"/>
<g filter="url(#filter3_f_41_24969)">
<path d="M130.453 120.162C130.453 98.2659 133.751 78.3321 139.165 63.7819C141.868 56.5163 145.148 50.4623 148.915 46.1793C152.68 41.9004 157.15 39.1616 162.162 39.1616C167.174 39.1616 171.644 41.9004 175.409 46.1793C179.177 50.4623 182.456 56.5163 185.159 63.7819C190.573 78.3321 193.871 98.2659 193.871 120.162C193.871 142.057 190.573 161.991 185.159 176.541C182.456 183.807 179.177 189.861 175.409 194.144C171.644 198.423 167.174 201.162 162.162 201.162C157.15 201.162 152.68 198.423 148.915 194.144C145.148 189.861 141.868 183.807 139.165 176.541C133.751 161.991 130.453 142.057 130.453 120.162Z" stroke="url(#paint10_linear_41_24969)" stroke-width="5"/>
</g>
<g filter="url(#filter4_f_41_24969)">
<path d="M131.453 120.162C131.453 98.3533 134.739 78.5431 140.102 64.1306C142.781 56.9301 146.008 50.9985 149.666 46.8398C153.323 42.6835 157.541 40.1616 162.162 40.1616C166.783 40.1616 171.001 42.6835 174.658 46.8398C178.316 50.9985 181.543 56.9301 184.222 64.1306C189.585 78.5431 192.871 98.3533 192.871 120.162C192.871 141.97 189.585 161.78 184.222 176.193C181.543 183.393 178.316 189.325 174.658 193.483C171.001 197.64 166.783 200.162 162.162 200.162C157.541 200.162 153.323 197.64 149.666 193.483C146.008 189.325 142.781 183.393 140.102 176.193C134.739 161.78 131.453 141.97 131.453 120.162Z" stroke="url(#paint11_linear_41_24969)" stroke-width="3"/>
</g>
<g filter="url(#filter5_f_41_24969)">
<path d="M132.453 120.162C132.453 98.4407 135.728 78.754 141.039 64.4794C143.694 57.344 146.868 51.5347 150.417 47.5003C153.966 43.4667 157.933 41.1616 162.162 41.1616C166.391 41.1616 170.359 43.4667 173.907 47.5003C177.456 51.5347 180.63 57.344 183.285 64.4794C188.596 78.754 191.871 98.4407 191.871 120.162C191.871 141.883 188.596 161.569 183.285 175.844C180.63 182.979 177.456 188.789 173.907 192.823C170.359 196.857 166.391 199.162 162.162 199.162C157.933 199.162 153.966 196.857 150.417 192.823C146.868 188.789 143.694 182.979 141.039 175.844C135.728 161.569 132.453 141.883 132.453 120.162Z" stroke="url(#paint12_linear_41_24969)"/>
</g>
</g>
<g opacity="0.8">
<path d="M229.712 81.1615C227.793 77.8385 224.127 75.664 219.019 74.6399C213.913 73.6159 207.428 73.7568 199.99 75.0136C185.117 77.5266 166.543 84.4818 147.807 95.2985C129.072 106.115 113.762 118.723 104.149 130.347C99.3414 136.161 95.9768 141.707 94.3104 146.641C92.6437 151.576 92.6935 155.839 94.6121 159.162C96.5306 162.485 100.197 164.659 105.305 165.683C110.411 166.707 116.896 166.566 124.335 165.309C139.207 162.796 157.782 155.841 176.517 145.025C195.252 134.208 210.562 121.6 220.175 109.976C224.983 104.162 228.347 98.6165 230.014 93.6823C231.68 88.7472 231.631 84.4845 229.712 81.1615Z" fill="url(#paint13_radial_41_24969)" stroke="url(#paint14_linear_41_24969)"/>
<g filter="url(#filter6_f_41_24969)">
<path d="M146.307 92.7005C165.27 81.7526 184.182 74.642 199.49 72.0555C207.134 70.764 214.016 70.5769 219.609 71.6984C225.197 72.8189 229.804 75.3206 232.31 79.6615C234.816 84.0024 234.679 89.2429 232.856 94.6422C231.031 100.047 227.427 105.914 222.487 111.888C212.593 123.852 196.979 136.675 178.017 147.623C159.054 158.57 140.142 165.681 124.834 168.267C117.19 169.559 110.308 169.746 104.715 168.625C99.127 167.504 94.5202 165.002 92.014 160.662C89.5078 156.321 89.6446 151.08 91.4681 145.681C93.2934 140.276 96.8967 134.409 101.837 128.435C111.731 116.471 127.345 103.648 146.307 92.7005Z" stroke="url(#paint15_linear_41_24969)" stroke-width="5"/>
</g>
<g filter="url(#filter7_f_41_24969)">
<path d="M146.807 93.5665C165.694 82.6623 184.493 75.6035 199.656 73.0416C207.232 71.7616 213.982 71.5899 219.413 72.6789C224.84 73.7673 229.134 76.1599 231.444 80.1615C233.754 84.1631 233.68 89.0777 231.909 94.3223C230.136 99.57 226.612 105.33 221.716 111.25C211.916 123.101 196.403 135.852 177.517 146.757C158.63 157.661 139.831 164.72 124.668 167.281C117.092 168.561 110.342 168.733 104.911 167.644C99.4838 166.556 95.1903 164.163 92.88 160.162C90.5697 156.16 90.6443 151.245 92.4156 146.001C94.1878 140.753 97.7116 134.993 102.608 129.073C112.408 117.222 127.921 104.471 146.807 93.5665Z" stroke="url(#paint16_linear_41_24969)" stroke-width="3"/>
</g>
<g filter="url(#filter8_f_41_24969)">
<path d="M147.307 94.4325C166.118 83.5721 184.805 76.565 199.823 74.0276C207.33 72.7592 213.948 72.6029 219.216 73.6594C224.484 74.7157 228.464 76.9992 230.578 80.6615C232.692 84.3238 232.68 88.9124 230.961 94.0023C229.242 99.0932 225.798 104.746 220.946 110.613C211.239 122.35 195.828 135.03 177.017 145.891C158.206 156.751 139.519 163.758 124.501 166.295C116.994 167.564 110.377 167.72 105.108 166.664C99.8405 165.607 95.8605 163.324 93.746 159.662C91.6316 155.999 91.644 151.411 93.363 146.321C95.0823 141.23 98.5265 135.577 103.378 129.71C113.085 117.973 128.497 105.293 147.307 94.4325Z" stroke="url(#paint17_linear_41_24969)"/>
</g>
</g>
<g opacity="0.8">
<path d="M229.712 81.1615C227.793 77.8385 224.127 75.664 219.019 74.6399C213.913 73.6159 207.428 73.7568 199.99 75.0136C185.117 77.5266 166.543 84.4818 147.807 95.2985C129.072 106.115 113.762 118.723 104.149 130.347C99.3414 136.161 95.9768 141.707 94.3104 146.641C92.6437 151.576 92.6935 155.839 94.6121 159.162C96.5306 162.485 100.197 164.659 105.305 165.683C110.411 166.707 116.896 166.566 124.335 165.309C139.207 162.796 157.782 155.841 176.517 145.025C195.252 134.208 210.562 121.6 220.175 109.976C224.983 104.162 228.347 98.6165 230.014 93.6823C231.68 88.7472 231.631 84.4845 229.712 81.1615Z" fill="url(#paint18_radial_41_24969)" stroke="url(#paint19_linear_41_24969)"/>
<g filter="url(#filter9_f_41_24969)">
<path d="M146.307 92.7005C165.27 81.7526 184.182 74.642 199.49 72.0555C207.134 70.764 214.016 70.5769 219.609 71.6984C225.197 72.8189 229.804 75.3206 232.31 79.6615C234.816 84.0024 234.679 89.2429 232.856 94.6422C231.031 100.047 227.427 105.914 222.487 111.888C212.593 123.852 196.979 136.675 178.017 147.623C159.054 158.57 140.142 165.681 124.834 168.267C117.19 169.559 110.308 169.746 104.715 168.625C99.127 167.504 94.5202 165.002 92.014 160.662C89.5078 156.321 89.6446 151.08 91.4681 145.681C93.2934 140.276 96.8967 134.409 101.837 128.435C111.731 116.471 127.345 103.648 146.307 92.7005Z" stroke="url(#paint20_linear_41_24969)" stroke-width="5"/>
</g>
<g filter="url(#filter10_f_41_24969)">
<path d="M146.807 93.5665C165.694 82.6623 184.493 75.6035 199.656 73.0416C207.232 71.7616 213.982 71.5899 219.413 72.6789C224.84 73.7673 229.134 76.1599 231.444 80.1615C233.754 84.1631 233.68 89.0777 231.909 94.3223C230.136 99.57 226.612 105.33 221.716 111.25C211.916 123.101 196.403 135.852 177.517 146.757C158.63 157.661 139.831 164.72 124.668 167.281C117.092 168.561 110.342 168.733 104.911 167.644C99.4838 166.556 95.1903 164.163 92.88 160.162C90.5697 156.16 90.6443 151.245 92.4156 146.001C94.1878 140.753 97.7116 134.993 102.608 129.073C112.408 117.222 127.921 104.471 146.807 93.5665Z" stroke="url(#paint21_linear_41_24969)" stroke-width="3"/>
</g>
<g filter="url(#filter11_f_41_24969)">
<path d="M147.307 94.4325C166.118 83.5721 184.805 76.565 199.823 74.0276C207.33 72.7592 213.948 72.6029 219.216 73.6594C224.484 74.7157 228.464 76.9992 230.578 80.6615C232.692 84.3238 232.68 88.9124 230.961 94.0023C229.242 99.0932 225.798 104.746 220.946 110.613C211.239 122.35 195.828 135.03 177.017 145.891C158.206 156.751 139.519 163.758 124.501 166.295C116.994 167.564 110.377 167.72 105.108 166.664C99.8405 165.607 95.8605 163.324 93.746 159.662C91.6316 155.999 91.644 151.411 93.363 146.321C95.0823 141.23 98.5265 135.577 103.378 129.71C113.085 117.973 128.497 105.293 147.307 94.4325Z" stroke="url(#paint22_linear_41_24969)"/>
</g>
</g>
<g opacity="0.8">
<path d="M94.612 81.1615C96.5305 77.8385 100.197 75.664 105.304 74.6399C110.411 73.6159 116.896 73.7568 124.334 75.0136C139.207 77.5266 157.781 84.4818 176.517 95.2985C195.252 106.115 210.562 118.723 220.175 130.347C224.983 136.161 228.347 141.707 230.014 146.641C231.68 151.576 231.63 155.839 229.712 159.162C227.793 162.485 224.127 164.659 219.019 165.683C213.913 166.707 207.428 166.566 199.989 165.309C185.116 162.796 166.542 155.841 147.807 145.025C129.072 134.208 113.762 121.6 104.149 109.976C99.3413 104.162 95.9767 98.6165 94.3103 93.6823C92.6436 88.7472 92.6934 84.4845 94.612 81.1615Z" fill="url(#paint23_radial_41_24969)" stroke="url(#paint24_linear_41_24969)"/>
<g filter="url(#filter12_f_41_24969)">
<path d="M178.017 92.7005C159.054 81.7526 140.142 74.642 124.834 72.0555C117.19 70.764 110.308 70.5769 104.715 71.6984C99.1269 72.8189 94.5201 75.3206 92.0139 79.6615C89.5077 84.0024 89.6445 89.2429 91.468 94.6422C93.2933 100.047 96.8966 105.914 101.837 111.888C111.731 123.852 127.345 136.675 146.307 147.623C165.27 158.57 184.182 165.681 199.49 168.267C207.134 169.559 214.016 169.746 219.609 168.625C225.197 167.504 229.804 165.002 232.31 160.662C234.816 156.321 234.679 151.08 232.856 145.681C231.031 140.276 227.427 134.409 222.487 128.435C212.593 116.471 196.979 103.648 178.017 92.7005Z" stroke="url(#paint25_linear_41_24969)" stroke-width="5"/>
</g>
<g filter="url(#filter13_f_41_24969)">
<path d="M177.517 93.5665C158.63 82.6623 139.831 75.6035 124.668 73.0416C117.092 71.7616 110.342 71.5899 104.911 72.6789C99.4837 73.7673 95.1902 76.1599 92.8799 80.1615C90.5696 84.1631 90.6442 89.0777 92.4154 94.3223C94.1877 99.57 97.7115 105.33 102.608 111.25C112.408 123.101 127.921 135.852 146.807 146.757C165.694 157.661 184.493 164.72 199.656 167.281C207.232 168.561 213.982 168.733 219.413 167.644C224.84 166.556 229.134 164.163 231.444 160.162C233.754 156.16 233.68 151.245 231.908 146.001C230.136 140.753 226.612 134.993 221.716 129.073C211.916 117.222 196.403 104.471 177.517 93.5665Z" stroke="url(#paint26_linear_41_24969)" stroke-width="3"/>
</g>
<g filter="url(#filter14_f_41_24969)">
<path d="M177.017 94.4325C158.206 83.5721 139.519 76.565 124.501 74.0276C116.994 72.7592 110.376 72.6029 105.108 73.6594C99.8404 74.7157 95.8604 76.9992 93.7459 80.6615C91.6315 84.3238 91.6439 88.9124 93.3629 94.0023C95.0822 99.0932 98.5264 104.746 103.378 110.613C113.085 122.35 128.496 135.03 147.307 145.891C166.118 156.751 184.805 163.758 199.823 166.295C207.33 167.564 213.947 167.72 219.216 166.664C224.483 165.607 228.464 163.324 230.578 159.662C232.692 155.999 232.68 151.411 230.961 146.321C229.242 141.23 225.797 135.577 220.946 129.71C211.239 117.973 195.827 105.293 177.017 94.4325Z" stroke="url(#paint27_linear_41_24969)"/>
</g>
</g>
<g opacity="0.8">
<path d="M94.612 81.1615C96.5305 77.8385 100.197 75.664 105.304 74.6399C110.411 73.6159 116.896 73.7568 124.334 75.0136C139.207 77.5266 157.781 84.4818 176.517 95.2985C195.252 106.115 210.562 118.723 220.175 130.347C224.983 136.161 228.347 141.707 230.014 146.641C231.68 151.576 231.63 155.839 229.712 159.162C227.793 162.485 224.127 164.659 219.019 165.683C213.913 166.707 207.428 166.566 199.989 165.309C185.116 162.796 166.542 155.841 147.807 145.025C129.072 134.208 113.762 121.6 104.149 109.976C99.3413 104.162 95.9767 98.6165 94.3103 93.6823C92.6436 88.7472 92.6934 84.4845 94.612 81.1615Z" fill="url(#paint28_radial_41_24969)" stroke="url(#paint29_linear_41_24969)"/>
<g filter="url(#filter15_f_41_24969)">
<path d="M178.017 92.7005C159.054 81.7526 140.142 74.642 124.834 72.0555C117.19 70.764 110.308 70.5769 104.715 71.6984C99.1269 72.8189 94.5201 75.3206 92.0139 79.6615C89.5077 84.0024 89.6445 89.2429 91.468 94.6422C93.2933 100.047 96.8966 105.914 101.837 111.888C111.731 123.852 127.345 136.675 146.307 147.623C165.27 158.57 184.182 165.681 199.49 168.267C207.134 169.559 214.016 169.746 219.609 168.625C225.197 167.504 229.804 165.002 232.31 160.662C234.816 156.321 234.679 151.08 232.856 145.681C231.031 140.276 227.427 134.409 222.487 128.435C212.593 116.471 196.979 103.648 178.017 92.7005Z" stroke="url(#paint30_linear_41_24969)" stroke-width="5"/>
</g>
<g filter="url(#filter16_f_41_24969)">
<path d="M177.517 93.5665C158.63 82.6623 139.831 75.6035 124.668 73.0416C117.092 71.7616 110.342 71.5899 104.911 72.6789C99.4837 73.7673 95.1902 76.1599 92.8799 80.1615C90.5696 84.1631 90.6442 89.0777 92.4154 94.3223C94.1877 99.57 97.7115 105.33 102.608 111.25C112.408 123.101 127.921 135.852 146.807 146.757C165.694 157.661 184.493 164.72 199.656 167.281C207.232 168.561 213.982 168.733 219.413 167.644C224.84 166.556 229.134 164.163 231.444 160.162C233.754 156.16 233.68 151.245 231.908 146.001C230.136 140.753 226.612 134.993 221.716 129.073C211.916 117.222 196.403 104.471 177.517 93.5665Z" stroke="url(#paint31_linear_41_24969)" stroke-width="3"/>
</g>
<g filter="url(#filter17_f_41_24969)">
<path d="M177.017 94.4325C158.206 83.5721 139.519 76.565 124.501 74.0276C116.994 72.7592 110.376 72.6029 105.108 73.6594C99.8404 74.7157 95.8604 76.9992 93.7459 80.6615C91.6315 84.3238 91.6439 88.9124 93.3629 94.0023C95.0822 99.0932 98.5264 104.746 103.378 110.613C113.085 122.35 128.496 135.03 147.307 145.891C166.118 156.751 184.805 163.758 199.823 166.295C207.33 167.564 213.947 167.72 219.216 166.664C224.483 165.607 228.464 163.324 230.578 159.662C232.692 155.999 232.68 151.411 230.961 146.321C229.242 141.23 225.797 135.577 220.946 129.71C211.239 117.973 195.827 105.293 177.017 94.4325Z" stroke="url(#paint32_linear_41_24969)"/>
</g>
</g>
</g>
<rect x="0.5" y="0.5" width="323" height="239" rx="19.5" stroke="url(#paint33_linear_41_24969)"/>
<defs>
<filter id="filter0_f_41_24969" x="97.9526" y="6.66162" width="128.419" height="227" filterUnits="userSpaceOnUse" color-interpolation-filters="sRGB">
<feFlood flood-opacity="0" result="BackgroundImageFix"/>
<feBlend mode="normal" in="SourceGraphic" in2="BackgroundImageFix" result="shape"/>
<feGaussianBlur stdDeviation="15" result="effect1_foregroundBlur_41_24969"/>
</filter>
<filter id="filter1_f_41_24969" x="111.953" y="20.6616" width="100.419" height="199" filterUnits="userSpaceOnUse" color-interpolation-filters="sRGB">
<feFlood flood-opacity="0" result="BackgroundImageFix"/>
<feBlend mode="normal" in="SourceGraphic" in2="BackgroundImageFix" result="shape"/>
<feGaussianBlur stdDeviation="9" result="effect1_foregroundBlur_41_24969"/>
</filter>
<filter id="filter2_f_41_24969" x="119.953" y="28.6616" width="84.4187" height="183" filterUnits="userSpaceOnUse" color-interpolation-filters="sRGB">
<feFlood flood-opacity="0" result="BackgroundImageFix"/>
<feBlend mode="normal" in="SourceGraphic" in2="BackgroundImageFix" result="shape"/>
<feGaussianBlur stdDeviation="6" result="effect1_foregroundBlur_41_24969"/>
</filter>
<filter id="filter3_f_41_24969" x="97.9526" y="6.66162" width="128.419" height="227" filterUnits="userSpaceOnUse" color-interpolation-filters="sRGB">
<feFlood flood-opacity="0" result="BackgroundImageFix"/>
<feBlend mode="normal" in="SourceGraphic" in2="BackgroundImageFix" result="shape"/>
<feGaussianBlur stdDeviation="15" result="effect1_foregroundBlur_41_24969"/>
</filter>
<filter id="filter4_f_41_24969" x="111.953" y="20.6616" width="100.419" height="199" filterUnits="userSpaceOnUse" color-interpolation-filters="sRGB">
<feFlood flood-opacity="0" result="BackgroundImageFix"/>
<feBlend mode="normal" in="SourceGraphic" in2="BackgroundImageFix" result="shape"/>
<feGaussianBlur stdDeviation="9" result="effect1_foregroundBlur_41_24969"/>
</filter>
<filter id="filter5_f_41_24969" x="119.953" y="28.6616" width="84.4187" height="183" filterUnits="userSpaceOnUse" color-interpolation-filters="sRGB">
<feFlood flood-opacity="0" result="BackgroundImageFix"/>
<feBlend mode="normal" in="SourceGraphic" in2="BackgroundImageFix" result="shape"/>
<feGaussianBlur stdDeviation="6" result="effect1_foregroundBlur_41_24969"/>
</filter>
<filter id="filter6_f_41_24969" x="57.614" y="38.4604" width="209.096" height="163.402" filterUnits="userSpaceOnUse" color-interpolation-filters="sRGB">
<feFlood flood-opacity="0" result="BackgroundImageFix"/>
<feBlend mode="normal" in="SourceGraphic" in2="BackgroundImageFix" result="shape"/>
<feGaussianBlur stdDeviation="15" result="effect1_foregroundBlur_41_24969"/>
</filter>
<filter id="filter7_f_41_24969" x="71.6138" y="52.4604" width="181.096" height="135.402" filterUnits="userSpaceOnUse" color-interpolation-filters="sRGB">
<feFlood flood-opacity="0" result="BackgroundImageFix"/>
<feBlend mode="normal" in="SourceGraphic" in2="BackgroundImageFix" result="shape"/>
<feGaussianBlur stdDeviation="9" result="effect1_foregroundBlur_41_24969"/>
</filter>
<filter id="filter8_f_41_24969" x="79.6138" y="60.4604" width="165.097" height="119.402" filterUnits="userSpaceOnUse" color-interpolation-filters="sRGB">
<feFlood flood-opacity="0" result="BackgroundImageFix"/>
<feBlend mode="normal" in="SourceGraphic" in2="BackgroundImageFix" result="shape"/>
<feGaussianBlur stdDeviation="6" result="effect1_foregroundBlur_41_24969"/>
</filter>
<filter id="filter9_f_41_24969" x="57.614" y="38.4604" width="209.096" height="163.402" filterUnits="userSpaceOnUse" color-interpolation-filters="sRGB">
<feFlood flood-opacity="0" result="BackgroundImageFix"/>
<feBlend mode="normal" in="SourceGraphic" in2="BackgroundImageFix" result="shape"/>
<feGaussianBlur stdDeviation="15" result="effect1_foregroundBlur_41_24969"/>
</filter>
<filter id="filter10_f_41_24969" x="71.6138" y="52.4604" width="181.096" height="135.402" filterUnits="userSpaceOnUse" color-interpolation-filters="sRGB">
<feFlood flood-opacity="0" result="BackgroundImageFix"/>
<feBlend mode="normal" in="SourceGraphic" in2="BackgroundImageFix" result="shape"/>
<feGaussianBlur stdDeviation="9" result="effect1_foregroundBlur_41_24969"/>
</filter>
<filter id="filter11_f_41_24969" x="79.6138" y="60.4604" width="165.097" height="119.402" filterUnits="userSpaceOnUse" color-interpolation-filters="sRGB">
<feFlood flood-opacity="0" result="BackgroundImageFix"/>
<feBlend mode="normal" in="SourceGraphic" in2="BackgroundImageFix" result="shape"/>
<feGaussianBlur stdDeviation="6" result="effect1_foregroundBlur_41_24969"/>
</filter>
<filter id="filter12_f_41_24969" x="57.6138" y="38.4604" width="209.096" height="163.402" filterUnits="userSpaceOnUse" color-interpolation-filters="sRGB">
<feFlood flood-opacity="0" result="BackgroundImageFix"/>
<feBlend mode="normal" in="SourceGraphic" in2="BackgroundImageFix" result="shape"/>
<feGaussianBlur stdDeviation="15" result="effect1_foregroundBlur_41_24969"/>
</filter>
<filter id="filter13_f_41_24969" x="71.6138" y="52.4604" width="181.096" height="135.402" filterUnits="userSpaceOnUse" color-interpolation-filters="sRGB">
<feFlood flood-opacity="0" result="BackgroundImageFix"/>
<feBlend mode="normal" in="SourceGraphic" in2="BackgroundImageFix" result="shape"/>
<feGaussianBlur stdDeviation="9" result="effect1_foregroundBlur_41_24969"/>
</filter>
<filter id="filter14_f_41_24969" x="79.6135" y="60.4604" width="165.097" height="119.402" filterUnits="userSpaceOnUse" color-interpolation-filters="sRGB">
<feFlood flood-opacity="0" result="BackgroundImageFix"/>
<feBlend mode="normal" in="SourceGraphic" in2="BackgroundImageFix" result="shape"/>
<feGaussianBlur stdDeviation="6" result="effect1_foregroundBlur_41_24969"/>
</filter>
<filter id="filter15_f_41_24969" x="57.6138" y="38.4604" width="209.096" height="163.402" filterUnits="userSpaceOnUse" color-interpolation-filters="sRGB">
<feFlood flood-opacity="0" result="BackgroundImageFix"/>
<feBlend mode="normal" in="SourceGraphic" in2="BackgroundImageFix" result="shape"/>
<feGaussianBlur stdDeviation="15" result="effect1_foregroundBlur_41_24969"/>
</filter>
<filter id="filter16_f_41_24969" x="71.6138" y="52.4604" width="181.096" height="135.402" filterUnits="userSpaceOnUse" color-interpolation-filters="sRGB">
<feFlood flood-opacity="0" result="BackgroundImageFix"/>
<feBlend mode="normal" in="SourceGraphic" in2="BackgroundImageFix" result="shape"/>
<feGaussianBlur stdDeviation="9" result="effect1_foregroundBlur_41_24969"/>
</filter>
<filter id="filter17_f_41_24969" x="79.6135" y="60.4604" width="165.097" height="119.402" filterUnits="userSpaceOnUse" color-interpolation-filters="sRGB">
<feFlood flood-opacity="0" result="BackgroundImageFix"/>
<feBlend mode="normal" in="SourceGraphic" in2="BackgroundImageFix" result="shape"/>
<feGaussianBlur stdDeviation="6" result="effect1_foregroundBlur_41_24969"/>
</filter>
<linearGradient id="paint0_linear_41_24969" x1="9" y1="1.57002e-06" x2="299.5" y2="240" gradientUnits="userSpaceOnUse">
<stop offset="0.13" stop-color="white" stop-opacity="0"/>
<stop offset="0.315" stop-color="white"/>
<stop offset="0.5" stop-color="white" stop-opacity="0"/>
<stop offset="1" stop-color="white"/>
</linearGradient>
<radialGradient id="paint1_radial_41_24969" cx="0" cy="0" r="1" gradientUnits="userSpaceOnUse" gradientTransform="translate(-56 120) rotate(90) scale(120)">
<stop stop-color="#FFB632"/>
<stop offset="1" stop-color="#120C00" stop-opacity="0"/>
</radialGradient>
<radialGradient id="paint2_radial_41_24969" cx="0" cy="0" r="1" gradientUnits="userSpaceOnUse" gradientTransform="translate(394 46) rotate(90) scale(161)">
<stop stop-color="#FFB632"/>
<stop offset="1" stop-color="#120C00" stop-opacity="0"/>
</radialGradient>
<radialGradient id="paint3_radial_41_24969" cx="0" cy="0" r="1" gradientUnits="userSpaceOnUse" gradientTransform="translate(162.162 120.162) rotate(180) scale(29.2093 86.891)">
<stop stop-color="#120C00" stop-opacity="0"/>
<stop offset="0.68" stop-color="#120C00" stop-opacity="0"/>
<stop offset="0.945" stop-color="#FFB632" stop-opacity="0.8"/>
<stop offset="1" stop-color="#120C00" stop-opacity="0"/>
</radialGradient>
<linearGradient id="paint4_linear_41_24969" x1="191.371" y1="116.209" x2="132.921" y2="116.757" gradientUnits="userSpaceOnUse">
<stop stop-color="white" stop-opacity="0"/>
<stop offset="0.495" stop-color="white"/>
<stop offset="1" stop-color="white" stop-opacity="0"/>
</linearGradient>
<linearGradient id="paint5_linear_41_24969" x1="191.371" y1="116.209" x2="132.921" y2="116.757" gradientUnits="userSpaceOnUse">
<stop stop-color="#FFB632" stop-opacity="0"/>
<stop offset="0.495" stop-color="#FFB632"/>
<stop offset="1" stop-color="#FFB632" stop-opacity="0"/>
</linearGradient>
<linearGradient id="paint6_linear_41_24969" x1="191.371" y1="116.209" x2="132.921" y2="116.757" gradientUnits="userSpaceOnUse">
<stop stop-color="#FFB632" stop-opacity="0"/>
<stop offset="0.495" stop-color="#FFB632"/>
<stop offset="1" stop-color="#FFB632" stop-opacity="0"/>
</linearGradient>
<linearGradient id="paint7_linear_41_24969" x1="191.371" y1="116.209" x2="132.921" y2="116.757" gradientUnits="userSpaceOnUse">
<stop stop-color="#FFB632" stop-opacity="0"/>
<stop offset="0.495" stop-color="#FFB632"/>
<stop offset="1" stop-color="#FFB632" stop-opacity="0"/>
</linearGradient>
<radialGradient id="paint8_radial_41_24969" cx="0" cy="0" r="1" gradientUnits="userSpaceOnUse" gradientTransform="translate(162.162 120.162) rotate(180) scale(29.2093 86.891)">
<stop stop-color="#120C00" stop-opacity="0"/>
<stop offset="0.68" stop-color="#120C00" stop-opacity="0"/>
<stop offset="0.945" stop-color="#FFB632" stop-opacity="0.8"/>
<stop offset="1" stop-color="#120C00" stop-opacity="0"/>
</radialGradient>
<linearGradient id="paint9_linear_41_24969" x1="191.371" y1="116.209" x2="132.921" y2="116.757" gradientUnits="userSpaceOnUse">
<stop stop-color="white" stop-opacity="0"/>
<stop offset="0.495" stop-color="white"/>
<stop offset="1" stop-color="white" stop-opacity="0"/>
</linearGradient>
<linearGradient id="paint10_linear_41_24969" x1="191.371" y1="116.209" x2="132.921" y2="116.757" gradientUnits="userSpaceOnUse">
<stop stop-color="#FFB632" stop-opacity="0"/>
<stop offset="0.495" stop-color="#FFB632"/>
<stop offset="1" stop-color="#FFB632" stop-opacity="0"/>
</linearGradient>
<linearGradient id="paint11_linear_41_24969" x1="191.371" y1="116.209" x2="132.921" y2="116.757" gradientUnits="userSpaceOnUse">
<stop stop-color="#FFB632" stop-opacity="0"/>
<stop offset="0.495" stop-color="#FFB632"/>
<stop offset="1" stop-color="#FFB632" stop-opacity="0"/>
</linearGradient>
<linearGradient id="paint12_linear_41_24969" x1="191.371" y1="116.209" x2="132.921" y2="116.757" gradientUnits="userSpaceOnUse">
<stop stop-color="#FFB632" stop-opacity="0"/>
<stop offset="0.495" stop-color="#FFB632"/>
<stop offset="1" stop-color="#FFB632" stop-opacity="0"/>
</linearGradient>
<radialGradient id="paint13_radial_41_24969" cx="0" cy="0" r="1" gradientUnits="userSpaceOnUse" gradientTransform="translate(162.162 120.162) rotate(-120) scale(29.2093 86.8911)">
<stop stop-color="#120C00" stop-opacity="0"/>
<stop offset="0.68" stop-color="#120C00" stop-opacity="0"/>
<stop offset="0.945" stop-color="#FFB632" stop-opacity="0.8"/>
<stop offset="1" stop-color="#120C00" stop-opacity="0"/>
</radialGradient>
<linearGradient id="paint14_linear_41_24969" x1="180.189" y1="143.481" x2="150.49" y2="93.1355" gradientUnits="userSpaceOnUse">
<stop stop-color="white" stop-opacity="0"/>
<stop offset="0.495" stop-color="white"/>
<stop offset="1" stop-color="white" stop-opacity="0"/>
</linearGradient>
<linearGradient id="paint15_linear_41_24969" x1="180.189" y1="143.481" x2="150.49" y2="93.1355" gradientUnits="userSpaceOnUse">
<stop stop-color="white" stop-opacity="0"/>
<stop offset="0.495" stop-color="white"/>
<stop offset="1" stop-color="white" stop-opacity="0"/>
</linearGradient>
<linearGradient id="paint16_linear_41_24969" x1="180.189" y1="143.481" x2="150.49" y2="93.1355" gradientUnits="userSpaceOnUse">
<stop stop-color="white" stop-opacity="0"/>
<stop offset="0.495" stop-color="white"/>
<stop offset="1" stop-color="white" stop-opacity="0"/>
</linearGradient>
<linearGradient id="paint17_linear_41_24969" x1="180.189" y1="143.481" x2="150.49" y2="93.1355" gradientUnits="userSpaceOnUse">
<stop stop-color="white" stop-opacity="0"/>
<stop offset="0.495" stop-color="white"/>
<stop offset="1" stop-color="white" stop-opacity="0"/>
</linearGradient>
<radialGradient id="paint18_radial_41_24969" cx="0" cy="0" r="1" gradientUnits="userSpaceOnUse" gradientTransform="translate(162.162 120.162) rotate(-120) scale(29.2093 86.8911)">
<stop stop-color="#120C00" stop-opacity="0"/>
<stop offset="0.68" stop-color="#120C00" stop-opacity="0"/>
<stop offset="0.945" stop-color="#FFB632" stop-opacity="0.8"/>
<stop offset="1" stop-color="#120C00" stop-opacity="0"/>
</radialGradient>
<linearGradient id="paint19_linear_41_24969" x1="180.189" y1="143.481" x2="150.49" y2="93.1355" gradientUnits="userSpaceOnUse">
<stop stop-color="white" stop-opacity="0"/>
<stop offset="0.495" stop-color="white"/>
<stop offset="1" stop-color="white" stop-opacity="0"/>
</linearGradient>
<linearGradient id="paint20_linear_41_24969" x1="180.189" y1="143.481" x2="150.49" y2="93.1355" gradientUnits="userSpaceOnUse">
<stop stop-color="#FFB632" stop-opacity="0"/>
<stop offset="0.495" stop-color="#FFB632"/>
<stop offset="1" stop-color="#FFB632" stop-opacity="0"/>
</linearGradient>
<linearGradient id="paint21_linear_41_24969" x1="180.189" y1="143.481" x2="150.49" y2="93.1355" gradientUnits="userSpaceOnUse">
<stop stop-color="#FFB632" stop-opacity="0"/>
<stop offset="0.495" stop-color="#FFB632"/>
<stop offset="1" stop-color="#FFB632" stop-opacity="0"/>
</linearGradient>
<linearGradient id="paint22_linear_41_24969" x1="180.189" y1="143.481" x2="150.49" y2="93.1355" gradientUnits="userSpaceOnUse">
<stop stop-color="#FFB632" stop-opacity="0"/>
<stop offset="0.495" stop-color="#FFB632"/>
<stop offset="1" stop-color="#FFB632" stop-opacity="0"/>
</linearGradient>
<radialGradient id="paint23_radial_41_24969" cx="0" cy="0" r="1" gradientUnits="userSpaceOnUse" gradientTransform="translate(162.162 120.162) rotate(-60) scale(29.2093 86.8911)">
<stop stop-color="#120C00" stop-opacity="0"/>
<stop offset="0.68" stop-color="#120C00" stop-opacity="0"/>
<stop offset="0.945" stop-color="#FFB632" stop-opacity="0.8"/>
<stop offset="1" stop-color="#120C00" stop-opacity="0"/>
</radialGradient>
<linearGradient id="paint24_linear_41_24969" x1="144.135" y1="143.481" x2="173.834" y2="93.1355" gradientUnits="userSpaceOnUse">
<stop stop-color="white" stop-opacity="0"/>
<stop offset="0.495" stop-color="white"/>
<stop offset="1" stop-color="white" stop-opacity="0"/>
</linearGradient>
<linearGradient id="paint25_linear_41_24969" x1="144.135" y1="143.481" x2="173.834" y2="93.1355" gradientUnits="userSpaceOnUse">
<stop stop-color="white" stop-opacity="0"/>
<stop offset="0.495" stop-color="white"/>
<stop offset="1" stop-color="white" stop-opacity="0"/>
</linearGradient>
<linearGradient id="paint26_linear_41_24969" x1="144.135" y1="143.481" x2="173.834" y2="93.1355" gradientUnits="userSpaceOnUse">
<stop stop-color="white" stop-opacity="0"/>
<stop offset="0.495" stop-color="white"/>
<stop offset="1" stop-color="white" stop-opacity="0"/>
</linearGradient>
<linearGradient id="paint27_linear_41_24969" x1="144.135" y1="143.481" x2="173.834" y2="93.1355" gradientUnits="userSpaceOnUse">
<stop stop-color="white" stop-opacity="0"/>
<stop offset="0.495" stop-color="white"/>
<stop offset="1" stop-color="white" stop-opacity="0"/>
</linearGradient>
<radialGradient id="paint28_radial_41_24969" cx="0" cy="0" r="1" gradientUnits="userSpaceOnUse" gradientTransform="translate(162.162 120.162) rotate(-60) scale(29.2093 86.8911)">
<stop stop-color="#120C00" stop-opacity="0"/>
<stop offset="0.68" stop-color="#120C00" stop-opacity="0"/>
<stop offset="0.945" stop-color="#FFB632" stop-opacity="0.8"/>
<stop offset="1" stop-color="#120C00" stop-opacity="0"/>
</radialGradient>
<linearGradient id="paint29_linear_41_24969" x1="144.135" y1="143.481" x2="173.834" y2="93.1355" gradientUnits="userSpaceOnUse">
<stop stop-color="white" stop-opacity="0"/>
<stop offset="0.495" stop-color="white"/>
<stop offset="1" stop-color="white" stop-opacity="0"/>
</linearGradient>
<linearGradient id="paint30_linear_41_24969" x1="144.135" y1="143.481" x2="173.834" y2="93.1355" gradientUnits="userSpaceOnUse">
<stop stop-color="#FFB632" stop-opacity="0"/>
<stop offset="0.495" stop-color="#FFB632"/>
<stop offset="1" stop-color="#FFB632" stop-opacity="0"/>
</linearGradient>
<linearGradient id="paint31_linear_41_24969" x1="144.135" y1="143.481" x2="173.834" y2="93.1355" gradientUnits="userSpaceOnUse">
<stop stop-color="#FFB632" stop-opacity="0"/>
<stop offset="0.495" stop-color="#FFB632"/>
<stop offset="1" stop-color="#FFB632" stop-opacity="0"/>
</linearGradient>
<linearGradient id="paint32_linear_41_24969" x1="144.135" y1="143.481" x2="173.834" y2="93.1355" gradientUnits="userSpaceOnUse">
<stop stop-color="#FFB632" stop-opacity="0"/>
<stop offset="0.495" stop-color="#FFB632"/>
<stop offset="1" stop-color="#FFB632" stop-opacity="0"/>
</linearGradient>
<linearGradient id="paint33_linear_41_24969" x1="8" y1="9" x2="320.5" y2="235" gradientUnits="userSpaceOnUse">
<stop stop-color="white" stop-opacity="0"/>
<stop offset="0.505" stop-color="white"/>
<stop offset="1" stop-color="white" stop-opacity="0.1"/>
</linearGradient>
<clipPath id="clip0_41_24969">
<rect width="324" height="240" rx="20" fill="white"/>
</clipPath>
</defs>
</svg>
