<svg width="324" height="240" viewBox="0 0 324 240" fill="none" xmlns="http://www.w3.org/2000/svg">
<g clip-path="url(#clip0_41_24968)">
<rect width="324" height="240" rx="20" fill="#120C00"/>
<rect width="324" height="240" rx="20" fill="url(#paint0_linear_41_24968)" fill-opacity="0.2"/>
<g filter="url(#filter0_f_41_24968)">
<path d="M152 32.5381L152 121.322C152 124.941 154.935 127.86 158.538 127.86L211.138 127.86C214.756 127.86 217.676 124.925 217.676 121.322L217.676 111.523L217.676 85.1843L217.676 32.5381C217.676 28.9197 214.741 26 211.138 26L158.538 26C154.92 26 152 28.9352 152 32.5381Z" fill="url(#paint1_linear_41_24968)"/>
</g>
<path d="M151.597 32.5381L151.597 121.322C151.597 124.941 154.532 127.86 158.135 127.86L210.735 127.86C214.353 127.86 217.273 124.925 217.273 121.322L217.273 111.523L217.273 85.1843L217.273 32.5381C217.273 28.9197 214.337 26 210.735 26L158.135 26C154.517 26 151.597 28.9352 151.597 32.5381Z" fill="url(#paint2_linear_41_24968)"/>
<g filter="url(#filter1_b_41_24968)">
<path d="M182.641 67.9619H110.008C102.274 67.9619 96 74.2359 96 81.9543V199.205C96 206.939 102.274 213.197 110.008 213.197H182.641C190.375 213.197 196.649 206.939 196.649 199.205V81.9543C196.649 74.2359 190.375 67.9619 182.641 67.9619ZM176.988 203.134C176.413 203.708 175.606 204.066 174.736 204.066H117.913C116.158 204.066 114.729 202.652 114.729 200.897C114.729 200.028 115.086 199.22 115.661 198.646C116.235 198.071 117.027 197.714 117.913 197.714H174.736C176.491 197.714 177.92 199.142 177.92 200.897C177.92 201.767 177.563 202.575 176.988 203.134Z" fill="url(#paint3_linear_41_24968)"/>
<path d="M110.008 68.2119H182.641C190.237 68.2119 196.399 74.3742 196.399 81.9543V199.205C196.399 206.8 190.237 212.947 182.641 212.947H110.008C102.412 212.947 96.25 206.8 96.25 199.205V81.9543C96.25 74.3742 102.412 68.2119 110.008 68.2119ZM174.736 204.316C175.674 204.316 176.544 203.931 177.164 203.312C177.786 202.706 178.17 201.834 178.17 200.897C178.17 199.004 176.629 197.464 174.736 197.464H117.913C116.958 197.464 116.103 197.849 115.484 198.469C114.864 199.089 114.479 199.959 114.479 200.897C114.479 202.792 116.021 204.316 117.913 204.316H174.736Z" stroke="url(#paint4_linear_41_24968)" stroke-width="0.5"/>
</g>
<path d="M177.92 200.897C177.92 201.767 177.563 202.574 176.988 203.133C176.413 203.708 175.606 204.065 174.736 204.065H117.913C116.158 204.065 114.729 202.652 114.729 200.897C114.729 200.027 115.086 199.22 115.661 198.645C116.235 198.071 117.027 197.713 117.913 197.713H174.736C176.491 197.713 177.92 199.142 177.92 200.897Z" fill="white"/>
</g>
<rect x="0.5" y="0.5" width="323" height="239" rx="19.5" stroke="url(#paint5_linear_41_24968)"/>
<defs>
<filter id="filter0_f_41_24968" x="109" y="-17" width="151.676" height="187.86" filterUnits="userSpaceOnUse" color-interpolation-filters="sRGB">
<feFlood flood-opacity="0" result="BackgroundImageFix"/>
<feBlend mode="normal" in="SourceGraphic" in2="BackgroundImageFix" result="shape"/>
<feGaussianBlur stdDeviation="21.5" result="effect1_foregroundBlur_41_24968"/>
</filter>
<filter id="filter1_b_41_24968" x="78" y="49.9619" width="136.649" height="181.235" filterUnits="userSpaceOnUse" color-interpolation-filters="sRGB">
<feFlood flood-opacity="0" result="BackgroundImageFix"/>
<feGaussianBlur in="BackgroundImageFix" stdDeviation="9"/>
<feComposite in2="SourceAlpha" operator="in" result="effect1_backgroundBlur_41_24968"/>
<feBlend mode="normal" in="SourceGraphic" in2="effect1_backgroundBlur_41_24968" result="shape"/>
</filter>
<linearGradient id="paint0_linear_41_24968" x1="9" y1="1.57002e-06" x2="299.5" y2="240" gradientUnits="userSpaceOnUse">
<stop offset="0.13" stop-color="white" stop-opacity="0"/>
<stop offset="0.315" stop-color="white"/>
<stop offset="0.5" stop-color="white" stop-opacity="0"/>
<stop offset="1" stop-color="white"/>
</linearGradient>
<linearGradient id="paint1_linear_41_24968" x1="240.558" y1="76.9226" x2="155.872" y2="76.9226" gradientUnits="userSpaceOnUse">
<stop stop-color="#FFA502"/>
<stop offset="0.47" stop-color="#FFD892"/>
<stop offset="1" stop-color="#FFA502"/>
</linearGradient>
<linearGradient id="paint2_linear_41_24968" x1="219.917" y1="76.9226" x2="154.584" y2="76.9226" gradientUnits="userSpaceOnUse">
<stop stop-color="#FFA502"/>
<stop offset="0.5" stop-color="#FFD892"/>
<stop offset="1" stop-color="#FFA502"/>
</linearGradient>
<linearGradient id="paint3_linear_41_24968" x1="101.682" y1="204.998" x2="222.316" y2="121.398" gradientUnits="userSpaceOnUse">
<stop stop-color="white" stop-opacity="0.2"/>
<stop offset="1" stop-color="white" stop-opacity="0.49"/>
</linearGradient>
<linearGradient id="paint4_linear_41_24968" x1="103.105" y1="79.3844" x2="219.51" y2="165.639" gradientUnits="userSpaceOnUse">
<stop stop-color="white"/>
<stop offset="1" stop-color="white" stop-opacity="0"/>
</linearGradient>
<linearGradient id="paint5_linear_41_24968" x1="8" y1="9" x2="320.5" y2="235" gradientUnits="userSpaceOnUse">
<stop stop-color="white" stop-opacity="0"/>
<stop offset="0.505" stop-color="white"/>
<stop offset="1" stop-color="white" stop-opacity="0.1"/>
</linearGradient>
</defs>
</svg>
