<svg width="136" height="40" viewBox="0 0 136 40" fill="none" xmlns="http://www.w3.org/2000/svg">
<g clip-path="url(#clip0_1062_17073)">
<path d="M130.164 0H5.16406C2.40264 0 0.164062 2.23858 0.164062 5V35C0.164062 37.7614 2.40264 40 5.16406 40H130.164C132.925 40 135.164 37.7614 135.164 35V5C135.164 2.23858 132.925 0 130.164 0Z" fill="black"/>
<path d="M130.164 0.8C131.278 0.8 132.346 1.2425 133.134 2.03015C133.922 2.8178 134.364 3.88609 134.364 5V35C134.364 36.1139 133.922 37.1822 133.134 37.9698C132.346 38.7575 131.278 39.2 130.164 39.2H5.16406C4.05015 39.2 2.98187 38.7575 2.19421 37.9698C1.40656 37.1822 0.964063 36.1139 0.964063 35V5C0.964063 3.88609 1.40656 2.8178 2.19421 2.03015C2.98187 1.2425 4.05015 0.8 5.16406 0.8H130.164ZM130.164 0H5.16406C3.83798 0 2.56621 0.526784 1.62853 1.46447C0.690847 2.40215 0.164063 3.67392 0.164062 5V35C0.164063 36.3261 0.690847 37.5979 1.62853 38.5355C2.56621 39.4732 3.83798 40 5.16406 40H130.164C131.49 40 132.762 39.4732 133.7 38.5355C134.637 37.5979 135.164 36.3261 135.164 35V5C135.164 3.67392 134.637 2.40215 133.7 1.46447C132.762 0.526784 131.49 0 130.164 0Z" fill="#A6A6A6"/>
<path d="M44.6175 10.4858H46.6512V13.3951C46.3347 13.496 46.0128 13.5724 45.6855 13.6242C45.3582 13.676 44.979 13.702 44.548 13.702C43.6423 13.702 42.9372 13.4333 42.4325 12.8959C41.9279 12.3558 41.6755 11.6001 41.6755 10.629C41.6755 10.0071 41.7997 9.46285 42.0479 8.99639C42.2989 8.52719 42.6589 8.16984 43.1281 7.92434C43.5973 7.6761 44.147 7.55198 44.7771 7.55198C45.4154 7.55198 46.0101 7.66928 46.5611 7.90388L46.2911 8.51765C45.751 8.28851 45.2313 8.17394 44.7321 8.17394C44.0038 8.17394 43.435 8.3908 43.0258 8.82453C42.6167 9.25826 42.4121 9.85976 42.4121 10.629C42.4121 11.4365 42.6085 12.0489 43.0013 12.4662C43.3968 12.8836 43.9765 13.0923 44.7403 13.0923C45.1549 13.0923 45.56 13.0445 45.9556 12.9491V11.1078H44.6175V10.4858ZM51.4263 13.6201H48.0915V7.63791H51.4263V8.25577H48.7871V10.183H51.2667V10.7968H48.7871V12.9982H51.4263V13.6201ZM54.5974 13.6201H53.9018V8.25577H52.0073V7.63791H56.4919V8.25577H54.5974V13.6201ZM59.5731 13.6201V7.63791H60.2687V13.6201H59.5731ZM63.7549 13.6201H63.0593V8.25577H61.1648V7.63791H65.6494V8.25577H63.7549V13.6201ZM73.923 10.6208C73.923 11.5783 73.6802 12.3312 73.1946 12.8795C72.7118 13.4278 72.0394 13.702 71.1774 13.702C70.2963 13.702 69.6157 13.4333 69.1356 12.8959C68.6582 12.3558 68.4195 11.5947 68.4195 10.6126C68.4195 9.6388 68.6596 8.88454 69.1397 8.34988C69.6198 7.81249 70.3017 7.5438 71.1856 7.5438C72.0449 7.5438 72.7159 7.81659 73.1987 8.36216C73.6816 8.90773 73.923 9.66062 73.923 10.6208ZM69.156 10.6208C69.156 11.431 69.3279 12.0461 69.6716 12.4662C70.0181 12.8836 70.52 13.0923 71.1774 13.0923C71.8403 13.0923 72.3408 12.8836 72.6791 12.4662C73.0173 12.0489 73.1865 11.4337 73.1865 10.6208C73.1865 9.81611 73.0173 9.20643 72.6791 8.7918C72.3436 8.37443 71.8457 8.16575 71.1856 8.16575C70.5227 8.16575 70.0181 8.3758 69.6716 8.79589C69.3279 9.21325 69.156 9.82157 69.156 10.6208ZM79.9338 13.6201H79.14L75.8707 8.59948H75.838C75.8816 9.1887 75.9034 9.72882 75.9034 10.2198V13.6201H75.261V7.63791H76.0466L79.3078 12.6381H79.3405C79.3351 12.5644 79.3228 12.3285 79.3037 11.9302C79.2846 11.5292 79.2778 11.2428 79.2832 11.0709V7.63791H79.9338V13.6201Z" fill="white"/>
<path d="M44.6175 10.4858V10.3858H44.5175V10.4858H44.6175ZM46.6512 10.4858H46.7512V10.3858H46.6512V10.4858ZM46.6512 13.3951L46.6816 13.4903L46.7512 13.4681V13.3951H46.6512ZM42.4325 12.8959L42.3595 12.9641L42.3596 12.9643L42.4325 12.8959ZM42.0479 8.99639L41.9597 8.94922L41.9596 8.94941L42.0479 8.99639ZM43.1281 7.92434L43.1745 8.01294L43.1749 8.01273L43.1281 7.92434ZM46.5611 7.90388L46.6527 7.94415L46.6934 7.85151L46.6003 7.81187L46.5611 7.90388ZM46.2911 8.51765L46.252 8.6097L46.3429 8.64824L46.3826 8.55792L46.2911 8.51765ZM43.0013 12.4662L42.9285 12.5348L42.9287 12.535L43.0013 12.4662ZM45.9556 12.9491L45.979 13.0463L46.0556 13.0278V12.9491H45.9556ZM45.9556 11.1078H46.0556V11.0078H45.9556V11.1078ZM44.6175 11.1078H44.5175V11.2078H44.6175V11.1078ZM44.6175 10.5858H46.6512V10.3858H44.6175V10.5858ZM46.5512 10.4858V13.3951H46.7512V10.4858H46.5512ZM46.6208 13.2998C46.3092 13.3992 45.9922 13.4744 45.6699 13.5254L45.7011 13.723C46.0335 13.6704 46.3603 13.5928 46.6816 13.4903L46.6208 13.2998ZM45.6699 13.5254C45.349 13.5762 44.9752 13.602 44.548 13.602V13.802C44.9828 13.802 45.3674 13.7758 45.7011 13.723L45.6699 13.5254ZM44.548 13.602C43.6632 13.602 42.987 13.3402 42.5054 12.8274L42.3596 12.9643C42.8874 13.5263 43.6215 13.802 44.548 13.802V13.602ZM42.5056 12.8276C42.0231 12.3112 41.7755 11.583 41.7755 10.629H41.5755C41.5755 11.6173 41.8326 12.4003 42.3595 12.9641L42.5056 12.8276ZM41.7755 10.629C41.7755 10.0205 41.8969 9.49301 42.1362 9.04337L41.9596 8.94941C41.7024 9.4327 41.5755 9.99358 41.5755 10.629H41.7755ZM42.1361 9.04355C42.3776 8.59196 42.7232 8.2491 43.1745 8.01294L43.0818 7.83573C42.5947 8.09059 42.2201 8.46242 41.9597 8.94922L42.1361 9.04355ZM43.1749 8.01273C43.6272 7.77342 44.1602 7.65198 44.7771 7.65198V7.45198C44.1337 7.45198 43.5674 7.57878 43.0814 7.83594L43.1749 8.01273ZM44.7771 7.65198C45.4029 7.65198 45.9841 7.7669 46.522 7.99589L46.6003 7.81187C46.0361 7.57166 45.428 7.45198 44.7771 7.45198V7.65198ZM46.4696 7.8636L46.1996 8.47737L46.3826 8.55792L46.6527 7.94415L46.4696 7.8636ZM46.3301 8.42559C45.7798 8.19211 45.2469 8.07394 44.7321 8.07394V8.27394C45.2157 8.27394 45.7221 8.3849 46.252 8.6097L46.3301 8.42559ZM44.7321 8.07394C43.9828 8.07394 43.3852 8.29784 42.9531 8.75591L43.0986 8.89315C43.4848 8.48376 44.0248 8.27394 44.7321 8.27394V8.07394ZM42.9531 8.75591C42.5218 9.21311 42.3121 9.84191 42.3121 10.629H42.5121C42.5121 9.8776 42.7115 9.30341 43.0986 8.89315L42.9531 8.75591ZM42.3121 10.629C42.3121 11.4515 42.5121 12.0924 42.9285 12.5348L43.0741 12.3977C42.7048 12.0053 42.5121 11.4214 42.5121 10.629H42.3121ZM42.9287 12.535C43.3487 12.9782 43.9584 13.1923 44.7403 13.1923V12.9923C43.9945 12.9923 43.4449 12.789 43.0739 12.3974L42.9287 12.535ZM44.7403 13.1923C45.1627 13.1923 45.5757 13.1436 45.979 13.0463L45.9321 12.8519C45.5444 12.9454 45.1472 12.9923 44.7403 12.9923V13.1923ZM46.0556 12.9491V11.1078H45.8556V12.9491H46.0556ZM45.9556 11.0078H44.6175V11.2078H45.9556V11.0078ZM44.7175 11.1078V10.4858H44.5175V11.1078H44.7175ZM51.4263 13.6201V13.7201H51.5263V13.6201H51.4263ZM48.0915 13.6201H47.9915V13.7201H48.0915V13.6201ZM48.0915 7.63791V7.53791H47.9915V7.63791H48.0915ZM51.4263 7.63791H51.5263V7.53791H51.4263V7.63791ZM51.4263 8.25577V8.35577H51.5263V8.25577H51.4263ZM48.7871 8.25577V8.15577H48.6871V8.25577H48.7871ZM48.7871 10.183H48.6871V10.283H48.7871V10.183ZM51.2667 10.183H51.3667V10.083H51.2667V10.183ZM51.2667 10.7968V10.8968H51.3667V10.7968H51.2667ZM48.7871 10.7968V10.6968H48.6871V10.7968H48.7871ZM48.7871 12.9982H48.6871V13.0982H48.7871V12.9982ZM51.4263 12.9982H51.5263V12.8982H51.4263V12.9982ZM51.4263 13.5201H48.0915V13.7201H51.4263V13.5201ZM48.1915 13.6201V7.63791H47.9915V13.6201H48.1915ZM48.0915 7.73791H51.4263V7.53791H48.0915V7.73791ZM51.3263 7.63791V8.25577H51.5263V7.63791H51.3263ZM51.4263 8.15577H48.7871V8.35577H51.4263V8.15577ZM48.6871 8.25577V10.183H48.8871V8.25577H48.6871ZM48.7871 10.283H51.2667V10.083H48.7871V10.283ZM51.1667 10.183V10.7968H51.3667V10.183H51.1667ZM51.2667 10.6968H48.7871V10.8968H51.2667V10.6968ZM48.6871 10.7968V12.9982H48.8871V10.7968H48.6871ZM48.7871 13.0982H51.4263V12.8982H48.7871V13.0982ZM51.3263 12.9982V13.6201H51.5263V12.9982H51.3263ZM54.5974 13.6201V13.7201H54.6974V13.6201H54.5974ZM53.9018 13.6201H53.8018V13.7201H53.9018V13.6201ZM53.9018 8.25577H54.0018V8.15577H53.9018V8.25577ZM52.0073 8.25577H51.9073V8.35577H52.0073V8.25577ZM52.0073 7.63791V7.53791H51.9073V7.63791H52.0073ZM56.4919 7.63791H56.5919V7.53791H56.4919V7.63791ZM56.4919 8.25577V8.35577H56.5919V8.25577H56.4919ZM54.5974 8.25577V8.15577H54.4974V8.25577H54.5974ZM54.5974 13.5201H53.9018V13.7201H54.5974V13.5201ZM54.0018 13.6201V8.25577H53.8018V13.6201H54.0018ZM53.9018 8.15577H52.0073V8.35577H53.9018V8.15577ZM52.1073 8.25577V7.63791H51.9073V8.25577H52.1073ZM52.0073 7.73791H56.4919V7.53791H52.0073V7.73791ZM56.3919 7.63791V8.25577H56.5919V7.63791H56.3919ZM56.4919 8.15577H54.5974V8.35577H56.4919V8.15577ZM54.4974 8.25577V13.6201H54.6974V8.25577H54.4974ZM59.5731 13.6201H59.4731V13.7201H59.5731V13.6201ZM59.5731 7.63791V7.53791H59.4731V7.63791H59.5731ZM60.2687 7.63791H60.3687V7.53791H60.2687V7.63791ZM60.2687 13.6201V13.7201H60.3687V13.6201H60.2687ZM59.6731 13.6201V7.63791H59.4731V13.6201H59.6731ZM59.5731 7.73791H60.2687V7.53791H59.5731V7.73791ZM60.1687 7.63791V13.6201H60.3687V7.63791H60.1687ZM60.2687 13.5201H59.5731V13.7201H60.2687V13.5201ZM63.7549 13.6201V13.7201H63.8549V13.6201H63.7549ZM63.0593 13.6201H62.9593V13.7201H63.0593V13.6201ZM63.0593 8.25577H63.1593V8.15577H63.0593V8.25577ZM61.1648 8.25577H61.0648V8.35577H61.1648V8.25577ZM61.1648 7.63791V7.53791H61.0648V7.63791H61.1648ZM65.6494 7.63791H65.7494V7.53791H65.6494V7.63791ZM65.6494 8.25577V8.35577H65.7494V8.25577H65.6494ZM63.7549 8.25577V8.15577H63.6549V8.25577H63.7549ZM63.7549 13.5201H63.0593V13.7201H63.7549V13.5201ZM63.1593 13.6201V8.25577H62.9593V13.6201H63.1593ZM63.0593 8.15577H61.1648V8.35577H63.0593V8.15577ZM61.2648 8.25577V7.63791H61.0648V8.25577H61.2648ZM61.1648 7.73791H65.6494V7.53791H61.1648V7.73791ZM65.5494 7.63791V8.25577H65.7494V7.63791H65.5494ZM65.6494 8.15577H63.7549V8.35577H65.6494V8.15577ZM63.6549 8.25577V13.6201H63.8549V8.25577H63.6549ZM73.1946 12.8795L73.1198 12.8132L73.1196 12.8134L73.1946 12.8795ZM69.1356 12.8959L69.0607 12.9621L69.061 12.9625L69.1356 12.8959ZM69.1397 8.34988L69.2141 8.4167L69.2143 8.41651L69.1397 8.34988ZM69.6716 12.4662L69.5942 12.5296L69.5947 12.5301L69.6716 12.4662ZM72.6791 8.7918L72.6011 8.85445L72.6016 8.85501L72.6791 8.7918ZM69.6716 8.79589L69.5945 8.73226L69.5944 8.73232L69.6716 8.79589ZM73.823 10.6208C73.823 11.5616 73.5847 12.2882 73.1198 12.8132L73.2695 12.9458C73.7757 12.3742 74.023 11.5951 74.023 10.6208H73.823ZM73.1196 12.8134C72.6592 13.3362 72.0163 13.602 71.1774 13.602V13.802C72.0624 13.802 72.7644 13.5194 73.2697 12.9456L73.1196 12.8134ZM71.1774 13.602C70.3179 13.602 69.6672 13.3408 69.2102 12.8292L69.061 12.9625C69.5642 13.5258 70.2747 13.802 71.1774 13.802V13.602ZM69.2105 12.8296C68.7543 12.3135 68.5195 11.5792 68.5195 10.6126H68.3195C68.3195 11.6102 68.5621 12.398 69.0607 12.9621L69.2105 12.8296ZM68.5195 10.6126C68.5195 9.65461 68.7555 8.92734 69.2141 8.4167L69.0653 8.28307C68.5636 8.84175 68.3195 9.62299 68.3195 10.6126H68.5195ZM69.2143 8.41651C69.6712 7.90506 70.3232 7.6438 71.1856 7.6438V7.4438C70.2803 7.4438 69.5684 7.71993 69.0651 8.28326L69.2143 8.41651ZM71.1856 7.6438C72.0219 7.6438 72.6634 7.9082 73.1239 8.42843L73.2736 8.29588C72.7684 7.72497 72.0679 7.4438 71.1856 7.4438V7.6438ZM73.1239 8.42843C73.5859 8.95056 73.823 9.67713 73.823 10.6208H74.023C74.023 9.64411 73.7772 8.86491 73.2736 8.29588L73.1239 8.42843ZM69.056 10.6208C69.056 11.4431 69.2302 12.0846 69.5942 12.5296L69.749 12.4029C69.4256 12.0076 69.256 11.4189 69.256 10.6208H69.056ZM69.5947 12.5301C69.9641 12.9752 70.4972 13.1923 71.1774 13.1923V12.9923C70.5428 12.9923 70.072 12.792 69.7486 12.4024L69.5947 12.5301ZM71.1774 13.1923C71.8627 13.1923 72.3951 12.9754 72.7568 12.5292L72.6014 12.4033C72.2865 12.7918 71.8179 12.9923 71.1774 12.9923V13.1923ZM72.7568 12.5292C73.1152 12.0869 73.2865 11.4454 73.2865 10.6208H73.0865C73.0865 11.4221 72.9194 12.0108 72.6014 12.4033L72.7568 12.5292ZM73.2865 10.6208C73.2865 9.80421 73.1151 9.16812 72.7566 8.72858L72.6016 8.85501C72.9195 9.24474 73.0865 9.82801 73.0865 10.6208H73.2865ZM72.757 8.72914C72.3981 8.28272 71.8683 8.06575 71.1856 8.06575V8.26575C71.8232 8.26575 72.289 8.46615 72.6011 8.85445L72.757 8.72914ZM71.1856 8.06575C70.5 8.06575 69.964 8.28415 69.5945 8.73226L69.7488 8.85951C70.0721 8.46745 70.5454 8.26575 71.1856 8.26575V8.06575ZM69.5944 8.73232C69.2303 9.17441 69.056 9.8091 69.056 10.6208H69.256C69.256 9.83403 69.4255 9.25209 69.7488 8.85946L69.5944 8.73232ZM79.9338 13.6201V13.7201H80.0338V13.6201H79.9338ZM79.14 13.6201L79.0562 13.6747L79.0858 13.7201H79.14V13.6201ZM75.8707 8.59948L75.9545 8.54491L75.9249 8.49948H75.8707V8.59948ZM75.838 8.59948V8.49948H75.7303L75.7382 8.60687L75.838 8.59948ZM75.9034 13.6201V13.7201H76.0034V13.6201H75.9034ZM75.261 13.6201H75.161V13.7201H75.261V13.6201ZM75.261 7.63791V7.53791H75.161V7.63791H75.261ZM76.0466 7.63791L76.1304 7.58328L76.1008 7.53791H76.0466V7.63791ZM79.3078 12.6381L79.224 12.6927L79.2536 12.7381H79.3078V12.6381ZM79.3405 12.6381V12.7381H79.4482L79.4403 12.6307L79.3405 12.6381ZM79.3037 11.9302L79.2038 11.935L79.2038 11.935L79.3037 11.9302ZM79.2832 11.0709L79.3832 11.0741V11.0709H79.2832ZM79.2832 7.63791V7.53791H79.1832V7.63791H79.2832ZM79.9338 7.63791H80.0338V7.53791H79.9338V7.63791ZM79.9338 13.5201H79.14V13.7201H79.9338V13.5201ZM79.2238 13.5655L75.9545 8.54491L75.7869 8.65405L79.0562 13.6747L79.2238 13.5655ZM75.8707 8.49948H75.838V8.69948H75.8707V8.49948ZM75.7382 8.60687C75.7817 9.19411 75.8034 9.73172 75.8034 10.2198H76.0034C76.0034 9.72592 75.9815 9.1833 75.9377 8.5921L75.7382 8.60687ZM75.8034 10.2198V13.6201H76.0034V10.2198H75.8034ZM75.9034 13.5201H75.261V13.7201H75.9034V13.5201ZM75.361 13.6201V7.63791H75.161V13.6201H75.361ZM75.261 7.73791H76.0466V7.53791H75.261V7.73791ZM75.9629 7.69254L79.224 12.6927L79.3916 12.5835L76.1304 7.58328L75.9629 7.69254ZM79.3078 12.7381H79.3405V12.5381H79.3078V12.7381ZM79.4403 12.6307C79.4349 12.5587 79.4227 12.3244 79.4036 11.9254L79.2038 11.935C79.2229 12.3325 79.2352 12.5702 79.2408 12.6455L79.4403 12.6307ZM79.4036 11.9254C79.3845 11.5246 79.3779 11.2416 79.3832 11.0741L79.1833 11.0678C79.1777 11.2439 79.1847 11.5339 79.2038 11.935L79.4036 11.9254ZM79.3832 11.0709V7.63791H79.1832V11.0709H79.3832ZM79.2832 7.73791H79.9338V7.53791H79.2832V7.73791ZM79.8338 7.63791V13.6201H80.0338V7.63791H79.8338Z" fill="white"/>
<path d="M68.3042 21.7499C67.4616 21.7519 66.6386 22.0037 65.9391 22.4734C65.2397 22.9432 64.6952 23.6098 64.3746 24.3889C64.054 25.1681 63.9717 26.0248 64.138 26.8508C64.3043 27.6768 64.7118 28.4349 65.309 29.0293C65.9061 29.6236 66.6662 30.0276 67.4929 30.19C68.3196 30.3524 69.176 30.2661 69.9536 29.9418C70.7313 29.6175 71.3953 29.07 71.8618 28.3683C72.3282 27.6667 72.5761 26.8425 72.5742 25.9999C72.5823 25.4379 72.4773 24.8799 72.2653 24.3593C72.0534 23.8386 71.7388 23.366 71.3404 22.9694C70.942 22.5729 70.4679 22.2606 69.9463 22.051C69.4246 21.8415 68.8662 21.7391 68.3042 21.7499V21.7499ZM68.3042 28.5799C67.7877 28.616 67.2724 28.496 66.8251 28.2353C66.3779 27.9747 66.0193 27.5855 65.7962 27.1184C65.573 26.6512 65.4956 26.1278 65.5738 25.6161C65.6521 25.1043 65.8825 24.628 66.2351 24.249C66.5877 23.8699 67.0462 23.6057 67.5509 23.4907C68.0557 23.3757 68.5833 23.4152 69.0653 23.604C69.5474 23.7929 69.9614 24.1223 70.2537 24.5496C70.5459 24.9769 70.7029 25.4822 70.7042 25.9999C70.7203 26.3279 70.6705 26.6559 70.5579 26.9643C70.4453 27.2728 70.272 27.5556 70.0483 27.7961C69.8246 28.0366 69.5551 28.2298 69.2555 28.3644C68.956 28.499 68.6325 28.5723 68.3042 28.5799ZM58.9842 21.7499C58.1416 21.7519 57.3186 22.0037 56.6191 22.4734C55.9197 22.9432 55.3752 23.6098 55.0546 24.3889C54.734 25.1681 54.6517 26.0248 54.818 26.8508C54.9843 27.6768 55.3918 28.4349 55.989 29.0293C56.5861 29.6236 57.3462 30.0276 58.1729 30.19C58.9996 30.3524 59.856 30.2661 60.6336 29.9418C61.4113 29.6175 62.0753 29.07 62.5418 28.3683C63.0082 27.6667 63.2561 26.8425 63.2542 25.9999C63.2623 25.4379 63.1573 24.8799 62.9453 24.3593C62.7334 23.8386 62.4188 23.366 62.0204 22.9694C61.622 22.5729 61.1479 22.2606 60.6263 22.051C60.1046 21.8415 59.5462 21.7391 58.9842 21.7499V21.7499ZM58.9842 28.5799C58.4677 28.616 57.9524 28.496 57.5051 28.2353C57.0579 27.9747 56.6993 27.5855 56.4762 27.1184C56.253 26.6512 56.1756 26.1278 56.2538 25.6161C56.3321 25.1043 56.5625 24.628 56.9151 24.249C57.2677 23.8699 57.7262 23.6057 58.2309 23.4907C58.7357 23.3757 59.2633 23.4152 59.7453 23.604C60.2274 23.7929 60.6414 24.1223 60.9337 24.5496C61.2259 24.9769 61.3829 25.4822 61.3842 25.9999C61.4003 26.3279 61.3505 26.6559 61.2379 26.9643C61.1253 27.2728 60.952 27.5556 60.7283 27.7961C60.5046 28.0366 60.2351 28.2298 59.9355 28.3644C59.636 28.499 59.3125 28.5723 58.9842 28.5799ZM47.9042 23.0599V24.8599H52.2242C52.1564 25.7077 51.804 26.5077 51.2242 27.1299C50.7908 27.5714 50.2696 27.9171 49.6943 28.1444C49.1189 28.3718 48.5023 28.4759 47.8842 28.4499C46.6111 28.4499 45.3902 27.9442 44.49 27.044C43.5899 26.1439 43.0842 24.923 43.0842 23.6499C43.0842 22.3769 43.5899 21.156 44.49 20.2558C45.3902 19.3556 46.6111 18.8499 47.8842 18.8499C49.1046 18.8318 50.2831 19.2952 51.1642 20.1399L52.4342 18.8699C51.8381 18.2804 51.1305 17.8158 50.3526 17.5033C49.5748 17.1908 48.7424 17.0366 47.9042 17.0499C47.0152 17.0153 46.1283 17.1605 45.2968 17.4769C44.4652 17.7932 43.7061 18.2742 43.0649 18.8909C42.4237 19.5077 41.9136 20.2475 41.5652 21.0661C41.2167 21.8847 41.0371 22.7652 41.0371 23.6549C41.0371 24.5446 41.2167 25.4251 41.5652 26.2437C41.9136 27.0623 42.4237 27.8022 43.0649 28.4189C43.7061 29.0357 44.4652 29.5166 45.2968 29.833C46.1283 30.1493 47.0152 30.2945 47.9042 30.2599C48.7596 30.2941 49.6126 30.1469 50.4071 29.8281C51.2016 29.5092 51.9197 29.0259 52.5142 28.4099C53.5643 27.2563 54.1238 25.7391 54.0742 24.1799C54.0777 23.8046 54.0476 23.4298 53.9842 23.0599H47.9042ZM93.2142 24.4599C92.9534 23.6927 92.4657 23.0227 91.8157 22.5388C91.1657 22.0548 90.384 21.7797 89.5742 21.7499C89.0272 21.7489 88.4857 21.86 87.9834 22.0765C87.481 22.2929 87.0284 22.6101 86.6535 23.0085C86.2786 23.4068 85.9894 23.8778 85.8038 24.3923C85.6181 24.9068 85.54 25.454 85.5742 25.9999C85.5656 26.9128 85.8526 27.8039 86.3923 28.5402C86.932 29.2765 87.6953 29.8184 88.5684 30.0851C89.4415 30.3517 90.3774 30.3288 91.2364 30.0196C92.0953 29.7105 92.8312 29.1318 93.3342 28.3699L91.8842 27.3699C91.668 27.7302 91.3614 28.0277 90.9948 28.2329C90.6282 28.4382 90.2143 28.544 89.7942 28.5399C89.3607 28.5578 88.932 28.4442 88.5644 28.214C88.1967 27.9837 87.9073 27.6477 87.7342 27.2499L93.4242 24.8999L93.2142 24.4599ZM87.4142 25.8799C87.3939 25.5693 87.4358 25.2578 87.5374 24.9635C87.6391 24.6693 87.7984 24.3983 88.0061 24.1664C88.2137 23.9346 88.4656 23.7464 88.7469 23.6131C89.0281 23.4798 89.3332 23.4039 89.6442 23.3899C89.9664 23.3703 90.2872 23.4461 90.5665 23.608C90.8458 23.7699 91.0711 24.0106 91.2142 24.2999L87.4142 25.8799ZM82.7942 29.9999H84.6642V17.4999H82.7942V29.9999ZM79.7342 22.6999H79.6642C79.3848 22.3818 79.04 22.1277 78.6534 21.9551C78.2668 21.7825 77.8475 21.6955 77.4242 21.6999C76.3313 21.7529 75.3008 22.2243 74.5461 23.0165C73.7915 23.8087 73.3705 24.8608 73.3705 25.9549C73.3705 27.049 73.7915 28.1012 74.5461 28.8933C75.3008 29.6855 76.3313 30.1569 77.4242 30.2099C77.8481 30.2184 78.2687 30.1332 78.656 29.9603C79.0432 29.7875 79.3874 29.5312 79.6642 29.2099H79.7342V29.8199C79.7342 31.4499 78.8642 32.3199 77.4642 32.3199C76.9965 32.3096 76.5424 32.1606 76.1596 31.8918C75.7768 31.6229 75.4825 31.2464 75.3142 30.8099L73.6942 31.4799C73.9937 32.2322 74.5144 32.8758 75.1876 33.3258C75.8607 33.7757 76.6546 34.0108 77.4642 33.9999C79.6542 33.9999 81.4642 32.7099 81.4642 29.5699V21.9999H79.7342V22.6999ZM77.5842 28.5799C76.929 28.5391 76.314 28.25 75.8645 27.7716C75.4149 27.2932 75.1647 26.6614 75.1647 26.0049C75.1647 25.3485 75.4149 24.7167 75.8645 24.2383C76.314 23.7598 76.929 23.4708 77.5842 23.4299C77.9044 23.4437 78.2186 23.5218 78.508 23.6596C78.7975 23.7973 79.0562 23.9918 79.269 24.2316C79.4817 24.4714 79.644 24.7515 79.7462 25.0553C79.8485 25.3591 79.8886 25.6803 79.8642 25.9999C79.8914 26.3206 79.8534 26.6435 79.7523 26.9491C79.6513 27.2546 79.4893 27.5365 79.2761 27.7777C79.063 28.0189 78.8032 28.2143 78.5124 28.3522C78.2215 28.4901 77.9058 28.5676 77.5842 28.5799V28.5799ZM101.974 17.4999H97.4942V29.9999H99.3642V25.2599H101.974C102.507 25.2982 103.042 25.2263 103.546 25.0487C104.05 24.871 104.512 24.5915 104.903 24.2274C105.294 23.8634 105.606 23.4227 105.82 22.9328C106.033 22.4428 106.143 21.9142 106.143 21.3799C106.143 20.8456 106.033 20.317 105.82 19.8271C105.606 19.3372 105.294 18.8965 104.903 18.5324C104.512 18.1684 104.05 17.8888 103.546 17.7112C103.042 17.5336 102.507 17.4616 101.974 17.4999V17.4999ZM101.974 23.4999H99.3642V19.2399H102.014C102.295 19.2399 102.573 19.2953 102.833 19.4028C103.093 19.5104 103.329 19.668 103.527 19.8667C103.726 20.0654 103.884 20.3013 103.991 20.561C104.099 20.8206 104.154 21.0989 104.154 21.3799C104.154 21.661 104.099 21.9392 103.991 22.1989C103.884 22.4585 103.726 22.6944 103.527 22.8931C103.329 23.0918 103.093 23.2495 102.833 23.357C102.573 23.4646 102.295 23.5199 102.014 23.5199L101.974 23.4999ZM113.514 21.7099C112.833 21.6679 112.155 21.8265 111.563 22.1659C110.971 22.5054 110.492 23.0109 110.184 23.6199L111.834 24.3099C112.001 24.0093 112.251 23.7634 112.555 23.602C112.858 23.4405 113.202 23.3703 113.544 23.3999C113.782 23.3722 114.022 23.392 114.252 23.4582C114.481 23.5245 114.696 23.6358 114.882 23.7856C115.068 23.9355 115.222 24.1209 115.336 24.3311C115.45 24.5413 115.521 24.7721 115.544 25.0099V25.1299C114.943 24.8138 114.274 24.6491 113.594 24.6499C111.814 24.6499 109.994 25.6499 109.994 27.4699C110.012 27.8568 110.107 28.2361 110.274 28.5855C110.441 28.9348 110.677 29.247 110.967 29.5035C111.257 29.7601 111.596 29.9557 111.963 30.0787C112.33 30.2018 112.718 30.2498 113.104 30.2199C113.573 30.2459 114.041 30.1466 114.459 29.9322C114.878 29.7178 115.231 29.3961 115.484 28.9999H115.544V29.9999H117.344V25.1899C117.344 22.9999 115.684 21.7299 113.554 21.7299L113.514 21.7099ZM113.284 28.5599C112.674 28.5599 111.824 28.2499 111.824 27.4999C111.824 26.4999 112.884 26.1599 113.824 26.1599C114.418 26.1453 115.005 26.2903 115.524 26.5799C115.461 27.123 115.204 27.6249 114.799 27.9926C114.395 28.3604 113.871 28.569 113.324 28.5799L113.284 28.5599ZM123.904 21.9999L121.764 27.4199H121.704L119.484 21.9999H117.484L120.814 29.5799L118.914 33.7899H120.864L125.984 21.9999H123.904ZM107.104 29.9999H108.964V17.4999H107.104V29.9999Z" fill="white"/>
<path d="M20.8839 19.4199L10.2339 30.7199C10.3502 31.1473 10.5633 31.5423 10.8565 31.8742C11.1498 32.2062 11.5154 32.4663 11.9252 32.6345C12.335 32.8026 12.778 32.8744 13.2199 32.8441C13.6618 32.8138 14.0909 32.6824 14.4739 32.4599L26.4739 25.5399L20.8839 19.4199Z" fill="#EA4335"/>
<path d="M31.6543 17.5L26.4743 14.5L20.6543 19.69L26.4943 25.54L31.6443 22.54C32.1021 22.2948 32.4848 21.93 32.7516 21.4845C33.0184 21.0389 33.1593 20.5293 33.1593 20.01C33.1593 19.4907 33.0184 18.9811 32.7516 18.5355C32.4848 18.09 32.1021 17.7252 31.6443 17.48L31.6543 17.5Z" fill="#FBBC04"/>
<path d="M10.2341 9.28027C10.1812 9.51648 10.1577 9.75831 10.1641 10.0003V30.0003C10.1659 30.2502 10.1995 30.4989 10.2641 30.7403L21.2641 19.7403L10.2341 9.28027Z" fill="#4285F4"/>
<path d="M20.9641 19.9996L26.4741 14.4896L14.4741 7.54965C14.0233 7.28165 13.5086 7.14002 12.9841 7.13965C12.3515 7.14146 11.7369 7.35082 11.2347 7.73558C10.7325 8.12035 10.3705 8.65927 10.2041 9.26965L20.9641 19.9996Z" fill="#34A853"/>
</g>
<defs>
<clipPath id="clip0_1062_17073">
<rect width="135" height="40" fill="white" transform="translate(0.164062)"/>
</clipPath>
</defs>
</svg>
