<svg width="20" height="20" viewBox="0 0 20 20" fill="none" xmlns="http://www.w3.org/2000/svg">
<g clip-path="url(#clip0_186_5540)">
<path fill-rule="evenodd" clip-rule="evenodd" d="M10.0024 2.50114C7.01089 2.50114 4.58576 4.92626 4.58576 7.91781C4.58576 10.9093 7.01089 13.3345 10.0024 13.3345C12.994 13.3345 15.4191 10.9093 15.4191 7.91781C15.4191 4.92626 12.994 2.50114 10.0024 2.50114ZM2.9191 7.91781C2.9191 4.00579 6.09041 0.834473 10.0024 0.834473C13.9144 0.834473 17.0858 4.00579 17.0858 7.91781C17.0858 9.87822 16.2894 11.6526 15.0024 12.9351V18.3345C15.0024 18.611 14.8653 18.8695 14.6363 19.0245C14.4073 19.1796 14.1163 19.2109 13.8596 19.1082L10.0024 17.5653L6.14526 19.1082C5.88851 19.2109 5.59755 19.1796 5.36857 19.0245C5.1396 18.8695 5.00243 18.611 5.00243 18.3345V12.9351C3.7155 11.6526 2.9191 9.87822 2.9191 7.91781ZM6.6691 14.1694V17.1036L9.44534 15.9931C9.45054 15.991 9.45652 15.9886 9.46324 15.9859C9.5289 15.9591 9.6645 15.9038 9.81291 15.881C9.93852 15.8618 10.0663 15.8618 10.192 15.881C10.3404 15.9038 10.476 15.9591 10.5416 15.9859C10.5483 15.9886 10.5543 15.991 10.5595 15.9931L13.3358 17.1036V14.1694C12.3423 14.7002 11.2075 15.0011 10.0024 15.0011C8.79735 15.0011 7.66256 14.7002 6.6691 14.1694Z" fill="#FCFCFF"/>
</g>
<defs>
<clipPath id="clip0_186_5540">
<rect width="20" height="20" fill="white"/>
</clipPath>
</defs>
</svg>
