<svg width="20" height="20" viewBox="0 0 20 20" fill="none" xmlns="http://www.w3.org/2000/svg">
<g clip-path="url(#clip0_186_5548)">
<path fill-rule="evenodd" clip-rule="evenodd" d="M5.6347 2.50098H14.3702C15.041 2.50097 15.5946 2.50096 16.0456 2.53781C16.514 2.57608 16.9446 2.65821 17.3491 2.86429C17.9763 3.18387 18.4862 3.6938 18.8058 4.32101C19.0047 4.7113 19.0881 5.12593 19.1281 5.5754C19.1727 5.71156 19.1805 5.85518 19.154 5.99231C19.1691 6.3674 19.1691 6.80127 19.1691 7.29987V12.7021C19.1691 13.3729 19.1691 13.9265 19.1323 14.3775C19.094 14.8459 19.0119 15.2765 18.8058 15.6809C18.4862 16.3082 17.9763 16.8181 17.3491 17.1377C16.9446 17.3437 16.514 17.4259 16.0456 17.4641C15.5946 17.501 15.041 17.501 14.3702 17.501H5.63468C4.96388 17.501 4.41025 17.501 3.95926 17.4641C3.49084 17.4259 3.06026 17.3437 2.65581 17.1377C2.02861 16.8181 1.51867 16.3082 1.19909 15.6809C0.993016 15.2765 0.910879 14.8459 0.872608 14.3775C0.83576 13.9265 0.835769 13.3729 0.83578 12.7021V7.29989C0.835772 6.80128 0.835765 6.36741 0.850894 5.99231C0.824431 5.85518 0.832241 5.71155 0.876793 5.57539C0.916783 5.12592 1.00023 4.71129 1.19909 4.32101C1.51867 3.6938 2.0286 3.18387 2.65581 2.86429C3.06026 2.65821 3.49084 2.57608 3.95926 2.53781C4.41025 2.50096 4.96389 2.50097 5.6347 2.50098ZM2.50245 7.43486V12.6676C2.50245 12.987 2.50258 13.2606 2.50546 13.499L6.2866 10.0838L2.50245 7.43486ZM8.08451 9.30787L2.57142 5.44871C2.60119 5.27608 2.63992 5.16436 2.6841 5.07766C2.84389 4.76406 3.09886 4.50909 3.41246 4.3493C3.5428 4.28289 3.72963 4.22879 4.09498 4.19894C4.47005 4.16829 4.9553 4.16764 5.66911 4.16764H14.3358C15.0496 4.16764 15.5348 4.16829 15.9099 4.19894C16.2753 4.22879 16.4621 4.28289 16.5924 4.3493C16.906 4.50909 17.161 4.76406 17.3208 5.07766C17.365 5.16436 17.4037 5.27608 17.4335 5.44871L11.9204 9.30786C11.9108 9.3143 11.9012 9.32097 11.8918 9.32786L11.0538 9.91449C10.4463 10.3397 10.3176 10.4135 10.204 10.4418C10.0717 10.4748 9.93324 10.4748 9.80089 10.4418C9.68725 10.4135 9.55855 10.3397 8.9511 9.91449L8.11304 9.32784C8.10364 9.32097 8.09413 9.31431 8.08451 9.30787ZM7.68744 11.0644L2.97005 15.3252C3.09758 15.4573 3.24684 15.5683 3.41246 15.6527C3.5428 15.7191 3.72963 15.7732 4.09498 15.803C4.47005 15.8337 4.9553 15.8343 5.66911 15.8343H14.3358C15.0496 15.8343 15.5348 15.8337 15.9099 15.803C16.2753 15.7732 16.4621 15.7191 16.5924 15.6527C16.758 15.5683 16.9073 15.4573 17.0348 15.3252L12.3175 11.0644L12.0096 11.2799C11.9772 11.3025 11.9452 11.325 11.9135 11.3473C11.4596 11.666 11.061 11.9458 10.6071 12.059C10.2101 12.158 9.79482 12.158 9.39778 12.059C8.94387 11.9458 8.54533 11.666 8.09145 11.3473C8.05969 11.325 8.02766 11.3025 7.99533 11.2799L7.68744 11.0644ZM13.7183 10.0838L17.4994 13.499C17.5023 13.2606 17.5024 12.987 17.5024 12.6676V7.43486L13.7183 10.0838Z" fill="#FCFCFF"/>
</g>
<defs>
<clipPath id="clip0_186_5548">
<rect width="20" height="20" fill="white"/>
</clipPath>
</defs>
</svg>
