<svg width="20" height="20" viewBox="0 0 20 20" fill="none" xmlns="http://www.w3.org/2000/svg">
<g clip-path="url(#clip0_186_5532)">
<path fill-rule="evenodd" clip-rule="evenodd" d="M8.887 1.66773H11.1179C11.5572 1.66771 11.9362 1.6677 12.2483 1.6932C12.5778 1.72012 12.9054 1.77955 13.2208 1.94021C13.6912 2.17989 14.0736 2.56235 14.3133 3.03275C14.474 3.34807 14.5334 3.67575 14.5603 4.0052C14.5858 4.31735 14.5858 4.69633 14.5858 5.13562V8.33439L16.1957 8.33439C16.406 8.33437 16.6108 8.33434 16.7843 8.34851C16.9748 8.36408 17.1996 8.4008 17.4258 8.51605C17.7394 8.67584 17.9943 8.93081 18.1541 9.24441C18.2694 9.47059 18.3061 9.69537 18.3217 9.88587C18.3358 10.0593 18.3358 10.2641 18.3358 10.4745L18.3358 16.6677C18.796 16.6677 19.1691 17.0408 19.1691 17.5011C19.1691 17.9613 18.796 18.3344 18.3358 18.3344H1.66912C1.20888 18.3344 0.835785 17.9613 0.835785 17.5011C0.835785 17.0408 1.20888 16.6677 1.66912 16.6677L1.66912 10.4745C1.66909 10.2642 1.66907 10.0593 1.68324 9.88587C1.6988 9.69537 1.73553 9.47059 1.85077 9.24441C2.01056 8.9308 2.26553 8.67584 2.57913 8.51605C2.80532 8.4008 3.0301 8.36408 3.22059 8.34851C3.39406 8.33434 3.59888 8.33437 3.8092 8.33439C3.81805 8.33439 3.82692 8.33439 3.83578 8.33439H5.41912L5.41912 5.13561C5.4191 4.69632 5.41909 4.31735 5.44459 4.0052C5.47151 3.67575 5.53094 3.34807 5.6916 3.03275C5.93128 2.56234 6.31374 2.17989 6.78414 1.94021C7.09946 1.77955 7.42714 1.72012 7.75659 1.6932C8.06874 1.6677 8.44771 1.66771 8.887 1.66773ZM5.41912 10.0011H3.83578C3.58868 10.0011 3.45347 10.0017 3.35631 10.0096C3.35244 10.01 3.34878 10.0103 3.34532 10.0106C3.34501 10.0141 3.34469 10.0177 3.34437 10.0216C3.33643 10.1187 3.33578 10.254 3.33578 10.5011V16.6677H5.41912V10.0011ZM7.08578 16.6677V5.16773C7.08578 4.68727 7.08643 4.37704 7.10572 4.14092C7.12422 3.91454 7.15562 3.8306 7.17661 3.7894C7.25651 3.6326 7.38399 3.50512 7.54079 3.42522C7.582 3.40423 7.66593 3.37283 7.89231 3.35433C8.12843 3.33504 8.43866 3.33439 8.91912 3.33439H11.0858C11.5662 3.33439 11.8765 3.33504 12.1126 3.35433C12.339 3.37283 12.4229 3.40423 12.4641 3.42522C12.6209 3.50512 12.7484 3.6326 12.8283 3.7894C12.8493 3.8306 12.8807 3.91454 12.8992 4.14092C12.9185 4.37704 12.9191 4.68726 12.9191 5.16773V16.6677H7.08578ZM14.5858 16.6677H16.6691V10.5011C16.6691 10.254 16.6685 10.1187 16.6605 10.0216C16.6602 10.0177 16.6599 10.0141 16.6596 10.0106C16.6561 10.0103 16.6525 10.01 16.6486 10.0096C16.5514 10.0017 16.4162 10.0011 16.1691 10.0011H14.5858V16.6677ZM8.33578 5.83439C8.33578 5.37416 8.70888 5.00106 9.16912 5.00106H10.8358C11.296 5.00106 11.6691 5.37416 11.6691 5.83439C11.6691 6.29463 11.296 6.66773 10.8358 6.66773H9.16912C8.70888 6.66773 8.33578 6.29463 8.33578 5.83439ZM8.33578 9.16773C8.33578 8.70749 8.70888 8.33439 9.16912 8.33439H10.8358C11.296 8.33439 11.6691 8.70749 11.6691 9.16773C11.6691 9.62796 11.296 10.0011 10.8358 10.0011H9.16912C8.70888 10.0011 8.33578 9.62796 8.33578 9.16773ZM8.33578 12.5011C8.33578 12.0408 8.70888 11.6677 9.16912 11.6677H10.8358C11.296 11.6677 11.6691 12.0408 11.6691 12.5011C11.6691 12.9613 11.296 13.3344 10.8358 13.3344H9.16912C8.70888 13.3344 8.33578 12.9613 8.33578 12.5011Z" fill="#FCFCFF"/>
</g>
<defs>
<clipPath id="clip0_186_5532">
<rect width="20" height="20" fill="white"/>
</clipPath>
</defs>
</svg>
