<svg width="582" height="670" viewBox="0 0 582 670" fill="none" xmlns="http://www.w3.org/2000/svg">
<g style="mix-blend-mode:soft-light" opacity="0.8">
<path d="M435.763 369.634L480.475 670H400.513L396.617 616.012H368.603L363.964 670H283.075L322.778 369.634H435.763ZM394.391 562.766C390.433 528.753 386.475 486.762 382.517 436.794C374.601 494.183 369.654 536.174 367.675 562.766H394.391Z" fill="#001E51" fill-opacity="0.7"/>
<path d="M119.1 369.634H251.38V429.744H197.206V486.701H245.443V543.842H197.206V670H119.1V369.634Z" fill="#001E51" fill-opacity="0.7"/>
<path d="M495.457 54.1517L494.294 74.4171C499.167 66.3331 505.091 60.2978 512.068 56.3111C519.155 52.2137 527.295 50.165 536.486 50.165C548.003 50.165 557.416 52.8782 564.725 58.3044C572.034 63.7307 576.74 70.5966 578.844 78.9021C580.948 87.0969 582 100.829 582 120.097V274.58H514.892V121.925C514.892 106.753 514.393 97.5064 513.397 94.1842C512.4 90.862 509.632 89.2009 505.091 89.2009C500.329 89.2009 497.339 91.1389 496.121 95.0148C494.903 98.78 494.294 108.968 494.294 125.579V274.58H427.186V54.1517H495.457Z" fill="#001E51" fill-opacity="0.7"/>
<path d="M409.903 54.1523V274.581H341.632L342.794 256.308C338.143 263.728 332.385 269.32 325.519 273.086C318.764 276.74 310.957 278.567 302.097 278.567C292.02 278.567 283.659 276.795 277.015 273.252C270.37 269.708 265.442 265.002 262.231 259.132C259.13 253.263 257.192 247.172 256.417 240.86C255.642 234.437 255.254 221.758 255.254 202.821V54.1523H322.363V204.15C322.363 221.315 322.861 231.503 323.858 234.714C324.965 237.926 327.845 239.531 332.496 239.531C337.479 239.531 340.414 237.87 341.299 234.548C342.296 231.226 342.794 220.539 342.794 202.489V54.1523H409.903Z" fill="#001E51" fill-opacity="0.7"/>
<path d="M237.142 87.0418H172.193V67.1085C172.193 57.8064 171.362 51.8818 169.701 49.3347C168.04 46.7877 165.272 45.5142 161.396 45.5142C157.188 45.5142 153.976 47.2307 151.761 50.6636C149.657 54.0966 148.605 59.3013 148.605 66.278C148.605 75.2479 149.823 82.0031 152.26 86.5434C154.585 91.0838 161.174 96.5654 172.027 102.988C203.145 121.482 222.746 136.653 230.83 148.503C238.914 160.352 242.956 179.454 242.956 205.811C242.956 224.969 240.686 239.088 236.145 248.169C231.716 257.249 223.078 264.89 210.232 271.092C197.386 277.183 182.436 280.228 165.382 280.228C146.667 280.228 130.665 276.684 117.376 269.597C104.198 262.51 95.5606 253.484 91.4632 242.521C87.3658 231.558 85.3171 215.999 85.3171 195.844V178.236H150.266V210.96C150.266 221.037 151.152 227.516 152.924 230.395C154.807 233.274 158.073 234.714 162.725 234.714C167.376 234.714 170.809 232.887 173.023 229.232C175.349 225.578 176.512 220.151 176.512 212.953C176.512 197.117 174.352 186.763 170.033 181.891C165.604 177.018 154.696 168.879 137.31 157.472C119.923 145.956 108.406 137.595 102.759 132.39C97.111 127.185 92.4045 119.987 88.6394 110.796C84.9849 101.604 83.1577 89.8656 83.1577 75.5801C83.1577 54.9825 85.7601 39.9218 90.9649 30.3982C96.2804 20.8745 104.807 13.4549 116.546 8.1394C128.284 2.71313 142.459 0 159.07 0C177.231 0 192.68 2.93461 205.415 8.80384C218.261 14.6731 226.732 22.0927 230.83 31.0626C235.038 39.9218 237.142 55.0379 237.142 76.4107V87.0418Z" fill="#001E51" fill-opacity="0.7"/>
<path d="M69.5301 5.64746V40.6967H0.428223V5.64746H69.5301ZM69.5301 54.1516V274.58H0.428223V54.1516H69.5301Z" fill="#001E51" fill-opacity="0.7"/>
</g>
</svg>
