<svg width="20" height="20" viewBox="0 0 20 20" fill="#F4F5F7" xmlns="http://www.w3.org/2000/svg">
<g id="wrapper">
<g id="Union">
<path fill-rule="evenodd" clip-rule="evenodd" d="M4.43691 3.04153C4.85558 2.76904 5.41499 2.71805 5.90881 3.01293L15.5928 8.80888C16.0479 9.08116 16.2521 9.56125 16.2521 10.0011C16.2521 10.4409 16.048 10.921 15.5929 11.1932L5.90935 16.9889C5.41553 17.2838 4.85558 17.2332 4.43691 16.9607C4.02351 16.6916 3.75244 16.215 3.75244 15.6652V4.33704C3.75244 3.78718 4.02351 3.31058 4.43691 3.04153ZM5.11876 4.08918C5.0634 4.12521 5.00244 4.20564 5.00244 4.33704V15.6652C5.00244 15.7966 5.0634 15.877 5.11876 15.913C5.14688 15.9313 5.17245 15.9379 5.19223 15.9386C5.20967 15.9393 5.23427 15.9362 5.26795 15.9161L14.9511 10.1206C14.9694 10.1097 15.0021 10.0755 15.0021 10.0011C15.0021 9.92673 14.9694 9.89253 14.9511 9.8816L5.26795 4.08614C5.23435 4.06612 5.20965 4.0629 5.19223 4.06356C5.17245 4.06431 5.14688 4.07088 5.11876 4.08918Z" />
<path fill-rule="evenodd" clip-rule="evenodd" d="M15.6274 2.5011C15.9726 2.5011 16.2524 2.78092 16.2524 3.1261V16.8761C16.2524 17.2213 15.9726 17.5011 15.6274 17.5011C15.2823 17.5011 15.0024 17.2213 15.0024 16.8761V3.1261C15.0024 2.78092 15.2823 2.5011 15.6274 2.5011Z" />
</g>
</g>
</svg>
