<svg width="17" height="16" viewBox="0 0 17 16" fill="none" xmlns="http://www.w3.org/2000/svg">
<g id="icon-wrapper">
<path id="Union" fill-rule="evenodd" clip-rule="evenodd" d="M9.09716 2.06767C9.85255 1.33809 10.8643 0.934385 11.9144 0.943511C12.9646 0.952636 13.9691 1.37386 14.7117 2.11646C15.4543 2.85905 15.8756 3.86361 15.8847 4.91376C15.8938 5.96391 15.4901 6.97564 14.7605 7.73103L14.7515 7.7404L14.7514 7.74032L12.7984 9.69335C12.7983 9.69338 12.7983 9.69341 12.7983 9.69345C12.3922 10.0996 11.9036 10.4137 11.3656 10.6144C10.8275 10.8151 10.2525 10.8978 9.67962 10.8567C9.10677 10.8157 8.54943 10.652 8.04542 10.3766C7.54141 10.1012 7.10252 9.72069 6.75851 9.26079C6.5104 8.9291 6.57816 8.45908 6.90985 8.21098C7.24154 7.96287 7.71155 8.03063 7.95966 8.36232C8.17483 8.64998 8.44935 8.888 8.7646 9.06024C9.07985 9.23248 9.42846 9.3349 9.78678 9.36056C10.1451 9.38622 10.5047 9.33452 10.8413 9.20897C11.1779 9.08342 11.4835 8.88694 11.7375 8.63288L11.7376 8.63279L13.6858 6.68458C14.1395 6.21257 14.3904 5.58163 14.3847 4.9268C14.379 4.26994 14.1156 3.6416 13.6511 3.17712C13.1866 2.71263 12.5582 2.44916 11.9014 2.44345C11.2462 2.43776 10.615 2.68896 10.1429 3.14308L9.02718 4.25229C8.73344 4.54433 8.25857 4.54294 7.96653 4.2492C7.67449 3.95545 7.67588 3.48058 7.96962 3.18854L9.08941 2.07526L9.09711 2.06761L9.09716 2.06767ZM5.95676 5.70665C6.49486 5.50592 7.06984 5.42327 7.6427 5.4643C8.21556 5.50532 8.7729 5.66907 9.27691 5.94444C9.78092 6.2198 10.2198 6.60034 10.5638 7.06024C10.8119 7.39193 10.7442 7.86194 10.4125 8.11005C10.0808 8.35815 9.61078 8.29039 9.36267 7.95871C9.1475 7.67104 8.87298 7.43302 8.55772 7.26079C8.24247 7.08855 7.89387 6.98613 7.53555 6.96046C7.17723 6.9348 6.81759 6.9865 6.48101 7.11206C6.14443 7.23761 5.83879 7.43408 5.58482 7.68814L5.58473 7.68824L3.63652 9.63645C3.18284 10.1085 2.9319 10.7394 2.93759 11.3942C2.9433 12.0511 3.20677 12.6794 3.67126 13.1439C4.13574 13.6084 4.76408 13.8719 5.42094 13.8776C6.07576 13.8833 6.7067 13.6323 7.17871 13.1787L8.28708 12.0703C8.57998 11.7774 9.05485 11.7774 9.34774 12.0703C9.64064 12.3632 9.64064 12.838 9.34774 13.1309L8.23446 14.2442L8.22525 14.2534L8.22517 14.2534C7.46978 14.9829 6.45805 15.3866 5.4079 15.3775C4.35775 15.3684 3.35319 14.9472 2.6106 14.2046C1.868 13.462 1.44678 12.4574 1.43765 11.4073C1.42853 10.3571 1.83223 9.34539 2.56181 8.59L2.57086 8.58062L2.57094 8.5807L4.52397 6.62768C4.524 6.62764 4.52403 6.62761 4.52407 6.62758C4.93008 6.22144 5.41869 5.90737 5.95676 5.70665Z" fill="#314362"/>
</g>
</svg>
