<svg width="65" height="128" viewBox="0 0 65 128" fill="none" xmlns="http://www.w3.org/2000/svg">
<g id="padlock-square-1--combination-combo-lock-locked-padlock-secure-security-shield-keyhole">
<path id="Vector 1169 (Stroke)" fill-rule="evenodd" clip-rule="evenodd" d="M51.0011 18.2857C40.9022 18.2857 32.7154 26.4725 32.7154 36.5714V50.2857C32.7154 55.3351 28.622 59.4286 23.5725 59.4286C18.5231 59.4286 14.4297 55.3351 14.4297 50.2857V36.5714C14.4297 16.3736 30.8033 0 51.0011 0C71.199 0 87.5725 16.3736 87.5725 36.5714V50.2857C87.5725 55.3351 83.4793 59.4286 78.4297 59.4286C73.3803 59.4286 69.2868 55.3351 69.2868 50.2857V36.5714C69.2868 26.4725 61.1 18.2857 51.0011 18.2857Z" fill="#FFA502"/>
<path id="Rectangle 446" d="M0.714844 59.4285C0.714844 51.8543 6.85491 45.7142 14.4291 45.7142H87.5717C95.1466 45.7142 101.286 51.8543 101.286 59.4285V114.286C101.286 121.86 95.1466 128 87.5717 128H14.4291C6.85491 128 0.714844 121.86 0.714844 114.286V59.4285Z" fill="#002462"/>
<path id="Ellipse 367" d="M51.0008 98.2857C57.3127 98.2857 62.4294 93.169 62.4294 86.8572C62.4294 80.5453 57.3127 75.4286 51.0008 75.4286C44.689 75.4286 39.5723 80.5453 39.5723 86.8572C39.5723 93.169 44.689 98.2857 51.0008 98.2857Z" fill="#FFA502"/>
</g>
</svg>
