<svg width="154" height="41" viewBox="0 0 154 41" fill="none" xmlns="http://www.w3.org/2000/svg">
<g clip-path="url(#clip0_109_220955)">
<path d="M70.3498 19.5783C64.9093 19.2162 62.2954 15.5317 62.2954 15.5317C62.2954 15.5317 65.4981 15.5317 69.5847 15.5375C69.6229 15.5375 69.6494 15.5258 69.6772 15.4983C69.7037 15.475 69.7184 15.4444 69.7184 15.411V13.8682C69.7184 13.8348 69.7023 13.8028 69.6772 13.7795C69.6509 13.7563 69.6185 13.7431 69.573 13.7431H69.5716C69.0561 13.7417 60.8623 13.733 60.8623 13.733C60.8623 13.733 61.1412 12.766 61.1589 12.3793C61.1603 12.3589 61.1633 12.3429 61.1501 12.324C61.1354 12.3066 61.1104 12.2949 61.0855 12.2949H59.197C59.1647 12.2949 59.128 12.3095 59.1265 12.3372C59.0487 13.1644 58.7535 13.7476 58.7535 13.7476C58.7535 13.7476 51.3027 13.7504 50.7344 13.7476C50.6977 13.7476 50.6669 13.7548 50.6404 13.7781C50.614 13.8028 50.5993 13.8348 50.5993 13.8682V15.411C50.5993 15.4444 50.614 15.475 50.6389 15.4983C50.6654 15.523 50.7417 15.5215 50.7417 15.5215C51.5729 15.5244 57.802 15.5215 57.802 15.5215C57.802 15.5215 55.5274 18.7743 49.6991 19.7905C49.6654 19.7964 49.6418 19.8255 49.6418 19.8546V21.6402C49.6418 21.659 49.6507 21.6765 49.6683 21.6896C49.683 21.7012 49.7007 21.707 49.7182 21.707L49.7373 21.7056C57.1779 20.7284 60.1985 15.4997 60.1985 15.4997C60.1985 15.4997 62.6346 21.0353 70.247 21.6853C70.2603 21.6867 70.275 21.6881 70.3058 21.6925C70.3381 21.6925 70.3689 21.6823 70.3939 21.662C70.4276 21.6373 70.4453 21.6038 70.4453 21.5659V19.696C70.4453 19.6423 70.4071 19.5958 70.3498 19.5783Z" fill="white"/>
<path d="M49.983 11.4507C50.4206 11.4608 55.3957 11.4405 60.0683 11.4405C64.7863 11.4405 69.989 11.4434 70.2577 11.4521H70.2621C70.3003 11.4521 70.3341 11.4376 70.3605 11.4143C70.3854 11.3896 70.4002 11.359 70.4002 11.3256V9.78144C70.4002 9.74799 70.3854 9.716 70.3591 9.69274C70.3341 9.67093 70.2973 9.65639 70.2548 9.65639H70.2533C69.7086 9.6593 61.4191 9.65349 61.0668 9.65639C61.0726 9.13584 61.0608 8.45534 61.0668 7.98132C61.3208 7.98132 67.6953 7.98278 68.1432 7.98132C68.1784 7.98132 68.2107 7.98132 68.2371 7.9566C68.2621 7.93333 68.2768 7.9028 68.2768 7.86936V6.37459C68.2768 6.34115 68.2621 6.30916 68.2357 6.28589C68.2108 6.26408 68.1754 6.25099 68.1314 6.25099H68.1299C67.7012 6.25535 61.3208 6.25099 61.0668 6.25099C61.0653 5.62866 61.0624 5.03104 61.0668 4.59919C61.0815 4.59919 67.4795 4.59919 69.3547 4.59919C69.3796 4.59919 69.4192 4.59191 69.4516 4.56283C69.478 4.53957 69.4926 4.50759 69.4926 4.47414V2.94012C69.4926 2.90667 69.478 2.87468 69.4516 2.85141C69.4251 2.82814 69.3943 2.81652 69.3488 2.81652H69.3473C68.8876 2.81507 64.4354 2.81652 64.4354 2.81652C64.8319 2.15638 65.3692 1.24759 65.6057 0.860813C65.6748 0.748851 65.6248 0.606353 65.5015 0.559823C65.1593 0.431867 64.5382 0.194856 64.1813 0.0712609C64.0624 0.0305474 63.9317 0.0741693 63.8612 0.177407C63.4471 0.78811 62.0976 2.84269 62.0095 2.84269H58.6115C57.9654 1.99497 57.1181 0.767753 56.6438 0.165775C56.5674 0.0668991 56.4353 0.0305473 56.3164 0.075623C56.0374 0.181769 55.3604 0.440591 55.0344 0.559823C54.9007 0.609261 54.8508 0.769207 54.9345 0.884077C55.3531 1.44825 56.4089 2.81942 56.4089 2.81942C56.4089 2.81942 51.5909 2.8296 51.0358 2.81942C50.9991 2.81942 50.958 2.82814 50.9331 2.85141C50.9066 2.87468 50.8919 2.90667 50.8919 2.94012V4.47414C50.8919 4.50759 50.9066 4.53957 50.9315 4.56283C50.9653 4.59191 51.0035 4.59919 51.0358 4.59919H51.0373C52.4397 4.60355 59.1989 4.59919 59.1989 4.59919V6.24954C58.889 6.25827 52.6217 6.24518 52.077 6.24954C52.0432 6.25099 52.008 6.26262 51.9829 6.28589C51.9566 6.30916 51.9419 6.34115 51.9419 6.37459V7.86936C51.9419 7.9028 51.9551 7.93333 51.9815 7.9566C52.0065 7.98132 52.0402 7.9944 52.0828 7.9944H52.0843C52.5292 7.99877 58.9419 7.9944 59.1989 7.9944C59.2063 8.58329 59.2063 8.88428 59.1989 9.65784C57.8245 9.6593 50.494 9.65057 49.9771 9.65784C49.9418 9.65784 49.9096 9.66948 49.8831 9.69274C49.8567 9.716 49.842 9.74945 49.842 9.78289V11.3256C49.842 11.359 49.8552 11.3896 49.8817 11.4143C49.9081 11.4391 49.9418 11.4507 49.983 11.4507Z" fill="white"/>
<path d="M105.62 21.2301H125.945C126.068 21.2301 126.169 21.1312 126.169 21.0091V19.6364C126.169 19.5144 126.068 19.4154 125.945 19.4154H120.145L120.364 19.097C121.062 18.0806 121.464 17.07 121.673 16.4186C121.72 16.2776 121.611 16.1351 121.461 16.1351H119.997C119.902 16.1351 119.82 16.1918 119.788 16.2776C119.45 17.1835 118.822 18.4019 117.71 19.3645L117.653 19.4154H116.43V14.159H124.135C124.258 14.159 124.358 14.0601 124.358 13.9395V12.5654C124.358 12.4433 124.258 12.3458 124.135 12.3458H116.43V9.16726H120.946C121.069 9.16726 121.168 9.06839 121.168 8.94625V7.56344C121.168 7.56344 123.276 8.97387 126.101 9.72126C126.252 9.76197 126.405 9.67327 126.405 9.51623V8.11598C126.405 8.02728 126.355 7.94876 126.275 7.91387C124.117 7.20283 119.407 4.76292 116.611 0.162299C116.57 0.096866 116.499 0.0561523 116.421 0.0561523L114.898 0.0605145C114.831 0.0605145 114.761 0.0837794 114.725 0.141941C113.877 1.51167 110.889 5.90291 105.264 7.93858C105.183 7.96767 105.136 8.05055 105.136 8.13488L105.12 9.54822C105.12 9.70671 105.274 9.79251 105.427 9.75469C109.932 8.61472 114.553 4.21039 115.436 2.67636L115.604 2.48442L115.758 2.68944C117.356 5.0392 120.832 7.3526 120.832 7.3526H110.54C110.417 7.3526 110.318 7.45148 110.318 7.57362V8.94625C110.318 9.06839 110.417 9.16726 110.54 9.16726H114.598V12.3458H106.978C106.854 12.3458 106.756 12.4433 106.756 12.5654V13.9395C106.756 14.0601 106.854 14.159 106.978 14.159H114.598V19.4154H112.922L112.869 19.289C112.588 18.6085 112.069 17.5498 111.182 16.3096C111.104 16.2005 110.976 16.1351 110.841 16.1351H109.18C108.991 16.1351 108.891 16.3532 109.011 16.4972C109.714 17.3463 110.302 18.226 110.769 19.1174L110.925 19.4154H105.62C105.497 19.4154 105.398 19.5144 105.398 19.6364V21.0091C105.398 21.1312 105.497 21.2301 105.62 21.2301Z" fill="white"/>
<path d="M136.051 6.21024C136.051 6.0881 136.148 5.98923 136.269 5.98923H140.351C140.472 5.98923 140.568 6.0881 140.568 6.21024V7.29206C140.568 7.41419 140.472 7.51308 140.351 7.51308H136.269C136.148 7.51308 136.051 7.41419 136.051 7.29206V6.21024ZM142.149 9.17361C142.27 9.17361 142.367 9.07473 142.367 8.95404V4.55989C142.367 4.4392 142.27 4.34033 142.149 4.34033H134.476C134.357 4.34033 134.258 4.4392 134.258 4.55989V8.95404C134.258 9.07473 134.357 9.17361 134.476 9.17361" fill="white"/>
<path d="M132.899 3.38701H143.605C143.725 3.38701 143.823 3.28814 143.823 3.166V1.73811C143.823 1.61743 143.725 1.51855 143.605 1.51855H132.899C132.778 1.51855 132.679 1.61743 132.679 1.73811V3.166C132.679 3.28814 132.778 3.38701 132.899 3.38701Z" fill="white"/>
<path d="M147.814 10.8661C147.814 10.9883 147.715 11.0871 147.592 11.0871H146.337C146.213 11.0871 146.111 10.9853 146.111 10.8618V6.76281C146.111 6.64067 146.211 6.54325 146.334 6.54325H147.587C147.712 6.54325 147.814 6.64358 147.814 6.76717V10.8661ZM149.412 6.76281C149.412 6.64067 149.51 6.54325 149.634 6.54325H150.917C151.041 6.54325 151.144 6.64358 151.144 6.76717V10.8661C151.144 10.9869 151.042 11.0871 150.92 11.0871H149.639C149.514 11.0871 149.412 10.9853 149.412 10.8618V6.76281ZM144.462 21.4444C145.552 21.2859 148.929 20.7188 151.922 19.4117C151.922 19.4117 152.189 19.9119 152.278 21.4386C152.289 21.6334 152.471 21.7745 152.666 21.7527L153.676 21.6349C153.872 21.613 154.018 21.44 153.998 21.2466C153.785 19.0132 152.899 16.7332 152.592 15.9975C152.531 15.8492 152.384 15.7561 152.223 15.7605L151.042 15.7896C150.855 15.7939 150.741 15.9917 150.828 16.1545C151.023 16.5239 151.318 17.1331 151.493 17.7453C150.533 18.1757 149.38 18.4926 149.38 18.4926L149.412 13.0037L152.763 13.0007C152.888 13.0007 152.99 12.9003 152.99 12.7767V4.8958C152.99 4.77512 152.891 4.67624 152.768 4.67624H149.462L149.404 0.219562C149.404 0.0974216 149.304 0 149.18 0H147.929C147.804 0 147.704 0.10033 147.704 0.223925L147.763 4.67624H144.701C144.575 4.67624 144.474 4.77657 144.474 4.90017V12.7767C144.474 12.9003 144.575 13.0007 144.698 13.0007L147.814 13.0037L147.766 18.8562C146.954 19.1761 145.114 19.4712 144.398 19.5774C144.228 19.6035 144.104 19.7461 144.104 19.9162V21.1347C144.104 21.3251 144.272 21.472 144.462 21.4444Z" fill="white"/>
<path d="M140.613 17.0296V15.9535C140.613 15.8329 140.515 15.734 140.395 15.734H139.696L139.698 15.7297C139.948 15.1 140.265 13.7724 140.395 13.2156C140.425 13.0832 140.326 12.9597 140.193 12.9597H139.261C139.167 12.9597 139.085 13.0237 139.061 13.1152C138.931 13.6198 138.509 15.2091 138.228 15.734H135.812C135.692 15.734 135.594 15.8329 135.594 15.955V17.0296C135.594 17.1517 135.692 17.2506 135.812 17.2506L137.352 17.2491L137.377 21.2754C137.377 21.3975 137.474 21.4964 137.594 21.4964H138.863C138.983 21.4964 139.082 21.3975 139.082 21.2754L139.058 17.2491H140.395C140.515 17.2491 140.613 17.1502 140.613 17.0296Z" fill="white"/>
<path d="M140.74 21.2615C140.644 21.3923 140.728 21.5756 140.888 21.5916L142.234 21.7355C142.376 21.7486 142.514 21.6962 142.609 21.5887C142.851 21.3168 143.278 20.7206 143.285 19.9107L143.26 10.5364C143.26 10.4143 143.162 10.3153 143.042 10.3153L133.268 10.311C133.148 10.311 133.05 10.4084 133.05 10.5306L133.079 21.5262C133.079 21.6468 133.176 21.7457 133.296 21.7457L134.803 21.7544C134.923 21.7544 135.02 21.657 135.02 21.5349L134.996 12.3685C134.996 12.2478 135.094 12.149 135.214 12.149H141.083C141.204 12.149 141.302 12.2478 141.302 12.3685L141.326 19.7115C141.352 20.312 140.992 20.9154 140.74 21.2615Z" fill="white"/>
<path d="M136.932 13.0286H135.932C135.775 13.0286 135.675 13.1944 135.75 13.3339C135.944 13.6975 136.255 14.3561 136.44 15.1558C136.461 15.2489 136.542 15.3187 136.637 15.3202C136.972 15.3231 137.283 15.3187 137.688 15.3173C137.814 15.3159 137.913 15.2038 137.896 15.0788C137.753 14.1235 137.403 13.4735 137.223 13.19C137.159 13.0897 137.05 13.0286 136.932 13.0286Z" fill="white"/>
<path d="M84.9522 7.32417C84.8714 8.76223 84.5939 11.08 83.726 13.3527L83.6305 13.5897L83.4279 13.4457C83.1753 13.2669 82.0505 12.3814 81.0857 11.7794L80.955 11.698L81.9668 7.10025H84.9653L84.9522 7.32417ZM85.4308 14.9856L85.3075 14.8824L85.3736 14.7297C86.9272 11.1905 86.9962 6.85597 86.9845 5.5037C86.983 5.37865 86.8831 5.27832 86.7598 5.27832H82.4705C82.4705 5.27832 83.1812 1.32329 83.2884 0.609348C83.3074 0.481391 83.1944 0.373792 83.0696 0.370884L81.4925 0.340348C81.3721 0.338895 81.2824 0.434863 81.2649 0.557003C81.1841 1.14444 80.4059 5.27832 80.4059 5.27832H77.4939C77.3721 5.27832 77.2708 5.3801 77.2708 5.50661L77.2913 7.00137C77.2913 7.12642 77.3912 7.10025 77.5145 7.10025H79.9374L79.886 7.35616C79.5908 8.81894 79.0314 11.2705 78.7039 12.3887C78.6775 12.4788 78.7083 12.5718 78.7832 12.6256C79.6599 13.2495 80.9858 14.2135 82.6423 15.5061L82.7436 15.5846C82.7436 15.5846 81.6349 18.0172 77.7347 19.5586C77.6363 19.5964 77.5571 19.6706 77.5571 19.7796L77.5497 21.3412C77.5497 21.4895 77.6922 21.6044 77.8316 21.5623C82.6055 20.1125 84.3677 16.7058 84.3677 16.7058L84.538 16.841C85.3501 17.4822 86.6467 18.5872 87.4558 19.2634C87.6379 19.4161 87.9096 19.2823 87.9096 19.0424V17.3616C87.9096 17.2365 87.8597 17.1202 87.7686 17.0372C87.3574 16.6665 86.2899 15.6995 85.4308 14.9856Z" fill="white"/>
<path d="M99.5601 10.0531C99.5601 9.9252 99.4573 9.82341 99.331 9.82486C99.0182 9.83359 98.682 9.83359 98.3046 9.83359H95.447C95.1885 9.12111 94.8787 8.42606 94.5615 7.73684C94.5189 7.64524 94.5704 7.54346 94.6452 7.47802C97.8127 4.7982 98.5249 2.47462 98.5542 1.41461C98.5587 1.27793 98.466 1.16016 98.331 1.16016H88.886C88.7612 1.16016 88.6613 1.26194 88.6613 1.38843V2.75961C88.6613 2.88611 88.7612 2.98935 88.886 2.98935H96.0784C95.0314 5.27222 93.3002 6.27842 92.3441 6.95456C92.1415 7.09706 92.0681 7.32535 92.1973 7.59144C92.5542 8.32864 92.9007 9.0673 93.1812 9.83359H89.7597C89.3823 9.83359 89.0461 9.83359 88.7304 9.82486C88.6041 9.82341 88.5012 9.9252 88.5012 10.0546L88.5028 11.3865C88.5028 11.5159 88.6055 11.6177 88.7318 11.6148C88.883 11.6119 91.2458 11.609 93.704 11.609C94.2091 13.6534 94.4675 15.8228 93.911 17.8687C93.7392 18.4969 93.3911 19.0683 92.7905 19.3722C92.2575 19.6426 91.6379 19.6819 91.049 19.6819C90.6878 19.6819 90.2149 19.6485 89.7201 19.5888C89.4953 19.5612 89.3236 19.7866 89.4073 20.0018C89.6055 20.5092 89.8052 21.0473 89.93 21.4355C89.9799 21.591 90.1136 21.7016 90.2737 21.7146C90.6231 21.7452 91.0828 21.7699 91.4837 21.7699C92.2267 21.7699 92.9785 21.6565 93.6658 21.3715C95.1195 20.7695 95.9697 19.4478 96.2311 17.9429C96.331 17.37 96.4573 16.7971 96.4573 16.2125C96.4573 16.163 96.4573 16.1151 96.4573 16.0657C96.4529 15.5233 96.4221 14.9795 96.378 14.4386C96.3002 13.4876 96.1591 12.541 95.9536 11.609C97.7554 11.6104 99.215 11.6119 99.3325 11.6148C99.4587 11.6177 99.563 11.5159 99.563 11.3865" fill="white"/>
<path d="M145.026 40.1726C144.115 40.1784 143.203 39.8279 142.548 39.1984C141.762 38.4408 141.37 37.3022 141.525 36.2277C141.681 35.1517 142.381 34.1674 143.352 33.6599C143.332 33.6715 142.995 33.6672 142.923 33.6686C142.776 33.6729 142.63 33.6802 142.484 33.6905C142.195 33.7107 141.906 33.7486 141.623 33.8169C141.484 33.8518 141.346 33.894 141.213 33.9449C141.095 33.9914 140.965 34.0365 140.858 34.0976C140.643 34.2182 140.44 34.3621 140.255 34.525C139.883 34.8479 139.575 35.2433 139.353 35.681C139.158 36.0634 139.03 36.4807 138.983 36.9054C138.849 38.0991 139.361 39.3481 140.303 40.1028C140.957 40.6277 141.788 40.9098 142.627 40.9795C143.677 41.0683 144.786 40.8109 145.578 40.1246C145.396 40.1566 145.211 40.1711 145.026 40.1726Z" fill="white"/>
<path d="M66.7672 40.5301C65.497 40.5301 65.2416 39.4148 65.2416 37.1669C65.2416 34.9 65.497 33.7935 66.7672 33.7935C68.0359 33.7935 68.2915 34.9 68.2915 37.1669C68.2915 39.4148 68.0359 40.5301 66.7672 40.5301ZM66.7672 33.3035C64.5557 33.3035 63.0242 35.073 63.0242 37.1669C63.0242 39.2448 64.5557 40.9998 66.7672 40.9998C68.9772 40.9998 70.5088 39.2448 70.5088 37.1669C70.5088 35.073 68.9772 33.3035 66.7672 33.3035Z" fill="white"/>
<path d="M76.0094 40.4987C74.7406 40.4987 74.4851 39.3834 74.4851 37.1369C74.4851 34.87 74.7406 33.7621 76.0094 33.7621C77.2796 33.7621 77.5336 34.87 77.5336 37.1369C77.5336 39.3834 77.2796 40.4987 76.0094 40.4987ZM76.0094 33.2734C73.7994 33.2734 72.2664 35.043 72.2664 37.1369C72.2664 39.2133 73.7994 40.9683 76.0094 40.9683C78.2194 40.9683 79.7524 39.2133 79.7524 37.1369C79.7524 35.043 78.2194 33.2734 76.0094 33.2734Z" fill="white"/>
<path d="M86.8947 35.7395C86.8976 35.8195 86.9006 35.898 86.902 35.9779C86.9094 36.3719 86.905 36.7661 86.9006 37.1615C86.8962 37.512 86.8888 37.6821 86.8845 38.034C86.8712 38.8933 86.2986 39.9824 85.3441 39.9577C84.5966 39.9373 84.1648 39.3499 83.9784 38.6912C83.786 38.018 83.7846 37.3055 83.786 36.6105V36.4913C83.7655 35.2567 83.946 34.6431 84.3719 34.2157C84.6319 33.9539 84.9842 33.8201 85.4189 33.8201C85.9167 33.8201 86.3704 34.2142 86.5996 34.6198C86.8154 35.0052 86.8756 35.3076 86.8947 35.7395ZM84.9549 33.2836C84.5422 33.2444 84.1238 33.2865 83.7317 33.4158C83.272 33.5671 82.8565 33.8375 82.5217 34.1821C82.1854 34.5297 81.9284 34.9528 81.7845 35.4138C81.7081 35.6609 81.6685 35.9154 81.645 36.1728C81.6142 36.4941 81.5878 36.8169 81.5774 37.1398C81.5628 37.5585 81.5774 37.9787 81.6465 38.3917C81.7845 39.2132 82.1693 40.0275 82.852 40.5132C83.4997 40.9741 84.3763 41.0875 85.1355 40.8446C85.8947 40.6004 86.5262 40.0173 86.8638 39.3019C86.9123 39.8152 86.9241 40.2863 86.8976 40.8011C87.7582 40.8025 88.6186 40.8039 89.4792 40.8054C89.112 39.8835 89.1106 38.9108 89.1135 37.9191L89.1311 31.6696C89.1326 31.024 89.1355 30.3711 89.2795 29.74C88.3823 29.7415 87.4835 29.7415 86.5863 29.7415C86.9226 30.4816 86.9167 31.3221 86.9064 32.1334L86.8785 34.1851C86.3748 33.6659 85.6759 33.3519 84.9549 33.2836Z" fill="white"/>
<path d="M104.367 30.7609C104.37 30.4047 104.37 29.9816 104.367 29.6399C103.911 29.7605 103.572 29.7868 103.01 29.7955C102.774 29.7984 101.786 29.8013 100.493 29.8013C99.4251 29.8013 98.1388 29.7984 97.2651 29.7969C97.4075 30.0689 97.4956 30.4309 97.4956 31.2336V39.0113C97.4956 40.0073 97.3899 40.4566 97.2901 40.8346L100.253 40.8303C100.124 40.458 100.038 40.1149 99.9803 39.5376C99.9553 39.2846 99.9435 39.0098 99.9435 38.6739V34.8439C99.9435 34.8178 99.9538 34.7931 99.9729 34.7741C99.9949 34.7553 100.018 34.7451 100.043 34.7451C100.184 34.7451 100.648 34.748 101.231 34.748L102.764 34.7436C103.237 34.7436 103.471 34.7654 103.735 34.8338C103.736 34.4673 103.736 34.0297 103.735 33.7257C103.333 33.8465 103.02 33.8625 102.477 33.8668C102.098 33.8712 101.72 33.8726 101.325 33.8726C100.939 33.8726 100.55 33.8712 100.2 33.8668L100.054 33.8654C99.9979 33.8654 99.9523 33.8218 99.9523 33.7664V31.3338C99.9509 31.1841 99.9509 31.0503 99.9523 30.9122L99.9538 30.7784C99.9538 30.7247 99.9994 30.681 100.055 30.681L100.189 30.6781C100.374 30.6737 100.855 30.6708 101.418 30.6708C101.955 30.6708 102.521 30.6737 103.009 30.6781L103.368 30.6766C103.694 30.6766 104.037 30.6839 104.367 30.7609Z" fill="white"/>
<path d="M108.409 39.7796V34.801C108.401 34.436 108.456 34.1045 108.571 33.866H106.029C106.169 34.1161 106.195 34.388 106.193 34.7981V39.7796C106.195 40.2638 106.136 40.5721 105.988 40.8338H108.637C108.518 40.6288 108.411 40.3554 108.409 39.7796Z" fill="white"/>
<path d="M144.554 33.895C143.868 33.895 143.309 34.4475 143.309 35.1266C143.309 35.8056 143.868 36.3582 144.554 36.3582C145.237 36.3582 145.796 35.8056 145.796 35.1266C145.796 34.4475 145.237 33.895 144.554 33.895Z" fill="white"/>
<path d="M107.312 30.3967C106.628 30.3967 106.07 30.9492 106.07 31.6283C106.07 32.3073 106.628 32.8599 107.312 32.8599C107.998 32.8599 108.555 32.3073 108.555 31.6283C108.555 30.9492 107.998 30.3967 107.312 30.3967Z" fill="white"/>
<path d="M59.582 31.9602C58.8962 31.9602 58.3396 32.5127 58.3396 33.1917C58.3396 33.8708 58.8962 34.4234 59.582 34.4234C60.2677 34.4234 60.8242 33.8708 60.8242 33.1917C60.8242 32.5127 60.2677 31.9602 59.582 31.9602Z" fill="white"/>
<path d="M121.907 33.6719C121.223 33.6719 120.665 34.2245 120.665 34.9034C120.665 35.5825 121.223 36.1351 121.907 36.1351C122.593 36.1351 123.151 35.5825 123.151 34.9034C123.151 34.2245 122.593 33.6719 121.907 33.6719Z" fill="white"/>
<path d="M125.202 40.8619H127.74C127.612 40.5915 127.597 40.3153 127.583 39.9938L127.581 39.9895L127.575 35.2232C127.549 34.7374 127.366 34.4903 127.061 34.2271C126.677 33.8999 126.093 33.74 125.273 33.74C125.126 33.74 124.974 33.7458 124.82 33.756C124.848 33.7734 124.87 33.8025 124.897 33.8243C124.907 33.8331 124.919 33.8432 124.929 33.8534C125.075 33.9828 125.185 34.1486 125.254 34.3463C125.256 34.3507 125.256 34.3551 125.257 34.358C125.296 34.4656 125.319 34.579 125.332 34.6997C125.334 34.7113 125.334 34.7214 125.335 34.7317C125.34 34.7942 125.352 34.8538 125.35 34.9178C125.355 34.9687 125.355 36.5391 125.352 39.8572C125.343 40.2934 125.296 40.6133 125.202 40.8619Z" fill="white"/>
<path d="M121.906 37.1892L120.713 37.1906V39.3587C120.713 40.1933 121.495 40.8738 122.456 40.8738L123.843 40.8723C123.844 40.3562 123.845 38.7145 123.845 38.7145C123.776 37.7461 123.07 37.1892 121.906 37.1892Z" fill="white"/>
<path d="M149.103 36.2743C149.101 36.2672 149.101 36.2584 149.101 36.2511C149.12 35.5329 149.292 34.7258 149.88 34.2271C150.165 33.9857 150.574 33.8635 150.931 33.9857C151.127 34.0526 151.295 34.1879 151.424 34.3492C151.556 34.5106 151.649 34.6982 151.728 34.8887C151.916 35.3423 152.028 35.7757 152.059 36.2656C152.059 36.2802 152.059 36.2947 152.05 36.3049C152.04 36.3151 152.024 36.3166 152.008 36.3166C151.063 36.3166 150.119 36.3166 149.174 36.3166C149.151 36.3166 149.124 36.3151 149.11 36.2962C149.106 36.2904 149.103 36.2832 149.103 36.2743ZM153.542 39.9198C152.458 40.1407 151.281 40.2163 150.335 39.5518C149.793 39.1723 149.445 38.6009 149.284 37.9698C149.186 37.5976 149.168 37.2166 149.145 36.8356C149.143 36.8255 149.147 36.8124 149.157 36.8022C149.165 36.7921 149.178 36.7862 149.192 36.7862H153.846C153.85 36.7106 153.853 36.5652 153.853 36.4765C153.853 35.4136 153.219 34.3841 152.257 33.9334C151.798 33.7182 151.291 33.6077 150.786 33.5815C150.689 33.5756 150.592 33.5728 150.496 33.5728C149.181 33.5728 147.925 34.419 147.317 35.5576C147.038 36.0825 146.92 36.6888 146.92 37.2777C146.92 38.7375 147.755 39.9997 149.096 40.6147C149.66 40.8751 150.288 41.0103 150.913 40.9971C151.491 40.9841 152.071 40.8431 152.595 40.6046C152.984 40.4287 153.303 40.1989 153.542 39.9198Z" fill="white"/>
<path d="M132.624 34.8686C132.602 34.8613 132.589 34.8439 132.589 34.8235L132.594 33.874H130.104C130.31 34.1357 130.349 34.4847 130.347 34.9601L130.362 39.4518C130.386 40.0145 130.317 40.4914 130.161 40.8345H132.769C132.644 40.538 132.592 40.1119 132.594 39.4575V39.379C132.59 38.1111 132.584 35.9532 132.594 35.7337" fill="white"/>
<path d="M132.594 35.7337C132.606 35.4036 132.7 35.1549 132.872 34.9979C132.901 34.9703 132.938 34.9544 132.97 34.934C132.975 34.9311 132.979 34.9281 132.983 34.9252C133.079 34.8656 133.184 34.822 133.313 34.8089C133.671 34.7711 134.037 34.8584 134.314 35.0474C134.584 35.2336 134.769 35.5476 134.846 35.9562C134.894 36.1961 134.9 36.4447 134.907 36.6861L134.91 36.8126V36.8694C134.91 37.7708 134.908 39.3093 134.91 39.4706C134.918 40.1744 134.9 40.5234 134.759 40.8346H137.275C137.136 40.4914 137.133 40.0188 137.13 39.4736V35.6304C137.119 34.5137 136.204 33.6719 134.999 33.6719C134.295 33.6719 133.697 33.8653 133.224 34.2447C132.869 34.5298 132.703 34.7653 132.662 34.8496C132.653 34.8642 132.637 34.8729 132.621 34.8686C132.6 34.8613 132.589 34.8439 132.589 34.8235" fill="white"/>
<path d="M113.694 34.8686C113.672 34.8613 113.659 34.8439 113.659 34.8235L113.664 33.874H111.175C111.381 34.1357 111.419 34.4847 111.417 34.9601L111.432 39.4518C111.456 40.0145 111.387 40.4914 111.231 40.8345H113.84C113.715 40.538 113.662 40.1119 113.664 39.4575V39.379C113.66 38.1111 113.654 35.9532 113.664 35.7337" fill="white"/>
<path d="M113.664 35.7337C113.678 35.4036 113.77 35.1549 113.943 34.9979C113.971 34.9703 114.008 34.9544 114.04 34.934C114.045 34.9311 114.049 34.9281 114.053 34.9252C114.149 34.8656 114.255 34.822 114.383 34.8089C114.741 34.7711 115.108 34.8584 115.384 35.0474C115.654 35.2336 115.84 35.5476 115.917 35.9562C115.964 36.1961 115.971 36.4447 115.977 36.6861L115.982 36.8126L115.98 36.8694C115.98 37.7708 115.978 39.3093 115.982 39.4706C115.989 40.1744 115.97 40.5234 115.83 40.8346H118.345C118.208 40.4914 118.205 40.0188 118.2 39.4736V35.6304C118.19 34.5137 117.274 33.6719 116.07 33.6719C115.365 33.6719 114.767 33.8653 114.296 34.2447C113.939 34.5298 113.775 34.7653 113.732 34.8496C113.723 34.8642 113.707 34.8729 113.691 34.8686C113.67 34.8613 113.659 34.8439 113.659 34.8235" fill="white"/>
<path d="M61.1945 35.3715C61.1945 35.3715 58.3545 35.3701 57.4469 35.3715C57.7157 35.5431 57.9756 35.8325 58.1313 36.0928C58.2795 36.3444 58.3266 36.5552 58.3266 36.8053C58.3251 37.4203 58.3266 39.5854 58.3266 39.9984V40.0551C58.3266 40.0798 58.3119 40.103 58.2884 40.1133C57.8567 40.247 57.4 40.2673 56.9506 40.2718C56.0064 40.2819 55.0784 40.1103 54.4279 39.376C53.7465 38.6068 53.469 37.7329 53.3882 36.7341C53.2736 35.312 53.2589 33.8274 53.7642 32.4708C53.9021 32.1014 54.0769 31.7438 54.2986 31.4166C54.5291 31.072 54.8126 30.7608 55.1444 30.5063C56.0269 29.8273 57.284 29.5845 58.3603 29.9945C58.4118 30.0133 58.4617 30.0337 58.513 30.0556L58.6555 29.7953C58.6658 29.7808 58.2532 29.6078 58.2194 29.5975C58.0137 29.5248 57.8009 29.4739 57.5864 29.4318C56.4264 29.2108 55.2502 29.2747 54.1459 29.7051C53.4264 29.9858 52.7671 30.406 52.2105 30.9382C51.6833 31.4413 51.253 32.0389 50.9212 32.6845C50.4734 33.5554 50.2736 34.5427 50.3074 35.5184C50.3397 36.4781 50.5952 37.4378 51.0827 38.271C51.6407 39.2292 52.5189 39.9635 53.5292 40.4186C54.3823 40.8025 55.3251 41.0002 56.2619 41.0002C56.3999 41.0002 56.5366 40.9973 56.6717 40.9929C57.9668 40.9464 59.2429 40.4099 60.1078 39.4415C61.0358 38.4047 61.1782 37.0336 61.1929 35.7017C61.1945 35.5912 61.1945 35.4821 61.1945 35.3715Z" fill="white"/>
<path d="M24.6257 33.5608C22.658 33.5608 21.0632 35.1399 21.0632 37.0883C21.0632 39.0368 22.658 40.6173 24.6257 40.6173C26.5934 40.6173 28.1881 39.0368 28.1881 37.0883C28.1881 35.1399 26.5934 33.5608 24.6257 33.5608Z" fill="#FF5D5C"/>
<path d="M7.74329 6.82098C9.64639 6.82534 11.1912 5.30004 11.1956 3.41704C11.1986 1.53258 9.6596 0.00291725 7.75651 9.33353e-06C5.85341 -0.00435292 4.3086 1.52095 4.30567 3.40395C4.30273 5.28841 5.84165 6.81807 7.74329 6.82098Z" fill="#5A78FF"/>
<path d="M5.09424 17.5783V21.2484C5.09424 21.4737 5.31598 21.638 5.53477 21.5726C14.1737 18.9538 18.5173 13.0984 20.6583 8.48901C22.0694 5.45149 22.7111 2.59572 23.0048 0.680734C23.0356 0.477167 22.8741 0.29541 22.6656 0.29541H19.0944C18.9285 0.29541 18.7875 0.413189 18.7596 0.574588C18.4747 2.20458 17.9049 4.49182 16.7772 6.88228C14.388 11.9424 10.5421 15.4234 5.32185 17.2628C5.18528 17.3107 5.09424 17.4358 5.09424 17.5783Z" fill="#A0BEFF"/>
<path d="M22.9664 20.3279L19.2146 20.341C19.0765 20.3424 18.9518 20.4254 18.9003 20.5518C18.2733 22.1091 17.0853 24.5374 15.0339 27.0747C11.3158 31.6725 6.35983 34.7419 0.25846 36.2338C0.107211 36.2701 -0.00145365 36.4054 1.47027e-05 36.561L0.0117622 40.1321C0.013231 40.3488 0.217344 40.5102 0.4288 40.4622C9.53313 38.4338 15.1191 33.6296 18.3144 29.6775C21.3144 25.9681 22.7403 22.4173 23.2924 20.77C23.3658 20.5518 23.1999 20.3279 22.9664 20.3279Z" fill="#FFADAD"/>
</g>
<defs>
<clipPath id="clip0_109_220955">
<rect width="154" height="41" fill="white"/>
</clipPath>
</defs>
</svg>
