<svg width="154" height="40" viewBox="0 0 154 40" fill="none" xmlns="http://www.w3.org/2000/svg">
<g clip-path="url(#clip0_226_73246)">
<path d="M65.164 4.41771H60.911C61.0131 3.62699 61.0982 2.85346 61.1577 2.1401C61.1668 2.08643 61.1637 2.03139 61.1488 1.97909C61.1338 1.92678 61.1074 1.87857 61.0714 1.83806C61.0354 1.79755 60.9908 1.7658 60.9409 1.74517C60.8911 1.72455 60.8372 1.71558 60.7834 1.71895H58.5379C58.4474 1.71872 58.3602 1.75319 58.2939 1.81541C58.2276 1.87763 58.1871 1.96295 58.1806 2.05415C58.1806 2.47529 58.0786 3.2832 57.951 4.38333H56.3008C56.2038 4.38333 56.1108 4.42227 56.0422 4.49158C55.9736 4.56088 55.9351 4.65489 55.9351 4.7529V6.61797C55.9351 6.71598 55.9736 6.80999 56.0422 6.8793C56.1108 6.9486 56.2038 6.98754 56.3008 6.98754H57.5937C57.3215 8.70649 56.9303 10.7692 56.3774 13.0039C56.3774 13.0039 58.0105 15.823 59.5416 18.5991C58.6127 20.429 57.4704 22.14 56.1392 23.6957H58.9547C59.2381 23.6881 59.5159 23.6134 59.7655 23.4776C60.0152 23.3417 60.2298 23.1486 60.3922 22.9136C60.6133 22.587 60.877 22.1745 61.1747 21.6588C61.3675 22.0255 61.5376 22.3607 61.6851 22.6644C61.8307 22.9746 62.0609 23.2365 62.3487 23.4192C62.6365 23.6019 62.9699 23.6978 63.3097 23.6957H65.7509C65.7509 23.6957 64.4495 21.2548 62.7908 18.3756C64.4929 14.0531 65.4092 9.45574 65.4957 4.80447C65.4992 4.75704 65.4934 4.70939 65.4786 4.66424C65.4637 4.6191 65.4403 4.57736 65.4094 4.54142C65.3786 4.50548 65.341 4.47605 65.2989 4.45482C65.2568 4.43359 65.211 4.42098 65.164 4.41771ZM59.3885 12.832C59.3885 12.832 59.9924 10.0645 60.5027 6.98754H62.8334C62.6283 9.84884 62.0063 12.6639 60.9876 15.3416C60.4517 14.465 59.9073 13.6055 59.3885 12.832Z" fill="white"/>
<path d="M73.8911 10.0301C75.3769 7.78877 76.4622 5.3016 77.0978 2.68154C77.1094 2.62812 77.1089 2.57274 77.0962 2.51956C77.0835 2.46639 77.0591 2.41683 77.0247 2.37461C76.9903 2.33239 76.9468 2.29863 76.8976 2.27586C76.8484 2.2531 76.7947 2.24193 76.7406 2.24321H66.6525C66.6049 2.24206 66.5575 2.25055 66.5132 2.26818C66.4689 2.2858 66.4285 2.31221 66.3944 2.34585C66.3603 2.37948 66.3332 2.41966 66.3148 2.46403C66.2963 2.5084 66.2868 2.55605 66.2868 2.60419V4.7099C66.2868 4.80792 66.3253 4.90192 66.3939 4.97123C66.4625 5.04054 66.5555 5.07948 66.6525 5.07948H72.6067C72.2955 6.69105 71.5842 8.19635 70.5397 9.45421V10.8723H66.3463C66.2493 10.8723 66.1563 10.9113 66.0877 10.9806C66.0191 11.0499 65.9806 11.1439 65.9806 11.2419V13.2875C65.9806 13.3855 66.0191 13.4795 66.0877 13.5488C66.1563 13.6181 66.2493 13.657 66.3463 13.657H70.5993V18.8139C70.6485 19.3185 70.5251 19.825 70.2496 20.2488C69.9741 20.6727 69.5631 20.9883 69.0852 21.1431C68.499 21.2749 67.8943 21.3011 67.299 21.2204L68.2687 22.6987C68.4884 23.0391 68.7946 23.3135 69.1552 23.4934C69.5158 23.6734 69.9176 23.7521 70.3186 23.7215C70.456 23.7118 70.5925 23.6916 70.7269 23.6613C71.7058 23.4571 72.572 22.886 73.1511 22.0627C73.743 21.1677 74.0022 20.0898 73.8826 19.0202V13.6313H77.2424C77.2901 13.6313 77.3372 13.6217 77.3811 13.603C77.425 13.5843 77.4648 13.5569 77.4981 13.5225C77.5314 13.4881 77.5575 13.4473 77.575 13.4025C77.5924 13.3577 77.6008 13.3098 77.5997 13.2617V11.2161C77.6008 11.168 77.5924 11.1201 77.575 11.0753C77.5575 11.0306 77.5314 10.9897 77.4981 10.9553C77.4648 10.9209 77.425 10.8935 77.3811 10.8748C77.3372 10.8562 77.2901 10.8465 77.2424 10.8466H73.8911V10.0301Z" fill="white"/>
<path d="M90.5627 4.41773H86.3097C86.4203 3.62702 86.5054 2.85349 86.5649 2.14012C86.5672 2.09016 86.5595 2.04025 86.5421 1.99341C86.5248 1.94657 86.4982 1.90377 86.464 1.86761C86.4298 1.83145 86.3887 1.80268 86.3432 1.78304C86.2977 1.7634 86.2487 1.75331 86.1992 1.75336H83.9451C83.8537 1.75296 83.7655 1.78714 83.6978 1.84918C83.6301 1.91122 83.5878 1.99661 83.5793 2.08856C83.5793 2.5097 83.4773 3.31761 83.3497 4.41773H81.6995C81.6025 4.41773 81.5095 4.45667 81.4409 4.52598C81.3723 4.59529 81.3338 4.68929 81.3338 4.78731V6.61799C81.3338 6.71601 81.3723 6.81001 81.4409 6.87932C81.5095 6.94863 81.6025 6.98757 81.6995 6.98757H82.9924C82.7202 8.70652 82.329 10.7693 81.7761 13.0039C81.7761 13.0039 83.4092 15.823 84.9488 18.5991C84.0032 20.4312 82.8438 22.1423 81.4954 23.6958H84.3108C84.6031 23.6971 84.8913 23.6265 85.1506 23.4903C85.4099 23.354 85.6326 23.1561 85.7994 22.9137C86.0205 22.5871 86.2927 22.1745 86.5904 21.6588C86.7776 22.0284 86.9477 22.3636 87.0923 22.6644C87.2396 22.9734 87.4702 23.2341 87.7576 23.4165C88.045 23.599 88.3775 23.6958 88.7169 23.6958H91.1581C91.1581 23.6958 89.8567 21.2549 88.1896 18.3756C89.9032 14.0553 90.8311 9.45788 90.9285 4.8045C90.9308 4.75454 90.923 4.70463 90.9057 4.65778C90.8883 4.61094 90.8617 4.56815 90.8275 4.53199C90.7933 4.49583 90.7522 4.46706 90.7067 4.44742C90.6612 4.42778 90.6122 4.41768 90.5627 4.41773ZM84.7957 12.832C84.7957 12.832 85.3911 10.0645 85.91 6.98757H88.2406C88.0347 9.8496 87.4098 12.6649 86.3863 15.3417C85.8504 14.465 85.3145 13.6055 84.7957 12.832Z" fill="white"/>
<path d="M99.2898 10.0301C100.776 7.7881 101.864 5.30133 102.505 2.68156C102.515 2.62832 102.513 2.57353 102.5 2.52104C102.487 2.46856 102.462 2.41968 102.428 2.37785C102.394 2.33603 102.351 2.30229 102.303 2.27903C102.254 2.25576 102.201 2.24354 102.148 2.24323H92.0512C91.9565 2.24323 91.8656 2.28126 91.7986 2.34895C91.7316 2.41665 91.694 2.50847 91.694 2.6042V4.70992C91.6929 4.75804 91.7013 4.80591 91.7187 4.8507C91.7362 4.8955 91.7623 4.93631 91.7956 4.97075C91.8289 5.00518 91.8686 5.03254 91.9125 5.05122C91.9564 5.06989 92.0036 5.07951 92.0512 5.07949H98.0054C97.6949 6.68965 96.9868 8.19445 95.947 9.45423V10.8724H91.694C91.6464 10.8723 91.5992 10.882 91.5553 10.9006C91.5114 10.9193 91.4716 10.9467 91.4383 10.9811C91.405 11.0155 91.3789 11.0564 91.3615 11.1012C91.344 11.1459 91.3356 11.1938 91.3367 11.2419V13.2875C91.3356 13.3356 91.344 13.3835 91.3615 13.4283C91.3789 13.4731 91.405 13.5139 91.4383 13.5483C91.4716 13.5828 91.5114 13.6101 91.5553 13.6288C91.5992 13.6475 91.6464 13.6571 91.694 13.6571H95.947V18.8139C95.9916 19.3191 95.8641 19.8245 95.5857 20.2465C95.3073 20.6685 94.8945 20.9818 94.4159 21.1345C93.8324 21.2653 93.2306 21.2915 92.6382 21.2119L93.5993 22.6902C93.8211 23.0305 94.1288 23.3048 94.4908 23.4847C94.8527 23.6645 95.2556 23.7433 95.6578 23.7129C95.7923 23.7032 95.926 23.6831 96.0575 23.6528C97.061 23.4695 97.9547 22.8994 98.5498 22.0627C99.1417 21.1677 99.4009 20.0898 99.2813 19.0202V13.6313H102.684C102.781 13.6313 102.874 13.5923 102.942 13.523C103.011 13.4537 103.049 13.3597 103.049 13.2617V11.2162C103.049 11.1181 103.011 11.0241 102.942 10.9548C102.874 10.8855 102.781 10.8466 102.684 10.8466H99.2813L99.2898 10.0301Z" fill="white"/>
<path d="M137.847 8.65489C137.992 8.44862 138.136 8.22515 138.273 8.00169C138.409 7.77823 138.553 7.55476 138.681 7.3313H133.96C133.869 7.32906 133.782 7.29094 133.719 7.2251C133.655 7.15925 133.62 7.0709 133.62 6.97891V4.69271C133.62 4.64756 133.629 4.60286 133.646 4.56115C133.663 4.51944 133.688 4.48154 133.719 4.44961C133.751 4.41769 133.789 4.39237 133.83 4.37509C133.871 4.35781 133.915 4.34892 133.96 4.34892H135.746C135.636 3.97075 135.525 3.58399 135.406 3.19722C135.287 2.81046 135.168 2.46667 135.04 2.14866H138.817C138.913 2.41223 139.032 2.73883 139.174 3.12846C139.31 3.51523 139.455 3.91918 139.599 4.34892H140.22C140.399 3.91918 140.561 3.48944 140.722 3.07689C140.884 2.66435 141.02 2.21742 141.148 1.80487H145.281C145.154 2.2518 145.026 2.66435 144.89 3.10268C144.754 3.54101 144.609 3.96215 144.448 4.34892H147C147.3 3.63329 147.553 2.89825 147.757 2.14866H151.533C151.457 2.49245 151.355 2.86203 151.236 3.2316C151.116 3.60117 150.997 3.98794 150.87 4.34892H153.039C153.083 4.34892 153.128 4.35781 153.169 4.37509C153.21 4.39237 153.248 4.41769 153.279 4.44961C153.311 4.48154 153.336 4.51944 153.353 4.56115C153.37 4.60286 153.379 4.64756 153.379 4.69271V6.97891C153.379 7.0709 153.344 7.15925 153.28 7.2251C153.216 7.29094 153.13 7.32906 153.039 7.3313H143.146L142.815 8.00169C142.704 8.22515 142.585 8.44862 142.457 8.65489H153.66C153.751 8.65714 153.837 8.69525 153.901 8.76109C153.964 8.82694 154 8.91529 154 9.00728V11.2935C154 11.3847 153.964 11.4721 153.9 11.5366C153.837 11.6011 153.75 11.6373 153.66 11.6373H150.172C150.683 12.2647 151.185 12.8577 151.686 13.425C152.188 13.9922 152.648 14.4821 153.073 14.8947H148.369C147.453 13.8626 146.601 12.7747 145.817 11.6373H140.603C140.127 12.3163 139.667 12.9265 139.217 13.468C138.766 14.0094 138.366 14.4821 137.941 14.8947H132.744C133.203 14.4649 133.679 13.975 134.19 13.4164C134.7 12.8577 135.202 12.2647 135.712 11.6373H133.314C133.269 11.6373 133.225 11.6284 133.183 11.6111C133.142 11.5938 133.105 11.5685 133.073 11.5366C133.041 11.5047 133.016 11.4668 132.999 11.425C132.982 11.3833 132.973 11.3386 132.973 11.2935V9.00728C132.973 8.91529 133.009 8.82694 133.072 8.76109C133.136 8.69525 133.223 8.65714 133.314 8.65489H137.847ZM134.096 23.7473C134.988 22.9577 135.777 22.0566 136.444 21.0657C137.001 20.2044 137.425 19.2626 137.703 18.2724H134.003C133.96 18.2747 133.918 18.2686 133.877 18.2543C133.837 18.24 133.8 18.2178 133.769 18.1891C133.737 18.1603 133.712 18.1256 133.693 18.0868C133.675 18.048 133.664 18.0059 133.662 17.963V15.9347C133.667 15.8473 133.705 15.7651 133.768 15.7057C133.832 15.6462 133.916 15.6143 134.003 15.6166H152.716C152.802 15.6143 152.886 15.6462 152.95 15.7057C153.013 15.7651 153.051 15.8473 153.056 15.9347V19.5187C153.056 20 153.056 20.4469 152.988 20.8337C152.958 21.1974 152.907 21.559 152.835 21.9166C152.765 22.2339 152.668 22.5445 152.545 22.8448C152.418 23.1539 152.274 23.4553 152.112 23.7473H147.357C147.979 23.1776 148.445 22.4552 148.709 21.6502C148.953 20.8587 149.09 20.0377 149.118 19.2093V18.2724H141.794C141.586 19.2791 141.245 20.2532 140.782 21.1689C140.283 22.1121 139.656 22.98 138.919 23.7473H134.096Z" fill="white"/>
<path d="M114.694 15.6854H108.025C107.983 15.6831 107.941 15.6893 107.902 15.7037C107.862 15.7181 107.826 15.7404 107.795 15.7693C107.764 15.7981 107.739 15.833 107.722 15.8717C107.704 15.9104 107.695 15.9523 107.694 15.9948V23.3261C107.695 23.3687 107.704 23.4105 107.722 23.4493C107.739 23.488 107.764 23.5228 107.795 23.5517C107.826 23.5805 107.862 23.6028 107.902 23.6172C107.941 23.6316 107.983 23.6379 108.025 23.6356H114.694C114.737 23.6379 114.779 23.6317 114.819 23.6174C114.859 23.6031 114.896 23.5809 114.928 23.5522C114.959 23.5235 114.985 23.4887 115.003 23.4499C115.022 23.4111 115.032 23.3691 115.034 23.3261V15.9948C115.032 15.9519 115.022 15.9099 115.003 15.8711C114.985 15.8323 114.959 15.7975 114.928 15.7688C114.896 15.74 114.859 15.7179 114.819 15.7036C114.779 15.6893 114.737 15.6831 114.694 15.6854ZM112.661 21.3064H110.109V17.8685H112.661V21.3064Z" fill="white"/>
<path d="M114.694 11.3622H108.034C107.846 11.3622 107.694 11.5162 107.694 11.706V13.8547C107.694 14.0446 107.846 14.1985 108.034 14.1985H114.694C114.882 14.1985 115.034 14.0446 115.034 13.8547V11.706C115.034 11.5162 114.882 11.3622 114.694 11.3622Z" fill="white"/>
<path d="M128.754 20.7306H126.279C126.533 19.6935 126.977 18.7139 127.589 17.8427H124.382C123.777 18.7152 123.338 19.6947 123.089 20.7306H121.388C121.141 19.6959 120.705 18.7167 120.104 17.8427H116.897C117.499 18.7167 117.934 19.6959 118.181 20.7306H115.859C115.769 20.7306 115.683 20.7668 115.619 20.8312C115.555 20.8957 115.519 20.9832 115.519 21.0743V23.3004C115.519 23.3451 115.528 23.3894 115.545 23.4307C115.562 23.4719 115.588 23.5093 115.619 23.5405C115.651 23.5717 115.689 23.5962 115.73 23.6126C115.771 23.6289 115.815 23.6367 115.859 23.6356H128.788C128.833 23.6367 128.877 23.6289 128.918 23.6126C128.959 23.5962 128.997 23.5717 129.028 23.5405C129.06 23.5093 129.085 23.4719 129.103 23.4307C129.12 23.3894 129.129 23.3451 129.129 23.3004V21.0743C129.129 21.0261 129.119 20.9784 129.1 20.9343C129.081 20.8902 129.053 20.8507 129.017 20.8182C128.982 20.7858 128.94 20.7613 128.895 20.7462C128.85 20.731 128.802 20.7257 128.754 20.7306Z" fill="white"/>
<path d="M114.694 7.44305H108.034C107.846 7.44305 107.694 7.59697 107.694 7.78684V9.90975C107.694 10.0996 107.846 10.2535 108.034 10.2535H114.694C114.882 10.2535 115.034 10.0996 115.034 9.90975V7.78684C115.034 7.59697 114.882 7.44305 114.694 7.44305Z" fill="white"/>
<path d="M116.531 16.7855C116.532 16.8296 116.542 16.8729 116.56 16.9132C116.578 16.9534 116.603 16.9897 116.634 17.0201C116.666 17.0504 116.703 17.0742 116.744 17.0899C116.785 17.1057 116.828 17.1133 116.872 17.1121H127.453C127.497 17.1133 127.54 17.1057 127.581 17.0899C127.621 17.0742 127.658 17.0504 127.69 17.0201C127.722 16.9897 127.747 16.9534 127.765 16.9132C127.782 16.8729 127.792 16.8296 127.793 16.7855V11.7834H129.01C128.686 11.2333 128.397 10.6833 128.159 10.1332C127.921 9.58314 127.64 9.03308 127.402 8.45723H128.44C128.499 8.28533 128.567 8.06187 128.644 7.81262C128.72 7.56337 128.788 7.28834 128.856 7.00471C128.924 6.72109 128.993 6.42886 129.044 6.14524C129.095 5.86161 129.154 5.58658 129.197 5.34592H127.036C126.994 5.5436 126.943 5.74128 126.9 5.93896C126.848 6.15771 126.783 6.37299 126.704 6.58357C126.594 6.28275 126.492 5.98194 126.407 5.68112C126.322 5.3803 126.237 5.08808 126.16 4.82164H127.861C128.059 4.37414 128.221 3.91142 128.346 3.43789C128.495 2.99324 128.618 2.53972 128.712 2.07992H126.39C126.305 2.38073 126.228 2.67295 126.152 2.93939C126.075 3.20583 125.973 3.49805 125.862 3.79887C125.806 3.49519 125.746 3.20869 125.684 2.93939L125.531 2.07992H122.486C122.605 2.93939 122.775 3.79887 122.97 4.60678C123.166 5.41468 123.396 6.26556 123.642 7.08207H120.869C121.135 6.25166 121.359 5.40831 121.541 4.55521C121.728 3.69573 121.882 2.87923 122.009 2.05413H116.616C116.574 2.05299 116.532 2.06031 116.492 2.07567C116.452 2.09104 116.416 2.11415 116.385 2.14368C116.355 2.17321 116.33 2.20859 116.313 2.24779C116.295 2.28699 116.286 2.32924 116.285 2.37214V4.00514C116.285 4.04876 116.293 4.09195 116.31 4.13214C116.327 4.17234 116.351 4.20873 116.382 4.23918C116.413 4.26962 116.45 4.29349 116.49 4.30939C116.53 4.32529 116.573 4.33289 116.616 4.33174H118.615L118.36 5.28576C118.267 5.62096 118.147 5.96475 118.028 6.32573C117.977 6.14524 117.926 5.97334 117.867 5.80145L117.714 5.29436H115.63C115.783 5.78426 115.927 6.33432 116.055 6.93595C116.167 7.43808 116.252 7.9459 116.31 8.45723H117.101C116.846 8.98151 116.565 9.52298 116.251 10.0644C115.936 10.6059 115.596 11.1818 115.213 11.7834H116.531V16.7855ZM124.544 15.0666H119.815V13.3047H124.544V15.0666ZM119.959 9.90974H124.442C124.527 10.1418 124.603 10.3825 124.697 10.6145C124.791 10.8466 124.876 11.07 124.969 11.3021H119.338C119.576 10.8981 119.781 10.434 119.976 9.96131L119.959 9.90974Z" fill="white"/>
<path d="M115.409 5.74991V3.53247C115.41 3.48773 115.402 3.44322 115.386 3.40155C115.37 3.35989 115.345 3.32191 115.314 3.28987C115.284 3.25783 115.247 3.23237 115.206 3.21499C115.165 3.19761 115.121 3.18866 115.077 3.18868H113.24C113.24 2.91364 113.146 2.6558 113.086 2.39796C113.027 2.14011 112.984 1.90806 112.933 1.70178H109.82C109.888 1.92525 109.948 2.1573 109.999 2.40655C110.059 2.66446 110.104 2.92559 110.135 3.18868H107.651C107.561 3.18868 107.474 3.2249 107.411 3.28937C107.347 3.35384 107.311 3.44129 107.311 3.53247V5.74991C107.311 5.84109 107.347 5.92854 107.411 5.99301C107.474 6.05748 107.561 6.0937 107.651 6.0937H115.077C115.121 6.09372 115.165 6.08477 115.206 6.06739C115.247 6.05001 115.284 6.02455 115.314 5.99251C115.345 5.96047 115.37 5.92249 115.386 5.88083C115.402 5.83916 115.41 5.79465 115.409 5.74991Z" fill="white"/>
<path d="M40.8285 3.43793L33.726 0.15473C33.1136 -0.20625 32.6118 0.0859717 32.6118 0.799336V9.83243C29.5411 7.73531 25.7305 7.01335 21.52 7.82125C17.5451 8.59364 13.9939 10.8256 11.5511 14.0868L20.9076 19.0632C23.0851 14.7658 26.7852 13.8118 29.4901 14.7658C30.4113 15.1069 31.2053 15.728 31.7628 16.5437C32.3203 17.3595 32.6139 18.3297 32.6033 19.321L32.5607 34.3189C32.5804 34.7088 32.6918 35.0884 32.8856 35.4262C33.0793 35.7639 33.35 36.0502 33.675 36.2613L40.6924 39.5359C41.3048 39.8969 41.8067 39.6047 41.8152 38.8913L41.9087 5.37175C41.8889 4.98697 41.781 4.6121 41.5935 4.27656C41.4061 3.94103 41.1442 3.65397 40.8285 3.43793Z" fill="white"/>
<path d="M21.0352 19.7681C18.8662 24.0655 15.1746 25.011 12.4612 24.0655C11.5311 23.7208 10.7314 23.0901 10.1745 22.2622C9.61756 21.4343 9.3315 20.4509 9.35653 19.4501V5.33755C9.33154 4.95872 9.22122 4.59067 9.034 4.26148C8.84679 3.93229 8.58762 3.65067 8.27628 3.43811L1.21635 0.154913C0.595416 -0.206067 0.0935653 0.0861548 0.0935653 0.79952L0 34.3277C0.0197193 34.7176 0.131074 35.0971 0.324845 35.4349C0.518616 35.7727 0.789228 36.059 1.11428 36.2701L8.17421 39.5361C8.79514 39.8971 9.28848 39.6048 9.29699 38.8915V28.9817C12.3676 31.0874 16.1613 31.8008 20.4142 30.9413C24.3916 30.1747 27.9465 27.9454 30.3917 24.6843L21.0352 19.7681Z" fill="white"/>
<path d="M81.8016 39.6047H79.5645C79.4698 39.6047 79.3789 39.5666 79.3119 39.4989C79.2449 39.4312 79.2073 39.3394 79.2073 39.2437V28.0705C79.2073 27.9748 79.2449 27.8829 79.3119 27.8152C79.3789 27.7475 79.4698 27.7095 79.5645 27.7095H83.069C83.1488 27.7106 83.2262 27.738 83.2892 27.7877C83.3521 27.8374 83.3973 27.9065 83.4177 27.9845L85.5442 36.4676V28.0533C85.5442 28.0063 85.5535 27.9598 85.5715 27.9164C85.5896 27.8731 85.616 27.8339 85.6493 27.801C85.6826 27.7682 85.7221 27.7424 85.7654 27.7252C85.8087 27.708 85.8549 27.6998 85.9014 27.7009H87.9769C88.0241 27.6997 88.0711 27.7083 88.115 27.726C88.1588 27.7437 88.1987 27.7703 88.2321 27.804C88.2655 27.8378 88.2918 27.878 88.3093 27.9224C88.3269 27.9667 88.3353 28.0142 88.3341 28.0619V39.2351C88.3341 39.3308 88.2965 39.4226 88.2295 39.4903C88.1625 39.558 88.0716 39.5961 87.9769 39.5961H84.5745C84.4946 39.595 84.4173 39.5675 84.3543 39.5179C84.2914 39.4682 84.2462 39.3991 84.2258 39.321L82.1588 31.3451V39.2351C82.16 39.2832 82.1516 39.3311 82.1341 39.3759C82.1167 39.4207 82.0905 39.4615 82.0572 39.4959C82.024 39.5303 81.9842 39.5577 81.9403 39.5764C81.8964 39.5951 81.8492 39.6047 81.8016 39.6047Z" fill="white"/>
<path d="M62.7143 35.144H58.8866V39.2437C58.8866 39.3394 58.849 39.4312 58.782 39.4989C58.715 39.5666 58.6241 39.6047 58.5294 39.6047H56.2923C56.1976 39.6047 56.1067 39.5666 56.0397 39.4989C55.9727 39.4312 55.9351 39.3394 55.9351 39.2437V28.0705C55.9351 27.9748 55.9727 27.8829 56.0397 27.8152C56.1067 27.7475 56.1976 27.7095 56.2923 27.7095H63.4288C63.4757 27.7084 63.5224 27.7166 63.5662 27.7337C63.6099 27.7508 63.65 27.7764 63.6839 27.8091C63.7179 27.8419 63.7451 27.881 63.7641 27.9244C63.7831 27.9678 63.7934 28.0145 63.7945 28.0619V29.7809C63.7946 29.829 63.785 29.8766 63.7666 29.921C63.7481 29.9654 63.721 30.0056 63.6869 30.0392C63.6528 30.0728 63.6124 30.0992 63.5681 30.1169C63.5238 30.1345 63.4764 30.143 63.4288 30.1418H58.8866V32.7203H62.7143C62.8113 32.7203 62.9043 32.7592 62.9729 32.8285C63.0415 32.8978 63.08 32.9918 63.08 33.0898V34.7142C63.0888 34.7676 63.0858 34.8222 63.0714 34.8742C63.0569 34.9262 63.0314 34.9744 62.9965 35.0154C62.9616 35.0564 62.9183 35.0891 62.8695 35.1114C62.8208 35.1336 62.7678 35.1447 62.7143 35.144Z" fill="white"/>
<path d="M131.621 39.6047H134.02C134.099 39.6036 134.177 39.5761 134.24 39.5265C134.303 39.4768 134.348 39.4077 134.368 39.3296L134.879 37.2497H138.187L138.706 39.3296C138.724 39.4092 138.768 39.48 138.832 39.5302C138.896 39.5803 138.974 39.6067 139.055 39.6047H141.437C141.492 39.6053 141.547 39.593 141.596 39.5687C141.646 39.5444 141.689 39.5087 141.723 39.4646C141.757 39.4204 141.78 39.369 141.791 39.3143C141.802 39.2595 141.8 39.203 141.785 39.1491L138.817 27.976C138.8 27.8979 138.756 27.8281 138.695 27.7782C138.633 27.7282 138.556 27.7009 138.477 27.7009H134.589C134.509 27.7005 134.431 27.7274 134.368 27.7773C134.305 27.8272 134.26 27.8972 134.241 27.976L131.272 39.1491C131.259 39.2029 131.259 39.2588 131.27 39.3128C131.282 39.3669 131.305 39.4176 131.339 39.4613C131.372 39.505 131.415 39.5406 131.464 39.5654C131.512 39.5902 131.566 39.6036 131.621 39.6047ZM135.5 34.8947L136.529 30.5458L137.558 34.8947H135.5Z" fill="white"/>
<path d="M149.016 27.7009H144.814C144.719 27.7009 144.628 27.7389 144.561 27.8066C144.494 27.8743 144.456 27.9661 144.456 28.0619V39.2351C144.456 39.3308 144.494 39.4226 144.561 39.4903C144.628 39.558 144.719 39.596 144.814 39.596H147.059C147.154 39.596 147.245 39.558 147.312 39.4903C147.379 39.4226 147.416 39.3308 147.416 39.2351V36.0034H148.854C148.854 36.0034 153.566 36.2699 153.566 31.8522C153.566 27.4345 149.016 27.7009 149.016 27.7009ZM148.922 33.5196H147.416V30.159H148.922C149.168 30.1119 149.421 30.1202 149.663 30.1833C149.906 30.2464 150.131 30.3627 150.324 30.524C150.517 30.6853 150.672 30.8876 150.778 31.1164C150.885 31.3453 150.94 31.595 150.94 31.8479C150.94 32.1007 150.885 32.3505 150.778 32.5793C150.672 32.8082 150.517 33.0104 150.324 33.1717C150.131 33.333 149.906 33.4494 149.663 33.5125C149.421 33.5755 149.168 33.5838 148.922 33.5367V33.5196Z" fill="white"/>
<path d="M126.543 28.0017L125.343 36.7684L123.829 27.9931C123.812 27.9096 123.767 27.8344 123.703 27.7798C123.638 27.7252 123.557 27.6944 123.472 27.6923H120.971C120.886 27.6911 120.803 27.7208 120.738 27.7759C120.672 27.8311 120.628 27.9081 120.614 27.9931L119.083 36.7684L117.884 28.0017C117.871 27.9152 117.828 27.8361 117.763 27.7792C117.697 27.7223 117.613 27.6914 117.527 27.6923H115.085C115.033 27.693 114.982 27.7049 114.935 27.7271C114.888 27.7494 114.846 27.7815 114.813 27.8213C114.779 27.8612 114.754 27.9078 114.739 27.9582C114.725 28.0086 114.721 28.0615 114.728 28.1134L116.684 39.2866C116.702 39.3701 116.746 39.4453 116.811 39.4999C116.876 39.5545 116.957 39.5854 117.042 39.5874H120.64C120.724 39.5854 120.805 39.5545 120.87 39.4999C120.935 39.4453 120.98 39.3701 120.997 39.2866L122.213 32.0241L123.43 39.2866C123.444 39.3701 123.486 39.446 123.55 39.501C123.614 39.556 123.695 39.5866 123.778 39.5874H127.376C127.461 39.5869 127.543 39.5567 127.608 39.5018C127.674 39.4469 127.718 39.3708 127.734 39.2866L129.69 28.1134C129.697 28.0615 129.693 28.0086 129.679 27.9582C129.664 27.9078 129.639 27.8612 129.606 27.8213C129.572 27.7815 129.53 27.7494 129.483 27.7271C129.436 27.7049 129.385 27.693 129.333 27.6923H126.892C126.806 27.6935 126.725 27.7253 126.661 27.782C126.597 27.8387 126.555 27.9166 126.543 28.0017Z" fill="white"/>
<path d="M95.998 27.6923H92.417C92.3223 27.6923 92.2314 27.7303 92.1644 27.798C92.0974 27.8657 92.0598 27.9576 92.0598 28.0533V39.2265C92.0598 39.3222 92.0974 39.414 92.1644 39.4817C92.2314 39.5494 92.3223 39.5875 92.417 39.5875H96.4403C97.2909 39.5875 101.884 39.4413 101.884 33.6227C101.884 27.804 97.2994 27.6064 96.4403 27.6493L95.998 27.6923ZM96.8486 37.1465H95.0623V30.159H96.8486C96.8486 30.159 98.8815 30.0129 98.8815 33.6571C98.8815 37.3013 96.8061 37.1379 96.8061 37.1379L96.8486 37.1465Z" fill="white"/>
<path d="M75.3371 27.6923H73.1C73.0045 27.6945 72.9136 27.7345 72.8469 27.8035C72.7801 27.8726 72.7428 27.9653 72.7428 28.0619V35.0666C72.7641 35.3571 72.7294 35.649 72.6407 35.9261C72.4997 36.2564 72.2462 36.5248 71.9262 36.6824C71.6198 36.8368 71.2819 36.9163 70.9395 36.9145C70.6054 36.9154 70.2759 36.8359 69.9784 36.6824C69.6601 36.5223 69.4073 36.2547 69.2639 35.9261C69.1751 35.649 69.1405 35.3571 69.1618 35.0666V28.0619C69.1618 27.9653 69.1244 27.8726 69.0577 27.8035C68.9909 27.7345 68.9001 27.6945 68.8045 27.6923H66.5675C66.5198 27.6923 66.4727 27.7019 66.4288 27.7206C66.3849 27.7393 66.3451 27.7666 66.3118 27.8011C66.2785 27.8355 66.2524 27.8763 66.2349 27.9211C66.2175 27.9659 66.2091 28.0138 66.2102 28.0619C66.2102 30.4512 66.2102 32.8406 66.2102 35.2299C66.1657 35.922 66.2523 36.6162 66.4654 37.2755C66.8241 38.1103 67.4886 38.7724 68.3197 39.1233C69.15 39.469 70.0417 39.6387 70.9395 39.6218C71.8485 39.6404 72.7517 39.4708 73.5934 39.1233C74.4265 38.7755 75.0919 38.1123 75.4477 37.2755C75.6597 36.6189 75.7463 35.9277 75.7028 35.2385V28.0619C75.704 28.013 75.6954 27.9644 75.6774 27.9191C75.6594 27.8737 75.6325 27.8325 75.5983 27.7979C75.5641 27.7634 75.5233 27.7362 75.4784 27.718C75.4335 27.6999 75.3854 27.6911 75.3371 27.6923Z" fill="white"/>
<path d="M111.862 28.4745C111.717 29.0159 111.572 29.5832 111.436 30.1075C111.424 30.1552 111.402 30.1998 111.371 30.2385C111.341 30.2772 111.303 30.3093 111.26 30.3327C111.217 30.356 111.17 30.3702 111.121 30.3743C111.072 30.3785 111.023 30.3725 110.977 30.3567C110.258 30.0864 109.499 29.9383 108.731 29.9184C107.421 29.9184 107.03 31.2763 108.349 31.8178C109.446 32.1788 110.484 32.7031 111.428 33.3735C111.938 33.8288 112.312 34.4199 112.506 35.0795C112.7 35.739 112.707 36.4404 112.525 37.1036C112.333 37.9214 111.875 38.6504 111.224 39.1739C110.573 39.6975 109.767 39.9853 108.936 39.9914C107.352 40.0609 105.781 39.6701 104.41 38.8655C104.34 38.8203 104.286 38.753 104.257 38.6738C104.227 38.5947 104.225 38.5081 104.249 38.4272C104.436 37.8943 104.64 37.2755 104.819 36.7082C104.835 36.6604 104.86 36.6165 104.894 36.5793C104.927 36.5421 104.968 36.5125 105.014 36.4922C105.06 36.472 105.109 36.4616 105.159 36.4618C105.209 36.462 105.258 36.4728 105.304 36.4934C105.972 36.8239 106.673 37.0803 107.396 37.2583C107.68 37.3542 107.984 37.3793 108.28 37.3314C108.576 37.2836 108.856 37.1641 109.097 36.9833C109.727 36.3473 109.097 35.5136 108.459 35.187C107.319 34.5853 105.992 34.2845 105.167 33.2016C104.721 32.6144 104.456 31.907 104.406 31.1683C104.356 30.4295 104.524 29.6924 104.887 29.0494C105.251 28.4065 105.794 27.8866 106.45 27.5549C107.105 27.2232 107.842 27.0946 108.57 27.1852C109.642 27.2489 110.693 27.5172 111.666 27.976C111.713 27.9936 111.756 28.021 111.791 28.0563C111.827 28.0917 111.855 28.1342 111.874 28.1812C111.892 28.2282 111.9 28.2786 111.898 28.3291C111.896 28.3796 111.884 28.4292 111.862 28.4745Z" fill="white"/>
</g>
<defs>
<clipPath id="clip0_226_73246">
<rect width="154" height="40" fill="white"/>
</clipPath>
</defs>
</svg>
