<svg width="24" height="24" viewBox="0 0 24 24" fill="none" xmlns="http://www.w3.org/2000/svg">
<path fill-rule="evenodd" clip-rule="evenodd" d="M13.7172 1.71538C13.7172 0.76861 12.9497 0.00109863 12.0029 0.00109863C11.0562 0.00109863 10.2886 0.76861 10.2886 1.71538V10.2868H1.71722C0.770441 10.2868 0.00292969 11.0543 0.00292969 12.0011C0.00292969 12.9479 0.770441 13.7154 1.71722 13.7154H10.2886V22.2868C10.2886 23.2336 11.0562 24.0011 12.0029 24.0011C12.9497 24.0011 13.7172 23.2336 13.7172 22.2868V13.7154H22.2886C23.2354 13.7154 24.0029 12.9479 24.0029 12.0011C24.0029 11.0543 23.2354 10.2868 22.2886 10.2868H13.7172V1.71538Z" fill="#7F8A9D"/>
</svg>
