<svg width="16" height="16" viewBox="0 0 16 16" fill="none" xmlns="http://www.w3.org/2000/svg">
<path fill-rule="evenodd" clip-rule="evenodd" d="M6.10685 0.584473L6.13505 0.584474H9.86838L9.89657 0.584473C10.2458 0.584459 10.552 0.584446 10.8052 0.605131C11.0739 0.627086 11.3482 0.676031 11.6142 0.811544C12.0062 1.01128 12.3249 1.32999 12.5246 1.72199C12.6602 1.98795 12.7091 2.26229 12.7311 2.531C12.7517 2.78417 12.7517 3.09034 12.7517 3.4396V3.46781V3.9408C12.7827 3.94286 12.8132 3.9451 12.843 3.94755C13.2229 3.97858 13.5796 4.0457 13.9169 4.21754C14.4343 4.48119 14.855 4.90189 15.1186 5.41933C15.2905 5.7566 15.3576 6.11325 15.3886 6.49314C15.4184 6.85738 15.4184 7.30324 15.4184 7.8374V7.86781V9.33447C15.4184 9.36751 15.4184 9.40007 15.4184 9.43219C15.4188 9.956 15.419 10.3607 15.3247 10.7129C15.0704 11.6619 14.3291 12.4032 13.3801 12.6574C13.1895 12.7085 12.9835 12.7319 12.7516 12.7425C12.7511 13.0177 12.7481 13.2625 12.7311 13.4713C12.7091 13.74 12.6602 14.0143 12.5246 14.2803C12.3249 14.6723 12.0062 14.991 11.6142 15.1907C11.3482 15.3263 11.0739 15.3752 10.8052 15.3972C10.552 15.4178 10.2458 15.4178 9.89654 15.4178H9.86838H6.13505H6.10688C5.75761 15.4178 5.45142 15.4178 5.19824 15.3972C4.92952 15.3752 4.65519 15.3263 4.38923 15.1907C3.99723 14.991 3.67852 14.6723 3.47878 14.2803C3.34327 14.0143 3.29432 13.74 3.27237 13.4713C3.25531 13.2625 3.25233 13.0177 3.25182 12.7425C3.01988 12.7319 2.81388 12.7085 2.62329 12.6574C1.67429 12.4032 0.933033 11.6619 0.678749 10.7129C0.584389 10.3607 0.584656 9.956 0.585002 9.43219C0.585023 9.40007 0.585045 9.36751 0.585045 9.33447V7.86781L0.585044 7.83737C0.585034 7.30322 0.585025 6.85737 0.614784 6.49314C0.645822 6.11325 0.712933 5.7566 0.884777 5.41933C1.14843 4.90189 1.56913 4.48119 2.08657 4.21754C2.42383 4.0457 2.78049 3.97858 3.16037 3.94755C3.19027 3.9451 3.22071 3.94286 3.25171 3.9408V3.46781L3.25171 3.43961C3.2517 3.09035 3.25168 2.78417 3.27237 2.531C3.29432 2.26229 3.34327 1.98795 3.47878 1.72199C3.67852 1.32999 3.99723 1.01128 4.38923 0.811544C4.65519 0.676031 4.92952 0.627086 5.19824 0.605131C5.45141 0.584446 5.75759 0.584459 6.10685 0.584473ZM4.75171 3.91781H11.2517V3.46781C11.2517 3.08206 11.2511 2.83786 11.236 2.65315C11.2217 2.4772 11.1979 2.42224 11.1881 2.40298C11.1322 2.29322 11.043 2.20398 10.9332 2.14805L11.2737 1.4798L10.9332 2.14805C10.9139 2.13824 10.859 2.11453 10.683 2.10015C10.4983 2.08506 10.2541 2.08447 9.86838 2.08447H6.13505C5.7493 2.08447 5.5051 2.08506 5.32039 2.10015C5.14443 2.11453 5.08947 2.13824 5.07022 2.14805C4.96046 2.20398 4.87122 2.29322 4.81529 2.40298C4.80548 2.42224 4.78176 2.4772 4.76739 2.65315C4.7523 2.83786 4.75171 3.08206 4.75171 3.46781V3.91781ZM4.75171 12.0011V12.5345C4.75171 12.9202 4.7523 13.1644 4.76739 13.3491C4.78176 13.5251 4.80548 13.58 4.81529 13.5993C4.87122 13.7091 4.96045 13.7983 5.07022 13.8542C5.08947 13.864 5.14443 13.8878 5.32039 13.9021C5.5051 13.9172 5.7493 13.9178 6.13505 13.9178H9.86838C10.2541 13.9178 10.4983 13.9172 10.683 13.9021C10.859 13.8878 10.9139 13.864 10.9332 13.8542C11.043 13.7983 11.1322 13.7091 11.1881 13.5993C11.1979 13.58 11.2217 13.5251 11.236 13.3491C11.2511 13.1644 11.2517 12.9202 11.2517 12.5345V12.0011V11.4678C11.2517 11.0821 11.2511 10.8379 11.236 10.6532C11.2217 10.4772 11.1979 10.4222 11.1881 10.403C11.1322 10.2932 11.043 10.204 10.9332 10.1481C10.9139 10.1382 10.859 10.1145 10.683 10.1001C10.4983 10.0851 10.2541 10.0845 9.86838 10.0845H6.13505C5.7493 10.0845 5.5051 10.0851 5.32039 10.1001C5.14443 10.1145 5.08947 10.1382 5.07022 10.1481C4.96046 10.204 4.87122 10.2932 4.81529 10.403C4.80548 10.4222 4.78176 10.4772 4.76739 10.6532C4.7523 10.8379 4.75171 11.0821 4.75171 11.4678V12.0011ZM12.7516 11.2407C12.7509 10.9732 12.7477 10.7349 12.7311 10.531C12.7091 10.2623 12.6602 9.98795 12.5246 9.72199C12.3249 9.32999 12.0062 9.01128 11.6142 8.81154C11.3482 8.67603 11.0739 8.62709 10.8052 8.60513C10.552 8.58445 10.2458 8.58446 9.89657 8.58447L9.86838 8.58447H6.13505L6.10686 8.58447C5.7576 8.58446 5.45141 8.58445 5.19824 8.60513C4.92952 8.62709 4.65519 8.67603 4.38923 8.81154C3.99723 9.01128 3.67852 9.32999 3.47878 9.72199C3.34327 9.98795 3.29432 10.2623 3.27237 10.531C3.25571 10.7349 3.25247 10.9732 3.25185 11.2407C3.1385 11.2343 3.0701 11.2242 3.01152 11.2085C2.58016 11.093 2.24322 10.756 2.12764 10.3247C2.09149 10.1897 2.08504 10.0027 2.08504 9.33447V7.86781C2.08504 7.29538 2.08563 6.91116 2.1098 6.61529C2.13326 6.32816 2.17514 6.19088 2.22129 6.10032C2.34113 5.86512 2.53235 5.67389 2.76756 5.55405C2.85812 5.50791 2.9954 5.46602 3.28252 5.44256C3.5784 5.41839 3.96262 5.41781 4.53504 5.41781H11.4684C12.0408 5.41781 12.425 5.41839 12.7209 5.44256C13.008 5.46602 13.1453 5.50791 13.2359 5.55405C13.4711 5.67389 13.6623 5.86512 13.7821 6.10032C13.8283 6.19088 13.8702 6.32816 13.8936 6.61529C13.9178 6.91116 13.9184 7.29538 13.9184 7.86781V9.33447C13.9184 10.0027 13.9119 10.1897 13.8758 10.3247C13.7602 10.756 13.4233 11.093 12.9919 11.2085C12.9333 11.2242 12.8649 11.2343 12.7516 11.2407ZM9.25171 7.00114C9.25171 6.58693 9.5875 6.25114 10.0017 6.25114H12.0017C12.4159 6.25114 12.7517 6.58693 12.7517 7.00114C12.7517 7.41535 12.4159 7.75114 12.0017 7.75114H10.0017C9.5875 7.75114 9.25171 7.41535 9.25171 7.00114Z" fill="#FCFDFF"/>
</svg>
