<svg width="16" height="16" viewBox="0 0 16 16" fill="none" xmlns="http://www.w3.org/2000/svg">
<g clip-path="url(#clip0_569_38638)">
<g clip-path="url(#clip1_569_38638)">
<path fill-rule="evenodd" clip-rule="evenodd" d="M2.85707 3.22642C2.54148 3.22642 2.28564 3.48226 2.28564 3.79785V14.2487C2.28564 14.7054 2.46408 15.145 2.78455 15.4706C3.1053 15.7966 3.54231 15.9814 3.99993 15.9814H11.9999C12.4575 15.9814 12.8946 15.7966 13.2154 15.4706C13.5358 15.145 13.7142 14.7054 13.7142 14.2487V3.79785C13.7142 3.48226 13.4583 3.22642 13.1428 3.22642H2.85707Z" fill="#002462"/>
<path fill-rule="evenodd" clip-rule="evenodd" d="M6.42857 8.14202C6.42857 7.74753 6.10878 7.42774 5.71429 7.42774C5.31979 7.42774 5 7.74753 5 8.14202V12.7152C5 13.1096 5.31979 13.4295 5.71429 13.4295C6.10878 13.4295 6.42857 13.1096 6.42857 12.7152V8.14202ZM11 8.14202C11 7.74753 10.6802 7.42774 10.2857 7.42774C9.89122 7.42774 9.57143 7.74753 9.57143 8.14202V12.7152C9.57143 13.1096 9.89122 13.4295 10.2857 13.4295C10.6802 13.4295 11 13.1096 11 12.7152V8.14202Z" fill="#FFA502"/>
<path fill-rule="evenodd" clip-rule="evenodd" d="M7.99992 1.71429C7.46948 1.71429 6.96078 1.92499 6.58571 2.30007C6.34872 2.53706 6.17735 2.82739 6.08329 3.14286H9.91656C9.82249 2.82739 9.65112 2.53706 9.41414 2.30007C9.03906 1.92499 8.53035 1.71429 7.99992 1.71429ZM11.67 3.14286C11.5495 2.36938 11.1867 1.64831 10.6263 1.08789C9.92976 0.391326 8.98502 0 7.99992 0C7.01483 0 6.07009 0.391326 5.37353 1.08789C4.81311 1.64831 4.45026 2.36938 4.32984 3.14286H1.14279C0.6694 3.14286 0.285645 3.52662 0.285645 4C0.285645 4.47338 0.6694 4.85714 1.14279 4.85714H14.8571C15.3304 4.85714 15.7142 4.47338 15.7142 4C15.7142 3.52662 15.3304 3.14286 14.8571 3.14286H11.67Z" fill="#FFA502"/>
</g>
</g>
<defs>
<clipPath id="clip0_569_38638">
<rect width="16" height="16" fill="white"/>
</clipPath>
<clipPath id="clip1_569_38638">
<rect width="16" height="16" fill="white"/>
</clipPath>
</defs>
</svg>
