<svg width="20" height="20" viewBox="0 0 20 20" fill="none" xmlns="http://www.w3.org/2000/svg">
<g id="wrapper">
<path id="Union" fill-rule="evenodd" clip-rule="evenodd" d="M9.16862 3.25098C5.90093 3.25098 3.25195 5.89996 3.25195 9.16764C3.25195 12.4353 5.90093 15.0843 9.16862 15.0843C10.765 15.0843 12.2138 14.4521 13.2781 13.4243C13.2988 13.3969 13.3216 13.3706 13.3466 13.3456C13.3716 13.3207 13.3979 13.2978 13.4253 13.2771C14.453 12.2128 15.0853 10.764 15.0853 9.16764C15.0853 5.89996 12.4363 3.25098 9.16862 3.25098ZM14.9166 13.855C15.9597 12.5774 16.5853 10.9456 16.5853 9.16764C16.5853 5.07153 13.2647 1.75098 9.16862 1.75098C5.07251 1.75098 1.75195 5.07153 1.75195 9.16764C1.75195 13.2638 5.07251 16.5843 9.16862 16.5843C10.9466 16.5843 12.5784 15.9587 13.8559 14.9156L16.9716 18.0313C17.2645 18.3242 17.7394 18.3242 18.0323 18.0313C18.3252 17.7384 18.3252 17.2635 18.0323 16.9706L14.9166 13.855Z" fill="#314362"/>
</g>
</svg>
