<svg width="17" height="16" viewBox="0 0 17 16" fill="none" xmlns="http://www.w3.org/2000/svg">
<g id="wrapper">
<path id="Union" fill-rule="evenodd" clip-rule="evenodd" d="M7.83553 2.75098C5.30423 2.75098 3.2522 4.803 3.2522 7.33431C3.2522 9.86561 5.30423 11.9176 7.83553 11.9176C9.0682 11.9176 10.1872 11.431 11.0109 10.6394C11.0296 10.6156 11.0499 10.5926 11.0719 10.5706C11.0938 10.5487 11.1168 10.5284 11.1406 10.5097C11.9323 9.68599 12.4189 8.56698 12.4189 7.33431C12.4189 4.803 10.3668 2.75098 7.83553 2.75098ZM12.6348 11.0729C13.4395 10.0415 13.9189 8.74387 13.9189 7.33431C13.9189 3.97458 11.1953 1.25098 7.83553 1.25098C4.4758 1.25098 1.7522 3.97458 1.7522 7.33431C1.7522 10.694 4.4758 13.4176 7.83553 13.4176C9.24509 13.4176 10.5427 12.9382 11.5741 12.1336L13.9719 14.5313C14.2648 14.8242 14.7396 14.8242 15.0325 14.5313C15.3254 14.2384 15.3254 13.7635 15.0325 13.4706L12.6348 11.0729ZM7.08553 4.00098C7.08553 3.58676 7.42132 3.25098 7.83553 3.25098C10.0907 3.25098 11.9189 5.07915 11.9189 7.33431C11.9189 7.74852 11.5831 8.08431 11.1689 8.08431C10.7547 8.08431 10.4189 7.74852 10.4189 7.33431C10.4189 5.90757 9.26227 4.75098 7.83553 4.75098C7.42132 4.75098 7.08553 4.41519 7.08553 4.00098Z" fill="white"/>
</g>
</svg>
