<svg width="64" height="64" viewBox="0 0 64 64" fill="none" xmlns="http://www.w3.org/2000/svg">
<path fill-rule="evenodd" clip-rule="evenodd" d="M19.1976 4.00208H44.8026C46.7161 4.00205 48.303 4.00202 49.6065 4.10267C50.9661 4.20768 52.2189 4.43288 53.4226 4.99067C55.3022 5.86167 56.8875 7.26116 57.9849 9.01824C58.6877 10.1435 59.0666 11.3586 59.3394 12.6948C59.601 13.9756 59.7978 15.5504 60.0351 17.4491L61.3129 27.6713C61.3452 27.9298 61.3393 28.1843 61.2997 28.4291C61.3221 28.7283 61.3334 29.0305 61.3334 29.3354C61.3334 33.1051 59.5952 36.4688 56.8766 38.6688C59.5952 40.8687 61.3334 44.2324 61.3334 48.0021C61.3334 54.6295 55.9609 60.0021 49.3334 60.0021H14.6668C8.03937 60.0021 2.66678 54.6295 2.66678 48.0021C2.66678 44.2324 4.40501 40.8687 7.12368 38.6688C4.40501 36.4688 2.66678 33.1051 2.66678 29.3354C2.66678 29.0305 2.67816 28.7283 2.7005 28.4291C2.6609 28.1843 2.65506 27.9298 2.68738 27.6713L3.96517 17.449C4.20247 15.5503 4.39928 13.9756 4.66083 12.6947C4.93367 11.3586 5.31251 10.1435 6.0153 9.01824C7.11271 7.26116 8.69803 5.86167 10.5777 4.99067C11.7814 4.43288 13.0341 4.20768 14.3938 4.10267C15.6972 4.00202 17.2841 4.00205 19.1976 4.00208ZM9.18917 18.6557C10.8313 17.8117 12.6934 17.3354 14.6668 17.3354H49.3334C51.3068 17.3354 53.1689 17.8117 54.8111 18.6557L54.7556 18.2119C54.5024 16.1863 54.3294 14.817 54.1139 13.7618C53.9051 12.7392 53.6928 12.214 53.4614 11.8435C52.9127 10.965 52.12 10.2652 51.1802 9.82971C50.7839 9.64605 50.2364 9.50054 49.1958 9.42018C48.1221 9.33726 46.7419 9.33541 44.7005 9.33541H19.2997C17.2584 9.33541 15.8782 9.33726 14.8044 9.42018C13.7638 9.50054 13.2163 9.64605 12.82 9.82971C11.8802 10.2652 11.0875 10.965 10.5388 11.8435C10.3074 12.214 10.0951 12.7392 9.88633 13.7618C9.67087 14.8169 9.49785 16.1862 9.24465 18.2119L9.18917 18.6557ZM14.6668 41.3354C10.9849 41.3354 8.00012 44.3202 8.00012 48.0021C8.00012 51.684 10.9849 54.6687 14.6668 54.6687H49.3334C53.0153 54.6687 56.0001 51.684 56.0001 48.0021C56.0001 44.3202 53.0153 41.3354 49.3334 41.3354H14.6668ZM49.3334 36.0021C53.0153 36.0021 56.0001 33.0173 56.0001 29.3354C56.0001 25.6535 53.0153 22.6687 49.3334 22.6687H14.6668C10.9849 22.6687 8.00012 25.6535 8.00012 29.3354C8.00012 33.0173 10.9849 36.0021 14.6668 36.0021H49.3334ZM13.3335 29.3354C13.3335 27.8627 14.5274 26.6687 16.0001 26.6687H16.0268C17.4995 26.6687 18.6935 27.8627 18.6935 29.3354C18.6935 30.8082 17.4995 32.0021 16.0268 32.0021H16.0001C14.5274 32.0021 13.3335 30.8082 13.3335 29.3354ZM29.3334 29.3354C29.3334 27.8627 30.5274 26.6687 32.0001 26.6687H48.0001C49.4729 26.6687 50.6668 27.8627 50.6668 29.3354C50.6668 30.8082 49.4729 32.0021 48.0001 32.0021H32.0001C30.5274 32.0021 29.3334 30.8082 29.3334 29.3354ZM13.3335 48.0021C13.3335 46.5293 14.5274 45.3354 16.0001 45.3354H16.0268C17.4995 45.3354 18.6935 46.5293 18.6935 48.0021C18.6935 49.4748 17.4995 50.6687 16.0268 50.6687H16.0001C14.5274 50.6687 13.3335 49.4748 13.3335 48.0021ZM29.3334 48.0021C29.3334 46.5293 30.5274 45.3354 32.0001 45.3354H48.0001C49.4729 45.3354 50.6668 46.5293 50.6668 48.0021C50.6668 49.4748 49.4729 50.6687 48.0001 50.6687H32.0001C30.5274 50.6687 29.3334 49.4748 29.3334 48.0021Z" fill="#FCFCFF"/>
</svg>
