<svg width="64" height="64" viewBox="0 0 64 64" fill="none" xmlns="http://www.w3.org/2000/svg">
<path fill-rule="evenodd" clip-rule="evenodd" d="M31.2372 2.90492C31.7431 2.83182 32.2568 2.83182 32.7627 2.90492C33.3457 2.98917 33.8883 3.19412 34.319 3.35685C34.3584 3.37175 34.3969 3.38629 34.4344 3.40035L48.7326 8.76215C48.8496 8.80605 48.9658 8.84941 49.0809 8.89241C50.7284 9.50748 52.1752 10.0476 53.2893 11.0295C54.264 11.8885 55.0149 12.972 55.4769 14.1862C56.0051 15.5743 56.0029 17.1186 56.0003 18.8771C56.0001 19 56 19.124 56 19.249V32.0021C56 39.5398 51.9005 45.824 47.4692 50.4405C43.0081 55.088 37.904 58.3706 35.205 59.9451C35.1694 59.9659 35.133 59.9873 35.0958 60.0091C34.6033 60.2984 33.964 60.6738 33.1183 60.8551C32.4264 61.0035 31.5736 61.0035 30.8817 60.8551C30.036 60.6738 29.3967 60.2984 28.9042 60.0091C28.8669 59.9873 28.8305 59.9659 28.7949 59.9451C26.096 58.3706 20.9919 55.088 16.5308 50.4405C12.0994 45.824 7.99997 39.5398 7.99997 32.0021V19.249C7.99997 19.124 7.99979 19 7.99962 18.8771C7.99707 17.1186 7.99483 15.5743 8.52302 14.1862C8.98507 12.972 9.7359 11.8885 10.7106 11.0295C11.8248 10.0476 13.2716 9.50747 14.919 8.8924C15.0342 8.84941 15.1503 8.80605 15.2674 8.76215L29.5655 3.40035C29.603 3.38629 29.6415 3.37175 29.6809 3.35685C30.1117 3.19412 30.6542 2.98917 31.2372 2.90492ZM31.9919 8.19216C31.883 8.22787 31.7353 8.2827 31.4382 8.39411L17.14 13.7559C14.9394 14.5811 14.5159 14.7849 14.2369 15.0308C13.912 15.3171 13.6617 15.6783 13.5077 16.083C13.3754 16.4307 13.3333 16.8988 13.3333 19.249V32.0021C13.3333 37.5536 16.3725 42.5739 20.3784 46.7473C24.3547 50.8897 28.9866 53.8824 31.4824 55.3384C31.635 55.4274 31.745 55.4915 31.8407 55.5454C31.9158 55.5877 31.9657 55.6143 32 55.6317C32.0342 55.6143 32.0842 55.5877 32.1593 55.5454C32.2549 55.4915 32.365 55.4274 32.5175 55.3384C35.0134 53.8824 39.6453 50.8897 43.6215 46.7473C47.6275 42.5739 50.6666 37.5536 50.6666 32.0021V19.249C50.6666 16.8987 50.6246 16.4307 50.4923 16.083C50.3383 15.6783 50.088 15.3171 49.7631 15.0308C49.484 14.7849 49.0605 14.5811 46.8599 13.7559L32.5618 8.3941C32.2647 8.2827 32.1169 8.22787 32.008 8.19216C32.0052 8.19124 32.0026 8.19037 32 8.18953C31.9974 8.19037 31.9947 8.19124 31.9919 8.19216ZM43.2189 22.1165C44.2603 23.1579 44.2603 24.8463 43.2189 25.8877L31.2189 37.8877C30.1775 38.9291 28.4891 38.9291 27.4477 37.8877L22.1144 32.5544C21.073 31.513 21.073 29.8245 22.1144 28.7831C23.1558 27.7417 24.8442 27.7417 25.8856 28.7831L29.3333 32.2309L39.4477 22.1165C40.4891 21.0751 42.1775 21.0751 43.2189 22.1165Z" fill="#FCFCFF"/>
</svg>
