<svg width="190" height="191" viewBox="0 0 190 191" fill="none" xmlns="http://www.w3.org/2000/svg">
<g filter="url(#filter0_d_724_187250)">
<path d="M135 77C135 99.0914 117.091 117 95 117C72.9086 117 55 99.0914 55 77C55 54.9086 72.9086 37 95 37C117.091 37 135 54.9086 135 77Z" fill="#081939"/>
<path d="M135 77C135 99.0914 117.091 117 95 117C72.9086 117 55 99.0914 55 77C55 54.9086 72.9086 37 95 37C117.091 37 135 54.9086 135 77Z" fill="url(#paint0_radial_724_187250)" fill-opacity="0.9"/>
<path d="M135 77C135 99.0914 117.091 117 95 117C72.9086 117 55 99.0914 55 77C55 54.9086 72.9086 37 95 37C117.091 37 135 54.9086 135 77Z" fill="url(#paint1_radial_724_187250)" fill-opacity="0.85"/>
<path d="M135 77C135 99.0914 117.091 117 95 117C72.9086 117 55 99.0914 55 77C55 54.9086 72.9086 37 95 37C117.091 37 135 54.9086 135 77Z" fill="url(#paint2_radial_724_187250)" fill-opacity="0.8"/>
<path d="M135 77C135 99.0914 117.091 117 95 117C72.9086 117 55 99.0914 55 77C55 54.9086 72.9086 37 95 37C117.091 37 135 54.9086 135 77Z" fill="url(#paint3_radial_724_187250)" fill-opacity="0.88"/>
</g>
<path d="M80.6632 55.0258C77.5868 45.3217 91.7884 45.0881 96.7578 56.4464C99.2705 62.1895 98.7885 70.3546 98.2485 78.5385C90.526 69.464 82.2762 60.1138 80.6632 55.0258Z" fill="url(#paint4_linear_724_187250)"/>
<path d="M100.464 104.731C125.8 100.259 136.483 78.3439 126.896 64.3978C122.424 57.8935 115.422 59.101 100.464 59.9968C85.5057 60.8926 70.6393 63.4048 70.639 82.9553C70.6388 102.506 88.822 106.785 100.464 104.731Z" fill="url(#paint5_radial_724_187250)"/>
<path d="M100.464 104.731C125.8 100.259 136.483 78.3439 126.896 64.3978C122.424 57.8935 115.422 59.101 100.464 59.9968C85.5057 60.8926 70.6393 63.4048 70.639 82.9553C70.6388 102.506 88.822 106.785 100.464 104.731Z" fill="url(#paint6_linear_724_187250)"/>
<g style="mix-blend-mode:hard-light">
<path d="M77.976 81.7717C77.9755 68.6948 82.017 56.4969 84.0505 50.722C84.8872 48.3458 88.0185 47.6693 90.1061 49.0793C93.6608 51.2228 100.822 56.43 108.051 61.422C115.563 66.6096 126.395 72.3446 121.424 89.3511C117.657 102.236 99.2778 101.653 99.2778 101.653C99.2778 101.653 77.9766 101.299 77.976 81.7717Z" fill="url(#paint7_linear_724_187250)"/>
</g>
<path d="M119.082 101.057C129.496 91.9445 133.112 72.897 126.129 61.0631C119.147 49.2291 109.199 46.4734 100.922 46.8614C92.6454 47.2494 75.8335 52.4247 75.1234 71.0035C74.4133 89.5822 84.0758 97.4625 94.1823 106.341C98.0874 109.772 108.668 110.169 119.082 101.057Z" fill="url(#paint8_linear_724_187250)"/>
<path d="M82.9009 95.4148C83.4964 95.767 84.0283 96.1095 84.4257 96.4654C89.6095 101.108 97.5563 100.615 105.972 98.4142C114.848 96.0929 129.245 91.9098 131.583 80.8319C132.907 74.5561 128.102 66.126 121.656 59.286C115.785 53.0552 108.621 48.144 102.132 47.3827C100.507 47.1919 98.5225 47.1739 96.3935 47.4509C84.0671 49.994 77.4131 56.8858 76.3968 70.9109C75.3805 84.9361 76.5276 87.6435 82.9009 95.4148Z" fill="url(#paint9_linear_724_187250)" fill-opacity="0.78"/>
<g style="mix-blend-mode:color-dodge">
<path d="M67.7579 80.6286C65.8269 67.2132 71.5161 52.7506 84.5274 52.7506C94.7995 52.7506 100.604 60.6036 108.496 65.7619C118.187 72.0967 125.616 76.4653 125.616 82.882C125.616 94.5237 108.259 100.707 91.7035 94.0793C79.6241 89.2438 69.6889 94.044 67.7579 80.6286Z" fill="url(#paint10_radial_724_187250)" fill-opacity="0.8"/>
</g>
<path d="M67.7579 80.6286C65.8269 67.2132 71.5161 52.7506 84.5274 52.7506C94.7995 52.7506 100.604 60.6036 108.496 65.7619C118.187 72.0967 125.616 76.4653 125.616 82.882C125.616 94.5237 108.259 100.707 91.7035 94.0793C79.6241 89.2438 69.6889 94.044 67.7579 80.6286Z" fill="url(#paint11_linear_724_187250)"/>
<path d="M99.2438 100.351C103.504 112.067 114.274 108.397 112.616 99.1672C111.828 94.7768 105.255 86.7707 98.2488 78.5377C97.7209 86.5393 97.1376 94.5589 99.2438 100.351Z" fill="url(#paint12_radial_724_187250)"/>
<path d="M99.2438 100.351C103.504 112.067 114.274 108.397 112.616 99.1672C111.828 94.7768 105.255 86.7707 98.2488 78.5377C97.7209 86.5393 97.1376 94.5589 99.2438 100.351Z" fill="url(#paint13_linear_724_187250)"/>
<g filter="url(#filter1_df_724_187250)">
<path d="M105.071 76.2424C105.071 81.805 100.562 86.3144 94.9993 86.3144C89.4367 86.3144 84.9274 81.805 84.9274 76.2424C84.9274 74.1036 85.594 72.1205 86.7309 70.4896C87.8809 68.8398 88.6613 68.6256 87.347 67.1035C85.6397 65.1263 84.1388 62.674 92.506 61.3524C100.311 60.119 104.237 59.6568 102.132 66.8591C101.652 68.5037 102.183 68.9785 103.183 70.3696C104.371 72.0229 105.071 74.0509 105.071 76.2424Z" fill="white"/>
</g>
<defs>
<filter id="filter0_d_724_187250" x="0" y="1" width="190" height="190" filterUnits="userSpaceOnUse" color-interpolation-filters="sRGB">
<feFlood flood-opacity="0" result="BackgroundImageFix"/>
<feColorMatrix in="SourceAlpha" type="matrix" values="0 0 0 0 0 0 0 0 0 0 0 0 0 0 0 0 0 0 127 0" result="hardAlpha"/>
<feOffset dy="19"/>
<feGaussianBlur stdDeviation="27.5"/>
<feColorMatrix type="matrix" values="0 0 0 0 0.121569 0 0 0 0 0.145098 0 0 0 0 0.258824 0 0 0 0.45 0"/>
<feBlend mode="normal" in2="BackgroundImageFix" result="effect1_dropShadow_724_187250"/>
<feBlend mode="normal" in="SourceGraphic" in2="effect1_dropShadow_724_187250" result="shape"/>
</filter>
<filter id="filter1_df_724_187250" x="24.9274" y="0.630859" width="160.144" height="165.684" filterUnits="userSpaceOnUse" color-interpolation-filters="sRGB">
<feFlood flood-opacity="0" result="BackgroundImageFix"/>
<feColorMatrix in="SourceAlpha" type="matrix" values="0 0 0 0 0 0 0 0 0 0 0 0 0 0 0 0 0 0 127 0" result="hardAlpha"/>
<feOffset dx="10" dy="10"/>
<feGaussianBlur stdDeviation="35"/>
<feColorMatrix type="matrix" values="0 0 0 0 1 0 0 0 0 1 0 0 0 0 1 0 0 0 1 0"/>
<feBlend mode="normal" in2="BackgroundImageFix" result="effect1_dropShadow_724_187250"/>
<feBlend mode="normal" in="SourceGraphic" in2="effect1_dropShadow_724_187250" result="shape"/>
<feGaussianBlur stdDeviation="12.5" result="effect2_foregroundBlur_724_187250"/>
</filter>
<radialGradient id="paint0_radial_724_187250" cx="0" cy="0" r="1" gradientUnits="userSpaceOnUse" gradientTransform="translate(81.9823 50.1363) rotate(63.1327) scale(30.1144 35.7238)">
<stop stop-color="#7D7194"/>
<stop offset="1" stop-color="#7D7194" stop-opacity="0"/>
</radialGradient>
<radialGradient id="paint1_radial_724_187250" cx="0" cy="0" r="1" gradientUnits="userSpaceOnUse" gradientTransform="translate(132.87 64.1008) rotate(161.19) scale(40.0066)">
<stop stop-color="#4A8F9F"/>
<stop offset="1" stop-color="#4A8F9F" stop-opacity="0"/>
</radialGradient>
<radialGradient id="paint2_radial_724_187250" cx="0" cy="0" r="1" gradientUnits="userSpaceOnUse" gradientTransform="translate(108.255 114.87) rotate(-108.939) scale(25.5238)">
<stop stop-color="#5C4763"/>
<stop offset="1" stop-color="#5C4763" stop-opacity="0"/>
</radialGradient>
<radialGradient id="paint3_radial_724_187250" cx="0" cy="0" r="1" gradientUnits="userSpaceOnUse" gradientTransform="translate(51.4497 91.4381) rotate(-18.3418) scale(45.8812 63.7761)">
<stop stop-color="#3D3041"/>
<stop offset="1" stop-color="#3D3041" stop-opacity="0"/>
</radialGradient>
<linearGradient id="paint4_linear_724_187250" x1="80.2314" y1="54.5527" x2="97.3841" y2="51.7125" gradientUnits="userSpaceOnUse">
<stop stop-color="#E375A0"/>
<stop offset="1" stop-color="#E375A0" stop-opacity="0"/>
</linearGradient>
<radialGradient id="paint5_radial_724_187250" cx="0" cy="0" r="1" gradientUnits="userSpaceOnUse" gradientTransform="translate(85.0766 66.1505) rotate(69.3339) scale(28.838 34.7352)">
<stop stop-color="#B850C1"/>
<stop offset="1" stop-color="#DCADE0" stop-opacity="0"/>
</radialGradient>
<linearGradient id="paint6_linear_724_187250" x1="102.414" y1="59.2384" x2="102.146" y2="68.2141" gradientUnits="userSpaceOnUse">
<stop stop-color="#B850C1"/>
<stop offset="1" stop-color="#DCADE0" stop-opacity="0"/>
</linearGradient>
<linearGradient id="paint7_linear_724_187250" x1="82.4731" y1="87.9256" x2="104.722" y2="79.4048" gradientUnits="userSpaceOnUse">
<stop stop-color="#7EA1E4"/>
<stop offset="1" stop-color="#70CBFF" stop-opacity="0"/>
</linearGradient>
<linearGradient id="paint8_linear_724_187250" x1="129.616" y1="74.671" x2="102.414" y2="86.9298" gradientUnits="userSpaceOnUse">
<stop stop-color="#5BAEEC"/>
<stop offset="1" stop-color="#5BAEEC" stop-opacity="0"/>
</linearGradient>
<linearGradient id="paint9_linear_724_187250" x1="84.7306" y1="71.7867" x2="120.81" y2="78.4944" gradientUnits="userSpaceOnUse">
<stop stop-color="#85FAFE" stop-opacity="0"/>
<stop offset="1" stop-color="#85FAFE"/>
</linearGradient>
<radialGradient id="paint10_radial_724_187250" cx="0" cy="0" r="1" gradientUnits="userSpaceOnUse" gradientTransform="translate(82.8551 59.6401) rotate(84.3771) scale(26.4004 29.4861)">
<stop stop-color="#65ECE8"/>
<stop offset="1" stop-color="#8BECE9" stop-opacity="0"/>
</radialGradient>
<linearGradient id="paint11_linear_724_187250" x1="114.739" y1="89.6481" x2="122.509" y2="74.7781" gradientUnits="userSpaceOnUse">
<stop stop-color="#7BE7F6" stop-opacity="0"/>
<stop offset="0.75" stop-color="#7BE7F6"/>
</linearGradient>
<radialGradient id="paint12_radial_724_187250" cx="0" cy="0" r="1" gradientUnits="userSpaceOnUse" gradientTransform="translate(100.935 104.967) rotate(-68.2079) scale(16.5796 21.2862)">
<stop stop-color="#E375A0" stop-opacity="0"/>
<stop offset="1" stop-color="#FF91C6"/>
</radialGradient>
<linearGradient id="paint13_linear_724_187250" x1="99.2778" y1="82.0082" x2="100.461" y2="90.0555" gradientUnits="userSpaceOnUse">
<stop stop-color="white"/>
<stop offset="1" stop-color="white" stop-opacity="0"/>
</linearGradient>
</defs>
</svg>
