<svg width="32" height="32" viewBox="0 0 32 32" fill="none" xmlns="http://www.w3.org/2000/svg">
<path d="M32.0039 16.0012C32.0039 20.2447 30.3182 24.3143 27.3176 27.3149C24.317 30.3155 20.2474 32.0012 16.0039 32.0012C11.7604 32.0012 7.69078 30.3155 4.6902 27.3149C1.68962 24.3143 0.00390625 20.2447 0.00390625 16.0012C0.00390625 11.7578 1.68962 7.68809 4.6902 4.68751C7.69078 1.68693 11.7604 0.0012207 16.0039 0.0012207C20.2474 0.0012207 24.317 1.68693 27.3176 4.68751C30.3182 7.68809 32.0039 11.7578 32.0039 16.0012ZM24.0639 9.94122C23.921 9.79886 23.7509 9.68677 23.5638 9.61165C23.3766 9.53654 23.1762 9.49994 22.9746 9.50404C22.7729 9.50815 22.5742 9.55288 22.3902 9.63556C22.2062 9.71823 22.0409 9.83716 21.9039 9.98522L14.9579 18.8352L10.7719 14.6472C10.4876 14.3823 10.1115 14.238 9.72286 14.2449C9.33426 14.2517 8.96349 14.4092 8.68866 14.684C8.41384 14.9588 8.25641 15.3296 8.24956 15.7182C8.2427 16.1068 8.38695 16.4829 8.65191 16.7672L13.9439 22.0612C14.0865 22.2035 14.2562 22.3157 14.4431 22.3909C14.6299 22.4662 14.83 22.5031 15.0314 22.4993C15.2328 22.4956 15.4314 22.4513 15.6153 22.3692C15.7992 22.2871 15.9647 22.1687 16.1019 22.0212L24.0859 12.0412C24.3581 11.7582 24.5085 11.3798 24.5047 10.9871C24.501 10.5945 24.3434 10.219 24.0659 9.94122H24.0639Z" fill="#FFB632"/>
</svg>
