<svg width="16" height="16" viewBox="0 0 16 16" fill="none" xmlns="http://www.w3.org/2000/svg">
<g clip-path="url(#clip0_4886_83638)">
<g clip-path="url(#clip1_4886_83638)">
<path d="M0 1.71378C0 1.0826 0.511674 0.570923 1.14286 0.570923H6.85714C7.48832 0.570923 8 1.0826 8 1.71378V7.42806C8 8.05925 7.48832 8.57092 6.85714 8.57092H1.14286C0.511674 8.57092 0 8.05925 0 7.42806V1.71378Z" fill="#FFA502"/>
<path fill-rule="evenodd" clip-rule="evenodd" d="M9.71429 1.14291C9.71429 0.669522 10.098 0.285767 10.5714 0.285767H15.1429C15.6162 0.285767 16 0.669522 16 1.14291C16 1.61629 15.6162 2.00005 15.1429 2.00005H10.5714C10.098 2.00005 9.71429 1.61629 9.71429 1.14291ZM9.71429 4.57148C9.71429 4.0981 10.098 3.71434 10.5714 3.71434H15.1429C15.6162 3.71434 16 4.0981 16 4.57148C16 5.04486 15.6162 5.42862 15.1429 5.42862H10.5714C10.098 5.42862 9.71429 5.04486 9.71429 4.57148ZM10.5714 7.14291C10.098 7.14291 9.71429 7.52667 9.71429 8.00005C9.71429 8.47344 10.098 8.8572 10.5714 8.8572H15.1429C15.6162 8.8572 16 8.47344 16 8.00005C16 7.52667 15.6162 7.14291 15.1429 7.14291H10.5714ZM0 11.4286C0 10.9552 0.383755 10.5715 0.857143 10.5715H15.1429C15.6162 10.5715 16 10.9552 16 11.4286C16 11.902 15.6162 12.2858 15.1429 12.2858H0.857143C0.383755 12.2858 0 11.902 0 11.4286ZM0.857143 14.0001C0.383755 14.0001 0 14.3838 0 14.8572C0 15.3306 0.383755 15.7143 0.857143 15.7143H15.1429C15.6162 15.7143 16 15.3306 16 14.8572C16 14.3838 15.6162 14.0001 15.1429 14.0001H0.857143Z" fill="#002462"/>
</g>
</g>
<defs>
<clipPath id="clip0_4886_83638">
<rect width="16" height="16" fill="white"/>
</clipPath>
<clipPath id="clip1_4886_83638">
<rect width="16" height="16" fill="white"/>
</clipPath>
</defs>
</svg>
