<svg width="32" height="29" viewBox="0 0 32 29" fill="none" xmlns="http://www.w3.org/2000/svg">
<g id="no-poverty">
<path id="Union" fill-rule="evenodd" clip-rule="evenodd" d="M7.23205 8.198C9.39742 8.198 11.1528 6.44262 11.1528 4.27722C11.1528 2.11183 9.39742 0.356445 7.23205 0.356445C5.06665 0.356445 3.31125 2.11183 3.31125 4.27722C3.31125 6.44262 5.06665 8.198 7.23205 8.198ZM24.7684 8.198C26.9336 8.198 28.6891 6.44262 28.6891 4.27722C28.6891 2.11183 26.9336 0.356445 24.7684 0.356445C22.6029 0.356445 20.8475 2.11183 20.8475 4.27722C20.8475 6.44262 22.6029 8.198 24.7684 8.198ZM24.7684 9.01553C23.1311 9.01553 21.6246 9.57574 20.4302 10.5149C21.8681 11.7578 22.7781 13.5951 22.7781 15.6449C22.7781 16.1737 22.7175 16.6884 22.6029 17.1824H30.6495C31.2806 17.1824 31.7924 16.6708 31.7924 16.0396C31.7924 12.1603 28.6477 9.01553 24.7684 9.01553ZM7.23205 9.01553C8.86933 9.01553 10.3758 9.57574 11.5702 10.5149C10.1322 11.7578 9.22224 13.5951 9.22224 15.6449C9.22224 16.1737 9.28281 16.6884 9.39737 17.1824H1.35086C0.719682 17.1824 0.208008 16.6708 0.208008 16.0396C0.208008 12.1603 3.35278 9.01553 7.23205 9.01553ZM16.0002 19.5657C18.1656 19.5657 19.9209 17.8103 19.9209 15.6449C19.9209 13.4795 18.1656 11.7241 16.0002 11.7241C13.8348 11.7241 12.0794 13.4795 12.0794 15.6449C12.0794 17.8103 13.8348 19.5657 16.0002 19.5657ZM8.97614 27.4072C8.97614 23.5281 12.1209 20.3832 16.0002 20.3832C19.8794 20.3832 23.0241 23.5281 23.0241 27.4072C23.0241 28.0385 22.5125 28.55 21.8814 28.55H10.119C9.48782 28.55 8.97614 28.0385 8.97614 27.4072Z" fill="#002462"/>
</g>
</svg>
