<svg width="16" height="16" viewBox="0 0 16 16" fill="none" xmlns="http://www.w3.org/2000/svg">
<g clip-path="url(#clip0_2785_184420)">
<path d="M9.0197 5.56856C8.63809 5.84062 8.17109 6.00065 7.66671 6.00065C6.37804 6.00065 5.33337 4.95598 5.33337 3.66732C5.33337 2.37865 6.37804 1.33398 7.66671 1.33398C8.50203 1.33398 9.23484 1.77293 9.64705 2.43275M4.00004 13.3921H5.74023C5.96713 13.3921 6.19263 13.4191 6.41258 13.4731L8.2513 13.9199C8.65027 14.0171 9.06589 14.0265 9.46902 13.9483L11.502 13.5527C12.0391 13.4481 12.5331 13.1909 12.9203 12.8143L14.3586 11.4151C14.7694 11.0162 14.7694 10.3689 14.3586 9.96936C13.9888 9.60961 13.4032 9.56911 12.9848 9.87419L11.3084 11.0972C11.0684 11.2727 10.7762 11.3672 10.4758 11.3672H8.85704L9.88742 11.3672C10.4682 11.3672 10.9386 10.9095 10.9386 10.3446V10.1401C10.9386 9.67098 10.6104 9.26196 10.1428 9.14856L8.55244 8.76181C8.29363 8.69904 8.02858 8.66732 7.76213 8.66732C7.11893 8.66732 5.95464 9.19986 5.95464 9.19986L4.00004 10.0172M13.3334 4.33398C13.3334 5.62265 12.2887 6.66732 11 6.66732C9.71138 6.66732 8.66671 5.62265 8.66671 4.33398C8.66671 3.04532 9.71138 2.00065 11 2.00065C12.2887 2.00065 13.3334 3.04532 13.3334 4.33398ZM1.33337 9.73398L1.33337 13.6007C1.33337 13.974 1.33337 14.1607 1.40604 14.3033C1.46995 14.4288 1.57194 14.5307 1.69738 14.5947C1.83999 14.6673 2.02667 14.6673 2.40004 14.6673H2.93337C3.30674 14.6673 3.49343 14.6673 3.63603 14.5947C3.76148 14.5307 3.86346 14.4288 3.92738 14.3033C4.00004 14.1607 4.00004 13.974 4.00004 13.6007V9.73398C4.00004 9.36062 4.00004 9.17393 3.92738 9.03132C3.86346 8.90588 3.76148 8.8039 3.63603 8.73998C3.49343 8.66732 3.30674 8.66732 2.93337 8.66732L2.40004 8.66732C2.02667 8.66732 1.83999 8.66732 1.69738 8.73998C1.57194 8.8039 1.46995 8.90588 1.40604 9.03132C1.33337 9.17393 1.33337 9.36062 1.33337 9.73398Z" stroke="#314362" stroke-width="1.5" stroke-linecap="round" stroke-linejoin="round"/>
</g>
<defs>
<clipPath id="clip0_2785_184420">
<rect width="16" height="16" fill="white"/>
</clipPath>
</defs>
</svg>
