<svg width="16" height="16" viewBox="0 0 16 16" fill="none" xmlns="http://www.w3.org/2000/svg">
<g id="tickets--hobby-ticket-event-entertainment-stub-theater-entertainment-culture">
<path id="Union" d="M14.8754 3.99338C14.5734 3.86898 14.2336 4.03327 14.0218 4.28207C14.0074 4.29903 13.9927 4.31572 13.9775 4.33211C13.8261 4.4961 13.6429 4.62762 13.4391 4.71873C13.2353 4.80982 13.0152 4.85861 12.792 4.86212C12.5688 4.86563 12.3472 4.8238 12.1406 4.73915C11.9341 4.6545 11.7469 4.52879 11.5903 4.36965C11.4338 4.21052 11.3112 4.02126 11.23 3.81334C11.1487 3.60542 11.1105 3.38318 11.1177 3.16007C11.1188 3.12773 11.1208 3.09547 11.1237 3.06332C11.1523 2.74942 11.0407 2.40699 10.7554 2.27313L10.2598 2.04063C9.98958 1.92803 9.68584 1.92652 9.41453 2.03645C9.1432 2.14638 8.92617 2.35889 8.81055 2.62783L5.16262 11.0542L4.6129 12.3035C4.50029 12.5738 4.49879 12.8774 4.60872 13.1487C4.71865 13.4202 4.93116 13.6371 5.2001 13.7527L10.2725 15.9141C10.5427 16.0268 10.8464 16.0283 11.1178 15.9183C11.3891 15.8084 11.6061 15.5959 11.7217 15.3269L15.9193 5.61379C16.024 5.35406 16.0269 5.06439 15.9273 4.80268C15.8277 4.54095 15.633 4.32645 15.3822 4.20202L14.8754 3.99338Z" fill="#002462"/>
<path id="Subtract" fill-rule="evenodd" clip-rule="evenodd" d="M1.93768 2.27931C1.72357 2.03255 1.38384 1.86781 1.08173 1.99221L0.602094 2.1897C0.357621 2.31097 0.167903 2.52001 0.0708476 2.77506C-0.026208 3.03011 -0.023456 3.3124 0.0785567 3.56551L3.45713 11.3834L3.85332 10.483L7.49813 2.06389L7.49898 2.06187C7.51785 2.01809 7.5379 1.97496 7.55909 1.93253L7.00629 0.655618C6.89361 0.393522 6.68212 0.186437 6.4177 0.0793039C6.15329 -0.0278287 5.85729 -0.026364 5.59396 0.0833801L5.12417 0.303771C4.83882 0.437642 4.72751 0.780349 4.75332 1.09449C4.7555 1.12102 4.75702 1.14763 4.75787 1.17431C4.76488 1.39173 4.72768 1.60831 4.64852 1.81093C4.56935 2.01354 4.44986 2.19799 4.29732 2.35307C4.14477 2.50815 3.96232 2.63065 3.76104 2.71314C3.55975 2.79565 3.34382 2.83641 3.12631 2.83299C2.9088 2.82958 2.69424 2.78203 2.49565 2.69325C2.29706 2.60447 2.11856 2.47629 1.97096 2.31648C1.95967 2.30426 1.94857 2.29186 1.93768 2.27931Z" fill="#FFA502"/>
</g>
</svg>
