<svg width="16" height="16" viewBox="0 0 16 16" fill="none" xmlns="http://www.w3.org/2000/svg">
<g id="receipt--shop-shopping-pay-payment-store-cash-bill-receipt">
<path id="Subtract" fill-rule="evenodd" clip-rule="evenodd" d="M0.836838 0.836838C1.37265 0.301019 2.09938 0 2.85714 0H13.7143C13.7874 0 13.8573 0.0137312 13.9216 0.0387553C13.1497 0.205717 12.5714 0.892467 12.5714 1.71429V2.28571V6.85714V15.4286C12.5714 15.6344 12.4607 15.8243 12.2815 15.9258C12.1024 16.0273 11.8825 16.0245 11.7061 15.9185L9.14286 14.3807L6.57971 15.9185C6.39875 16.0272 6.17267 16.0272 5.99171 15.9185L3.42857 14.3807L0.865426 15.9185C0.688894 16.0245 0.469034 16.0273 0.289887 15.9258C0.110739 15.8243 0 15.6344 0 15.4286V2.85714C0 2.09938 0.301019 1.37265 0.836838 0.836838Z" fill="#002462"/>
<path id="Union" fill-rule="evenodd" clip-rule="evenodd" d="M6.28579 2.28516C6.75917 2.28516 7.14293 2.66892 7.14293 3.1423V3.74541C7.66549 3.83325 8.12818 4.09853 8.4655 4.47542C8.66174 4.69468 8.81677 4.9528 8.91744 5.2376C9.07518 5.68393 8.84125 6.17364 8.39492 6.3314C7.9486 6.48914 7.45889 6.25521 7.30114 5.80888C7.27637 5.73881 7.23785 5.67424 7.18813 5.6187C7.08227 5.50042 6.93116 5.42801 6.76201 5.42801H5.65626C5.42538 5.42801 5.23821 5.61518 5.23821 5.84605C5.23821 6.0425 5.37501 6.21245 5.56692 6.25444L7.25046 6.62271C8.30009 6.85231 9.04772 7.7822 9.04772 8.85604C9.04772 9.98828 8.22426 10.9292 7.14293 11.1107V11.7137C7.14293 12.1871 6.75917 12.5709 6.28579 12.5709C5.81241 12.5709 5.42865 12.1871 5.42865 11.7137V11.1107C4.6018 10.972 3.92675 10.3895 3.65421 9.61838C3.49646 9.17206 3.73039 8.68236 4.17673 8.5246C4.62305 8.36685 5.11276 8.60078 5.27051 9.04711C5.34937 9.2702 5.56218 9.42798 5.80964 9.42798H6.76201C7.07718 9.42798 7.33343 9.17202 7.33343 8.85604C7.33343 8.5872 7.14615 8.35471 6.88412 8.2974L5.20059 7.92912C4.22166 7.71498 3.52393 6.84812 3.52393 5.84605C3.52393 4.74529 4.35802 3.83934 5.42865 3.72573V3.1423C5.42865 2.66892 5.81241 2.28516 6.28579 2.28516Z" fill="#FFA502"/>
<path id="Vector 1296" d="M12.5713 1.71429V6.85714H14.857C15.4882 6.85714 15.9999 6.34546 15.9999 5.71429V1.71429C15.9999 0.767512 15.2323 0 14.2856 0C13.3388 0 12.5713 0.767512 12.5713 1.71429Z" fill="#FFA502"/>
</g>
</svg>
