<svg width="16" height="16" viewBox="0 0 16 16" fill="none" xmlns="http://www.w3.org/2000/svg">
<g id="dollar-coin-1--accounting-billing-payment-cash-coin-currency-money-finance">
<path id="Ellipse 19" d="M15.7598 6.29591C15.7598 9.57565 13.101 12.2344 9.8213 12.2344C6.54157 12.2344 3.88281 9.57565 3.88281 6.29591C3.88281 3.01617 6.54157 0.357422 9.8213 0.357422C13.101 0.357422 15.7598 3.01617 15.7598 6.29591Z" fill="#002462"/>
<path id="Subtract" fill-rule="evenodd" clip-rule="evenodd" d="M10.9191 13.5814C10.5609 13.635 10.1943 13.6626 9.8213 13.6626C5.75259 13.6626 2.45424 10.3643 2.45424 6.29559C2.45424 5.93522 2.48011 5.5809 2.53011 5.23438C1.24522 6.32368 0.429688 7.94964 0.429688 9.76608C0.429688 13.0458 3.08844 15.7046 6.36818 15.7046C8.19531 15.7046 9.82971 14.8794 10.9191 13.5814Z" fill="#FFA502"/>
<path id="Union" fill-rule="evenodd" clip-rule="evenodd" d="M9.82109 1.81055C10.2945 1.81055 10.6782 2.19431 10.6782 2.66769V3.02994C11.0863 3.12702 11.4465 3.3477 11.7161 3.64887C11.8896 3.84273 12.0267 4.07105 12.1159 4.32307C12.2736 4.76939 12.0396 5.25911 11.5934 5.41686C11.147 5.57462 10.6573 5.34067 10.4995 4.89435C10.4863 4.85706 10.4657 4.82231 10.4387 4.79215C10.3812 4.72787 10.3003 4.68944 10.2093 4.68944H9.82678L9.82109 4.68946L9.81538 4.68944H9.30786C9.2071 4.68944 9.12542 4.77112 9.12542 4.87187C9.12542 4.95761 9.18512 5.03178 9.26887 5.0501L10.6414 5.35033C11.5698 5.55343 12.2311 6.37593 12.2311 7.32574C12.2311 8.2806 11.5689 9.08166 10.6782 9.29325V9.65547C10.6782 10.1289 10.2945 10.5126 9.82109 10.5126C9.34769 10.5126 8.96394 10.1289 8.96394 9.65547V9.29328C8.29311 9.13396 7.75277 8.64047 7.5264 8.00001C7.36864 7.55368 7.60258 7.06398 8.0489 6.90623C8.49524 6.74847 8.98494 6.9824 9.1427 7.42873C9.18532 7.54931 9.30037 7.63364 9.4329 7.63364H10.2093C10.3787 7.63364 10.5168 7.49596 10.5168 7.32574C10.5168 7.18093 10.4159 7.05583 10.275 7.02502L8.90254 6.72479C8.03178 6.53431 7.41113 5.76322 7.41113 4.87187C7.41113 3.94178 8.0806 3.16804 8.96394 3.00625V2.66769C8.96394 2.19431 9.34769 1.81055 9.82109 1.81055Z" fill="#FFA502"/>
</g>
</svg>
