<svg width="16" height="16" viewBox="0 0 16 16" fill="none" xmlns="http://www.w3.org/2000/svg">
<g id="coin-share--payment-cash-money-finance-receive-give-coin-hand">
<path id="Vector" d="M11.1427 9.42801C13.6674 9.42801 15.7141 7.38132 15.7141 4.85659C15.7141 2.33185 13.6674 0.285156 11.1427 0.285156C8.61799 0.285156 6.57129 2.33185 6.57129 4.85659C6.57129 7.38132 8.61799 9.42801 11.1427 9.42801Z" fill="#FFA502"/>
<path id="Vector (Stroke)" fill-rule="evenodd" clip-rule="evenodd" d="M11.143 3C11.5375 3 11.8573 3.31979 11.8573 3.71429V6C11.8573 6.39449 11.5375 6.71429 11.143 6.71429C10.7485 6.71429 10.4287 6.39449 10.4287 6V3.71429C10.4287 3.31979 10.7485 3 11.143 3Z" fill="#002462"/>
<path id="Vector 1278" d="M2.23975 7.82812H0.133301V12.3996L2.22294 14.4892C3.08024 15.3464 4.243 15.8281 5.45542 15.8281H12.1333C13.08 15.8281 13.8476 15.0606 13.8476 14.1139C13.8476 13.167 13.08 12.3996 12.1333 12.3996H8.70473L5.47224 9.16706C4.61494 8.30975 3.45217 7.82812 2.23975 7.82812Z" fill="#002462"/>
<path id="Intersect" fill-rule="evenodd" clip-rule="evenodd" d="M7.28198 10.9758C7.53431 11.3573 7.49248 11.8761 7.15647 12.2121C6.77269 12.5959 6.15045 12.5959 5.76665 12.2121L4.1095 10.5549C3.83055 10.276 3.37829 10.276 3.09935 10.5549C2.8204 10.8339 2.8204 11.2861 3.09935 11.565L4.7565 13.2222C5.69818 14.1639 7.22495 14.1639 8.16663 13.2222C8.40902 12.9798 8.58902 12.6986 8.70663 12.3987H8.70491L7.28198 10.9758Z" fill="#FFA502"/>
</g>
</svg>
