<svg width="16" height="16" viewBox="0 0 16 16" fill="none" xmlns="http://www.w3.org/2000/svg">
<g id="bag-rupee--bag-payment-cash-money-finance">
<path id="Vector" d="M7.99998 15.9999C12.3083 15.9999 15.3857 14.4735 15.3857 11.0761C15.3857 7.38319 13.5393 5.51201 9.84641 3.66558L11.4438 1.16955C11.5064 1.04912 11.5375 0.914717 11.5339 0.778985C11.5303 0.643254 11.4922 0.510664 11.4233 0.393695C11.3544 0.276727 11.2568 0.17923 11.1398 0.11038C11.0227 0.0415307 10.8901 0.00359514 10.7544 0.000144531H5.53514C5.39036 -0.00260741 5.24754 0.0339848 5.12192 0.10602C4.9963 0.178055 4.89258 0.282832 4.82183 0.409179C4.75107 0.535526 4.71593 0.678707 4.72016 0.823455C4.72438 0.968203 4.7678 1.10909 4.8458 1.23109L6.15355 3.66558C2.46068 5.53663 0.614258 7.4078 0.614258 11.1007C0.614258 14.4735 3.69165 15.9999 7.99998 15.9999Z" fill="#002462"/>
<path id="Union" fill-rule="evenodd" clip-rule="evenodd" d="M7.58993 7.42815H5.66664C5.35105 7.42815 5.09521 7.17231 5.09521 6.85672C5.09521 6.54113 5.35105 6.28529 5.66664 6.28529H7.65324C7.6616 6.28511 7.66999 6.28511 7.6784 6.28529H10.3333C10.6489 6.28529 10.9047 6.54113 10.9047 6.85672C10.9047 7.17231 10.6489 7.42815 10.3333 7.42815H9.31447C9.42075 7.62878 9.49993 7.8583 9.54052 8.11858H10.3333C10.6489 8.11858 10.9047 8.37441 10.9047 8.69001C10.9047 9.0056 10.6489 9.26144 10.3333 9.26144H9.46252C9.36576 9.57008 9.2088 9.83564 9.01 10.0593C8.67787 10.4329 8.253 10.6636 7.86689 10.8084C7.84593 10.8163 7.82501 10.8239 7.80412 10.8314C8.32878 11.1256 9.0124 11.4375 9.80484 11.6357C10.111 11.7123 10.2972 12.0224 10.2206 12.3286C10.1441 12.6348 9.83383 12.821 9.52766 12.7444C8.45731 12.4768 7.57053 12.0326 6.95302 11.6576C6.64334 11.4696 6.39872 11.2974 6.22964 11.1706C6.14503 11.1072 6.07913 11.0549 6.03324 11.0175C6.01029 10.9988 5.99232 10.9839 5.9795 10.973L5.96415 10.9599L5.9594 10.9558L5.95776 10.9544L5.95687 10.9536L6.33292 10.5234C5.95663 10.9534 5.95675 10.9535 5.95687 10.9536C5.77771 10.7969 5.71427 10.5452 5.798 10.3224C5.88157 10.1 6.09403 9.95253 6.33152 9.95196L6.33365 9.95193L6.34859 9.95165C6.36305 9.95128 6.38627 9.95052 6.41693 9.94887C6.47844 9.94557 6.569 9.93884 6.6787 9.92512C6.90109 9.89732 7.18742 9.84265 7.4656 9.73833C7.74616 9.63313 7.98796 9.48885 8.15582 9.3C8.16696 9.28746 8.17789 9.27462 8.18857 9.26144H5.66664C5.35105 9.26144 5.09521 9.0056 5.09521 8.69001C5.09521 8.37441 5.35105 8.11858 5.66664 8.11858H8.3699C8.31093 7.93607 8.21403 7.80848 8.11156 7.7137C7.95036 7.56458 7.75003 7.47582 7.58993 7.42815Z" fill="#FFA502"/>
</g>
</svg>
