<svg width="16" height="16" viewBox="0 0 16 16" fill="none" xmlns="http://www.w3.org/2000/svg">
<g clip-path="url(#clip0_3017_108395)">
<path fill-rule="evenodd" clip-rule="evenodd" d="M11.4422 10.06C11.1701 10.0839 10.969 10.3239 10.9929 10.5959L11.0574 11.3289C11.0989 11.8005 10.7503 12.2164 10.2787 12.2578C9.80718 12.2993 9.39125 11.9508 9.34975 11.4792L9.28525 10.7462C9.1783 9.53106 10.0767 8.45926 11.2919 8.35231C12.2809 8.26527 13.2064 8.84882 13.5543 9.77873L15.1671 14.0903C15.333 14.5337 15.108 15.0276 14.6647 15.1934C14.2213 15.3592 13.7274 15.1343 13.5615 14.6909L11.9487 10.3793C11.8709 10.1712 11.6636 10.0405 11.4422 10.06Z" fill="#FFA502"/>
<path fill-rule="evenodd" clip-rule="evenodd" d="M8.5383 2.23831C8.5383 3.47449 7.53617 4.47661 6.3 4.47661C5.06382 4.47661 4.06169 3.47449 4.06169 2.23831C4.06169 1.00212 5.06382 0 6.3 0C7.53617 0 8.5383 1.00212 8.5383 2.23831ZM4.76268 5.20094C5.14509 5.10611 5.54939 5.21495 5.83251 5.48895C6.61329 6.24454 7.48117 6.81496 8.87033 6.66873C9.49805 6.60265 10.0605 7.05795 10.1266 7.68567C10.1926 8.31338 9.73733 8.8758 9.10961 8.94188C7.65111 9.09542 6.5168 8.7387 5.62049 8.20715L5.43078 8.78804L7.16835 10.0388C7.61205 10.3581 7.92659 10.826 8.05491 11.3574L8.72249 14.1223C8.87064 14.7359 8.49335 15.3534 7.8798 15.5015C7.26624 15.6496 6.64877 15.2723 6.50063 14.6587L5.83303 11.8938L4.6861 11.0683L3.48517 14.7456C3.28922 15.3456 2.64399 15.6731 2.04399 15.4771C1.44399 15.2813 1.11644 14.636 1.31239 14.036L3.95135 5.95541C4.07366 5.58088 4.38027 5.29577 4.76268 5.20094Z" fill="#002462"/>
</g>
<defs>
<clipPath id="clip0_3017_108395">
<rect width="16" height="16" fill="white"/>
</clipPath>
</defs>
</svg>
