<svg width="16" height="16" viewBox="0 0 16 16" fill="none" xmlns="http://www.w3.org/2000/svg">
<g clip-path="url(#clip0_3017_108197)">
<g clip-path="url(#clip1_3017_108197)">
<path fill-rule="evenodd" clip-rule="evenodd" d="M11.1684 9.25607H13.5459C13.916 9.25009 14.2768 9.37332 14.566 9.60468C14.8568 9.83737 15.0569 10.1647 15.1313 10.5297L15.1318 10.5318L15.9889 14.8175C16.0225 14.9854 15.979 15.1594 15.8705 15.2919C15.762 15.4242 15.5998 15.501 15.4286 15.501H9.30609C9.13535 15.501 8.97355 15.4247 8.86501 15.2929C8.75646 15.1611 8.71253 14.9876 8.74525 14.8201L9.58199 10.5343L9.58293 10.5297C9.65734 10.1647 9.85739 9.83737 10.1483 9.60468C10.4375 9.37332 10.7982 9.25009 11.1684 9.25607ZM2.49475 9.25607H4.87227C5.24245 9.25009 5.6032 9.37332 5.8924 9.60468C6.18326 9.83737 6.3833 10.1647 6.45773 10.5297L6.45815 10.5318L7.3153 14.8175C7.34888 14.9854 7.30542 15.1594 7.19688 15.2919C7.08834 15.4242 6.92617 15.501 6.75497 15.501H0.632468C0.461731 15.501 0.299938 15.4247 0.19139 15.2929C0.0828421 15.1611 0.0389123 14.9876 0.0716291 14.8201L0.908371 10.5343L0.909303 10.5297C0.983724 10.1647 1.18377 9.83737 1.47464 9.60468C1.76383 9.37332 2.12458 9.25009 2.49475 9.25607Z" fill="#002462"/>
<path d="M9.20919 1.42599H6.83167C6.4615 1.42001 6.10075 1.54325 5.81155 1.77461C5.52069 2.00729 5.32064 2.33461 5.24622 2.69958L5.24528 2.70425L4.40854 6.99C4.37583 7.15758 4.41975 7.33099 4.5283 7.46279C4.63685 7.59458 4.79864 7.67093 4.96939 7.67093H11.0919C11.2631 7.67093 11.4253 7.59417 11.5337 7.46178C11.6423 7.32938 11.6857 7.1553 11.6523 6.98743L10.7951 2.70168L10.7946 2.69958C10.7202 2.33461 10.5202 2.00729 10.2293 1.77461C9.94012 1.54325 9.57936 1.42001 9.20919 1.42599Z" fill="#002462"/>
</g>
</g>
<defs>
<clipPath id="clip0_3017_108197">
<rect width="16" height="16" fill="white"/>
</clipPath>
<clipPath id="clip1_3017_108197">
<rect width="16" height="16" fill="white"/>
</clipPath>
</defs>
</svg>
