<svg width="22" height="24" viewBox="0 0 22 24" fill="none" xmlns="http://www.w3.org/2000/svg">
<g id="calculator-1--shop-shopping-pay-payment-store-cash-calculate-math">
<path id="Union" d="M0.832336 2.99727C0.832336 1.3996 2.11467 0.074707 3.73294 0.074707H18.2671C19.8853 0.074707 21.1676 1.3996 21.1676 2.99727V21.0026C21.1676 22.6003 19.8853 23.9251 18.2671 23.9251H3.73294C2.11467 23.9251 0.832336 22.6003 0.832336 21.0026V2.99727Z" fill="#002462"/>
<path id="Subtract" fill-rule="evenodd" clip-rule="evenodd" d="M3.40375 2.99726C3.40375 2.7869 3.56743 2.64612 3.73292 2.64612H18.267C18.4325 2.64612 18.5962 2.7869 18.5962 2.99726V8.85176H3.40375V2.99726ZM13.5099 4.80284C12.9182 4.80284 12.4385 5.28254 12.4385 5.87427C12.4385 6.46599 12.9182 6.9457 13.5099 6.9457H15.9416C16.5334 6.9457 17.013 6.46599 17.013 5.87427C17.013 5.28254 16.5334 4.80284 15.9416 4.80284H13.5099Z" fill="#FFA502"/>
<path id="Union_2" fill-rule="evenodd" clip-rule="evenodd" d="M5.5641 14.9472C6.27417 14.9472 6.84981 14.3715 6.84981 13.6614C6.84981 12.9514 6.27417 12.3757 5.5641 12.3757C4.85402 12.3757 4.27838 12.9514 4.27838 13.6614C4.27838 14.3715 4.85402 14.9472 5.5641 14.9472ZM11 14.9472C11.7101 14.9472 12.2857 14.3715 12.2857 13.6614C12.2857 12.9514 11.7101 12.3757 11 12.3757C10.2899 12.3757 9.71428 12.9514 9.71428 13.6614C9.71428 14.3715 10.2899 14.9472 11 14.9472ZM17.7216 13.6614C17.7216 14.3715 17.1459 14.9472 16.4359 14.9472C15.7258 14.9472 15.1502 14.3715 15.1502 13.6614C15.1502 12.9514 15.7258 12.3757 16.4359 12.3757C17.1459 12.3757 17.7216 12.9514 17.7216 13.6614ZM5.5641 20.4761C6.27417 20.4761 6.84981 19.9005 6.84981 19.1904C6.84981 18.4803 6.27417 17.9047 5.5641 17.9047C4.85402 17.9047 4.27838 18.4803 4.27838 19.1904C4.27838 19.9005 4.85402 20.4761 5.5641 20.4761ZM12.2857 19.1904C12.2857 19.9005 11.7101 20.4761 11 20.4761C10.2899 20.4761 9.71428 19.9005 9.71428 19.1904C9.71428 18.4803 10.2899 17.9047 11 17.9047C11.7101 17.9047 12.2857 18.4803 12.2857 19.1904ZM16.4359 20.4761C17.1459 20.4761 17.7216 19.9005 17.7216 19.1904C17.7216 18.4803 17.1459 17.9047 16.4359 17.9047C15.7258 17.9047 15.1502 18.4803 15.1502 19.1904C15.1502 19.9005 15.7258 20.4761 16.4359 20.4761Z" fill="#FFA502"/>
</g>
</svg>
