<svg width="16" height="16" viewBox="0 0 16 16" fill="none" xmlns="http://www.w3.org/2000/svg">
<g clip-path="url(#clip0_3017_32218)">
<g clip-path="url(#clip1_3017_32218)">
<path d="M8 0C3.58173 0 0 3.58173 0 8C0 12.4183 3.58173 16 8 16C12.4183 16 16 12.4183 16 8C16 3.58173 12.4183 0 8 0Z" fill="#002462"/>
<path fill-rule="evenodd" clip-rule="evenodd" d="M11.9999 5.52439C11.9999 6.57636 11.1471 7.42916 10.0951 7.42916C9.59679 7.42916 9.14316 7.2378 8.80371 6.92457C8.54168 7.23326 8.15078 7.42916 7.71414 7.42916C6.92516 7.42916 6.28557 6.78956 6.28557 6.00059C6.28557 5.21161 6.92516 4.57202 7.71414 4.57202C7.94826 4.57202 8.16923 4.62833 8.36424 4.72815C8.66574 4.07382 9.32738 3.61963 10.0951 3.61963C11.1471 3.61963 11.9999 4.47242 11.9999 5.52439ZM4.08674 9.98362C4.11043 9.97216 4.19811 9.94131 4.29974 9.93823C4.3937 9.93539 4.45056 9.95659 4.48764 9.98515C4.52472 10.0137 4.55973 10.0633 4.58096 10.1549C4.60393 10.2539 4.59648 10.3465 4.59144 10.3724C4.55092 10.58 4.5406 10.8765 4.61239 11.1862C4.6859 11.5033 4.85817 11.8819 5.22561 12.1649C5.59305 12.448 6.00313 12.5179 6.3285 12.508C6.6462 12.4984 6.93025 12.4128 7.12067 12.3206C7.47574 12.1487 7.62427 11.7216 7.4524 11.3665C7.28052 11.0114 6.85334 10.8629 6.49827 11.0347C6.47458 11.0462 6.3869 11.077 6.28526 11.0801C6.19131 11.083 6.13445 11.0618 6.09737 11.0332C6.06029 11.0046 6.02528 10.9551 6.00404 10.8635C5.98108 10.7645 5.98852 10.6718 5.99357 10.646C6.03409 10.4383 6.04441 10.1418 5.97262 9.8322C5.8991 9.51509 5.72684 9.13644 5.3594 8.8534C4.99195 8.57037 4.58188 8.50046 4.25651 8.51031C3.93881 8.51993 3.65476 8.60558 3.46434 8.69776C3.10926 8.86963 2.96074 9.29681 3.13261 9.65189C3.30449 10.007 3.73166 10.1555 4.08674 9.98362ZM8.14272 9.56052C8.14272 9.00821 8.59045 8.56048 9.14275 8.56048C9.6953 8.56048 10.1427 9.00845 10.1427 9.56052C10.1427 10.1126 9.6953 10.5606 9.14275 10.5606C8.59045 10.5606 8.14272 10.1128 8.14272 9.56052ZM4.04496 4.80993C3.49265 4.80993 3.04492 5.25765 3.04492 5.80996C3.04492 6.36227 3.49265 6.80999 4.04496 6.80999C4.5975 6.80999 5.04492 6.36203 5.04492 5.80996C5.04492 5.25789 4.5975 4.80993 4.04496 4.80993ZM10.7141 11.2346C10.7141 10.6823 11.1619 10.2346 11.7141 10.2346C12.2667 10.2346 12.7141 10.6826 12.7141 11.2346C12.7141 11.7867 12.2667 12.2346 11.7141 12.2346C11.1619 12.2346 10.7141 11.787 10.7141 11.2346Z" fill="#FFA502"/>
</g>
</g>
<defs>
<clipPath id="clip0_3017_32218">
<rect width="16" height="16" fill="white"/>
</clipPath>
<clipPath id="clip1_3017_32218">
<rect width="16" height="16" fill="white"/>
</clipPath>
</defs>
</svg>
