<svg width="16" height="16" viewBox="0 0 16 16" fill="none" xmlns="http://www.w3.org/2000/svg">
<g clip-path="url(#clip0_3139_59165)">
<path d="M15.143 2.57171C15.143 1.62493 14.3754 0.857422 13.4287 0.857422H4.28582C3.33904 0.857422 2.57153 1.62493 2.57153 2.57171V11.7146C2.57153 12.6613 3.33904 13.4289 4.28582 13.4289H13.4287C14.3754 13.4289 15.143 12.6613 15.143 11.7146V2.57171Z" fill="#FFA502"/>
<path d="M12.5714 5.14397C12.5714 4.1972 11.8039 3.42969 10.8571 3.42969H1.71429C0.767512 3.42969 0 4.1972 0 5.14397V14.2868C0 15.2336 0.767512 16.0011 1.71429 16.0011H10.8571C11.8039 16.0011 12.5714 15.2336 12.5714 14.2868V5.14397Z" fill="#002462"/>
<path fill-rule="evenodd" clip-rule="evenodd" d="M7.14296 6.85714C7.14296 6.38376 6.7592 6 6.28582 6C5.81244 6 5.42868 6.38376 5.42868 6.85714V8.85714H3.42868C2.95529 8.85714 2.57153 9.2409 2.57153 9.71429C2.57153 10.1877 2.95529 10.5714 3.42868 10.5714H5.42868V12.5714C5.42868 13.0448 5.81244 13.4286 6.28582 13.4286C6.7592 13.4286 7.14296 13.0448 7.14296 12.5714V10.5714H9.14296C9.61634 10.5714 10.0001 10.1877 10.0001 9.71429C10.0001 9.2409 9.61634 8.85714 9.14296 8.85714H7.14296V6.85714Z" fill="#FFA502"/>
</g>
<defs>
<clipPath id="clip0_3139_59165">
<rect width="16" height="16" fill="white"/>
</clipPath>
</defs>
</svg>
