<svg width="16" height="16" viewBox="0 0 16 16" fill="none" xmlns="http://www.w3.org/2000/svg">
<g clip-path="url(#clip0_12_4903)">
<g clip-path="url(#clip1_12_4903)">
<path d="M7.99996 16.0001C11.7871 16.0001 14.8571 12.93 14.8571 9.14291C14.8571 5.35581 11.7871 2.28577 7.99996 2.28577C4.21287 2.28577 1.14282 5.35581 1.14282 9.14291C1.14282 12.93 4.21287 16.0001 7.99996 16.0001Z" fill="white"/>
<path fill-rule="evenodd" clip-rule="evenodd" d="M4.4708 0.454317C4.69336 0.87212 4.5351 1.39124 4.11729 1.61382C3.12527 2.14227 2.24007 2.85043 1.50675 3.70225C1.19789 4.061 0.656687 4.10146 0.297931 3.79262C-0.0608244 3.48376 -0.101279 2.94256 0.207574 2.5838C1.07944 1.57106 2.13188 0.72911 3.31131 0.100815C3.72911 -0.121754 4.24823 0.0365152 4.4708 0.454317ZM11.5293 0.454317C11.7518 0.0365152 12.2709 -0.121754 12.6887 0.100815C13.8681 0.72911 14.9206 1.57106 15.7925 2.5838C16.1013 2.94256 16.0608 3.48376 15.7021 3.79262C15.3433 4.10146 14.8022 4.061 14.4933 3.70225C13.7599 2.85043 12.8748 2.14227 11.8828 1.61382C11.4649 1.39124 11.3067 0.87212 11.5293 0.454317ZM8.7143 5.71446C8.7143 5.31996 8.39451 5.00017 8.00001 5.00017C7.60552 5.00017 7.28573 5.31996 7.28573 5.71446V9.14303C7.28573 9.53752 7.60552 9.85731 8.00001 9.85731H10.8572C11.2516 9.85731 11.5714 9.53752 11.5714 9.14303C11.5714 8.74854 11.2516 8.42874 10.8572 8.42874H8.7143V5.71446Z" fill="#FFA502"/>
</g>
</g>
<defs>
<clipPath id="clip0_12_4903">
<rect width="16" height="16" fill="white"/>
</clipPath>
<clipPath id="clip1_12_4903">
<rect width="16" height="16" fill="white"/>
</clipPath>
</defs>
</svg>
