<svg width="15" height="14" viewBox="0 0 15 14" fill="none" xmlns="http://www.w3.org/2000/svg">
<g id="alert-triangle" clip-path="url(#clip0_5935_191389)">
<path id="Icon" d="M7.49969 5.24916V7.58249M7.49969 9.91582H7.50553M6.69196 2.26933L1.89411 10.5565C1.62799 11.0162 1.49493 11.246 1.5146 11.4346C1.53175 11.5992 1.61795 11.7487 1.75174 11.846C1.90514 11.9575 2.17071 11.9575 2.70185 11.9575H12.2975C12.8287 11.9575 13.0943 11.9575 13.2476 11.846C13.3814 11.7487 13.4676 11.5992 13.4848 11.4346C13.5045 11.246 13.3714 11.0162 13.1053 10.5565L8.30742 2.26933C8.04226 1.81132 7.90968 1.58231 7.7367 1.5054C7.58582 1.43831 7.41357 1.43831 7.26269 1.5054C7.08971 1.58231 6.95713 1.81132 6.69196 2.26933Z" stroke="#963737" stroke-width="1.5" stroke-linecap="round" stroke-linejoin="round"/>
</g>
<defs>
<clipPath id="clip0_5935_191389">
<rect width="14" height="14" fill="white" transform="translate(0.5)"/>
</clipPath>
</defs>
</svg>
