<svg width="16" height="16" viewBox="0 0 16 16" fill="none" xmlns="http://www.w3.org/2000/svg">
<g clip-path="url(#clip0_1820_10562)">
<path fill-rule="evenodd" clip-rule="evenodd" d="M4.03467 0.275744C3.69994 -0.0589911 3.15722 -0.0589911 2.82249 0.275744C2.48776 0.610479 2.48776 1.15319 2.82249 1.48793L4.29819 2.96363C3.50002 3.86508 3.05581 5.03018 3.05581 6.2411V7.23759C2.27299 7.25229 1.52537 7.56963 0.970692 8.12431C0.402591 8.69241 0.0834351 9.46292 0.0834351 10.2663V11.2956C0.0834351 11.769 0.467191 12.1528 0.940578 12.1528C1.41396 12.1528 1.79772 11.769 1.79772 11.2956V10.2663C1.79772 9.91758 1.93626 9.58311 2.18288 9.33649C2.41604 9.10334 2.72775 8.96676 3.05581 8.95257V11.6254V12.181V15.0397C3.05581 15.513 3.43956 15.8968 3.91296 15.8968C4.38634 15.8968 4.7701 15.513 4.7701 15.0397V13.0382H11.2299V15.0397C11.2299 15.513 11.6137 15.8968 12.0871 15.8968C12.5605 15.8968 12.9442 15.513 12.9442 15.0397V12.1897V12.181V8.95257C13.2724 8.96676 13.584 9.10332 13.8172 9.33649C14.0638 9.58311 14.2024 9.91758 14.2024 10.2663V11.2956C14.2024 11.769 14.5861 12.1528 15.0596 12.1528C15.5329 12.1528 15.9167 11.769 15.9167 11.2956V10.2663C15.9167 9.46292 15.5975 8.69241 15.0294 8.12431C14.4748 7.56963 13.7271 7.25227 12.9442 7.23759V6.2411C12.9442 5.03018 12.5 3.86507 11.7018 2.96362L13.1776 1.48793C13.5124 1.15319 13.5124 0.610479 13.1776 0.275744C12.8429 -0.0589911 12.3001 -0.0589911 11.9654 0.275744L10.3501 1.89106C9.63456 1.50456 8.828 1.29688 8.00003 1.29688C7.17205 1.29688 6.36549 1.50456 5.65 1.89106L4.03467 0.275744Z" fill="#002462"/>
<path fill-rule="evenodd" clip-rule="evenodd" d="M12.9255 5.81082H3.07453C3.06208 5.95335 3.05579 6.0969 3.05579 6.2411V7.23939H12.9442V6.2411C12.9442 6.0969 12.9379 5.95335 12.9255 5.81082Z" fill="#FFA502"/>
</g>
<defs>
<clipPath id="clip0_1820_10562">
<rect width="16" height="16" fill="white"/>
</clipPath>
</defs>
</svg>
