<svg width="24" height="24" viewBox="0 0 24 24" fill="none" xmlns="http://www.w3.org/2000/svg">
<g id="annoncement-megaphone">
<path id="Union" fill-rule="evenodd" clip-rule="evenodd" d="M13.0537 5.99512C12.817 5.58515 12.2928 5.44469 11.8828 5.68139C11.4728 5.91808 11.3324 6.44229 11.5691 6.85226L11.6007 6.90705L0.606022 18.6676C0.348384 18.9431 0.30122 19.3547 0.489848 19.6814L1.53397 21.49C1.7226 21.8166 2.10267 21.9817 2.47015 21.8963L5.39827 21.2164L5.97787 22.2203L5.97984 22.2237C6.42005 22.9782 7.14194 23.5269 7.98672 23.7491C8.83149 23.9713 9.72993 23.8489 10.4844 23.4086C11.2389 22.9684 11.7876 22.2465 12.0098 21.4017C12.1593 20.8333 12.1528 20.2406 11.9984 19.6838L18.1524 18.2548L18.1822 18.3064C18.4188 18.7165 18.943 18.8569 19.3531 18.6201C19.763 18.3836 19.9035 17.8593 19.6668 17.4493L19.3435 16.8892C19.3289 16.8605 19.313 16.8328 19.2955 16.8063L13.4268 6.64132C13.4125 6.613 13.3965 6.58531 13.3789 6.55843L13.0537 5.99512ZM10.3254 20.0723L7.14375 20.8112L7.46139 21.3613C7.67256 21.7223 8.01831 21.9848 8.42283 22.0912C8.8279 22.1977 9.2587 22.139 9.62049 21.928C9.98225 21.7168 10.2454 21.3707 10.3519 20.9656C10.4299 20.6692 10.4194 20.3591 10.3254 20.0723Z" fill="#002462"/>
<path id="Union_2" fill-rule="evenodd" clip-rule="evenodd" d="M12.3107 0C13.0207 0 13.5964 0.575633 13.5964 1.28571V3.43455C13.5964 4.14463 13.0207 4.72027 12.3107 4.72027C11.6006 4.72027 11.0249 4.14463 11.0249 3.43455V1.28571C11.0249 0.575633 11.6006 0 12.3107 0ZM23.9784 11.6675C23.9784 12.3776 23.4027 12.9532 22.6927 12.9532H20.5438C19.8338 12.9532 19.2581 12.3776 19.2581 11.6675C19.2581 10.9575 19.8338 10.3818 20.5438 10.3818H22.6927C23.4027 10.3818 23.9784 10.9575 23.9784 11.6675ZM4.07907 12.9532C4.78917 12.9532 5.36479 12.3776 5.36479 11.6675C5.36479 10.9575 4.78917 10.3818 4.07907 10.3818H1.93025C1.22016 10.3818 0.644531 10.9575 0.644531 11.6675C0.644531 12.3776 1.22016 12.9532 1.93025 12.9532H4.07907ZM7.39726 6.75502C6.89515 7.25712 6.08109 7.25712 5.57899 6.75502L4.05953 5.23557C3.55742 4.73345 3.55742 3.91939 4.05953 3.41729C4.56163 2.91518 5.37569 2.91518 5.87781 3.41729L7.39726 4.93675C7.89936 5.43885 7.89936 6.25291 7.39726 6.75502ZM20.5611 5.23553C21.0633 4.73342 21.0633 3.91935 20.5611 3.41726C20.059 2.91514 19.2451 2.91514 18.743 3.41726L17.2234 4.93671C16.7213 5.43881 16.7213 6.25287 17.2234 6.75499C17.7255 7.25709 18.5397 7.25709 19.0418 6.75499L20.5611 5.23553Z" fill="#FFA502"/>
</g>
</svg>
