<svg width="24" height="24" viewBox="0 0 24 24" fill="none" xmlns="http://www.w3.org/2000/svg">
<g id="annoncement-megaphone">
<path id="Union" fill-rule="evenodd" clip-rule="evenodd" d="M13.0537 5.99471C12.817 5.58473 12.2928 5.44428 11.8828 5.68097C11.4728 5.91767 11.3324 6.44188 11.5691 6.85185L11.6007 6.90664L0.606022 18.6672C0.348384 18.9427 0.30122 19.3543 0.489848 19.681L1.53397 21.4896C1.7226 21.8162 2.10267 21.9813 2.47015 21.8959L5.39827 21.216L5.97787 22.2199L5.97984 22.2233C6.42005 22.9778 7.14194 23.5265 7.98672 23.7487C8.83149 23.9709 9.72993 23.8485 10.4844 23.4082C11.2389 22.968 11.7876 22.2461 12.0098 21.4013C12.1593 20.8329 12.1528 20.2402 11.9984 19.6834L18.1524 18.2544L18.1822 18.306C18.4188 18.7161 18.943 18.8565 19.3531 18.6197C19.763 18.3831 19.9035 17.8589 19.6668 17.4489L19.3435 16.8888C19.3289 16.8601 19.313 16.8324 19.2955 16.8059L13.4268 6.64091C13.4125 6.61259 13.3965 6.5849 13.3789 6.55802L13.0537 5.99471ZM10.3254 20.0719L7.14375 20.8107L7.46139 21.3609C7.67256 21.7219 8.01831 21.9843 8.42283 22.0908C8.8279 22.1973 9.2587 22.1386 9.62049 21.9276C9.98225 21.7164 10.2454 21.3703 10.3519 20.9652C10.4299 20.6688 10.4194 20.3587 10.3254 20.0719Z" fill="white"/>
<path id="Union_2" fill-rule="evenodd" clip-rule="evenodd" d="M12.3107 0C13.0207 0 13.5964 0.575633 13.5964 1.28571V3.43455C13.5964 4.14463 13.0207 4.72027 12.3107 4.72027C11.6006 4.72027 11.0249 4.14463 11.0249 3.43455V1.28571C11.0249 0.575633 11.6006 0 12.3107 0ZM23.9784 11.6675C23.9784 12.3776 23.4027 12.9532 22.6927 12.9532H20.5438C19.8338 12.9532 19.2581 12.3776 19.2581 11.6675C19.2581 10.9575 19.8338 10.3818 20.5438 10.3818H22.6927C23.4027 10.3818 23.9784 10.9575 23.9784 11.6675ZM4.07907 12.9532C4.78917 12.9532 5.36479 12.3776 5.36479 11.6675C5.36479 10.9575 4.78917 10.3818 4.07907 10.3818H1.93025C1.22016 10.3818 0.644531 10.9575 0.644531 11.6675C0.644531 12.3776 1.22016 12.9532 1.93025 12.9532H4.07907ZM7.39726 6.75502C6.89515 7.25712 6.08109 7.25712 5.57899 6.75502L4.05953 5.23557C3.55742 4.73345 3.55742 3.91939 4.05953 3.41729C4.56163 2.91518 5.37569 2.91518 5.87781 3.41729L7.39726 4.93675C7.89936 5.43885 7.89936 6.25291 7.39726 6.75502ZM20.5611 5.23553C21.0633 4.73342 21.0633 3.91935 20.5611 3.41726C20.059 2.91514 19.2451 2.91514 18.743 3.41726L17.2234 4.93671C16.7213 5.43881 16.7213 6.25287 17.2234 6.75499C17.7255 7.25709 18.5397 7.25709 19.0418 6.75499L20.5611 5.23553Z" fill="#FFA502"/>
</g>
</svg>
