<svg width="24" height="24" viewBox="0 0 24 24" fill="none" xmlns="http://www.w3.org/2000/svg">
<g>
<path fill-rule="evenodd" clip-rule="evenodd" d="M3.00293 5.0011C3.00293 3.89653 3.89836 3.0011 5.00293 3.0011C6.1075 3.0011 7.00293 3.89653 7.00293 5.0011C7.00293 6.10567 6.1075 7.0011 5.00293 7.0011C3.89836 7.0011 3.00293 6.10567 3.00293 5.0011ZM10.0029 5.0011C10.0029 3.89653 10.8984 3.0011 12.0029 3.0011C13.1075 3.0011 14.0029 3.89653 14.0029 5.0011C14.0029 6.10567 13.1075 7.0011 12.0029 7.0011C10.8984 7.0011 10.0029 6.10567 10.0029 5.0011ZM17.0029 5.0011C17.0029 3.89653 17.8984 3.0011 19.0029 3.0011C20.1075 3.0011 21.0029 3.89653 21.0029 5.0011C21.0029 6.10567 20.1075 7.0011 19.0029 7.0011C17.8984 7.0011 17.0029 6.10567 17.0029 5.0011ZM3.00293 12.0011C3.00293 10.8965 3.89836 10.0011 5.00293 10.0011C6.1075 10.0011 7.00293 10.8965 7.00293 12.0011C7.00293 13.1057 6.1075 14.0011 5.00293 14.0011C3.89836 14.0011 3.00293 13.1057 3.00293 12.0011ZM10.0029 12.0011C10.0029 10.8965 10.8984 10.0011 12.0029 10.0011C13.1075 10.0011 14.0029 10.8965 14.0029 12.0011C14.0029 13.1057 13.1075 14.0011 12.0029 14.0011C10.8984 14.0011 10.0029 13.1057 10.0029 12.0011ZM17.0029 12.0011C17.0029 10.8965 17.8984 10.0011 19.0029 10.0011C20.1075 10.0011 21.0029 10.8965 21.0029 12.0011C21.0029 13.1057 20.1075 14.0011 19.0029 14.0011C17.8984 14.0011 17.0029 13.1057 17.0029 12.0011ZM3.00293 19.0011C3.00293 17.8965 3.89836 17.0011 5.00293 17.0011C6.1075 17.0011 7.00293 17.8965 7.00293 19.0011C7.00293 20.1057 6.1075 21.0011 5.00293 21.0011C3.89836 21.0011 3.00293 20.1057 3.00293 19.0011ZM10.0029 19.0011C10.0029 17.8965 10.8984 17.0011 12.0029 17.0011C13.1075 17.0011 14.0029 17.8965 14.0029 19.0011C14.0029 20.1057 13.1075 21.0011 12.0029 21.0011C10.8984 21.0011 10.0029 20.1057 10.0029 19.0011ZM17.0029 19.0011C17.0029 17.8965 17.8984 17.0011 19.0029 17.0011C20.1075 17.0011 21.0029 17.8965 21.0029 19.0011C21.0029 20.1057 20.1075 21.0011 19.0029 21.0011C17.8984 21.0011 17.0029 20.1057 17.0029 19.0011Z" fill="#001840"/>
</g>
<defs>
</defs>
</svg>
