<svg width="24" height="24" viewBox="0 0 24 24" fill="none" xmlns="http://www.w3.org/2000/svg">
<g id="building-2--real-home-tower-building-house-estate">
<path id="Union" d="M12.8571 10.2858C12.3838 10.2858 12 10.6695 12 11.1429V23.1429C12 23.6162 12.3838 24.0001 12.8571 24.0001H23.1429C23.6162 24.0001 24 23.6162 24 23.1429V11.1429C24 10.6695 23.6162 10.2858 23.1429 10.2858H12.8571Z" fill="#FFA502"/>
<path id="Union_2" d="M7.75044 0.236347C7.41945 -0.0787822 6.89942 -0.0787822 6.56841 0.236347L0.266122 6.23635C0.0961855 6.39813 0 6.62251 0 6.85714V23.1429C0 23.6162 0.383757 24 0.857143 24H13.4617C13.9351 24 14.3188 23.6162 14.3188 23.1429V6.85714C14.3188 6.62251 14.2227 6.39813 14.0527 6.23635L7.75044 0.236347Z" fill="#002462"/>
<path id="Intersect" fill-rule="evenodd" clip-rule="evenodd" d="M8.87358 24V20.5715C8.87358 19.6247 8.10606 18.8572 7.15929 18.8572C6.21251 18.8572 5.44501 19.6247 5.44501 20.5715V24H8.87358Z" fill="#FFA502"/>
<path id="Union_3" fill-rule="evenodd" clip-rule="evenodd" d="M4.79604 7.76685C4.2043 7.76685 3.72461 8.24654 3.72461 8.83827C3.72461 9.43001 4.2043 9.9097 4.79604 9.9097H9.52275C10.1145 9.9097 10.5942 9.43001 10.5942 8.83827C10.5942 8.24654 10.1145 7.76685 9.52275 7.76685H4.79604ZM4.79604 12.2366C4.2043 12.2366 3.72461 12.7163 3.72461 13.308C3.72461 13.8997 4.2043 14.3794 4.79604 14.3794H9.52275C10.1145 14.3794 10.5942 13.8997 10.5942 13.308C10.5942 12.7163 10.1145 12.2366 9.52275 12.2366H4.79604Z" fill="#FFA502"/>
</g>
</svg>
