<svg width="20" height="20" viewBox="0 0 20 20" fill="none" xmlns="http://www.w3.org/2000/svg">
<g clip-path="url(#clip0_1452_93304)">
<g clip-path="url(#clip1_1452_93304)">
<path d="M20 6.15384V18.4616C20 18.8696 19.8379 19.2609 19.5494 19.5494C19.2609 19.8379 18.8696 20 18.4616 20H1.53846C1.13044 20 0.739123 19.8379 0.450604 19.5494C0.162087 19.2609 0 18.8696 0 18.4616V6.15384L2.30769 1.70769C2.80526 0.70545 3.86603 0.0287511 4.98461 0H15.0154C16.1603 0.000607514 17.2597 0.682423 17.7693 1.70769L20 6.15384Z" fill="#002462"/>
<path d="M2.30769 1.70769L0 6.15384H20L17.7693 1.70769C17.2597 0.682423 16.1603 0.000607514 15.0154 0H4.98461C3.86603 0.0287511 2.80526 0.70545 2.30769 1.70769Z" fill="#FFA502"/>
<path fill-rule="evenodd" clip-rule="evenodd" d="M9.10693 6.15384V0H10.8926V6.15384H9.10693Z" fill="#002462"/>
<path fill-rule="evenodd" clip-rule="evenodd" d="M11.0712 9.64272C11.0712 9.05099 10.5915 8.57129 9.99979 8.57129C9.40806 8.57129 8.92836 9.05099 8.92836 9.64272V12.1427H6.42836C5.83663 12.1427 5.35693 12.6224 5.35693 13.2141C5.35693 13.8059 5.83663 14.2856 6.42836 14.2856H8.92836V16.7856C8.92836 17.3773 9.40806 17.857 9.99979 17.857C10.5915 17.857 11.0712 17.3773 11.0712 16.7856V14.2856H13.5712C14.1629 14.2856 14.6426 13.8059 14.6426 13.2141C14.6426 12.6224 14.1629 12.1427 13.5712 12.1427H11.0712V9.64272Z" fill="#FFA502"/>
</g>
</g>
<defs>
<clipPath id="clip0_1452_93304">
<rect width="20" height="20" fill="white"/>
</clipPath>
<clipPath id="clip1_1452_93304">
<rect width="20" height="20" fill="white"/>
</clipPath>
</defs>
</svg>
