<svg width="16" height="16" viewBox="0 0 16 16" fill="none" xmlns="http://www.w3.org/2000/svg">
<g id="safe-vault--saving-combo-payment-safe-combination-finance">
<path id="Subtract" fill-rule="evenodd" clip-rule="evenodd" d="M12.5714 14.2861H14.2857V15.0886C14.2857 15.562 13.9019 15.9458 13.4285 15.9458C12.9551 15.9458 12.5714 15.562 12.5714 15.0886V14.2861ZM1.71423 14.2861V15.0886C1.71423 15.562 2.09799 15.9458 2.57138 15.9458C3.04476 15.9458 3.42852 15.562 3.42852 15.0886V14.2861H1.71423Z" fill="#FFA502"/>
<path id="Union" d="M1.71429 0C0.767512 0 0 0.767512 0 1.71429V12.5714C0 13.5182 0.767512 14.2857 1.71429 14.2857H14.2857C15.2325 14.2857 16 13.5182 16 12.5714V1.71429C16 0.767512 15.2325 0 14.2857 0H1.71429Z" fill="#002462"/>
<path id="Union_2" fill-rule="evenodd" clip-rule="evenodd" d="M10.7143 3.35784C10.7143 2.96336 10.3945 2.64355 9.99998 2.64355C9.60549 2.64355 9.28569 2.96336 9.28569 3.35784V4.30874C9.00239 4.37991 8.73551 4.49242 8.49184 4.63951L7.83547 3.9687C7.55958 3.68672 7.10735 3.68181 6.82538 3.95769C6.54342 4.23359 6.53849 4.68582 6.81439 4.96778L7.48526 5.65343C7.34352 5.89215 7.23481 6.15277 7.16543 6.42899H6.21454C5.82006 6.42899 5.50025 6.7488 5.50025 7.14328C5.50025 7.53777 5.82006 7.85757 6.21454 7.85757H7.16543C7.23572 8.13736 7.34633 8.40113 7.49076 8.64235L6.81985 9.31326C6.5409 9.5922 6.5409 10.0445 6.81985 10.3234C7.0988 10.6024 7.55106 10.6024 7.83 10.3234L8.5009 9.6525C8.74213 9.79693 9.0059 9.90754 9.28569 9.97783V10.9287C9.28569 11.3232 9.60549 11.6431 9.99998 11.6431C10.3945 11.6431 10.7143 11.3232 10.7143 10.9287V9.97783C10.994 9.90754 11.2578 9.79693 11.4991 9.6525L12.1699 10.3234C12.4489 10.6024 12.9011 10.6024 13.1801 10.3234C13.4591 10.0445 13.4591 9.5922 13.1801 9.31326L12.5092 8.64235C12.6536 8.40114 12.7642 8.13736 12.8345 7.85757H13.7855C14.1799 7.85757 14.4997 7.53777 14.4997 7.14328C14.4997 6.7488 14.1799 6.42899 13.7855 6.42899H12.8345C12.7642 6.14921 12.6536 5.88543 12.5092 5.64421L13.1801 4.97332C13.4591 4.69437 13.4591 4.24211 13.1801 3.96317C12.9011 3.68422 12.4489 3.68422 12.1699 3.96317L11.4991 4.63406C11.2578 4.48965 10.994 4.37903 10.7143 4.30874V3.35784ZM2.84942 4.01048C3.2439 4.01048 3.5637 4.33027 3.5637 4.72477V9.56181C3.5637 9.9563 3.2439 10.2761 2.84942 10.2761C2.45493 10.2761 2.13513 9.9563 2.13513 9.56181V4.72477C2.13513 4.33027 2.45493 4.01048 2.84942 4.01048ZM8.50608 7.14328C8.50608 6.31823 9.17492 5.64939 9.99997 5.64939C10.825 5.64939 11.4938 6.31823 11.4938 7.14328C11.4938 7.96833 10.825 8.63718 9.99997 8.63718C9.17492 8.63718 8.50608 7.96833 8.50608 7.14328Z" fill="#FFA502"/>
</g>
</svg>
