<svg width="16" height="16" viewBox="0 0 16 16" fill="none" xmlns="http://www.w3.org/2000/svg">
<g id="attribution">
<path id="Ellipse 643" d="M8 16C12.4183 16 16 12.4183 16 8C16 3.58172 12.4183 0 8 0C3.58172 0 0 3.58172 0 8C0 12.4183 3.58172 16 8 16Z" fill="#002462"/>
<path id="Union" fill-rule="evenodd" clip-rule="evenodd" d="M8.00008 5.71396C8.94691 5.71396 9.71448 4.94639 9.71448 3.99956C9.71448 3.05272 8.94691 2.28516 8.00008 2.28516C7.05324 2.28516 6.28568 3.05272 6.28568 3.99956C6.28568 4.94639 7.05324 5.71396 8.00008 5.71396ZM9.30083 13.3248L9.65097 10.5238H10.4762C10.7041 10.5238 10.8889 10.339 10.8889 10.1111V9.28564C10.8889 7.69014 9.59536 6.39677 7.99987 6.39677C6.40438 6.39677 5.11108 7.69014 5.11108 9.28564V10.1111C5.11108 10.339 5.29585 10.5238 5.52378 10.5238H6.34898L6.69911 13.3248C6.73486 13.6108 6.97794 13.8254 7.26612 13.8254H8.73382C9.02201 13.8254 9.2651 13.6108 9.30083 13.3248Z" fill="#FFA502"/>
</g>
</svg>
