<svg width="24" height="24" viewBox="0 0 24 24" fill="none" xmlns="http://www.w3.org/2000/svg">
<g id="wrapper">
<path id="Union" fill-rule="evenodd" clip-rule="evenodd" d="M7.53326 4.47162C7.82615 4.76452 7.82615 5.23939 7.53326 5.53228L4.81359 8.25195H16.5029C19.4024 8.25195 21.7529 10.6025 21.7529 13.502C21.7529 16.4014 19.4024 18.752 16.5029 18.752H12.0029C11.5887 18.752 11.2529 18.4162 11.2529 18.002C11.2529 17.5877 11.5887 17.252 12.0029 17.252H16.5029C18.574 17.252 20.2529 15.573 20.2529 13.502C20.2529 11.4309 18.574 9.75195 16.5029 9.75195H4.81359L7.53326 12.4716C7.82615 12.7645 7.82615 13.2394 7.53326 13.5323C7.24037 13.8252 6.76549 13.8252 6.4726 13.5323L2.4726 9.53228C2.17971 9.23939 2.17971 8.76452 2.4726 8.47162L6.4726 4.47162C6.76549 4.17873 7.24037 4.17873 7.53326 4.47162Z" fill="#001840"/>
</g>
</svg>
