<svg width="16" height="16" viewBox="0 0 16 16" fill="none" xmlns="http://www.w3.org/2000/svg">
<g id="shopping-bag-03">
<path id="Icon" d="M10.6664 5.33333C10.6664 6.04058 10.3854 6.71885 9.8853 7.21895C9.38521 7.71905 8.70693 8 7.99968 8C7.29244 8 6.61416 7.71905 6.11407 7.21895C5.61397 6.71885 5.33302 6.04058 5.33302 5.33333M2.42183 4.93426L1.95516 10.5343C1.85491 11.7373 1.80479 12.3388 2.00814 12.8028C2.18681 13.2105 2.49637 13.5469 2.88781 13.7588C3.33333 14 3.93692 14 5.14411 14H10.8553C12.0624 14 12.666 14 13.1116 13.7588C13.503 13.5469 13.8126 13.2105 13.9912 12.8028C14.1946 12.3388 14.1445 11.7373 14.0442 10.5343L13.5775 4.93426C13.4913 3.89917 13.4482 3.38162 13.2189 2.9899C13.0171 2.64496 12.7165 2.3684 12.356 2.1959C11.9466 2 11.4273 2 10.3886 2L5.61078 2C4.5721 2 4.05276 2 3.64336 2.1959C3.28285 2.3684 2.98228 2.64496 2.78044 2.9899C2.55122 3.38162 2.50809 3.89917 2.42183 4.93426Z" stroke="#314362" stroke-width="1.5" stroke-linecap="round" stroke-linejoin="round"/>
</g>
</svg>
