<svg width="24" height="24" viewBox="0 0 24 24" fill="none" xmlns="http://www.w3.org/2000/svg">
<g id="graph-bar-increase--up-product-performance-increase-arrow-graph-business-chart">
<path id="Union" fill-rule="evenodd" clip-rule="evenodd" d="M17.1384 0.378122C17.5062 0.00912786 18.0602 -0.101457 18.5416 0.0980926L22.1891 1.61055C22.8424 1.88146 23.1542 2.6292 22.887 3.28404L21.3988 6.93065C21.2022 7.41245 20.7345 7.72821 20.214 7.73052C19.6938 7.73285 19.2232 7.42126 19.0223 6.94123L18.4334 5.53433L3.62582 11.8632C2.97289 12.1423 2.21733 11.8392 1.93826 11.1863C1.65919 10.5333 1.96226 9.77779 2.61522 9.4987L17.4407 3.16221L16.863 1.78215C16.6619 1.30157 16.7706 0.747117 17.1384 0.378122Z" fill="#FFA502"/>
<path id="Union_2" fill-rule="evenodd" clip-rule="evenodd" d="M21.8573 9.39342C22.3119 9.39342 22.748 9.57403 23.0695 9.89553C23.3909 10.217 23.5716 10.6531 23.5716 11.1077V23.1077C23.5716 23.581 23.1877 23.9649 22.7144 23.9649H18.4287C17.9554 23.9649 17.5716 23.581 17.5716 23.1077V11.1077C17.5716 10.6531 17.7523 10.217 18.0737 9.89553C18.3951 9.57403 18.8312 9.39342 19.2859 9.39342H21.8573ZM13.2859 11.9648C13.7405 11.9648 14.1765 12.1455 14.498 12.467C14.8195 12.7884 15.0001 13.2245 15.0001 13.6791V23.1077C15.0001 23.581 14.6164 23.9649 14.143 23.9649H9.85728C9.3839 23.9649 9.00014 23.581 9.00014 23.1077V13.6791C9.00014 13.2245 9.18076 12.7884 9.50224 12.467C9.82373 12.1455 10.2598 11.9648 10.7144 11.9648H13.2859ZM5.92661 15.0384C5.60512 14.7169 5.16909 14.5363 4.71443 14.5363H2.143C1.68834 14.5363 1.25231 14.7169 0.930813 15.0384C0.609321 15.3599 0.428711 15.7959 0.428711 16.2506V23.1077C0.428711 23.581 0.812468 23.9649 1.28585 23.9649H5.57157C6.04495 23.9649 6.42871 23.581 6.42871 23.1077V16.2506C6.42871 15.7959 6.24809 15.3599 5.92661 15.0384Z" fill="#002462"/>
</g>
</svg>
