<svg
xmlns="http://www.w3.org/2000/svg"
width="16"
height="16"
fill="none"
viewBox="0 0 16 16"
>
<g fillRule="evenodd" clipRule="evenodd">
    <path
    fill="#FFA502"
    d="M12.286 0c.473 0 .857.384.857.857v2h2a.857.857 0 110 1.714h-2v2a.857.857 0 11-1.714 0v-2h-2a.857.857 0 010-1.714h2v-2c0-.473.383-.857.857-.857z"
    ></path>
    <path
    fill="#002462"
    d="M8.099 1.855a5.542 5.542 0 00-1.242-.141c-1.373 0-2.698.509-3.68 1.426-.985.918-1.545 2.172-1.545 3.488v4.314c0 .268-.114.532-.33.734-.25.233-.447.324-.73.324a.571.571 0 000 1.142h12.57a.571.571 0 100-1.142c-.282 0-.48-.09-.73-.324a1.004 1.004 0 01-.33-.734V8.848A2.286 2.286 0 0110 6.57V6h-.571a2.286 2.286 0 01-1.33-4.145zm-2.385 12.43a.857.857 0 000 1.715H8a.857.857 0 000-1.715H5.714z"
    ></path>
</g>
</svg>
