<svg xmlns="http://www.w3.org/2000/svg" width="16" height="13" viewBox="0 0 16 13" fill="none">
  <path d="M4.73081 3C3.84348 3 3.0332 3.66806 3.0332 4.59933V10.7667C3.0332 11.6981 3.84348 12.3661 4.73081 12.3661H14.3034C15.1907 12.3661 16.001 11.6981 16.001 10.7667V4.59933C16.001 3.66806 15.1907 3 14.3034 3H4.73081Z" fill="#FFA502"/>
  <path d="M1.69761 0.428589C0.810278 0.428589 0 1.09665 0 2.02791V8.19533C0 9.12661 0.810278 9.79466 1.69761 9.79466H11.2702C12.1575 9.79466 12.9678 9.12661 12.9678 8.19533V2.02791C12.9678 1.09665 12.1575 0.428589 11.2702 0.428589H1.69761Z" fill="#002462"/>
  <path fill-rule="evenodd" clip-rule="evenodd" d="M6.4833 3.39575C5.53562 3.39575 4.76738 4.16399 4.76738 5.11167C4.76738 6.05935 5.53562 6.82759 6.4833 6.82759C7.43098 6.82759 8.19922 6.05935 8.19922 5.11167C8.19922 4.16399 7.43098 3.39575 6.4833 3.39575ZM2.59933 4.25443C2.12595 4.25443 1.74219 4.63817 1.74219 5.11157C1.74219 5.58495 2.12595 5.96871 2.59933 5.96871C3.07259 5.96871 3.45653 5.58509 3.45653 5.11157C3.45653 4.63805 3.07259 4.25443 2.59933 4.25443ZM9.68524 5.11157C9.68524 4.63817 10.069 4.25443 10.5424 4.25443C11.0156 4.25443 11.3996 4.63805 11.3996 5.11157C11.3996 5.58509 11.0156 5.96871 10.5424 5.96871C10.069 5.96871 9.68524 5.58495 9.68524 5.11157Z" fill="#FFA502"/>
</svg>