<svg width="49" height="48" viewBox="0 0 49 48" fill="none" xmlns="http://www.w3.org/2000/svg">
<g id="Icon / blacklist">
<g id="Group">
<path id="Vector" d="M40.7983 21.3912V29.8981C40.7983 30.9972 40.469 32.071 39.8528 32.9811C39.2366 33.8912 38.3619 34.5958 37.3414 35.004L35.3066 35.8178C34.8817 35.9879 34.5059 36.2615 34.2135 36.6137C33.921 36.9659 33.7211 37.3855 33.6319 37.8345L32.7726 42.143C32.7102 42.455 32.5414 42.7358 32.295 42.9373C32.0487 43.1388 31.7401 43.2486 31.4218 43.248H17.1783C16.8605 43.248 16.5525 43.1379 16.3067 42.9365C16.0609 42.735 15.8924 42.4546 15.8301 42.143L14.9682 37.8345C14.8786 37.386 14.6785 36.9669 14.3861 36.6152C14.0936 36.2635 13.7181 35.9903 13.2935 35.8203L11.2587 35.0066C10.2382 34.5984 9.36349 33.8938 8.74732 32.9837C8.13114 32.0736 7.80179 30.9998 7.80176 29.9007V21.2503C7.80176 12.1487 15.1719 4.76831 24.27 4.75198C33.3681 4.73565 40.7983 12.3008 40.7983 21.3912Z" stroke="#11FFF5" stroke-width="2" stroke-miterlimit="10" stroke-linecap="round"/>
<path id="Vector_2" d="M16.7384 29.4993C18.6367 29.4993 20.1756 27.9604 20.1756 26.0621C20.1756 24.1639 18.6367 22.625 16.7384 22.625C14.8401 22.625 13.3013 24.1639 13.3013 26.0621C13.3013 27.9604 14.8401 29.4993 16.7384 29.4993Z" fill="#11FFF5" stroke="#11FFF5" stroke-miterlimit="10" stroke-linecap="round"/>
<path id="Vector_3" d="M31.8619 29.4993C33.7602 29.4993 35.2991 27.9604 35.2991 26.0621C35.2991 24.1639 33.7602 22.625 31.8619 22.625C29.9637 22.625 28.4248 24.1639 28.4248 26.0621C28.4248 27.9604 29.9637 29.4993 31.8619 29.4993Z" fill="#11FFF5" stroke="#11FFF5" stroke-miterlimit="10" stroke-linecap="round"/>
<g id="Group_2">
<path id="Vector_4" d="M24.3001 30.8745L22.9253 34.9991H25.675L24.3001 30.8745Z" stroke="#11FFF5" stroke-width="2" stroke-linecap="round" stroke-linejoin="round"/>
<path id="Vector_5" d="M24.3003 40.4985V43.2482" stroke="#11FFF5" stroke-width="2" stroke-linecap="round" stroke-linejoin="round"/>
<path id="Vector_6" d="M20.1758 40.4985V43.2482" stroke="#11FFF5" stroke-width="2" stroke-linecap="round" stroke-linejoin="round"/>
<path id="Vector_7" d="M28.4248 40.4985V43.2482" stroke="#11FFF5" stroke-width="2" stroke-linecap="round" stroke-linejoin="round"/>
</g>
</g>
</g>
</svg>
