<svg width="49" height="48" viewBox="0 0 49 48" fill="none" xmlns="http://www.w3.org/2000/svg">
<path d="M41.2983 21.3912V29.8982C41.2983 30.9972 40.9689 32.0711 40.3527 32.9812C39.7366 33.8912 38.8618 34.5958 37.8414 35.004L35.8066 35.8178C35.3816 35.988 35.0059 36.2616 34.7134 36.6137C34.421 36.9659 34.2211 37.3855 34.1319 37.8345L33.2726 42.143C33.2101 42.4551 33.0413 42.7358 32.795 42.9373C32.5487 43.1388 32.24 43.2486 31.9218 43.248H17.6782C17.3604 43.2481 17.0524 43.138 16.8066 42.9365C16.5608 42.735 16.3924 42.4546 16.33 42.143L15.4682 37.8345C15.3786 37.386 15.1785 36.9669 14.886 36.6152C14.5936 36.2635 14.2181 35.9903 13.7934 35.8204L11.7586 35.0066C10.7382 34.5984 9.86345 33.8938 9.24728 32.9837C8.6311 32.0736 8.30176 30.9998 8.30172 29.9007V21.2503C8.30172 12.1487 15.6718 4.76834 24.7699 4.75201C33.8681 4.73568 41.2983 12.3008 41.2983 21.3912Z" stroke="#FFA502" stroke-width="2" stroke-miterlimit="10" stroke-linecap="round"/>
<path d="M17.2382 29.4995C19.1365 29.4995 20.6754 27.9606 20.6754 26.0624C20.6754 24.1641 19.1365 22.6252 17.2382 22.6252C15.3399 22.6252 13.8011 24.1641 13.8011 26.0624C13.8011 27.9606 15.3399 29.4995 17.2382 29.4995Z" fill="#FFA502" stroke="#FFA502" stroke-miterlimit="10" stroke-linecap="round"/>
<path d="M32.3618 29.4995C34.2601 29.4995 35.799 27.9606 35.799 26.0624C35.799 24.1641 34.2601 22.6252 32.3618 22.6252C30.4635 22.6252 28.9247 24.1641 28.9247 26.0624C28.9247 27.9606 30.4635 29.4995 32.3618 29.4995Z" fill="#FFA502" stroke="#FFA502" stroke-miterlimit="10" stroke-linecap="round"/>
<path d="M24.8 30.8743L23.4252 34.9989H26.1749L24.8 30.8743Z" stroke="#FFA502" stroke-width="2" stroke-linecap="round" stroke-linejoin="round"/>
<path d="M24.8 40.4983V43.2481" stroke="#FFA502" stroke-width="2" stroke-linecap="round" stroke-linejoin="round"/>
<path d="M20.6756 40.4983V43.2481" stroke="#FFA502" stroke-width="2" stroke-linecap="round" stroke-linejoin="round"/>
<path d="M28.9247 40.4983V43.2481" stroke="#FFA502" stroke-width="2" stroke-linecap="round" stroke-linejoin="round"/>
</svg>
