<svg xmlns="http://www.w3.org/2000/svg" width="20" height="22" viewBox="0 0 20 22" fill="none">
  <path d="M18.2491 9.54521V13.7987C18.2491 14.3482 18.0845 14.8851 17.7764 15.3402C17.4683 15.7952 17.0309 16.1475 16.5207 16.3516L15.5033 16.7585C15.2908 16.8436 15.1029 16.9804 14.9567 17.1565C14.8105 17.3325 14.7105 17.5424 14.6659 17.7669L14.2363 19.9211C14.2051 20.0771 14.1207 20.2175 13.9975 20.3183C13.8743 20.419 13.72 20.4739 13.5609 20.4736H6.43912C6.28021 20.4736 6.1262 20.4186 6.0033 20.3178C5.8804 20.2171 5.79619 20.0769 5.76501 19.9211L5.33408 17.7669C5.28927 17.5426 5.18923 17.333 5.04302 17.1572C4.8968 16.9813 4.70903 16.8447 4.4967 16.7598L3.47931 16.3529C2.96909 16.1488 2.53172 15.7965 2.22363 15.3415C1.91555 14.8864 1.75087 14.3495 1.75085 13.8V9.47475C1.75085 4.92397 5.4359 1.23376 9.98496 1.2256C14.534 1.21744 18.2491 5.00001 18.2491 9.54521Z" stroke="#F0F0F0" stroke-width="2" stroke-miterlimit="10" stroke-linecap="round"/>
  <path d="M6.21906 13.5993C7.1682 13.5993 7.93763 12.8298 7.93763 11.8807C7.93763 10.9315 7.1682 10.1621 6.21906 10.1621C5.26992 10.1621 4.50049 10.9315 4.50049 11.8807C4.50049 12.8298 5.26992 13.5993 6.21906 13.5993Z" fill="#F0F0F0" stroke="#F0F0F0" stroke-miterlimit="10" stroke-linecap="round"/>
  <path d="M13.781 13.5993C14.7301 13.5993 15.4995 12.8298 15.4995 11.8807C15.4995 10.9315 14.7301 10.1621 13.781 10.1621C12.8318 10.1621 12.0624 10.9315 12.0624 11.8807C12.0624 12.8298 12.8318 13.5993 13.781 13.5993Z" fill="#F0F0F0" stroke="#F0F0F0" stroke-miterlimit="10" stroke-linecap="round"/>
  <path d="M9.99993 14.2871L9.3125 16.3494H10.6874L9.99993 14.2871Z" stroke="#F0F0F0" stroke-width="2" stroke-linecap="round" stroke-linejoin="round"/>
  <path d="M10 19.0986V20.4735" stroke="#F0F0F0" stroke-width="2" stroke-linecap="round" stroke-linejoin="round"/>
  <path d="M7.93774 19.0986V20.4735" stroke="#F0F0F0" stroke-width="2" stroke-linecap="round" stroke-linejoin="round"/>
  <path d="M12.0624 19.0986V20.4735" stroke="#F0F0F0" stroke-width="2" stroke-linecap="round" stroke-linejoin="round"/>
</svg>