<svg width="71" height="81" viewBox="0 0 71 81" fill="none" xmlns="http://www.w3.org/2000/svg">
<path d="M27.2918 30.1018C27.4192 30.1018 27.5148 30.2053 27.5148 30.3248C27.5148 30.4442 27.4112 30.5477 27.2918 30.5477C27.1723 30.5477 27.0688 30.4442 27.0688 30.3248C27.0688 30.2053 27.1723 30.1018 27.2918 30.1018ZM27.2918 27.7126C25.8504 27.7126 24.6797 28.8833 24.6797 30.3248C24.6797 31.7662 25.8504 32.9369 27.2918 32.9369C28.7332 32.9369 29.9039 31.7662 29.9039 30.3248C29.9039 28.8833 28.7332 27.7126 27.2918 27.7126Z" fill="#F0F0F0"/>
<path d="M33.3992 32.4194C31.9578 32.4194 30.7871 33.5901 30.7871 35.0315C30.7871 36.473 31.9578 36.5128 33.3992 36.5128C34.8406 36.5128 36.0113 36.473 36.0113 35.0315C36.0113 33.5901 34.8406 32.4194 33.3992 32.4194Z" fill="#F0F0F0"/>
<path d="M37.5402 21.6045C41.5141 21.6045 44.7395 24.8298 44.7395 28.8037V34.665C44.7395 36.1223 43.5608 37.301 42.1035 37.301H39.5073V42.6207C39.5073 43.0588 39.1569 43.4092 38.7189 43.4092H36.8872C36.4094 43.4092 36.0192 43.0189 36.0192 42.5411C36.0192 41.0997 34.8485 39.929 33.4071 39.929C31.9656 39.929 30.795 41.0997 30.795 42.5411C30.795 43.0189 30.4047 43.4092 29.9269 43.4092H28.0953C27.6572 43.4092 27.3068 43.0588 27.3068 42.6207V37.301H24.7107C23.2533 37.301 22.0747 36.1223 22.0747 34.665V28.8037C22.0747 24.8298 25.3 21.6045 29.2739 21.6045H37.5562M37.5562 19.2153H29.2739C23.986 19.2153 19.6855 23.5157 19.6855 28.8037V34.665C19.6855 37.4364 21.9393 39.6901 24.7107 39.6901H24.9177V42.6207C24.9177 44.3728 26.3432 45.7983 28.0953 45.7983H29.9269C31.7267 45.7983 33.1841 44.3329 33.1841 42.5411C33.1841 42.4137 33.2876 42.3181 33.4071 42.3181C33.5265 42.3181 33.63 42.4217 33.63 42.5411C33.63 44.3409 35.0954 45.7983 36.8872 45.7983H38.7189C40.4709 45.7983 41.8964 44.3728 41.8964 42.6207V39.6901H42.1035C44.8748 39.6901 47.1286 37.4364 47.1286 34.665V28.8037C47.1286 23.5157 42.8282 19.2153 37.5402 19.2153H37.5562Z" fill="#F0F0F0"/>
<path d="M39.4988 30.1018C39.6262 30.1018 39.7218 30.2053 39.7218 30.3248C39.7218 30.4442 39.6183 30.5477 39.4988 30.5477C39.3794 30.5477 39.2758 30.4442 39.2758 30.3248C39.2758 30.2053 39.3794 30.1018 39.4988 30.1018ZM39.4988 27.7126C38.0574 27.7126 36.8867 28.8833 36.8867 30.3248C36.8867 31.7662 38.0574 32.9369 39.4988 32.9369C40.9403 32.9369 42.1109 31.7662 42.1109 30.3248C42.1109 28.8833 40.9403 27.7126 39.4988 27.7126Z" fill="#F0F0F0"/>
<path d="M6.81658 74.2448C4.6823 74.2448 3.00195 72.1901 3.00195 69.5621V12.0162C3.00195 9.38814 4.67434 7.3335 6.81658 7.3335C8.95883 7.3335 10.6312 9.38814 10.6312 12.0162V69.5701C10.6312 72.1981 8.95883 74.2528 6.81658 74.2528V74.2448ZM6.81658 9.72262C6.14763 9.72262 5.39107 10.6623 5.39107 12.0162V69.5701C5.39107 70.9239 6.13966 71.8636 6.81658 71.8636C7.4935 71.8636 8.24209 70.9239 8.24209 69.5701V12.0162C8.24209 10.6623 7.4935 9.72262 6.81658 9.72262Z" fill="#F0F0F0"/>
<path d="M53.3957 26.8687C53.2365 26.8687 53.0851 26.8368 52.9418 26.7731C52.7905 26.7174 52.6631 26.6298 52.5516 26.5183C52.4401 26.3988 52.3525 26.2714 52.2888 26.128C52.233 25.9847 52.2012 25.8254 52.2012 25.6661C52.2012 25.5945 52.2091 25.5148 52.2251 25.4352C52.241 25.3635 52.2649 25.2839 52.2888 25.2122C52.3206 25.1405 52.3604 25.0689 52.4003 25.0052C52.448 24.9414 52.4958 24.8777 52.5516 24.8299C52.8303 24.5512 53.2365 24.4238 53.6267 24.4955C53.7063 24.5114 53.778 24.5353 53.8497 24.5671C53.9213 24.599 53.993 24.6309 54.0567 24.6786C54.1204 24.7185 54.1841 24.7742 54.2399 24.8299C54.2956 24.8777 54.3434 24.9414 54.3912 25.0052C54.431 25.0689 54.4708 25.1405 54.5027 25.2122C54.5266 25.2839 54.5505 25.3635 54.5664 25.4352C54.5823 25.5148 54.5903 25.5945 54.5903 25.6661C54.5903 25.8254 54.5584 25.9847 54.5027 26.128C54.439 26.2714 54.3514 26.3988 54.2399 26.5183C54.0169 26.7412 53.7143 26.8687 53.3957 26.8687Z" fill="#F0F0F0"/>
<path d="M53.3964 23.1417C52.7354 23.1417 52.2018 22.6081 52.2018 21.9471V18.6342C52.2018 15.6398 49.7649 13.2109 46.7785 13.2109C46.1176 13.2109 45.584 12.6773 45.584 12.0163C45.584 11.3553 46.1176 10.8218 46.7785 10.8218C51.0869 10.8218 54.591 14.3258 54.591 18.6342V21.9471C54.591 22.6081 54.0574 23.1417 53.3964 23.1417Z" fill="#31D3F5"/>
<path d="M52.1544 55.2276H16.3256C14.9797 55.2276 13.8887 54.1365 13.8887 52.7907V13.2587C13.8887 11.9128 14.9797 10.8218 16.3256 10.8218H42.4705C43.1315 10.8218 43.6651 11.3553 43.6651 12.0163C43.6651 12.6773 43.1315 13.2109 42.4705 13.2109H16.3256L16.2778 52.7907L52.1465 52.8384L52.1942 42.0715C52.1942 41.4105 52.7278 40.8769 53.3888 40.8769C54.0498 40.8769 54.5834 41.4105 54.5834 42.0715V52.7907C54.5834 54.1365 53.4923 55.2276 52.1465 55.2276H52.1544Z" fill="#F0F0F0"/>
<path d="M53.3957 39.5389C52.7347 39.5389 52.2012 39.0054 52.2012 38.3444V29.4011C52.2012 28.7401 52.7347 28.2065 53.3957 28.2065C54.0567 28.2065 54.5903 28.7401 54.5903 29.4011V38.3444C54.5903 39.0054 54.0567 39.5389 53.3957 39.5389Z" fill="#31D3F5"/>
<path d="M63.7811 67.2687H31.1537C29.8078 67.2687 28.7168 66.1776 28.7168 64.8318V58.182C28.7168 57.5211 29.2504 56.9875 29.9114 56.9875C30.5723 56.9875 31.1059 57.5211 31.1059 58.182V64.8318L63.7811 64.8795C64.3943 64.8795 64.9518 64.5849 65.2942 64.0832C65.6446 63.5735 65.7083 62.9523 65.4854 62.3789L58.8834 45.5038C58.7719 45.2251 58.7719 44.9145 58.8834 44.6357L65.4854 27.7606C65.7083 27.1872 65.6367 26.566 65.2942 26.0563C64.9438 25.5467 64.3943 25.26 63.7811 25.26H59.2657C58.6047 25.26 58.0711 24.7264 58.0711 24.0654C58.0711 23.4044 58.6047 22.8708 59.2657 22.8708H63.7811C65.1748 22.8708 66.4808 23.5637 67.2692 24.7105C68.0576 25.8652 68.2249 27.3305 67.7152 28.6286L61.2885 45.0737L67.7152 61.5189C68.2249 62.8169 68.0576 64.2823 67.2692 65.437C66.4808 66.5917 65.1748 67.2766 63.7811 67.2766V67.2687Z" fill="#F0F0F0"/>
</svg>
