<svg width="48" height="48" viewBox="0 0 48 48" fill="none" xmlns="http://www.w3.org/2000/svg">
<path d="M42 32V16C41.9993 15.2986 41.8141 14.6096 41.4631 14.0023C41.1121 13.395 40.6075 12.8907 40 12.54L26 4.54C25.392 4.18893 24.7022 4.0041 24 4.0041C23.2979 4.0041 22.6081 4.18893 22 4.54L8.00003 12.54C7.39256 12.8907 6.88799 13.395 6.53695 14.0023C6.18592 14.6096 6.00075 15.2986 6.00003 16V32C6.00075 32.7015 6.18592 33.3904 6.53695 33.9977C6.88799 34.605 7.39256 35.1093 8.00003 35.46L22 43.46C22.6081 43.8111 23.2979 43.9959 24 43.9959C24.7022 43.9959 25.392 43.8111 26 43.46L40 35.46C40.6075 35.1093 41.1121 34.605 41.4631 33.9977C41.8141 33.3904 41.9993 32.7015 42 32Z" stroke="#FFA502" stroke-width="2" stroke-linecap="round" stroke-linejoin="round"/>
<path d="M6.54002 13.92L24 24.02L41.46 13.92" stroke="#FFA502" stroke-width="2" stroke-linecap="round" stroke-linejoin="round"/>
<path d="M24 44.16V24" stroke="#FFA502" stroke-width="2" stroke-linecap="round" stroke-linejoin="round"/>
</svg>
