<svg width="49" height="48" viewBox="0 0 49 48" fill="none" xmlns="http://www.w3.org/2000/svg">
<g id="Icon / block">
<path id="Vector" d="M42.5 31.9998V15.9998C42.4993 15.2984 42.3141 14.6094 41.9631 14.0021C41.612 13.3948 41.1075 12.8905 40.5 12.5398L26.5 4.5398C25.8919 4.18873 25.2021 4.00391 24.5 4.00391C23.7979 4.00391 23.1081 4.18873 22.5 4.5398L8.5 12.5398C7.89253 12.8905 7.38796 13.3948 7.03692 14.0021C6.68589 14.6094 6.50072 15.2984 6.5 15.9998V31.9998C6.50072 32.7013 6.68589 33.3902 7.03692 33.9975C7.38796 34.6048 7.89253 35.1091 8.5 35.4598L22.5 43.4598C23.1081 43.8109 23.7979 43.9957 24.5 43.9957C25.2021 43.9957 25.8919 43.8109 26.5 43.4598L40.5 35.4598C41.1075 35.1091 41.612 34.6048 41.9631 33.9975C42.3141 33.3902 42.4993 32.7013 42.5 31.9998Z" stroke="#11FFF5" stroke-width="2" stroke-linecap="round" stroke-linejoin="round"/>
<path id="Vector_2" d="M7.04004 13.9199L24.5 24.0199L41.96 13.9199" stroke="#11FFF5" stroke-width="2" stroke-linecap="round" stroke-linejoin="round"/>
<path id="Vector_3" d="M24.5 44.16V24" stroke="#11FFF5" stroke-width="2" stroke-linecap="round" stroke-linejoin="round"/>
</g>
</svg>
