<svg xmlns="http://www.w3.org/2000/svg" width="24" height="25" viewBox="0 0 24 25" fill="none">
  <path d="M21 16.8495V8.84951C20.9996 8.49879 20.9071 8.15432 20.7315 7.85067C20.556 7.54703 20.3037 7.29487 20 7.11951L13 3.11951C12.696 2.94397 12.3511 2.85156 12 2.85156C11.6489 2.85156 11.304 2.94397 11 3.11951L4 7.11951C3.69626 7.29487 3.44398 7.54703 3.26846 7.85067C3.09294 8.15432 3.00036 8.49879 3 8.84951V16.8495C3.00036 17.2002 3.09294 17.5447 3.26846 17.8483C3.44398 18.152 3.69626 18.4041 4 18.5795L11 22.5795C11.304 22.755 11.6489 22.8475 12 22.8475C12.3511 22.8475 12.696 22.755 13 22.5795L20 18.5795C20.3037 18.4041 20.556 18.152 20.7315 17.8483C20.9071 17.5447 20.9996 17.2002 21 16.8495Z" stroke="#F0F0F0" stroke-width="2" stroke-linecap="round" stroke-linejoin="round"/>
  <path d="M3.27002 7.80957L12 12.8596L20.73 7.80957" stroke="#F0F0F0" stroke-width="2" stroke-linecap="round" stroke-linejoin="round"/>
  <path d="M12 22.9296V12.8496" stroke="#F0F0F0" stroke-width="2" stroke-linecap="round" stroke-linejoin="round"/>
</svg>