<svg width="16" height="16" viewBox="0 0 16 16" fill="none" xmlns="http://www.w3.org/2000/svg">
<g id="icon-wrapper" clip-path="url(#clip0_5804_52702)">
<path id="Union" fill-rule="evenodd" clip-rule="evenodd" d="M11.8632 1.44449C12.6954 0.612254 14.0448 0.612255 14.877 1.44449C15.7092 2.27672 15.7092 3.62604 14.877 4.45827L8.65126 10.684C8.63766 10.6976 8.62413 10.7112 8.61067 10.7247C8.42621 10.9095 8.25302 11.0831 8.04361 11.2115C7.86 11.324 7.65983 11.4069 7.45045 11.4572C7.21163 11.5145 6.96641 11.5142 6.70525 11.5139C6.68618 11.5139 6.66703 11.5139 6.64779 11.5139H5.5576C5.14338 11.5139 4.8076 11.1781 4.8076 10.7639V9.67369C4.8076 9.65445 4.80757 9.6353 4.80755 9.61624C4.80725 9.35507 4.80696 9.10985 4.8643 8.87104C4.91457 8.66165 4.99748 8.46148 5.10999 8.27788C5.23832 8.06847 5.41192 7.89527 5.5968 7.71082C5.6103 7.69735 5.62386 7.68383 5.63746 7.67022L11.8632 1.44449ZM13.8163 2.50515C13.5699 2.2587 13.1703 2.2587 12.9239 2.50515L6.69812 8.73089C6.44768 8.98133 6.4123 9.02352 6.38895 9.06163C6.35868 9.11102 6.33637 9.16488 6.32285 9.22121C6.31242 9.26467 6.3076 9.31952 6.3076 9.67369V10.0139H6.64779C7.00197 10.0139 7.05682 10.0091 7.10028 9.99862C7.15661 9.98509 7.21046 9.96279 7.25986 9.93252C7.29797 9.90916 7.34016 9.87379 7.5906 9.62335L13.8163 3.39761C14.0628 3.15116 14.0628 2.75159 13.8163 2.50515ZM4.74605 2.20138L4.77636 2.20138H7.51074C7.92495 2.20138 8.26074 2.53717 8.26074 2.95138C8.26074 3.36559 7.92495 3.70138 7.51074 3.70138H4.77636C4.21706 3.70138 3.84269 3.70196 3.55463 3.7255C3.27532 3.74832 3.14383 3.78892 3.05828 3.83251C2.8319 3.94786 2.64785 4.13191 2.5325 4.3583C2.48891 4.44384 2.44831 4.57534 2.42549 4.85464C2.40195 5.1427 2.40137 5.51707 2.40137 6.07638V11.5451C2.40137 12.1044 2.40195 12.4788 2.42549 12.7669C2.44831 13.0462 2.48891 13.1777 2.5325 13.2632C2.64785 13.4896 2.8319 13.6736 3.05828 13.789C3.14383 13.8326 3.27532 13.8732 3.55463 13.896C3.84269 13.9195 4.21706 13.9201 4.77636 13.9201H10.2451C10.8044 13.9201 11.1788 13.9195 11.4668 13.896C11.7461 13.8732 11.8776 13.8326 11.9632 13.789C12.1896 13.6736 12.3736 13.4896 12.489 13.2632C12.5326 13.1777 12.5732 13.0462 12.596 12.7669C12.6195 12.4788 12.6201 12.1044 12.6201 11.5451V8.81075C12.6201 8.39653 12.9559 8.06075 13.3701 8.06075C13.7843 8.06075 14.1201 8.39653 14.1201 8.81075V11.5451V11.5754C14.1201 12.0965 14.1201 12.5326 14.091 12.889C14.0606 13.2611 13.9948 13.6119 13.8255 13.9442C13.5663 14.4528 13.1528 14.8663 12.6442 15.1255C12.3119 15.2948 11.9611 15.3606 11.589 15.391C11.2326 15.4201 10.7966 15.4201 10.2754 15.4201H10.2451H4.77636H4.74603C4.22492 15.4201 3.7889 15.4201 3.43248 15.391C3.06042 15.3606 2.70955 15.2948 2.3773 15.1255C1.86867 14.8663 1.45515 14.4528 1.19599 13.9442C1.0267 13.6119 0.960868 13.2611 0.930469 12.889C0.901348 12.5326 0.901357 12.0966 0.901368 11.5754L0.901368 11.5451V6.07638L0.901368 6.04606C0.901357 5.52494 0.901348 5.08892 0.930469 4.73249C0.960868 4.36043 1.0267 4.00956 1.19599 3.67731C1.45515 3.16868 1.86867 2.75516 2.3773 2.496C2.70955 2.32671 3.06042 2.26088 3.43248 2.23048C3.78891 2.20136 4.22493 2.20137 4.74605 2.20138Z" fill="#1570EF"/>
</g>
<defs>
<clipPath id="clip0_5804_52702">
<rect width="16" height="16" fill="white"/>
</clipPath>
</defs>
</svg>
