<svg xmlns="http://www.w3.org/2000/svg" width="90" height="90" viewBox="0 0 90 90" fill="none">
  <path fill-rule="evenodd" clip-rule="evenodd" d="M0 32.0842C0 27.7325 3.51856 24.2048 7.85893 24.2048H65.4911C69.8313 24.2048 73.35 27.7325 73.35 32.0842V51.7511C73.2751 51.7504 73.2001 51.75 73.125 51.75C61.3199 51.75 51.75 61.3199 51.75 73.125C51.75 76.2861 52.4362 79.287 53.6678 81.9868H7.85893C3.51856 81.9868 0 78.4589 0 74.1074V32.0842ZM73.35 56.2514V74.1074C73.35 78.4589 69.8313 81.9868 65.4911 81.9868H58.7614C57.169 79.4113 56.25 76.3755 56.25 73.125C56.25 63.8052 63.8052 56.25 73.125 56.25C73.2001 56.25 73.2751 56.2505 73.35 56.2514Z" fill="#002462"/>
  <path fill-rule="evenodd" clip-rule="evenodd" d="M19.713 11.2425C21.4325 9.51855 23.7646 8.55005 26.1963 8.55005H47.1535C49.5852 8.55005 51.9173 9.51855 53.6366 11.2425C55.3561 12.9664 56.3222 15.3046 56.3222 17.7427V28.2485C56.3222 30.4243 54.5629 32.1881 52.3928 32.1881C50.2226 32.1881 48.4633 30.4243 48.4633 28.2485V17.7427C48.4633 17.3943 48.3253 17.0603 48.0797 16.814C47.834 16.5677 47.5008 16.4294 47.1535 16.4294H26.1963C25.849 16.4294 25.5158 16.5677 25.2701 16.814C25.0245 17.0603 24.8865 17.3943 24.8865 17.7427V28.2485C24.8865 30.4243 23.1272 32.1881 20.9571 32.1881C18.7869 32.1881 17.0276 30.4243 17.0276 28.2485V17.7427C17.0276 15.3046 17.9936 12.9664 19.713 11.2425Z" fill="#FFA502"/>
  <path d="M0 32.0411C0 27.54 3.64888 23.8911 8.15 23.8911H65.2C69.7011 23.8911 73.35 27.54 73.35 32.0411V43.3073L36.675 52.8955L0 43.3073V32.0411Z" fill="#304872"/>
  <path d="M33.0793 48.7323C33.0793 47.9867 33.6838 47.3823 34.4293 47.3823H38.9205C39.6661 47.3823 40.2705 47.9867 40.2705 48.7323V55.6206C40.2705 56.3661 39.6661 56.9706 38.9205 56.9706H34.4293C33.6838 56.9706 33.0793 56.3661 33.0793 55.6206V48.7323Z" fill="#C1C9D5"/>
  <path d="M90 73.125C90 82.4448 82.4448 90 73.125 90C63.8052 90 56.25 82.4448 56.25 73.125C56.25 63.8052 63.8052 56.25 73.125 56.25C82.4448 56.25 90 63.8052 90 73.125Z" fill="#FFD892"/>
  <path d="M73.1438 84.1499C72.5704 84.1499 72.0719 83.8223 72.0719 83.036V82.0008C70.3394 81.8305 68.7813 81.2408 67.7842 80.2841C67.0239 79.5896 66.6001 78.7903 66.6001 78.0171C66.6001 77.1391 67.1735 76.6281 67.9338 76.6281C68.4074 76.6281 68.7564 76.7722 69.3921 77.4405C70.5139 78.7116 71.7478 79.3013 73.231 79.3013C75.2129 79.3013 76.3222 78.3578 76.3222 76.8639C76.3222 75.7108 75.5618 75.0293 73.7171 74.5707L71.1869 73.9548C68.3451 73.2865 66.8618 71.596 66.8618 69.0538C66.8618 66.1447 68.9184 64.1135 72.1467 63.799V62.7507C72.1467 61.9644 72.6452 61.6499 73.2061 61.6499C73.7795 61.6499 74.278 61.9775 74.278 62.7507V63.8383C75.8361 64.048 77.2196 64.6508 78.1419 65.5681C78.8399 66.2888 79.2512 67.0882 79.2512 67.822C79.2512 68.5821 78.7153 69.0931 78.0173 69.0931C77.4439 69.0931 77.0202 68.8703 76.4717 68.2675C75.3873 66.9964 74.4151 66.4985 73.0192 66.4985C71.2991 66.4985 70.2022 67.4682 70.2022 68.8048C70.2022 69.9187 70.975 70.6787 72.558 71.0457L75.0882 71.6484C78.1669 72.3561 79.6501 73.9286 79.6501 76.5232C79.6501 79.5372 77.5561 81.6077 74.2033 81.9877V83.036C74.2033 83.8223 73.7047 84.1499 73.1438 84.1499Z" fill="#FFA502"/>
</svg>