<svg width="20" height="20" viewBox="0 0 20 20" fill="none" xmlns="http://www.w3.org/2000/svg">
<g id="help-chat-2--bubble-help-mark-message-query-question-speech-circle">
<path id="Union" fill-rule="evenodd" clip-rule="evenodd" d="M14.3144 1.05102C12.9677 0.402121 11.4919 0.065557 9.99693 0.0664079C8.20014 0.0670049 6.43694 0.554934 4.89553 1.47824C3.35404 2.40157 2.09187 3.72573 1.24344 5.30967C0.395008 6.89361 -0.00790511 8.67802 0.0776133 10.4729C0.157242 12.1441 0.657558 13.766 1.52948 15.1893L0.109155 18.9682C0.0187063 19.2088 0.0645521 19.4795 0.229199 19.6769C0.393845 19.8743 0.651891 19.9681 0.904869 19.9223L5.85627 19.0271C7.14101 19.6172 8.53781 19.9266 9.9534 19.9336C11.4484 19.9411 12.9257 19.6109 14.2754 18.9679C15.625 18.3248 16.8122 17.3855 17.7482 16.2198C18.6842 15.0541 19.345 13.6921 19.6814 12.2355C20.0179 10.7788 20.0212 9.26502 19.6912 7.80691C19.361 6.34881 18.7062 4.98401 17.7752 3.81425C16.8443 2.6445 15.6613 1.69994 14.3144 1.05102Z" fill="#002462"/>
<path id="Union_2" fill-rule="evenodd" clip-rule="evenodd" d="M10.2767 6.26811C10.001 6.21327 9.71511 6.24141 9.45534 6.34902C9.19555 6.45662 8.97352 6.63884 8.81731 6.87264C8.66109 7.10642 8.57771 7.38129 8.57771 7.66247C8.57771 8.15558 8.17796 8.55532 7.68485 8.55532C7.19174 8.55532 6.79199 8.15558 6.79199 7.66247C6.79199 7.02811 6.98011 6.40799 7.33254 5.88054C7.68496 5.35309 8.18589 4.94199 8.77196 4.69924C9.35804 4.45647 10.0029 4.39295 10.6251 4.51671C11.2473 4.64047 11.8188 4.94595 12.2673 5.39451C12.7159 5.84307 13.0214 6.41457 13.1451 7.03674C13.2689 7.65891 13.2054 8.30381 12.9626 8.88988C12.7199 9.47597 12.3088 9.97688 11.7813 10.3293C11.5064 10.513 11.2064 10.652 10.8922 10.7431V11.52C10.8922 12.0131 10.4925 12.4129 9.99938 12.4129C9.50626 12.4129 9.10652 12.0131 9.10652 11.52V9.97701C9.10652 9.48389 9.50626 9.08415 9.99938 9.08415C10.2806 9.08415 10.5554 9.00077 10.7892 8.84455C11.023 8.68834 11.2052 8.46629 11.3128 8.20652C11.4204 7.94675 11.4486 7.66089 11.3937 7.38512C11.3389 7.10934 11.2035 6.85602 11.0046 6.65719C10.8058 6.45837 10.5525 6.32297 10.2767 6.26811ZM9.99946 16.2704C9.29464 16.2688 8.72375 15.6969 8.72375 14.9918C8.72375 14.2857 9.29621 13.7132 10.0024 13.7132L10.0053 13.7132C10.7101 13.7148 11.281 14.2867 11.281 14.9918C11.281 15.6979 10.7085 16.2704 10.0023 16.2704H9.99946Z" fill="#FFA502"/>
</g>
</svg>
