<svg width="16" height="16" viewBox="0 0 16 16" fill="none" xmlns="http://www.w3.org/2000/svg">
<g clip-path="url(#clip0_6987_153579)">
<path d="M8.57143 6.85742C8.25584 6.85742 8 7.11326 8 7.42885V15.4289C8 15.7444 8.25584 16.0003 8.57143 16.0003H15.4286C15.7441 16.0003 16 15.7444 16 15.4289V7.42885C16 7.11326 15.7441 6.85742 15.4286 6.85742H8.57143Z" fill="#FFA502"/>
<path d="M5.16696 0.157564C4.9463 -0.0525215 4.59961 -0.0525215 4.37894 0.157564L0.177415 4.15757C0.0641237 4.26542 0 4.41501 0 4.57143V15.4286C0 15.7441 0.255838 16 0.571429 16H8.97447C9.29007 16 9.5459 15.7441 9.5459 15.4286V4.57143C9.5459 4.41501 9.48178 4.26542 9.36849 4.15757L5.16696 0.157564Z" fill="#002462"/>
<path fill-rule="evenodd" clip-rule="evenodd" d="M5.91657 15.9999V13.7141C5.91657 13.0829 5.40489 12.5713 4.77372 12.5713C4.14253 12.5713 3.63086 13.0829 3.63086 13.7141V15.9999H5.91657Z" fill="#FFA502"/>
<path fill-rule="evenodd" clip-rule="evenodd" d="M3.19671 5.17773C2.80222 5.17773 2.48242 5.49753 2.48242 5.89202C2.48242 6.28651 2.80222 6.60631 3.19671 6.60631H6.34785C6.74234 6.60631 7.06214 6.28651 7.06214 5.89202C7.06214 5.49753 6.74234 5.17773 6.34785 5.17773H3.19671ZM3.19671 8.15756C2.80222 8.15756 2.48242 8.47736 2.48242 8.87185C2.48242 9.26633 2.80222 9.58613 3.19671 9.58613H6.34785C6.74234 9.58613 7.06214 9.26633 7.06214 8.87185C7.06214 8.47736 6.74234 8.15756 6.34785 8.15756H3.19671Z" fill="#FFA502"/>
</g>
<defs>
<clipPath id="clip0_6987_153579">
<rect width="16" height="16" fill="white"/>
</clipPath>
</defs>
</svg>
