<svg width="21" height="24" viewBox="0 0 21 24" fill="none" xmlns="http://www.w3.org/2000/svg">
<path d="M0.582275 2.99727C0.582275 1.3996 1.86461 0.074707 3.48288 0.074707H18.017C19.6353 0.074707 20.9176 1.3996 20.9176 2.99727V21.0026C20.9176 22.6003 19.6353 23.9251 18.017 23.9251H3.48288C1.86461 23.9251 0.582275 22.6003 0.582275 21.0026V2.99727Z" fill="#002462"/>
<path fill-rule="evenodd" clip-rule="evenodd" d="M3.15369 2.99726C3.15369 2.7869 3.31737 2.64612 3.48286 2.64612H18.017C18.1824 2.64612 18.3461 2.7869 18.3461 2.99726V8.85176H3.15369V2.99726ZM13.2598 4.80284C12.6681 4.80284 12.1884 5.28254 12.1884 5.87427C12.1884 6.46599 12.6681 6.9457 13.2598 6.9457H15.6915C16.2833 6.9457 16.763 6.46599 16.763 5.87427C16.763 5.28254 16.2833 4.80284 15.6915 4.80284H13.2598Z" fill="#FFA502"/>
<path fill-rule="evenodd" clip-rule="evenodd" d="M5.31403 14.9472C6.02411 14.9472 6.59975 14.3715 6.59975 13.6614C6.59975 12.9514 6.02411 12.3757 5.31403 12.3757C4.60396 12.3757 4.02832 12.9514 4.02832 13.6614C4.02832 14.3715 4.60396 14.9472 5.31403 14.9472ZM10.7499 14.9472C11.46 14.9472 12.0356 14.3715 12.0356 13.6614C12.0356 12.9514 11.46 12.3757 10.7499 12.3757C10.0398 12.3757 9.46422 12.9514 9.46422 13.6614C9.46422 14.3715 10.0398 14.9472 10.7499 14.9472ZM17.4715 13.6614C17.4715 14.3715 16.8959 14.9472 16.1858 14.9472C15.4757 14.9472 14.9001 14.3715 14.9001 13.6614C14.9001 12.9514 15.4757 12.3757 16.1858 12.3757C16.8959 12.3757 17.4715 12.9514 17.4715 13.6614ZM5.31403 20.4761C6.02411 20.4761 6.59975 19.9005 6.59975 19.1904C6.59975 18.4803 6.02411 17.9047 5.31403 17.9047C4.60396 17.9047 4.02832 18.4803 4.02832 19.1904C4.02832 19.9005 4.60396 20.4761 5.31403 20.4761ZM12.0356 19.1904C12.0356 19.9005 11.46 20.4761 10.7499 20.4761C10.0398 20.4761 9.46422 19.9005 9.46422 19.1904C9.46422 18.4803 10.0398 17.9047 10.7499 17.9047C11.46 17.9047 12.0356 18.4803 12.0356 19.1904ZM16.1858 20.4761C16.8959 20.4761 17.4715 19.9005 17.4715 19.1904C17.4715 18.4803 16.8959 17.9047 16.1858 17.9047C15.4757 17.9047 14.9001 18.4803 14.9001 19.1904C14.9001 19.9005 15.4757 20.4761 16.1858 20.4761Z" fill="#FFA502"/>
</svg>
