<svg xmlns="http://www.w3.org/2000/svg" width="30" height="30" viewBox="0 0 30 30" fill="none">
  <path d="M3.75 3C3.75 1.34315 5.09315 0 6.75 0H23.25C24.9069 0 26.25 1.34315 26.25 3V27C26.25 28.6569 24.9069 30 23.25 30H6.75C5.09315 30 3.75 28.6569 3.75 27V3Z" fill="#002462"/>
  <path d="M6.75 3.45C6.75 3.03579 7.08579 2.7 7.5 2.7H22.5C22.9142 2.7 23.25 3.03579 23.25 3.45V8.55C23.25 8.96421 22.9142 9.3 22.5 9.3H7.5C7.08579 9.3 6.75 8.96421 6.75 8.55V3.45Z" fill="#C1C9D5"/>
  <ellipse cx="8.7" cy="13.65" rx="1.95" ry="1.95" fill="#FFD892"/>
  <circle cx="8.7" cy="19.95" r="1.95" fill="#FFD892"/>
  <circle cx="15.0008" cy="13.65" r="1.95" fill="#FFD892"/>
  <ellipse cx="15.0008" cy="19.95" rx="1.95" ry="1.95" fill="#FFD892"/>
  <ellipse cx="21.2996" cy="13.65" rx="1.95" ry="1.95" fill="#FFA502"/>
  <circle cx="21.2996" cy="19.95" r="1.95" fill="#FFA502"/>
  <ellipse cx="21.2996" cy="26.25" rx="1.95" ry="1.95" fill="#FFA502"/>
  <rect x="6.75" y="24.3" width="10.2" height="3.9" rx="1.95" fill="#FFD892"/>
</svg>