<svg width="71" height="81" viewBox="0 0 71 81" fill="none" xmlns="http://www.w3.org/2000/svg">
<path d="M29.2598 43.915C30.6004 45.7073 32.3108 47.1902 34.275 48.2633C36.2391 49.3365 38.4111 49.9746 40.6436 50.1345C42.876 50.2944 45.1168 49.9723 47.2138 49.19M62.1626 36.2356C65.0058 33.2918 66.5791 29.349 66.5435 25.2565M51.0712 9.78416C46.9787 9.7486 43.0359 11.3219 40.0921 14.1651L34.7228 19.5032M57.48 40.9181L55.1388 43.2594" stroke="#F0F0F0" stroke-width="3" stroke-linecap="round" stroke-linejoin="round"/>
<path d="M29.2598 43.915C30.6004 45.7073 32.3108 47.1902 34.275 48.2634C36.2391 49.3365 38.4111 49.9746 40.6436 50.1345C42.876 50.2944 45.1168 49.9723 47.2138 49.19M62.1626 36.2356C65.0058 33.2918 66.5791 29.349 66.5435 25.2565C66.508 21.164 64.8664 17.2492 61.9725 14.3552M57.48 40.9182L55.1388 43.2594" stroke="#31D3F5" stroke-width="3" stroke-linecap="round" stroke-linejoin="round"/>
<path d="M41.7472 37.6715C40.4066 35.8792 38.6962 34.3962 36.7321 33.3231C34.7679 32.25 32.5959 31.6119 30.3635 31.452C28.131 31.2921 25.8902 31.6142 23.7932 32.3965C21.6962 33.1787 19.7919 34.4028 18.2095 35.9858L8.8444 45.3509C6.00117 48.2947 4.42792 52.2375 4.46348 56.33C4.49904 60.4225 6.14058 64.3373 9.03453 67.2313C11.9285 70.1252 15.8433 71.7668 19.9358 71.8023C24.0283 71.8379 27.9711 70.2646 30.9149 67.4214L36.253 62.0833" stroke="#F0F0F0" stroke-width="3" stroke-linecap="round" stroke-linejoin="round"/>
</svg>
