<svg width="10" height="10" viewBox="0 0 10 10" fill="none" xmlns="http://www.w3.org/2000/svg">
<g id="wrapper">
<path id="Union" fill-rule="evenodd" clip-rule="evenodd" d="M9.74243 0.856123C10.0465 1.10742 10.0894 1.55765 9.83807 1.86174L4.09518 8.81119L4.09345 8.81326C3.96282 8.97012 3.79888 9.0959 3.61354 9.18147C3.4282 9.26697 3.22613 9.31012 3.02202 9.30776C2.81457 9.30519 2.60976 9.25562 2.4242 9.1629C2.23925 9.0704 2.07758 8.9374 1.95123 8.77369C1.9508 8.77319 1.95038 8.77262 1.94995 8.77205L0.152174 6.46065C-0.0900189 6.14926 -0.0339229 5.70049 0.277468 5.4583C0.588859 5.2161 1.03763 5.2722 1.27982 5.58359L3.03951 7.84605L8.73678 0.951723C8.98814 0.647632 9.43835 0.60483 9.74243 0.856123Z" fill="#FCFDFF"/>
</g>
</svg>
