<svg width="20" height="21" viewBox="0 -10 20 30" fill="none" xmlns="http://www.w3.org/2000/svg">
<path fill-rule="evenodd" clip-rule="evenodd" d="M19.4834 2.21313C20.0916 2.71573 20.1773 3.61619 19.6747 4.22437L8.18895 18.1233L8.18549 18.1274C7.92423 18.4411 7.59635 18.6927 7.22568 18.8638C6.855 19.0348 6.45086 19.1211 6.04263 19.1164C5.62773 19.1113 5.21812 19.0121 4.84699 18.8267C4.4771 18.6417 4.15376 18.3757 3.90105 18.0483C3.9002 18.0473 3.89935 18.0461 3.8985 18.045L0.302944 13.4222C-0.181442 12.7994 -0.0692496 11.9019 0.553533 11.4175C1.17631 10.9331 2.07385 11.0453 2.55823 11.6681L6.07762 16.193L17.4722 2.40433C17.9749 1.79615 18.8753 1.71055 19.4834 2.21313Z" fill="#FFA502"/>
</svg>
