<svg width="16" height="16" viewBox="0 0 16 16" fill="none" xmlns="http://www.w3.org/2000/svg">
<g clip-path="url(#clip0_637_29890)">
<g clip-path="url(#clip1_637_29890)">
<path fill-rule="evenodd" clip-rule="evenodd" d="M8.16129 2.40005C4.9799 2.40005 2.40088 4.97908 2.40088 8.16046C2.40088 11.3419 4.9799 13.9209 8.16129 13.9209C11.3427 13.9209 13.9217 11.3419 13.9217 8.16046C13.9217 4.97908 11.3427 2.40005 8.16129 2.40005ZM0.900879 8.16046C0.900879 4.15065 4.15147 0.900055 8.16129 0.900055C12.1711 0.900055 15.4217 4.15065 15.4217 8.16046C15.4217 12.1703 12.1711 15.4209 8.16129 15.4209C4.15147 15.4209 0.900879 12.1703 0.900879 8.16046ZM11.6213 5.67701C11.9142 5.9699 11.9142 6.44478 11.6213 6.73767L7.71506 10.6439C7.42216 10.9368 6.94729 10.9368 6.6544 10.6439L4.70127 8.69079C4.40838 8.3979 4.40838 7.92303 4.70127 7.63013C4.99417 7.33724 5.46904 7.33724 5.76193 7.63013L7.18473 9.05293L10.5606 5.67701C10.8535 5.38412 11.3284 5.38412 11.6213 5.67701Z" fill="#4BD394"/>
</g>
</g>
<defs>
<clipPath id="clip0_637_29890">
<rect width="16" height="16" fill="white"/>
</clipPath>
<clipPath id="clip1_637_29890">
<rect width="16" height="16" fill="white"/>
</clipPath>
</defs>
</svg>
