<svg width="16" height="16" viewBox="0 0 16 16" fill="none" xmlns="http://www.w3.org/2000/svg">
<g clip-path="url(#clip0_1078_69844)">
<g clip-path="url(#clip1_1078_69844)">
<path d="M0 0H16V16H0V0Z" fill="#EE1C25"/>
<path d="M6.39998 3.2801L2.31998 5.9201L3.99998 1.6001L5.43998 5.9201L1.59998 3.2801H6.39998Z" fill="#FFFF00"/>
<path d="M7.393 1.03264L8.84678 1.74467L7.32506 2.00614L8.3115 0.85382L8.21651 2.40318L7.393 1.03264Z" fill="#FFFF00"/>
<path d="M9.24596 2.44399L10.3088 3.66643L8.80427 3.31491L10.1623 2.63681L9.47141 4.02803L9.24596 2.44399Z" fill="#FFFF00"/>
<path d="M9.58044 4.76648L10.0517 6.31718L8.82121 5.38146L10.3385 5.31694L9.13918 6.30532L9.58044 4.76648Z" fill="#FFFF00"/>
<path d="M8.31278 6.42622L8.14918 8.03702L7.37598 6.70022L8.79918 7.22582L7.31278 7.67422L8.31278 6.42622Z" fill="#FFFF00"/>
</g>
</g>
<defs>
<clipPath id="clip0_1078_69844">
<path d="M0 8C0 3.58172 3.58172 0 8 0C12.4183 0 16 3.58172 16 8C16 12.4183 12.4183 16 8 16C3.58172 16 0 12.4183 0 8Z" fill="white"/>
</clipPath>
<clipPath id="clip1_1078_69844">
<rect width="16" height="16" fill="white"/>
</clipPath>
</defs>
</svg>
