<svg width="16" height="16" viewBox="0 0 16 16" fill="none" xmlns="http://www.w3.org/2000/svg">
<g id="codepen" clip-path="url(#clip0_2705_112706)">
<path id="Icon" d="M8.00004 5.99915L2.70928 9.43814C2.25072 9.73621 2.02143 9.88524 1.94202 10.0742C1.87263 10.2394 1.87263 10.4256 1.94202 10.5907M8.00004 5.99915L13.2908 9.43814C13.7494 9.73621 13.9786 9.88524 14.0581 10.0742C14.1275 10.2394 14.1275 10.4256 14.0581 10.5907M8.00004 5.99915V1.66581M8.00004 9.99915L2.70928 6.56015C2.25072 6.26209 2.02143 6.11305 1.94202 5.92405C1.87263 5.75889 1.87263 5.57274 1.94202 5.40757M8.00004 9.99915L13.2908 6.56015C13.7494 6.26209 13.9786 6.11305 14.0581 5.92405C14.1275 5.75889 14.1275 5.57274 14.0581 5.40757M8.00004 9.99915V14.3325M14.1814 10.648L8.58136 14.288C8.37095 14.4247 8.26574 14.4931 8.15238 14.5197C8.05218 14.5432 7.9479 14.5432 7.8477 14.5197C7.73434 14.4931 7.62913 14.4247 7.41872 14.288L1.81872 10.648C1.64138 10.5327 1.55271 10.4751 1.48847 10.3982C1.43161 10.3301 1.38889 10.2514 1.36282 10.1666C1.33337 10.0709 1.33337 9.96512 1.33337 9.75361V6.24468C1.33337 6.03317 1.33337 5.92742 1.36282 5.83166C1.38889 5.74689 1.43161 5.66817 1.48847 5.60012C1.55271 5.52324 1.64138 5.46561 1.81872 5.35034L7.41872 1.71034C7.62913 1.57357 7.73434 1.50518 7.8477 1.47858C7.9479 1.45506 8.05218 1.45506 8.15238 1.47858C8.26574 1.50518 8.37095 1.57357 8.58136 1.71034L14.1814 5.35034C14.3587 5.46561 14.4474 5.52324 14.5116 5.60012C14.5685 5.66817 14.6112 5.74689 14.6373 5.83166C14.6667 5.92742 14.6667 6.03317 14.6667 6.24468V9.75361C14.6667 9.96512 14.6667 10.0709 14.6373 10.1666C14.6112 10.2514 14.5685 10.3301 14.5116 10.3982C14.4474 10.4751 14.3587 10.5327 14.1814 10.648Z" stroke="#314362" stroke-width="1.5" stroke-linecap="round" stroke-linejoin="round"/>
</g>
<defs>
<clipPath id="clip0_2705_112706">
<rect width="16" height="16" fill="white"/>
</clipPath>
</defs>
</svg>
