<svg width="16" height="16" viewBox="0 0 16 16" fill="none" xmlns="http://www.w3.org/2000/svg">
<g clip-path="url(#clip0_2785_42706)">
<g clip-path="url(#clip1_2785_42706)">
<path d="M8 16C12.4183 16 16 12.4183 16 8C16 3.58173 12.4183 0 8 0C3.58173 0 0 3.58173 0 8C0 12.4183 3.58173 16 8 16Z" fill="#002462"/>
<path fill-rule="evenodd" clip-rule="evenodd" d="M8.00002 2.85742C8.4734 2.85742 8.85716 3.24118 8.85716 3.71456V4.31767C9.37972 4.40551 9.84241 4.67079 10.1797 5.04768C10.376 5.26694 10.531 5.52507 10.6317 5.80987C10.7894 6.2562 10.5555 6.7459 10.1092 6.90366C9.66283 7.06141 9.17312 6.82748 9.01537 6.38115C8.9906 6.31108 8.95208 6.24651 8.90236 6.19096C8.7965 6.07269 8.64539 6.00028 8.47624 6.00028H7.37049C7.13961 6.00028 6.95244 6.18744 6.95244 6.41831C6.95244 6.61477 7.08924 6.78471 7.28115 6.8267L8.9647 7.19498C10.0143 7.42458 10.762 8.35446 10.762 9.4283C10.762 10.5605 9.93849 11.5014 8.85716 11.6829V12.286C8.85716 12.7594 8.4734 13.1431 8.00002 13.1431C7.52664 13.1431 7.14288 12.7594 7.14288 12.286V11.6829C6.31603 11.5443 5.64098 10.9617 5.36844 10.1906C5.2107 9.74432 5.44463 9.25462 5.89096 9.09686C6.33728 8.93911 6.82699 9.17304 6.98474 9.61938C7.0636 9.84246 7.27641 10.0002 7.52387 10.0002H8.47624C8.79142 10.0002 9.04767 9.74429 9.04767 9.4283C9.04767 9.15947 8.86039 8.92698 8.59835 8.86966L6.91482 8.50139C5.9359 8.28725 5.23816 7.42038 5.23816 6.41831C5.23816 5.31756 6.07225 4.4116 7.14288 4.29799V3.71456C7.14288 3.24118 7.52664 2.85742 8.00002 2.85742Z" fill="#FFA502"/>
</g>
</g>
<defs>
<clipPath id="clip0_2785_42706">
<rect width="16" height="16" fill="white"/>
</clipPath>
<clipPath id="clip1_2785_42706">
<rect width="16" height="16" fill="white"/>
</clipPath>
</defs>
</svg>
