<svg width="71" height="81" viewBox="0 0 71 81" fill="none" xmlns="http://www.w3.org/2000/svg">
<circle cx="35.381" cy="36.6465" r="29.1739" stroke="#F0F0F0" stroke-width="3"/>
<path d="M6.20703 36.3425C6.20703 20.4174 19.417 7.47253 35.381 7.47253C51.3449 7.47253 64.5549 20.4174 64.5549 36.3425V45.2439C64.5549 61.169 51.3449 74.1139 35.381 74.1139C19.417 74.1139 6.20703 61.169 6.20703 45.2439V36.3425Z" stroke="#F0F0F0" stroke-width="3"/>
<path d="M13.6611 30.6844C16.9538 18.6211 29.4023 11.5111 41.4657 14.8038" stroke="#31D3F5" stroke-width="3" stroke-linecap="round"/>
<path d="M54.9808 25.3256C61.2331 36.1549 57.5227 50.0023 46.6934 56.2546" stroke="#31D3F5" stroke-width="3" stroke-linecap="round"/>
<path d="M49.8045 18.9613L49.9902 19.1531" stroke="#31D3F5" stroke-width="3" stroke-linecap="round"/>
<line x1="14.9116" y1="56.8997" x2="15.1611" y2="66.6022" stroke="#F0F0F0" stroke-width="3"/>
<line x1="23.0288" y1="62.7196" x2="23.2783" y2="72.4221" stroke="#F0F0F0" stroke-width="3"/>
<line x1="31.146" y1="65.1328" x2="31.3955" y2="74.8353" stroke="#F0F0F0" stroke-width="3"/>
<line x1="39.2651" y1="65.1328" x2="39.5146" y2="74.8353" stroke="#F0F0F0" stroke-width="3"/>
<line x1="47.3823" y1="62.4304" x2="47.6318" y2="72.1329" stroke="#F0F0F0" stroke-width="3"/>
<line x1="55.75" y1="57.5098" x2="55.75" y2="66.0691" stroke="#F0F0F0" stroke-width="3"/>
</svg>
