<svg width="141" height="133" viewBox="0 0 141 133" fill="none" xmlns="http://www.w3.org/2000/svg">
<g id="icons / compliance">
<g id="Vector" filter="url(#filter0_d_1459_197643)">
<path d="M73.2353 74.9031L73.884 74.2543L76.0565 76.4268C76.9114 77.2817 78.2645 77.2817 79.1195 76.4268L100.461 55.0857C101.315 54.2307 101.315 52.8777 100.461 52.0227L100.46 52.0223L81.5578 33.1432C81.5576 33.143 81.5575 33.1429 81.5573 33.1427C80.7024 32.2882 79.3496 32.2884 78.4948 33.1432L79.2019 33.8503L78.4948 33.1432L57.1537 54.4843C56.2988 55.3392 56.2988 56.6923 57.1537 57.5472L59.3261 59.7197L58.3845 60.6613C56.4239 62.6219 56.2091 65.6771 57.7401 67.8776L56.0855 69.5321C51.8691 73.7485 47.1374 77.4489 42.1762 80.864L42.1752 80.8647C39.5043 82.7084 36.7635 84.9528 34.28 87.4364C30.3648 91.3516 27.774 95.1302 26.5403 98.3679C25.3255 101.556 25.3335 104.528 27.1944 106.404L27.1973 106.406C29.0629 108.272 32.0385 108.277 35.2268 107.064C38.4672 105.83 42.2517 103.239 46.1674 99.3237C48.6477 96.8434 50.9168 94.1024 52.7411 91.4254C56.1572 86.4631 59.8331 81.7338 64.0696 77.5201L64.0716 77.5182L65.7261 75.8636C67.9266 77.3946 70.9818 77.1798 72.9424 75.2192L73.2353 74.9263V74.9031ZM110.18 96.711H68.3804C65.2737 96.711 62.736 99.2487 62.736 102.355V105.839C62.736 107.041 63.6946 108 64.8971 108H113.663C114.866 108 115.825 107.041 115.825 105.839V102.355C115.825 99.2487 113.287 96.711 110.18 96.711Z" stroke="#F0F0F0" stroke-width="2" shape-rendering="crispEdges"/>
</g>
<g id="Vector_2" filter="url(#filter1_d_1459_197643)">
<path d="M52.4963 48.225L51.7892 48.9321L51.7892 48.9321L51.7893 48.9322L51.7895 48.9325L51.7905 48.9335L51.7945 48.9375L51.8102 48.9532L51.8705 49.0134L52.0911 49.234L52.811 49.9539C53.4209 50.5638 54.2677 50.6197 54.9446 50.4657C55.6397 50.3075 56.332 49.9035 56.8999 49.3227L73.3137 32.9089C73.8765 32.3461 74.28 31.664 74.4422 30.9733C74.6012 30.2966 74.5506 29.4591 73.955 28.8387L73.9479 28.8314L73.9407 28.8241L72.9189 27.8024C70.8221 25.7056 67.4411 25.2942 65.3973 27.3379L51.3247 41.4105C49.281 43.4543 49.6924 46.8353 51.7892 48.9321L52.4963 48.225ZM83.5891 80.7318L83.5962 80.7391L83.6034 80.7463L84.6252 81.7681C86.722 83.8649 90.103 84.2763 92.1468 82.2325L106.219 68.16C108.263 66.1162 107.852 62.7352 105.755 60.6384L105.755 60.6383L105.755 60.638L105.754 60.637L105.75 60.633L105.734 60.6173L105.674 60.5571L105.453 60.3365L104.733 59.6166C104.123 59.0067 103.276 58.9508 102.6 59.1048C101.904 59.263 101.212 59.6669 100.644 60.2477L84.2304 76.6616C83.6676 77.2244 83.2642 77.9065 83.1019 78.5972C82.9429 79.2738 82.9935 80.1113 83.5891 80.7318Z" stroke="#11FFF5" stroke-width="2" shape-rendering="crispEdges"/>
</g>
</g>
<defs>
<filter id="filter0_d_1459_197643" x="0.701172" y="7.50195" width="140.124" height="125.498" filterUnits="userSpaceOnUse" color-interpolation-filters="sRGB">
<feFlood flood-opacity="0" result="BackgroundImageFix"/>
<feColorMatrix in="SourceAlpha" type="matrix" values="0 0 0 0 0 0 0 0 0 0 0 0 0 0 0 0 0 0 127 0" result="hardAlpha"/>
<feOffset/>
<feGaussianBlur stdDeviation="12"/>
<feComposite in2="hardAlpha" operator="out"/>
<feColorMatrix type="matrix" values="0 0 0 0 0.686275 0 0 0 0 0.313726 0 0 0 0 1 0 0 0 1 0"/>
<feBlend mode="normal" in2="BackgroundImageFix" result="effect1_dropShadow_1459_197643"/>
<feBlend mode="normal" in="SourceGraphic" in2="effect1_dropShadow_1459_197643" result="shape"/>
</filter>
<filter id="filter1_d_1459_197643" x="24.9854" y="0.998047" width="107.574" height="107.574" filterUnits="userSpaceOnUse" color-interpolation-filters="sRGB">
<feFlood flood-opacity="0" result="BackgroundImageFix"/>
<feColorMatrix in="SourceAlpha" type="matrix" values="0 0 0 0 0 0 0 0 0 0 0 0 0 0 0 0 0 0 127 0" result="hardAlpha"/>
<feOffset/>
<feGaussianBlur stdDeviation="12"/>
<feComposite in2="hardAlpha" operator="out"/>
<feColorMatrix type="matrix" values="0 0 0 0 0.686275 0 0 0 0 0.313726 0 0 0 0 1 0 0 0 1 0"/>
<feBlend mode="normal" in2="BackgroundImageFix" result="effect1_dropShadow_1459_197643"/>
<feBlend mode="normal" in="SourceGraphic" in2="effect1_dropShadow_1459_197643" result="shape"/>
</filter>
</defs>
</svg>
