<svg width="141" height="132" viewBox="0 0 141 132" fill="none" xmlns="http://www.w3.org/2000/svg">
<g filter="url(#filter0_d_1_2014)">
<path d="M73.2355 73.9031L73.8843 73.2543L76.0567 75.4268C76.9117 76.2817 78.2647 76.2817 79.1197 75.4268L100.461 54.0857C101.316 53.2307 101.316 51.8777 100.461 51.0227L100.46 51.0223L81.558 32.1432C81.5578 32.143 81.5577 32.1429 81.5576 32.1427C80.7026 31.2882 79.3498 31.2884 78.495 32.1432L79.2021 32.8503L78.495 32.1432L57.1539 53.4843C56.299 54.3392 56.299 55.6923 57.1539 56.5472L59.3264 58.7197L58.3847 59.6613C56.4241 61.6219 56.2093 64.6771 57.7403 66.8776L56.0857 68.5321C51.8693 72.7485 47.1376 76.4489 42.1765 79.864L42.1754 79.8647C39.5045 81.7084 36.7638 83.9528 34.2802 86.4364C30.365 90.3516 27.7742 94.1302 26.5405 97.3679C25.3257 100.556 25.3338 103.528 27.1946 105.404L27.1975 105.406C29.0631 107.272 32.0388 107.277 35.227 106.064C38.4674 104.83 42.2519 102.239 46.1676 98.3237C48.6479 95.8434 50.917 93.1024 52.7413 90.4254C56.1574 85.4631 59.8333 80.7338 64.0699 76.5201L64.0718 76.5182L65.7263 74.8636C67.9268 76.3946 70.982 76.1798 72.9426 74.2192L73.2355 73.9263V73.9031ZM110.18 95.711H68.3806C65.2739 95.711 62.7362 98.2487 62.7362 101.355V104.839C62.7362 106.041 63.6948 107 64.8973 107H113.664C114.866 107 115.825 106.041 115.825 104.839V101.355C115.825 98.2487 113.287 95.711 110.18 95.711Z" stroke="#F0F0F0" stroke-width="2" shape-rendering="crispEdges"/>
</g>
<g filter="url(#filter1_d_1_2014)">
<path d="M52.4965 47.225L51.7894 47.9321L51.7894 47.9321L51.7895 47.9322L51.7897 47.9325L51.7908 47.9335L51.7948 47.9375L51.8104 47.9532L51.8707 48.0134L52.0913 48.234L52.8112 48.9539C53.4211 49.5638 54.2679 49.6197 54.9448 49.4657C55.6399 49.3075 56.3322 48.9035 56.9001 48.3227L73.3139 31.9089C73.8767 31.3461 74.2802 30.664 74.4424 29.9733C74.6014 29.2966 74.5508 28.4591 73.9552 27.8387L73.9481 27.8314L73.9409 27.8241L72.9191 26.8024C70.8223 24.7056 67.4413 24.2942 65.3975 26.3379L51.325 40.4105C49.2812 42.4543 49.6926 45.8353 51.7894 47.9321L52.4965 47.225ZM83.5893 79.7318L83.5964 79.7391L83.6036 79.7463L84.6254 80.7681C86.7222 82.8649 90.1033 83.2763 92.147 81.2325L106.22 67.16C108.263 65.1162 107.852 61.7352 105.755 59.6384L105.755 59.6383L105.755 59.638L105.754 59.637L105.75 59.633L105.734 59.6173L105.674 59.5571L105.453 59.3365L104.733 58.6166C104.123 58.0067 103.277 57.9508 102.6 58.1048C101.905 58.263 101.212 58.6669 100.644 59.2477L84.2306 75.6616C83.6678 76.2244 83.2644 76.9065 83.1021 77.5972C82.9431 78.2738 82.9937 79.1113 83.5893 79.7318Z" stroke="#FFA502" stroke-width="2" shape-rendering="crispEdges"/>
</g>
<defs>
<filter id="filter0_d_1_2014" x="0.701538" y="6.50195" width="140.123" height="125.498" filterUnits="userSpaceOnUse" color-interpolation-filters="sRGB">
<feFlood flood-opacity="0" result="BackgroundImageFix"/>
<feColorMatrix in="SourceAlpha" type="matrix" values="0 0 0 0 0 0 0 0 0 0 0 0 0 0 0 0 0 0 127 0" result="hardAlpha"/>
<feOffset/>
<feGaussianBlur stdDeviation="12"/>
<feComposite in2="hardAlpha" operator="out"/>
<feColorMatrix type="matrix" values="0 0 0 0 1 0 0 0 0 0.647059 0 0 0 0 0.00784314 0 0 0 1 0"/>
<feBlend mode="normal" in2="BackgroundImageFix" result="effect1_dropShadow_1_2014"/>
<feBlend mode="normal" in="SourceGraphic" in2="effect1_dropShadow_1_2014" result="shape"/>
</filter>
<filter id="filter1_d_1_2014" x="24.9854" y="-0.00158691" width="107.574" height="107.574" filterUnits="userSpaceOnUse" color-interpolation-filters="sRGB">
<feFlood flood-opacity="0" result="BackgroundImageFix"/>
<feColorMatrix in="SourceAlpha" type="matrix" values="0 0 0 0 0 0 0 0 0 0 0 0 0 0 0 0 0 0 127 0" result="hardAlpha"/>
<feOffset/>
<feGaussianBlur stdDeviation="12"/>
<feComposite in2="hardAlpha" operator="out"/>
<feColorMatrix type="matrix" values="0 0 0 0 1 0 0 0 0 0.647059 0 0 0 0 0.00784314 0 0 0 1 0"/>
<feBlend mode="normal" in2="BackgroundImageFix" result="effect1_dropShadow_1_2014"/>
<feBlend mode="normal" in="SourceGraphic" in2="effect1_dropShadow_1_2014" result="shape"/>
</filter>
</defs>
</svg>
