<svg width="31" height="30" viewBox="0 0 31 30" fill="none" xmlns="http://www.w3.org/2000/svg">
<rect x="0.5" width="30" height="30" rx="15" fill="#CDD1D9"/>
<g clip-path="url(#clip0_840_70951)">
<g clip-path="url(#clip1_840_70951)">
<path fill-rule="evenodd" clip-rule="evenodd" d="M23.1937 7.55943C23.5392 7.86656 23.5704 8.39564 23.2632 8.74116L18.7989 13.7635C18.5097 14.0889 18.0194 14.1382 17.6711 13.877L15.4389 12.2029C15.0691 11.9255 14.9942 11.4009 15.2715 11.031C15.5489 10.6612 16.0736 10.5862 16.4434 10.8636L18.0594 12.0756L22.012 7.62895C22.3191 7.28343 22.8481 7.2523 23.1937 7.55943ZM17.3551 19.6248H21.8487C22.7467 19.6248 23.4746 18.8969 23.4746 17.9989V10.6032L19.8416 14.6903C19.0704 15.558 17.7627 15.6896 16.834 14.9931L14.6018 13.319C13.6156 12.5793 13.4157 11.1802 14.1554 10.194C14.8951 9.20778 16.2942 9.0079 17.2804 9.74757L17.8694 10.1894L19.899 7.90603H9.47549C8.57754 7.90603 7.84961 8.63396 7.84961 9.53191V17.9989C7.84961 18.8969 8.57754 19.6248 9.47549 19.6248H13.9691L13.3718 21.2937H12.3139C11.8516 21.2937 11.4768 21.6684 11.4768 22.1308C11.4768 22.5931 11.8516 22.9678 12.3139 22.9678H19.0103C19.4726 22.9678 19.8474 22.5931 19.8474 22.1308C19.8474 21.6684 19.4726 21.2937 19.0103 21.2937H17.9524L17.3551 19.6248Z" fill="#7F8A9D"/>
</g>
</g>
<defs>
<clipPath id="clip0_840_70951">
<rect width="16" height="16" fill="white" transform="translate(7.5 7)"/>
</clipPath>
<clipPath id="clip1_840_70951">
<rect width="16" height="16" fill="white" transform="translate(7.5 7)"/>
</clipPath>
</defs>
</svg>
