<svg xmlns="http://www.w3.org/2000/svg" width="20" height="23" viewBox="0 0 20 23" fill="none">
  <path d="M17.5508 11.8297V5.59068C17.5508 5.43187 17.4877 5.27956 17.3755 5.16725L14.2331 2.025C14.1208 1.91269 13.9685 1.84961 13.8098 1.84961H2.18145C1.85074 1.84961 1.58264 2.1177 1.58264 2.44842V21.211C1.58264 21.5417 1.85074 21.8098 2.18145 21.8098H8.56871" stroke="#F0F0F0" stroke-width="2" stroke-linecap="round" stroke-linejoin="round"/>
  <path d="M5.57458 9.83384H13.5587M5.57458 5.8418H9.56662M5.57458 13.8259H8.56861" stroke="#F0F0F0" stroke-width="2" stroke-linecap="round" stroke-linejoin="round"/>
  <path d="M15.509 16.7594L16.5071 15.7614C16.9441 15.3243 17.6527 15.3243 18.0897 15.7614C18.5267 16.1984 18.5267 16.907 18.0897 17.344L17.0917 18.342M15.509 16.7594L12.5239 19.7445C12.3743 19.8941 12.2761 20.0874 12.2436 20.2964L12.0013 21.8497L13.5545 21.6076C13.7636 21.575 13.9568 21.4768 14.1064 21.3272L17.0917 18.342M15.509 16.7594L16.3004 17.5507L17.0917 18.342" stroke="#F0F0F0" stroke-width="2" stroke-linecap="round" stroke-linejoin="round"/>
  <path d="M13.5587 1.84961V5.24284C13.5587 5.57355 13.8268 5.84165 14.1575 5.84165H17.5508" stroke="#F0F0F0" stroke-width="2" stroke-linecap="round" stroke-linejoin="round"/>
</svg>