<svg width="16" height="16" viewBox="0 0 16 16" fill="none" xmlns="http://www.w3.org/2000/svg">
<path d="M0 5.71429V12.2857C0 13.2325 0.767512 14 1.71429 14H14.2857C15.2325 14 16 13.2325 16 12.2857V5.71429H0Z" fill="#002462"/>
<path fill-rule="evenodd" clip-rule="evenodd" d="M1.71429 2C0.767512 2 0 2.76751 0 3.71429V5.71429H16V3.71429C16 2.76751 15.2325 2 14.2857 2H1.71429ZM10.8571 9.85714C10.4627 9.85714 10.1429 10.1769 10.1429 10.5714C10.1429 10.9659 10.4627 11.2857 10.8571 11.2857H12.5714C12.9659 11.2857 13.2857 10.9659 13.2857 10.5714C13.2857 10.1769 12.9659 9.85714 12.5714 9.85714H10.8571Z" fill="#FFA502"/>
</svg>
