<svg width="16" height="16" viewBox="0 0 16 16" fill="none" xmlns="http://www.w3.org/2000/svg">
<g id="currency-dollar-circle" clip-path="url(#clip0_2705_201562)">
<path id="Icon" d="M5.66671 9.77843C5.66671 10.6375 6.36315 11.334 7.22226 11.334H8.66671C9.58718 11.334 10.3334 10.5878 10.3334 9.66732C10.3334 8.74684 9.58718 8.00065 8.66671 8.00065H7.33337C6.4129 8.00065 5.66671 7.25446 5.66671 6.33398C5.66671 5.41351 6.4129 4.66732 7.33337 4.66732H8.77782C9.63693 4.66732 10.3334 5.36376 10.3334 6.22287M8.00004 3.66732V4.66732M8.00004 11.334V12.334M14.6667 8.00065C14.6667 11.6826 11.6819 14.6673 8.00004 14.6673C4.31814 14.6673 1.33337 11.6826 1.33337 8.00065C1.33337 4.31875 4.31814 1.33398 8.00004 1.33398C11.6819 1.33398 14.6667 4.31875 14.6667 8.00065Z" stroke="#314362" stroke-width="1.5" stroke-linecap="round" stroke-linejoin="round"/>
</g>
<defs>
<clipPath id="clip0_2705_201562">
<rect width="16" height="16" fill="white"/>
</clipPath>
</defs>
</svg>
