<svg width="64" height="64" viewBox="0 0 64 64" fill="none" xmlns="http://www.w3.org/2000/svg">
<g id="cyborg-2--artificial-robotics-intelligence-machine-technology-android">
<g id="cyborg-2--artificial-robotics-intelligence-machine-technology-android_2">
<path id="Subtract" fill-rule="evenodd" clip-rule="evenodd" d="M28.5714 14.5682C29.6019 15.0883 30.7665 15.3812 31.9996 15.3812C33.233 15.3812 34.3979 15.0881 35.4286 14.5679V28H28.5714V14.5682Z" fill="white"/>
<path id="Union" fill-rule="evenodd" clip-rule="evenodd" d="M31.9996 0.143066C27.7917 0.143066 24.3806 3.55423 24.3806 7.76213C24.3806 11.97 27.7917 15.3811 31.9996 15.3811C36.2075 15.3811 39.6187 11.97 39.6187 7.76213C39.6187 3.55423 36.2075 0.143066 31.9996 0.143066Z" fill="url(#paint0_linear_41_25675)"/>
<g id="Union_2" filter="url(#filter0_bi_41_25675)">
<path fill-rule="evenodd" clip-rule="evenodd" d="M16 22.7144C9.68818 22.7144 4.57143 27.8311 4.57143 34.1429V52.4289C4.57143 58.7406 9.68818 63.8574 16 63.8574H48C54.3118 63.8574 59.4286 58.7406 59.4286 52.4289V34.1429C59.4286 27.8311 54.3118 22.7144 48 22.7144H16Z" fill="url(#paint1_linear_41_25675)"/>
<path d="M5.07143 34.1429C5.07143 28.1073 9.96433 23.2144 16 23.2144H48C54.0356 23.2144 58.9286 28.1073 58.9286 34.1429V52.4289C58.9286 58.4645 54.0356 63.3574 48 63.3574H16C9.96433 63.3574 5.07143 58.4645 5.07143 52.4289V34.1429Z" stroke="url(#paint2_linear_41_25675)"/>
</g>
<path id="Union_3" fill-rule="evenodd" clip-rule="evenodd" d="M23.048 42.0476C24.9415 42.0476 26.4766 40.5125 26.4766 38.619C26.4766 36.7254 24.9415 35.1904 23.048 35.1904C21.1544 35.1904 19.6194 36.7254 19.6194 38.619C19.6194 40.5125 21.1544 42.0476 23.048 42.0476ZM41.96 47.7784C43.1082 48.8609 43.1613 50.6694 42.0788 51.8173C39.5545 54.4947 35.5346 55.5425 32 55.5425C28.4654 55.5425 24.4455 54.4947 21.9212 51.8173C20.8387 50.6694 20.8918 48.8609 22.04 47.7784C23.1881 46.6959 24.9963 46.7489 26.0788 47.8973C27.1096 48.9903 29.3121 49.8282 32 49.8282C34.6879 49.8282 36.8904 48.9903 37.9212 47.8973C39.0037 46.7489 40.8119 46.6959 41.96 47.7784ZM44.3806 38.619C44.3806 40.5125 42.8456 42.0476 40.952 42.0476C39.0585 42.0476 37.5234 40.5125 37.5234 38.619C37.5234 36.7254 39.0585 35.1904 40.952 35.1904C42.8456 35.1904 44.3806 36.7254 44.3806 38.619Z" fill="white"/>
</g>
</g>
<defs>
<filter id="filter0_bi_41_25675" x="-2.42857" y="15.7144" width="68.8571" height="55.1431" filterUnits="userSpaceOnUse" color-interpolation-filters="sRGB">
<feFlood flood-opacity="0" result="BackgroundImageFix"/>
<feGaussianBlur in="BackgroundImageFix" stdDeviation="3.5"/>
<feComposite in2="SourceAlpha" operator="in" result="effect1_backgroundBlur_41_25675"/>
<feBlend mode="normal" in="SourceGraphic" in2="effect1_backgroundBlur_41_25675" result="shape"/>
<feColorMatrix in="SourceAlpha" type="matrix" values="0 0 0 0 0 0 0 0 0 0 0 0 0 0 0 0 0 0 127 0" result="hardAlpha"/>
<feOffset dx="1" dy="1"/>
<feGaussianBlur stdDeviation="2.5"/>
<feComposite in2="hardAlpha" operator="arithmetic" k2="-1" k3="1"/>
<feColorMatrix type="matrix" values="0 0 0 0 1 0 0 0 0 1 0 0 0 0 1 0 0 0 0.4 0"/>
<feBlend mode="normal" in2="shape" result="effect2_innerShadow_41_25675"/>
</filter>
<linearGradient id="paint0_linear_41_25675" x1="37" y1="15" x2="28.5" y2="2.5" gradientUnits="userSpaceOnUse">
<stop stop-color="#FFA502"/>
<stop offset="0.47" stop-color="#FFD892"/>
<stop offset="1" stop-color="#FFA502"/>
</linearGradient>
<linearGradient id="paint1_linear_41_25675" x1="7.66843" y1="61.5347" x2="42.7061" y2="14.818" gradientUnits="userSpaceOnUse">
<stop stop-color="white" stop-opacity="0.2"/>
<stop offset="1" stop-color="white" stop-opacity="0.49"/>
</linearGradient>
<linearGradient id="paint2_linear_41_25675" x1="8.44373" y1="25.9502" x2="40.8533" y2="72.1543" gradientUnits="userSpaceOnUse">
<stop stop-color="white"/>
<stop offset="1" stop-color="white" stop-opacity="0"/>
</linearGradient>
</defs>
</svg>
