<svg width="18" height="18" viewBox="0 0 18 18" fill="none" xmlns="http://www.w3.org/2000/svg">
<g id="islam--religion-islam-moon-crescent-muslim-culture-star">
<path id="Union" fill-rule="evenodd" clip-rule="evenodd" d="M9.41828 0.00374689C7.80974 -0.0426772 6.2182 0.343017 4.80938 1.12066C3.40055 1.89831 2.226 3.03945 1.40805 4.42525C0.590079 5.81104 0.15863 7.39081 0.15863 9C0.15863 10.6092 0.590079 12.189 1.40805 13.5747C2.226 14.9606 3.40055 16.1016 4.80938 16.8794C6.2182 17.657 7.80974 18.0427 9.41828 17.9963C11.0268 17.9499 12.5935 17.473 13.9551 16.6154C14.1969 16.4631 14.3091 16.1695 14.2305 15.8948C14.1521 15.6201 13.9017 15.4301 13.616 15.4286C11.9171 15.4193 10.291 14.7379 9.09294 13.5333C7.89492 12.3288 7.22244 10.6989 7.22247 8.99999C7.22244 7.30108 7.89492 5.67125 9.09294 4.46666C10.291 3.26208 11.9171 2.58069 13.616 2.57142C13.9017 2.56986 14.1521 2.37991 14.2305 2.10518C14.3091 1.83046 14.1969 1.53689 13.9551 1.38461C12.5935 0.527016 11.0268 0.0501709 9.41828 0.00374689Z" fill="#899FE5"/>
<path id="Union_2" fill-rule="evenodd" clip-rule="evenodd" d="M15.6798 6.35671C15.5704 6.13916 15.3476 6.00207 15.1041 6.00261C14.8605 6.00315 14.6382 6.14121 14.5299 6.35925L14.0145 7.39543H13.02C12.7618 7.39543 12.5285 7.55005 12.4279 7.78797C12.3274 8.0259 12.379 8.30093 12.559 8.48622L13.3754 9.32669L13.1568 10.5407C13.1125 10.7876 13.2157 11.0379 13.4214 11.1816C13.627 11.3253 13.8975 11.3362 14.1141 11.2095L15.1127 10.6255L16.1693 11.2158C16.3898 11.339 16.662 11.3217 16.865 11.1716C17.0681 11.0215 17.1644 10.7664 17.1113 10.5195L16.8528 9.31677L17.6595 8.48622C17.8395 8.30093 17.8912 8.0259 17.7906 7.78797C17.69 7.55005 17.4568 7.39543 17.1985 7.39543H16.2021L15.6798 6.35671Z" fill="#FFB632"/>
</g>
</svg>
