<svg width="18" height="18" viewBox="0 0 18 18" fill="none" xmlns="http://www.w3.org/2000/svg">
<g id="wrapper">
<path id="Union" fill-rule="evenodd" clip-rule="evenodd" d="M4.8117 1.12176C6.22052 0.344116 7.81206 -0.0415786 9.4206 0.00484552C11.0291 0.0512695 12.5958 0.528114 13.9575 1.38571C14.1992 1.53799 14.3114 1.83156 14.2329 2.10628C14.1544 2.38101 13.904 2.57096 13.6183 2.57251C11.9194 2.58178 10.2933 3.26317 9.09526 4.46776C7.89724 5.67235 7.22476 7.30218 7.22479 9.00109C7.22476 10.7 7.89724 12.3299 9.09526 13.5344C10.2933 14.739 11.9194 15.4204 13.6183 15.4297C13.904 15.4312 14.1544 15.6212 14.2329 15.8959C14.3114 16.1706 14.1992 16.4642 13.9575 16.6165C12.5958 17.4741 11.0291 17.951 9.4206 17.9974C7.81206 18.0438 6.22052 17.6581 4.8117 16.8805C3.40287 16.1027 2.22832 14.9617 1.41036 13.5758C0.592398 12.1901 0.16095 10.6103 0.16095 9.0011C0.16095 7.39191 0.592398 5.81214 1.41036 4.42635C2.22832 3.04055 3.40287 1.8994 4.8117 1.12176ZM15.1064 6.00371C15.3499 6.00317 15.5727 6.14026 15.6821 6.35781L16.2044 7.39653H17.2008C17.4591 7.39653 17.6923 7.55115 17.7929 7.78907C17.8935 8.027 17.8419 8.30203 17.6619 8.48731L16.8551 9.31787L17.1136 10.5206C17.1667 10.7675 17.0704 11.0225 16.8673 11.1727C16.6643 11.3228 16.3921 11.3401 16.1716 11.2169L15.115 10.6266L14.1164 11.2106C13.8999 11.3373 13.6293 11.3264 13.4238 11.1827C13.218 11.039 13.1148 10.7887 13.1592 10.5418L13.3777 9.32779L12.5613 8.48731C12.3813 8.30203 12.3297 8.027 12.4303 7.78907C12.5308 7.55115 12.7641 7.39653 13.0224 7.39653H14.0169L14.5322 6.36034C14.6406 6.14231 14.8629 6.00425 15.1064 6.00371Z" fill="#002462"/>
</g>
</svg>
