<svg width="16" height="16" viewBox="0 0 16 16" fill="none" xmlns="http://www.w3.org/2000/svg">
<g clip-path="url(#clip0_2785_28166)">
<path fill-rule="evenodd" clip-rule="evenodd" d="M5.51462 4.16016C4.7667 4.16016 4.1604 4.76645 4.1604 5.51437C4.1604 6.26228 4.7667 6.86858 5.51462 6.86858C6.26253 6.86858 6.86882 6.26228 6.86882 5.51437C6.86882 4.76645 6.26253 4.16016 5.51462 4.16016ZM11.3267 4.67297C11.6615 5.0077 11.6615 5.55041 11.3267 5.88515L5.88535 11.3265C5.55062 11.6612 5.00791 11.6612 4.67317 11.3265C4.33843 10.9917 4.33843 10.449 4.67317 10.1143L10.1145 4.67297C10.4492 4.33822 10.992 4.33822 11.3267 4.67297ZM9.13111 10.4851C9.13111 9.73715 9.73741 9.13085 10.4853 9.13085C11.2332 9.13085 11.8395 9.73715 11.8395 10.4851C11.8395 11.233 11.2332 11.8393 10.4853 11.8393C9.73741 11.8393 9.13111 11.233 9.13111 10.4851Z" fill="#FFA502"/>
<path fill-rule="evenodd" clip-rule="evenodd" d="M1.85107 1.85034C1.89442 1.80699 1.9532 1.78264 2.0145 1.78264C2.48788 1.78264 2.87164 1.39889 2.87164 0.925502C2.87164 0.452115 2.48788 0.0683594 2.0145 0.0683594C1.49855 0.0683594 1.00372 0.273322 0.63889 0.638157C0.274054 1.00299 0.0690918 1.49782 0.0690918 2.01377C0.0690918 2.48715 0.452847 2.87091 0.926235 2.87091C1.39962 2.87091 1.78338 2.48715 1.78338 2.01377C1.78338 1.95247 1.80772 1.89368 1.85107 1.85034ZM13.9854 0.0683594C13.5121 0.0683594 13.1283 0.452115 13.1283 0.925502C13.1283 1.39889 13.5121 1.78264 13.9854 1.78264C14.0467 1.78264 14.1056 1.80699 14.1489 1.85034C14.1922 1.89368 14.2165 1.95247 14.2165 2.01377C14.2165 2.48715 14.6003 2.87091 15.0737 2.87091C15.5472 2.87091 15.9308 2.48715 15.9308 2.01377C15.9308 1.49782 15.7259 1.00299 15.3611 0.638157C14.9962 0.273322 14.5014 0.0683594 13.9854 0.0683594ZM0.926235 13.1275C1.39962 13.1275 1.78338 13.5113 1.78338 13.9847C1.78338 14.046 1.80772 14.1048 1.85107 14.1481C1.89442 14.1915 1.9532 14.2159 2.0145 14.2159C2.48788 14.2159 2.87164 14.5996 2.87164 15.073C2.87164 15.5464 2.48788 15.9302 2.0145 15.9302C1.49855 15.9302 1.00372 15.7251 0.63889 15.3603C0.274054 14.9955 0.0690918 14.5007 0.0690918 13.9847C0.0690918 13.5113 0.452847 13.1275 0.926235 13.1275ZM15.9308 13.9847C15.9308 13.5113 15.5472 13.1275 15.0737 13.1275C14.6003 13.1275 14.2165 13.5113 14.2165 13.9847C14.2165 14.046 14.1922 14.1048 14.1489 14.1481C14.1056 14.1915 14.0467 14.2159 13.9854 14.2159C13.5121 14.2159 13.1283 14.5996 13.1283 15.073C13.1283 15.5464 13.5121 15.9302 13.9854 15.9302C14.5014 15.9302 14.9962 15.7251 15.3611 15.3603C15.7259 14.9955 15.9308 14.5007 15.9308 13.9847ZM4.42211 0.925502C4.42211 0.452115 4.80587 0.0683594 5.27926 0.0683594H6.36753C6.84091 0.0683594 7.22467 0.452115 7.22467 0.925502C7.22467 1.39889 6.84091 1.78264 6.36753 1.78264H5.27926C4.80587 1.78264 4.42211 1.39889 4.42211 0.925502ZM9.63235 0.0683594C9.15897 0.0683594 8.77521 0.452115 8.77521 0.925502C8.77521 1.39889 9.15897 1.78264 9.63235 1.78264H10.7206C11.194 1.78264 11.5778 1.39889 11.5778 0.925502C11.5778 0.452115 11.194 0.0683594 10.7206 0.0683594H9.63235ZM4.42211 15.073C4.42211 14.5996 4.80587 14.2159 5.27926 14.2159H6.36753C6.84091 14.2159 7.22467 14.5996 7.22467 15.073C7.22467 15.5464 6.84091 15.9302 6.36753 15.9302H5.27926C4.80587 15.9302 4.42211 15.5464 4.42211 15.073ZM9.63235 14.2159C9.15897 14.2159 8.77521 14.5996 8.77521 15.073C8.77521 15.5464 9.15897 15.9302 9.63235 15.9302H10.7206C11.194 15.9302 11.5778 15.5464 11.5778 15.073C11.5778 14.5996 11.194 14.2159 10.7206 14.2159H9.63235ZM15.0737 4.42143C15.547 4.42143 15.9308 4.80519 15.9308 5.27857V6.36685C15.9308 6.84023 15.547 7.22399 15.0737 7.22399C14.6003 7.22399 14.2165 6.84023 14.2165 6.36685V5.27857C14.2165 4.80519 14.6003 4.42143 15.0737 4.42143ZM15.9308 9.63165C15.9308 9.15826 15.547 8.7745 15.0737 8.7745C14.6003 8.7745 14.2165 9.15826 14.2165 9.63165V10.7199C14.2165 11.1933 14.6003 11.577 15.0737 11.577C15.547 11.577 15.9308 11.1933 15.9308 10.7199V9.63165ZM0.926235 4.42143C1.39962 4.42143 1.78338 4.80519 1.78338 5.27857V6.36685C1.78338 6.84023 1.39962 7.22399 0.926235 7.22399C0.452847 7.22399 0.0690918 6.84023 0.0690918 6.36685V5.27857C0.0690918 4.80519 0.452847 4.42143 0.926235 4.42143ZM1.78338 9.63165C1.78338 9.15826 1.39962 8.7745 0.926235 8.7745C0.452847 8.7745 0.0690918 9.15826 0.0690918 9.63165V10.7199C0.0690918 11.1933 0.452847 11.577 0.926235 11.577C1.39962 11.577 1.78338 11.1933 1.78338 10.7199V9.63165Z" fill="#002462"/>
</g>
<defs>
<clipPath id="clip0_2785_28166">
<rect width="16" height="16" fill="white"/>
</clipPath>
</defs>
</svg>
