<svg xmlns="http://www.w3.org/2000/svg" width="90" height="90" viewBox="0 0 90 90" fill="none">
  <g clip-path="url(#clip0_569_84374)">
    <path d="M11.25 2.25C11.25 1.00736 12.2574 0 13.5 0H59.818C60.4148 0 60.9871 0.237053 61.409 0.65901L78.091 17.341C78.5129 17.7629 78.75 18.3352 78.75 18.932V87.75C78.75 88.9926 77.7426 90 76.5 90H13.5C12.2574 90 11.25 88.9926 11.25 87.75V2.25Z" fill="#002462"/>
    <path d="M62.7853 17.8644C61.5427 17.8643 60.5353 16.857 60.5353 15.6143L60.5354 -0.342483L78.7423 17.8644L62.7853 17.8644Z" fill="#304872"/>
    <rect x="20.25" y="25.2" width="49.5" height="4.5" rx="2.25" fill="#FFD892"/>
    <rect x="20.25" y="36.8999" width="49.5" height="4.5" rx="2.25" fill="#FFD892"/>
    <rect x="20.25" y="48.6001" width="49.5" height="4.5" rx="2.25" fill="#FFD892"/>
    <path fill-rule="evenodd" clip-rule="evenodd" d="M39.8074 65.6993C39.8074 65.6993 39.6575 65.7108 39.5332 65.7358C38.7414 65.8947 37.4808 66.6987 36.0759 68.3041C34.7378 69.8334 33.5353 71.7884 32.7735 73.6708C31.9732 75.6481 31.8247 77.1308 32.0366 77.8993C32.1194 78.1995 32.2273 78.2961 32.3168 78.3525C32.4416 78.4311 32.808 78.5937 33.6497 78.5435C34.8902 78.4694 35.9558 79.415 36.0298 80.6554C36.1039 81.8958 35.1583 82.9614 33.9179 83.0355C32.4579 83.1226 31.0725 82.8873 29.9177 82.1596C28.7277 81.4097 28.0283 80.2915 27.6985 79.0954C27.0853 76.8714 27.6905 74.2352 28.6021 71.9826C29.5522 69.635 31.0198 67.2488 32.6894 65.3408C34.2923 63.5089 36.3771 61.7795 38.6478 61.3238C39.8998 61.0725 41.2097 61.17 42.3331 61.9303C43.4144 62.6622 43.9523 63.7613 44.2313 64.7264C44.7629 66.5655 44.6367 68.9537 44.4735 70.9471C44.4193 71.6079 44.3596 72.2405 44.3026 72.8437C44.1813 74.1272 44.0726 75.2775 44.0577 76.2826C44.3017 75.8354 44.5574 75.31 44.8548 74.6988C44.9562 74.4905 45.0624 74.2722 45.1746 74.0437C45.7828 72.8055 46.5825 71.2435 47.6864 70.0862C48.8938 68.8204 50.6451 67.8701 52.9051 68.3539C54.7384 68.7464 55.7076 70.0736 56.2016 71.2798C56.6564 72.3901 56.8369 73.6933 56.9711 74.6626L56.9804 74.7298C57.1303 75.8122 57.2369 76.5825 57.4371 77.1726C57.498 77.3522 57.5506 77.464 57.5888 77.5309C57.6886 77.5033 57.8675 77.4378 58.1536 77.2831C58.4698 77.1121 58.819 76.8867 59.2473 76.5991C59.3274 76.5452 59.4113 76.4886 59.4981 76.4299C59.8448 76.1955 60.2389 75.9291 60.6296 75.6862C61.5695 75.1021 62.9192 74.3664 64.4819 74.3317C66.2434 74.2926 67.7891 75.1319 69.0534 76.6842C69.8382 77.6477 69.6933 79.065 68.7298 79.8497C67.7663 80.6344 66.349 80.4895 65.5643 79.526C64.9873 78.8176 64.6763 78.8276 64.5893 78.8303C64.5866 78.8304 64.5841 78.8305 64.5818 78.8306C64.3075 78.8367 63.8413 78.9884 63.0053 79.5081C62.6948 79.7011 62.3935 79.9046 62.056 80.1326C61.9595 80.1978 61.8601 80.265 61.7566 80.3345C61.3195 80.6281 60.8158 80.9593 60.2941 81.2415C59.32 81.7682 57.7605 82.4178 56.0488 81.8033C54.3405 81.19 53.5596 79.7502 53.1756 78.6183C52.8316 77.6041 52.671 76.4298 52.5461 75.5161C52.5354 75.4379 52.5249 75.3616 52.5147 75.2874C52.3646 74.2036 52.2401 73.4802 52.0374 72.9855C51.9852 72.858 51.9419 72.7837 51.9157 72.7447C51.6224 72.6904 51.3775 72.7363 50.9426 73.1922C50.3811 73.7809 49.8484 74.7353 49.2137 76.0276C49.1294 76.1991 49.0421 76.3798 48.9516 76.5667C48.4449 77.6145 47.8431 78.8587 47.1634 79.7955C46.3644 80.8966 44.8254 82.4219 42.5109 81.8754C41.0229 81.5241 40.2796 80.372 39.9484 79.4273C39.6343 78.5312 39.561 77.5119 39.5563 76.6096C39.5493 75.2956 39.7015 73.6841 39.8443 72.1728C39.8963 71.6221 39.9471 71.0846 39.9885 70.5797C40.1611 68.4723 40.1755 66.9003 39.9083 65.9761C39.8703 65.8444 39.8074 65.6993 39.8074 65.6993ZM57.6355 77.6019C57.6485 77.6115 57.6544 77.6187 57.654 77.62C57.6537 77.6212 57.6472 77.6164 57.6355 77.6019Z" fill="#FFA502"/>
  </g>
  <defs>
    <clipPath id="clip0_569_84374">
      <rect width="90" height="90" fill="white"/>
    </clipPath>
  </defs>
</svg>