<svg width="24" height="24" viewBox="0 0 24 24" fill="none" xmlns="http://www.w3.org/2000/svg">
<path fill-rule="evenodd" clip-rule="evenodd" d="M2.29382 0.160156C1.73752 0.160156 1.204 0.381145 0.810641 0.774508C0.417278 1.16787 0.196289 1.70138 0.196289 2.25769V8.75219C0.196289 9.46227 0.771922 10.0379 1.482 10.0379C2.19208 10.0379 2.76772 9.46227 2.76772 8.75219V2.73158H8.78833C9.4984 2.73158 10.074 2.15594 10.074 1.44587C10.074 0.735789 9.4984 0.160156 8.78833 0.160156H2.29382ZM15.2832 0.160156C14.5731 0.160156 13.9975 0.735789 13.9975 1.44587C13.9975 2.15594 14.5731 2.73158 15.2832 2.73158H21.3038V8.75219C21.3038 9.46227 21.8795 10.0379 22.5896 10.0379C23.2996 10.0379 23.8753 9.46227 23.8753 8.75219V2.25769C23.8753 1.70139 23.6543 1.16787 23.2609 0.774508C22.8674 0.381145 22.334 0.160156 21.7777 0.160156H15.2832ZM22.5896 13.961C23.2996 13.961 23.8753 14.5366 23.8753 15.2467V21.7412C23.8753 22.2975 23.6543 22.831 23.2609 23.2244C22.8674 23.6177 22.334 23.8386 21.7777 23.8386H15.2832C14.5731 23.8386 13.9975 23.2632 13.9975 22.5529C13.9975 21.8429 14.5731 21.2672 15.2832 21.2672H21.3038V15.2467C21.3038 14.5366 21.8795 13.961 22.5896 13.961ZM2.76772 15.2467C2.76772 14.5366 2.19208 13.961 1.482 13.961C0.771922 13.961 0.196289 14.5366 0.196289 15.2467V21.7412C0.196289 22.2975 0.417276 22.831 0.810641 23.2244C1.204 23.6177 1.73752 23.8386 2.29382 23.8386H8.78833C9.4984 23.8386 10.074 23.2632 10.074 22.5529C10.074 21.8429 9.4984 21.2672 8.78833 21.2672H2.76772V15.2467Z" fill="#002462"/>
<path fill-rule="evenodd" clip-rule="evenodd" d="M12.0012 4.14453C12.7113 4.14453 13.2869 4.72017 13.2869 5.43025V6.33491C14.0707 6.46669 14.7648 6.86461 15.2708 7.42993C15.5651 7.75881 15.7976 8.146 15.9487 8.57322C16.1853 9.24271 15.8344 9.97727 15.1649 10.2139C14.4954 10.4505 13.7608 10.0996 13.5242 9.43014C13.4871 9.32503 13.4293 9.22818 13.3547 9.14485C13.1959 8.96745 12.9692 8.85882 12.7155 8.85882H11.0569C10.7106 8.85882 10.4298 9.13957 10.4298 9.48589C10.4298 9.78055 10.635 10.0355 10.9229 10.0985L13.4482 10.6509C15.0226 10.9953 16.1441 12.3901 16.1441 14.0009C16.1441 15.6992 14.9089 17.1106 13.2869 17.3827V18.2873C13.2869 18.9974 12.7113 19.5731 12.0012 19.5731C11.2911 19.5731 10.7155 18.9974 10.7155 18.2873V17.3829C9.47519 17.1748 8.46263 16.301 8.05383 15.1444C7.81719 14.4749 8.1681 13.7403 8.83758 13.5037C9.50708 13.2671 10.2416 13.618 10.4783 14.2875C10.5965 14.6221 10.9158 14.8588 11.287 14.8588H12.7155C13.1883 14.8588 13.5726 14.4749 13.5726 14.0009C13.5726 13.5976 13.2917 13.2489 12.8987 13.1629L10.3734 12.6105C8.905 12.2893 7.8584 10.989 7.8584 9.48589C7.8584 7.83474 9.10952 6.47581 10.7155 6.30541V5.43025C10.7155 4.72017 11.2911 4.14453 12.0012 4.14453Z" fill="#FFA502"/>
</svg>
