<svg width="64" height="64" viewBox="0 0 64 64" fill="none" xmlns="http://www.w3.org/2000/svg">
<g id="stock--price-stock-wallstreet-dollar-money-currency-fluctuate-candlestick-business" clip-path="url(#clip0_41_25591)">
<g id="stock--price-stock-wallstreet-dollar-money-currency-fluctuate-candlestick-business_2">
<path id="Union" fill-rule="evenodd" clip-rule="evenodd" d="M12.9434 4.0023C12.9434 2.10876 11.4083 0.57373 9.51478 0.57373C7.62125 0.57373 6.08621 2.10876 6.08621 4.0023V45.5444C7.97974 45.5444 12.9434 45.5444 12.9434 45.5444L12.9434 4.0023ZM12.9434 45.5444C12.9434 45.5444 7.97974 45.5444 6.08621 45.5444V52.4014C6.08621 54.2949 7.62125 55.83 9.51478 55.83C11.4083 55.83 12.9434 54.2949 12.9434 52.4014L12.9434 45.5444ZM28.9434 50.0714C28.9434 50.0714 35.8005 50.0714 35.8005 50.1157V59.9969C35.8005 61.8904 34.2655 63.4254 32.3719 63.4254C30.4784 63.4254 28.9434 61.8904 28.9434 59.9969V50.1157V50.0714ZM35.8005 18.1159C35.8005 16.2223 34.2655 14.6873 32.3719 14.6873C30.4784 14.6873 28.9434 16.2223 28.9434 18.1159V50.0714L35.8005 50.0714L35.8005 18.1159Z" fill="#FFA502"/>
<path id="Union_2" fill-rule="evenodd" clip-rule="evenodd" d="M53.9323 0.57373C55.8258 0.57373 57.3609 2.10876 57.3609 4.0023V7.57086C58.4292 7.85616 59.4436 8.29283 60.3474 8.90718C62.2894 10.2273 63.6283 12.339 63.6283 14.9829C63.6283 16.8765 62.0932 18.4115 60.1998 18.4115C58.3063 18.4115 56.7712 16.8765 56.7712 14.9829C56.7712 14.8664 56.7488 14.8268 56.7406 14.8126C56.7273 14.789 56.6711 14.6995 56.4923 14.5781C56.101 14.3123 55.2663 13.9992 53.9323 13.9992C52.9892 13.9992 52.3122 14.002 51.7412 14.0541C51.4825 14.0776 51.2951 14.1076 51.1598 14.1381C51.1282 14.2969 51.0935 14.5653 51.0935 14.9829C51.0935 15.3354 51.189 15.698 51.8788 16.3005C52.6889 17.008 53.8615 17.6433 55.5236 18.5143L55.6827 18.5977C57.1342 19.3576 59.0112 20.3401 60.4964 21.6372C62.1568 23.0873 63.6283 25.1878 63.6283 28.1195C63.6283 29.5318 63.4212 30.9317 62.8041 32.1849C62.1458 33.522 61.1323 34.4639 59.9392 35.0537C59.0674 35.4848 58.1655 35.6955 57.3609 35.8072V39.0999C57.3609 40.9934 55.8258 42.5284 53.9323 42.5284C52.0388 42.5284 50.5038 40.9934 50.5038 39.0999V35.6152C49.5081 35.3898 48.5312 35.0324 47.6425 34.4832C45.4472 33.1265 44.2363 30.8792 44.2363 28.1195C44.2363 26.2259 45.7714 24.6909 47.6649 24.6909C49.5584 24.6909 51.0935 26.2259 51.0935 28.1195C51.0935 28.304 51.1118 28.4233 51.1278 28.4913C51.1419 28.5537 51.1552 28.5795 51.1566 28.5822C51.1616 28.5872 51.1876 28.6131 51.2471 28.65C51.5575 28.8418 52.3534 29.1 53.9031 29.1032C53.9131 29.1031 53.9227 29.103 53.9323 29.103C53.9433 29.103 53.9543 29.1031 53.9652 29.1032C54.8914 29.1031 55.5588 29.0998 56.1234 29.0484C56.3822 29.0249 56.5696 28.9948 56.7049 28.9643C56.7364 28.8055 56.7712 28.5371 56.7712 28.1195C56.7712 27.767 56.6756 27.4044 55.9858 26.8019C55.1758 26.0944 54.0032 25.4591 52.341 24.5881L52.1819 24.5047C50.73 23.7449 48.8535 22.7623 47.3682 21.4653C45.7077 20.0151 44.2363 17.9146 44.2363 14.9829C44.2363 13.5706 44.4435 12.1707 45.0607 10.9175C45.7188 9.58037 46.7323 8.63847 47.9255 8.04871C48.7972 7.61758 49.6992 7.40684 50.5038 7.2952V4.0023C50.5038 2.10876 52.0388 0.57373 53.9323 0.57373Z" fill="white"/>
<g id="Union_3" filter="url(#filter0_bi_41_25591)">
<path fill-rule="evenodd" clip-rule="evenodd" d="M0.371918 20.4021C0.371918 16.615 3.44197 13.5449 7.22906 13.5449H11.8005C15.5876 13.5449 18.6576 16.615 18.6576 20.4021V40.9735C18.6576 44.7606 15.5876 47.8307 11.8005 47.8307H7.22906C3.44197 47.8307 0.371918 44.7606 0.371918 40.9735V20.4021ZM23.2291 38.6878C23.2291 34.9007 26.2991 31.8306 30.0862 31.8306H34.6576C38.4447 31.8306 41.5148 34.9007 41.5148 38.6878V45.5449C41.5148 49.3319 38.4447 52.4021 34.6576 52.4021H30.0862C26.2991 52.4021 23.2291 49.3319 23.2291 45.5449V38.6878Z" fill="url(#paint0_linear_41_25591)"/>
<path d="M0.621918 20.4021C0.621918 16.753 3.58004 13.7949 7.22906 13.7949H11.8005C15.4495 13.7949 18.4076 16.753 18.4076 20.4021V40.9735C18.4076 44.6225 15.4495 47.5807 11.8005 47.5807H7.22906C3.58004 47.5807 0.621918 44.6225 0.621918 40.9735V20.4021ZM23.4791 38.6878C23.4791 35.0387 26.4372 32.0806 30.0862 32.0806H34.6576C38.3067 32.0806 41.2648 35.0387 41.2648 38.6878V45.5449C41.2648 49.1939 38.3067 52.1521 34.6576 52.1521H30.0862C26.4372 52.1521 23.4791 49.1939 23.4791 45.5449V38.6878Z" stroke="url(#paint1_linear_41_25591)" stroke-width="0.5"/>
</g>
</g>
</g>
<defs>
<filter id="filter0_bi_41_25591" x="-6.62808" y="6.54492" width="55.1429" height="52.8574" filterUnits="userSpaceOnUse" color-interpolation-filters="sRGB">
<feFlood flood-opacity="0" result="BackgroundImageFix"/>
<feGaussianBlur in="BackgroundImageFix" stdDeviation="3.5"/>
<feComposite in2="SourceAlpha" operator="in" result="effect1_backgroundBlur_41_25591"/>
<feBlend mode="normal" in="SourceGraphic" in2="effect1_backgroundBlur_41_25591" result="shape"/>
<feColorMatrix in="SourceAlpha" type="matrix" values="0 0 0 0 0 0 0 0 0 0 0 0 0 0 0 0 0 0 127 0" result="hardAlpha"/>
<feOffset dx="1" dy="1"/>
<feGaussianBlur stdDeviation="2.5"/>
<feComposite in2="hardAlpha" operator="arithmetic" k2="-1" k3="1"/>
<feColorMatrix type="matrix" values="0 0 0 0 1 0 0 0 0 1 0 0 0 0 1 0 0 0 0.4 0"/>
<feBlend mode="normal" in2="shape" result="effect2_innerShadow_41_25591"/>
</filter>
<linearGradient id="paint0_linear_41_25591" x1="2.69467" y1="50.2084" x2="37.1082" y2="13.7706" gradientUnits="userSpaceOnUse">
<stop stop-color="white" stop-opacity="0.2"/>
<stop offset="1" stop-color="white" stop-opacity="0.49"/>
</linearGradient>
<linearGradient id="paint1_linear_41_25591" x1="3.27614" y1="16.601" x2="35.5808" y2="53.1739" gradientUnits="userSpaceOnUse">
<stop stop-color="white"/>
<stop offset="1" stop-color="white" stop-opacity="0"/>
</linearGradient>
<clipPath id="clip0_41_25591">
<rect width="64" height="64" fill="white"/>
</clipPath>
</defs>
</svg>
