<svg xmlns="http://www.w3.org/2000/svg" width="25" height="25" viewBox="0 0 25 25" fill="none">
  <g clip-path="url(#clip0_2196_48914)">
    <path d="M8.5 17.417L12.5 21.417L16.5 17.417" stroke="#000000" stroke-width="2" stroke-linecap="round" stroke-linejoin="round"/>
    <path d="M12.5 12.417V21.417" stroke="#000000" stroke-width="2" stroke-linecap="round" stroke-linejoin="round"/>
    <path d="M21.3812 18.5069C22.2505 17.8956 22.9025 17.0231 23.2424 16.0161C23.5824 15.0091 23.5926 13.9199 23.2715 12.9068C22.9505 11.8936 22.315 11.009 21.4572 10.3815C20.5994 9.75396 19.564 9.41609 18.5012 9.41693H17.2412C16.9404 8.2448 16.3776 7.15617 15.5953 6.23301C14.8129 5.30984 13.8313 4.57619 12.7244 4.08728C11.6174 3.59837 10.414 3.36695 9.20468 3.41044C7.99536 3.45393 6.81167 3.7712 5.74271 4.33835C4.67375 4.90551 3.74738 5.70777 3.03334 6.68475C2.3193 7.66174 1.83621 8.78797 1.62041 9.97867C1.40462 11.1694 1.46176 12.3935 1.78753 13.5589C2.1133 14.7244 2.69921 15.8007 3.50115 16.7069" stroke="#000000" stroke-width="2" stroke-linecap="round" stroke-linejoin="round"/>
  </g>
  <defs>
    <clipPath id="clip0_2196_48914">
      <rect width="24" height="24" fill="black" transform="translate(0.5 0.416992)"/>
    </clipPath>
  </defs>
</svg>