<svg
    xmlns="http://www.w3.org/2000/svg"
    width="16"
    height="16"
    fill="none"
    viewBox="0 0 16 16"
>
    <path
    fill="#002462"
    fillRule="evenodd"
    d="M2.134.107c-1.079 0-1.902.898-1.902 1.94v11.906c0 1.043.823 1.94 1.902 1.94h9.4c1.079 0 1.902-.898 1.902-1.94V2.107a2 2 0 00-2-2H2.134z"
    clipRule="evenodd"
    ></path>
    <path
    fill="#FFA502"
    fillRule="evenodd"
    d="M1.09 11.714H.232v2.239c0 1.042.823 1.94 1.902 1.94h9.4c1.079 0 1.902-.898 1.902-1.94v-2.239H1.089zM3.233 3.437a.714.714 0 000 1.428h2.852a.714.714 0 100-1.428H3.233zm0 3.277a.714.714 0 100 1.429h1.426a.714.714 0 000-1.429H3.233z"
    clipRule="evenodd"
    ></path>
    <path
    fill="#FFA502"
    d="M10.745 8.45a.571.571 0 01-.303.16l-2.456.442a.571.571 0 01-.665-.655l.41-2.494a.571.571 0 01.161-.312L12.596.909a1.144 1.144 0 011.623 0l1.21 1.212a1.144 1.144 0 010 1.623L10.746 8.45z"
    ></path>
</svg>
