<svg width="16" height="16" viewBox="0 0 16 16" fill="none" xmlns="http://www.w3.org/2000/svg">
<path d="M7.75928 6.97998C7.98553 6.92607 8.1868 6.96666 8.29443 6.9917C8.42809 7.02282 8.58577 7.07579 8.72998 7.12354L14.0854 8.89697L14.3354 8.98096C14.417 9.00949 14.4947 9.0383 14.563 9.06787C14.6649 9.11202 14.871 9.20622 15.0288 9.40381L15.0933 9.49561L15.1538 9.60693C15.2599 9.8353 15.2822 10.0941 15.2173 10.3374L15.1772 10.4575C15.0639 10.7426 14.8351 10.9003 14.729 10.9702C14.667 11.0111 14.5962 11.054 14.521 11.0962L14.2886 11.2222L12.2954 12.2944L11.2231 14.2876C11.1398 14.4423 11.053 14.6039 10.9712 14.728C10.91 14.8209 10.7816 15.0082 10.5591 15.1294L10.4585 15.1763C10.1821 15.2862 9.87434 15.2766 9.60791 15.1528L9.49658 15.0923C9.23538 14.9312 9.11934 14.6786 9.06885 14.562C9.03928 14.4937 9.01047 14.416 8.98193 14.3345L8.89795 14.0845L7.12451 8.729C7.07676 8.5848 7.02379 8.42712 6.99268 8.29346C6.96407 8.17053 6.91571 7.92557 7.01025 7.66064L7.05713 7.54932C7.17967 7.29895 7.3962 7.10417 7.66162 7.00928L7.75928 6.97998ZM10.896 1.55127C11.4305 1.55127 11.8765 1.55089 12.2397 1.58057C12.6118 1.61097 12.9632 1.6769 13.2954 1.84619L13.481 1.95068C13.9043 2.21033 14.2493 2.58199 14.4761 3.02686L14.5347 3.15283C14.6611 3.44767 14.7151 3.75695 14.7417 4.08252C14.7714 4.44581 14.771 4.89178 14.771 5.42627V6.53271C14.771 6.94692 14.4352 7.28271 14.021 7.28271C13.6068 7.28271 13.271 6.94693 13.271 6.53271V5.42627C13.271 4.86699 13.2701 4.49265 13.2466 4.20459C13.2295 3.99514 13.2023 3.86888 13.1714 3.78272L13.1401 3.7085C13.0537 3.53886 12.9284 3.39274 12.7759 3.28174L12.6138 3.18213C12.5282 3.13861 12.3966 3.09847 12.1177 3.07568C11.8296 3.05215 11.4553 3.05127 10.896 3.05127H5.42725C4.86797 3.05127 4.49362 3.05215 4.20557 3.07568C3.99611 3.0928 3.86986 3.12 3.78369 3.15088L3.70947 3.18213C3.53984 3.26856 3.39372 3.39389 3.28272 3.54639L3.18311 3.7085C3.13959 3.79405 3.09945 3.92567 3.07666 4.20459C3.05313 4.49265 3.05225 4.86699 3.05225 5.42627V10.895C3.05225 11.4543 3.05313 11.8286 3.07666 12.1167C3.09945 12.3956 3.13958 12.5272 3.18311 12.6128L3.28272 12.7749C3.39372 12.9274 3.53984 13.0527 3.70947 13.1392L3.78369 13.1704C3.86986 13.2013 3.99611 13.2285 4.20557 13.2456C4.49362 13.2691 4.86797 13.27 5.42725 13.27H6.53369C6.9479 13.27 7.28369 13.6058 7.28369 14.02C7.28368 14.4342 6.9479 14.77 6.53369 14.77H5.42725C4.89276 14.77 4.44679 14.7704 4.0835 14.7407C3.75793 14.7141 3.44864 14.6601 3.15381 14.5337L3.02783 14.4751C2.58297 14.2483 2.2113 13.9033 1.95166 13.48L1.84717 13.2944C1.67788 12.9622 1.61194 12.6108 1.58154 12.2388C1.55187 11.8755 1.55225 11.4295 1.55225 10.895V5.42627C1.55225 4.89178 1.55187 4.44581 1.58154 4.08252C1.61194 3.71045 1.67788 3.3591 1.84717 3.02686L1.95166 2.84131C2.2113 2.41801 2.58297 2.07295 3.02783 1.84619L3.15381 1.7876C3.44864 1.66116 3.75792 1.60717 4.0835 1.58057C4.44679 1.55089 4.89276 1.55127 5.42725 1.55127H10.896ZM10.1538 13.1079L11.0083 11.5229L11.0542 11.4409C11.0765 11.4031 11.1052 11.3579 11.1392 11.3149L11.2222 11.2212C11.2517 11.1917 11.2831 11.1641 11.3159 11.1382L11.4419 11.0532C11.4793 11.0312 11.5094 11.0151 11.5239 11.0073L13.1089 10.1528L8.69189 8.69092L10.1538 13.1079Z" fill="#314362"/>
</svg>
