<svg xmlns="http://www.w3.org/2000/svg" width="24" height="25" viewBox="0 0 24 25" fill="none">
  <path d="M11 4.25H4C3.46957 4.25 2.96086 4.46071 2.58579 4.83579C2.21071 5.21086 2 5.71957 2 6.25V20.25C2 20.7804 2.21071 21.2891 2.58579 21.6642C2.96086 22.0393 3.46957 22.25 4 22.25H18C18.5304 22.25 19.0391 22.0393 19.4142 21.6642C19.7893 21.2891 20 20.7804 20 20.25V13.25" stroke="#F0F0F0" stroke-width="2" stroke-linecap="round" stroke-linejoin="round"/>
  <path d="M18.5 2.75023C18.8978 2.3524 19.4374 2.12891 20 2.12891C20.5626 2.12891 21.1022 2.3524 21.5 2.75023C21.8978 3.14805 22.1213 3.68762 22.1213 4.25023C22.1213 4.81284 21.8978 5.3524 21.5 5.75023L12 15.2502L8 16.2502L9 12.2502L18.5 2.75023Z" stroke="#F0F0F0" stroke-width="2" stroke-linecap="round" stroke-linejoin="round"/>
</svg>