<svg width="22" height="22" viewBox="0 0 22 22" fill="none" xmlns="http://www.w3.org/2000/svg">
<g id="wrapper">
<path id="Union" fill-rule="evenodd" clip-rule="evenodd" d="M16.4306 1.76248C17.4829 0.710195 19.189 0.710197 20.2413 1.76248C21.2936 2.81477 21.2936 4.52086 20.2413 5.57314L11.4754 14.339C11.4588 14.3556 11.4425 14.372 11.4263 14.3882C11.1574 14.6574 10.9388 14.8763 10.6763 15.0371C10.4452 15.1788 10.1932 15.2832 9.92961 15.3464C9.63025 15.4183 9.32091 15.4181 8.94041 15.4178C8.91751 15.4178 8.89434 15.4178 8.87091 15.4178H7.33591C6.9217 15.4178 6.58591 15.082 6.58591 14.6678V13.1328C6.58591 13.1094 6.5859 13.0862 6.58588 13.0633C6.58563 12.6828 6.58542 12.3735 6.65729 12.0741C6.72057 11.8105 6.82495 11.5586 6.96659 11.3274C7.12746 11.0649 7.34634 10.8463 7.61557 10.5774C7.63178 10.5613 7.64817 10.5449 7.66474 10.5283L16.4306 1.76248ZM19.1806 2.82314C18.7141 2.35664 17.9578 2.35664 17.4913 2.82314L8.7254 11.589C8.38308 11.9313 8.30176 12.0194 8.24555 12.1112C8.18616 12.2081 8.14238 12.3138 8.11585 12.4243C8.09073 12.5289 8.08591 12.6487 8.08591 13.1328V13.9178H8.87091C9.35503 13.9178 9.47484 13.913 9.57945 13.8879C9.68999 13.8613 9.79566 13.8176 9.89259 13.7582C9.98431 13.702 10.0724 13.6206 10.4148 13.2783L19.1806 4.51248C19.6471 4.04598 19.6471 3.28964 19.1806 2.82314ZM6.20415 2.91781L6.23594 2.91781H10.0859C10.5002 2.91781 10.8359 3.2536 10.8359 3.66781C10.8359 4.08202 10.5002 4.41781 10.0859 4.41781H6.23594C5.45349 4.41781 4.91176 4.41839 4.49082 4.45279C4.07863 4.48646 3.84873 4.54878 3.67796 4.6358C3.30163 4.82755 2.99567 5.13351 2.80392 5.50983C2.71691 5.68061 2.65459 5.9105 2.62091 6.32269C2.58652 6.74363 2.58594 7.28536 2.58594 8.06781V15.7678C2.58594 16.5503 2.58652 17.092 2.62091 17.5129C2.65459 17.9251 2.71691 18.155 2.80392 18.3258L2.13567 18.6663L2.80393 18.3258C2.99567 18.7021 3.30163 19.0081 3.67796 19.1998C3.84873 19.2868 4.07863 19.3492 4.49082 19.3828C4.91176 19.4172 5.45349 19.4178 6.23594 19.4178H13.9359C14.7184 19.4178 15.2601 19.4172 15.6811 19.3828C16.0932 19.3492 16.3231 19.2868 16.4939 19.1998C16.8702 19.0081 17.1762 18.7021 17.368 18.3258C17.455 18.155 17.5173 17.9251 17.551 17.5129C17.5854 17.092 17.5859 16.5503 17.5859 15.7678V11.9178C17.5859 11.5036 17.9217 11.1678 18.3359 11.1678C18.7502 11.1678 19.0859 11.5036 19.0859 11.9178V15.7678V15.7996C19.0859 16.5427 19.086 17.1458 19.046 17.6351C19.0047 18.14 18.9172 18.5893 18.7045 19.0068C18.3689 19.6653 17.8335 20.2008 17.1749 20.5363C16.7574 20.7491 16.3082 20.8366 15.8032 20.8779C15.314 20.9178 14.7108 20.9178 13.9677 20.9178H13.9359H6.23594H6.20413C5.46105 20.9178 4.8579 20.9178 4.36867 20.8779C3.86372 20.8366 3.41445 20.7491 2.99697 20.5363C2.3384 20.2008 1.80297 19.6653 1.46742 19.0068C1.2547 18.5893 1.16715 18.14 1.1259 17.6351C1.08592 17.1458 1.08593 16.5427 1.08594 15.7996L1.08594 15.7678V8.06781L1.08594 8.03602C1.08593 7.29294 1.08592 6.68978 1.1259 6.20054C1.16715 5.69559 1.2547 5.24632 1.46742 4.82884C1.80297 4.17028 2.3384 3.63485 2.99697 3.29929C3.41445 3.08657 3.86372 2.99902 4.36867 2.95777C4.85791 2.9178 5.46107 2.9178 6.20415 2.91781Z" fill="#314362"/>
</g>
</svg>
