<svg width="10" height="10" viewBox="0 0 10 10" fill="none" xmlns="http://www.w3.org/2000/svg">
<g clip-path="url(#clip0_524_123355)">
<path fill-rule="evenodd" clip-rule="evenodd" d="M2.4239 2.97949H1.48942C0.8432 2.97949 0.319336 3.50336 0.319336 4.14957V8.82993C0.319336 9.47614 0.8432 10 1.48942 10H8.50988C9.15616 10 9.68002 9.47614 9.68002 8.82993V4.14957C9.68002 3.50336 9.15616 2.97949 8.50988 2.97949H7.57545C7.51881 3.18219 7.41081 3.37145 7.25552 3.52672L5.88357 4.89869C5.39541 5.38684 4.60396 5.38684 4.1158 4.89869L2.74384 3.52672C2.58856 3.37145 2.48056 3.18219 2.4239 2.97949Z" fill="white"/>
<path fill-rule="evenodd" clip-rule="evenodd" d="M5.53534 0.565865C5.53534 0.269999 5.29549 0.0301514 4.99962 0.0301514C4.70376 0.0301514 4.46391 0.269999 4.46391 0.565865V2.28575H3.62766C3.48321 2.28575 3.35298 2.37276 3.2977 2.50622C3.24242 2.63968 3.27298 2.79329 3.37512 2.89543L4.7471 4.2674C4.88657 4.40688 5.1127 4.40688 5.25217 4.2674L6.62414 2.89543C6.72628 2.79329 6.75684 2.63968 6.70156 2.50622C6.64628 2.37276 6.51605 2.28575 6.3716 2.28575H5.53534V0.565865Z" fill="#FFA502"/>
<path fill-rule="evenodd" clip-rule="evenodd" d="M9.68002 4.25354L4.99966 6.98091L0.319336 4.25354V5.28693L4.77489 7.88335C4.91381 7.96428 5.08552 7.96428 5.22443 7.88335L9.68002 5.28693V4.25354Z" fill="#FFA502"/>
</g>
<defs>
<clipPath id="clip0_524_123355">
<rect width="10" height="10" fill="white"/>
</clipPath>
</defs>
</svg>