                    <svg
                      xmlns="http://www.w3.org/2000/svg"
                      width="16"
                      height="17"
                      viewBox="0 0 16 17"
                      fill="none"
                    >
                      <path
                        d="M8.00002 10.198C6.30776 10.198 4.65923 10.7354 3.29207 11.7327C1.92492 12.73 0.909783 14.1357 0.393022 15.7471C0.337283 15.921 0.367933 16.1109 0.475505 16.2583C0.583077 16.4059 0.754624 16.4931 0.937156 16.4931H15.0628C15.2454 16.4931 15.4169 16.4059 15.5246 16.2583C15.6321 16.1109 15.6627 15.921 15.607 15.7471C15.0903 14.1357 14.0751 12.73 12.708 11.7327C11.3408 10.7354 9.69227 10.198 8.00002 10.198Z"
                        fill="#FFA502"
                      />
                      <path
                        d="M8.00044 0.498291C5.01494 0.498291 2.59473 2.91851 2.59473 5.90401C2.59473 8.8895 5.01494 11.3097 8.00044 11.3097C10.9859 11.3097 13.4061 8.8895 13.4061 5.90401C13.4061 2.91851 10.9859 0.498291 8.00044 0.498291Z"
                        fill="#002462"
                      />
                      <path
                        fillRule="evenodd"
                        clipRule="evenodd"
                        d="M2.85459 4.27261C3.55793 2.10346 5.59489 0.533936 7.99993 0.533936C10.6353 0.533936 12.8292 2.41834 13.3101 4.91298C13.3422 5.07973 13.2986 5.25215 13.1909 5.38347C13.0831 5.51479 12.9227 5.59141 12.7529 5.59254L12.7166 5.59267C11.359 5.59267 10.1204 5.0805 9.18444 4.24003C8.24848 5.08052 7.00987 5.5927 5.65219 5.5927C4.73788 5.5927 3.87617 5.36018 3.12469 4.9506C2.88328 4.81901 2.76979 4.53415 2.85459 4.27261ZM6.09742 6.89087C6.4491 6.71214 6.87908 6.85235 7.05781 7.20403C7.16185 7.40871 7.49313 7.61912 8.00035 7.61912C8.50757 7.61912 8.83886 7.40871 8.94289 7.20403C9.12162 6.85235 9.5516 6.71214 9.90328 6.89087C10.255 7.06959 10.3952 7.49958 10.2164 7.85125C9.77445 8.72092 8.79944 9.0477 8.00035 9.0477C7.20126 9.0477 6.22625 8.72092 5.78427 7.85125C5.60555 7.49957 5.74574 7.06959 6.09742 6.89087Z"
                        fill="#FFA502"
                      />
                    </svg>