<svg width="49" height="72" viewBox="0 0 49 72" fill="none" xmlns="http://www.w3.org/2000/svg">
<path d="M13 18L10 15" stroke="#002462" stroke-width="5" stroke-linecap="round"/>
<path d="M3.0001 9.0001L3 9" stroke="#002462" stroke-width="5" stroke-linecap="round"/>
<path d="M39 18L46 11" stroke="#002462" stroke-width="5" stroke-linecap="round"/>
<path d="M26 18L26 3" stroke="#002462" stroke-width="5" stroke-linecap="round"/>
<g clip-path="url(#clip0_6164_70136)">
<path d="M45.5716 41.1429H4.42871V64.2857C4.42871 67.1259 6.73124 69.4286 9.57157 69.4286H40.4287C43.2689 69.4286 45.5716 67.1259 45.5716 64.2857V41.1429Z" fill="#002462"/>
<path fill-rule="evenodd" clip-rule="evenodd" d="M6.14286 26.5714C3.30254 26.5714 1 28.874 1 31.7143V36.8571C1 39.6975 3.30254 42 6.14286 42H43.8571C46.6974 42 49 39.6975 49 36.8571V31.7143C49 28.874 46.6974 26.5714 43.8571 26.5714H6.14286ZM19.8571 50.1429C18.6737 50.1429 17.7143 51.1022 17.7143 52.2857C17.7143 53.4692 18.6737 54.4286 19.8571 54.4286H30.1429C31.3263 54.4286 32.2857 53.4692 32.2857 52.2857C32.2857 51.1022 31.3263 50.1429 30.1429 50.1429H19.8571Z" fill="#FFA502"/>
</g>
<defs>
<clipPath id="clip0_6164_70136">
<rect width="48" height="48" fill="white" transform="translate(1 24)"/>
</clipPath>
</defs>
</svg>
