<svg width="49" height="72" viewBox="0 0 49 72" fill="none" xmlns="http://www.w3.org/2000/svg">
<path d="M13 18L10 15" stroke="#002462" stroke-width="5" stroke-linecap="round"/>
<path d="M3.0001 9.0001L3 9" stroke="#002462" stroke-width="5" stroke-linecap="round"/>
<path d="M39 18L46 11" stroke="#002462" stroke-width="5" stroke-linecap="round"/>
<path d="M26 18L26 3" stroke="#002462" stroke-width="5" stroke-linecap="round"/>
<g clip-path="url(#clip0_786_134490)">
<path d="M45.5706 41.1428H4.42773V64.2857C4.42773 67.1259 6.73026 69.4285 9.57059 69.4285H40.4277C43.268 69.4285 45.5706 67.1259 45.5706 64.2857V41.1428Z" fill="#002462"/>
<path fill-rule="evenodd" clip-rule="evenodd" d="M6.14286 26.5714C3.30254 26.5714 1 28.8739 1 31.7143V36.8571C1 39.6975 3.30254 42 6.14286 42H43.8571C46.6974 42 49 39.6975 49 36.8571V31.7143C49 28.8739 46.6974 26.5714 43.8571 26.5714H6.14286ZM19.8571 50.1428C18.6737 50.1428 17.7143 51.1022 17.7143 52.2857C17.7143 53.4692 18.6737 54.4286 19.8571 54.4286H30.1429C31.3263 54.4286 32.2857 53.4692 32.2857 52.2857C32.2857 51.1022 31.3263 50.1428 30.1429 50.1428H19.8571Z" fill="#FFA502"/>
</g>
<defs>
<clipPath id="clip0_786_134490">
<rect width="48" height="48" fill="white" transform="translate(1 24)"/>
</clipPath>
</defs>
</svg>
