<svg width="16" height="16" viewBox="0 0 16 16" fill="none" xmlns="http://www.w3.org/2000/svg">
<g clip-path="url(#clip0_1078_69694)">
<g clip-path="url(#clip1_1078_69694)">
<path d="M0 0H16V16H0" fill="#BD3D44"/>
<path d="M0 1.8125H16H0ZM0 4.28125H16H0ZM0 6.75H16H0ZM0 9.21875H16H0ZM0 11.6875H16H0ZM0 14.1562H16H0Z" fill="black"/>
<path d="M16 14.7812H0V13.5312H16V14.7812ZM16 12.3125H0V11.0625H16V12.3125ZM16 9.84375H0V8.59375H16V9.84375ZM16 7.375H0V6.125H16V7.375ZM16 4.90625H0V3.65625H16V4.90625ZM16 2.4375H0V1.1875H16V2.4375Z" fill="white"/>
<path d="M0 0H12.1875V8.59375H0V0Z" fill="#192F5D"/>
<path d="M1.03125 0.34375L0.91875 0.6875H0.5625L0.85 0.896875L0.740625 1.2375L1.03125 1.02813L1.32187 1.2375L1.2125 0.896875L1.5 0.6875H1.14375L1.03125 0.34375Z" fill="white"/>
<path d="M3.0625 0.34375L2.95 0.6875H2.59375L2.88125 0.896875L2.77187 1.2375L3.0625 1.02813L3.35313 1.2375L3.24375 0.896875L3.53125 0.6875H3.175L3.0625 0.34375Z" fill="white"/>
<path d="M5.09375 0.34375L4.98125 0.6875H4.625L4.9125 0.896875L4.80312 1.2375L5.09375 1.02813L5.38438 1.2375L5.275 0.896875L5.5625 0.6875H5.20625L5.09375 0.34375Z" fill="white"/>
<path d="M7.125 0.34375L7.0125 0.6875H6.65625L6.94375 0.896875L6.83437 1.2375L7.125 1.02813L7.41563 1.2375L7.30625 0.896875L7.59375 0.6875H7.2375L7.125 0.34375Z" fill="white"/>
<path d="M9.15625 0.34375L9.04375 0.6875H8.6875L8.975 0.896875L8.86563 1.2375L9.15625 1.02813L9.44687 1.2375L9.3375 0.896875L9.625 0.6875H9.26875L9.15625 0.34375Z" fill="white"/>
<path d="M11.0375 0.896875L10.9281 1.2375L11.2188 1.02813L11.5094 1.2375L11.4 0.896875L11.6875 0.6875H11.3313L11.2188 0.34375L11.1062 0.6875H10.75L11.0375 0.896875Z" fill="white"/>
<path d="M2.0625 1.21875L1.95 1.5625H1.59375L1.88125 1.77188L1.77188 2.1125L2.0625 1.90313L2.35313 2.1125L2.24375 1.77188L2.53125 1.5625H2.175L2.0625 1.21875Z" fill="white"/>
<path d="M4.09375 1.21875L3.98125 1.5625H3.625L3.9125 1.77188L3.80312 2.1125L4.09375 1.90313L4.38438 2.1125L4.275 1.77188L4.5625 1.5625H4.20625L4.09375 1.21875Z" fill="white"/>
<path d="M6.125 1.21875L6.0125 1.5625H5.65625L5.94375 1.77188L5.83437 2.1125L6.125 1.90313L6.41563 2.1125L6.30625 1.77188L6.59375 1.5625H6.2375L6.125 1.21875Z" fill="white"/>
<path d="M8.15625 1.21875L8.04375 1.5625H7.6875L7.975 1.77188L7.86562 2.1125L8.15625 1.90313L8.44687 2.1125L8.3375 1.77188L8.625 1.5625H8.26875L8.15625 1.21875Z" fill="white"/>
<path d="M10.1875 1.21875L10.075 1.5625H9.71875L10.0063 1.77188L9.89688 2.1125L10.1875 1.90313L10.4781 2.1125L10.3687 1.77188L10.6562 1.5625H10.3L10.1875 1.21875Z" fill="white"/>
<path d="M1.03125 2.0625L0.91875 2.40625H0.5625L0.85 2.61562L0.740625 2.95625L1.03125 2.74688L1.32187 2.95625L1.2125 2.61562L1.5 2.40625H1.14375L1.03125 2.0625Z" fill="white"/>
<path d="M3.0625 2.0625L2.95 2.40625H2.59375L2.88125 2.61562L2.77187 2.95625L3.0625 2.74688L3.35313 2.95625L3.24375 2.61562L3.53125 2.40625H3.175L3.0625 2.0625Z" fill="white"/>
<path d="M5.09375 2.0625L4.98125 2.40625H4.625L4.9125 2.61562L4.80312 2.95625L5.09375 2.74688L5.38438 2.95625L5.275 2.61562L5.5625 2.40625H5.20625L5.09375 2.0625Z" fill="white"/>
<path d="M7.125 2.0625L7.0125 2.40625H6.65625L6.94375 2.61562L6.83437 2.95625L7.125 2.74688L7.41563 2.95625L7.30625 2.61562L7.59375 2.40625H7.2375L7.125 2.0625Z" fill="white"/>
<path d="M9.15625 2.0625L9.04375 2.40625H8.6875L8.975 2.61562L8.86563 2.95625L9.15625 2.74688L9.44687 2.95625L9.3375 2.61562L9.625 2.40625H9.26875L9.15625 2.0625Z" fill="white"/>
<path d="M11.2188 2.0625L11.1062 2.40625H10.75L11.0375 2.61562L10.9281 2.95625L11.2188 2.74688L11.5094 2.95625L11.4 2.61562L11.6875 2.40625H11.3313L11.2188 2.0625Z" fill="white"/>
<path d="M2.0625 2.9375L1.95 3.28125H1.59375L1.88125 3.49062L1.77188 3.83125L2.0625 3.62188L2.35313 3.83125L2.24375 3.49062L2.53125 3.28125H2.175L2.0625 2.9375Z" fill="white"/>
<path d="M4.09375 2.9375L3.98125 3.28125H3.625L3.9125 3.49062L3.80312 3.83125L4.09375 3.62188L4.38438 3.83125L4.275 3.49062L4.5625 3.28125H4.20625L4.09375 2.9375Z" fill="white"/>
<path d="M6.125 2.9375L6.0125 3.28125H5.65625L5.94375 3.49062L5.83437 3.83125L6.125 3.62188L6.41563 3.83125L6.30625 3.49062L6.59375 3.28125H6.2375L6.125 2.9375Z" fill="white"/>
<path d="M8.15625 2.9375L8.04375 3.28125H7.6875L7.975 3.49062L7.86562 3.83125L8.15625 3.62188L8.44687 3.83125L8.3375 3.49062L8.625 3.28125H8.26875L8.15625 2.9375Z" fill="white"/>
<path d="M10.1875 2.9375L10.075 3.28125H9.71875L10.0063 3.49062L9.89688 3.83125L10.1875 3.62188L10.4781 3.83125L10.3687 3.49062L10.6562 3.28125H10.3L10.1875 2.9375Z" fill="white"/>
<path d="M1.03125 3.78125L0.91875 4.125H0.5625L0.85 4.33437L0.740625 4.675L1.03125 4.46562L1.32187 4.675L1.2125 4.33437L1.5 4.125H1.14375L1.03125 3.78125Z" fill="white"/>
<path d="M3.0625 3.78125L2.95 4.125H2.59375L2.88125 4.33437L2.77187 4.675L3.0625 4.46562L3.35313 4.675L3.24375 4.33437L3.53125 4.125H3.175L3.0625 3.78125Z" fill="white"/>
<path d="M5.09375 3.78125L4.98125 4.125H4.625L4.9125 4.33437L4.80312 4.675L5.09375 4.46562L5.38438 4.675L5.275 4.33437L5.5625 4.125H5.20625L5.09375 3.78125Z" fill="white"/>
<path d="M7.125 3.78125L7.0125 4.125H6.65625L6.94375 4.33437L6.83437 4.675L7.125 4.46562L7.41563 4.675L7.30625 4.33437L7.59375 4.125H7.2375L7.125 3.78125Z" fill="white"/>
<path d="M9.15625 3.78125L9.04375 4.125H8.6875L8.975 4.33437L8.86563 4.675L9.15625 4.46562L9.44687 4.675L9.3375 4.33437L9.625 4.125H9.26875L9.15625 3.78125Z" fill="white"/>
<path d="M11.2188 3.78125L11.1062 4.125H10.75L11.0375 4.33437L10.9281 4.675L11.2188 4.46562L11.5094 4.675L11.4 4.33437L11.6875 4.125H11.3313L11.2188 3.78125Z" fill="white"/>
<path d="M2.0625 4.65625L1.95 5H1.59375L1.88125 5.20937L1.77188 5.55L2.0625 5.34062L2.35313 5.55L2.24375 5.20937L2.53125 5H2.175L2.0625 4.65625Z" fill="white"/>
<path d="M4.09375 4.65625L3.98125 5H3.625L3.9125 5.20937L3.80312 5.55L4.09375 5.34062L4.38438 5.55L4.275 5.20937L4.5625 5H4.20625L4.09375 4.65625Z" fill="white"/>
<path d="M6.125 4.65625L6.0125 5H5.65625L5.94375 5.20937L5.83437 5.55L6.125 5.34062L6.41563 5.55L6.30625 5.20937L6.59375 5H6.2375L6.125 4.65625Z" fill="white"/>
<path d="M8.15625 4.65625L8.04375 5H7.6875L7.975 5.20937L7.86562 5.55L8.15625 5.34062L8.44687 5.55L8.3375 5.20937L8.625 5H8.26875L8.15625 4.65625Z" fill="white"/>
<path d="M10.1875 4.65625L10.075 5H9.71875L10.0063 5.20937L9.89688 5.55L10.1875 5.34062L10.4781 5.55L10.3687 5.20937L10.6562 5H10.3L10.1875 4.65625Z" fill="white"/>
<path d="M1.03125 5.53125L0.91875 5.875H0.5625L0.85 6.08437L0.740625 6.425L1.03125 6.21562L1.32187 6.425L1.2125 6.08437L1.5 5.875H1.14375L1.03125 5.53125Z" fill="white"/>
<path d="M3.0625 5.53125L2.95 5.875H2.59375L2.88125 6.08437L2.77187 6.425L3.0625 6.21562L3.35313 6.425L3.24375 6.08437L3.53125 5.875H3.175L3.0625 5.53125Z" fill="white"/>
<path d="M5.09375 5.53125L4.98125 5.875H4.625L4.9125 6.08437L4.80312 6.425L5.09375 6.21562L5.38438 6.425L5.275 6.08437L5.5625 5.875H5.20625L5.09375 5.53125Z" fill="white"/>
<path d="M7.125 5.53125L7.0125 5.875H6.65625L6.94375 6.08437L6.83437 6.425L7.125 6.21562L7.41563 6.425L7.30625 6.08437L7.59375 5.875H7.2375L7.125 5.53125Z" fill="white"/>
<path d="M9.15625 5.53125L9.04375 5.875H8.6875L8.975 6.08437L8.86563 6.425L9.15625 6.21562L9.44687 6.425L9.3375 6.08437L9.625 5.875H9.26875L9.15625 5.53125Z" fill="white"/>
<path d="M11.2188 5.53125L11.1062 5.875H10.75L11.0375 6.08437L10.9281 6.425L11.2188 6.21562L11.5094 6.425L11.4 6.08437L11.6875 5.875H11.3313L11.2188 5.53125Z" fill="white"/>
<path d="M2.175 6.75L2.0625 6.40625L1.95 6.75H1.59375L1.88125 6.95937L1.77188 7.3L2.0625 7.09062L2.35313 7.3L2.24375 6.95937L2.53125 6.75H2.175Z" fill="white"/>
<path d="M4.20625 6.75L4.09375 6.40625L3.98125 6.75H3.625L3.9125 6.95937L3.80312 7.3L4.09375 7.09062L4.38438 7.3L4.275 6.95937L4.5625 6.75H4.20625Z" fill="white"/>
<path d="M6.2375 6.75L6.125 6.40625L6.0125 6.75H5.65625L5.94375 6.95937L5.83437 7.3L6.125 7.09062L6.41563 7.3L6.30625 6.95937L6.59375 6.75H6.2375Z" fill="white"/>
<path d="M8.26875 6.75L8.15625 6.40625L8.04375 6.75H7.6875L7.975 6.95937L7.86562 7.3L8.15625 7.09062L8.44687 7.3L8.3375 6.95937L8.625 6.75H8.26875Z" fill="white"/>
<path d="M10.3 6.75L10.1875 6.40625L10.075 6.75H9.71875L10.0063 6.95937L9.89688 7.3L10.1875 7.09062L10.4781 7.3L10.3687 6.95937L10.6562 6.75H10.3Z" fill="white"/>
<path d="M1.14375 7.59375L1.03125 7.25L0.91875 7.59375H0.5625L0.85 7.80312L0.740625 8.14375L1.03125 7.93437L1.32187 8.14375L1.2125 7.80312L1.5 7.59375H1.14375Z" fill="white"/>
<path d="M3.175 7.59375L3.0625 7.25L2.95 7.59375H2.59375L2.88125 7.80312L2.77187 8.14375L3.0625 7.93437L3.35313 8.14375L3.24375 7.80312L3.53125 7.59375H3.175Z" fill="white"/>
<path d="M5.20625 7.59375L5.09375 7.25L4.98125 7.59375H4.625L4.9125 7.80312L4.80312 8.14375L5.09375 7.93437L5.38438 8.14375L5.275 7.80312L5.5625 7.59375H5.20625Z" fill="white"/>
<path d="M7.2375 7.59375L7.125 7.25L7.0125 7.59375H6.65625L6.94375 7.80312L6.83437 8.14375L7.125 7.93437L7.41563 8.14375L7.30625 7.80312L7.59375 7.59375H7.2375Z" fill="white"/>
<path d="M9.26875 7.59375L9.15625 7.25L9.04375 7.59375H8.6875L8.975 7.80312L8.86563 8.14375L9.15625 7.93437L9.44687 8.14375L9.3375 7.80312L9.625 7.59375H9.26875Z" fill="white"/>
<path d="M11.3313 7.59375L11.2188 7.25L11.1062 7.59375H10.75L11.0375 7.80312L10.9281 8.14375L11.2188 7.93437L11.5094 8.14375L11.4 7.80312L11.6875 7.59375H11.3313Z" fill="white"/>
</g>
</g>
<defs>
<clipPath id="clip0_1078_69694">
<path d="M0 8C0 3.58172 3.58172 0 8 0C12.4183 0 16 3.58172 16 8C16 12.4183 12.4183 16 8 16C3.58172 16 0 12.4183 0 8Z" fill="white"/>
</clipPath>
<clipPath id="clip1_1078_69694">
<rect width="16" height="16" fill="white"/>
</clipPath>
</defs>
</svg>
