<svg width="32" height="32" viewBox="0 0 32 32" fill="none" xmlns="http://www.w3.org/2000/svg">
<g id="building-2--real-home-tower-building-house-estate">
<path id="Union" d="M17.1429 13.7139C16.5117 13.7139 16 14.2255 16 14.8567V30.8567C16 31.4878 16.5117 31.9996 17.1429 31.9996H30.8571C31.4882 31.9996 32 31.4878 32 30.8567V14.8567C32 14.2255 31.4882 13.7139 30.8571 13.7139H17.1429Z" fill="#FFA502"/>
<path id="Union_2" d="M10.3339 0.315129C9.89259 -0.105043 9.19922 -0.105043 8.75787 0.315129L0.35483 8.31513C0.128247 8.53084 0 8.83001 0 9.14286V30.8571C0 31.4882 0.511675 32 1.14286 32H17.9489C18.5801 32 19.0918 31.4882 19.0918 30.8571V9.14286C19.0918 8.83001 18.9636 8.53084 18.737 8.31513L10.3339 0.315129Z" fill="#002462"/>
<path id="Intersect" fill-rule="evenodd" clip-rule="evenodd" d="M11.8317 31.9997V27.4283C11.8317 26.1659 10.8083 25.1426 9.54597 25.1426C8.28359 25.1426 7.26025 26.1659 7.26025 27.4283V31.9997H11.8317Z" fill="#FFA502"/>
<path id="Union_3" fill-rule="evenodd" clip-rule="evenodd" d="M6.39488 10.3555C5.6059 10.3555 4.96631 10.9951 4.96631 11.784C4.96631 12.573 5.6059 13.2126 6.39488 13.2126H12.6972C13.4861 13.2126 14.1257 12.573 14.1257 11.784C14.1257 10.9951 13.4861 10.3555 12.6972 10.3555H6.39488ZM6.39488 16.3151C5.6059 16.3151 4.96631 16.9547 4.96631 17.7437C4.96631 18.5327 5.6059 19.1723 6.39488 19.1723H12.6972C13.4861 19.1723 14.1257 18.5327 14.1257 17.7437C14.1257 16.9547 13.4861 16.3151 12.6972 16.3151H6.39488Z" fill="#FFA502"/>
</g>
</svg>
