<svg width="24" height="24" viewBox="0 0 24 24" fill="none" xmlns="http://www.w3.org/2000/svg">
<g clip-path="url(#clip0_166_42888)">
<g clip-path="url(#clip1_166_42888)">
<path d="M12 24C18.6274 24 24 18.6274 24 12C24 5.37258 18.6274 0 12 0C5.37258 0 0 5.37258 0 12C0 18.6274 5.37258 24 12 24Z" fill="#FB5C5C"/>
<path fill-rule="evenodd" clip-rule="evenodd" d="M16.3206 9.052C16.8227 8.5499 16.8227 7.73582 16.3206 7.23372C15.8185 6.73162 15.0044 6.73162 14.5023 7.23372L11.7771 9.95878L9.05199 7.23372C8.54989 6.73162 7.73582 6.73162 7.23372 7.23372C6.73161 7.73582 6.73161 8.5499 7.23372 9.052L9.95886 11.7771L7.23372 14.5023C6.73161 15.0044 6.73161 15.8184 7.23372 16.3205C7.73582 16.8226 8.54989 16.8226 9.05199 16.3205L11.7771 13.5955L14.5023 16.3205C15.0044 16.8226 15.8185 16.8226 16.3206 16.3205C16.8227 15.8184 16.8227 15.0044 16.3206 14.5023L13.5954 11.7771L16.3206 9.052Z" fill="#FCFDFF"/>
</g>
</g>
<defs>
<clipPath id="clip0_166_42888">
<rect width="24" height="24" fill="white"/>
</clipPath>
<clipPath id="clip1_166_42888">
<rect width="24" height="24" fill="white"/>
</clipPath>
</defs>
</svg>
