<svg width="16" height="16" viewBox="0 0 16 16" fill="none" xmlns="http://www.w3.org/2000/svg">
<g id="ai-edit-spark--change-edit-modify-pencil-write-writing-artificial-intelligence-ai">
<path id="Union" fill-rule="evenodd" clip-rule="evenodd" d="M12.8191 3.99902C12.5908 3.99902 12.3647 4.04466 12.1542 4.13323C11.9451 4.22122 11.7556 4.34982 11.5966 4.51158L4.46777 11.5947C4.3719 11.69 4.3129 11.816 4.30123 11.9507L4.00409 15.3792C3.98953 15.5473 4.05001 15.7133 4.16932 15.8327C4.28865 15.952 4.45461 16.0125 4.62273 15.9979L8.0513 15.7007C8.18593 15.6891 8.31206 15.6301 8.40732 15.5342L15.4901 8.40574L15.4918 8.40404C15.6517 8.24502 15.7786 8.05603 15.8653 7.84787C15.9524 7.63898 15.9972 7.41491 15.9972 7.1886C15.9972 6.96229 15.9524 6.73822 15.8653 6.52932C15.7787 6.32123 15.6517 6.13229 15.4919 5.97331L14.0448 4.51482L14.0431 4.51315C13.8838 4.35065 13.6938 4.2215 13.484 4.13323C13.2735 4.04466 13.0475 3.99902 12.8191 3.99902Z" fill="#002462"/>
<path id="Union_2" fill-rule="evenodd" clip-rule="evenodd" d="M5.12086 0.739738C4.8949 -0.251008 3.48144 -0.24483 3.26414 0.747854L3.25512 0.789196L3.23716 0.870962C2.96746 2.07867 1.99624 3.00544 0.776236 3.21768C-0.256145 3.39729 -0.256137 4.87931 0.776236 5.05891C2.00051 5.2719 2.97423 6.2044 3.23997 7.4183L3.26414 7.52874C3.48144 8.52142 4.8949 8.52761 5.12086 7.53685L5.15022 7.40816C5.42605 6.19883 6.40096 5.27334 7.62299 5.06074C8.65741 4.88077 8.65741 3.39581 7.62299 3.21586C6.40744 3.00438 5.43639 2.08755 5.15467 0.887667C5.14695 0.854815 5.13979 0.823179 5.13208 0.789163L5.12086 0.739738Z" fill="#FFA502"/>
</g>
</svg>
