<svg xmlns="http://www.w3.org/2000/svg" width="24" height="25" viewBox="0 0 24 25" fill="none">
  <path d="M20 18.8882V14.8496V8.84961L14 2.84961H6C5.46957 2.84961 4.96086 3.06032 4.58579 3.4354C4.21071 3.81047 4 4.31918 4 4.84961V20.8496C4 21.38 4.21071 21.8887 4.58579 22.2638C4.96086 22.6389 5.46957 22.8496 6 22.8496H12H14" stroke="#F0F0F0" stroke-width="2" stroke-linecap="round" stroke-linejoin="round"/>
  <path d="M14 2.84961V8.84961H20" stroke="#F0F0F0" stroke-width="2" stroke-linecap="round" stroke-linejoin="round"/>
  <path d="M11.9066 19.8431C14.211 19.8431 16.0791 17.975 16.0791 15.6706C16.0791 13.3662 14.211 11.498 11.9066 11.498C9.60212 11.498 7.73401 13.3662 7.73401 15.6706C7.73401 17.975 9.60212 19.8431 11.9066 19.8431Z" stroke="#F0F0F0" stroke-width="2" stroke-linecap="round" stroke-linejoin="round"/>
  <path d="M19.1752 22.8491L14.8535 18.6172" stroke="#F0F0F0" stroke-width="2" stroke-linecap="round" stroke-linejoin="round"/>
</svg>