<svg width="49" height="48" viewBox="0 0 49 48" fill="none" xmlns="http://www.w3.org/2000/svg">
<path d="M40.4 36.0771V28V16L28.4 4H12.4C11.3392 4 10.3217 4.42143 9.5716 5.17157C8.82145 5.92172 8.40002 6.93913 8.40002 8V40C8.40002 41.0609 8.82145 42.0783 9.5716 42.8284C10.3217 43.5786 11.3392 44 12.4 44H24.4H28.4" stroke="#FFA502" stroke-width="2" stroke-linecap="round" stroke-linejoin="round"/>
<path d="M28.4 4V16H40.4" stroke="#FFA502" stroke-width="2" stroke-linecap="round" stroke-linejoin="round"/>
<path d="M24.213 37.9876C28.8219 37.9876 32.5581 34.2513 32.5581 29.6425C32.5581 25.0336 28.8219 21.2974 24.213 21.2974C19.6041 21.2974 15.8679 25.0336 15.8679 29.6425C15.8679 34.2513 19.6041 37.9876 24.213 37.9876Z" stroke="#FFA502" stroke-width="2" stroke-linecap="round" stroke-linejoin="round"/>
<path d="M38.7504 44L30.1069 35.5361" stroke="#FFA502" stroke-width="2" stroke-linecap="round" stroke-linejoin="round"/>
</svg>
