<svg width="49" height="48" viewBox="0 0 49 48" fill="none" xmlns="http://www.w3.org/2000/svg">
<g id="Icon / evidence">
<path id="Vector" d="M40.8999 36.0771V28V16L28.8999 4H12.8999C11.839 4 10.8216 4.42143 10.0715 5.17157C9.32133 5.92172 8.8999 6.93913 8.8999 8V40C8.8999 41.0609 9.32133 42.0783 10.0715 42.8284C10.8216 43.5786 11.839 44 12.8999 44H24.8999H28.8999" stroke="#11FFF5" stroke-width="2" stroke-linecap="round" stroke-linejoin="round"/>
<path id="Vector_2" d="M28.8999 4V16H40.8999" stroke="#11FFF5" stroke-width="2" stroke-linecap="round" stroke-linejoin="round"/>
<path id="Vector_3" d="M24.7128 37.9876C29.3216 37.9876 33.0579 34.2513 33.0579 29.6425C33.0579 25.0336 29.3216 21.2974 24.7128 21.2974C20.1039 21.2974 16.3677 25.0336 16.3677 29.6425C16.3677 34.2513 20.1039 37.9876 24.7128 37.9876Z" stroke="#11FFF5" stroke-width="2" stroke-linecap="round" stroke-linejoin="round"/>
<path id="Vector_4" d="M39.2504 44L30.6069 35.5361" stroke="#11FFF5" stroke-width="2" stroke-linecap="round" stroke-linejoin="round"/>
</g>
</svg>
