<svg width="46" height="46" viewBox="0 0 46 46" fill="none" xmlns="http://www.w3.org/2000/svg">
<path d="M0 23C0 10.2975 10.2975 0 23 0C35.7025 0 46 10.2975 46 23C46 35.7025 35.7025 46 23 46C10.2975 46 0 35.7025 0 23Z" fill="#FD6F8E"/>
<path fill-rule="evenodd" clip-rule="evenodd" d="M28.0203 17.5738C27.8379 18.0142 27.4082 18.3013 26.9315 18.3013H24.1815V22.6228C24.1815 23.2737 23.6538 23.8013 23.0029 23.8013C22.352 23.8013 21.8244 23.2737 21.8244 22.6228V18.3013H19.0744C18.5977 18.3013 18.1679 18.0142 17.9855 17.5738C17.8031 17.1334 17.9039 16.6265 18.241 16.2894L22.1696 12.3608C22.6298 11.9006 23.376 11.9006 23.8363 12.3608L27.7648 16.2894C28.1019 16.6265 28.2028 17.1334 28.0203 17.5738ZM12.2331 25.3211C12.3804 25.1738 12.5803 25.091 12.7886 25.091H17.5448C18.17 25.091 18.7695 25.3393 19.2116 25.7814C19.6536 26.2234 19.902 26.823 19.902 27.4481C19.902 28.9515 21.3893 30.1478 22.9993 30.1586C24.6548 30.1698 26.1877 28.9791 26.1877 27.4481C26.1877 26.823 26.436 26.2234 26.8781 25.7814C27.3201 25.3393 27.9196 25.091 28.5449 25.091H33.2172C33.4256 25.091 33.6255 25.1738 33.7729 25.3211C33.9201 25.4685 34.0029 25.6683 34.0029 25.8767V31.6441C34.0029 32.2694 33.7546 32.8689 33.3126 33.3109C32.8706 33.753 32.2709 34.0012 31.6458 34.0012H14.3601C13.7349 34.0012 13.1354 33.753 12.6933 33.3109C12.2513 32.8689 12.0029 32.2694 12.0029 31.6441V25.8767C12.0029 25.6683 12.0857 25.4685 12.2331 25.3211Z" fill="#FCFDFF"/>
</svg>
