<svg width="16" height="16" viewBox="0 0 16 16" fill="none" xmlns="http://www.w3.org/2000/svg">
<g clip-path="url(#clip0_4954_58082)">
<path fill-rule="evenodd" clip-rule="evenodd" d="M3.45386 8.62172L2.93301 8.19238L2.59551 8.77694L0.0765592 13.1399C-0.0390014 13.34 -0.0226115 13.5901 0.118086 13.7735C0.258784 13.9568 0.496081 14.0374 0.719328 13.9776L2.88917 13.3961L3.47058 15.566C3.53039 15.7893 3.7188 15.9545 3.94795 15.9846C4.17709 16.0148 4.40184 15.904 4.51741 15.7038L6.70299 11.9183L6.94486 11.4993L6.57157 11.1917L3.45386 8.62172ZM12.5466 8.62172L13.0675 8.19238L13.405 8.77694L15.9239 13.1399C16.0395 13.34 16.023 13.5901 15.8823 13.7735C15.7417 13.9568 15.5044 14.0374 15.2811 13.9776L13.1113 13.3961L12.5299 15.566C12.4701 15.7893 12.2817 15.9545 12.0525 15.9846C11.8234 16.0148 11.5986 15.904 11.483 15.7038L9.29748 11.9183L9.0556 11.4993L9.42889 11.1917L12.5466 8.62172Z" fill="#FFA502"/>
<path fill-rule="evenodd" clip-rule="evenodd" d="M7.99735 0.0100098C4.76277 0.0100098 2.14062 2.63216 2.14062 5.86674C2.14062 9.10131 4.76277 11.7235 7.99735 11.7235C11.2319 11.7235 13.8541 9.10131 13.8541 5.86674C13.8541 2.63216 11.2319 0.0100098 7.99735 0.0100098Z" fill="#002462"/>
<path d="M8.22978 2.78008L9.01005 4.34967C9.02749 4.38937 9.05517 4.42373 9.09023 4.44922C9.12529 4.47473 9.1665 4.49047 9.20965 4.49483L10.9425 4.75794C10.9921 4.76439 11.0388 4.78481 11.0771 4.81681C11.1155 4.84881 11.144 4.89109 11.1592 4.93866C11.1744 4.98625 11.1758 5.03718 11.1631 5.08551C11.1505 5.13384 11.1243 5.17757 11.0877 5.21158L9.80845 6.42734C9.78937 6.46373 9.77941 6.50419 9.77941 6.54528C9.77941 6.58637 9.78937 6.62683 9.80845 6.66322L10.0534 8.38705C10.0639 8.43688 10.0596 8.48866 10.0412 8.53614C10.0228 8.5836 9.99108 8.62472 9.94977 8.65449C9.90848 8.68426 9.85943 8.70142 9.80857 8.70386C9.75773 8.70632 9.70726 8.69397 9.66328 8.66831L8.12092 7.85176C8.081 7.83371 8.0377 7.82439 7.9939 7.82439C7.95009 7.82439 7.90679 7.83371 7.86688 7.85176L6.3245 8.66831C6.28054 8.69397 6.23007 8.70632 6.17921 8.70386C6.12837 8.70142 6.07932 8.68426 6.03802 8.65449C5.99672 8.62472 5.96495 8.5836 5.94655 8.53614C5.92816 8.48866 5.92393 8.43688 5.93438 8.38705L6.22471 6.66322C6.23719 6.62321 6.23959 6.58073 6.23167 6.53958C6.22375 6.49842 6.20578 6.45986 6.17935 6.42734L4.90008 5.2025C4.86615 5.16814 4.84233 5.12509 4.83125 5.07808C4.82016 5.03106 4.82222 4.98191 4.83721 4.936C4.85221 4.89008 4.87954 4.84918 4.91624 4.81777C4.95294 4.78637 4.99757 4.76567 5.04525 4.75794L6.77815 4.50391C6.82129 4.49954 6.86249 4.48381 6.89757 4.4583C6.93263 4.43279 6.9603 4.39843 6.97775 4.35874L7.758 2.78915C7.77888 2.74472 7.81177 2.70702 7.85296 2.6803C7.89415 2.65359 7.94199 2.63894 7.99108 2.63799C8.04016 2.63704 8.08853 2.64985 8.13071 2.67496C8.1729 2.70007 8.20721 2.73648 8.22978 2.78008Z" fill="#FFA502"/>
</g>
<defs>
<clipPath id="clip0_4954_58082">
<rect width="16" height="16" fill="white"/>
</clipPath>
</defs>
</svg>
