<svg width="16" height="16" viewBox="0 0 16 16" fill="none" xmlns="http://www.w3.org/2000/svg">
<g clip-path="url(#clip0_4059_88462)">
<path d="M2.85711 0C2.40245 0 1.96641 0.180611 1.64493 0.502103C1.32343 0.823593 1.14282 1.25963 1.14282 1.71429V14.2857C1.14282 14.7403 1.32343 15.1765 1.64493 15.4979C1.96641 15.8194 2.40245 16 2.85711 16H13.1429C13.5975 16 14.0335 15.8194 14.355 15.4979C14.6765 15.1765 14.8571 14.7403 14.8571 14.2857V5.71429C14.8571 5.56273 14.7969 5.41738 14.6897 5.31023L9.54688 0.167368C9.43972 0.0602039 9.29438 0 9.14282 0H2.85711Z" fill="#002462"/>
<path d="M14.8571 5.71429C14.8571 5.56273 14.7969 5.41738 14.6897 5.31023L9.54688 0.167368C9.43971 0.0602039 9.29438 0 9.14282 0V5.14286C9.14282 5.45845 9.39866 5.71429 9.71425 5.71429H14.8571Z" fill="#FFA502"/>
</g>
<defs>
<clipPath id="clip0_4059_88462">
<rect width="16" height="16" fill="white"/>
</clipPath>
</defs>
</svg>
