<svg width="16" height="20" viewBox="0 0 16 20" fill="none" xmlns="http://www.w3.org/2000/svg">
<path d="M3.71436 2.14286C3.71436 0.95939 4.67374 0 5.85721 0H13.7144C14.8978 0 15.8572 0.95939 15.8572 2.14286V14.2857C15.8572 15.4691 14.8978 16.4286 13.7144 16.4286H5.85721C4.67374 16.4286 3.71436 15.4691 3.71436 14.2857V2.14286Z" fill="#FFA502"/>
<path d="M0.142822 5.71415C0.142822 4.53067 1.10221 3.57129 2.28568 3.57129H10.1428C11.3263 3.57129 12.2857 4.53067 12.2857 5.71415V17.857C12.2857 19.0404 11.3263 19.9999 10.1428 19.9999H2.28568C1.10221 19.9999 0.142822 19.0404 0.142822 17.857V5.71415Z" fill="#002462"/>
<path fill-rule="evenodd" clip-rule="evenodd" d="M2.46376 7.14286C2.46376 6.64974 2.86352 6.25 3.35662 6.25H9.07091C9.56402 6.25 9.96376 6.64974 9.96376 7.14286C9.96376 7.63597 9.56402 8.03571 9.07091 8.03571H3.35662C2.86352 8.03571 2.46376 7.63597 2.46376 7.14286ZM2.46446 10.7143C2.46446 10.2212 2.86421 9.82143 3.35732 9.82143H9.07161C9.56472 9.82143 9.96446 10.2212 9.96446 10.7143C9.96446 11.2074 9.56472 11.6071 9.07161 11.6071H3.35732C2.86421 11.6071 2.46446 11.2074 2.46446 10.7143ZM3.35624 13.3929C2.86312 13.3929 2.46338 13.7926 2.46338 14.2857C2.46338 14.7789 2.86312 15.1786 3.35624 15.1786H6.21338C6.70649 15.1786 7.10624 14.7789 7.10624 14.2857C7.10624 13.7926 6.70649 13.3929 6.21338 13.3929H3.35624Z" fill="#FFA502"/>
</svg>
