<svg width="127" height="132" viewBox="0 0 127 132" fill="none" xmlns="http://www.w3.org/2000/svg">
<g id="icons /financial report">
<g id="Vector" filter="url(#filter0_d_1459_197647)">
<path d="M53.7384 58.7294L53.7414 58.7363C54.4581 60.3744 56.1015 61.3256 57.8569 61.1906L57.8947 61.1877L57.9322 61.1819C58.6111 61.0775 59.1535 60.8121 59.5385 60.3899C59.9123 59.9799 60.05 59.5173 60.1074 59.1773C60.1842 58.7432 60.2773 57.2438 58.7631 56.4446L58.7631 56.4446L58.7557 56.4408L53.517 53.7311L53.5135 53.7293C50.7373 52.3074 49.271 49.2899 49.8592 46.2136L49.8603 46.2076C50.3589 43.5107 52.2487 41.4971 54.7615 40.824L55.5028 40.6255V39.8581V39.3677C55.5028 38.1394 56.5002 37.1419 57.7286 37.1419C58.9569 37.1419 59.9544 38.1394 59.9544 39.3677V40.5548V41.18L60.5164 41.4538C62.3302 42.3375 63.803 43.7932 64.6305 45.7011L64.6305 45.7012L64.6341 45.7094C65.1274 46.8193 64.6223 48.1386 63.4732 48.6436C62.3433 49.1257 61.0262 48.6205 60.5286 47.4831C59.8105 45.8418 58.1387 44.8934 56.4117 45.0289L56.3984 45.0299L56.3852 45.0313C55.6445 45.1093 55.0942 45.4307 54.7257 45.8717C54.385 46.2795 54.2527 46.7251 54.1957 47.0043C54.0759 47.5482 54.0302 49.0144 55.5151 49.779C55.5155 49.7792 55.516 49.7794 55.5164 49.7796L60.753 52.4882L60.7564 52.49C63.4904 53.8909 64.9561 56.794 64.4577 59.8521L64.4573 59.8545C64.0725 62.2538 62.5902 64.1116 60.4994 65.0334L59.9028 65.2964V65.9484V66.6452C59.9028 67.8735 58.9053 68.871 57.6769 68.871C56.4486 68.871 55.4511 67.8735 55.4511 66.6452V66.1548V65.4294L54.7615 65.2042C52.5019 64.4664 50.6067 62.7813 49.612 60.5143L49.6101 60.51C49.1185 59.4039 49.6439 58.0846 50.7676 57.603L50.7946 57.5914L50.8209 57.5783L50.8503 57.5636C51.9525 57.0863 53.2596 57.612 53.7384 58.7294ZM95.2253 25H43.9479C40.5569 25 37.7866 27.7703 37.7866 31.1613V100.839C37.7866 104.23 40.5569 107 43.9479 107H95.2511C98.6421 107 101.412 104.23 101.412 100.839V31.1613C101.412 27.7703 98.6421 25 95.2511 25H95.2253ZM71.9737 94.8839H52.6189C51.3905 94.8839 50.3931 93.8864 50.3931 92.6581C50.3931 91.4297 51.3905 90.4323 52.6189 90.4323H71.9737C73.2021 90.4323 74.1995 91.4297 74.1995 92.6581C74.1995 93.8864 73.2021 94.8839 71.9737 94.8839ZM87.4576 81.9806H52.6189C51.3905 81.9806 50.3931 80.9832 50.3931 79.7548C50.3931 78.5265 51.3905 77.529 52.6189 77.529H87.4576C88.686 77.529 89.6834 78.5265 89.6834 79.7548C89.6834 80.9832 88.686 81.9806 87.4576 81.9806ZM87.4576 68.9226H74.8898C73.6615 68.9226 72.664 67.9251 72.664 66.6968C72.664 65.4684 73.6615 64.471 74.8898 64.471H87.4576C88.686 64.471 89.6834 65.4684 89.6834 66.6968C89.6834 67.9251 88.686 68.9226 87.4576 68.9226ZM87.4576 56.1742H74.8898C73.6615 56.1742 72.664 55.1767 72.664 53.9484C72.664 52.72 73.6615 51.7226 74.8898 51.7226H87.4576C88.686 51.7226 89.6834 52.72 89.6834 53.9484C89.6834 55.1767 88.686 56.1742 87.4576 56.1742ZM87.4576 43.271H74.8898C73.6615 43.271 72.664 42.2735 72.664 41.0452C72.664 39.8168 73.6615 38.8194 74.8898 38.8194H87.4576C88.686 38.8194 89.6834 39.8168 89.6834 41.0452C89.6834 42.2735 88.686 43.271 87.4576 43.271Z" stroke="#F0F0F0" stroke-width="2" shape-rendering="crispEdges"/>
</g>
<g id="Vector_2" filter="url(#filter1_d_1459_197647)">
<path d="M29.3406 31.4258C27.0076 31.4258 25.1147 33.3187 25.1147 35.6516V96.3484C25.1147 98.6813 27.0076 100.574 29.3406 100.574C31.6735 100.574 33.5664 98.6813 33.5664 96.3484V35.6516C33.5664 33.3187 31.6735 31.4258 29.3406 31.4258Z" stroke="#11FFF5" stroke-width="2" shape-rendering="crispEdges"/>
</g>
</g>
<defs>
<filter id="filter0_d_1459_197647" x="12.7866" y="0" width="113.626" height="132" filterUnits="userSpaceOnUse" color-interpolation-filters="sRGB">
<feFlood flood-opacity="0" result="BackgroundImageFix"/>
<feColorMatrix in="SourceAlpha" type="matrix" values="0 0 0 0 0 0 0 0 0 0 0 0 0 0 0 0 0 0 127 0" result="hardAlpha"/>
<feOffset/>
<feGaussianBlur stdDeviation="12"/>
<feComposite in2="hardAlpha" operator="out"/>
<feColorMatrix type="matrix" values="0 0 0 0 0.686275 0 0 0 0 0.313726 0 0 0 0 1 0 0 0 1 0"/>
<feBlend mode="normal" in2="BackgroundImageFix" result="effect1_dropShadow_1459_197647"/>
<feBlend mode="normal" in="SourceGraphic" in2="effect1_dropShadow_1459_197647" result="shape"/>
</filter>
<filter id="filter1_d_1459_197647" x="0.114746" y="6.42578" width="58.4517" height="119.148" filterUnits="userSpaceOnUse" color-interpolation-filters="sRGB">
<feFlood flood-opacity="0" result="BackgroundImageFix"/>
<feColorMatrix in="SourceAlpha" type="matrix" values="0 0 0 0 0 0 0 0 0 0 0 0 0 0 0 0 0 0 127 0" result="hardAlpha"/>
<feOffset/>
<feGaussianBlur stdDeviation="12"/>
<feComposite in2="hardAlpha" operator="out"/>
<feColorMatrix type="matrix" values="0 0 0 0 0.686275 0 0 0 0 0.313726 0 0 0 0 1 0 0 0 1 0"/>
<feBlend mode="normal" in2="BackgroundImageFix" result="effect1_dropShadow_1459_197647"/>
<feBlend mode="normal" in="SourceGraphic" in2="effect1_dropShadow_1459_197647" result="shape"/>
</filter>
</defs>
</svg>
