<svg width="127" height="132" viewBox="0 0 127 132" fill="none" xmlns="http://www.w3.org/2000/svg">
<g filter="url(#filter0_d_1_2009)">
<path d="M53.7382 58.7294L53.7412 58.7363C54.4579 60.3744 56.1013 61.3256 57.8566 61.1906L57.8945 61.1877L57.932 61.1819C58.6109 61.0775 59.1533 60.8121 59.5383 60.3899C59.9121 59.9799 60.0498 59.5173 60.1072 59.1773C60.1839 58.7432 60.277 57.2438 58.7628 56.4446L58.7628 56.4446L58.7555 56.4408L53.5168 53.7311L53.5132 53.7293C50.7371 52.3074 49.2708 49.2899 49.8589 46.2136L49.8601 46.2076C50.3586 43.5107 52.2485 41.4971 54.7613 40.824L55.5025 40.6255V39.8581V39.3677C55.5025 38.1394 56.5 37.1419 57.7283 37.1419C58.9567 37.1419 59.9541 38.1394 59.9541 39.3677V40.5548V41.18L60.5162 41.4538C62.3299 42.3375 63.8027 43.7932 64.6303 45.7011L64.6302 45.7012L64.6339 45.7094C65.1272 46.8193 64.6221 48.1386 63.4729 48.6436C62.343 49.1257 61.026 48.6205 60.5284 47.4831C59.8103 45.8418 58.1385 44.8934 56.4114 45.0289L56.3982 45.0299L56.3849 45.0313C55.6443 45.1093 55.094 45.4307 54.7255 45.8717C54.3847 46.2795 54.2525 46.7251 54.1954 47.0043C54.0756 47.5482 54.0299 49.0144 55.5149 49.779C55.5153 49.7792 55.5157 49.7794 55.5161 49.7796L60.7528 52.4882L60.7562 52.49C63.4902 53.8909 64.9558 56.794 64.4575 59.8521L64.4571 59.8545C64.0723 62.2538 62.5899 64.1116 60.4991 65.0334L59.9025 65.2964V65.9484V66.6452C59.9025 67.8735 58.9051 68.871 57.6767 68.871C56.4484 68.871 55.4509 67.8735 55.4509 66.6452V66.1548V65.4294L54.7613 65.2042C52.5017 64.4664 50.6065 62.7813 49.6118 60.5143L49.6099 60.51C49.1183 59.4039 49.6436 58.0846 50.7674 57.603L50.7944 57.5914L50.8207 57.5783L50.8501 57.5636C51.9522 57.0863 53.2593 57.612 53.7382 58.7294ZM95.2251 25H43.9477C40.5567 25 37.7864 27.7703 37.7864 31.1613V100.839C37.7864 104.23 40.5567 107 43.9477 107H95.2509C98.6419 107 101.412 104.23 101.412 100.839V31.1613C101.412 27.7703 98.6419 25 95.2509 25H95.2251ZM71.9735 94.8839H52.6187C51.3903 94.8839 50.3928 93.8864 50.3928 92.6581C50.3928 91.4297 51.3903 90.4323 52.6187 90.4323H71.9735C73.2019 90.4323 74.1993 91.4297 74.1993 92.6581C74.1993 93.8864 73.2019 94.8839 71.9735 94.8839ZM87.4574 81.9806H52.6187C51.3903 81.9806 50.3928 80.9832 50.3928 79.7548C50.3928 78.5265 51.3903 77.529 52.6187 77.529H87.4574C88.6857 77.529 89.6832 78.5265 89.6832 79.7548C89.6832 80.9832 88.6857 81.9806 87.4574 81.9806ZM87.4574 68.9226H74.8896C73.6613 68.9226 72.6638 67.9251 72.6638 66.6968C72.6638 65.4684 73.6613 64.471 74.8896 64.471H87.4574C88.6857 64.471 89.6832 65.4684 89.6832 66.6968C89.6832 67.9251 88.6857 68.9226 87.4574 68.9226ZM87.4574 56.1742H74.8896C73.6613 56.1742 72.6638 55.1767 72.6638 53.9484C72.6638 52.72 73.6613 51.7226 74.8896 51.7226H87.4574C88.6857 51.7226 89.6832 52.72 89.6832 53.9484C89.6832 55.1767 88.6857 56.1742 87.4574 56.1742ZM87.4574 43.271H74.8896C73.6613 43.271 72.6638 42.2735 72.6638 41.0452C72.6638 39.8168 73.6613 38.8194 74.8896 38.8194H87.4574C88.6857 38.8194 89.6832 39.8168 89.6832 41.0452C89.6832 42.2735 88.6857 43.271 87.4574 43.271Z" stroke="#F0F0F0" stroke-width="2" shape-rendering="crispEdges"/>
</g>
<g filter="url(#filter1_d_1_2009)">
<path d="M29.3403 31.4258C27.0074 31.4258 25.1145 33.3187 25.1145 35.6516V96.3484C25.1145 98.6813 27.0074 100.574 29.3403 100.574C31.6733 100.574 33.5661 98.6813 33.5661 96.3484V35.6516C33.5661 33.3187 31.6733 31.4258 29.3403 31.4258Z" stroke="#FFA502" stroke-width="2" shape-rendering="crispEdges"/>
</g>
<defs>
<filter id="filter0_d_1_2009" x="12.7864" y="0" width="113.626" height="132" filterUnits="userSpaceOnUse" color-interpolation-filters="sRGB">
<feFlood flood-opacity="0" result="BackgroundImageFix"/>
<feColorMatrix in="SourceAlpha" type="matrix" values="0 0 0 0 0 0 0 0 0 0 0 0 0 0 0 0 0 0 127 0" result="hardAlpha"/>
<feOffset/>
<feGaussianBlur stdDeviation="12"/>
<feComposite in2="hardAlpha" operator="out"/>
<feColorMatrix type="matrix" values="0 0 0 0 1 0 0 0 0 0.647059 0 0 0 0 0.00784314 0 0 0 1 0"/>
<feBlend mode="normal" in2="BackgroundImageFix" result="effect1_dropShadow_1_2009"/>
<feBlend mode="normal" in="SourceGraphic" in2="effect1_dropShadow_1_2009" result="shape"/>
</filter>
<filter id="filter1_d_1_2009" x="0.114517" y="6.42578" width="58.4516" height="119.148" filterUnits="userSpaceOnUse" color-interpolation-filters="sRGB">
<feFlood flood-opacity="0" result="BackgroundImageFix"/>
<feColorMatrix in="SourceAlpha" type="matrix" values="0 0 0 0 0 0 0 0 0 0 0 0 0 0 0 0 0 0 127 0" result="hardAlpha"/>
<feOffset/>
<feGaussianBlur stdDeviation="12"/>
<feComposite in2="hardAlpha" operator="out"/>
<feColorMatrix type="matrix" values="0 0 0 0 1 0 0 0 0 0.647059 0 0 0 0 0.00784314 0 0 0 1 0"/>
<feBlend mode="normal" in2="BackgroundImageFix" result="effect1_dropShadow_1_2009"/>
<feBlend mode="normal" in="SourceGraphic" in2="effect1_dropShadow_1_2009" result="shape"/>
</filter>
</defs>
</svg>
