<svg width="16" height="16" viewBox="0 0 16 16" fill="none" xmlns="http://www.w3.org/2000/svg">
<g id="fingerprint-1--identification-password-touch-id-secure-fingerprint-finger-security">
<path id="Union" fill-rule="evenodd" clip-rule="evenodd" d="M2.00042 7.71429C2.00042 4.40057 4.68672 1.71429 8.00042 1.71429C11.3141 1.71429 14.0004 4.40058 14.0004 7.71429V10C14.0004 10.4734 14.3842 10.8571 14.8576 10.8571C15.3309 10.8571 15.7147 10.4734 15.7147 10V7.71429C15.7147 3.45381 12.2609 0 8.00042 0C3.73994 0 0.286133 3.45381 0.286133 7.71429V15.1429C0.286133 15.6162 0.669888 16 1.14328 16C1.61666 16 2.00042 15.6162 2.00042 15.1429V7.71429ZM5.42899 13.4286C5.42899 12.9552 5.04523 12.5714 4.57185 12.5714C4.09846 12.5714 3.7147 12.9552 3.7147 13.4286V15.1429C3.7147 15.6162 4.09846 16 4.57185 16C5.04523 16 5.42899 15.6162 5.42899 15.1429V13.4286ZM8.00042 5.71429C6.58026 5.71429 5.42899 6.86555 5.42899 8.28572V10C5.42899 10.4734 5.04523 10.8571 4.57185 10.8571C4.09846 10.8571 3.7147 10.4734 3.7147 10V8.28572C3.7147 5.91878 5.63348 4 8.00042 4C10.3674 4 12.2861 5.91878 12.2861 8.28572V15.1429C12.2861 15.6162 11.9024 16 11.429 16C10.9556 16 10.5718 15.6162 10.5718 15.1429V8.28572C10.5718 6.86555 9.42058 5.71429 8.00042 5.71429ZM15.7147 13.4286C15.7147 12.9552 15.3309 12.5714 14.8576 12.5714C14.3842 12.5714 14.0004 12.9552 14.0004 13.4286V15.1429C14.0004 15.6162 14.3842 16 14.8576 16C15.3309 16 15.7147 15.6162 15.7147 15.1429V13.4286ZM8.00042 13.1429C8.4738 13.1429 8.85756 13.5266 8.85756 14V15.1429C8.85756 15.6162 8.4738 16 8.00042 16C7.52704 16 7.14328 15.6162 7.14328 15.1429V14C7.14328 13.5266 7.52704 13.1429 8.00042 13.1429ZM8.85756 8.85714C8.85756 8.38376 8.4738 8 8.00042 8C7.52704 8 7.14328 8.38376 7.14328 8.85714V10.5714C7.14328 11.0448 7.52704 11.4286 8.00042 11.4286C8.4738 11.4286 8.85756 11.0448 8.85756 10.5714V8.85714Z" fill="#002462"/>
</g>
</svg>
