<svg width="31" height="30" viewBox="0 0 31 30" fill="none" xmlns="http://www.w3.org/2000/svg">
<rect x="0.5" width="30" height="30" rx="15" fill="#CDD1D9"/>
<g clip-path="url(#clip0_840_70933)">
<g clip-path="url(#clip1_840_70933)">
<path fill-rule="evenodd" clip-rule="evenodd" d="M11.7559 7.34799C11.3119 7.34799 10.886 7.52437 10.5721 7.83833C10.2581 8.15228 10.0817 8.5781 10.0817 9.0221V14.813C10.4639 14.5067 10.949 14.3234 11.4768 14.3234C12.7096 14.3234 13.709 15.3228 13.709 16.5556V17.1136H14.267C15.4998 17.1136 16.4992 18.113 16.4992 19.3457C16.4992 20.5786 15.4998 21.5779 14.267 21.5779H13.709V22.1359C13.709 22.4319 13.6514 22.7145 13.5467 22.973H21.8005C22.2445 22.973 22.6704 22.7966 22.9843 22.4827C23.2983 22.1687 23.4746 21.7428 23.4746 21.2989V12.3703C23.4746 12.2223 23.4158 12.0804 23.3112 11.9757L18.8469 7.51144C18.7422 7.40678 18.6003 7.34799 18.4523 7.34799H11.7559ZM12.3139 16.5556C12.3139 16.0933 11.9391 15.7185 11.4768 15.7185C11.0145 15.7185 10.6398 16.0933 10.6398 16.5556V18.5087H8.68666C8.22437 18.5087 7.84961 18.8835 7.84961 19.3457C7.84961 19.808 8.22437 20.1828 8.68666 20.1828H10.6398V22.1359C10.6398 22.5982 11.0145 22.973 11.4768 22.973C11.9391 22.973 12.3139 22.5982 12.3139 22.1359V20.1828H14.267C14.7293 20.1828 15.1041 19.808 15.1041 19.3457C15.1041 18.8835 14.7293 18.5087 14.267 18.5087H12.3139V16.5556Z" fill="#7F8A9D"/>
</g>
</g>
<defs>
<clipPath id="clip0_840_70933">
<rect width="16" height="16" fill="white" transform="translate(7.5 7)"/>
</clipPath>
<clipPath id="clip1_840_70933">
<rect width="16" height="16" fill="white" transform="translate(7.5 7)"/>
</clipPath>
</defs>
</svg>
