<svg width="31" height="31" viewBox="0 0 31 31" fill="none" xmlns="http://www.w3.org/2000/svg">
<rect x="0.5" y="0.495667" width="30" height="30" rx="15" fill="#FFA502"/>
<g clip-path="url(#clip0_879_114399)">
<g clip-path="url(#clip1_879_114399)">
<path fill-rule="evenodd" clip-rule="evenodd" d="M11.7552 7.84366C11.3112 7.84366 10.8854 8.02004 10.5715 8.33399C10.2575 8.64795 10.0811 9.07377 10.0811 9.51776V15.3087C10.4633 15.0023 10.9484 14.8191 11.4762 14.8191C12.709 14.8191 13.7084 15.8185 13.7084 17.0512V17.6093H14.2664C15.4992 17.6093 16.4985 18.6086 16.4985 19.8414C16.4985 21.0742 15.4992 22.0736 14.2664 22.0736H13.7084V22.6316C13.7084 22.9276 13.6507 23.2102 13.5461 23.4686H21.7999C22.2438 23.4686 22.6697 23.2923 22.9837 22.9784C23.2976 22.6644 23.474 22.2385 23.474 21.7945V12.866C23.474 12.718 23.4152 12.576 23.3106 12.4714L18.8463 8.0071C18.7416 7.90245 18.5997 7.84366 18.4517 7.84366H11.7552ZM12.3133 17.0512C12.3133 16.589 11.9385 16.2142 11.4762 16.2142C11.0139 16.2142 10.6392 16.589 10.6392 17.0512V19.0044H8.68605C8.22376 19.0044 7.849 19.3791 7.849 19.8414C7.849 20.3037 8.22376 20.6785 8.68605 20.6785H10.6392V22.6316C10.6392 23.0939 11.0139 23.4686 11.4762 23.4686C11.9385 23.4686 12.3133 23.0939 12.3133 22.6316V20.6785H14.2664C14.7287 20.6785 15.1035 20.3037 15.1035 19.8414C15.1035 19.3791 14.7287 19.0044 14.2664 19.0044H12.3133V17.0512Z" fill="#FCFDFF"/>
</g>
</g>
<defs>
<clipPath id="clip0_879_114399">
<rect width="16" height="16" fill="white" transform="translate(7.5 7.49567)"/>
</clipPath>
<clipPath id="clip1_879_114399">
<rect width="16" height="16" fill="white" transform="translate(7.5 7.49567)"/>
</clipPath>
</defs>
</svg>
