<svg width="32" height="32" viewBox="0 0 32 32" fill="none" xmlns="http://www.w3.org/2000/svg">
<path fill-rule="evenodd" clip-rule="evenodd" d="M4.03795 13.0011C3.79795 13.9614 3.67053 14.9664 3.67053 16.0011C3.67053 17.0358 3.79795 18.0407 4.03795 19.0011H9.94189C9.78293 18.0205 9.69165 17.0253 9.67075 16.0219C9.67046 16.008 9.67046 15.9941 9.67075 15.9802C9.69165 14.9769 9.78293 13.9816 9.94189 13.0011H4.03795ZM4.72614 11.0011H10.3651C11.0348 8.44558 12.1741 6.02825 13.7319 3.87655C9.6944 4.62839 6.34848 7.34722 4.72614 11.0011ZM16.0039 4.19936C14.3664 6.21649 13.1593 8.53155 12.44 11.0011H19.5677C18.8484 8.53155 17.6413 6.21649 16.0039 4.19936ZM20.037 13.0011H11.9708C11.794 13.9864 11.6929 14.9892 11.6708 16.0011C11.6929 17.013 11.794 18.0158 11.9708 19.0011H20.037C20.2137 18.0158 20.3148 17.013 20.337 16.0011C20.3148 14.9892 20.2137 13.9864 20.037 13.0011ZM22.0658 19.0011C22.2248 18.0205 22.3161 17.0253 22.337 16.0219C22.3373 16.008 22.3373 15.9941 22.337 15.9802C22.3161 14.9769 22.2248 13.9816 22.0658 13.0011H27.9698C28.2098 13.9614 28.3372 14.9664 28.3372 16.0011C28.3372 17.0358 28.2098 18.0407 27.9698 19.0011H22.0658ZM19.5677 21.0011H12.44C13.1593 23.4706 14.3664 25.7856 16.0039 27.8028C17.6413 25.7856 18.8484 23.4706 19.5677 21.0011ZM13.7319 28.1256C12.1741 25.9739 11.0348 23.5565 10.3651 21.0011H4.72614C6.34848 24.6549 9.69439 27.3737 13.7319 28.1256ZM18.2758 28.1256C19.8336 25.9739 20.9729 23.5565 21.6426 21.0011H27.2816C25.6593 24.6549 22.3133 27.3737 18.2758 28.1256ZM27.2816 11.0011H21.6426C20.9729 8.44558 19.8336 6.02825 18.2758 3.87655C22.3133 4.62839 25.6593 7.34722 27.2816 11.0011ZM1.67053 16.0011C1.67053 8.08498 8.08778 1.66772 16.0039 1.66772C23.9199 1.66772 30.3372 8.08498 30.3372 16.0011C30.3372 23.9171 23.9199 30.3344 16.0039 30.3344C8.08778 30.3344 1.67053 23.9171 1.67053 16.0011Z" fill="#001840"/>
</svg>
