<svg width="21" height="20" viewBox="0 0 21 20" fill="none" xmlns="http://www.w3.org/2000/svg">
<g id="wrapper">
<path id="Union" fill-rule="evenodd" clip-rule="evenodd" d="M9.85308 1.42725C9.06411 1.42725 8.42451 2.06684 8.42451 2.85581C8.42451 3.6448 9.06411 4.28438 9.85308 4.28438H13.7504C14.7497 4.28438 15.708 4.68135 16.4147 5.38797C17.1213 6.09457 17.5183 7.05294 17.5183 8.05224C17.5183 9.05154 17.1213 10.0099 16.4147 10.7165C15.708 11.4231 14.7497 11.8201 13.7504 11.8201H7.38434V9.35135C7.38434 8.77355 7.03628 8.25264 6.50247 8.03153C5.96864 7.81041 5.35418 7.93263 4.94562 8.3412L1.05124 12.2356C1.04185 12.2449 1.03259 12.2544 1.02346 12.264C0.899832 12.3938 0.805331 12.5412 0.739954 12.6978C0.66905 12.8673 0.629883 13.0534 0.629883 13.2487C0.629883 13.441 0.667902 13.6245 0.736838 13.792C0.806565 13.9618 0.910387 14.1209 1.0483 14.2588L4.94562 18.1562C5.35418 18.5648 5.96864 18.6869 6.50247 18.4658C7.03628 18.2448 7.38434 17.7238 7.38434 17.146V14.6772H13.7504C15.5074 14.6772 17.1926 13.9792 18.435 12.7368C19.6774 11.4944 20.3754 9.8093 20.3754 8.05224C20.3754 6.29518 19.6774 4.61008 18.435 3.36765C17.1926 2.12524 15.5074 1.42725 13.7504 1.42725H9.85308Z" fill="#000A12"/>
</g>
</svg>
