<svg width="32" height="30" viewBox="0 0 32 30" fill="none" xmlns="http://www.w3.org/2000/svg">
<g id="graduation-cap--graduation-cap-education">
<path id="Union" d="M6.74438 15.0006L6.75584 20.7529C6.75636 21.0008 6.83746 21.2418 6.9869 21.4395L7.8986 20.7506C6.9869 21.4395 6.9869 21.4395 6.9869 21.4395L6.9885 21.4416L6.99035 21.4441L6.99474 21.4498L7.00637 21.4648L7.04114 21.5083C7.06941 21.543 7.10802 21.5891 7.15714 21.645C7.25533 21.7565 7.39584 21.9072 7.58032 22.0837C7.94902 22.4363 8.49538 22.8937 9.23229 23.347C10.7135 24.2583 12.9438 25.1394 15.9994 25.1394C19.0548 25.1394 21.2879 24.2583 22.7719 23.3477C23.5101 22.8946 24.058 22.4375 24.4279 22.0853C24.6128 21.9088 24.7538 21.7584 24.8523 21.6469C24.9017 21.5912 24.9403 21.5451 24.9687 21.5104L25.0036 21.467L25.0153 21.4521L25.0196 21.4464L25.0215 21.444C25.0215 21.444 25.0231 21.4419 24.1131 20.7505L25.0231 21.4419C25.1741 21.243 25.256 21 25.256 20.7503L25.2548 15L17.5892 18.3213C16.5746 18.7609 15.4233 18.7609 14.4087 18.3213L6.74438 15.0006Z" fill="#002462"/>
<path id="Ellipse 347 (Stroke)" fill-rule="evenodd" clip-rule="evenodd" d="M3.87503 8.30078C4.50621 8.30078 5.01789 8.94037 5.01789 9.72935V25.4794C5.01789 26.2684 4.50621 26.908 3.87503 26.908C3.24386 26.908 2.73218 26.2684 2.73218 25.4794V9.72935C2.73218 8.94037 3.24386 8.30078 3.87503 8.30078Z" fill="#FFA502"/>
<path id="Union_2" fill-rule="evenodd" clip-rule="evenodd" d="M3.87639 24.1377C2.31182 24.1377 1.04346 25.406 1.04346 26.9706C1.04346 28.5352 2.31182 29.8035 3.87639 29.8035C5.44098 29.8035 6.70932 28.5352 6.70932 26.9706C6.70932 25.406 5.44098 24.1377 3.87639 24.1377Z" fill="#002462"/>
<path id="Union_3" fill-rule="evenodd" clip-rule="evenodd" d="M16.4544 1.03854C16.1645 0.912936 15.8355 0.912936 15.5456 1.03854L0.688501 7.47575C0.270519 7.65685 0 8.0689 0 8.52442C0 8.97994 0.270519 9.39198 0.688501 9.57308L15.5456 16.0103C15.8355 16.1359 16.1645 16.1359 16.4544 16.0103L31.3115 9.57308C31.7294 9.39198 32 8.97994 32 8.52442C32 8.0689 31.7294 7.65685 31.3115 7.47575L16.4544 1.03854Z" fill="#002462"/>
<path id="Subtract" fill-rule="evenodd" clip-rule="evenodd" d="M6.74438 12.1974L15.5456 16.0108C15.8355 16.1364 16.1645 16.1364 16.4543 16.0108L25.256 12.1973V20.0738L25.2548 15.0006L17.5892 18.3219C16.5746 18.7615 15.4233 18.7615 14.4087 18.3219L6.74438 15.0011V12.1974ZM6.74438 15.0011L6.75449 20.0738H6.74438V15.0011Z" fill="#002462"/>
</g>
</svg>
