<svg width="16" height="16" viewBox="0 0 16 16" fill="none" xmlns="http://www.w3.org/2000/svg">
<g id="icon-wrapper" clip-path="url(#clip0_5473_182518)">
<path id="Union" fill-rule="evenodd" clip-rule="evenodd" d="M8.16178 2.40039C4.98039 2.40039 2.40137 4.97941 2.40137 8.1608C2.40137 11.3422 4.98039 13.9212 8.16178 13.9212C11.3432 13.9212 13.9222 11.3422 13.9222 8.1608C13.9222 4.97941 11.3432 2.40039 8.16178 2.40039ZM0.901367 8.1608C0.901367 4.15099 4.15196 0.900391 8.16178 0.900391C12.1716 0.900391 15.4222 4.15099 15.4222 8.1608C15.4222 12.1706 12.1716 15.4212 8.16178 15.4212C4.15196 15.4212 0.901367 12.1706 0.901367 8.1608ZM11.6218 5.67735C11.9147 5.97024 11.9147 6.44511 11.6218 6.73801L7.71555 10.6443C7.42265 10.9371 6.94778 10.9371 6.65488 10.6443L4.70176 8.69113C4.40887 8.39824 4.40887 7.92336 4.70176 7.63047C4.99466 7.33758 5.46953 7.33758 5.76242 7.63047L7.18521 9.05326L10.5611 5.67735C10.854 5.38445 11.3289 5.38445 11.6218 5.67735Z" fill="#4BD394"/>
</g>
<defs>
<clipPath id="clip0_5473_182518">
<rect width="16" height="16" fill="white"/>
</clipPath>
</defs>
</svg>
