<svg width="16" height="16" viewBox="0 0 16 16" fill="none" xmlns="http://www.w3.org/2000/svg">
<g id="wrapper">
<path id="Union" fill-rule="evenodd" clip-rule="evenodd" d="M8.57752 1.03724L8.2728 1.72255L8.57752 1.03724C8.86481 1.16499 9.04855 1.38875 9.17144 1.56225C9.29208 1.73257 9.42054 1.95449 9.55881 2.19338L9.57412 2.21983L8.92505 2.59561L9.57412 2.21983L15.0574 11.6909L15.0727 11.7174C15.2116 11.9572 15.3405 12.1798 15.4283 12.3697C15.5178 12.563 15.6207 12.8346 15.588 13.148C15.5463 13.5476 15.337 13.9107 15.0121 14.1469C14.7572 14.3323 14.4706 14.3793 14.2585 14.3987C14.0501 14.4178 13.7929 14.4178 13.5158 14.4178L13.4852 14.4178H2.51868L2.48804 14.4178C2.21098 14.4178 1.95376 14.4178 1.74535 14.3987C1.53324 14.3793 1.2467 14.3323 0.991789 14.1469C0.666866 13.9107 0.457525 13.5476 0.415867 13.148C0.383185 12.8346 0.486089 12.563 0.575523 12.3697C0.663399 12.1798 0.792301 11.9572 0.931147 11.7174L0.946484 11.6909L6.42974 2.21984C6.43485 2.211 6.43995 2.20219 6.44504 2.19341C6.58332 1.95451 6.71178 1.73258 6.83242 1.56225C6.95531 1.38875 7.13905 1.16499 7.42634 1.03724C7.79277 0.874305 8.21109 0.874305 8.57752 1.03724ZM8.00193 2.51047C7.93504 2.61447 7.851 2.75872 7.72788 2.97139L2.24462 12.4425C2.12103 12.6559 2.03743 12.8013 1.9803 12.9115C2.10435 12.9173 2.27201 12.9178 2.51868 12.9178H13.4852C13.7319 12.9178 13.8995 12.9173 14.0236 12.9115C13.9664 12.8013 13.8828 12.6559 13.7592 12.4425L8.27598 2.97139C8.15286 2.75872 8.06882 2.61447 8.00193 2.51047ZM7.25193 6.00113C7.25193 5.58692 7.58772 5.25113 8.00193 5.25113C8.41615 5.25113 8.75193 5.58692 8.75193 6.00113V8.6678C8.75193 9.08201 8.41615 9.4178 8.00193 9.4178C7.58772 9.4178 7.25193 9.08201 7.25193 8.6678V6.00113ZM7.25193 11.3345C7.25193 10.9203 7.58772 10.5845 8.00193 10.5845H8.0086C8.42281 10.5845 8.7586 10.9203 8.7586 11.3345C8.7586 11.7487 8.42281 12.0845 8.0086 12.0845H8.00193C7.58772 12.0845 7.25193 11.7487 7.25193 11.3345Z" fill="#FB5C5C"/>
</g>
</svg>
