<svg xmlns="http://www.w3.org/2000/svg" width="29" height="25" viewBox="0 0 29 25" fill="none">
  <path d="M24.6139 18.8V12.934C24.6139 11.6786 24.6139 11.0509 24.4406 10.4814C24.2871 9.97728 24.0355 9.50841 23.7003 9.10178C23.3216 8.64245 22.7986 8.2954 21.7526 7.60128L17.6038 4.8482C16.3245 3.9993 15.6849 3.57485 14.9939 3.4099C14.3833 3.26412 13.7469 3.26412 13.1363 3.4099C12.4453 3.57485 11.8057 3.9993 10.5264 4.8482L6.37759 7.60128L6.37758 7.60129C5.33157 8.2954 4.80857 8.64245 4.42989 9.10178C4.09466 9.50841 3.84308 9.97728 3.68962 10.4814C3.51627 11.0509 3.51627 11.6786 3.51627 12.934V18.8C3.51627 19.9201 3.51627 20.4802 3.73425 20.908C3.926 21.2843 4.23196 21.5903 4.60828 21.782C5.03611 22 5.59616 22 6.71626 22H7.83778C7.95384 22 8.01187 22 8.06091 21.9976C9.08832 21.9471 9.90989 21.1255 9.96037 20.0981C9.96278 20.0491 9.96278 19.9911 9.96278 19.875V17.6023C9.96278 15.3367 11.7994 13.5 14.0651 13.5C16.3308 13.5 18.1674 15.3367 18.1674 17.6023V19.875C18.1674 19.9911 18.1674 20.0491 18.1698 20.0981C18.2203 21.1255 19.0419 21.9471 20.0693 21.9976C20.1183 22 20.1764 22 20.2924 22H21.4139C22.534 22 23.0941 22 23.5219 21.782C23.8982 21.5903 24.2042 21.2843 24.396 20.908C24.6139 20.4802 24.6139 19.9201 24.6139 18.8Z" stroke="#F0F0F0" stroke-width="1.8"/>
</svg>