<svg width="16" height="16" viewBox="0 0 16 16" fill="none" xmlns="http://www.w3.org/2000/svg">
<g clip-path="url(#clip0_4059_104437)">
<path fill-rule="evenodd" clip-rule="evenodd" d="M1 1C1 0.447715 1.72323 0 2.61538 0H13.3846C14.2768 0 15 0.447715 15 1C15 1.55228 14.2768 2 13.3846 2H12.9993C12.9595 4.42229 11.2554 6.43249 9 6.89825V7.10175C11.2554 7.56751 12.9595 9.57771 12.9993 12H13.3846C14.2768 12 15 12.4477 15 13C15 13.5523 14.2768 14 13.3846 14H2.61538C1.72323 14 1 13.5523 1 13C1 12.4477 1.72323 12 2.61538 12H3.00071C3.04048 9.57771 4.7446 7.56751 7 7.10175V6.89825C4.7446 6.43249 3.04048 4.42229 3.00071 2H2.61538C1.72323 2 1 1.55228 1 1Z" fill="#002462"/>
<path fill-rule="evenodd" clip-rule="evenodd" d="M8.4 5.98202C10.4213 5.79973 12 4.25064 12 2.36664C12 2.36664 11.5 1.5 10 1.5C9 1.5 8 2.49994 8 2.49994C8 2.49994 6.87309 3.51616 6 3.49994C5.10243 3.48326 4 2.36664 4 2.36664C4 4.25064 5.57867 5.79973 7.6 5.98202V10.0103C5.51718 10.1185 4 11.0592 4 12L8 12L12 12C12 11.0592 10.4828 10.1185 8.4 10.0103V5.98202Z" fill="#FFA502"/>
</g>
<defs>
<clipPath id="clip0_4059_104437">
<rect width="16" height="16" fill="white"/>
</clipPath>
</defs>
</svg>
