<svg width="46" height="46" viewBox="0 0 46 46" fill="none" xmlns="http://www.w3.org/2000/svg">
<path d="M0 23C0 10.2975 10.2975 0 23 0C35.7025 0 46 10.2975 46 23C46 35.7025 35.7025 46 23 46C10.2975 46 0 35.7025 0 23Z" fill="#6CDEA0"/>
<path fill-rule="evenodd" clip-rule="evenodd" d="M23.0029 12.0156C23.6538 12.0156 24.1815 12.5433 24.1815 13.1942V17.5156H26.9315C27.4082 17.5156 27.8379 17.8028 28.0203 18.2432C28.2028 18.6836 28.1019 19.1905 27.7648 19.5276L23.8363 23.4561C23.376 23.9164 22.6298 23.9164 22.1695 23.4561L18.241 19.5276C17.9039 19.1905 17.8031 18.6836 17.9855 18.2432C18.1679 17.8028 18.5977 17.5156 19.0743 17.5156H21.8243V13.1942C21.8243 12.5433 22.352 12.0156 23.0029 12.0156ZM12.2331 25.3209C12.3804 25.1736 12.5803 25.0908 12.7886 25.0908H17.5448C18.17 25.0908 18.7695 25.3391 19.2116 25.7812C19.6536 26.2232 19.902 26.8228 19.902 27.4479C19.902 28.9513 21.3893 30.1476 22.9993 30.1584C24.6548 30.1696 26.1877 28.9789 26.1877 27.4479C26.1877 26.8228 26.436 26.2232 26.8781 25.7812C27.3201 25.3391 27.9196 25.0908 28.5449 25.0908H33.2172C33.4256 25.0908 33.6255 25.1736 33.7729 25.3209C33.9201 25.4683 34.0029 25.6681 34.0029 25.8765V31.6439C34.0029 32.2692 33.7546 32.8687 33.3126 33.3107C32.8706 33.7528 32.2709 34.001 31.6458 34.001H14.3601C13.7349 34.001 13.1354 33.7528 12.6933 33.3107C12.2513 32.8687 12.0029 32.2692 12.0029 31.6439V25.8765C12.0029 25.6681 12.0857 25.4683 12.2331 25.3209Z" fill="#FCFDFF"/>
</svg>
