<svg width="32" height="32" viewBox="0 0 32 32" fill="none" xmlns="http://www.w3.org/2000/svg">
<g id="information-desk">
<path id="Subtract" fill-rule="evenodd" clip-rule="evenodd" d="M13.9214 6.25166C15.2502 2.76158 18.6271 0.282227 22.5834 0.282227C27.7006 0.282227 31.849 4.43056 31.849 9.54779C31.849 14.665 27.7006 18.8133 22.5834 18.8133C20.4542 18.8133 18.4914 18.0941 16.927 16.8869C17.4389 15.7988 17.725 14.5834 17.725 13.3013C17.725 10.3536 16.2126 7.75915 13.9214 6.25166Z" fill="#002462"/>
<path id="Union" fill-rule="evenodd" clip-rule="evenodd" d="M22.4295 6.69538C21.8016 6.62681 20.9094 6.1538 20.9094 5.07575C20.9094 3.90429 21.9629 3.44727 22.586 3.44727C22.6403 3.44727 22.694 3.45031 22.7468 3.4562C23.3748 3.52477 24.2669 3.99778 24.2669 5.07584C24.2669 6.24729 23.2134 6.70432 22.5903 6.70432C22.5359 6.70432 22.4823 6.70128 22.4295 6.69538ZM22.5855 8.68777C23.3745 8.68779 24.0141 9.32738 24.0141 10.1164V14.22C24.0141 15.009 23.3743 15.6486 22.5854 15.6486C21.7964 15.6486 21.1568 15.009 21.1568 14.22L21.1569 10.1163C21.1569 9.32736 21.7965 8.68777 22.5855 8.68777Z" fill="#FFA502"/>
<g id="Union_2">
<path id="Vector" d="M9.29247 18.8765C12.3717 18.8765 14.8679 16.3802 14.8679 13.301C14.8679 10.2218 12.3717 7.72559 9.29247 7.72559C6.21325 7.72559 3.71704 10.2218 3.71704 13.301C3.71704 16.3802 6.21325 18.8765 9.29247 18.8765Z" fill="#002462"/>
<path id="Vector_2" d="M0 30.0277C0 24.8956 4.16034 20.7354 9.29239 20.7354C14.4245 20.7354 18.5848 24.8956 18.5848 30.0277C18.5848 30.5408 18.1688 30.9571 17.6556 30.9571H0.929239C0.416034 30.9571 0 30.5408 0 30.0277Z" fill="#002462"/>
</g>
<path id="Vector 637 (Stroke)" fill-rule="evenodd" clip-rule="evenodd" d="M0.0437012 30.2035C0.0437012 29.2568 0.811212 28.4893 1.75799 28.4893H30.2449C31.1917 28.4893 31.9592 29.2568 31.9592 30.2035C31.9592 31.1503 31.1917 31.9178 30.2449 31.9178H1.75799C0.811212 31.9178 0.0437012 31.1503 0.0437012 30.2035Z" fill="#FFA502"/>
</g>
</svg>
