<svg width="16" height="16" viewBox="0 0 16 16" fill="none" xmlns="http://www.w3.org/2000/svg">
<g id="information-circle--information-frame-info-more-help-point-circle">
<path id="Ellipse 644" d="M8 16C12.4183 16 16 12.4183 16 8C16 3.58172 12.4183 0 8 0C3.58172 0 0 3.58172 0 8C0 12.4183 3.58172 16 8 16Z" fill="#002462"/>
<path id="Union" fill-rule="evenodd" clip-rule="evenodd" d="M9.14272 4.57145C9.14272 5.20262 8.63104 5.7143 7.99986 5.7143C7.36868 5.7143 6.857 5.20262 6.857 4.57145C6.857 3.94027 7.36868 3.42859 7.99986 3.42859C8.63104 3.42859 9.14272 3.94027 9.14272 4.57145ZM5.57129 11.4286C5.57129 11.0341 5.89108 10.7143 6.28557 10.7143H7.28557V8.14287H6.857C6.46251 8.14287 6.14272 7.82308 6.14272 7.42859C6.14272 7.0341 6.46251 6.7143 6.857 6.7143H7.99986C8.39435 6.7143 8.71415 7.0341 8.71415 7.42859V10.7143H9.71415C10.1086 10.7143 10.4284 11.0341 10.4284 11.4286C10.4284 11.8231 10.1086 12.1429 9.71415 12.1429H7.99986H6.28557C5.89108 12.1429 5.57129 11.8231 5.57129 11.4286Z" fill="#FFA502"/>
</g>
</svg>
