<svg width="16" height="16" viewBox="0 0 16 16" fill="none" xmlns="http://www.w3.org/2000/svg">
<g clip-path="url(#clip0_898_81811)">
<path d="M8 16C12.4183 16 16 12.4183 16 8C16 3.58172 12.4183 0 8 0C3.58172 0 0 3.58172 0 8C0 12.4183 3.58172 16 8 16Z" fill="#002462"/>
<path fill-rule="evenodd" clip-rule="evenodd" d="M9.14369 4.57142C9.14369 5.20259 8.63201 5.71427 8.00084 5.71427C7.36966 5.71427 6.85798 5.20259 6.85798 4.57142C6.85798 3.94024 7.36966 3.42856 8.00084 3.42856C8.63201 3.42856 9.14369 3.94024 9.14369 4.57142ZM5.57227 11.4286C5.57227 11.0341 5.89206 10.7143 6.28655 10.7143H7.28655V8.14284H6.85798C6.46349 8.14284 6.14369 7.82305 6.14369 7.42856C6.14369 7.03407 6.46349 6.71427 6.85798 6.71427H8.00084C8.39533 6.71427 8.71512 7.03407 8.71512 7.42856V10.7143H9.71512C10.1096 10.7143 10.4294 11.0341 10.4294 11.4286C10.4294 11.8231 10.1096 12.1428 9.71512 12.1428H8.00084H6.28655C5.89206 12.1428 5.57227 11.8231 5.57227 11.4286Z" fill="#FFA502"/>
</g>
<defs>
<clipPath id="clip0_898_81811">
<rect width="16" height="16" fill="white"/>
</clipPath>
</defs>
</svg>
