<svg width="31" height="31" viewBox="0 0 31 31" fill="none" xmlns="http://www.w3.org/2000/svg">
<rect x="0.5" y="0.495667" width="30" height="30" rx="15" fill="#FFA502"/>
<g clip-path="url(#clip0_879_114198)">
<g clip-path="url(#clip1_879_114198)">
<path d="M19.8077 7.84268C19.5847 7.84268 19.3639 7.88724 19.1584 7.97374C18.9541 8.0597 18.7689 8.18535 18.6136 8.34341L9.41967 17.4927C9.35141 17.5607 9.30189 17.6451 9.27593 17.7378L7.86968 22.7602C7.81532 22.9542 7.8699 23.1626 8.01246 23.3053C8.15501 23.4478 8.36337 23.5023 8.55751 23.448L13.5798 22.0417C13.6726 22.0157 13.757 21.9662 13.8249 21.898L22.9741 12.7041L22.9757 12.7026C23.1318 12.5473 23.2558 12.3627 23.3405 12.1593C23.4255 11.9554 23.4693 11.7365 23.4693 11.5155C23.4693 11.2945 23.4255 11.0757 23.3405 10.8717C23.2558 10.6684 23.1318 10.4837 22.9757 10.3284L22.9741 10.3269L21.0029 8.34458C20.8474 8.18597 20.6618 8.05991 20.457 7.97374C20.2514 7.88724 20.0307 7.84268 19.8077 7.84268Z" fill="#FCFDFF"/>
</g>
</g>
<defs>
<clipPath id="clip0_879_114198">
<rect width="16" height="16" fill="white" transform="translate(7.5 7.49567)"/>
</clipPath>
<clipPath id="clip1_879_114198">
<rect width="16" height="16" fill="white" transform="translate(7.5 7.49567)"/>
</clipPath>
</defs>
</svg>
