<svg width="31" height="30" viewBox="0 0 31 30" fill="none" xmlns="http://www.w3.org/2000/svg">
<rect x="0.5" width="30" height="30" rx="15" fill="#FFA502"/>
<g clip-path="url(#clip0_840_70916)">
<g clip-path="url(#clip1_840_70916)">
<path d="M19.8083 7.34702C19.5853 7.34702 19.3646 7.39157 19.159 7.47807C18.9547 7.56403 18.7696 7.68969 18.6142 7.84774L9.42028 16.9971C9.35202 17.065 9.3025 17.1494 9.27654 17.2422L7.87029 22.2645C7.81593 22.4586 7.87051 22.667 8.01307 22.8096C8.15562 22.9521 8.36398 23.0067 8.55812 22.9523L13.5804 21.5461C13.6732 21.5201 13.7576 21.4705 13.8255 21.4023L22.9747 12.2085L22.9763 12.207C23.1324 12.0516 23.2564 11.867 23.3411 11.6637C23.4262 11.4597 23.4699 11.2409 23.4699 11.0199C23.4699 10.7989 23.4262 10.58 23.3411 10.376C23.2564 10.1727 23.1324 9.98806 22.9763 9.83275L22.9747 9.83125L21.0035 7.84891C20.848 7.6903 20.6624 7.56424 20.4576 7.47807C20.2521 7.39157 20.0313 7.34702 19.8083 7.34702Z" fill="#FCFDFF"/>
</g>
</g>
<defs>
<clipPath id="clip0_840_70916">
<rect width="16" height="16" fill="white" transform="translate(7.5 7)"/>
</clipPath>
<clipPath id="clip1_840_70916">
<rect width="16" height="16" fill="white" transform="translate(7.5 7)"/>
</clipPath>
</defs>
</svg>
