<svg width="16" height="16" viewBox="0 0 16 16" fill="none" xmlns="http://www.w3.org/2000/svg">
<g id="user-add-plus--actions-add-close-geometric-human-person-plus-single-up-user">
<path id="Ellipse 337" d="M5.71434 6.85714C7.60789 6.85714 9.14291 5.32212 9.14291 3.42857C9.14291 1.53502 7.60789 0 5.71434 0C3.82079 0 2.28577 1.53502 2.28577 3.42857C2.28577 5.32212 3.82079 6.85714 5.71434 6.85714Z" fill="#002462"/>
<g id="Vector">
<path id="Vector_2" d="M10 9.93448C8.95294 8.74816 7.42099 7.99994 5.71429 7.99994C2.55838 7.99994 0 10.5583 0 13.7143C0 14.0298 0.255838 14.2857 0.571429 14.2857H8.32109C7.61842 13.8957 7.14286 13.1463 7.14286 12.2857C7.14286 11.0233 8.16621 9.99996 9.42857 9.99996H10V9.93448Z" fill="#002462"/>
</g>
<g id="Vector_2_2">
<path id="Vector_3" fill-rule="evenodd" clip-rule="evenodd" d="M12.2857 8.57141C12.7591 8.57141 13.1428 8.95517 13.1428 9.42855V11.4286H15.1428C15.6162 11.4286 16 11.8123 16 12.2857C16 12.7591 15.6162 13.1428 15.1428 13.1428H13.1428V15.1428C13.1428 15.6162 12.7591 16 12.2857 16C11.8123 16 11.4286 15.6162 11.4286 15.1428V13.1428H9.42855C8.95517 13.1428 8.57141 12.7591 8.57141 12.2857C8.57141 11.8123 8.95517 11.4286 9.42855 11.4286H11.4286V9.42855C11.4286 8.95517 11.8123 8.57141 12.2857 8.57141Z" fill="#FFA502"/>
</g>
</g>
</svg>
