<svg width="24" height="24" viewBox="0 0 24 24" fill="none" xmlns="http://www.w3.org/2000/svg">
<g id="script-2--language-programming-code">
<path id="Union" d="M18 3C18 2.20435 18.3161 1.44129 18.8787 0.878679C19.4414 0.31607 20.2044 0 21 0H7.28571C6.49006 0 5.727 0.31607 5.16439 0.878679C4.60178 1.44129 4.28571 2.20435 4.28571 3V18.8571C4.28571 20.2591 3.61257 21.5038 2.57184 22.2857H0.857143C0.383757 22.2857 0 22.6695 0 23.1429C0 23.6162 0.383757 24 0.857143 24H13.7143C14.8509 24 15.941 23.5485 16.7447 22.7448C17.5485 21.941 18 20.8509 18 19.7143V3Z" fill="#002462"/>
<path id="Vector" d="M21 0C21.7956 0 22.5586 0.31607 23.1213 0.878679C23.6839 1.44129 24 2.20435 24 3V6C24 6.22733 23.9097 6.44535 23.749 6.60609C23.5882 6.76683 23.3702 6.85714 23.1429 6.85714H18V3C18 2.20435 18.3161 1.44129 18.8787 0.878679C19.4414 0.31607 20.2044 0 21 0Z" fill="#FFA502"/>
<path id="Union_2" fill-rule="evenodd" clip-rule="evenodd" d="M8.87509 6C8.87509 5.40827 9.3548 4.92857 9.94652 4.92857H13.2678C13.8595 4.92857 14.3392 5.40827 14.3392 6C14.3392 6.59174 13.8595 7.07143 13.2678 7.07143H9.94652C9.3548 7.07143 8.87509 6.59174 8.87509 6ZM6.66089 11.1429C6.66089 10.5511 7.14058 10.0714 7.73232 10.0714H13.2678C13.8595 10.0714 14.3392 10.5511 14.3392 11.1429C14.3392 11.7346 13.8595 12.2143 13.2678 12.2143H7.73232C7.14058 12.2143 6.66089 11.7346 6.66089 11.1429ZM7.73232 15.2143C7.14058 15.2143 6.66089 15.694 6.66089 16.2857C6.66089 16.8775 7.14058 17.3571 7.73232 17.3571H13.2678C13.8595 17.3571 14.3392 16.8775 14.3392 16.2857C14.3392 15.694 13.8595 15.2143 13.2678 15.2143H7.73232Z" fill="#FFA502"/>
</g>
</svg>
