<svg width="16" height="16" viewBox="0 0 16 16" fill="none" xmlns="http://www.w3.org/2000/svg">
<g clip-path="url(#clip0_1820_10598)">
<path fill-rule="evenodd" clip-rule="evenodd" d="M11.3703 4.3322C10.8678 4.21312 10.3457 4.20138 9.83832 4.29777C9.34067 4.3923 8.86804 4.58875 8.45013 4.87467C8.3791 4.91219 8.29989 4.93187 8.21937 4.93187C8.13571 4.93187 8.05345 4.91063 7.98031 4.87019C7.52878 4.58619 7.02329 4.39873 6.49565 4.31967C5.96319 4.2399 5.41995 4.27227 4.90073 4.41473C4.38152 4.55719 3.89782 4.80658 3.48063 5.14692C3.0655 5.48558 2.72536 5.90684 2.48178 6.38395C1.8323 7.58372 1.60837 8.96799 1.84626 10.3111C2.04278 12.109 2.82149 13.7937 4.06408 15.1083C4.07121 15.1159 4.07855 15.1233 4.08609 15.1304C4.56718 15.5869 5.1947 15.8575 5.8568 15.8943C6.51764 15.931 7.17005 15.7323 7.6982 15.3336C7.84153 15.2282 8.01479 15.1714 8.19274 15.1714C8.36822 15.1714 8.53916 15.2266 8.68133 15.3293C9.1883 15.7345 9.82176 15.9486 10.4709 15.9339C11.1249 15.9192 11.7525 15.6733 12.2422 15.2397C12.2516 15.2313 12.2607 15.2227 12.2694 15.2139C13.2182 14.2562 13.8944 13.0629 14.2285 11.7568C14.2688 11.5991 14.24 11.4317 14.1492 11.2966C14.0584 11.1614 13.9143 11.0714 13.7532 11.0491C13.2515 10.9798 12.7927 10.7291 12.4633 10.3444C12.1341 9.95969 11.9572 9.46768 11.966 8.96137L11.9661 8.95238C11.9669 8.51046 12.1083 8.08026 12.3697 7.72404C12.6313 7.36783 12.9993 7.10407 13.4208 6.97097C13.5835 6.91958 13.7147 6.7982 13.7785 6.64002C13.8424 6.48183 13.8323 6.30338 13.7509 6.15345C13.5045 5.69954 13.1651 5.30272 12.7549 4.98889C12.3447 4.67506 11.8729 4.4513 11.3703 4.3322Z" fill="#002462"/>
<path fill-rule="evenodd" clip-rule="evenodd" d="M11.5964 0.316342C11.9311 0.651077 11.9311 1.19379 11.5964 1.52853L9.88206 3.24281C9.54732 3.57754 9.00461 3.57754 8.66988 3.24281C8.33514 2.90808 8.33514 2.36536 8.66988 2.03063L10.3842 0.316342C10.7189 -0.0183934 11.2616 -0.0183934 11.5964 0.316342Z" fill="#FFA502"/>
</g>
<defs>
<clipPath id="clip0_1820_10598">
<rect width="16" height="16" fill="white"/>
</clipPath>
</defs>
</svg>
