<svg width="18" height="18" viewBox="0 0 18 18" fill="none" xmlns="http://www.w3.org/2000/svg">
<g id="sun-cloud--cloud-meteorology-cloudy-partly-sunny-weather">
<path id="Ellipse 636" d="M14.1454 7.70914C16.2743 7.70914 18 5.98339 18 3.85457C18 1.72575 16.2743 0 14.1454 0C12.0166 0 10.2909 1.72575 10.2909 3.85457C10.2909 5.98339 12.0166 7.70914 14.1454 7.70914Z" fill="#FFA502"/>
<path id="Vector" d="M5.78571 6.42865C4.25125 6.42865 2.77962 7.03822 1.6946 8.12325C0.609565 9.20827 0 10.6799 0 12.2144C0 13.7488 0.609565 15.2204 1.6946 16.3054C2.77962 17.3906 4.25125 18.0001 5.78571 18.0001H13.5C14.3524 18.0001 15.17 17.6615 15.7729 17.0586C16.3756 16.4559 16.7143 15.6383 16.7143 14.7858C16.7143 13.9333 16.3756 13.1157 15.7729 12.5129C15.17 11.9102 14.3524 11.5715 13.5 11.5715C12.9743 11.5725 12.4571 11.7051 11.9957 11.9572C11.9504 11.982 11.8995 11.995 11.8479 11.995C11.7962 11.995 11.7453 11.982 11.7 11.9572C11.6522 11.9345 11.6108 11.9003 11.5794 11.8577C11.548 11.815 11.5276 11.7653 11.52 11.7129C11.4095 10.2703 10.7565 8.92312 9.6925 7.94262C8.62851 6.96213 7.23255 6.42117 5.78571 6.42865Z" fill="#002462"/>
</g>
</svg>
