<svg width="18" height="18" viewBox="0 0 18 18" fill="none" xmlns="http://www.w3.org/2000/svg">
<g id="wrapper">
<path id="Union" fill-rule="evenodd" clip-rule="evenodd" d="M18.0023 3.85567C18.0023 5.98449 16.2766 7.71024 14.1477 7.71024C12.0189 7.71024 10.2932 5.98449 10.2932 3.85567C10.2932 1.72685 12.0189 0.00109863 14.1477 0.00109863C16.2766 0.00109863 18.0023 1.72685 18.0023 3.85567ZM1.69692 8.12434C2.78194 7.03932 4.25357 6.42975 5.78803 6.42975C7.23487 6.42226 8.63083 6.96323 9.69482 7.94371C10.7588 8.92421 11.4118 10.2714 11.5223 11.714C11.5299 11.7664 11.5503 11.8161 11.5817 11.8588C11.6131 11.9014 11.6545 11.9356 11.7023 11.9583C11.7477 11.9831 11.7985 11.9961 11.8502 11.9961C11.9018 11.9961 11.9527 11.9831 11.998 11.9583C12.4594 11.7062 12.9766 11.5736 13.5023 11.5726C14.3547 11.5726 15.1723 11.9112 15.7752 12.514C16.3779 13.1168 16.7166 13.9344 16.7166 14.7869C16.7166 15.6394 16.3779 16.457 15.7752 17.0597C15.1723 17.6626 14.3547 18.0012 13.5023 18.0012H5.78803C4.25357 18.0012 2.78194 17.3917 1.69692 16.3065C0.611884 15.2215 0.00231934 13.7499 0.00231934 12.2155C0.00231934 10.681 0.611884 9.20937 1.69692 8.12434Z" fill="white"/>
</g>
</svg>
