<svg width="24" height="24" viewBox="0 0 24 24" fill="none" xmlns="http://www.w3.org/2000/svg">
<g id="graph-dot--product-data-bars-analysis-analytics-graph-business-chart-dot">
<path id="Vector 2182 (Stroke)" fill-rule="evenodd" clip-rule="evenodd" d="M9.56814 10.2927C10.0525 9.77343 10.866 9.74509 11.3853 10.2294L14.171 12.8276C14.6903 13.312 14.7186 14.1255 14.2343 14.6448C13.75 15.1641 12.9364 15.1924 12.4171 14.7081L9.63142 12.1099C9.11216 11.6255 9.08382 10.812 9.56814 10.2927Z" fill="#002462"/>
<path id="Vector 2183 (Stroke)" fill-rule="evenodd" clip-rule="evenodd" d="M19.4127 6.26511C20.0799 6.50804 20.4237 7.24587 20.1808 7.91311L18.1719 13.431C17.9289 14.0982 17.1911 14.4422 16.5239 14.1992C15.8567 13.9563 15.5127 13.2185 15.7557 12.5512L17.7645 7.03339C18.0075 6.36615 18.7453 6.02218 19.4127 6.26511Z" fill="#002462"/>
<path id="Union" fill-rule="evenodd" clip-rule="evenodd" d="M2.57143 1.28571C2.57143 0.575633 1.99579 0 1.28571 0C0.575633 0 0 0.575633 0 1.28571V15.9712C0 15.9711 0 15.9713 0 15.9712V22.7143C0 23.4243 0.575633 24 1.28571 24H22.7143C23.4243 24 24 23.4243 24 22.7143C24 22.0042 23.4243 21.4286 22.7143 21.4286H2.57143V16.4796L6.56851 12.2111C7.05386 11.6928 7.02715 10.8791 6.50883 10.3938C5.99052 9.90843 5.1769 9.93516 4.69154 10.4535L2.57143 12.7175V1.28571Z" fill="#002462"/>
<path id="Union_2" fill-rule="evenodd" clip-rule="evenodd" d="M4.42896 9.65201C4.42896 11.5432 5.96208 13.0764 7.85328 13.0764C9.74449 13.0764 11.2776 11.5432 11.2776 9.65201C11.2776 7.76081 9.74449 6.22768 7.85328 6.22768C5.96208 6.22768 4.42896 7.76081 4.42896 9.65201Z" fill="#FFA502"/>
<path id="Union_3" fill-rule="evenodd" clip-rule="evenodd" d="M16.4275 4.56278C16.4275 6.45482 17.9614 7.98863 19.8534 7.98864C21.7453 7.98864 23.2793 6.45484 23.2793 4.56278C23.2793 2.67074 21.7453 1.13693 19.8534 1.13693C17.9614 1.13693 16.4275 2.67074 16.4275 4.56278Z" fill="#FFA502"/>
<path id="Union_4" fill-rule="evenodd" clip-rule="evenodd" d="M12.1926 15.7408C12.1926 17.6343 13.7276 19.1693 15.6212 19.1693C17.5148 19.1693 19.0498 17.6343 19.0498 15.7408C19.0498 13.8472 17.5148 12.3122 15.6212 12.3122C13.7277 12.3122 12.1926 13.8472 12.1926 15.7408Z" fill="#FFA502"/>
</g>
</svg>
