<svg width="20" height="20" viewBox="0 0 20 20" fill="none" xmlns="http://www.w3.org/2000/svg">
<g clip-path="url(#clip0_1070_7284)">
<g clip-path="url(#clip1_1070_7284)">
<path fill-rule="evenodd" clip-rule="evenodd" d="M2.86764 13.5799C2.5819 13.5799 2.32365 13.7502 2.2111 14.0128L0.0714279 19.0054C-0.0231529 19.2261 -0.000529102 19.4796 0.131645 19.68C0.26382 19.8804 0.487858 20.001 0.72796 20.001H19.2718C19.5119 20.001 19.7359 19.8804 19.868 19.68C20.0003 19.4796 20.0229 19.2261 19.9283 19.0054L17.7886 14.0128C17.676 13.7502 17.4179 13.5799 17.132 13.5799H15.8159H4.18382H2.86764Z" fill="white"/>
<path fill-rule="evenodd" clip-rule="evenodd" d="M9.99963 -0.001091C6.25459 -0.001091 3.13379 3.11971 3.13379 6.86476C3.13379 8.08703 3.55387 9.29244 4.14109 10.3846C4.73059 11.481 5.51085 12.5047 6.286 13.3762C7.06267 14.2494 7.84745 14.9847 8.45886 15.5041C8.76426 15.7636 9.03159 15.9734 9.23767 16.1221C9.33946 16.1956 9.4348 16.2603 9.51712 16.3096C9.55719 16.3337 9.60599 16.3613 9.6579 16.3853C9.68375 16.3973 9.72092 16.4133 9.76527 16.4274C9.80016 16.4386 9.88736 16.4646 9.99963 16.4646C10.1129 16.4646 10.2008 16.438 10.2358 16.4269C10.2803 16.4124 10.3177 16.3963 10.3436 16.3841C10.3956 16.3599 10.4444 16.332 10.4845 16.3077C10.5667 16.258 10.6621 16.1927 10.7638 16.1189C10.9697 15.969 11.2369 15.7576 11.5422 15.4966C12.1533 14.974 12.9377 14.2349 13.714 13.3593C14.4887 12.4855 15.2686 11.4609 15.8579 10.3671C16.4446 9.27793 16.8654 8.07744 16.8654 6.86476C16.8654 3.11971 13.7447 -0.001091 9.99963 -0.001091Z" fill="#FFA502"/>
<path d="M9.99973 8.91527C11.1322 8.91527 12.0502 7.99723 12.0502 6.86476C12.0502 5.73228 11.1322 4.81423 9.99973 4.81423C8.86726 4.81423 7.94922 5.73228 7.94922 6.86476C7.94922 7.99723 8.86726 8.91527 9.99973 8.91527Z" fill="white"/>
</g>
</g>
<defs>
<clipPath id="clip0_1070_7284">
<rect width="20" height="20" rx="10" fill="white"/>
</clipPath>
<clipPath id="clip1_1070_7284">
<rect width="20" height="20" fill="white"/>
</clipPath>
</defs>
</svg>
