<svg width="16" height="16" viewBox="0 0 16 16" fill="none" xmlns="http://www.w3.org/2000/svg">
<g id="ai-navigation-spark--map-location-direction-travel-artificial-intelligence-ai">
<path id="Subtract" fill-rule="evenodd" clip-rule="evenodd" d="M8.0381 2.26455C6.95109 3.28381 7.30027 5.40622 9.08556 5.71681C9.64024 5.81331 10.0814 6.23579 10.2018 6.78578L10.2224 6.87966C10.4213 7.78839 11.0915 8.30841 11.8288 8.43794C11.6263 10.203 10.6715 11.9278 9.61825 13.2364C9.01843 13.9816 8.36705 14.6168 7.76265 15.0713C7.46066 15.2984 7.16128 15.4872 6.87803 15.6215C6.60305 15.7518 6.30301 15.8501 6.01104 15.8501C5.71906 15.8501 5.41902 15.7518 5.14403 15.6215C4.86078 15.4872 4.5614 15.2984 4.25941 15.0713C3.65502 14.6168 3.00364 13.9816 2.40381 13.2364C1.21629 11.7609 0.153809 9.75634 0.153809 7.76152C0.153809 4.52666 2.77618 1.9043 6.01104 1.9043C6.72361 1.9043 7.40645 2.03154 8.0381 2.26455Z" fill="#002462"/>
<path id="Ellipse 1507" d="M6.01108 9.71455C7.08914 9.71455 7.96308 8.84061 7.96308 7.76255C7.96308 6.68449 7.08914 5.81055 6.01108 5.81055C4.93302 5.81055 4.05908 6.68449 4.05908 7.76255C4.05908 8.84061 4.93302 9.71455 6.01108 9.71455Z" fill="#FFA502"/>
<path id="Union" fill-rule="evenodd" clip-rule="evenodd" d="M13.0706 0.830228C12.8581 -0.101219 11.5293 -0.0954102 11.325 0.837858L11.3172 0.873364L11.3021 0.942161C11.0804 1.93502 10.282 2.69692 9.279 2.8714C8.30674 3.04055 8.30674 4.43628 9.279 4.60542C10.2855 4.78052 11.086 5.54712 11.3044 6.54509L11.325 6.63896C11.5293 7.57223 12.8581 7.57805 13.0706 6.6466L13.0955 6.53719C13.3223 5.54279 14.1239 4.78179 15.1289 4.60698C16.1028 4.43752 16.1028 3.0393 15.1289 2.86986C14.1293 2.69597 13.3308 1.94207 13.0991 0.955452C13.0927 0.92785 13.0867 0.901466 13.0803 0.87273L13.0706 0.830228Z" fill="#FFA502"/>
</g>
</svg>
