<svg width="64" height="66" viewBox="0 0 64 66" fill="none" xmlns="http://www.w3.org/2000/svg">
<g id="lock">
<g id="Union">
<mask id="path-1-outside-1_396_8757" maskUnits="userSpaceOnUse" x="13.9423" y="0" width="36" height="36" fill="black">
<rect fill="white" x="13.9423" width="36" height="36"/>
<path fill-rule="evenodd" clip-rule="evenodd" d="M47.1218 17.5085C47.1218 13.3954 45.4793 9.45074 42.5557 6.54234C39.632 3.63393 35.6667 2 31.5321 2C27.3974 2 23.4321 3.63393 20.5085 6.54233C17.5848 9.45074 15.9423 13.3954 15.9423 17.5085V31.864C15.9423 32.9516 16.824 33.8332 17.9116 33.8332C18.9991 33.8332 19.8808 32.9516 19.8808 31.864V17.5087C19.8808 17.5086 19.8807 17.5085 19.8805 17.5085C19.8804 17.5085 19.8803 17.5084 19.8803 17.5083C19.8804 14.4342 21.1079 11.4861 23.293 9.31239C25.4782 7.13864 28.4418 5.91745 31.5321 5.91745C34.6223 5.91745 37.586 7.13865 39.7711 9.31239C41.9562 11.4861 43.1838 14.4342 43.1838 17.5083C43.1838 17.5084 43.1837 17.5085 43.1836 17.5085C43.1835 17.5085 43.1834 17.5086 43.1834 17.5087V31.864C43.1834 32.9516 44.065 33.8332 45.1526 33.8332C46.2402 33.8332 47.1218 32.9516 47.1218 31.864L47.1218 17.5085Z"/>
</mask>
<path fill-rule="evenodd" clip-rule="evenodd" d="M47.1218 17.5085C47.1218 13.3954 45.4793 9.45074 42.5557 6.54234C39.632 3.63393 35.6667 2 31.5321 2C27.3974 2 23.4321 3.63393 20.5085 6.54233C17.5848 9.45074 15.9423 13.3954 15.9423 17.5085V31.864C15.9423 32.9516 16.824 33.8332 17.9116 33.8332C18.9991 33.8332 19.8808 32.9516 19.8808 31.864V17.5087C19.8808 17.5086 19.8807 17.5085 19.8805 17.5085C19.8804 17.5085 19.8803 17.5084 19.8803 17.5083C19.8804 14.4342 21.1079 11.4861 23.293 9.31239C25.4782 7.13864 28.4418 5.91745 31.5321 5.91745C34.6223 5.91745 37.586 7.13865 39.7711 9.31239C41.9562 11.4861 43.1838 14.4342 43.1838 17.5083C43.1838 17.5084 43.1837 17.5085 43.1836 17.5085C43.1835 17.5085 43.1834 17.5086 43.1834 17.5087V31.864C43.1834 32.9516 44.065 33.8332 45.1526 33.8332C46.2402 33.8332 47.1218 32.9516 47.1218 31.864L47.1218 17.5085Z" fill="url(#paint0_linear_396_8757)"/>
<path d="M42.5557 6.54234L43.9662 5.12443L42.5557 6.54234ZM47.1218 17.5085H45.1218H45.1218H47.1218ZM20.5085 6.54233L21.919 7.96024H21.919L20.5085 6.54233ZM15.9423 17.5085H13.9423H15.9423ZM23.293 9.31239L24.7035 10.7303L23.293 9.31239ZM31.5321 5.91745V3.91745V5.91745ZM39.7711 9.31239L38.3606 10.7303L39.7711 9.31239ZM19.8803 17.5083L17.8803 17.5082L19.8803 17.5083ZM43.1838 17.5083L45.1838 17.5082L43.1838 17.5083ZM41.1452 7.96024C43.6926 10.4944 45.1218 13.9292 45.1218 17.5085H49.1218C49.1218 12.8616 47.2661 8.4071 43.9662 5.12443L41.1452 7.96024ZM31.5321 4C35.1397 4 38.5974 5.42574 41.1452 7.96024L43.9662 5.12443C40.6667 1.84212 36.1938 0 31.5321 0V4ZM21.919 7.96024C24.4667 5.42574 27.9245 4 31.5321 4V0C26.8703 0 22.3975 1.84211 19.0979 5.12443L21.919 7.96024ZM17.9423 17.5085C17.9423 13.9292 19.3715 10.4944 21.919 7.96024L19.0979 5.12443C15.7981 8.4071 13.9423 12.8616 13.9423 17.5085H17.9423ZM17.9423 31.864V17.5085H13.9423V31.864H17.9423ZM17.8808 17.5087V31.864H21.8808V17.5087H17.8808ZM21.8825 7.89448C19.3212 10.4424 17.8804 13.9004 17.8803 17.5082L21.8803 17.5083C21.8803 14.968 22.8947 12.5297 24.7035 10.7303L21.8825 7.89448ZM31.5321 3.91745C27.9148 3.91745 24.4435 5.34683 21.8825 7.89449L24.7035 10.7303C26.5128 8.93046 28.9689 7.91745 31.5321 7.91745V3.91745ZM41.1816 7.89449C38.6206 5.34683 35.1494 3.91745 31.5321 3.91745V7.91745C34.0952 7.91745 36.5513 8.93046 38.3606 10.7303L41.1816 7.89449ZM45.1838 17.5082C45.1838 13.9004 43.7429 10.4424 41.1816 7.89449L38.3606 10.7303C40.1695 12.5297 41.1838 14.9681 41.1838 17.5083L45.1838 17.5082ZM45.1834 31.864V17.5087H41.1834V31.864H45.1834ZM45.1218 17.5085L45.1218 31.864H49.1218L49.1218 17.5085H45.1218ZM45.1526 35.8332C47.3447 35.8332 49.1218 34.0562 49.1218 31.864H45.1218C45.1218 31.8645 45.1218 31.8629 45.1224 31.8599C45.123 31.857 45.1239 31.8541 45.1251 31.8514C45.1272 31.8463 45.1295 31.8436 45.1308 31.8422C45.1322 31.8409 45.1349 31.8386 45.14 31.8365C45.1427 31.8353 45.1456 31.8344 45.1485 31.8338C45.1515 31.8332 45.1531 31.8332 45.1526 31.8332V35.8332ZM41.1834 31.864C41.1834 34.0562 42.9604 35.8332 45.1526 35.8332V31.8332C45.1521 31.8332 45.1537 31.8332 45.1567 31.8338C45.1595 31.8344 45.1625 31.8353 45.1652 31.8365C45.1703 31.8386 45.173 31.8409 45.1743 31.8422C45.1757 31.8436 45.1779 31.8463 45.1801 31.8514C45.1813 31.8541 45.1822 31.857 45.1828 31.8599C45.1834 31.8629 45.1834 31.8645 45.1834 31.864H41.1834ZM43.2112 15.5087C42.0955 15.4933 41.1834 16.3936 41.1834 17.5087H45.1834C45.1834 18.6236 44.2715 19.5237 43.156 19.5083L43.2112 15.5087ZM19.8611 15.5086C20.9778 15.4978 21.8803 16.401 21.8803 17.5083L17.8803 17.5082C17.8803 18.6158 18.783 19.5192 19.8999 19.5084L19.8611 15.5086ZM41.1838 17.5083C41.1838 16.3964 42.0927 15.4933 43.2112 15.5087L43.156 19.5083C44.2748 19.5237 45.1839 18.6204 45.1838 17.5082L41.1838 17.5083ZM21.8808 17.5087C21.8808 16.3965 20.9734 15.4978 19.8611 15.5086L19.8999 19.5084C18.788 19.5192 17.8808 18.6208 17.8808 17.5087H21.8808ZM17.9116 35.8332C20.1037 35.8332 21.8808 34.0562 21.8808 31.864H17.8808C17.8808 31.8645 17.8808 31.8629 17.8814 31.8599C17.882 31.857 17.8829 31.8541 17.884 31.8514C17.8862 31.8463 17.8885 31.8436 17.8898 31.8422C17.8911 31.8409 17.8938 31.8386 17.899 31.8365C17.9017 31.8353 17.9046 31.8344 17.9075 31.8338C17.9105 31.8332 17.9121 31.8332 17.9116 31.8332V35.8332ZM13.9423 31.864C13.9423 34.0562 15.7194 35.8332 17.9116 35.8332V31.8332C17.9111 31.8332 17.9126 31.8332 17.9156 31.8338C17.9185 31.8344 17.9215 31.8353 17.9241 31.8365C17.9293 31.8386 17.932 31.8409 17.9333 31.8422C17.9346 31.8436 17.9369 31.8463 17.9391 31.8514C17.9402 31.8541 17.9411 31.857 17.9417 31.8599C17.9423 31.8629 17.9423 31.8645 17.9423 31.864H13.9423Z" fill="url(#paint1_linear_396_8757)" mask="url(#path-1-outside-1_396_8757)"/>
</g>
<g id="Rectangle 25" filter="url(#filter0_b_396_8757)">
<path d="M5 32.4762C5 26.5852 9.80065 21.8096 15.7225 21.8096H47.2775C53.1994 21.8096 58 26.5852 58 32.4762V55.3334C58 61.2244 53.1994 66 47.2775 66H15.7225C9.80064 66 5 61.2244 5 55.3334V32.4762Z" fill="url(#paint2_linear_396_8757)"/>
<path d="M5.25 32.4762C5.25 26.7245 9.93748 22.0596 15.7225 22.0596H47.2775C53.0625 22.0596 57.75 26.7245 57.75 32.4762V55.3334C57.75 61.0851 53.0625 65.75 47.2775 65.75H15.7225C9.93748 65.75 5.25 61.0851 5.25 55.3334V32.4762Z" stroke="url(#paint3_linear_396_8757)" stroke-width="0.5"/>
</g>
<g id="Rectangle 25 (Stroke)" filter="url(#filter1_b_396_8757)">
<path fill-rule="evenodd" clip-rule="evenodd" d="M47.2775 21.962H15.7225C9.88525 21.962 5.15318 26.6694 5.15318 32.4762V55.3334C5.15318 61.1403 9.88524 65.8477 15.7225 65.8477H47.2775C53.1147 65.8477 57.8468 61.1403 57.8468 55.3334V32.4762C57.8468 26.6694 53.1148 21.962 47.2775 21.962ZM15.7225 21.8096C9.80065 21.8096 5 26.5852 5 32.4762V55.3334C5 61.2244 9.80064 66 15.7225 66H47.2775C53.1994 66 58 61.2244 58 55.3334V32.4762C58 26.5852 53.1994 21.8096 47.2775 21.8096H15.7225Z" fill="url(#paint4_radial_396_8757)"/>
</g>
<ellipse id="Ellipse 16" cx="31.6532" cy="44.0573" rx="4.59538" ry="4.57143" fill="white"/>
</g>
<defs>
<filter id="filter0_b_396_8757" x="-25" y="-8.19043" width="113" height="104.19" filterUnits="userSpaceOnUse" color-interpolation-filters="sRGB">
<feFlood flood-opacity="0" result="BackgroundImageFix"/>
<feGaussianBlur in="BackgroundImageFix" stdDeviation="15"/>
<feComposite in2="SourceAlpha" operator="in" result="effect1_backgroundBlur_396_8757"/>
<feBlend mode="normal" in="SourceGraphic" in2="effect1_backgroundBlur_396_8757" result="shape"/>
</filter>
<filter id="filter1_b_396_8757" x="-25" y="-8.19043" width="113" height="104.19" filterUnits="userSpaceOnUse" color-interpolation-filters="sRGB">
<feFlood flood-opacity="0" result="BackgroundImageFix"/>
<feGaussianBlur in="BackgroundImageFix" stdDeviation="15"/>
<feComposite in2="SourceAlpha" operator="in" result="effect1_backgroundBlur_396_8757"/>
<feBlend mode="normal" in="SourceGraphic" in2="effect1_backgroundBlur_396_8757" result="shape"/>
</filter>
<linearGradient id="paint0_linear_396_8757" x1="31.5344" y1="35.115" x2="31.5344" y2="3.44796" gradientUnits="userSpaceOnUse">
<stop stop-color="#FFA502"/>
<stop offset="0.5" stop-color="#FFD892"/>
<stop offset="1" stop-color="#FFA502"/>
</linearGradient>
<linearGradient id="paint1_linear_396_8757" x1="31.5344" y1="35.115" x2="31.5344" y2="3.44796" gradientUnits="userSpaceOnUse">
<stop stop-color="#FFA502"/>
<stop offset="0.5" stop-color="#FFD892"/>
<stop offset="1" stop-color="#FFA502"/>
</linearGradient>
<linearGradient id="paint2_linear_396_8757" x1="7.99216" y1="63.5052" x2="46.5541" y2="17.2558" gradientUnits="userSpaceOnUse">
<stop stop-color="white" stop-opacity="0.2"/>
<stop offset="1" stop-color="white" stop-opacity="0.49"/>
</linearGradient>
<linearGradient id="paint3_linear_396_8757" x1="8.7412" y1="25.2851" x2="44.6467" y2="71.3298" gradientUnits="userSpaceOnUse">
<stop stop-color="white"/>
<stop offset="1" stop-color="white" stop-opacity="0"/>
</linearGradient>
<radialGradient id="paint4_radial_396_8757" cx="0" cy="0" r="1" gradientUnits="userSpaceOnUse" gradientTransform="translate(12.9207 64.5533) rotate(-45.8134) scale(37.5993 62.8167)">
<stop stop-color="white"/>
<stop offset="1" stop-color="white" stop-opacity="0"/>
</radialGradient>
</defs>
</svg>
