<svg width="17" height="16" viewBox="0 0 17 16" fill="none" xmlns="http://www.w3.org/2000/svg">
<g id="icon-wrapper">
<path id="Union" fill-rule="evenodd" clip-rule="evenodd" d="M4.82226 5.55599C4.82226 3.34397 6.61546 1.55078 8.82747 1.55078C11.0395 1.55078 12.8327 3.34397 12.8327 5.55599V6.22646C12.996 6.26731 13.1549 6.32375 13.3099 6.40269C13.8185 6.66185 14.232 7.07537 14.4912 7.584C14.6605 7.91625 14.7263 8.26711 14.7567 8.63918C14.7858 8.9956 14.7858 9.43161 14.7858 9.95272V9.98306V10.8945V10.9249C14.7858 11.446 14.7858 11.882 14.7567 12.2384C14.7263 12.6105 14.6605 12.9613 14.4912 13.2936C14.232 13.8022 13.8185 14.2157 13.3099 14.4749C12.9776 14.6442 12.6267 14.71 12.2547 14.7404C11.8983 14.7695 11.4622 14.7695 10.9411 14.7695H10.9108H6.74414H6.71385C6.19272 14.7695 5.75669 14.7695 5.40026 14.7404C5.02819 14.71 4.67732 14.6442 4.34507 14.4749C3.83645 14.2157 3.42292 13.8022 3.16376 13.2936C2.99448 12.9613 2.92864 12.6105 2.89824 12.2384C2.86912 11.882 2.86913 11.446 2.86914 10.9248L2.86914 10.8945V9.98306L2.86914 9.95274C2.86913 9.43162 2.86912 8.9956 2.89824 8.63918C2.92864 8.26711 2.99448 7.91625 3.16376 7.584C3.42292 7.07537 3.83645 6.66185 4.34507 6.40269C4.5 6.32375 4.65898 6.26731 4.82226 6.22646V5.55599ZM6.32226 6.10858C6.44702 6.10806 6.57751 6.10806 6.71381 6.10807L6.74414 6.10807H10.9108L10.9411 6.10807C11.0774 6.10806 11.2079 6.10806 11.3327 6.10858V5.55599C11.3327 4.1724 10.2111 3.05078 8.82747 3.05078C7.44388 3.05078 6.32226 4.1724 6.32226 5.55599V6.10858ZM5.5224 7.63219C5.2431 7.65501 5.1116 7.69561 5.02606 7.7392C4.79968 7.85455 4.61562 8.0386 4.50027 8.26498C4.45669 8.35053 4.41608 8.48202 4.39326 8.76133C4.36972 9.04939 4.36914 9.42376 4.36914 9.98306V10.8945C4.36914 11.4538 4.36972 11.8282 4.39326 12.1163C4.41608 12.3956 4.45669 12.5271 4.50027 12.6126C4.61562 12.839 4.79968 13.023 5.02606 13.1384C5.1116 13.182 5.2431 13.2226 5.5224 13.2454C5.81047 13.2689 6.18484 13.2695 6.74414 13.2695H10.9108C11.4701 13.2695 11.8445 13.2689 12.1325 13.2454C12.4118 13.2226 12.5433 13.182 12.6289 13.1384C12.8553 13.023 13.0393 12.839 13.1547 12.6126C13.1983 12.5271 13.2389 12.3956 13.2617 12.1163C13.2852 11.8282 13.2858 11.4538 13.2858 10.8945V9.98306C13.2858 9.42376 13.2852 9.04939 13.2617 8.76133C13.2389 8.48202 13.1983 8.35053 13.1547 8.26498C13.0393 8.0386 12.8553 7.85455 12.6289 7.7392C12.5433 7.69561 12.4118 7.65501 12.1325 7.63219C11.8445 7.60865 11.4701 7.60807 10.9108 7.60807H6.74414C6.18484 7.60807 5.81047 7.60865 5.5224 7.63219ZM8.82747 9.03775C9.24168 9.03775 9.57747 9.37354 9.57747 9.78775V11.0898C9.57747 11.504 9.24168 11.8398 8.82747 11.8398C8.41326 11.8398 8.07747 11.504 8.07747 11.0898V9.78775C8.07747 9.37354 8.41326 9.03775 8.82747 9.03775Z" fill="#7F8A9D"/>
</g>
</svg>
