<svg width="16" height="16" viewBox="0 0 16 16" fill="none" xmlns="http://www.w3.org/2000/svg">
<g id="logout-1--arrow-exit-frame-leave-logout-rectangle-right">
<path id="Subtract" fill-rule="evenodd" clip-rule="evenodd" d="M1.71429 0C0.767512 0 0 0.767512 0 1.71429V14.2857C0 15.2325 0.767512 16 1.71429 16H9.71429C10.6611 16 11.4286 15.2325 11.4286 14.2857V12.0702C10.9684 11.7017 10.6639 11.1651 10.5893 10.5714H6.57143C5.15127 10.5714 4 9.42014 4 7.99998C4 6.57981 5.15127 5.42855 6.57143 5.42855H10.5893C10.6639 4.83489 10.9684 4.29831 11.4286 3.92986V1.71429C11.4286 0.767512 10.6611 0 9.71429 0H1.71429Z" fill="#002462"/>
<path id="Union" fill-rule="evenodd" clip-rule="evenodd" d="M12 5.71431C12 5.36764 12.2088 5.05509 12.5292 4.92242C12.8494 4.78975 13.2181 4.86308 13.4632 5.10822L15.7489 7.39394C16.0837 7.72867 16.0837 8.27139 15.7489 8.60612L13.4632 10.8918C13.2181 11.137 12.8494 11.2103 12.5292 11.0776C12.2088 10.945 12 10.6324 12 10.2857V9.14288H6.57145C5.94027 9.14288 5.42859 8.63122 5.42859 8.00003C5.42859 7.36885 5.94027 6.85717 6.57145 6.85717H12V5.71431Z" fill="#FFA502"/>
</g>
</svg>
