<svg width="16" height="16" viewBox="0 0 16 16" fill="none" xmlns="http://www.w3.org/2000/svg">
<g clip-path="url(#clip0_1820_10578)">
<g clip-path="url(#clip1_1820_10578)">
<path fill-rule="evenodd" clip-rule="evenodd" d="M7.42271 2.88458C6.90535 4.0087 7.41351 5.56925 8.94713 5.83606C9.52035 5.93578 9.97627 6.3724 10.1007 6.94078L10.1219 7.0378C10.2895 7.80309 10.7804 8.30161 11.3688 8.53238V10.0801L12.1407 11.0372C12.2704 11.2 12.3478 11.3983 12.3624 11.6059C12.3772 11.8136 12.3286 12.0208 12.2231 12.2002L11.8113 12.9207C11.7092 13.0973 11.5567 13.2395 11.3734 13.3294C11.1902 13.4192 10.9844 13.4525 10.7822 13.425L9.56769 13.2398L8.06504 14.1042L7.62248 15.2467C7.54785 15.4401 7.41653 15.6065 7.24575 15.724C7.07495 15.8416 6.87265 15.9048 6.66532 15.9054H5.80079C5.59346 15.9048 5.39115 15.8416 5.22036 15.724C5.04956 15.6065 4.91826 15.4401 4.84362 15.2467L4.40106 14.1042L2.89841 13.2398L1.68395 13.425C1.48172 13.4525 1.27591 13.4192 1.09265 13.3294C0.90939 13.2395 0.756964 13.0973 0.654739 12.9207L0.243056 12.2002C0.137564 12.0208 0.0889601 11.8136 0.10366 11.6059C0.11836 11.3983 0.195672 11.2 0.325393 11.0372L1.07671 10.0801V8.351L0.304809 7.39383C0.175088 7.23104 0.0977754 7.03274 0.0830756 6.82511C0.0683758 6.61748 0.116979 6.41026 0.222472 6.23082L0.634155 5.51038C0.73638 5.33375 0.888806 5.1915 1.07206 5.1017C1.25532 5.01191 1.46114 4.97862 1.66337 5.00607L2.87783 5.19133L4.40106 4.32679L4.84362 3.18437C4.91826 2.99094 5.04956 2.82456 5.22036 2.70703C5.39115 2.5895 5.59346 2.52629 5.80079 2.52567H6.64473C6.85205 2.52629 7.05436 2.5895 7.22515 2.70703C7.29881 2.75771 7.36512 2.81747 7.42271 2.88458ZM8.37307 9.21553C8.37307 10.4031 7.41035 11.3658 6.22276 11.3658C5.03519 11.3658 4.07245 10.4031 4.07245 9.21553C4.07245 8.02794 5.03519 7.06521 6.22276 7.06521C7.41035 7.06521 8.37307 8.02794 8.37307 9.21553Z" fill="#002462"/>
<path fill-rule="evenodd" clip-rule="evenodd" d="M13.0469 0.789657C12.8319 -0.153036 11.487 -0.147156 11.2802 0.79738L11.2722 0.833992L11.2566 0.905249C11.0257 1.93886 10.1945 2.73202 9.15041 2.91367C8.16674 3.0848 8.16675 4.49689 9.15041 4.66802C10.1982 4.85031 11.0315 5.64838 11.259 6.68729L11.2802 6.78431C11.487 7.72884 12.8319 7.73473 13.0469 6.79203L13.0727 6.67896C13.3088 5.64381 14.1433 4.8516 15.1894 4.66962C16.1747 4.49818 16.1747 3.08351 15.1894 2.91207C14.1488 2.73105 13.3176 1.94626 13.0765 0.919188C13.0698 0.8906 13.0635 0.863231 13.0568 0.833506L13.0469 0.789657Z" fill="#FFA502"/>
</g>
</g>
<defs>
<clipPath id="clip0_1820_10578">
<rect width="16" height="16" fill="white"/>
</clipPath>
<clipPath id="clip1_1820_10578">
<rect width="16" height="16" fill="white"/>
</clipPath>
</defs>
</svg>
