<svg width="16" height="16" viewBox="0 0 16 16" fill="none" xmlns="http://www.w3.org/2000/svg">
<g clip-path="url(#clip0_157_3289)">
<path fill-rule="evenodd" clip-rule="evenodd" d="M2.29416 10.864C2.06557 10.864 1.85897 11.0002 1.76893 11.2103L0.0571912 15.2044C-0.0184735 15.381 -0.000374453 15.5837 0.105365 15.7441C0.211105 15.9044 0.390335 16.0009 0.582416 16.0009H15.4174C15.6096 16.0009 15.7888 15.9044 15.8945 15.7441C16.0003 15.5837 16.0184 15.381 15.9427 15.2044L14.2309 11.2103C14.1409 11.0002 13.9344 10.864 13.7057 10.864H12.6528H3.34711H2.29416Z" fill="#FFA502"/>
<path fill-rule="evenodd" clip-rule="evenodd" d="M7.99988 -0.000854492C5.00384 -0.000854492 2.5072 2.49579 2.5072 5.49182C2.5072 6.46964 2.84327 7.43397 3.31304 8.30768C3.78464 9.18479 4.40885 10.0038 5.02897 10.701C5.65031 11.3996 6.27813 11.9878 6.76726 12.4033C7.01158 12.6109 7.22544 12.7788 7.39031 12.8977C7.47174 12.9565 7.54801 13.0082 7.61386 13.0477C7.64592 13.067 7.68496 13.089 7.72649 13.1082C7.74717 13.1178 7.7769 13.1306 7.81239 13.142C7.8403 13.1509 7.91006 13.1717 7.99988 13.1717C8.09047 13.1717 8.16078 13.1504 8.18878 13.1415C8.22445 13.13 8.2543 13.117 8.27502 13.1073C8.31662 13.0879 8.3557 13.0656 8.38774 13.0462C8.45357 13.0064 8.52982 12.9542 8.61119 12.8951C8.77597 12.7752 8.98972 12.6061 9.23391 12.3973C9.72281 11.9792 10.3503 11.388 10.9714 10.6875C11.5911 9.98843 12.215 9.16874 12.6865 8.29367C13.1558 7.42236 13.4925 6.46197 13.4925 5.49182C13.4925 2.49579 10.9959 -0.000854492 7.99988 -0.000854492Z" fill="white"/>
<path d="M7.99991 7.13227C8.90589 7.13227 9.64032 6.39784 9.64032 5.49186C9.64032 4.58589 8.90589 3.85144 7.99991 3.85144C7.09393 3.85144 6.3595 4.58589 6.3595 5.49186C6.3595 6.39784 7.09393 7.13227 7.99991 7.13227Z" fill="#FFA502"/>
</g>
<defs>
<clipPath id="clip0_157_3289">
<rect width="16" height="16" fill="white"/>
</clipPath>
</defs>
</svg>
