<svg width="16" height="15" viewBox="0 0 16 15" fill="none" xmlns="http://www.w3.org/2000/svg">
<g id="user-multiple-group--close-geometric-human-multiple-person-up-user">
<g id="Union">
<path id="Vector" d="M5.71373 7.57101C7.60727 7.57101 9.1423 6.03598 9.1423 4.14244C9.1423 2.2489 7.60727 0.713867 5.71373 0.713867C3.82018 0.713867 2.28516 2.2489 2.28516 4.14244C2.28516 6.03598 3.82018 7.57101 5.71373 7.57101Z" fill="#002462"/>
<path id="Vector_2" d="M0 14.4282C0 11.2723 2.55838 8.71387 5.71429 8.71387C8.87019 8.71387 11.4286 11.2723 11.4286 14.4282C11.4286 14.7437 11.1727 14.9996 10.8571 14.9996H0.571429C0.255838 14.9996 0 14.7437 0 14.4282Z" fill="#002462"/>
</g>
<path id="Subtract" fill-rule="evenodd" clip-rule="evenodd" d="M12.7752 14.9995H15.4295C15.745 14.9995 16.0009 14.7437 16.0009 14.4281C16.0009 11.2722 13.4425 8.71383 10.2866 8.71383C10.194 8.71383 10.1019 8.71604 10.0103 8.72039C11.7399 10.024 12.8581 12.0954 12.8581 14.4281C12.8581 14.6266 12.8292 14.8185 12.7752 14.9995ZM9.29492 7.42539C9.60886 7.5201 9.9418 7.57101 10.2866 7.57101C12.1802 7.57101 13.7152 6.03598 13.7152 4.14244C13.7152 2.2489 12.1802 0.713867 10.2866 0.713867C9.9418 0.713867 9.60886 0.76477 9.29492 0.859479C10.0882 1.72398 10.5724 2.87667 10.5724 4.14244C10.5724 5.40821 10.0882 6.5609 9.29492 7.42539Z" fill="#FFA502"/>
</g>
</svg>
