<svg width="24" height="24" viewBox="0 0 24 24" fill="none" xmlns="http://www.w3.org/2000/svg">
<path fill-rule="evenodd" clip-rule="evenodd" d="M1.71429 1.71387C0.767511 1.71387 0 2.48139 0 3.42815C0 4.37492 0.767511 5.14244 1.71429 5.14244H18.4286C19.6121 5.14244 20.5714 6.10182 20.5714 7.2853C20.5714 8.46877 19.6121 9.42815 18.4286 9.42815H6C2.68629 9.42815 0 12.1144 0 15.4282C0 18.7419 2.68629 21.4282 6 21.4282H18.8571V23.1416C18.8571 23.4882 19.0659 23.8009 19.3863 23.9336C19.7066 24.0661 20.0753 23.9929 20.3205 23.7478L23.749 20.3192C24.0837 19.9844 24.0837 19.4416 23.749 19.107L20.3205 15.6784C20.0753 15.4332 19.7066 15.3599 19.3863 15.4926C19.0659 15.6252 18.8571 15.9378 18.8571 16.2845V17.9996H6C4.57983 17.9996 3.42857 16.8483 3.42857 15.4282C3.42857 14.008 4.57983 12.8567 6 12.8567H18.4286C21.5055 12.8567 24 10.3623 24 7.2853C24 4.20827 21.5055 1.71387 18.4286 1.71387H1.71429Z" fill="#002462"/>
<path fill-rule="evenodd" clip-rule="evenodd" d="M11.1433 3.42857C11.1433 5.32212 9.60825 6.85714 7.7147 6.85714C5.82116 6.85714 4.28613 5.32212 4.28613 3.42857C4.28613 1.53502 5.82116 0 7.7147 0C9.60825 0 11.1433 1.53502 11.1433 3.42857ZM12.8576 19.7151C12.8576 21.6087 11.3225 23.1437 9.42899 23.1437C7.53544 23.1437 6.00042 21.6087 6.00042 19.7151C6.00042 17.8215 7.53544 16.2866 9.42899 16.2866C11.3225 16.2866 12.8576 17.8215 12.8576 19.7151ZM14.5714 14.5723C16.465 14.5723 18 13.0372 18 11.1437C18 9.25015 16.465 7.71513 14.5714 7.71513C12.6779 7.71513 11.1429 9.25015 11.1429 11.1437C11.1429 13.0372 12.6779 14.5723 14.5714 14.5723Z" fill="#FFA502"/>
</svg>
