<svg width="22" height="22" viewBox="0 0 22 22" fill="none" xmlns="http://www.w3.org/2000/svg">
<g id="copy-paste--clipboard-copy-cut-paste">
<g id="Vector">
<path id="Vector_2" fill-rule="evenodd" clip-rule="evenodd" d="M2.23798 0.423404C2.46191 0.155096 2.79336 0 3.14283 0H11C11.3495 0 11.6809 0.155096 11.9048 0.423404C12.1288 0.691715 12.2221 1.04556 12.1595 1.3894L12.1221 1.59525C13.2646 1.75851 14.1429 2.74096 14.1429 3.92857V5.10714H11.3929C8.78924 5.10714 6.67857 7.21781 6.67857 9.82143V17.2857H2.35714C1.05533 17.2857 0 16.2303 0 14.9286V3.92857C0 2.74098 0.878256 1.75852 2.0207 1.59525L1.98327 1.3894C1.92076 1.04556 2.01405 0.691715 2.23798 0.423404ZM4.55501 2.35714L4.73621 3.35368C4.8381 3.91408 5.32617 4.32143 5.89576 4.32143H8.24705C8.81664 4.32143 9.30471 3.91408 9.4066 3.35368L9.5878 2.35714H4.55501Z" fill="#FFA502"/>
</g>
<path id="Vector_2_2" fill-rule="evenodd" clip-rule="evenodd" d="M11.3931 7.07153C9.87428 7.07153 8.64307 8.30275 8.64307 9.82153V19.2501C8.64307 20.7689 9.87428 22.0001 11.3931 22.0001H19.2502C20.769 22.0001 22.0002 20.7689 22.0002 19.2501V9.82153C22.0002 8.30275 20.769 7.07153 19.2502 7.07153H11.3931Z" fill="#002462"/>
<path id="Vector_3" d="M13.3571 15.5178C12.8147 15.5178 12.375 15.9575 12.375 16.5C12.375 17.0424 12.8147 17.4821 13.3571 17.4821H17.2857C17.8282 17.4821 18.2679 17.0424 18.2679 16.5C18.2679 15.9575 17.8282 15.5178 17.2857 15.5178H13.3571Z" fill="#FFA502"/>
<path id="Vector_4" d="M12.375 12.5715C12.375 12.0291 12.8147 11.5894 13.3571 11.5894H17.2857C17.8282 11.5894 18.2679 12.0291 18.2679 12.5715C18.2679 13.1139 17.8282 13.5536 17.2857 13.5536H13.3571C12.8147 13.5536 12.375 13.1139 12.375 12.5715Z" fill="#FFA502"/>
</g>
</svg>
