<svg width="16" height="16" viewBox="0 0 16 16" fill="none" xmlns="http://www.w3.org/2000/svg">
<g clip-path="url(#clip0_2785_205675)">
<path d="M15.7599 6.29591C15.7599 9.57565 13.1012 12.2344 9.82143 12.2344C6.54169 12.2344 3.88293 9.57565 3.88293 6.29591C3.88293 3.01617 6.54169 0.357422 9.82143 0.357422C13.1012 0.357422 15.7599 3.01617 15.7599 6.29591Z" fill="#002462"/>
<path fill-rule="evenodd" clip-rule="evenodd" d="M10.9192 13.5814C10.561 13.635 10.1945 13.6626 9.82142 13.6626C5.75271 13.6626 2.45436 10.3643 2.45436 6.29559C2.45436 5.93522 2.48023 5.5809 2.53023 5.23438C1.24534 6.32368 0.42981 7.94964 0.42981 9.76608C0.42981 13.0458 3.08856 15.7046 6.3683 15.7046C8.19543 15.7046 9.82983 14.8794 10.9192 13.5814Z" fill="#FFA502"/>
<path fill-rule="evenodd" clip-rule="evenodd" d="M9.82121 1.81055C10.2946 1.81055 10.6784 2.19431 10.6784 2.66769V3.02994C11.0864 3.12702 11.4466 3.3477 11.7162 3.64887C11.8897 3.84273 12.0268 4.07105 12.116 4.32307C12.2737 4.76939 12.0398 5.25911 11.5935 5.41686C11.1471 5.57462 10.6574 5.34067 10.4996 4.89435C10.4865 4.85706 10.4658 4.82231 10.4388 4.79215C10.3813 4.72787 10.3004 4.68944 10.2094 4.68944H9.8269L9.82121 4.68946L9.81551 4.68944H9.30799C9.20722 4.68944 9.12554 4.77112 9.12554 4.87187C9.12554 4.95761 9.18524 5.03178 9.26899 5.0501L10.6415 5.35033C11.5699 5.55343 12.2312 6.37593 12.2312 7.32574C12.2312 8.2806 11.569 9.08166 10.6784 9.29325V9.65547C10.6784 10.1289 10.2946 10.5126 9.82121 10.5126C9.34781 10.5126 8.96407 10.1289 8.96407 9.65547V9.29328C8.29323 9.13396 7.75289 8.64047 7.52652 8.00001C7.36876 7.55368 7.60271 7.06398 8.04903 6.90623C8.49536 6.74847 8.98506 6.9824 9.14282 7.42873C9.18544 7.54931 9.30049 7.63364 9.43303 7.63364H10.2094C10.3788 7.63364 10.5169 7.49596 10.5169 7.32574C10.5169 7.18093 10.416 7.05583 10.2752 7.02502L8.90266 6.72479C8.03191 6.53431 7.41125 5.76322 7.41125 4.87187C7.41125 3.94178 8.08072 3.16804 8.96407 3.00625V2.66769C8.96407 2.19431 9.34781 1.81055 9.82121 1.81055Z" fill="#FFA502"/>
</g>
<defs>
<clipPath id="clip0_2785_205675">
<rect width="16" height="16" fill="white"/>
</clipPath>
</defs>
</svg>
