<svg width="30" height="32" viewBox="0 0 30 32" fill="none" xmlns="http://www.w3.org/2000/svg">
<path d="M15 32C23.6167 32 29.7714 28.9472 29.7714 22.1524C29.7714 14.7666 26.0786 11.0243 18.6928 7.33142L21.8875 2.33938C22.0128 2.09852 22.075 1.82971 22.0679 1.55824C22.0606 1.28678 21.9845 1.0216 21.8467 0.787664C21.7088 0.553728 21.5136 0.358734 21.2795 0.221034C21.0455 0.083336 20.7803 0.00746494 20.5088 0.00056372H10.0703C9.78073 -0.00494015 9.49508 0.0682443 9.24384 0.212314C8.99259 0.356384 8.78516 0.565939 8.64366 0.818633C8.50215 1.07133 8.43186 1.35769 8.44032 1.64718C8.44875 1.93668 8.53561 2.21846 8.69161 2.46246L11.3071 7.33142C3.92137 11.0735 0.228516 14.8159 0.228516 22.2016C0.228516 28.9472 6.38329 32 15 32Z" fill="#002462"/>
<path fill-rule="evenodd" clip-rule="evenodd" d="M15 9.74274C15.789 9.74274 16.4285 10.3823 16.4285 11.1713V12.6261C17.5056 12.7454 18.463 13.2645 19.1465 14.0281C19.5146 14.4393 19.8052 14.9233 19.9939 15.4571C20.2568 16.201 19.8669 17.0172 19.123 17.2801C18.3792 17.543 17.563 17.1532 17.3 16.4093C17.2379 16.2333 17.1414 16.0719 17.0176 15.9336C16.7539 15.639 16.3754 15.457 15.9524 15.457H13.7409C13.1213 15.457 12.6191 15.9593 12.6191 16.5788C12.6191 17.106 12.9862 17.562 13.5012 17.6747L16.8682 18.4112C18.8362 18.8417 20.2381 20.5853 20.2381 22.5988C20.2381 24.8041 18.5719 26.6224 16.4285 26.8594V28.3141C16.4285 29.1031 15.789 29.7426 15 29.7426C14.211 29.7426 13.5714 29.1031 13.5714 28.3141V26.8594C11.9135 26.6761 10.5432 25.5477 10.0062 24.0283C9.74329 23.2843 10.1332 22.4682 10.877 22.2053C11.6209 21.9424 12.4371 22.3322 12.7 23.0761C12.8968 23.6329 13.4279 24.0283 14.0477 24.0283H15.9524C16.7407 24.0283 17.381 23.3883 17.381 22.5988C17.381 21.9269 16.913 21.3457 16.2577 21.2024L12.8906 20.4658C11.064 20.0663 9.76196 18.4487 9.76196 16.5788C9.76196 14.4381 11.4525 12.6922 13.5714 12.6034V11.1713C13.5714 10.3823 14.211 9.74274 15 9.74274Z" fill="#FFA502"/>
</svg>
