<svg width="16" height="16" viewBox="0 0 16 16" fill="none" xmlns="http://www.w3.org/2000/svg">
<g id="one-vesus-one--entertainment-gaming-one-vesus-one">
<g id="Vector 778">
<path id="Vector" d="M12.4024 13.8223L12.5195 14.1736C12.7226 14.7833 13.2931 15.1946 13.9357 15.1946C14.8254 15.1946 15.5175 14.421 15.4193 13.5366L15.1887 11.4609C15.0343 10.071 13.8599 9.01953 12.4618 9.01953H9.13281C7.73475 9.01953 6.56027 10.071 6.40588 11.4609L6.17532 13.5366C6.07707 14.421 6.76924 15.1946 7.65895 15.1946C8.30147 15.1946 8.87191 14.7833 9.07509 14.1736L9.19215 13.8223C9.32868 13.4126 9.71203 13.1362 10.1438 13.1362H11.4507C11.8825 13.1362 12.2659 13.4126 12.4024 13.8223Z" fill="#FFA502"/>
</g>
<path id="Union" fill-rule="evenodd" clip-rule="evenodd" d="M9.14286 3.42857C9.14286 5.32211 7.60783 6.85714 5.71429 6.85714C3.82074 6.85714 2.28571 5.32211 2.28571 3.42857C2.28571 1.53503 3.82074 0 5.71429 0C7.60783 0 9.14286 1.53503 9.14286 3.42857ZM4.98607 11.3032C5.1369 9.94537 5.92817 8.79974 7.03871 8.15426C6.61365 8.05339 6.17021 8 5.71429 8C2.55838 8 0 10.5584 0 13.7143C0 14.0298 0.255838 14.2857 0.571429 14.2857H4.7955C4.73646 13.9955 4.72087 13.6906 4.75551 13.3789L4.98607 11.3032Z" fill="#002462"/>
</g>
</svg>
