<svg width="16" height="16" viewBox="0 0 16 16" fill="none" xmlns="http://www.w3.org/2000/svg">
<g id="scanner-3--payment-electronic-cash-dollar-codes-tags-upc-barcode-qr">
<path id="Union" fill-rule="evenodd" clip-rule="evenodd" d="M1.52873 0.107422C1.15786 0.107422 0.80218 0.254748 0.539939 0.51699C0.277697 0.779231 0.130371 1.13491 0.130371 1.50578V5.83544C0.130371 6.30883 0.514127 6.69259 0.987514 6.69259C1.4609 6.69259 1.84466 6.30883 1.84466 5.83544V1.82171H5.8584C6.33178 1.82171 6.71554 1.43795 6.71554 0.964565C6.71554 0.491177 6.33178 0.107422 5.8584 0.107422H1.52873ZM10.1883 0.107422C9.71492 0.107422 9.33117 0.491177 9.33117 0.964565C9.33117 1.43795 9.71492 1.82171 10.1883 1.82171H14.2021V5.83544C14.2021 6.30883 14.5858 6.69259 15.0592 6.69259C15.5326 6.69259 15.9164 6.30883 15.9164 5.83544V1.50578C15.9164 1.13491 15.769 0.779232 15.5068 0.51699C15.2445 0.254748 14.8888 0.107422 14.518 0.107422H10.1883ZM15.0592 9.30797C15.5326 9.30797 15.9164 9.69172 15.9164 10.1651V14.4948C15.9164 14.8657 15.769 15.2213 15.5068 15.4836C15.2445 15.7458 14.8888 15.8931 14.518 15.8931H10.1883C9.71492 15.8931 9.33117 15.5094 9.33117 15.0359C9.33117 14.5626 9.71492 14.1788 10.1883 14.1788H14.2021V10.1651C14.2021 9.69172 14.5858 9.30797 15.0592 9.30797ZM1.84466 10.1651C1.84466 9.69172 1.4609 9.30797 0.987514 9.30797C0.514127 9.30797 0.130371 9.69172 0.130371 10.1651V14.4948C0.130371 14.8657 0.277696 15.2213 0.539939 15.4836C0.802181 15.7458 1.15786 15.8931 1.52873 15.8931H5.8584C6.33178 15.8931 6.71554 15.5094 6.71554 15.0359C6.71554 14.5626 6.33178 14.1788 5.8584 14.1788H1.84466V10.1651Z" fill="#002462"/>
<path id="Union_2" fill-rule="evenodd" clip-rule="evenodd" d="M8.00014 2.76367C8.47353 2.76367 8.85729 3.14743 8.85729 3.62081V4.22392C9.37985 4.31177 9.84253 4.57705 10.1799 4.95393C10.3761 5.17319 10.5311 5.43132 10.6318 5.71613C10.7895 6.16246 10.5556 6.65216 10.1093 6.80991C9.66294 6.96767 9.17324 6.73373 9.01549 6.28741C8.99073 6.21734 8.9522 6.15277 8.90249 6.09721C8.79662 5.97895 8.64552 5.90653 8.47636 5.90653H7.37061C7.13973 5.90653 6.95257 6.09369 6.95257 6.32457C6.95257 6.52102 7.08936 6.69097 7.28128 6.73295L8.96481 7.10123C10.0144 7.33084 10.7621 8.26072 10.7621 9.33455C10.7621 10.4668 9.9386 11.4077 8.85729 11.5891V12.1922C8.85729 12.6656 8.47353 13.0494 8.00014 13.0494C7.52675 13.0494 7.143 12.6656 7.143 12.1922V11.5892C6.31614 11.4505 5.6411 10.868 5.36857 10.0969C5.21081 9.65058 5.44475 9.16087 5.89107 9.00312C6.3374 8.84536 6.8271 9.07929 6.98486 9.52563C7.06371 9.74872 7.27653 9.90649 7.52398 9.90649H8.47636C8.79154 9.90649 9.04778 9.65055 9.04778 9.33455C9.04778 9.06572 8.86051 8.83324 8.59848 8.77591L6.91493 8.40764C5.93602 8.1935 5.23828 7.32663 5.23828 6.32457C5.23828 5.22381 6.07236 4.31785 7.143 4.20425V3.62081C7.143 3.14743 7.52675 2.76367 8.00014 2.76367Z" fill="#FFA502"/>
</g>
</svg>
