<svg width="46" height="46" viewBox="0 0 46 46" fill="none" xmlns="http://www.w3.org/2000/svg">
<path d="M0 23C0 10.2975 10.2975 0 23 0C35.7025 0 46 10.2975 46 23C46 35.7025 35.7025 46 23 46C10.2975 46 0 35.7025 0 23Z" fill="#8098F9"/>
<g clip-path="url(#clip0_3627_93927)">
<path fill-rule="evenodd" clip-rule="evenodd" d="M12.1924 23.4489V15.1429C12.1924 13.4071 15.3584 12 19.2638 12C23.1693 12 26.3352 13.4071 26.3352 15.1429V17.4537C24.3933 17.5176 22.5693 17.8942 21.1303 18.5338C20.3405 18.8849 19.5797 19.3538 18.9897 19.9736C18.3902 20.6037 17.8926 21.4781 17.8926 22.5511V26.533C14.6288 26.2491 12.1924 24.9709 12.1924 23.4489Z" fill="#FCFDFF"/>
<path fill-rule="evenodd" clip-rule="evenodd" d="M19.8569 22.5511V30.8571C19.8569 32.5856 22.9998 33.9999 26.9284 33.9999C30.8569 33.9999 33.9998 32.5856 33.9998 30.8571V22.5511C33.9998 20.8153 30.8338 19.4082 26.9284 19.4082C23.0229 19.4082 19.8569 20.8153 19.8569 22.5511Z" fill="#FCFDFF"/>
<path fill-rule="evenodd" clip-rule="evenodd" d="M33.9998 25.418C33.9603 25.569 33.8632 25.7521 33.6608 25.9658C33.37 26.2726 32.9026 26.5942 32.2489 26.8858C30.9438 27.4681 29.0671 27.855 26.9282 27.855C24.7893 27.855 22.9126 27.4681 21.6076 26.8858C20.9538 26.5942 20.4864 26.2726 20.1956 25.9658C19.9936 25.7527 19.8965 25.5698 19.8569 25.4191V28.1815C20.1528 28.3641 20.4718 28.5301 20.8072 28.6797C22.4187 29.3986 24.5802 29.8193 26.9282 29.8193C29.2762 29.8193 31.4377 29.3986 33.0492 28.6797C33.3847 28.5299 33.7039 28.364 33.9998 28.1814V25.418Z" fill="#8098F9"/>
<path fill-rule="evenodd" clip-rule="evenodd" d="M18.6059 20.4344C18.2235 20.9626 17.939 21.611 17.8978 22.3628C16.0837 22.2333 14.436 21.8484 13.1427 21.2713C12.8073 21.1217 12.4883 20.9558 12.1924 20.7733V18.0107C12.232 18.1615 12.3291 18.3443 12.5311 18.5575C12.8219 18.8643 13.2893 19.1858 13.943 19.4775C15.1125 19.9993 16.741 20.3642 18.6059 20.4344Z" fill="#8098F9"/>
<path d="M19.2634 16.6066C21.9905 16.6066 24.2012 15.9709 24.2012 15.1866C24.2012 14.4024 21.9905 13.7666 19.2634 13.7666C16.5364 13.7666 14.3257 14.4024 14.3257 15.1866C14.3257 15.9709 16.5364 16.6066 19.2634 16.6066Z" fill="#8098F9"/>
<path d="M26.928 24.0148C29.6551 24.0148 31.8658 23.379 31.8658 22.5948C31.8658 21.8106 29.6551 21.1748 26.928 21.1748C24.2009 21.1748 21.9902 21.8106 21.9902 22.5948C21.9902 23.379 24.2009 24.0148 26.928 24.0148Z" fill="#8098F9"/>
</g>
<defs>
<clipPath id="clip0_3627_93927">
<rect width="22" height="22" fill="white" transform="translate(12 12)"/>
</clipPath>
</defs>
</svg>
