<svg width="24" height="24" viewBox="0 0 24 24" fill="none" xmlns="http://www.w3.org/2000/svg">
<g>
<path fill-rule="evenodd" clip-rule="evenodd" d="M7.05318 3.05135C8.36593 1.7386 10.1464 1.0011 12.0029 1.0011C13.8594 1.0011 15.6399 1.7386 16.9527 3.05135C18.2654 4.36411 19.0029 6.14458 19.0029 8.0011C19.0029 10.9138 19.7349 12.845 20.5023 14.0782L20.5141 14.0971C20.8714 14.6714 21.1539 15.1254 21.3443 15.4558C21.4398 15.6213 21.5267 15.7808 21.5911 15.9226C21.6232 15.9933 21.6591 16.0801 21.6872 16.1744C21.7105 16.2526 21.7549 16.4198 21.7383 16.6234C21.7271 16.7602 21.6992 16.9939 21.565 17.2354C21.4309 17.4769 21.2472 17.6241 21.1369 17.7058C20.8866 17.8915 20.5992 17.934 20.5033 17.9481L20.4988 17.9488C20.3514 17.9706 20.1842 17.9815 20.0154 17.988C19.6801 18.0011 19.216 18.0011 18.6388 18.0011H18.6141H5.39178H5.36707C4.78985 18.0011 4.32571 18.0011 3.99045 17.988C3.8217 17.9815 3.65442 17.9706 3.50701 17.9488L3.50258 17.9481C3.40664 17.934 3.11922 17.8915 2.86893 17.7058C2.75869 17.6241 2.57497 17.4769 2.44081 17.2354C2.30666 16.9939 2.27877 16.7602 2.26758 16.6234C2.25093 16.4198 2.29533 16.2526 2.31864 16.1744C2.34673 16.0801 2.38267 15.9933 2.4148 15.9226C2.47917 15.7808 2.5661 15.6213 2.66152 15.4558C2.85194 15.1254 3.1344 14.6714 3.49171 14.0972L3.50354 14.0782C4.27092 12.845 5.00293 10.9138 5.00293 8.0011C5.00293 6.14458 5.74042 4.36411 7.05318 3.05135ZM12.0029 3.0011C10.6768 3.0011 9.40507 3.52788 8.46739 4.46556C7.52971 5.40325 7.00293 6.67502 7.00293 8.0011C7.00293 11.2688 6.17587 13.5692 5.20164 15.1348C4.98879 15.4769 4.81115 15.7625 4.66601 15.9999C4.87259 16.0011 5.11291 16.0011 5.39178 16.0011H18.6141C18.8929 16.0011 19.1333 16.0011 19.3398 15.9999C19.1947 15.7625 19.0171 15.4769 18.8042 15.1348C17.83 13.5692 17.0029 11.2688 17.0029 8.0011C17.0029 6.67502 16.4761 5.40325 15.5385 4.46556C14.6008 3.52788 13.329 3.0011 12.0029 3.0011ZM8.60736 20.3394C8.97283 19.9253 9.60477 19.8859 10.0188 20.2514C10.5483 20.7187 11.2414 21.0011 12.0029 21.0011C12.7644 21.0011 13.4576 20.7187 13.987 20.2514C14.4011 19.8859 15.033 19.9253 15.3985 20.3394C15.764 20.7534 15.7246 21.3854 15.3105 21.7508C14.4297 22.5283 13.2703 23.0011 12.0029 23.0011C10.7356 23.0011 9.57618 22.5283 8.69537 21.7508C8.2813 21.3854 8.2419 20.7534 8.60736 20.3394Z" fill="#001840"/>
</g>
<defs>
</defs>
</svg>
