<svg width="16" height="16" viewBox="0 0 16 16" fill="none" xmlns="http://www.w3.org/2000/svg">
<g id="open-book--content-books-book-open">
<g id="Vector 1526">
<path id="Vector" d="M1.71019 0.20505C4.71438 0.561475 7.35799 1.74446 8 2.38646C8.64201 1.74446 11.2856 0.561639 14.2898 0.205212C15.2299 0.0936668 16 0.868424 16 1.8152V10.958C16 11.9048 15.2263 12.6593 14.2947 12.8285C12.1909 13.2104 10.4411 14.2193 9.32479 15.0168C8.55442 15.5671 7.4448 15.5664 6.6744 15.0161C5.55808 14.2188 3.80863 13.2102 1.70529 12.8283C0.773745 12.6591 0 11.9047 0 10.9579V1.81503C0 0.86826 0.770014 0.0935039 1.71019 0.20505Z" fill="#002462"/>
</g>
<path id="Intersect" d="M7.28516 15.3194V1.88867C7.70573 2.12424 8.29314 2.12425 8.71373 1.88869V15.3196C8.253 15.4654 7.74594 15.4653 7.28516 15.3194Z" fill="#FFA502"/>
</g>
</svg>
