<svg width="16" height="16" viewBox="0 0 16 16" fill="none" xmlns="http://www.w3.org/2000/svg">
<path d="M7.99996 9.33398V5.66732C7.99996 5.11503 8.44767 4.66732 8.99996 4.66732C9.55224 4.66732 9.99996 5.11503 9.99996 5.66732V9.33398C9.99996 10.4386 9.10453 11.334 7.99996 11.334C6.89539 11.334 5.99996 10.4386 5.99996 9.33398V6.66732M5.86663 14.6673H10.1333C11.2534 14.6673 11.8134 14.6673 12.2413 14.4493C12.6176 14.2576 12.9236 13.9516 13.1153 13.5753C13.3333 13.1475 13.3333 12.5874 13.3333 11.4673V4.53398C13.3333 3.41388 13.3333 2.85383 13.1153 2.426C12.9236 2.04968 12.6176 1.74372 12.2413 1.55197C11.8134 1.33398 11.2534 1.33398 10.1333 1.33398H5.86663C4.74652 1.33398 4.18647 1.33398 3.75864 1.55197C3.38232 1.74372 3.07636 2.04968 2.88461 2.426C2.66663 2.85383 2.66663 3.41388 2.66663 4.53398V11.4673C2.66663 12.5874 2.66663 13.1475 2.88461 13.5753C3.07636 13.9516 3.38232 14.2576 3.75864 14.4493C4.18647 14.6673 4.74652 14.6673 5.86663 14.6673Z" stroke="#314362" stroke-width="1.5" stroke-linecap="round" stroke-linejoin="round"/>
</svg>
