<svg width="24" height="24" viewBox="0 0 24 24" fill="none" xmlns="http://www.w3.org/2000/svg">
<g id="ai-settings-spark--cog-gear-settings-machine-artificial-intelligence">
<path id="Subtract" fill-rule="evenodd" clip-rule="evenodd" d="M11.134 4.32682C10.358 6.01299 11.1202 8.35382 13.4207 8.75403C14.2805 8.90362 14.9644 9.55855 15.151 10.4111L15.1829 10.5566C15.4342 11.7046 16.1706 12.4524 17.0532 12.7985V15.12L18.211 16.5558C18.4056 16.8 18.5216 17.0974 18.5436 17.4089C18.5657 17.7203 18.4928 18.0311 18.3346 18.3003L17.717 19.381C17.5637 19.6458 17.335 19.8593 17.0601 19.994C16.7853 20.1287 16.4765 20.1786 16.1732 20.1375L14.3515 19.8596L12.0975 21.1563L11.4337 22.8701C11.3217 23.1601 11.1248 23.4097 10.8686 23.5859C10.6124 23.7623 10.3089 23.8571 9.99795 23.858H8.70115C8.39016 23.8571 8.0867 23.7623 7.83051 23.5859C7.57431 23.4097 7.37736 23.1601 7.2654 22.8701L6.60156 21.1563L4.34758 19.8596L2.5259 20.1375C2.22255 20.1786 1.91383 20.1287 1.63894 19.994C1.36406 19.8593 1.13542 19.6458 0.982078 19.381L0.364553 18.3003C0.206316 18.0311 0.13341 17.7203 0.155459 17.4089C0.177509 17.0974 0.293477 16.8 0.488059 16.5558L1.61504 15.12V12.5264L0.457183 11.0907C0.262601 10.8465 0.146633 10.5491 0.124583 10.2376C0.102533 9.92616 0.175438 9.61534 0.333677 9.34618L0.951202 8.26551C1.10454 8.00057 1.33318 7.7872 1.60807 7.6525C1.88295 7.51781 2.19168 7.46788 2.49502 7.50905L4.31671 7.78694L6.60156 6.49013L7.2654 4.7765C7.37736 4.48635 7.57431 4.23679 7.83051 4.06049C8.0867 3.88419 8.39016 3.78938 8.70115 3.78845H9.96706C10.2781 3.78938 10.5815 3.88419 10.8377 4.06049C10.9482 4.13652 11.0476 4.22616 11.134 4.32682ZM12.5596 13.8232C12.5596 15.6046 11.1155 17.0487 9.33411 17.0487C7.55275 17.0487 6.10865 15.6046 6.10865 13.8232C6.10865 12.0419 7.55275 10.5978 9.33411 10.5978C11.1155 10.5978 12.5596 12.0419 12.5596 13.8232Z" fill="#002462"/>
<path id="Union" fill-rule="evenodd" clip-rule="evenodd" d="M19.5702 1.18445C19.2478 -0.22959 17.2304 -0.22077 16.9203 1.19603L16.9083 1.25095L16.8848 1.35784C16.5386 2.90825 15.2918 4.098 13.7256 4.37047C12.2501 4.62716 12.2501 6.7453 13.7256 7.002C15.2973 7.27543 16.5473 8.47253 16.8884 10.0309L16.9203 10.1764C17.2304 11.5932 19.2478 11.6021 19.5702 10.188L19.609 10.0184C19.9632 8.46567 21.2149 7.27736 22.784 7.0044C24.2621 6.74724 24.2621 4.62523 22.784 4.36807C21.2232 4.09654 19.9764 2.91936 19.6146 1.37875C19.6047 1.33587 19.5953 1.29481 19.5852 1.25022L19.5702 1.18445Z" fill="#FFA502"/>
</g>
</svg>
