<svg width="18" height="20" viewBox="0 0 18 20" fill="none" xmlns="http://www.w3.org/2000/svg">
<path d="M2.32133 0C1.753 0 1.20795 0.225764 0.806097 0.627629C0.404225 1.02949 0.178467 1.57454 0.178467 2.14286V17.8571C0.178467 18.4254 0.404225 18.9706 0.806097 19.3724C1.20795 19.7743 1.753 20 2.32133 20H15.1785C15.7468 20 16.2918 19.7743 16.6937 19.3724C17.0955 18.9706 17.3214 18.4254 17.3214 17.8571V7.14286C17.3214 6.95341 17.2461 6.77173 17.1121 6.63779L10.6835 0.20921C10.5496 0.0752549 10.3679 0 10.1785 0H2.32133Z" fill="#002462"/>
<path d="M17.3214 7.14286C17.3214 6.95341 17.2461 6.77173 17.1121 6.63779L10.6835 0.20921C10.5496 0.0752549 10.3679 0 10.1785 0V6.42857C10.1785 6.82306 10.4983 7.14286 10.8928 7.14286H17.3214Z" fill="#FFA502"/>
</svg>
