<svg width="24" height="24" viewBox="0 0 24 24" fill="none" xmlns="http://www.w3.org/2000/svg">
<g id="office-worker--office-worker-human-resources">
<path id="Union" fill-rule="evenodd" clip-rule="evenodd" d="M9.42857 3.42857C9.42857 5.32212 7.89355 6.85714 6 6.85714C4.10645 6.85714 2.57143 5.32212 2.57143 3.42857C2.57143 1.53502 4.10645 0 6 0C7.89355 0 9.42857 1.53502 9.42857 3.42857ZM9.50558 17.0923V17.1429H9.42857L8.66529 23.2491C8.61166 23.6781 8.24703 24 7.81476 24H4.18524C3.75297 24 3.38834 23.6781 3.33471 23.2491L2.57143 17.1429H0.857143C0.383757 17.1429 0 16.7591 0 16.2857V14.5714C0 12.9801 0.632141 11.454 1.75737 10.3288C2.88257 9.20357 4.4087 8.57143 6 8.57143C7.5913 8.57143 9.11743 9.20357 10.2426 10.3288C11.0253 11.1115 11.5694 12.0881 11.8282 13.1458C10.4429 13.9162 9.50558 15.3948 9.50558 17.0923Z" fill="#002462"/>
<path id="Union_2" fill-rule="evenodd" clip-rule="evenodd" d="M16.5891 13.6067C16.5891 13.37 16.781 13.1782 17.0177 13.1782H18.5822C18.8187 13.1782 19.0107 13.37 19.0107 13.6067V14.7225H16.5891V13.6067ZM14.0177 14.7225V13.6067C14.0177 11.9499 15.3609 10.6067 17.0177 10.6067H18.5822C20.239 10.6067 21.5822 11.9499 21.5822 13.6067V14.7225C22.8905 14.723 23.951 15.7838 23.951 17.0923V21.6302C23.951 22.9389 22.89 23.9998 21.5813 23.9998H14.0182C12.7094 23.9998 11.6484 22.9389 11.6484 21.6302V17.0923C11.6484 15.7837 12.7092 14.7228 14.0177 14.7225Z" fill="#FFA502"/>
</g>
</svg>
