<svg width="16" height="16" viewBox="0 0 16 16" fill="none" xmlns="http://www.w3.org/2000/svg">
<g id="phone-ringing-1--android-phone-mobile-device-smartphone-iphone-ringing-incoming-call">
<path id="Vector" d="M7.97456 15.3824C7.3821 15.7639 6.67693 15.9311 5.97625 15.8562C5.27559 15.7814 4.62165 15.4689 4.12313 14.971L3.68885 14.5367C3.49623 14.3419 3.38818 14.0791 3.38818 13.8053C3.38818 13.5313 3.49623 13.2685 3.68885 13.0738L5.51742 11.2566C5.71018 11.0647 5.97112 10.957 6.24313 10.957C6.51516 10.957 6.77609 11.0647 6.96885 11.2566C7.16356 11.4493 7.42639 11.5573 7.70028 11.5573C7.97417 11.5573 8.237 11.4493 8.4317 11.2566L11.346 8.34236C11.5387 8.14765 11.6467 7.88482 11.6467 7.61093C11.6467 7.33705 11.5387 7.07421 11.346 6.8795C11.1541 6.68674 11.0463 6.4258 11.0463 6.15379C11.0463 5.88178 11.1541 5.62084 11.346 5.42807L13.106 3.5995C13.3007 3.40687 13.5636 3.29883 13.8374 3.29883C14.1113 3.29883 14.3742 3.40687 14.5688 3.5995L15.0031 4.03379C15.5101 4.52526 15.8332 5.17573 15.9184 5.87664C16.0037 6.57756 15.8461 7.28652 15.4717 7.88522C13.4789 10.8438 10.9332 13.3895 7.97456 15.3824Z" fill="#002462"/>
<path id="Union" fill-rule="evenodd" clip-rule="evenodd" d="M8.3448 0.126465C8.81818 0.126465 9.20194 0.51022 9.20194 0.983608C9.20194 1.457 8.81818 1.84075 8.3448 1.84075C7.48183 1.84075 6.6273 2.01072 5.83002 2.34097C5.03273 2.67121 4.30831 3.15526 3.69809 3.76548C3.08788 4.37569 2.60383 5.10012 2.27359 5.8974C1.94334 6.69469 1.77337 7.5492 1.77337 8.41217C1.77337 8.88557 1.38961 9.26932 0.916225 9.26932C0.442838 9.26932 0.059082 8.88557 0.059082 8.41217C0.059082 7.32408 0.273398 6.24664 0.689794 5.24137C1.10619 4.23611 1.71652 3.32269 2.48591 2.55329C3.25532 1.78389 4.16872 1.17357 5.17399 0.757177C6.17926 0.34078 7.2567 0.126465 8.3448 0.126465ZM8.70361 3.43216C9.177 3.43216 9.56075 3.81592 9.56075 4.28931C9.56075 4.76269 9.177 5.14645 8.70361 5.14645C7.71853 5.14645 6.77378 5.53778 6.07721 6.23433C5.38065 6.93091 4.98933 7.87565 4.98933 8.86073C4.98933 9.33412 4.60557 9.71788 4.13218 9.71788C3.6588 9.71788 3.27504 9.33412 3.27504 8.86073C3.27504 7.42099 3.84698 6.04021 4.86503 5.02215C5.88309 4.00409 7.26386 3.43216 8.70361 3.43216Z" fill="#FFA502"/>
</g>
</svg>
