<svg width="16" height="16" viewBox="0 0 16 16" fill="none" xmlns="http://www.w3.org/2000/svg">
<path fill-rule="evenodd" clip-rule="evenodd" d="M1.84846 1.14282C0.850098 1.14282 0.0407715 1.95215 0.0407715 2.9505V13.4065C0.0407715 14.4048 0.850098 15.2141 1.84846 15.2141H8.50223C9.50058 15.2141 10.3099 14.4048 10.3099 13.4065V2.9505C10.3099 1.95215 9.50058 1.14282 8.50223 1.14282H1.84846Z" fill="white"/>
<path fill-rule="evenodd" clip-rule="evenodd" d="M3.84277 11.9805C3.84277 11.5071 4.22652 11.1234 4.69992 11.1234H5.65045C6.12384 11.1234 6.5076 11.5071 6.5076 11.9805C6.5076 12.4539 6.12384 12.8377 5.65045 12.8377H4.69992C4.22652 12.8377 3.84277 12.4539 3.84277 11.9805Z" fill="#FFA502"/>
<path fill-rule="evenodd" clip-rule="evenodd" d="M13.4284 5.48912C14.7242 6.96515 14.7242 9.39203 13.4284 10.868C13.1681 11.1645 13.1975 11.6158 13.4939 11.876C13.7904 12.1364 14.2417 12.107 14.5019 11.8105C16.2711 9.79533 16.2711 6.56183 14.5019 4.54664C14.2417 4.25019 13.7904 4.22084 13.4939 4.4811C13.1975 4.74135 13.1681 5.19267 13.4284 5.48912ZM11.2727 6.57273C11.5578 6.98607 11.7211 7.56497 11.7211 8.17851C11.7211 8.79206 11.5578 9.37095 11.2727 9.78429C11.0487 10.109 11.1304 10.5539 11.4552 10.7778C11.7799 11.0018 12.2247 10.9202 12.4487 10.5954C12.9298 9.89794 13.1497 9.0209 13.1497 8.17851C13.1497 7.33613 12.9298 6.45909 12.4487 5.76158C12.2247 5.43685 11.7799 5.35519 11.4552 5.57918C11.1304 5.80317 11.0487 6.24799 11.2727 6.57273Z" fill="#FFA502"/>
</svg>
