<svg width="64" height="60" viewBox="0 0 64 60" fill="none" xmlns="http://www.w3.org/2000/svg">
<path d="M24.3308 2.02756C23.7931 2.02756 23.2773 2.24118 22.8971 2.62141C22.5169 3.00166 22.3032 3.51737 22.3032 4.05511V24.3307C22.3032 25.4505 23.211 26.3582 24.3308 26.3582H44.6063C45.7262 26.3582 46.6339 25.4505 46.6339 24.3307C46.6339 21.4019 46.0571 18.5016 44.9362 15.7956C43.8154 13.0897 42.1725 10.631 40.1015 8.56C38.0304 6.48895 35.5718 4.84612 32.8658 3.72529C30.1598 2.60444 27.2596 2.02756 24.3308 2.02756Z" fill="url(#paint0_linear_41_25420)"/>
<path d="M18.248 9.14851C18.248 8.49033 17.9286 7.8731 17.3912 7.49307C16.8538 7.11305 16.1654 7.01751 15.5448 7.23685C7.67257 10.0193 2.02759 17.5269 2.02759 26.3582C2.02759 37.556 11.1053 46.6338 22.3032 46.6338C31.1344 46.6338 38.642 40.9887 41.4244 33.1165C41.6438 32.496 41.5483 31.8075 41.1683 31.2702C40.7882 30.7327 40.171 30.4133 39.5128 30.4133H22.3032C20.0636 30.4133 18.248 28.5977 18.248 26.3582V9.14851Z" fill="url(#paint1_linear_41_25420)"/>
<g clip-path="url(#clip0_41_25420)" filter="url(#filter0_b_41_25420)">
<g filter="url(#filter1_i_41_25420)">
<path d="M44.5556 26.1061C46.4534 24.8658 49.7446 22.184 49.7446 18.4723V17.0467H35.4891V18.4723C35.4891 22.184 38.7804 24.8658 40.6781 26.1061C31.1198 27.5744 23.0156 39.5525 23.0156 49.1215C23.0156 55.0179 27.8108 59.8131 33.7072 59.8131H51.5265C57.4229 59.8131 62.2181 55.0179 62.2181 49.1215C62.2181 39.5525 54.1139 27.5744 44.5556 26.1061Z" fill="url(#paint2_linear_41_25420)"/>
</g>
<path d="M44.5556 26.1061C46.4534 24.8658 49.7446 22.184 49.7446 18.4723V17.0467H35.4891V18.4723C35.4891 22.184 38.7804 24.8658 40.6781 26.1061C31.1198 27.5744 23.0156 39.5525 23.0156 49.1215C23.0156 55.0179 27.8108 59.8131 33.7072 59.8131H51.5265C57.4229 59.8131 62.2181 55.0179 62.2181 49.1215C62.2181 39.5525 54.1139 27.5744 44.5556 26.1061Z" stroke="url(#paint3_linear_41_25420)" stroke-width="0.5"/>
</g>
<defs>
<filter id="filter0_b_41_25420" x="-8.76636" y="-12.9533" width="102.766" height="102.766" filterUnits="userSpaceOnUse" color-interpolation-filters="sRGB">
<feFlood flood-opacity="0" result="BackgroundImageFix"/>
<feGaussianBlur in="BackgroundImageFix" stdDeviation="15"/>
<feComposite in2="SourceAlpha" operator="in" result="effect1_backgroundBlur_41_25420"/>
<feBlend mode="normal" in="SourceGraphic" in2="effect1_backgroundBlur_41_25420" result="shape"/>
</filter>
<filter id="filter1_i_41_25420" x="22.7656" y="16.7967" width="39.7024" height="44.2663" filterUnits="userSpaceOnUse" color-interpolation-filters="sRGB">
<feFlood flood-opacity="0" result="BackgroundImageFix"/>
<feBlend mode="normal" in="SourceGraphic" in2="BackgroundImageFix" result="shape"/>
<feColorMatrix in="SourceAlpha" type="matrix" values="0 0 0 0 0 0 0 0 0 0 0 0 0 0 0 0 0 0 127 0" result="hardAlpha"/>
<feOffset dy="1"/>
<feGaussianBlur stdDeviation="3"/>
<feComposite in2="hardAlpha" operator="arithmetic" k2="-1" k3="1"/>
<feColorMatrix type="matrix" values="0 0 0 0 1 0 0 0 0 1 0 0 0 0 1 0 0 0 0.4 0"/>
<feBlend mode="normal" in2="shape" result="effect1_innerShadow_41_25420"/>
</filter>
<linearGradient id="paint0_linear_41_25420" x1="34.4704" y1="27.3379" x2="34.4704" y2="3.13426" gradientUnits="userSpaceOnUse">
<stop stop-color="#FFA502"/>
<stop offset="0.5" stop-color="#FFD892"/>
<stop offset="1" stop-color="#FFA502"/>
</linearGradient>
<linearGradient id="paint1_linear_41_25420" x1="21.7869" y1="48.2247" x2="21.7869" y2="8.91821" gradientUnits="userSpaceOnUse">
<stop stop-color="#FFA502"/>
<stop offset="0.5" stop-color="#FFD892"/>
<stop offset="1" stop-color="#FFA502"/>
</linearGradient>
<linearGradient id="paint2_linear_41_25420" x1="57.3032" y1="19.7397" x2="26.3157" y2="62.2582" gradientUnits="userSpaceOnUse">
<stop stop-color="white" stop-opacity="0.48"/>
<stop offset="1" stop-color="white" stop-opacity="0.2"/>
</linearGradient>
<linearGradient id="paint3_linear_41_25420" x1="25.7829" y1="20.4102" x2="61.6044" y2="55.5199" gradientUnits="userSpaceOnUse">
<stop stop-color="white"/>
<stop offset="1" stop-color="white" stop-opacity="0"/>
</linearGradient>
<clipPath id="clip0_41_25420">
<rect width="42.7663" height="42.7663" fill="white" transform="translate(21.2336 17.0467)"/>
</clipPath>
</defs>
</svg>
