<svg width="20" height="21" viewBox="0 -14 20 35" fill="none" xmlns="http://www.w3.org/2000/svg">
<g id="wrapper">
<path id="Union" fill-rule="evenodd" clip-rule="evenodd" d="M11.4315 1.92967C11.4315 1.14069 10.7919 0.501099 10.0029 0.501099C9.21396 0.501099 8.57436 1.14069 8.57436 1.92967V9.07253H1.4315C0.642523 9.07253 0.00292969 9.71213 0.00292969 10.5011C0.00292969 11.2901 0.642523 11.9297 1.4315 11.9297H8.57436V19.0725C8.57436 19.8615 9.21396 20.5011 10.0029 20.5011C10.7919 20.5011 11.4315 19.8615 11.4315 19.0725V11.9297H18.5744C19.3634 11.9297 20.0029 11.2901 20.0029 10.5011C20.0029 9.71213 19.3634 9.07253 18.5744 9.07253H11.4315V1.92967Z" fill="#FFA502"/>
</g>
</svg>
