<svg width="16" height="16" viewBox="0 0 16 16" fill="none" xmlns="http://www.w3.org/2000/svg">
<g id="file-plus-01">
<path id="Icon" d="M13.3333 7.00065V4.53398C13.3333 3.41388 13.3333 2.85383 13.1153 2.426C12.9236 2.04968 12.6176 1.74372 12.2413 1.55197C11.8134 1.33398 11.2534 1.33398 10.1333 1.33398H5.86663C4.74652 1.33398 4.18647 1.33398 3.75864 1.55197C3.38232 1.74372 3.07636 2.04968 2.88461 2.426C2.66663 2.85383 2.66663 3.41388 2.66663 4.53398V11.4673C2.66663 12.5874 2.66663 13.1475 2.88461 13.5753C3.07636 13.9516 3.38232 14.2576 3.75864 14.4493C4.18647 14.6673 4.74652 14.6673 5.86663 14.6673H7.99996M12 14.0007V10.0007M9.99996 12.0007H14" stroke="#314362" stroke-width="1.5" stroke-linecap="round" stroke-linejoin="round"/>
</g>
</svg>
