<svg width="46" height="46" viewBox="0 0 46 46" fill="none" xmlns="http://www.w3.org/2000/svg">
<path d="M0 23C0 10.2975 10.2975 0 23 0C35.7025 0 46 10.2975 46 23C46 35.7025 35.7025 46 23 46C10.2975 46 0 35.7025 0 23Z" fill="#8098F9"/>
<path fill-rule="evenodd" clip-rule="evenodd" d="M21.0138 18.3396C18.116 16.3698 15.3961 17.556 13.0524 19.7058C12.6793 20.048 12.7572 20.6467 13.1909 20.908L17.8748 23.7296L17.881 23.7191L22.285 28.1231L22.2744 28.1293L25.096 32.8131C25.3573 33.2468 25.9559 33.3248 26.2982 32.9515C28.4484 30.6075 29.6346 27.8871 27.6632 24.9885C29.3198 23.9833 30.7647 23.0048 31.6733 22.0631C35.6396 18.0969 33.3398 12.6642 33.3398 12.6642C33.3398 12.6642 27.907 10.3644 23.9409 14.3307C23.0006 15.2379 22.0196 16.684 21.0138 18.3396ZM16.1234 26.6827C16.5454 26.6753 16.9646 26.7529 17.3559 26.911C17.7473 27.069 18.1028 27.3043 18.4012 27.6027C18.6996 27.9011 18.9349 28.2567 19.093 28.648C19.251 29.0393 19.3287 29.4586 19.3212 29.8805C19.3138 30.3026 19.2214 30.7187 19.0496 31.1042C18.8787 31.4878 18.6327 31.8332 18.3262 32.1199C17.9777 32.4537 17.4323 32.7147 16.9268 32.9157C16.3877 33.1299 15.7726 33.3213 15.1984 33.4781C14.6222 33.6354 14.0718 33.7619 13.6562 33.8443C13.4499 33.8853 13.2678 33.917 13.1283 33.936C13.0613 33.9452 12.9873 33.9536 12.919 33.9568C12.888 33.9582 12.8321 33.9599 12.7681 33.9536C12.7374 33.9507 12.6781 33.9436 12.6074 33.9225C12.5608 33.9087 12.3798 33.8535 12.2289 33.6775C12.0998 33.5269 12.0644 33.3689 12.0559 33.3309L12.0559 33.3309C12.0423 33.2701 12.0383 33.2195 12.0367 33.1921C12.0335 33.1356 12.0359 33.0856 12.0379 33.0557C12.0421 32.9911 12.051 32.92 12.0607 32.8532C12.0807 32.7152 12.1134 32.5345 12.1551 32.3286C12.2392 31.9147 12.3667 31.3668 12.5248 30.793C12.6823 30.2213 12.8741 29.609 13.0886 29.0722C13.2899 28.5684 13.5508 28.0256 13.884 27.6778C14.1708 27.3712 14.5162 27.1252 14.8997 26.9543C15.2853 26.7825 15.7014 26.6902 16.1234 26.6827Z" fill="#FCFDFF"/>
</svg>
