<svg width="46" height="46" viewBox="0 0 46 46" fill="none" xmlns="http://www.w3.org/2000/svg">
<path d="M0 23C0 10.2975 10.2975 0 23 0C35.7025 0 46 10.2975 46 23C46 35.7025 35.7025 46 23 46C10.2975 46 0 35.7025 0 23Z" fill="#FD853A"/>
<path d="M22.4473 13.3424L14.1299 21.6598C13.6349 22.1548 13.9855 23.0011 14.6855 23.0011H17.5029V32.4297C17.5029 32.8636 17.8547 33.2154 18.2886 33.2154H27.7172C28.151 33.2154 28.5029 32.8636 28.5029 32.4297V23.0011H31.3203C32.0202 23.0011 32.3708 22.1548 31.8758 21.6598L23.5585 13.3424C23.2516 13.0356 22.7541 13.0356 22.4473 13.3424Z" fill="#FCFDFF"/>
</svg>
