<svg width="25" height="25" viewBox="0 0 25 25" fill="none" xmlns="http://www.w3.org/2000/svg">
<g id="Icon / Profile">
<g id="Group">
<path id="Vector" fill-rule="evenodd" clip-rule="evenodd" d="M16.0378 9.96365C16.0378 11.0245 15.6164 12.0419 14.8663 12.7921C14.1161 13.5422 13.0987 13.9637 12.0378 13.9637C10.977 13.9637 9.95956 13.5422 9.20941 12.7921C8.45927 12.0419 8.03784 11.0245 8.03784 9.96365C8.03784 8.90279 8.45927 7.88537 9.20941 7.13523C9.95956 6.38508 10.977 5.96365 12.0378 5.96365C13.0987 5.96365 14.1161 6.38508 14.8663 7.13523C15.6164 7.88537 16.0378 8.90279 16.0378 9.96365ZM14.0378 9.96365C14.0378 10.4941 13.8271 11.0028 13.4521 11.3779C13.077 11.7529 12.5683 11.9637 12.0378 11.9637C11.5074 11.9637 10.9987 11.7529 10.6236 11.3779C10.2486 11.0028 10.0378 10.4941 10.0378 9.96365C10.0378 9.43322 10.2486 8.92451 10.6236 8.54944C10.9987 8.17437 11.5074 7.96365 12.0378 7.96365C12.5683 7.96365 13.077 8.17437 13.4521 8.54944C13.8271 8.92451 14.0378 9.43322 14.0378 9.96365Z" fill="#F0F0F0"/>
<path id="Vector_2" fill-rule="evenodd" clip-rule="evenodd" d="M12.0378 1.96365C5.96284 1.96365 1.03784 6.88865 1.03784 12.9637C1.03784 19.0387 5.96284 23.9637 12.0378 23.9637C18.1128 23.9637 23.0378 19.0387 23.0378 12.9637C23.0378 6.88865 18.1128 1.96365 12.0378 1.96365ZM3.03784 12.9637C3.03784 15.0537 3.75084 16.9777 4.94584 18.5057C5.78507 17.4036 6.86774 16.5104 8.10927 15.896C9.35081 15.2815 10.7176 14.9625 12.1028 14.9637C13.4702 14.9624 14.8198 15.2732 16.0488 15.8724C17.2778 16.4717 18.3538 17.3436 19.1948 18.4217C20.0613 17.2853 20.6447 15.9589 20.8967 14.5522C21.1488 13.1456 21.0623 11.6992 20.6443 10.3326C20.2264 8.96609 19.4891 7.7187 18.4933 6.69369C17.4976 5.66868 16.2721 4.89551 14.9182 4.43816C13.5644 3.98081 12.121 3.85243 10.7077 4.06363C9.29436 4.27483 7.95163 4.81955 6.79061 5.65271C5.62959 6.48587 4.68365 7.58352 4.03107 8.85485C3.37849 10.1262 3.03802 11.5346 3.03784 12.9637ZM12.0378 21.9637C9.97179 21.9668 7.96811 21.256 6.36584 19.9517C7.01077 19.0284 7.86918 18.2746 8.86803 17.7543C9.86689 17.2341 10.9766 16.9629 12.1028 16.9637C13.215 16.9628 14.3113 17.2272 15.3008 17.7351C16.2902 18.2429 17.1442 18.9795 17.7918 19.8837C16.1771 21.2304 14.1404 21.9666 12.0378 21.9637Z" fill="#F0F0F0"/>
</g>
</g>
</svg>
