<svg width="24" height="24" viewBox="0 0 24 24" fill="none" xmlns="http://www.w3.org/2000/svg">
<g clip-path="url(#clip0_3627_117248)">
<path d="M12 24C18.6274 24 24 18.6274 24 12C24 5.37259 18.6274 0 12 0C5.37259 0 0 5.37259 0 12C0 18.6274 5.37259 24 12 24Z" fill="#002462"/>
<path fill-rule="evenodd" clip-rule="evenodd" d="M17.4648 6.5355C17.8833 6.95392 17.8833 7.63231 17.4648 8.05072L8.05072 17.4649C7.63231 17.8832 6.95392 17.8832 6.5355 17.4649C6.11707 17.0464 6.11707 16.368 6.5355 15.9496L15.9496 6.5355C16.368 6.11707 17.0464 6.11707 17.4648 6.5355ZM8.23453 6.22168C7.12286 6.22168 6.22168 7.12286 6.22168 8.23453C6.22168 9.34617 7.12286 10.2474 8.23453 10.2474C9.34617 10.2474 10.2474 9.34617 10.2474 8.23453C10.2474 7.12286 9.34617 6.22168 8.23453 6.22168ZM13.753 15.7658C13.753 14.6541 14.6541 13.7529 15.7658 13.7529C16.8775 13.7529 17.7787 14.6541 17.7787 15.7658C17.7787 16.8774 16.8775 17.7786 15.7658 17.7786C14.6541 17.7786 13.753 16.8774 13.753 15.7658Z" fill="#FFA502"/>
</g>
<defs>
<clipPath id="clip0_3627_117248">
<rect width="24" height="24" fill="white"/>
</clipPath>
</defs>
</svg>
