<svg width="20" height="20" viewBox="0 0 20 20" fill="none" xmlns="http://www.w3.org/2000/svg">
<g clip-path="url(#clip0_1826_133751)">
<rect width="20" height="20" rx="10" fill="#FD853A"/>
<path d="M6.31242 6.186C6.92842 6.186 7.46976 6.312 7.93642 6.564C8.40309 6.816 8.76242 7.17533 9.01442 7.642C9.27576 8.09933 9.40642 8.62667 9.40642 9.224C9.40642 9.812 9.27109 10.33 9.00042 10.778C8.73909 11.226 8.36576 11.576 7.88042 11.828C7.40442 12.0707 6.85376 12.192 6.22842 12.192H4.24042C4.19376 12.192 4.17042 12.2153 4.17042 12.262V15.832C4.17042 15.8787 4.15176 15.9207 4.11442 15.958C4.08642 15.986 4.04909 16 4.00242 16H2.36442C2.31776 16 2.27576 15.986 2.23842 15.958C2.21042 15.9207 2.19642 15.8787 2.19642 15.832V6.354C2.19642 6.30733 2.21042 6.27 2.23842 6.242C2.27576 6.20467 2.31776 6.186 2.36442 6.186H6.31242ZM6.01842 10.61C6.44776 10.61 6.79309 10.4887 7.05442 10.246C7.31576 9.994 7.44642 9.66733 7.44642 9.266C7.44642 8.85533 7.31576 8.524 7.05442 8.272C6.79309 8.02 6.44776 7.894 6.01842 7.894H4.24042C4.19376 7.894 4.17042 7.91733 4.17042 7.964V10.54C4.17042 10.5867 4.19376 10.61 4.24042 10.61H6.01842ZM16.5699 10.89C16.5139 10.918 16.5139 10.946 16.5699 10.974C17.4566 11.4313 17.8999 12.192 17.8999 13.256C17.8999 14.1613 17.5919 14.8473 16.9759 15.314C16.3599 15.7713 15.5526 16 14.5539 16H10.9279C10.8813 16 10.8393 15.986 10.8019 15.958C10.7739 15.9207 10.7599 15.8787 10.7599 15.832V6.368C10.7599 6.32133 10.7739 6.284 10.8019 6.256C10.8393 6.21867 10.8813 6.2 10.9279 6.2H14.4419C16.6539 6.2 17.7599 7.096 17.7599 8.888C17.7599 9.82133 17.3633 10.4887 16.5699 10.89ZM12.8039 7.894C12.7573 7.894 12.7339 7.91733 12.7339 7.964V10.148C12.7339 10.1947 12.7573 10.218 12.8039 10.218H14.4419C14.8806 10.218 15.2213 10.1153 15.4639 9.91C15.7066 9.70467 15.8279 9.42467 15.8279 9.07C15.8279 8.706 15.7066 8.42133 15.4639 8.216C15.2213 8.00133 14.8806 7.894 14.4419 7.894H12.8039ZM14.5539 14.292C14.9833 14.292 15.3193 14.1847 15.5619 13.97C15.8046 13.746 15.9259 13.4427 15.9259 13.06C15.9259 12.6773 15.8046 12.3787 15.5619 12.164C15.3193 11.94 14.9786 11.828 14.5399 11.828H12.8039C12.7573 11.828 12.7339 11.8513 12.7339 11.898V14.222C12.7339 14.2687 12.7573 14.292 12.8039 14.292H14.5539Z" fill="#FCFDFF"/>
</g>
<defs>
<clipPath id="clip0_1826_133751">
<rect width="20" height="20" rx="10" fill="white"/>
</clipPath>
</defs>
</svg>
