<svg width="20" height="20" viewBox="0 0 20 20" fill="none" xmlns="http://www.w3.org/2000/svg">
<g clip-path="url(#clip0_1826_133875)">
<rect width="20" height="20" rx="10" fill="#FD6F8E"/>
<path d="M6.32609 6.186C6.94209 6.186 7.48343 6.312 7.95009 6.564C8.41676 6.816 8.77609 7.17533 9.02809 7.642C9.28943 8.09933 9.42009 8.62667 9.42009 9.224C9.42009 9.812 9.28476 10.33 9.01409 10.778C8.75276 11.226 8.37943 11.576 7.89409 11.828C7.41809 12.0707 6.86743 12.192 6.24209 12.192H4.25409C4.20743 12.192 4.18409 12.2153 4.18409 12.262V15.832C4.18409 15.8787 4.16543 15.9207 4.12809 15.958C4.10009 15.986 4.06276 16 4.01609 16H2.37809C2.33143 16 2.28943 15.986 2.25209 15.958C2.22409 15.9207 2.21009 15.8787 2.21009 15.832V6.354C2.21009 6.30733 2.22409 6.27 2.25209 6.242C2.28943 6.20467 2.33143 6.186 2.37809 6.186H6.32609ZM6.03209 10.61C6.46143 10.61 6.80676 10.4887 7.06809 10.246C7.32943 9.994 7.46009 9.66733 7.46009 9.266C7.46009 8.85533 7.32943 8.524 7.06809 8.272C6.80676 8.02 6.46143 7.894 6.03209 7.894H4.25409C4.20743 7.894 4.18409 7.91733 4.18409 7.964V10.54C4.18409 10.5867 4.20743 10.61 4.25409 10.61H6.03209ZM10.9416 16C10.8949 16 10.8529 15.986 10.8156 15.958C10.7876 15.9207 10.7736 15.8787 10.7736 15.832V6.368C10.7736 6.32133 10.7876 6.284 10.8156 6.256C10.8529 6.21867 10.8949 6.2 10.9416 6.2H14.4416C15.1416 6.2 15.7529 6.326 16.2756 6.578C16.8076 6.82067 17.2183 7.166 17.5076 7.614C17.7969 8.062 17.9416 8.58 17.9416 9.168V13.032C17.9416 13.62 17.7969 14.138 17.5076 14.586C17.2183 15.034 16.8076 15.384 16.2756 15.636C15.7529 15.8787 15.1416 16 14.4416 16H10.9416ZM12.7476 14.236C12.7476 14.2827 12.7709 14.306 12.8176 14.306H14.5116C14.9409 14.306 15.2863 14.1613 15.5476 13.872C15.8183 13.5827 15.9583 13.1953 15.9676 12.71V9.49C15.9676 9.00467 15.8323 8.61733 15.5616 8.328C15.3003 8.03867 14.9456 7.894 14.4976 7.894H12.8176C12.7709 7.894 12.7476 7.91733 12.7476 7.964V14.236Z" fill="#FCFDFF"/>
</g>
<defs>
<clipPath id="clip0_1826_133875">
<rect width="20" height="20" rx="10" fill="white"/>
</clipPath>
</defs>
</svg>
