<svg width="20" height="20" viewBox="0 0 20 20" fill="none" xmlns="http://www.w3.org/2000/svg">
<g clip-path="url(#clip0_1826_133813)">
<rect width="20" height="20" rx="10" fill="#9B8AFB"/>
<path d="M6.39445 6.186C7.01045 6.186 7.55179 6.312 8.01845 6.564C8.48512 6.816 8.84445 7.17533 9.09645 7.642C9.35779 8.09933 9.48845 8.62667 9.48845 9.224C9.48845 9.812 9.35312 10.33 9.08245 10.778C8.82112 11.226 8.44779 11.576 7.96245 11.828C7.48645 12.0707 6.93579 12.192 6.31045 12.192H4.32245C4.27579 12.192 4.25245 12.2153 4.25245 12.262V15.832C4.25245 15.8787 4.23379 15.9207 4.19645 15.958C4.16845 15.986 4.13112 16 4.08445 16H2.44645C2.39979 16 2.35779 15.986 2.32045 15.958C2.29245 15.9207 2.27845 15.8787 2.27845 15.832V6.354C2.27845 6.30733 2.29245 6.27 2.32045 6.242C2.35779 6.20467 2.39979 6.186 2.44645 6.186H6.39445ZM6.10045 10.61C6.52979 10.61 6.87512 10.4887 7.13645 10.246C7.39779 9.994 7.52845 9.66733 7.52845 9.266C7.52845 8.85533 7.39779 8.524 7.13645 8.272C6.87512 8.02 6.52979 7.894 6.10045 7.894H4.32245C4.27579 7.894 4.25245 7.91733 4.25245 7.964V10.54C4.25245 10.5867 4.27579 10.61 4.32245 10.61H6.10045ZM14.286 16.112C13.558 16.112 12.9186 15.972 12.368 15.692C11.8173 15.4027 11.3926 15.0013 11.094 14.488C10.7953 13.9747 10.646 13.382 10.646 12.71V9.476C10.646 8.804 10.7953 8.21133 11.094 7.698C11.3926 7.18467 11.8173 6.788 12.368 6.508C12.9186 6.228 13.558 6.088 14.286 6.088C15.0046 6.088 15.6346 6.22333 16.176 6.494C16.7266 6.75533 17.1513 7.13333 17.45 7.628C17.758 8.11333 17.912 8.678 17.912 9.322C17.912 9.406 17.856 9.45733 17.744 9.476L16.106 9.574H16.078C15.9846 9.574 15.938 9.52267 15.938 9.42C15.938 8.92533 15.784 8.52867 15.476 8.23C15.1773 7.93133 14.7806 7.782 14.286 7.782C13.782 7.782 13.376 7.93133 13.068 8.23C12.7693 8.52867 12.62 8.92533 12.62 9.42V12.794C12.62 13.2793 12.7693 13.6713 13.068 13.97C13.376 14.2687 13.782 14.418 14.286 14.418C14.7806 14.418 15.1773 14.2687 15.476 13.97C15.784 13.6713 15.938 13.2793 15.938 12.794C15.938 12.6913 15.994 12.64 16.106 12.64L17.744 12.71C17.7906 12.71 17.828 12.724 17.856 12.752C17.8933 12.78 17.912 12.8127 17.912 12.85C17.912 13.494 17.758 14.0633 17.45 14.558C17.1513 15.0527 16.7266 15.4353 16.176 15.706C15.6346 15.9767 15.0046 16.112 14.286 16.112Z" fill="#FCFDFF"/>
</g>
<defs>
<clipPath id="clip0_1826_133813">
<rect width="20" height="20" rx="10" fill="white"/>
</clipPath>
</defs>
</svg>
