<svg width="20" height="20" viewBox="0 0 20 20" fill="none" xmlns="http://www.w3.org/2000/svg">
<g clip-path="url(#clip0_1826_133689)">
<rect width="20" height="20" rx="10" fill="#8098F9"/>
<path d="M6.3466 6.186C6.9626 6.186 7.50394 6.312 7.9706 6.564C8.43727 6.816 8.7966 7.17533 9.0486 7.642C9.30994 8.09933 9.4406 8.62667 9.4406 9.224C9.4406 9.812 9.30527 10.33 9.0346 10.778C8.77327 11.226 8.39994 11.576 7.9146 11.828C7.4386 12.0707 6.88794 12.192 6.2626 12.192H4.2746C4.22794 12.192 4.2046 12.2153 4.2046 12.262V15.832C4.2046 15.8787 4.18594 15.9207 4.1486 15.958C4.1206 15.986 4.08327 16 4.0366 16H2.3986C2.35194 16 2.30994 15.986 2.2726 15.958C2.2446 15.9207 2.2306 15.8787 2.2306 15.832V6.354C2.2306 6.30733 2.2446 6.27 2.2726 6.242C2.30994 6.20467 2.35194 6.186 2.3986 6.186H6.3466ZM6.0526 10.61C6.48194 10.61 6.82727 10.4887 7.0886 10.246C7.34994 9.994 7.4806 9.66733 7.4806 9.266C7.4806 8.85533 7.34994 8.524 7.0886 8.272C6.82727 8.02 6.48194 7.894 6.0526 7.894H4.2746C4.22794 7.894 4.2046 7.91733 4.2046 7.964V10.54C4.2046 10.5867 4.22794 10.61 4.2746 10.61H6.0526ZM16.2448 16C16.1515 16 16.0908 15.9533 16.0628 15.86L15.6428 14.488C15.6242 14.4507 15.6008 14.432 15.5728 14.432H12.1288C12.1008 14.432 12.0775 14.4507 12.0588 14.488L11.6528 15.86C11.6248 15.9533 11.5642 16 11.4708 16H9.69282C9.63682 16 9.59482 15.986 9.56682 15.958C9.53882 15.9207 9.53415 15.8693 9.55282 15.804L12.5768 6.34C12.6048 6.24667 12.6655 6.2 12.7588 6.2H14.9568C15.0502 6.2 15.1108 6.24667 15.1388 6.34L18.1628 15.804C18.1722 15.8227 18.1768 15.846 18.1768 15.874C18.1768 15.958 18.1255 16 18.0228 16H16.2448ZM12.5628 12.822C12.5535 12.878 12.5722 12.906 12.6188 12.906H15.0828C15.1388 12.906 15.1575 12.878 15.1388 12.822L13.8788 8.664C13.8695 8.62667 13.8555 8.61267 13.8368 8.622C13.8182 8.622 13.8042 8.636 13.7948 8.664L12.5628 12.822Z" fill="#FCFDFF"/>
</g>
<defs>
<clipPath id="clip0_1826_133689">
<rect width="20" height="20" rx="10" fill="white"/>
</clipPath>
</defs>
</svg>
