<svg width="16" height="16" viewBox="0 0 16 16" fill="none" xmlns="http://www.w3.org/2000/svg">
<g id="building-2--real-home-tower-building-house-estate">
<path id="Union" d="M8.57143 6.85712C8.25584 6.85712 8 7.11296 8 7.42855V15.4285C8 15.7441 8.25584 16 8.57143 16H15.4286C15.7441 16 16 15.7441 16 15.4285V7.42855C16 7.11296 15.7441 6.85712 15.4286 6.85712H8.57143Z" fill="#FFA502"/>
<path id="Union_2" d="M5.16696 0.157564C4.9463 -0.0525215 4.59961 -0.0525215 4.37894 0.157564L0.177415 4.15757C0.0641237 4.26542 0 4.41501 0 4.57143V15.4286C0 15.7441 0.255838 16 0.571429 16H8.97447C9.29007 16 9.5459 15.7441 9.5459 15.4286V4.57143C9.5459 4.41501 9.48178 4.26542 9.36849 4.15757L5.16696 0.157564Z" fill="#002462"/>
<path id="Intersect" fill-rule="evenodd" clip-rule="evenodd" d="M5.9156 16V13.7143C5.9156 13.0831 5.40392 12.5714 4.77274 12.5714C4.14155 12.5714 3.62988 13.0831 3.62988 13.7143V16H5.9156Z" fill="#FFA502"/>
<path id="Union_3" fill-rule="evenodd" clip-rule="evenodd" d="M3.19768 5.17786C2.80319 5.17786 2.4834 5.49765 2.4834 5.89214C2.4834 6.28663 2.80319 6.60643 3.19768 6.60643H6.34883C6.74332 6.60643 7.06311 6.28663 7.06311 5.89214C7.06311 5.49765 6.74332 5.17786 6.34883 5.17786H3.19768ZM3.19768 8.15768C2.80319 8.15768 2.4834 8.47748 2.4834 8.87197C2.4834 9.26645 2.80319 9.58626 3.19768 9.58626H6.34883C6.74332 9.58626 7.06311 9.26645 7.06311 8.87197C7.06311 8.47748 6.74332 8.15768 6.34883 8.15768H3.19768Z" fill="#FFA502"/>
</g>
</svg>
