<svg width="16" height="16" viewBox="0 0 16 16" fill="none" xmlns="http://www.w3.org/2000/svg">
<g clip-path="url(#clip0_4695_99183)">
<g clip-path="url(#clip1_4695_99183)">
<path d="M4 0.976562C1.79086 0.976562 0 2.76742 0 4.97657V14.2854C0 14.7401 0.180611 15.1761 0.502103 15.4976C0.823593 15.819 1.25962 15.9997 1.71429 15.9997L12.8138 15.9996C13.2685 15.9996 13.7045 15.819 14.0259 15.4976C14.3474 15.1761 14.5281 14.7401 14.5281 14.2853V13.2384V7.33245V6.28539C14.5281 5.83073 14.3474 5.39469 14.0259 5.07321C13.7045 4.75171 13.2685 4.5711 12.8138 4.5711H12.5695C12.5474 4.57316 12.525 4.57422 12.5024 4.57422H3.83482C3.44033 4.57422 3.12054 4.25442 3.12054 3.85994C3.12054 3.46545 3.44033 3.14565 3.83482 3.14565H12V1.548C12 1.2324 11.7441 0.976562 11.4286 0.976562H4Z" fill="#002462"/>
<path d="M15.1574 8.76074H11.1574C10.8418 8.76074 10.5859 8.98823 10.5859 9.26886V11.3013C10.5859 11.582 10.8418 11.8095 11.1574 11.8095H15.1574C15.473 11.8095 15.7288 11.582 15.7288 11.3013V9.26886C15.7288 8.98823 15.473 8.76074 15.1574 8.76074Z" fill="#FFA502"/>
<path fill-rule="evenodd" clip-rule="evenodd" d="M12.0006 4.57408V3.14551H3.83538C3.44089 3.14551 3.12109 3.4653 3.12109 3.85979C3.12109 4.25427 3.44089 4.57408 3.83538 4.57408H12.0006Z" fill="#FFA502"/>
</g>
</g>
<defs>
<clipPath id="clip0_4695_99183">
<rect width="16" height="16" fill="white"/>
</clipPath>
<clipPath id="clip1_4695_99183">
<rect width="16" height="16" fill="white"/>
</clipPath>
</defs>
</svg>
