<svg width="16" height="16" viewBox="0 0 16 16" fill="none" xmlns="http://www.w3.org/2000/svg">
<g clip-path="url(#clip0_2708_24478)">
<path fill-rule="evenodd" clip-rule="evenodd" d="M6.67927 2.34347C7.2459 1.29176 8.75425 1.29176 9.32088 2.34347L14.6466 12.2342C14.7696 12.4627 14.8312 12.7192 14.8255 12.9787C14.8197 13.2381 14.7467 13.4916 14.6137 13.7144C14.4806 13.9372 14.292 14.1217 14.0663 14.2498C13.8407 14.3779 13.5856 14.4453 13.3261 14.4453H2.67405C2.41454 14.4453 2.15949 14.3779 1.93381 14.2498C1.70813 14.1217 1.51955 13.9372 1.38649 13.7144C1.25343 13.4916 1.18046 13.2381 1.17469 12.9787C1.16892 12.7192 1.23056 12.4627 1.35358 12.2342L6.67927 2.34347ZM7.55963 2.81778C7.74865 2.46713 8.25144 2.46703 8.44046 2.81767L13.7661 12.7083C13.8071 12.7844 13.8276 12.8699 13.8257 12.9564C13.8238 13.0429 13.7995 13.1274 13.7551 13.2017C13.7108 13.2759 13.6479 13.3374 13.5727 13.3801C13.4975 13.4228 13.4125 13.4453 13.326 13.4453H2.67423M7.55963 2.81778L2.23407 12.7083C2.19307 12.7844 2.17252 12.87 2.17444 12.9564C2.17636 13.0429 2.20069 13.1274 2.24504 13.2017C2.28939 13.2759 2.35225 13.3374 2.42748 13.3801C2.50268 13.4228 2.58776 13.4453 2.67423 13.4453" fill="#FB5C5C"/>
<path d="M8.00007 12.4141C7.87646 12.4141 7.75562 12.3774 7.65284 12.3087C7.55006 12.2401 7.46995 12.1424 7.42265 12.0282C7.37534 11.914 7.36297 11.7884 7.38708 11.6671C7.4112 11.5459 7.47072 11.4345 7.55813 11.3471C7.64554 11.2597 7.7569 11.2002 7.87814 11.1761C7.99938 11.152 8.12505 11.1643 8.23925 11.2116C8.35346 11.2589 8.45107 11.3391 8.51974 11.4418C8.58842 11.5446 8.62507 11.6654 8.62507 11.7891C8.62507 11.9548 8.55923 12.1138 8.44202 12.231C8.32481 12.3482 8.16583 12.4141 8.00007 12.4141Z" fill="#FB5C5C"/>
<path d="M8.51279 9.94061L8.69216 6.12811L8.69091 6.12999C8.69497 6.03831 8.6804 5.94675 8.6481 5.86085C8.6158 5.77496 8.56642 5.69649 8.50296 5.6302C8.4395 5.5639 8.36327 5.51115 8.27886 5.47513C8.19445 5.43911 8.10362 5.42057 8.01185 5.42061H8.00529C7.91414 5.42149 7.8241 5.44071 7.74053 5.47712C7.65697 5.51354 7.58159 5.56641 7.51889 5.63258C7.45619 5.69874 7.40746 5.77686 7.37559 5.86226C7.34373 5.94766 7.32938 6.03861 7.33341 6.12968L7.51279 9.94061C7.51279 10.0732 7.56547 10.2004 7.65924 10.2942C7.753 10.3879 7.88018 10.4406 8.01279 10.4406C8.1454 10.4406 8.27257 10.3879 8.36634 10.2942C8.46011 10.2004 8.51279 10.0732 8.51279 9.94061Z" fill="#FB5C5C"/>
</g>
<defs>
<clipPath id="clip0_2708_24478">
<rect width="16" height="16" fill="white"/>
</clipPath>
</defs>
</svg>
