<svg width="22" height="24" viewBox="0 0 22 24" fill="none" xmlns="http://www.w3.org/2000/svg">
<g id="hand-held--tablet-kindle-device-electronics-ipad-computer">
<path id="Union" fill-rule="evenodd" clip-rule="evenodd" d="M3.63276 0.0727539C2.01851 0.0727539 0.7099 1.38137 0.7099 2.99563V21.0043C0.7099 22.6186 2.01851 23.9273 3.63276 23.9273H18.3671C19.9815 23.9273 21.29 22.6186 21.29 21.0043V2.99563C21.29 1.38137 19.9815 0.0727539 18.3671 0.0727539H3.63276Z" fill="#002462"/>
<path id="Union_2" d="M0.7099 21.0043C0.7099 22.6186 2.01851 23.9273 3.63276 23.9273H18.3671C19.9815 23.9273 21.29 22.6186 21.29 21.0043V18H0.7099V21.0043Z" fill="#FFA502"/>
<path id="Union_3" fill-rule="evenodd" clip-rule="evenodd" d="M5.6214 4.94685C5.6214 4.23677 6.19702 3.66113 6.90711 3.66113H15.0929C15.803 3.66113 16.3786 4.23677 16.3786 4.94685C16.3786 5.65692 15.803 6.23256 15.0929 6.23256H6.90711C6.19702 6.23256 5.6214 5.65692 5.6214 4.94685ZM5.6214 9.44549C5.6214 8.7354 6.19702 8.15978 6.90711 8.15978H15.0929C15.803 8.15978 16.3786 8.7354 16.3786 9.44549C16.3786 10.1556 15.803 10.7312 15.0929 10.7312H6.90711C6.19702 10.7312 5.6214 10.1556 5.6214 9.44549ZM6.90711 12.6584C6.19702 12.6584 5.6214 13.234 5.6214 13.9441C5.6214 14.6542 6.19702 15.2298 6.90711 15.2298H11.8186C12.5287 15.2298 13.1043 14.6542 13.1043 13.9441C13.1043 13.234 12.5287 12.6584 11.8186 12.6584H6.90711Z" fill="#FFA502"/>
</g>
</svg>
