<svg xmlns="http://www.w3.org/2000/svg" width="90" height="90" viewBox="0 0 90 90" fill="none">
  <g clip-path="url(#clip0_569_84394)">
    <path d="M11.25 2.25C11.25 1.00736 12.2574 0 13.5 0H59.818C60.4148 0 60.9871 0.237053 61.409 0.65901L78.091 17.341C78.5129 17.7629 78.75 18.3352 78.75 18.932V87.75C78.75 88.9926 77.7426 90 76.5 90H13.5C12.2574 90 11.25 88.9926 11.25 87.75V2.25Z" fill="#002462"/>
    <rect x="20.25" y="68.3999" width="49.5" height="4.5" rx="2.25" fill="#FFD892"/>
    <path d="M62.7853 17.8644C61.5427 17.8643 60.5353 16.857 60.5353 15.6143L60.5354 -0.342483L78.7423 17.8644L62.7853 17.8644Z" fill="#304872"/>
    <path d="M23.8501 34.6499C23.8501 33.4073 24.8575 32.3999 26.1001 32.3999H32.8501C34.0927 32.3999 35.1001 33.4073 35.1001 34.6499V68.3999H23.8501V34.6499Z" fill="#FFA502"/>
    <path d="M39.6001 22.05C39.6001 20.8074 40.6075 19.8 41.8501 19.8H48.6001C49.8427 19.8 50.8501 20.8074 50.8501 22.05V68.4001H39.6001V22.05Z" fill="#FFB632"/>
    <path d="M55.3501 44.55C55.3501 43.3074 56.3575 42.3 57.6001 42.3H64.3501C65.5927 42.3 66.6001 43.3074 66.6001 44.55V68.4001H55.3501V44.55Z" fill="#FFA502"/>
  </g>
  <defs>
    <clipPath id="clip0_569_84394">
      <rect width="90" height="90" fill="white"/>
    </clipPath>
  </defs>
</svg>