<svg width="16" height="16" viewBox="0 0 16 16" fill="none" xmlns="http://www.w3.org/2000/svg">
<g id="ringing-bell-notification--notification-vibrate-ring-sound-alarm-alert-bell-noise">
<path id="Union" fill-rule="evenodd" clip-rule="evenodd" d="M7.99996 1.42773C6.636 1.42773 5.32788 1.96957 4.36342 2.93404C3.39895 3.89851 2.85711 5.20663 2.85711 6.57059V10.5706C2.85711 10.8737 2.7367 11.1644 2.52238 11.3787C2.30804 11.593 2.01736 11.7134 1.71425 11.7134C1.39866 11.7134 1.14282 11.9693 1.14282 12.2849C1.14282 12.6004 1.39866 12.8563 1.71425 12.8563H14.2857C14.6012 12.8563 14.8571 12.6004 14.8571 12.2849C14.8571 11.9693 14.6012 11.7134 14.2857 11.7134C13.9826 11.7134 13.6919 11.593 13.4776 11.3787C13.2633 11.1644 13.1428 10.8737 13.1428 10.5706V6.57059C13.1428 5.20663 12.601 3.89851 11.6365 2.93404C10.672 1.96957 9.36393 1.42773 7.99996 1.42773Z" fill="#002462"/>
<path id="Union_2" fill-rule="evenodd" clip-rule="evenodd" d="M4.30059 0.357208C4.57674 0.741708 4.48889 1.27726 4.1044 1.5534C3.36525 2.08425 2.76301 2.78333 2.34742 3.59291C1.93182 4.40249 1.7148 5.29932 1.71429 6.20934C1.71402 6.68273 1.33005 7.06627 0.856657 7.066C0.383271 7.06573 -0.000267774 6.68176 1.40275e-07 6.20837C0.000669619 5.0264 0.282543 3.86154 0.822337 2.81002C1.36213 1.7585 2.14435 0.850494 3.1044 0.161008C3.48889 -0.115134 4.02446 -0.0272928 4.30059 0.357208ZM6 15.1429C6 14.6696 6.38376 14.2858 6.85714 14.2858H9.14286C9.61624 14.2858 10 14.6696 10 15.1429C10 15.6163 9.61624 16.0001 9.14286 16.0001H6.85714C6.38376 16.0001 6 15.6163 6 15.1429ZM12.8957 0.161008C12.5112 -0.115134 11.9755 -0.0272928 11.6994 0.357208C11.4233 0.741708 11.5112 1.27726 11.8957 1.5534C12.6347 2.08425 13.237 2.78333 13.6527 3.59291C14.0682 4.40249 14.2853 5.29932 14.2857 6.20934C14.2861 6.68273 14.6699 7.06627 15.1434 7.066C15.6168 7.06573 16.0003 6.68176 16 6.20837C15.9994 5.0264 15.7175 3.86154 15.1777 2.81002C14.6379 1.7585 13.8557 0.850494 12.8957 0.161008Z" fill="#FFA502"/>
</g>
</svg>
