<svg xmlns="http://www.w3.org/2000/svg" width="87" height="87" viewBox="0 0 87 87" fill="none">
  <path fill-rule="evenodd" clip-rule="evenodd" d="M42.0094 64.2315C44.5178 62.7572 47.063 61.2916 49.5901 59.8363C60.8525 53.3507 71.7579 47.0707 77.4734 41.1472C93.693 24.9278 84.2883 2.71137 84.2883 2.71137C84.2883 2.71137 62.0718 -6.69315 45.8526 9.52627C39.8802 15.2892 33.5049 26.3685 26.9746 37.7174C25.5729 40.1533 24.1641 42.6016 22.7506 45.0125C20.8694 47.3562 19.7439 50.3326 19.7439 53.5718C19.7439 61.1293 25.8704 67.256 33.4283 67.256C36.6774 67.256 39.6622 66.1234 42.0094 64.2315Z" fill="#002462"/>
  <path d="M33.8448 25.9631C22.007 17.8895 10.896 22.7274 1.32349 31.5045C-0.198686 32.9002 0.119212 35.3414 1.88852 36.4069L20.996 47.9127" fill="#FFB632"/>
  <path d="M61.037 53.1553C69.1106 64.9934 64.2726 76.1041 55.4956 85.6763C54.1 87.1988 51.6587 86.8808 50.5932 85.1115L39.0874 66.0043" fill="#FFB632"/>
  <path fill-rule="evenodd" clip-rule="evenodd" d="M63.0438 15.5825C58.4189 15.5825 54.6699 19.3316 54.6699 23.9563C54.6699 28.581 58.4189 32.3301 63.0438 32.3301C67.6682 32.3301 71.4175 28.581 71.4175 23.9563C71.4175 19.3316 67.6682 15.5825 63.0438 15.5825Z" fill="#FFD892"/>
</svg>