<svg width="16" height="16" viewBox="0 0 16 16" fill="none" xmlns="http://www.w3.org/2000/svg">
<path d="M6.5613 4.61509C4.45088 3.17517 2.47004 4.03802 0.763465 5.6034C0.492095 5.85233 0.548769 6.28772 0.864197 6.47774L4.27064 8.52981" fill="#FFA502"/>
<path d="M11.3854 9.4389C12.8254 11.5494 11.9625 13.5302 10.3971 15.2367C10.1482 15.5081 9.71279 15.4514 9.52277 15.136L7.4707 11.7296" fill="#FFA502"/>
<path d="M4.26953 8.51773L7.4813 11.7295C10.0507 10.1903 12.9716 8.69952 14.3047 7.31785C17.1893 4.43333 15.5167 0.482246 15.5167 0.482246C15.5167 0.482246 11.5657 -1.1903 8.68117 1.69424C7.29951 3.02742 5.79664 5.96043 4.26953 8.51773Z" fill="#002462"/>
<path fill-rule="evenodd" clip-rule="evenodd" d="M11.7354 2.45593C10.737 2.45593 9.92773 3.26525 9.92773 4.26359C9.92773 5.26193 10.737 6.07126 11.7354 6.07126C12.7337 6.07126 13.5431 5.26193 13.5431 4.26359C13.5431 3.26525 12.7337 2.45593 11.7354 2.45593Z" fill="#FFA502"/>
<path fill-rule="evenodd" clip-rule="evenodd" d="M3.89309 10.8435C3.60847 10.7286 3.30362 10.6721 2.99672 10.6775C2.68982 10.683 2.38714 10.7501 2.10677 10.8751C1.82783 10.9993 1.57664 11.1783 1.36802 11.4012C1.12574 11.6542 0.935949 12.0489 0.789569 12.4153C0.633594 12.8057 0.494081 13.2511 0.379533 13.6669C0.264583 14.0841 0.171803 14.4826 0.110694 14.7837C0.080312 14.9334 0.0565945 15.0648 0.041996 15.1652C0.034943 15.2137 0.0284599 15.2655 0.0254167 15.3125C0.0240138 15.3342 0.0222213 15.3705 0.0245921 15.4117C0.025735 15.4316 0.0286429 15.4684 0.0385222 15.5126C0.044685 15.5401 0.0703794 15.6551 0.164346 15.7647C0.274055 15.8927 0.405742 15.9328 0.439641 15.9429C0.490998 15.9582 0.534183 15.9633 0.556489 15.9655C0.603024 15.9701 0.643719 15.9688 0.666233 15.9678C0.715898 15.9655 0.769708 15.9593 0.818424 15.9527C0.91991 15.9389 1.05231 15.9158 1.20241 15.886C1.50466 15.8261 1.9049 15.7341 2.32395 15.6197C2.74161 15.5056 3.18895 15.3664 3.58098 15.2106C3.94866 15.0645 4.34526 14.8746 4.59871 14.6319C4.82168 14.4233 5.00059 14.1721 5.12488 13.8932C5.24981 13.6128 5.31698 13.3102 5.3224 13.0032C5.32782 12.6964 5.27136 12.3914 5.1564 12.1069C5.04144 11.8223 4.87033 11.5637 4.65328 11.3467C4.43624 11.1296 4.17769 10.9585 3.89309 10.8435Z" fill="#FFA502"/>
</svg>
