<svg width="124" height="133" viewBox="0 0 124 133" fill="none" xmlns="http://www.w3.org/2000/svg">
<g filter="url(#filter0_d_1_2004)">
<path d="M94.4115 41.4043C94.3384 41.3768 94.2614 41.3576 94.1818 41.3478C88.0627 40.5914 82.0085 37.9141 76.8212 34.8423C71.6434 31.776 67.3887 28.3524 64.8765 26.1666C63.0797 24.598 60.398 24.5981 58.6014 26.167L59.2591 26.9202M94.4115 41.4043L25.9991 46.3202C25.9191 44.3002 27.4191 42.6002 29.4191 42.3402C42.0391 40.7802 54.1791 31.3402 59.2591 26.9202M94.4115 41.4043C96.7856 41.8131 98.5562 43.8885 98.4584 46.3598L98.4583 46.3603C96.8985 85.2151 71.3351 102.309 64.0715 106.391C62.606 107.223 60.8522 107.223 59.3867 106.391M94.4115 41.4043L59.3867 106.391M59.2591 26.9202L58.6027 26.1658C56.0906 28.3516 51.8356 31.7757 46.6571 34.8423C41.4698 37.9141 35.4156 40.5914 29.2965 41.3478L29.2965 41.3478L29.2902 41.3486C26.8002 41.6723 24.8985 43.7996 24.9999 46.3598L25 46.3609C26.5802 85.217 52.1455 102.311 59.3867 106.391M59.2591 26.9202C60.6791 25.6802 62.7991 25.6802 64.2191 26.9202C69.1639 31.2225 80.7977 40.2811 93.0522 42.1991L59.3867 106.391M61.7391 84.0202C51.7914 84.0202 43.7191 75.9479 43.7191 66.0002C43.7191 56.0525 51.7914 47.9802 61.7391 47.9802C71.6869 47.9802 79.7591 56.0525 79.7591 66.0002C79.7591 75.9479 71.6869 84.0202 61.7391 84.0202Z" stroke="#F0F0F0" stroke-width="2" stroke-linejoin="round" shape-rendering="crispEdges"/>
</g>
<g filter="url(#filter1_d_1_2004)">
<path d="M69.3616 57.3732C68.9708 56.9843 68.339 56.9851 67.9492 57.3749L59.3226 66.0015L55.4863 62.1652C55.0958 61.7747 54.4626 61.7747 54.0721 62.1652L50.8456 65.3917C50.6581 65.5792 50.5527 65.8336 50.5527 66.0988C50.5527 66.364 50.6581 66.6184 50.8456 66.8059L55.389 71.3493L58.6649 74.6251C59.0547 75.015 59.6865 75.0158 60.0773 74.6269L63.3202 71.4005L63.322 71.3987L72.6557 62.065C72.8435 61.8771 72.9489 61.6223 72.9486 61.3566C72.9482 61.091 72.8422 60.8364 72.6539 60.649L69.3616 57.3732Z" stroke="#FFA502" stroke-width="2" stroke-linejoin="round" shape-rendering="crispEdges"/>
</g>
<defs>
<filter id="filter0_d_1_2004" x="-0.00396729" y="-0.00976562" width="123.466" height="132.025" filterUnits="userSpaceOnUse" color-interpolation-filters="sRGB">
<feFlood flood-opacity="0" result="BackgroundImageFix"/>
<feColorMatrix in="SourceAlpha" type="matrix" values="0 0 0 0 0 0 0 0 0 0 0 0 0 0 0 0 0 0 127 0" result="hardAlpha"/>
<feOffset/>
<feGaussianBlur stdDeviation="12"/>
<feComposite in2="hardAlpha" operator="out"/>
<feColorMatrix type="matrix" values="0 0 0 0 1 0 0 0 0 0.647059 0 0 0 0 0.00784314 0 0 0 1 0"/>
<feBlend mode="normal" in2="BackgroundImageFix" result="effect1_dropShadow_1_2004"/>
<feBlend mode="normal" in="SourceGraphic" in2="effect1_dropShadow_1_2004" result="shape"/>
</filter>
<filter id="filter1_d_1_2004" x="25.5527" y="32.082" width="72.3958" height="67.8359" filterUnits="userSpaceOnUse" color-interpolation-filters="sRGB">
<feFlood flood-opacity="0" result="BackgroundImageFix"/>
<feColorMatrix in="SourceAlpha" type="matrix" values="0 0 0 0 0 0 0 0 0 0 0 0 0 0 0 0 0 0 127 0" result="hardAlpha"/>
<feOffset/>
<feGaussianBlur stdDeviation="12"/>
<feComposite in2="hardAlpha" operator="out"/>
<feColorMatrix type="matrix" values="0 0 0 0 1 0 0 0 0 0.647059 0 0 0 0 0.00784314 0 0 0 1 0"/>
<feBlend mode="normal" in2="BackgroundImageFix" result="effect1_dropShadow_1_2004"/>
<feBlend mode="normal" in="SourceGraphic" in2="effect1_dropShadow_1_2004" result="shape"/>
</filter>
</defs>
</svg>
