<?xml version="1.0" encoding="utf-8"?>
<!-- Generator: Adobe Illustrator 27.5.0, SVG Export Plug-In . SVG Version: 6.00 Build 0)  -->
<svg version="1.1" id="圖層_1" xmlns="http://www.w3.org/2000/svg" xmlns:xlink="http://www.w3.org/1999/xlink" x="0px" y="0px"
	 viewBox="0 0 125 134" style="enable-background:new 0 0 125 134;" xml:space="preserve">
<style type="text/css">
	.st0{fill:none;stroke:#F0F0F0;stroke-width:2;stroke-linejoin:round;}
	.st1{fill:none;stroke:#11FFF5;stroke-width:2;stroke-linejoin:round;}
</style>
<g>
	<path shape-rendering="crispEdges" class="st0" d="M95.4,42.4c-0.1,0-0.2,0-0.2-0.1c-6.1-0.8-12.2-3.4-17.4-6.5
		c-5.2-3.1-9.4-6.5-11.9-8.7c-1.8-1.6-4.5-1.6-6.3,0l0.7,0.8 M95.4,42.4c2.4,0.4,4.1,2.5,4,5l0,0c-1.6,38.9-27.1,55.9-34.4,60
		c-1.5,0.8-3.2,0.8-4.7,0 M60.3,27.9l-0.7-0.8c-2.5,2.2-6.8,5.6-11.9,8.7c-5.2,3.1-11.2,5.7-17.4,6.5l0,0l0,0
		c-2.5,0.3-4.4,2.5-4.3,5l0,0c1.6,38.9,27.1,55.9,34.4,60 M62.7,85c-9.9,0-18-8.1-18-18s8.1-18,18-18c9.9,0,18,8.1,18,18
		S72.7,85,62.7,85z"/>
</g>
<g>
	<path shape-rendering="crispEdges" class="st1" d="M70.4,58.4c-0.4-0.4-1-0.4-1.4,0L60.3,67l-3.8-3.8c-0.4-0.4-1-0.4-1.4,0
		l-3.2,3.2c-0.2,0.2-0.3,0.4-0.3,0.7s0.1,0.5,0.3,0.7l4.5,4.5l3.3,3.3c0.4,0.4,1,0.4,1.4,0l3.2-3.2l0,0l9.3-9.3
		c0.2-0.2,0.3-0.4,0.3-0.7c0-0.3-0.1-0.5-0.3-0.7L70.4,58.4z"/>
</g>
</svg>
