<svg width="21" height="20" viewBox="0 0 21 20" fill="none" xmlns="http://www.w3.org/2000/svg">
<g id="wrapper">
<path id="Union" fill-rule="evenodd" clip-rule="evenodd" d="M13.3589 3.27637C13.2735 3.25586 13.1741 3.25104 12.7307 3.25104H7.08529V5.33438C7.08529 5.58011 7.08587 5.7193 7.09415 5.82064C7.09676 5.85262 7.09968 5.87275 7.10166 5.88398C7.10655 5.89059 7.11241 5.89644 7.11902 5.90134C7.13025 5.90332 7.15038 5.90624 7.18236 5.90885C7.2837 5.91713 7.42289 5.91771 7.66862 5.91771H13.3353C13.581 5.91771 13.7202 5.91713 13.8215 5.90885C13.8535 5.90623 13.8737 5.90332 13.8849 5.90134C13.8915 5.89644 13.8974 5.89059 13.9023 5.88398C13.9042 5.87275 13.9071 5.85262 13.9098 5.82064C13.918 5.7193 13.9186 5.58011 13.9186 5.33438V3.64607C13.7416 3.47187 13.6831 3.42243 13.6239 3.38612C13.5419 3.33586 13.4525 3.29883 13.3589 3.27637ZM15.4186 5.14504V5.33438L15.4186 5.35919C15.4186 5.57112 15.4187 5.77282 15.4048 5.94278C15.3896 6.12812 15.3543 6.34072 15.246 6.5532C15.0942 6.85112 14.852 7.09334 14.5541 7.24514C14.3416 7.3534 14.129 7.38872 13.9437 7.40387C13.7737 7.41775 13.572 7.41773 13.3601 7.41771L13.3353 7.41771H7.66862C7.66034 7.41771 7.65208 7.41771 7.64383 7.41771C7.43189 7.41773 7.23018 7.41775 7.06021 7.40387C6.87487 7.38872 6.66228 7.3534 6.4498 7.24514C6.15188 7.09334 5.90966 6.85112 5.75786 6.5532C5.6496 6.34072 5.61427 6.12812 5.59913 5.94278C5.58524 5.77281 5.58526 5.57111 5.58529 5.35917C5.58529 5.35092 5.58529 5.34266 5.58529 5.33438V3.27141C5.52822 3.27461 5.47357 3.27832 5.42103 3.28261C5.05053 3.31289 4.85151 3.36839 4.70747 3.44178C4.37819 3.60956 4.11047 3.87728 3.94269 4.20656C3.8693 4.3506 3.81379 4.54962 3.78352 4.92012C3.75254 5.29938 3.75195 5.7886 3.75195 6.50104V13.501C3.75195 14.2135 3.75254 14.7027 3.78352 15.082C3.81379 15.4525 3.8693 15.6515 3.94269 15.7955C4.11047 16.1248 4.37819 16.3925 4.70747 16.5603C4.85151 16.6337 5.05053 16.6892 5.42103 16.7195C5.47357 16.7238 5.52822 16.7275 5.58529 16.7307V12.1677L5.58529 12.1429C5.58526 11.931 5.58524 11.7293 5.59913 11.5593C5.61427 11.374 5.6496 11.1614 5.75786 10.9489C5.90966 10.651 6.15188 10.4087 6.4498 10.257C6.66228 10.1487 6.87487 10.1134 7.06021 10.0982C7.23018 10.0843 7.43189 10.0844 7.64383 10.0844L7.66862 10.0844H13.3353L13.3601 10.0844C13.572 10.0844 13.7737 10.0843 13.9437 10.0982C14.129 10.1134 14.3416 10.1487 14.5541 10.257C14.852 10.4087 15.0942 10.651 15.246 10.9489C15.3543 11.1614 15.3896 11.374 15.4048 11.5593C15.4187 11.7293 15.4186 11.931 15.4186 12.1429L15.4186 12.1677V16.7307C15.4757 16.7275 15.5303 16.7238 15.5829 16.7195C15.9534 16.6892 16.1524 16.6337 16.2964 16.5603C16.6257 16.3925 16.8934 16.1248 17.0612 15.7955C17.1346 15.6515 17.1901 15.4525 17.2204 15.082C17.2514 14.7027 17.252 14.2135 17.252 13.501V7.77228C17.252 7.32893 17.2471 7.2295 17.2266 7.14408C17.2042 7.05054 17.1671 6.96113 17.1169 6.87911C17.071 6.80421 17.0041 6.73049 16.6906 6.41699L15.4186 5.14504ZM14.7203 18.2493C15.0936 18.2462 15.4202 18.2378 15.705 18.2145C16.1683 18.1766 16.5867 18.0959 16.9774 17.8968C17.5889 17.5852 18.0861 17.088 18.3977 16.4765C18.5968 16.0858 18.6776 15.6674 18.7154 15.2041C18.752 14.7565 18.752 14.2058 18.752 13.5324V13.501V7.77228C18.752 7.74999 18.752 7.72794 18.752 7.70609C18.7523 7.36343 18.7525 7.07424 18.6852 6.79391C18.626 6.54732 18.5283 6.31159 18.3958 6.09536C18.2452 5.84954 18.0406 5.64522 17.7981 5.40311C17.7826 5.38768 17.767 5.37209 17.7512 5.35633L15.1467 2.75176C15.1309 2.736 15.1153 2.72039 15.0999 2.70494C14.8578 2.46245 14.6535 2.2578 14.4076 2.10716C14.1914 1.97466 13.9557 1.87702 13.7091 1.81782C13.4288 1.75051 13.1396 1.75074 12.7969 1.75101C12.7751 1.75103 12.753 1.75104 12.7307 1.75104H7.00195L6.97054 1.75104C6.76072 1.75104 6.56281 1.75104 6.37623 1.75214C6.36267 1.75141 6.34902 1.75104 6.33529 1.75104C6.31793 1.75104 6.30071 1.75163 6.28365 1.75279C5.91027 1.75587 5.5837 1.76433 5.29888 1.7876C4.83562 1.82545 4.41723 1.90618 4.02648 2.10527C3.41496 2.41686 2.91777 2.91405 2.60618 3.52558C2.40709 3.91632 2.32635 4.33471 2.2885 4.79798C2.25194 5.24554 2.25194 5.79625 2.25195 6.46963L2.25195 6.50104V13.501L2.25195 13.5325C2.25194 14.2058 2.25194 14.7565 2.2885 15.2041C2.32635 15.6674 2.40709 16.0858 2.60618 16.4765C2.91777 17.088 3.41496 17.5852 4.02648 17.8968C4.41723 18.0959 4.83562 18.1766 5.29888 18.2145C5.58369 18.2378 5.91027 18.2462 6.28365 18.2493C6.30071 18.2505 6.31793 18.251 6.33529 18.251C6.34903 18.251 6.36268 18.2507 6.37623 18.2499C6.56283 18.2511 6.76074 18.251 6.97057 18.251H7.00195H14.002H14.0333C14.2432 18.251 14.4411 18.2511 14.6277 18.2499C14.6412 18.2507 14.6549 18.251 14.6686 18.251C14.686 18.251 14.7032 18.2505 14.7203 18.2493ZM13.9186 16.751V12.1677C13.9186 11.922 13.918 11.7828 13.9098 11.6815C13.9071 11.6495 13.9042 11.6293 13.9023 11.6181C13.8974 11.6115 13.8915 11.6056 13.8849 11.6007C13.8737 11.5988 13.8535 11.5959 13.8215 11.5932C13.7202 11.585 13.581 11.5844 13.3353 11.5844H7.66862C7.42289 11.5844 7.2837 11.585 7.18236 11.5932C7.15038 11.5959 7.13025 11.5988 7.11902 11.6007C7.11241 11.6056 7.10655 11.6115 7.10166 11.6181C7.09968 11.6293 7.09676 11.6495 7.09415 11.6815C7.08587 11.7828 7.08529 11.922 7.08529 12.1677V16.751H13.9186Z" fill="#314362"/>
</g>
</svg>
