<svg width="56" height="61" viewBox="0 0 56 61" fill="none" xmlns="http://www.w3.org/2000/svg">
<g clip-path="url(#clip0_840_66343)">
<g clip-path="url(#clip1_840_66343)">
<path fill-rule="evenodd" clip-rule="evenodd" d="M10.0896 0.261372C8.54396 0.261372 7.06162 0.875381 5.96867 1.96833C4.87573 3.06127 4.26172 4.54361 4.26172 6.08928V10.974C4.26172 12.3942 5.41299 13.5454 6.83315 13.5454C8.25332 13.5454 9.40456 12.3942 9.40456 10.974V6.08928C9.40456 5.9076 9.47673 5.73336 9.60524 5.60489C9.73371 5.47639 9.90795 5.40422 10.0896 5.40422H14.9743C16.3945 5.40422 17.5458 4.25297 17.5458 2.8328C17.5458 1.41264 16.3945 0.261372 14.9743 0.261372H10.0896ZM41.0263 0.261633C39.6062 0.261633 38.4549 1.4129 38.4549 2.83306C38.4549 4.25321 39.6062 5.40449 41.0263 5.40449H45.911C46.0927 5.40449 46.2669 5.47666 46.3955 5.60513C46.524 5.7336 46.596 5.90784 46.596 6.08956V10.9743C46.596 12.3944 47.7473 13.5457 49.1675 13.5457C50.5876 13.5457 51.7389 12.3944 51.7389 10.9743V6.08956C51.7389 4.54389 51.1248 3.06153 50.0321 1.96859C48.9391 0.875645 47.4566 0.261633 45.911 0.261633H41.0263ZM6.83315 34.4547C8.25332 34.4547 9.40456 35.6061 9.40456 37.0262V41.9109C9.40456 42.0926 9.47673 42.2667 9.60524 42.3953C9.73371 42.5239 9.90795 42.5959 10.0896 42.5959H14.9743C16.3945 42.5959 17.5458 43.7472 17.5458 45.1673C17.5458 46.5874 16.3945 47.7387 14.9743 47.7387H10.0896C8.54396 47.7387 7.06162 47.1247 5.96867 46.032C4.87573 44.939 4.26172 43.4565 4.26172 41.9109V37.0262C4.26172 35.6061 5.41299 34.4547 6.83315 34.4547ZM51.7389 37.0262C51.7389 35.6061 50.5876 34.4547 49.1675 34.4547C47.7473 34.4547 46.596 35.6061 46.596 37.0262V41.9109C46.596 42.0926 46.524 42.2667 46.3955 42.3953C46.2669 42.5239 46.0927 42.5959 45.911 42.5959H41.0263C39.6062 42.5959 38.4549 43.7472 38.4549 45.1673C38.4549 46.5874 39.6062 47.7387 41.0263 47.7387H45.911C47.4566 47.7387 48.9391 47.1247 50.0321 46.032C51.1248 44.939 51.7389 43.4565 51.7389 41.9109V37.0262Z" fill="#002462"/>
<path fill-rule="evenodd" clip-rule="evenodd" d="M17.6998 9.41352C15.3328 9.41352 13.4141 11.3323 13.4141 13.6992V20.8065C13.4141 23.1734 15.3328 25.0922 17.6998 25.0922H24.8071C27.174 25.0922 29.0928 23.1734 29.0928 20.8065V13.6992C29.0928 11.3323 27.174 9.41352 24.8071 9.41352H17.6998ZM18.5569 19.9494V14.5564H23.9499V19.9494H18.5569ZM18.557 31.509C18.557 30.0889 17.4057 28.9376 15.9856 28.9376C14.5654 28.9376 13.4141 30.0889 13.4141 31.509V36.0144C13.4141 37.4345 14.5654 38.5858 15.9856 38.5858H20.491C21.9112 38.5858 23.0624 37.4345 23.0624 36.0144C23.0624 34.5943 21.9112 33.4431 20.491 33.4431H18.557V31.509ZM23.5628 31.509C23.5628 30.0889 24.7141 28.9376 26.1342 28.9376H27.9994C29.4196 28.9376 30.5709 30.0889 30.5709 31.509V36.0144C30.5709 37.4345 29.4196 38.5858 27.9994 38.5858C26.5793 38.5858 25.428 37.4345 25.428 36.0144V33.9823C24.3512 33.6754 23.5628 32.6843 23.5628 31.509ZM38.0802 11.9852C38.0802 10.565 36.929 9.41376 35.5088 9.41376C34.0886 9.41376 32.9374 10.565 32.9374 11.9852V16.4906C32.9374 17.9108 34.0886 19.0621 35.5088 19.0621H40.0144C41.4345 19.0621 42.5858 17.9108 42.5858 16.4906C42.5858 15.0705 41.4345 13.9192 40.0144 13.9192H38.0802V11.9852ZM32.9374 24C32.9374 22.5799 34.0886 21.4286 35.5088 21.4286H40.0144C41.4345 21.4286 42.5858 22.5799 42.5858 24V26.1909C42.5858 27.611 41.4345 28.7623 40.0144 28.7623C38.7235 28.7623 37.6547 27.8111 37.4708 26.5714H35.5088C34.0886 26.5714 32.9374 25.4201 32.9374 24ZM38.0802 31.509C38.0802 30.0889 36.929 28.9376 35.5088 28.9376C34.0886 28.9376 32.9374 30.0889 32.9374 31.509V36.0144C32.9374 37.4345 34.0886 38.5858 35.5088 38.5858H40.0144C41.4345 38.5858 42.5858 37.4345 42.5858 36.0144C42.5858 34.5943 41.4345 33.4431 40.0144 33.4431H38.0802V31.509Z" fill="#FFA502"/>
</g>
</g>
<ellipse cx="28" cy="54.5" rx="27.5" ry="6.5" fill="url(#paint0_radial_840_66343)"/>
<defs>
<radialGradient id="paint0_radial_840_66343" cx="0" cy="0" r="1" gradientUnits="userSpaceOnUse" gradientTransform="translate(28 54.5) scale(22.234 6.5)">
<stop stop-color="#314362" stop-opacity="0.2"/>
<stop offset="1" stop-color="#314362" stop-opacity="0"/>
</radialGradient>
<clipPath id="clip0_840_66343">
<rect width="48" height="48" fill="white" transform="translate(4)"/>
</clipPath>
<clipPath id="clip1_840_66343">
<rect width="48" height="48" fill="white" transform="translate(4)"/>
</clipPath>
</defs>
</svg>
