<svg width="20" height="20" viewBox="0 0 20 20" fill="none" xmlns="http://www.w3.org/2000/svg">
<path fill-rule="evenodd" clip-rule="evenodd" d="M2.31039 1.42857C1.06244 1.42857 0.0507812 2.44023 0.0507812 3.68817V16.7581C0.0507812 18.006 1.06244 19.0177 2.31039 19.0177H10.6276C11.8755 19.0177 12.8872 18.006 12.8872 16.7581V3.68817C12.8872 2.44023 11.8755 1.42857 10.6276 1.42857H2.31039Z" fill="#002462"/>
<path fill-rule="evenodd" clip-rule="evenodd" d="M4.80273 14.9757C4.80273 14.384 5.28242 13.9043 5.87416 13.9043H7.06233C7.65406 13.9043 8.13376 14.384 8.13376 14.9757C8.13376 15.5674 7.65406 16.0471 7.06233 16.0471H5.87416C5.28242 16.0471 4.80273 15.5674 4.80273 14.9757Z" fill="#FFA502"/>
<path fill-rule="evenodd" clip-rule="evenodd" d="M16.7862 6.86138C18.4059 8.70641 18.4059 11.74 16.7862 13.585C16.4607 13.9556 16.4975 14.5197 16.868 14.845C17.2386 15.1704 17.8027 15.1337 18.128 14.7631C20.3395 12.2441 20.3395 8.20227 18.128 5.68328C17.8027 5.31271 17.2386 5.27603 16.868 5.60135C16.4975 5.92667 16.4607 6.49081 16.7862 6.86138ZM14.0916 8.21588C14.4479 8.73257 14.652 9.45618 14.652 10.2231C14.652 10.9901 14.4479 11.7137 14.0916 12.2303C13.8116 12.6363 13.9136 13.1923 14.3196 13.4723C14.7255 13.7523 15.2815 13.6502 15.5615 13.2443C16.1629 12.3724 16.4377 11.2761 16.4377 10.2231C16.4377 9.17014 16.1629 8.07384 15.5615 7.20195C15.2815 6.79604 14.7255 6.69397 14.3196 6.97396C13.9136 7.25394 13.8116 7.80997 14.0916 8.21588Z" fill="#FFA502"/>
</svg>
