<svg width="32" height="32" viewBox="0 0 32 32" fill="none" xmlns="http://www.w3.org/2000/svg">
<path fill-rule="evenodd" clip-rule="evenodd" d="M14.8455 5.76916C13.8108 8.01739 14.8271 11.1385 17.8944 11.6721C19.0408 11.8716 19.9527 12.7448 20.2015 13.8815L20.244 14.0756C20.579 15.6062 21.561 16.6032 22.7377 17.0647V20.1601L24.2815 22.0744C24.5409 22.4 24.6957 22.7966 24.7249 23.2119C24.7544 23.6272 24.6573 24.0416 24.4463 24.4005L23.6228 25.8414C23.4184 26.1945 23.1135 26.4791 22.747 26.6587C22.3805 26.8384 21.9689 26.9049 21.5644 26.85L19.1355 26.4795L16.1302 28.2085L15.2451 30.4935C15.0958 30.8802 14.8332 31.213 14.4916 31.448C14.15 31.6832 13.7454 31.8096 13.3308 31.8107H11.6017C11.187 31.8096 10.7824 31.6832 10.4408 31.448C10.0992 31.213 9.83664 30.8802 9.68736 30.4935L8.80224 28.2085L5.79694 26.4795L3.36802 26.85C2.96357 26.9049 2.55193 26.8384 2.18542 26.6587C1.8189 26.4791 1.51405 26.1945 1.3096 25.8414L0.486233 24.4005C0.27525 24.0416 0.178042 23.6272 0.207442 23.2119C0.236841 22.7966 0.391465 22.4 0.650908 22.0744L2.15355 20.1601V16.702L0.60974 14.7877C0.350297 14.4621 0.195673 14.0655 0.166273 13.6502C0.136874 13.2349 0.23408 12.8205 0.445065 12.4616L1.26843 11.0207C1.47288 10.6675 1.77773 10.383 2.14425 10.2034C2.51077 10.0238 2.9224 9.95723 3.32686 10.0121L5.75577 10.3826L8.80224 8.65357L9.68736 6.36872C9.83664 5.98187 10.0992 5.64911 10.4408 5.41405C10.7824 5.17899 11.187 5.05256 11.6017 5.05133H13.2896C13.7042 5.05256 14.1088 5.17899 14.4504 5.41405C14.5977 5.51542 14.7304 5.63494 14.8455 5.76916ZM16.7463 18.4311C16.7463 20.8062 14.8208 22.7317 12.4456 22.7317C10.0705 22.7317 8.14503 20.8062 8.14503 18.4311C8.14503 16.0559 10.0705 14.1304 12.4456 14.1304C14.8208 14.1304 16.7463 16.0559 16.7463 18.4311Z" fill="#002462"/>
<path fill-rule="evenodd" clip-rule="evenodd" d="M26.0936 1.57929C25.6636 -0.306099 22.9738 -0.294339 22.5603 1.59473L22.5443 1.66796L22.513 1.81047C22.0514 3.87769 20.389 5.46402 18.3007 5.82731C16.3334 6.16957 16.3334 8.99376 18.3007 9.33602C20.3963 9.70059 22.063 11.2967 22.5178 13.3746L22.5603 13.5686C22.9738 15.4576 25.6636 15.4694 26.0936 13.584L26.1452 13.3579C26.6175 11.2876 28.2865 9.70317 30.3786 9.33922C32.3494 8.99634 32.3494 6.16699 30.3786 5.82411C28.2975 5.46208 26.6351 3.8925 26.1528 1.83835C26.1395 1.78117 26.127 1.72644 26.1135 1.66698L26.0936 1.57929Z" fill="#FFA502"/>
</svg>
