<svg width="24" height="24" viewBox="0 0 24 24" fill="none" xmlns="http://www.w3.org/2000/svg">
<g id="share-link--share-transmit">
<path id="Vector 1175 (Stroke)" fill-rule="evenodd" clip-rule="evenodd" d="M21.2474 3.51905C21.6708 4.36587 21.3276 5.39559 20.4808 5.81901L8.11884 12L20.4808 18.181C21.3276 18.6044 21.6708 19.634 21.2474 20.4809C20.824 21.3278 19.7944 21.671 18.9475 21.2475L3.51893 13.5333C2.93815 13.2429 2.57129 12.6493 2.57129 12C2.57129 11.3507 2.93815 10.7571 3.51893 10.4667L18.9475 2.7524C19.7944 2.32899 20.824 2.67223 21.2474 3.51905Z" fill="white"/>
<path id="Ellipse 375" d="M19.2856 9.42857C21.8892 9.42857 23.9999 7.31791 23.9999 4.71429C23.9999 2.11066 21.8892 0 19.2856 0C16.6819 0 14.5713 2.11066 14.5713 4.71429C14.5713 7.31791 16.6819 9.42857 19.2856 9.42857Z" fill="#FFA502"/>
<path id="Ellipse 376" d="M19.2856 24C21.8892 24 23.9999 21.8893 23.9999 19.2857C23.9999 16.6821 21.8892 14.5714 19.2856 14.5714C16.6819 14.5714 14.5713 16.6821 14.5713 19.2857C14.5713 21.8893 16.6819 24 19.2856 24Z" fill="#FFA502"/>
<path id="Ellipse 377" d="M4.71429 16.7143C7.31791 16.7143 9.42857 14.6037 9.42857 12.0001C9.42857 9.39642 7.31791 7.28577 4.71429 7.28577C2.11066 7.28577 0 9.39642 0 12.0001C0 14.6037 2.11066 16.7143 4.71429 16.7143Z" fill="#FFA502"/>
</g>
</svg>