<svg width="24" height="24" viewBox="0 0 24 24" fill="none" xmlns="http://www.w3.org/2000/svg">
<path fill-rule="evenodd" clip-rule="evenodd" d="M1.28571 2.57143H3.67966L4.32785 5.04072C4.33296 5.06019 4.3385 5.07945 4.34443 5.09847L6.00538 13.4032C6.00953 13.4479 6.01608 13.4929 6.02508 13.5379L6.74508 17.1379L6.74607 17.1429C6.84489 17.6268 7.10787 18.0619 7.49055 18.3742C7.87317 18.6866 8.35191 18.8571 8.84582 18.8571H19.2859C19.9959 18.8571 20.5716 18.2815 20.5716 17.5714C20.5716 16.8614 19.9959 16.2857 19.2859 16.2857H9.19699L8.76842 14.1429H20.7454L20.7633 14.1431C20.8236 14.1442 20.9955 14.1472 21.1531 14.1214C21.7275 14.0276 22.2194 13.637 22.4484 13.1133C22.5418 12.8998 22.5878 12.6305 22.6029 12.5426L22.6073 12.5169L23.9642 5.89785L23.9679 5.88003C24.013 5.6334 24.0033 5.37984 23.9398 5.13729C23.7441 4.38977 23.0604 3.85999 22.2878 3.85714H22.2845H6.6757L6.10202 1.67167C5.99678 1.20476 5.73811 0.786062 5.36669 0.48287C4.98408 0.170535 4.50533 -4.02515e-05 4.01143 7.12466e-09H1.28571C0.575633 7.12466e-09 0 0.575633 0 1.28571C0 1.99579 0.575633 2.57143 1.28571 2.57143Z" fill="#002462"/>
<path fill-rule="evenodd" clip-rule="evenodd" d="M11.3644 21.9438C11.3644 20.8563 10.4829 19.9746 9.39537 19.9746C8.30786 19.9746 7.42627 20.8563 7.42627 21.9438C7.42627 23.0312 8.30786 23.9128 9.39537 23.9128C10.4829 23.9128 11.3644 23.0312 11.3644 21.9438ZM19.9359 21.9438C19.9359 20.8563 19.0543 19.9746 17.9669 19.9746C16.8794 19.9746 15.9978 20.8563 15.9978 21.9438C15.9978 23.0314 16.8794 23.9128 17.9669 23.9128C19.0543 23.9128 19.9359 23.0314 19.9359 21.9438Z" fill="#FFA502"/>
</svg>
