<svg width="32" height="32" viewBox="0 0 32 32" fill="none" xmlns="http://www.w3.org/2000/svg">
<g clip-path="url(#clip0_923_37235)">
<g clip-path="url(#clip1_923_37235)">
<path fill-rule="evenodd" clip-rule="evenodd" d="M1.71429 0C0.767511 0 0 0.767511 0 1.71429C0 2.66105 0.767511 3.42857 1.71429 3.42857H16.5714C17.5182 3.42857 18.2857 2.66105 18.2857 1.71429C18.2857 0.767511 17.5182 0 16.5714 0H1.71429ZM5.71429 8.57143C5.71429 7.62466 6.48181 6.85714 7.42857 6.85714H16.5714C17.5182 6.85714 18.2857 7.62466 18.2857 8.57143C18.2857 9.51819 17.5182 10.2857 16.5714 10.2857H7.42857C6.48181 10.2857 5.71429 9.51819 5.71429 8.57143ZM10.2857 15.4286C10.2857 14.4818 11.0532 13.7143 12 13.7143H16.5714C17.5182 13.7143 18.2857 14.4818 18.2857 15.4286C18.2857 16.3753 17.5182 17.1429 16.5714 17.1429H12C11.0532 17.1429 10.2857 16.3753 10.2857 15.4286Z" fill="white"/>
<path fill-rule="evenodd" clip-rule="evenodd" d="M26.8569 2.28571C26.8569 1.02335 25.8336 0 24.5712 0C23.3088 0 22.2855 1.02335 22.2855 2.28571V22.8571H18.8569C18.1636 22.8571 17.5385 23.2747 17.2731 23.9154C17.0078 24.5559 17.1545 25.2933 17.6447 25.7835L23.3591 31.4978C24.0286 32.1673 25.1138 32.1673 25.7833 31.4978L31.4976 25.7835C31.9879 25.2933 32.1346 24.5559 31.8693 23.9154C31.6039 23.2747 30.9788 22.8571 30.2855 22.8571H26.8569V2.28571Z" fill="#FFA502"/>
</g>
</g>
<defs>
<clipPath id="clip0_923_37235">
<rect width="32" height="32" fill="white"/>
</clipPath>
<clipPath id="clip1_923_37235">
<rect width="32" height="32" fill="white"/>
</clipPath>
</defs>
</svg>
