<svg xmlns="http://www.w3.org/2000/svg" width="16" height="16" viewBox="0 0 16 16" fill="none">
  <path fill-rule="evenodd" clip-rule="evenodd" d="M5.39643 1.55115L5.42675 1.55115H10.8955L10.9258 1.55115C11.4469 1.55114 11.883 1.55113 12.2394 1.58025C12.6114 1.61065 12.9623 1.67648 13.2946 1.84577C13.8032 2.10493 14.2167 2.51845 14.4759 3.02708C14.6452 3.35933 14.711 3.7102 14.7414 4.08226C14.7705 4.43869 14.7705 4.87472 14.7705 5.39585V5.42614V6.53291C14.7705 6.94713 14.4347 7.28291 14.0205 7.28291C13.6063 7.28291 13.2705 6.94713 13.2705 6.53291V5.42614C13.2705 4.86684 13.2699 4.49247 13.2464 4.20441C13.2236 3.9251 13.183 3.79361 13.1394 3.70807C13.024 3.48168 12.84 3.29763 12.6136 3.18228C12.528 3.13869 12.3965 3.09809 12.1172 3.07527C11.8292 3.05173 11.4548 3.05115 10.8955 3.05115H5.42675C4.86745 3.05115 4.49308 3.05173 4.20502 3.07527C3.92572 3.09809 3.79422 3.13869 3.70868 3.18228C3.48229 3.29763 3.29824 3.48168 3.18289 3.70806C3.1393 3.79361 3.0987 3.9251 3.07588 4.20441C3.05234 4.49247 3.05176 4.86684 3.05176 5.42614V10.8949C3.05176 11.4542 3.05234 11.8286 3.07588 12.1166C3.0987 12.3959 3.1393 12.5274 3.18289 12.613C3.29824 12.8394 3.48229 13.0234 3.70868 13.1388C3.79422 13.1823 3.92572 13.2229 4.20502 13.2458C4.49308 13.2693 4.86745 13.2699 5.42675 13.2699H6.53352C6.94774 13.2699 7.28352 13.6057 7.28352 14.0199C7.28352 14.4341 6.94774 14.7699 6.53352 14.7699H5.42675H5.39646C4.87533 14.7699 4.4393 14.7699 4.08287 14.7408C3.71081 14.7104 3.35994 14.6446 3.02769 14.4753C2.51906 14.2161 2.10554 13.8026 1.84638 13.294C1.67709 12.9617 1.61126 12.6108 1.58086 12.2388C1.55174 11.8823 1.55175 11.4463 1.55176 10.9252L1.55176 10.8949V5.42614L1.55176 5.39582C1.55175 4.87471 1.55174 4.43869 1.58086 4.08226C1.61126 3.7102 1.67709 3.35933 1.84638 3.02708C2.10554 2.51845 2.51906 2.10493 3.02769 1.84577C3.35994 1.67648 3.71081 1.61065 4.08287 1.58025C4.4393 1.55113 4.87532 1.55114 5.39643 1.55115ZM8.70652 7.11557C8.7143 7.11815 8.72204 7.12072 8.72975 7.12327L14.0853 8.89651L14.11 8.9047C14.2692 8.95736 14.4329 9.01154 14.5626 9.06772C14.6791 9.11821 14.9318 9.23417 15.0929 9.49538C15.2714 9.78476 15.3026 10.1415 15.1769 10.4574C15.0635 10.7426 14.8348 10.9006 14.7287 10.9705C14.6108 11.0483 14.4589 11.1301 14.3112 11.2095L14.2883 11.2219L12.2955 12.2949L11.2225 14.2878L11.2101 14.3107C11.1306 14.4583 11.0489 14.6102 10.9711 14.7282C10.9012 14.8342 10.7432 15.0629 10.458 15.1763C10.1421 15.302 9.78534 15.2708 9.49597 15.0923C9.23476 14.9312 9.1188 14.6786 9.06831 14.562C9.01213 14.4323 8.95795 14.2686 8.90529 14.1094L8.8971 14.0847L7.12388 8.72914C7.12132 8.72143 7.11875 8.71368 7.11617 8.70589C7.07052 8.56812 7.02154 8.42033 6.99207 8.29376C6.96347 8.17089 6.9151 7.92544 7.00997 7.66005C7.11845 7.35663 7.35724 7.11784 7.66066 7.00936C7.92605 6.91449 8.1715 6.96286 8.29437 6.99147C8.42095 7.02093 8.56874 7.06991 8.70652 7.11557ZM8.69119 8.69059L10.1539 13.1083L11.0074 11.5232C11.0088 11.5206 11.0105 11.5174 11.0125 11.5138C11.0317 11.4775 11.0767 11.3926 11.1384 11.3147C11.1902 11.249 11.2496 11.1896 11.3153 11.1377C11.3933 11.0761 11.4781 11.0311 11.5144 11.0118C11.5181 11.0099 11.5212 11.0082 11.5238 11.0068L13.1089 10.1533L8.69119 8.69059ZM8.45094 7.9441C8.4508 7.94338 8.45075 7.94306 8.45076 7.94309L8.45094 7.9441Z" fill="#314362"/>
</svg>
