<svg width="16" height="16" viewBox="0 0 16 16" fill="none" xmlns="http://www.w3.org/2000/svg">
<g clip-path="url(#clip0_637_29887)">
<g clip-path="url(#clip1_637_29887)">
<path fill-rule="evenodd" clip-rule="evenodd" d="M8.16156 0.656967C7.94009 0.656967 7.72325 0.720324 7.53663 0.83956C7.35239 0.957272 7.20519 1.12459 7.11191 1.3222L5.34009 4.8993C5.3366 4.90633 5.33327 4.91343 5.33009 4.92061C5.32929 4.92238 5.32804 4.92393 5.32647 4.92508C5.3249 4.92623 5.32305 4.92696 5.32111 4.92717C5.31432 4.92792 5.30753 4.9288 5.30077 4.9298L1.39945 5.50777C1.18382 5.52874 0.978199 5.60966 0.805973 5.74158C0.627768 5.87808 0.492966 6.06333 0.417899 6.27488C0.342832 6.48643 0.330719 6.71521 0.383029 6.93352C0.435135 7.15096 0.548939 7.34872 0.710732 7.50301L3.56651 10.2584L3.57301 10.2646C3.57709 10.2684 3.58015 10.2731 3.58192 10.2784C3.58368 10.2837 3.58409 10.2894 3.58311 10.2949L3.58249 10.2985L2.90197 14.2811C2.86459 14.497 2.88826 14.7199 2.97064 14.9228C3.05312 15.1262 3.19103 15.3022 3.36863 15.431C3.54624 15.5597 3.75642 15.636 3.97525 15.6512C4.19366 15.6664 4.41194 15.6201 4.60535 15.5176L4.60653 15.5169L8.12157 13.6592C8.13417 13.6538 8.14779 13.6509 8.16158 13.6509C8.17536 13.6509 8.18898 13.6538 8.20159 13.6592L11.7166 15.5169C11.9101 15.6197 12.1293 15.6665 12.3478 15.6512C12.5667 15.636 12.7768 15.5597 12.9545 15.431C13.1321 15.3022 13.27 15.1262 13.3525 14.9228C13.4349 14.7199 13.4586 14.4981 13.4214 14.2823L13.4211 14.2811L12.7407 10.2985L12.74 10.2949C12.739 10.2894 12.7395 10.2837 12.7412 10.2784C12.7429 10.2732 12.746 10.2684 12.7501 10.2646L12.7566 10.2584L15.6124 7.50298C15.7742 7.34868 15.888 7.15095 15.9401 6.93352C15.9923 6.71521 15.9803 6.48643 15.9052 6.27488C15.8302 6.06333 15.6954 5.87808 15.5171 5.74158C15.3449 5.60966 15.1393 5.52874 14.9237 5.50777L11.0224 4.9298C11.0156 4.9288 11.0088 4.92792 11.002 4.92717C11.0001 4.92696 10.9982 4.92623 10.9966 4.92508C10.9951 4.92393 10.9938 4.92238 10.993 4.92061C10.9899 4.91343 10.9865 4.90633 10.983 4.8993L9.2112 1.32218C9.11792 1.12458 8.97072 0.957268 8.78649 0.83956C8.59986 0.720324 8.38302 0.656967 8.16156 0.656967Z" fill="#FFCF24"/>
</g>
</g>
<defs>
<clipPath id="clip0_637_29887">
<rect width="16" height="16" fill="white"/>
</clipPath>
<clipPath id="clip1_637_29887">
<rect width="16" height="16" fill="white"/>
</clipPath>
</defs>
</svg>
