<svg width="32" height="32" viewBox="0 0 32 32" fill="none" xmlns="http://www.w3.org/2000/svg">
<g id="star-01">
<path id="Icon" d="M15.0435 4.6044C15.3508 3.98182 15.5045 3.67052 15.7131 3.57106C15.8946 3.48453 16.1054 3.48453 16.2869 3.57106C16.4955 3.67052 16.6492 3.98182 16.9565 4.6044L19.872 10.511C19.9628 10.6948 20.0081 10.7867 20.0744 10.8581C20.1331 10.9213 20.2035 10.9724 20.2817 11.0088C20.37 11.0499 20.4714 11.0647 20.6743 11.0943L27.1959 12.0476C27.8827 12.148 28.2261 12.1982 28.385 12.3659C28.5233 12.5118 28.5883 12.7124 28.562 12.9117C28.5317 13.1408 28.2831 13.3829 27.7859 13.8672L23.0686 18.4619C22.9215 18.6051 22.848 18.6767 22.8005 18.7619C22.7585 18.8374 22.7316 18.9203 22.7212 19.006C22.7094 19.1028 22.7268 19.204 22.7615 19.4063L23.8746 25.8961C23.992 26.5806 24.0507 26.9229 23.9404 27.126C23.8444 27.3027 23.6738 27.4266 23.476 27.4633C23.2488 27.5054 22.9415 27.3438 22.3268 27.0205L16.4965 23.9544C16.3148 23.8589 16.224 23.8111 16.1283 23.7924C16.0436 23.7757 15.9564 23.7757 15.8717 23.7924C15.776 23.8111 15.6852 23.8589 15.5035 23.9544L9.67319 27.0205C9.05851 27.3438 8.75117 27.5054 8.52392 27.4633C8.3262 27.4266 8.15559 27.3027 8.05961 27.126C7.94929 26.9229 8.00799 26.5806 8.12539 25.8961L9.23847 19.4063C9.27318 19.204 9.29053 19.1028 9.27879 19.006C9.26839 18.9203 9.24144 18.8374 9.19943 18.7619C9.15199 18.6767 9.07846 18.6051 8.93141 18.4619L4.21404 13.8672C3.71684 13.3829 3.46825 13.1408 3.43799 12.9117C3.41167 12.7124 3.4767 12.5118 3.61496 12.3659C3.77387 12.1982 4.11725 12.148 4.80402 12.0476L11.3257 11.0943C11.5285 11.0647 11.6299 11.0499 11.7182 11.0088C11.7964 10.9724 11.8668 10.9213 11.9255 10.8581C11.9918 10.7867 12.0372 10.6948 12.1279 10.511L15.0435 4.6044Z" stroke="white" stroke-width="1.5" stroke-linecap="round" stroke-linejoin="round"/>
</g>
</svg>
