<svg width="30" height="30" viewBox="0 0 30 30" fill="none" xmlns="http://www.w3.org/2000/svg">
<rect width="30" height="30" rx="15" fill="#FFA502"/>
<g clip-path="url(#clip0_7043_91027)">
<path fill-rule="evenodd" clip-rule="evenodd" d="M10.7057 9.85352C10.715 9.85352 10.7243 9.85352 10.7337 9.85352L19.5879 9.85352L19.6159 9.85352C19.9566 9.8535 20.2562 9.85349 20.5042 9.87375C20.7677 9.89528 21.0381 9.94337 21.3008 10.0772C21.6869 10.2739 22.0008 10.5878 22.1975 10.974C22.3314 11.2366 22.3795 11.5071 22.401 11.7706C22.4212 12.0185 22.4212 12.3182 22.4212 12.6588V12.6868V13.8587V17.6348V17.6628C22.4212 18.0034 22.4212 18.3031 22.401 18.551C22.3795 18.8145 22.3314 19.085 22.1975 19.3476C22.0008 19.7338 21.6869 20.0477 21.3008 20.2444C21.0381 20.3782 20.7677 20.4263 20.5042 20.4479C20.2562 20.4681 19.9566 20.4681 19.6159 20.4681H19.5879L10.7337 20.4681H10.7057C10.365 20.4681 10.0654 20.4681 9.81744 20.4479C9.55394 20.4263 9.28346 20.3782 9.02085 20.2444C8.63472 20.0477 8.3208 19.7338 8.12406 19.3476C7.99025 19.085 7.94215 18.8145 7.92062 18.551C7.90036 18.3031 7.90038 18.0034 7.90039 17.6628L7.90039 17.6348L7.90039 13.8591C7.90039 13.859 7.90039 13.8589 7.90039 13.8587C7.90039 13.8586 7.90039 13.8585 7.90039 13.8583V12.6868C7.90039 12.6775 7.90039 12.6681 7.90039 12.6588C7.90038 12.3182 7.90036 12.0185 7.92062 11.7706C7.94215 11.5071 7.99025 11.2366 8.12406 10.974C8.3208 10.5878 8.63472 10.2739 9.02085 10.0772C9.28346 9.94337 9.55394 9.89528 9.81744 9.87375C10.0654 9.85349 10.3651 9.8535 10.7057 9.85352ZM9.40039 14.6087V17.6348C9.40039 18.0118 9.40098 18.2494 9.41564 18.4289C9.42959 18.5996 9.45246 18.6507 9.46057 18.6666C9.5135 18.7705 9.59795 18.855 9.70183 18.9079C9.71775 18.916 9.76885 18.9389 9.93959 18.9528C10.1191 18.9675 10.3567 18.9681 10.7337 18.9681L19.5879 18.9681C19.9649 18.9681 20.2025 18.9675 20.382 18.9528C20.5528 18.9389 20.6039 18.916 20.6198 18.9079C20.7237 18.855 20.8081 18.7705 20.861 18.6666C20.8691 18.6507 20.892 18.5996 20.906 18.4289C20.9206 18.2494 20.9212 18.0118 20.9212 17.6348V14.6087H9.40039ZM20.9212 13.1087H9.40039V12.6868C9.40039 12.3099 9.40098 12.0722 9.41564 11.8927C9.42959 11.722 9.45246 11.6709 9.46057 11.655C9.5135 11.5511 9.59795 11.4666 9.70183 11.4137C9.71775 11.4056 9.76885 11.3827 9.93959 11.3688C10.1191 11.3541 10.3567 11.3535 10.7337 11.3535L19.5879 11.3535C19.9649 11.3535 20.2025 11.3541 20.382 11.3688C20.5528 11.3827 20.6039 11.4056 20.6198 11.4137C20.7237 11.4666 20.8081 11.5511 20.861 11.655C20.8691 11.6709 20.892 11.722 20.906 11.8927C20.9206 12.0722 20.9212 12.3099 20.9212 12.6868V13.1087ZM10.5046 16.4629C10.5046 16.0487 10.8403 15.7129 11.2546 15.7129H14.5098C14.924 15.7129 15.2598 16.0487 15.2598 16.4629C15.2598 16.8771 14.924 17.2129 14.5098 17.2129H11.2546C10.8403 17.2129 10.5046 16.8771 10.5046 16.4629Z" fill="#FCFDFF"/>
</g>
<defs>
<clipPath id="clip0_7043_91027">
<rect width="16" height="16" fill="white" transform="translate(7 7)"/>
</clipPath>
</defs>
</svg>
