<svg width="48" height="48" viewBox="0 0 48 48" fill="none" xmlns="http://www.w3.org/2000/svg">
<g clip-path="url(#clip0_1634_36177)">
<path d="M24 48C37.2548 48 48 37.2548 48 24C48 10.7452 37.2548 0 24 0C10.7452 0 0 10.7452 0 24C0 37.2548 10.7452 48 24 48Z" fill="#4BD394"/>
<path fill-rule="evenodd" clip-rule="evenodd" d="M35.6087 14.2778C36.7178 15.165 36.8975 16.7831 36.0102 17.8921L22.296 35.0348C21.4284 36.1196 19.8563 36.3191 18.7452 35.4857L11.8881 30.3429C10.752 29.4908 10.5217 27.879 11.3738 26.7429C12.2259 25.6068 13.8377 25.3765 14.9738 26.2286L19.8371 29.8761L31.9944 14.6794C32.8816 13.5704 34.4999 13.3906 35.6087 14.2778Z" fill="#FCFDFF"/>
</g>
<defs>
<clipPath id="clip0_1634_36177">
<rect width="48" height="48" fill="white"/>
</clipPath>
</defs>
</svg>
