<svg width="16" height="17" viewBox="0 0 16 17" fill="none" xmlns="http://www.w3.org/2000/svg">
<g clip-path="url(#clip0_4207_38923)">
<g clip-path="url(#clip1_4207_38923)">
<path d="M16 14.7857V11.3571C16 10.9025 15.8194 10.4664 15.4979 10.145C15.1765 9.82347 14.7403 9.64285 14.2857 9.64285H3.42857C2.51926 9.64285 1.64719 10.0041 1.0042 10.6471C0.685833 10.9654 0.433287 11.3434 0.260984 11.7594C0.0886819 12.1753 1.96809e-08 12.6211 0 13.0714C-3.97473e-08 13.9807 0.361223 14.8528 1.0042 15.4958C1.64719 16.1387 2.51926 16.5 3.42857 16.5H14.2857C14.7403 16.5 15.1765 16.3194 15.4979 15.9979C15.8194 15.6765 16 15.2403 16 14.7857Z" fill="#002462"/>
<path d="M14.1015 4.82295L11.6771 2.39859C11.3557 2.0771 10.9196 1.89648 10.465 1.89648C10.0103 1.89648 9.57429 2.0771 9.25279 2.39859L1.00421 10.6472C0.361224 11.2902 4.33511e-07 12.1623 0 13.0715C4.81678e-07 13.5218 0.0886827 13.9677 0.260984 14.3837C0.433286 14.7995 0.685833 15.1775 1.00421 15.4959C1.64719 16.1389 2.51926 16.5001 3.42857 16.5001C4.33789 16.5001 5.20995 16.1389 5.85294 15.4959L14.1015 7.24732C14.423 6.92583 14.6037 6.4898 14.6037 6.03514C14.6037 5.58048 14.423 5.14445 14.1015 4.82295Z" fill="#FFA502"/>
<path d="M5.14286 0.5H1.71429C1.25963 0.5 0.823593 0.680611 0.502103 1.0021C0.180611 1.32359 0 1.75963 0 2.21429V13.0714C0 13.9807 0.361223 14.8528 1.00421 15.4958C1.32258 15.8142 1.70054 16.0667 2.11651 16.239C2.53249 16.4113 2.97832 16.5 3.42857 16.5C4.33789 16.5 5.20995 16.1387 5.85294 15.4958C6.49592 14.8528 6.85714 13.9807 6.85714 13.0714V2.21429C6.85714 1.75962 6.67653 1.32359 6.35504 1.0021C6.03355 0.680611 5.59751 0.5 5.14286 0.5Z" fill="#002462"/>
<path fill-rule="evenodd" clip-rule="evenodd" d="M1.59484 4.35658C1.20035 4.35658 0.880554 4.67638 0.880554 5.07087C0.880554 5.46536 1.20035 5.78515 1.59484 5.78515H5.26232C5.65681 5.78515 5.9766 5.46536 5.9766 5.07087C5.9766 4.67638 5.65681 4.35658 5.26232 4.35658H1.59484ZM1.59484 9.5C1.20035 9.5 0.880554 9.81979 0.880554 10.2143C0.880554 10.6088 1.20035 10.9286 1.59484 10.9286H5.26232C5.65681 10.9286 5.9766 10.6088 5.9766 10.2143C5.9766 9.81979 5.65681 9.5 5.26232 9.5H1.59484Z" fill="#FFA502"/>
</g>
</g>
<defs>
<clipPath id="clip0_4207_38923">
<rect width="16" height="16" fill="white" transform="translate(0 0.5)"/>
</clipPath>
<clipPath id="clip1_4207_38923">
<rect width="16" height="16" fill="white" transform="translate(0 0.5)"/>
</clipPath>
</defs>
</svg>
