<svg width="16" height="16" viewBox="0 0 16 16" fill="none" xmlns="http://www.w3.org/2000/svg">
<g clip-path="url(#clip0_1213_59996)">
<g clip-path="url(#clip1_1213_59996)">
<path fill-rule="evenodd" clip-rule="evenodd" d="M1.71429 1.71429C0.767512 1.71429 0 2.4818 0 3.42858V12.5714C0 13.5182 0.767512 14.2857 1.71429 14.2857H14.2857C15.2325 14.2857 16 13.5182 16 12.5714V3.42858C16 2.4818 15.2325 1.71429 14.2857 1.71429H1.71429Z" fill="#002462"/>
<path fill-rule="evenodd" clip-rule="evenodd" d="M4.28516 4.57141C3.18058 4.57141 2.28516 5.46684 2.28516 6.57141C2.28516 7.67598 3.18058 8.57141 4.28516 8.57141H11.7137C12.8183 8.57141 13.7137 7.67598 13.7137 6.57141C13.7137 5.46684 12.8183 4.57141 11.7137 4.57141H4.28516ZM3.42801 6.57141C3.42801 6.09803 3.81177 5.71427 4.28516 5.71427H5.33062C5.54879 5.90739 5.69188 6.18147 5.71373 6.48889V6.65381C5.69188 6.9613 5.54873 7.23542 5.33048 7.42855H4.28516C3.81177 7.42855 3.42801 7.04479 3.42801 6.57141ZM10.2852 6.65381C10.307 6.9613 10.4502 7.23542 10.6684 7.42855H11.7137C12.1872 7.42855 12.5708 7.04479 12.5708 6.57141C12.5708 6.09803 12.1872 5.71427 11.7137 5.71427H10.6683C10.4501 5.90739 10.307 6.18147 10.2852 6.48889V6.65381Z" fill="#FFA502"/>
<path d="M5.55515 10.8622C5.35516 10.8622 5.17532 10.9839 5.10105 11.1696L4.12288 13.6151C4.0626 13.7657 4.08099 13.9365 4.17199 14.0709C4.26297 14.2053 4.41468 14.2859 4.57698 14.2859H11.4242C11.5865 14.2859 11.7382 14.2053 11.8292 14.0709C11.9202 13.9365 11.9386 13.7657 11.8783 13.6151L10.9001 11.1696C10.8259 10.9839 10.646 10.8622 10.446 10.8622H5.55515Z" fill="#FFA502"/>
</g>
</g>
<defs>
<clipPath id="clip0_1213_59996">
<rect width="16" height="16" fill="white"/>
</clipPath>
<clipPath id="clip1_1213_59996">
<rect width="16" height="16" fill="white"/>
</clipPath>
</defs>
</svg>
