<svg width="30" height="30" viewBox="0 0 30 30" fill="none" xmlns="http://www.w3.org/2000/svg">
<rect width="30" height="30" rx="15" fill="#FFA502"/>
<g clip-path="url(#clip0_7040_223415)">
<path fill-rule="evenodd" clip-rule="evenodd" d="M13.5332 10.0508C12.5092 10.0508 11.679 10.8809 11.679 11.9049C11.679 12.929 12.5092 13.7591 13.5332 13.7591C14.5572 13.7591 15.3874 12.929 15.3874 11.9049C15.3874 10.8809 14.5572 10.0508 13.5332 10.0508ZM10.179 11.9049C10.179 10.0525 11.6807 8.55078 13.5332 8.55078C15.3857 8.55078 16.8874 10.0525 16.8874 11.9049C16.8874 13.7574 15.3857 15.2591 13.5332 15.2591C11.6807 15.2591 10.179 13.7574 10.179 11.9049ZM16.7442 9.20867C16.8997 8.82472 17.3369 8.63945 17.7209 8.79487C18.9487 9.29189 19.817 10.4961 19.817 11.9049C19.817 13.3138 18.9487 14.518 17.7209 15.015C17.3369 15.1704 16.8997 14.9852 16.7442 14.6012C16.5888 14.2173 16.7741 13.78 17.158 13.6246C17.8389 13.349 18.317 12.6819 18.317 11.9049C18.317 11.128 17.8389 10.4609 17.158 10.1853C16.7741 10.0299 16.5888 9.59262 16.7442 9.20867ZM12.5304 16.3633H12.5566H15.1608C15.575 16.3633 15.9108 16.6991 15.9108 17.1133C15.9108 17.5275 15.575 17.8633 15.1608 17.8633H12.5566C11.9397 17.8633 11.5145 17.8637 11.1828 17.8863C10.8578 17.9085 10.6777 17.9495 10.545 18.0044C10.0907 18.1926 9.72972 18.5536 9.54153 19.0079C9.48658 19.1405 9.4456 19.3207 9.42343 19.6457C9.4008 19.9774 9.40039 20.4026 9.40039 21.0195C9.40039 21.4337 9.0646 21.7695 8.65039 21.7695C8.23618 21.7695 7.90039 21.4337 7.90039 21.0195L7.90039 20.9933C7.90038 20.4089 7.90038 19.9324 7.92691 19.5436C7.95429 19.1422 8.01243 18.7798 8.15571 18.4339C8.49614 17.612 9.14911 16.959 9.97097 16.6186C10.3169 16.4753 10.6793 16.4172 11.0807 16.3898C11.4695 16.3633 11.946 16.3633 12.5304 16.3633ZM19.7181 16.3633C20.1323 16.3633 20.4681 16.6991 20.4681 17.1133V18.3164H21.6712C22.0854 18.3164 22.4212 18.6522 22.4212 19.0664C22.4212 19.4806 22.0854 19.8164 21.6712 19.8164H20.4681V21.0195C20.4681 21.4337 20.1323 21.7695 19.7181 21.7695C19.3039 21.7695 18.9681 21.4337 18.9681 21.0195V19.8164H17.765C17.3507 19.8164 17.015 19.4806 17.015 19.0664C17.015 18.6522 17.3507 18.3164 17.765 18.3164H18.9681V17.1133C18.9681 16.6991 19.3039 16.3633 19.7181 16.3633Z" fill="#FCFDFF"/>
</g>
<defs>
<clipPath id="clip0_7040_223415">
<rect width="16" height="16" fill="white" transform="translate(7 7)"/>
</clipPath>
</defs>
</svg>
