<svg width="16" height="16" viewBox="0 0 16 16" fill="none" xmlns="http://www.w3.org/2000/svg">
<g id="user-multiple-circle--close-geometric-human-multiple-person-up-user-circle">
<path id="Union" fill-rule="evenodd" clip-rule="evenodd" d="M8 0C12.4183 0 16 3.58173 16 8C16 12.4183 12.4183 16 8 16C3.58173 16 0 12.4183 0 8C0 3.58173 3.58173 0 8 0Z" fill="#002462"/>
<path id="Intersect" fill-rule="evenodd" clip-rule="evenodd" d="M10.0009 15.7476C9.3614 15.9122 8.69093 15.9998 8.00001 15.9998C5.12856 15.9998 2.61044 14.487 1.19922 12.2149C2.16161 10.8702 3.50442 9.92836 5.22386 9.92836C8.18013 9.92836 9.73792 12.3646 9.9612 15.0386C9.98035 15.2679 9.99572 15.509 10.0009 15.7476ZM14.942 11.9786C14.0828 13.4745 12.7538 14.6663 11.1566 15.3529C11.1899 15.2103 11.2016 15.061 11.1889 14.9094C11.0662 13.4398 10.5719 11.9444 9.60578 10.7863C9.55398 10.7242 9.50097 10.6632 9.44673 10.6035C10.0447 10.3009 10.7063 10.1426 11.3782 10.1426C12.1121 10.1426 12.8336 10.3314 13.4735 10.6909C13.7503 10.8463 14.0077 11.0315 14.2416 11.2422L14.942 11.9786ZM7.97065 6.27198C7.97065 4.85485 6.82185 3.70605 5.40474 3.70605C3.98762 3.70605 2.83882 4.85485 2.83882 6.27198C2.83882 7.6891 3.98762 8.83789 5.40474 8.83789C6.82185 8.83789 7.97065 7.6891 7.97065 6.27198ZM11.3577 4.89105C12.5318 4.89105 13.4834 5.8428 13.4834 7.01684C13.4834 8.19089 12.5318 9.14264 11.3577 9.14264C10.1837 9.14264 9.2319 8.19089 9.2319 7.01684C9.2319 5.8428 10.1837 4.89105 11.3577 4.89105Z" fill="#FFA502"/>
</g>
</svg>
