<svg width="30" height="30" viewBox="0 0 30 30" fill="none" xmlns="http://www.w3.org/2000/svg">
<rect width="30" height="30" rx="15" fill="#002462"/>
<g clip-path="url(#clip0_7030_223399)">
<path fill-rule="evenodd" clip-rule="evenodd" d="M13.5332 10.0508C12.5092 10.0508 11.679 10.8809 11.679 11.9049C11.679 12.929 12.5092 13.7591 13.5332 13.7591C14.5572 13.7591 15.3874 12.929 15.3874 11.9049C15.3874 10.8809 14.5572 10.0508 13.5332 10.0508ZM10.179 11.9049C10.179 10.0525 11.6807 8.55078 13.5332 8.55078C15.3857 8.55078 16.8874 10.0525 16.8874 11.9049C16.8874 13.7574 15.3857 15.2591 13.5332 15.2591C11.6807 15.2591 10.179 13.7574 10.179 11.9049ZM16.7442 9.20867C16.8997 8.82472 17.3369 8.63945 17.7209 8.79487C18.9487 9.29189 19.817 10.4961 19.817 11.9049C19.817 12.3192 19.4813 12.6549 19.067 12.6549C18.6528 12.6549 18.317 12.3192 18.317 11.9049C18.317 11.128 17.8389 10.4609 17.158 10.1853C16.7741 10.0299 16.5888 9.59262 16.7442 9.20867ZM19.5133 14.6298C20.1657 13.9774 21.2236 13.9774 21.876 14.6298C22.5285 15.2822 22.5285 16.3401 21.876 16.9926L17.5417 21.3268C17.5361 21.3324 17.5303 21.3383 17.5243 21.3443C17.4607 21.4083 17.3731 21.4962 17.2689 21.5689C17.1787 21.6318 17.0814 21.6839 16.979 21.7241C16.8607 21.7705 16.739 21.7945 16.6505 21.812C16.6421 21.8137 16.634 21.8153 16.6262 21.8168L15.3078 22.0805C15.0619 22.1297 14.8077 22.0527 14.6304 21.8753C14.4531 21.698 14.3761 21.4438 14.4253 21.1979L14.689 19.8795C14.6906 19.8718 14.6922 19.8637 14.6938 19.8553C14.7113 19.7668 14.7354 19.6451 14.7818 19.5268C14.8219 19.4244 14.874 19.3271 14.9369 19.2369C15.0096 19.1327 15.0975 19.0452 15.1615 18.9816C15.1675 18.9755 15.1734 18.9697 15.179 18.9641L19.5133 14.6298ZM20.8154 15.6905C20.7487 15.6238 20.6406 15.6238 20.5739 15.6905L16.2396 20.0248L16.1884 20.0762C16.1843 20.0804 16.1807 20.084 16.1775 20.0873C16.1765 20.0919 16.1754 20.0969 16.1743 20.1026L16.1599 20.1738L16.1168 20.389L16.3321 20.3459L16.4033 20.3315C16.4089 20.3304 16.414 20.3293 16.4185 20.3283C16.4218 20.3251 16.4255 20.3215 16.4296 20.3174L16.4811 20.2662L20.8154 15.9319C20.8821 15.8653 20.8821 15.7571 20.8154 15.6905ZM12.5304 16.3633H12.5566H14.5098C14.924 16.3633 15.2598 16.6991 15.2598 17.1133C15.2598 17.5275 14.924 17.8633 14.5098 17.8633H12.5566C11.9397 17.8633 11.5145 17.8637 11.1828 17.8863C10.8578 17.9085 10.6777 17.9495 10.545 18.0044C10.0907 18.1926 9.72972 18.5536 9.54153 19.0079C9.48658 19.1405 9.4456 19.3207 9.42343 19.6457C9.4008 19.9774 9.40039 20.4026 9.40039 21.0195C9.40039 21.4337 9.0646 21.7695 8.65039 21.7695C8.23618 21.7695 7.90039 21.4337 7.90039 21.0195L7.90039 20.9933C7.90038 20.4089 7.90038 19.9324 7.92691 19.5436C7.95429 19.1422 8.01243 18.7798 8.15571 18.4339C8.49614 17.612 9.14911 16.959 9.97097 16.6186C10.3169 16.4753 10.6793 16.4172 11.0807 16.3898C11.4695 16.3633 11.946 16.3633 12.5304 16.3633Z" fill="#FCFDFF"/>
</g>
<defs>
<clipPath id="clip0_7030_223399">
<rect width="16" height="16" fill="white" transform="translate(7 7)"/>
</clipPath>
</defs>
</svg>
