<svg width="16" height="16" viewBox="0 0 16 16" fill="none" xmlns="http://www.w3.org/2000/svg">
<path fill-rule="evenodd" clip-rule="evenodd" d="M1.77776 14.227C0.83099 14.227 0.0634766 13.4594 0.0634766 12.5127V10.2286C0.0634766 9.96877 0.238779 9.74164 0.490139 9.67582C1.23394 9.48102 1.78205 8.80366 1.78205 7.99973C1.78205 7.1958 1.23395 6.51844 0.490139 6.32365C0.238779 6.25782 0.0634766 6.0307 0.0634766 5.77086V3.48675C0.0634766 2.53998 0.830987 1.77246 1.77776 1.77246H14.2217C15.1685 1.77246 15.936 2.53997 15.936 3.48675V5.77596C15.936 6.03396 15.7632 6.25995 15.5141 6.32747C14.7776 6.52718 14.2365 7.20101 14.2365 7.99973C14.2365 8.79846 14.7776 9.47228 15.5141 9.67199C15.7632 9.73951 15.936 9.96551 15.936 10.2235V12.5127C15.936 13.4594 15.1685 14.227 14.2217 14.227H1.77776Z" fill="#002462"/>
<path fill-rule="evenodd" clip-rule="evenodd" d="M11.263 14.227H9.83447V12.267C9.83447 11.8725 10.1543 11.5527 10.5488 11.5527C10.9432 11.5527 11.263 11.8725 11.263 12.267V14.227ZM11.263 1.77246V3.74195C11.263 4.13644 10.9432 4.45623 10.5488 4.45623C10.1543 4.45623 9.83447 4.13644 9.83447 3.74195V1.77246H11.263ZM11.263 6.84693C11.263 6.45244 10.9432 6.13264 10.5488 6.13264C10.1543 6.13264 9.83447 6.45244 9.83447 6.84693V9.15099C9.83447 9.54547 10.1543 9.86527 10.5488 9.86527C10.9432 9.86527 11.263 9.54547 11.263 9.15099V6.84693Z" fill="#FFA502"/>
</svg>
