<svg width="46" height="46" viewBox="0 0 46 46" fill="none" xmlns="http://www.w3.org/2000/svg">
<path d="M0 23C0 10.2975 10.2975 0 23 0C35.7025 0 46 10.2975 46 23C46 35.7025 35.7025 46 23 46C10.2975 46 0 35.7025 0 23Z" fill="#FD6F8E"/>
<path fill-rule="evenodd" clip-rule="evenodd" d="M12.0029 13.1797C12.0029 12.5288 12.5306 12.0011 13.1815 12.0011H18.5002C18.529 12.0011 18.5576 12.0021 18.5859 12.0042H27.4206C27.4489 12.0021 27.4772 12.0011 27.5057 12.0011H32.8244C33.4752 12.0011 34.0029 12.5288 34.0029 13.1797V17.5319C34.0029 20.4886 31.8255 22.9367 28.9867 23.36C28.2893 25.5233 26.4515 27.1745 24.1815 27.6051V31.644H28.2914C28.9423 31.644 29.47 32.1716 29.47 32.8225C29.47 33.4734 28.9423 34.0011 28.2914 34.0011H23.0441C23.0305 34.0016 23.0167 34.0019 23.0029 34.0019C22.9891 34.0019 22.9754 34.0016 22.9617 34.0011H17.7145C17.0636 34.0011 16.5359 33.4734 16.5359 32.8225C16.5359 32.1716 17.0636 31.644 17.7145 31.644H21.8244V27.6051C19.5545 27.1745 17.7166 25.5234 17.0192 23.3602C14.1804 22.9368 12.0029 20.4887 12.0029 17.5321V13.1797ZM16.7172 14.3582V20.8666C15.344 20.3812 14.3601 19.0715 14.3601 17.5321V14.3582H16.7172ZM29.2886 20.8665C30.6619 20.3811 31.6458 19.0714 31.6458 17.5319V14.3582H29.2886V20.8665Z" fill="#FCFDFF"/>
</svg>
