<svg width="16" height="16" viewBox="0 0 16 16" fill="none" xmlns="http://www.w3.org/2000/svg">
<g clip-path="url(#clip0_1078_69757)">
<g clip-path="url(#clip1_1078_69757)">
<mask id="mask0_1078_69757" style="mask-type:luminance" maskUnits="userSpaceOnUse" x="0" y="0" width="16" height="16">
<path d="M0 0H16V16H0V0Z" fill="white"/>
</mask>
<g mask="url(#mask0_1078_69757)">
<path d="M0 0H24V16H0V0Z" fill="#FF0000"/>
<path d="M0 0H12V8H0V0Z" fill="#000095"/>
<path d="M5.13436 4.23105L5.04999 4.5498L5.36561 4.63418L5.30311 4.40293L5.13436 4.23105ZM6.69686 4.40293L6.63436 4.63418L6.94999 4.5498L6.86561 4.23105L6.69686 4.40293ZM5.30311 3.59668L5.13436 3.76855L5.19686 3.9998L5.30311 3.59668Z" fill="white"/>
<path d="M5.1969 4L5.1344 4.23125L5.30315 4.40312L5.1969 4Z" fill="white"/>
<path d="M5.13439 3.76855L4.90314 3.9998L5.13439 4.23105L5.19689 3.9998L5.13439 3.76855ZM5.59689 4.69668L5.76876 4.86543L6.00001 4.80293L5.59689 4.69668ZM6.23126 4.86543L6.55001 4.9498L6.63439 4.63418L6.40314 4.69668L6.23126 4.86543Z" fill="white"/>
<path d="M6.4031 4.69707L6.63435 4.63457L6.69685 4.40332L6.4031 4.69707ZM5.3656 4.63457L5.44998 4.9502L5.76873 4.86582L5.59685 4.69707L5.3656 4.63457ZM5.99998 4.80332L6.23123 4.86582L6.4031 4.69707L5.99998 4.80332Z" fill="white"/>
<path d="M5.76874 4.86572L5.99999 5.09697L6.23124 4.86572L5.99999 4.80322L5.76874 4.86572ZM5.36561 3.36572L5.04999 3.4501L5.13436 3.76885L5.30311 3.59697L5.36561 3.36572ZM5.30311 4.40322L5.36561 4.63447L5.59686 4.69697L5.30311 4.40322ZM6.80311 4.0001L6.86561 3.76885L6.69686 3.59697L6.80311 4.0001Z" fill="white"/>
<path d="M5.59685 3.30322L5.3656 3.36572L5.3031 3.59697L5.59685 3.30322ZM6.69685 3.59697L6.63435 3.36572L6.4031 3.30322L6.69685 3.59697ZM6.8656 4.23135L7.09685 4.0001L6.8656 3.76885L6.8031 4.0001L6.8656 4.23135Z" fill="white"/>
<path d="M6.6969 3.59678L6.40315 3.30303L6.00002 3.19678L5.5969 3.30303L5.30315 3.59678L5.1969 3.9999L5.30315 4.40303L5.5969 4.69678L6.00002 4.80303L6.40315 4.69678L6.6969 4.40303L6.80315 3.9999L6.6969 3.59678Z" fill="white"/>
<path d="M6.69685 4.40293L6.8656 4.23105L6.8031 3.9998L6.69685 4.40293ZM6.8656 3.76855L6.94998 3.4498L6.63435 3.36543L6.69685 3.59668L6.8656 3.76855ZM6.63435 3.36543L6.54998 3.0498L6.23123 3.13418L6.4031 3.30293L6.63435 3.36543ZM5.76873 3.13418L5.44998 3.0498L5.3656 3.36543L5.59685 3.30293L5.76873 3.13418Z" fill="white"/>
<path d="M5.99999 3.19678L5.76874 3.13428L5.59686 3.30303L5.99999 3.19678Z" fill="white"/>
<path d="M6.23124 3.13457L5.99999 2.90332L5.76874 3.13457L5.99999 3.19707L6.23124 3.13457Z" fill="white"/>
<path d="M6.40314 3.30303L6.23126 3.13428L6.00001 3.19678L6.40314 3.30303ZM5.76876 4.86553L5.45001 4.9499L5.59689 5.4999L6.00001 5.09678L5.76876 4.86553ZM5.59689 5.4999L6.00001 6.9999L6.40314 5.4999L6.00001 5.09678L5.59689 5.4999ZM5.36564 4.63428L5.05001 4.5499L4.90314 5.09678L5.45001 4.9499L5.36564 4.63428Z" fill="white"/>
<path d="M4.90314 5.09707L4.50001 6.59707L5.59689 5.5002L5.45001 4.9502L4.90314 5.09707ZM4.50001 4.40332L3.40314 5.5002L4.90314 5.09707L5.05001 4.5502L4.50001 4.40332Z" fill="white"/>
<path d="M5.13438 4.23145L4.90312 4.0002L4.5 4.40332L5.05 4.5502L5.13438 4.23145ZM5.13438 3.76895L5.05 3.4502L4.5 3.59707L4.90312 4.0002L5.13438 3.76895Z" fill="white"/>
<path d="M4.5 3.59668L3 3.9998L4.5 4.40293L4.90312 3.9998L4.5 3.59668ZM7.5 4.40293L6.95 4.5498L7.09688 5.09668L8.59688 5.4998L7.5 4.40293Z" fill="white"/>
<path d="M6.63438 4.63457L6.55 4.9502L7.09688 5.09707L6.95 4.5502L6.63438 4.63457ZM6.23125 4.86582L6 5.09707L6.40312 5.5002L6.55 4.9502L6.23125 4.86582ZM6.86562 4.23145L6.95 4.5502L7.5 4.40332L7.09688 4.0002L6.86562 4.23145ZM6.40312 5.5002L7.5 6.59707L7.09688 5.09707L6.55 4.9502L6.40312 5.5002ZM6.63438 3.36582L6.95 3.4502L7.09688 2.90332L6.55 3.0502L6.63438 3.36582ZM7.5 3.59707L8.59688 2.5002L7.09688 2.90332L6.95 3.4502L7.5 3.59707ZM7.09688 2.90332L7.5 1.40332L6.40312 2.5002L6.55 3.0502L7.09688 2.90332ZM7.5 4.40332L9 4.0002L7.5 3.59707L7.09688 4.0002L7.5 4.40332Z" fill="white"/>
<path d="M6.86562 3.76895L7.09688 4.0002L7.5 3.59707L6.95 3.4502L6.86562 3.76895ZM5.59688 2.5002L4.5 1.40332L4.90312 2.90332L5.45 3.0502L5.59688 2.5002ZM5.36562 3.36582L5.45 3.0502L4.90312 2.90332L5.05 3.4502L5.36562 3.36582Z" fill="white"/>
<path d="M4.90314 2.90313L3.40314 2.5L4.50001 3.59687L5.05001 3.45L4.90314 2.90313ZM6.23126 3.13438L6.55001 3.05L6.40314 2.5L6.00001 2.90313L6.23126 3.13438Z" fill="white"/>
<path d="M6.40311 2.5L5.99999 1L5.59686 2.5L5.99999 2.90313L6.40311 2.5Z" fill="white"/>
<path d="M5.76876 3.13438L6.00001 2.90313L5.59689 2.5L5.45001 3.05L5.76876 3.13438Z" fill="white"/>
<path d="M5.99999 5.6998C6.93887 5.6998 7.69999 4.93869 7.69999 3.9998C7.69999 3.06092 6.93887 2.2998 5.99999 2.2998C5.0611 2.2998 4.29999 3.06092 4.29999 3.9998C4.29999 4.93869 5.0611 5.6998 5.99999 5.6998Z" fill="#000095"/>
<path d="M6 5.5C6.82843 5.5 7.5 4.82843 7.5 4C7.5 3.17157 6.82843 2.5 6 2.5C5.17157 2.5 4.5 3.17157 4.5 4C4.5 4.82843 5.17157 5.5 6 5.5Z" fill="white"/>
</g>
</g>
</g>
<defs>
<clipPath id="clip0_1078_69757">
<path d="M0 8C0 3.58172 3.58172 0 8 0C12.4183 0 16 3.58172 16 8C16 12.4183 12.4183 16 8 16C3.58172 16 0 12.4183 0 8Z" fill="white"/>
</clipPath>
<clipPath id="clip1_1078_69757">
<rect width="16" height="16" fill="white"/>
</clipPath>
</defs>
</svg>
