<svg width="22" height="22" viewBox="0 0 22 22" fill="none" xmlns="http://www.w3.org/2000/svg">
<g id="user-add-plus--actions-add-close-geometric-human-person-plus-single-up-user">
<path id="Ellipse 337" d="M7.85735 9.42857C10.461 9.42857 12.5716 7.31791 12.5716 4.71429C12.5716 2.11066 10.461 0 7.85735 0C5.25372 0 3.14307 2.11066 3.14307 4.71429C3.14307 7.31791 5.25372 9.42857 7.85735 9.42857Z" fill="#002462"/>
<g id="Vector">
<path id="Vector_2" d="M13.75 13.66C12.3103 12.0288 10.2039 11 7.85714 11C3.51777 11 0 14.5178 0 18.8572C0 19.2911 0.351777 19.6429 0.785714 19.6429H11.4415C10.4753 19.1067 9.82143 18.0762 9.82143 16.8929C9.82143 15.1571 11.2285 13.75 12.9643 13.75H13.75V13.66Z" fill="#002462"/>
</g>
<g id="Vector_2_2">
<path id="Vector_3" fill-rule="evenodd" clip-rule="evenodd" d="M16.8928 11.7856C17.5437 11.7856 18.0714 12.3133 18.0714 12.9642V15.7142H20.8214C21.4722 15.7142 21.9999 16.2419 21.9999 16.8928C21.9999 17.5437 21.4722 18.0714 20.8214 18.0714H18.0714V20.8214C18.0714 21.4722 17.5437 21.9999 16.8928 21.9999C16.2419 21.9999 15.7142 21.4722 15.7142 20.8214V18.0714H12.9642C12.3133 18.0714 11.7856 17.5437 11.7856 16.8928C11.7856 16.2419 12.3133 15.7142 12.9642 15.7142H15.7142V12.9642C15.7142 12.3133 16.2419 11.7856 16.8928 11.7856Z" fill="#FFA502"/>
</g>
</g>
</svg>
