<svg width="22" height="22" viewBox="0 0 22 22" fill="none" xmlns="http://www.w3.org/2000/svg">
<g id="threat-document--bug-document-file-threat-danger">
<path id="Union" fill-rule="evenodd" clip-rule="evenodd" d="M16.7356 11.0183C16.1324 9.96264 14.6101 9.96264 14.0069 11.0183L9.07509 19.649C8.47647 20.6965 9.23289 22 10.4395 22H20.3031C21.5096 22 22.2661 20.6965 21.6674 19.649L16.7356 11.0183Z" fill="#FFA502"/>
<path id="Subtract" fill-rule="evenodd" clip-rule="evenodd" d="M0.690391 0.690391C1.13244 0.248341 1.732 0 2.35714 0H11.7857C11.9941 0 12.194 0.0827804 12.3413 0.230131L17.0557 4.94442C17.2029 5.09176 17.2857 5.29161 17.2857 5.5V9.32226C15.8524 8.19228 13.608 8.49777 12.6132 10.2387L7.68837 18.8571H2.35714C1.73198 18.8571 1.13244 18.6089 0.690391 18.1668C0.248341 17.7248 0 17.1251 0 16.5V2.35714C0 1.732 0.248341 1.13244 0.690391 0.690391Z" fill="#002462"/>
<path id="Union_2" fill-rule="evenodd" clip-rule="evenodd" d="M16.3535 14.9287C16.3535 14.3863 15.9137 13.9465 15.3713 13.9465C14.8289 13.9465 14.3892 14.3863 14.3892 14.9287V16.5001C14.3892 17.0426 14.8289 17.4822 15.3713 17.4822C15.9137 17.4822 16.3535 17.0426 16.3535 16.5001V14.9287ZM15.3713 20.6251C15.9137 20.6251 16.3535 20.1854 16.3535 19.643C16.3535 19.1005 15.9137 18.6608 15.3713 18.6608C14.8289 18.6608 14.3892 19.1005 14.3892 19.643C14.3892 20.1854 14.8289 20.6251 15.3713 20.6251Z" fill="#002462"/>
</g>
</svg>
