<svg width="19" height="20" viewBox="0 0 19 20" fill="none" xmlns="http://www.w3.org/2000/svg">
<g id="upload-file">
<path id="Union" d="M3.07157 0C2.50325 0 1.9582 0.225764 1.55634 0.627629C1.15448 1.02949 0.928711 1.57454 0.928711 2.14286V17.8571C0.928711 18.4254 1.15448 18.9706 1.55634 19.3724C1.9582 19.7743 2.50324 20 3.07157 20H15.9287C16.497 20 17.0421 19.7743 17.444 19.3724C17.8459 18.9706 18.0716 18.4254 18.0716 17.8571V6.42857C18.0716 6.23913 17.9963 6.05744 17.8624 5.9235L12.1481 0.20921C12.0141 0.0752549 11.8324 0 11.643 0H3.07157Z" fill="#000A12"/>
<path id="Union_2" fill-rule="evenodd" clip-rule="evenodd" d="M9.91531 5.05281L9.76683 4.90434C9.59939 4.73689 9.37228 4.64282 9.13549 4.64282C8.89868 4.64282 8.67159 4.73689 8.50414 4.90434L8.35563 5.05284C8.18929 5.16144 8.04696 5.30375 7.93837 5.47009L5.28986 8.11862C5.0345 8.37398 4.95811 8.75801 5.09631 9.09165C5.2345 9.42528 5.56007 9.64282 5.9212 9.64282H7.70693V14.8214C7.70693 15.6104 8.34651 16.25 9.1355 16.25C9.92447 16.25 10.5641 15.6104 10.5641 14.8214V9.64282H12.3498C12.7109 9.64282 13.0365 9.42528 13.1747 9.09165C13.3129 8.75801 13.2365 8.37398 12.9811 8.11862L10.3327 5.47015C10.224 5.30377 10.0817 5.16141 9.91531 5.05281Z" fill="#FFA502"/>
</g>
</svg>
