<svg width="56" height="61" viewBox="0 0 56 61" fill="none" xmlns="http://www.w3.org/2000/svg">
<g clip-path="url(#clip0_840_66245)">
<path d="M17.7148 5.14286C17.7148 2.30254 20.0174 0 22.8577 0H41.7148C44.5551 0 46.8577 2.30254 46.8577 5.14286V34.2857C46.8577 37.1259 44.5551 39.4286 41.7148 39.4286H22.8577C20.0174 39.4286 17.7148 37.1259 17.7148 34.2857V5.14286Z" fill="#FFA502"/>
<path d="M9.14258 13.7143C9.14258 10.874 11.4451 8.57143 14.2854 8.57143H33.1426C35.9829 8.57143 38.2854 10.874 38.2854 13.7143V42.8571C38.2854 45.6974 35.9829 48 33.1426 48H14.2854C11.4451 48 9.14258 45.6974 9.14258 42.8571V13.7143Z" fill="#002462"/>
<path fill-rule="evenodd" clip-rule="evenodd" d="M14.7138 17.1429C14.7138 15.9594 15.6732 15 16.8567 15H30.571C31.7544 15 32.7138 15.9594 32.7138 17.1429C32.7138 18.3263 31.7544 19.2857 30.571 19.2857H16.8567C15.6732 19.2857 14.7138 18.3263 14.7138 17.1429ZM14.7155 25.7143C14.7155 24.5308 15.6749 23.5714 16.8584 23.5714H30.5726C31.7561 23.5714 32.7155 24.5308 32.7155 25.7143C32.7155 26.8978 31.7561 27.8571 30.5726 27.8571H16.8584C15.6749 27.8571 14.7155 26.8978 14.7155 25.7143ZM16.8557 32.1429C15.6723 32.1429 14.7129 33.1022 14.7129 34.2857C14.7129 35.4693 15.6723 36.4286 16.8557 36.4286H23.7129C24.8964 36.4286 25.8557 35.4693 25.8557 34.2857C25.8557 33.1022 24.8964 32.1429 23.7129 32.1429H16.8557Z" fill="#FFA502"/>
</g>
<ellipse cx="28" cy="54.5" rx="27.5" ry="6.5" fill="url(#paint0_radial_840_66245)"/>
<defs>
<radialGradient id="paint0_radial_840_66245" cx="0" cy="0" r="1" gradientUnits="userSpaceOnUse" gradientTransform="translate(28 54.5) scale(22.234 6.5)">
<stop stop-color="#314362" stop-opacity="0.2"/>
<stop offset="1" stop-color="#314362" stop-opacity="0"/>
</radialGradient>
<clipPath id="clip0_840_66245">
<rect width="48" height="48" fill="white" transform="translate(4)"/>
</clipPath>
</defs>
</svg>
