<svg width="16" height="17" viewBox="0 0 16 17" fill="none" xmlns="http://www.w3.org/2000/svg">
<path fill-rule="evenodd" clip-rule="evenodd" d="M6.43938 12.5818C6.52071 12.3546 6.73604 12.203 6.97739 12.203H9.02254C9.26389 12.203 9.47922 12.3546 9.56054 12.5818L10.3453 14.7744H11.4285C11.9019 14.7744 12.2857 15.1582 12.2857 15.6315C12.2857 16.1049 11.9019 16.4887 11.4285 16.4887H4.57138C4.09799 16.4887 3.71423 16.1049 3.71423 15.6315C3.71423 15.1582 4.09799 14.7744 4.57138 14.7744H5.65467L6.43938 12.5818Z" fill="#FFA502"/>
<path fill-rule="evenodd" clip-rule="evenodd" d="M10.6205 5.68783H10.5715V7.92424C10.5715 9.3444 9.42018 10.4957 8.00002 10.4957C6.57986 10.4957 5.42859 9.3444 5.42859 7.92424V5.68783H5.37957C3.59777 5.68783 2.70542 3.53354 3.96536 2.27361L5.17187 1.06709H1.6649C0.745405 1.06709 0 1.8125 0 2.732V11.4022C0 12.3217 0.745406 13.0671 1.6649 13.0671H14.3351C15.2546 13.0671 16 12.3217 16 11.4022V2.732C16 1.8125 15.2546 1.06709 14.3351 1.06709H10.8282L12.0346 2.27361C13.2946 3.53354 12.4023 5.68783 10.6205 5.68783Z" fill="#002462"/>
<path d="M8.40397 0.663312L11.0244 3.28376C11.3844 3.64375 11.1295 4.25925 10.6204 4.25925H9.14277V7.92424C9.14277 8.55541 8.6311 9.06709 7.99991 9.06709C7.36873 9.06709 6.85705 8.55541 6.85705 7.92424V4.25925H5.37946C4.87038 4.25925 4.61542 3.64375 4.97539 3.28376L7.59585 0.663313C7.81901 0.440156 8.18081 0.440156 8.40397 0.663312Z" fill="#FFA502"/>
</svg>
