<svg width="16" height="16" viewBox="0 0 16 16" fill="none" xmlns="http://www.w3.org/2000/svg">
<path d="M2.85711 0C2.40246 0 1.96641 0.180611 1.64493 0.502103C1.32344 0.823593 1.14282 1.25963 1.14282 1.71429V14.2857C1.14282 14.7403 1.32344 15.1765 1.64493 15.4979C1.96641 15.8194 2.40245 16 2.85711 16H13.1428C13.5975 16 14.0336 15.8194 14.3551 15.4979C14.6765 15.1765 14.8571 14.7403 14.8571 14.2857V5.14286C14.8571 4.9913 14.7969 4.84595 14.6898 4.7388L10.1183 0.167368C10.0112 0.0602039 9.8658 0 9.71425 0H2.85711Z" fill="#002462"/>
<path fill-rule="evenodd" clip-rule="evenodd" d="M8.33245 4.04186L8.21366 3.92308C8.0797 3.78912 7.89802 3.71387 7.70858 3.71387C7.51914 3.71387 7.33746 3.78912 7.20351 3.92308L7.0847 4.04188C6.95162 4.12876 6.83776 4.24261 6.75089 4.37568L4.63208 6.49451C4.4278 6.69879 4.36669 7.00602 4.47725 7.27293C4.58779 7.53983 4.84825 7.71387 5.13715 7.71387H6.56574V11.8567C6.56574 12.4879 7.07741 12.9996 7.7086 12.9996C8.33977 12.9996 8.85145 12.4879 8.85145 11.8567V7.71387H10.28C10.5689 7.71387 10.8294 7.53983 10.9399 7.27293C11.0505 7.00602 10.9894 6.69879 10.7851 6.49451L8.66632 4.37573C8.57943 4.24262 8.46556 4.12874 8.33245 4.04186Z" fill="#FFA502"/>
</svg>
