<svg width="48" height="48" viewBox="0 0 48 48" fill="none" xmlns="http://www.w3.org/2000/svg">
<g id="wrapper">
<path id="Union" d="M42 28.7519C42.6904 28.7519 43.25 29.3115 43.25 30.0019V32.456C43.25 34.0898 43.25 35.3927 43.1641 36.4442C43.076 37.5219 42.8915 38.4457 42.46 39.2929C41.7649 40.657 40.6552 41.7667 39.291 42.4618C38.4438 42.8934 37.52 43.0779 36.4424 43.1659C35.3909 43.2518 34.088 43.2519 32.4541 43.2519H15.5459C13.912 43.2519 12.6091 43.2518 11.5576 43.1659C10.48 43.0779 9.5562 42.8934 8.70898 42.4618C7.34481 41.7667 6.23512 40.657 5.54004 39.2929C5.10845 38.4457 4.92398 37.5219 4.83594 36.4442C4.75004 35.3927 4.74999 34.0898 4.75 32.456V30.0019C4.75 29.3115 5.30964 28.7519 6 28.7519C6.69036 28.7519 7.25 29.3115 7.25 30.0019V32.4022C7.25 34.1028 7.25053 35.3034 7.32715 36.2411C7.40257 37.164 7.54543 37.722 7.76758 38.1581C8.22298 39.0519 8.94998 39.7789 9.84375 40.2343C10.2798 40.4564 10.8378 40.5993 11.7607 40.6747C12.6985 40.7513 13.899 40.7519 15.5996 40.7519H32.4004C34.101 40.7519 35.3015 40.7513 36.2393 40.6747C37.1622 40.5993 37.7202 40.4564 38.1562 40.2343C39.05 39.7789 39.777 39.0519 40.2324 38.1581C40.4546 37.722 40.5974 37.164 40.6729 36.2411C40.7495 35.3034 40.75 34.1028 40.75 32.4022V30.0019C40.75 29.3115 41.3096 28.7519 42 28.7519ZM23.1162 5.11807C23.6044 4.62991 24.3956 4.62991 24.8838 5.11807L34.8838 15.1181C35.3719 15.6062 35.3719 16.3975 34.8838 16.8856C34.3956 17.3738 33.6044 17.3738 33.1162 16.8856L25.25 9.01944V30.0019C25.25 30.6922 24.6904 31.2519 24 31.2519C23.3096 31.2519 22.75 30.6922 22.75 30.0019V9.01944L14.8838 16.8856C14.3956 17.3738 13.6044 17.3738 13.1162 16.8856C12.6281 16.3975 12.6281 15.6062 13.1162 15.1181L23.1162 5.11807Z" fill="#7F8A9D"/>
</g>
</svg>
