<svg width="31" height="30" viewBox="0 0 31 30" fill="none" xmlns="http://www.w3.org/2000/svg">
<rect x="0.5" width="30" height="30" rx="15" fill="#002462"/>
<g clip-path="url(#clip0_1298_80180)">
<path fill-rule="evenodd" clip-rule="evenodd" d="M13.94 19.0861C14.0213 18.8589 14.2366 18.7073 14.478 18.7073H16.5232C16.7645 18.7073 16.9798 18.8589 17.0612 19.0861L17.8459 21.2787H18.9291C19.4025 21.2787 19.7863 21.6625 19.7863 22.1358C19.7863 22.6092 19.4025 22.993 18.9291 22.993H12.072C11.5986 22.993 11.2148 22.6092 11.2148 22.1358C11.2148 21.6625 11.5986 21.2787 12.072 21.2787H13.1553L13.94 19.0861Z" fill="#FCFDFF"/>
<path fill-rule="evenodd" clip-rule="evenodd" d="M18.1205 12.1921H18.0715V14.4286C18.0715 15.8487 16.9202 17 15.5 17C14.0799 17 12.9286 15.8487 12.9286 14.4286V12.1921H12.8796C11.0978 12.1921 10.2054 10.0379 11.4654 8.77793L12.6719 7.57141H9.1649C8.2454 7.57141 7.5 8.31682 7.5 9.23631V17.9065C7.5 18.826 8.24541 19.5714 9.1649 19.5714H21.8351C22.7546 19.5714 23.5 18.826 23.5 17.9065V9.23631C23.5 8.31682 22.7546 7.57141 21.8351 7.57141H18.3282L19.5346 8.77793C20.7946 10.0379 19.9023 12.1921 18.1205 12.1921Z" fill="#FCFDFF"/>
<path d="M15.9037 7.16764L18.5242 9.78809C18.8842 10.1481 18.6292 10.7636 18.1201 10.7636H16.6425V14.4286C16.6425 15.0597 16.1309 15.5714 15.4997 15.5714C14.8685 15.5714 14.3568 15.0597 14.3568 14.4286V10.7636H12.8792C12.3701 10.7636 12.1152 10.1481 12.4752 9.78809L15.0956 7.16764C15.3188 6.94449 15.6806 6.94449 15.9037 7.16764Z" fill="#FCFDFF"/>
</g>
<defs>
<clipPath id="clip0_1298_80180">
<rect width="16" height="16" fill="white" transform="translate(7.5 7)"/>
</clipPath>
</defs>
</svg>

