<svg width="16" height="12" viewBox="0 0 16 12" fill="none" xmlns="http://www.w3.org/2000/svg">
<g id="user-identifier-card">
<path id="Rectangle 435" d="M0 1.42801C0 0.796836 0.511674 0.285156 1.14286 0.285156H14.8571C15.4883 0.285156 16 0.796836 16 1.42801V10.5709C16 11.2021 15.4883 11.7137 14.8571 11.7137H1.14286C0.511675 11.7137 0 11.2021 0 10.5709V1.42801Z" fill="#002462"/>
<path id="Union" fill-rule="evenodd" clip-rule="evenodd" d="M5.14274 5.99888C6.08952 5.99888 6.85703 5.23138 6.85703 4.2846C6.85703 3.33782 6.08952 2.57031 5.14274 2.57031C4.19598 2.57031 3.42846 3.33782 3.42846 4.2846C3.42846 5.23138 4.19598 5.99888 5.14274 5.99888ZM1.76755 8.62997C2.60345 7.71541 3.80612 7.14174 5.14278 7.14174C6.47943 7.14174 7.6821 7.71541 8.518 8.62997C8.81491 8.95483 8.55202 9.42746 8.11193 9.42746H2.17362C1.73353 9.42746 1.47064 8.95483 1.76755 8.62997ZM10.1427 4.2846C10.1427 3.89011 10.4625 3.57031 10.857 3.57031H13.1428C13.5373 3.57031 13.857 3.89011 13.857 4.2846C13.857 4.67909 13.5373 4.99888 13.1428 4.99888H10.857C10.4625 4.99888 10.1427 4.67909 10.1427 4.2846ZM10.857 6.99888C10.4625 6.99888 10.1427 7.31868 10.1427 7.71317C10.1427 8.10766 10.4625 8.42746 10.857 8.42746H13.1428C13.5373 8.42746 13.857 8.10766 13.857 7.71317C13.857 7.31868 13.5373 6.99888 13.1428 6.99888H10.857Z" fill="#FFA502"/>
</g>
</svg>
