<svg width="20" height="20" viewBox="0 0 20 20" fill="none" xmlns="http://www.w3.org/2000/svg">
<g id="user-add-plus--actions-add-close-geometric-human-person-plus-single-up-user">
<path id="Ellipse 337" d="M7.14314 8.57143C9.51007 8.57143 11.4289 6.65265 11.4289 4.28571C11.4289 1.91878 9.51007 0 7.14314 0C4.7762 0 2.85742 1.91878 2.85742 4.28571C2.85742 6.65265 4.7762 8.57143 7.14314 8.57143Z" fill="white"/>
<g id="Vector">
<path id="Vector_2" d="M12.5 12.4182C11.1912 10.9353 9.27624 10 7.14286 10C3.19797 10 0 13.198 0 17.1429C0 17.5373 0.319797 17.8572 0.714286 17.8572H10.4014C9.52303 17.3698 8.92857 16.4329 8.92857 15.3572C8.92857 13.7792 10.2078 12.5 11.7857 12.5H12.5V12.4182Z" fill="white"/>
</g>
<g id="Vector_2_2">
<path id="Vector_3" fill-rule="evenodd" clip-rule="evenodd" d="M15.3567 10.7144C15.9484 10.7144 16.4282 11.1941 16.4282 11.7858V14.2858H18.9282C19.5199 14.2858 19.9996 14.7655 19.9996 15.3572C19.9996 15.9489 19.5199 16.4286 18.9282 16.4286H16.4282V18.9286C16.4282 19.5204 15.9484 20.0001 15.3567 20.0001C14.765 20.0001 14.2853 19.5204 14.2853 18.9286V16.4286H11.7853C11.1936 16.4286 10.7139 15.9489 10.7139 15.3572C10.7139 14.7655 11.1936 14.2858 11.7853 14.2858H14.2853V11.7858C14.2853 11.1941 14.765 10.7144 15.3567 10.7144Z" fill="#FFA502"/>
</g>
</g>
</svg>
