<svg width="16" height="16" viewBox="0 0 16 16" fill="none" xmlns="http://www.w3.org/2000/svg">
<g clip-path="url(#clip0_4954_79989)">
<path fill-rule="evenodd" clip-rule="evenodd" d="M6.96094 3.12583C7.62534 1.38079 9.31377 0.141113 11.292 0.141113C13.8506 0.141113 15.9247 2.21528 15.9247 4.7739C15.9247 7.3325 13.8506 9.40667 11.292 9.40667C10.2274 9.40667 9.24595 9.04705 8.46374 8.44343C8.71969 7.89938 8.86277 7.29172 8.86277 6.65065C8.86277 5.1768 8.10654 3.87958 6.96094 3.12583Z" fill="#002462"/>
<path fill-rule="evenodd" clip-rule="evenodd" d="M11.2151 3.34769C10.9012 3.3134 10.4551 3.0769 10.4551 2.53787C10.4551 1.95215 10.9818 1.72363 11.2934 1.72363C11.3205 1.72363 11.3474 1.72515 11.3738 1.7281C11.6877 1.76239 12.1338 1.99889 12.1338 2.53792C12.1338 3.12364 11.6071 3.35216 11.2955 3.35216C11.2683 3.35216 11.2415 3.35064 11.2151 3.34769ZM11.2931 4.34388C11.6876 4.3439 12.0074 4.66369 12.0074 5.05818V7.11001C12.0074 7.50449 11.6875 7.82428 11.2931 7.82428C10.8986 7.82428 10.5788 7.50448 10.5788 7.10999L10.5788 5.05817C10.5788 4.66368 10.8986 4.34388 11.2931 4.34388Z" fill="#FFA502"/>
<path d="M4.64709 9.43848C6.18671 9.43848 7.43481 8.19036 7.43481 6.65075C7.43481 5.11114 6.18671 3.86304 4.64709 3.86304C3.10748 3.86304 1.85938 5.11114 1.85938 6.65075C1.85938 8.19036 3.10748 9.43848 4.64709 9.43848Z" fill="#002462"/>
<path d="M0 15.0138C0 12.4478 2.08017 10.3677 4.64619 10.3677C7.21223 10.3677 9.2924 12.4478 9.2924 15.0138C9.2924 15.2704 9.08438 15.4785 8.82778 15.4785H0.464619C0.208017 15.4785 0 15.2704 0 15.0138Z" fill="#002462"/>
<path fill-rule="evenodd" clip-rule="evenodd" d="M0.0214844 15.1015C0.0214844 14.6282 0.40524 14.2444 0.878627 14.2444H15.1221C15.5955 14.2444 15.9792 14.6282 15.9792 15.1015C15.9792 15.5749 15.5955 15.9587 15.1221 15.9587H0.878627C0.40524 15.9587 0.0214844 15.5749 0.0214844 15.1015Z" fill="#FFA502"/>
</g>
<defs>
<clipPath id="clip0_4954_79989">
<rect width="16" height="16" fill="white"/>
</clipPath>
</defs>
</svg>
