<svg width="16" height="16" viewBox="0 0 16 16" fill="none" xmlns="http://www.w3.org/2000/svg">
<g id="user-circle-single--circle-geometric-human-person-single-user">
<path id="Ellipse 4" d="M8 16C12.4183 16 16 12.4183 16 8C16 3.58172 12.4183 0 8 0C3.58172 0 0 3.58172 0 8C0 12.4183 3.58172 16 8 16Z" fill="#002462"/>
<path id="Ellipse 5" d="M8.00021 8.57122C9.57817 8.57122 10.8574 7.29203 10.8574 5.71408C10.8574 4.13612 9.57817 2.85693 8.00021 2.85693C6.42225 2.85693 5.14307 4.13612 5.14307 5.71408C5.14307 7.29203 6.42225 8.57122 8.00021 8.57122Z" fill="#FFA502"/>
<path id="Subtract" d="M12.8489 12.0001C11.696 10.6041 9.95178 9.71436 7.99985 9.71436C6.04791 9.71436 4.30378 10.6041 3.15088 12.0001C4.30378 13.3961 6.04791 14.2858 7.99985 14.2858C9.95178 14.2858 11.696 13.3961 12.8489 12.0001Z" fill="#FFA502"/>
</g>
</svg>
