<svg width="16" height="16" viewBox="0 0 16 16" fill="none" xmlns="http://www.w3.org/2000/svg">
<g id="user-x-02">
<path id="Icon" d="M11 2.66602L14.3334 5.99935M14.3334 2.66602L11 5.99935M10.6667 13.9993V13.1993C10.6667 12.0792 10.6667 11.5192 10.4487 11.0914C10.257 10.715 9.95101 10.4091 9.57469 10.2173C9.14687 9.99935 8.58681 9.99935 7.46671 9.99935H4.53337C3.41327 9.99935 2.85322 9.99935 2.42539 10.2173C2.04907 10.4091 1.74311 10.715 1.55136 11.0914C1.33337 11.5192 1.33337 12.0792 1.33337 13.1993V13.9993M8.33337 4.99935C8.33337 6.28801 7.28871 7.33268 6.00004 7.33268C4.71138 7.33268 3.66671 6.28801 3.66671 4.99935C3.66671 3.71068 4.71138 2.66602 6.00004 2.66602C7.28871 2.66602 8.33337 3.71068 8.33337 4.99935Z" stroke="#314362" stroke-width="1.5" stroke-linecap="round" stroke-linejoin="round"/>
</g>
</svg>
