<svg width="24" height="24" viewBox="0 0 24 24" fill="none" xmlns="http://www.w3.org/2000/svg">
<g clip-path="url(#clip0_3627_98182)">
<path d="M12 23.9998C18.4625 23.9998 23.0786 21.7102 23.0786 16.6141C23.0786 11.0748 20.309 8.26801 14.7696 5.49836L17.1657 1.75433C17.2596 1.57368 17.3062 1.37207 17.3009 1.16848C17.2954 0.964881 17.2383 0.765996 17.135 0.590542C17.0316 0.41509 16.8852 0.268844 16.7097 0.16557C16.5341 0.062296 16.3352 0.00539271 16.1316 0.000216796H8.30271C8.08555 -0.00391111 7.87131 0.0509772 7.68288 0.15903C7.49444 0.267082 7.33887 0.424248 7.23274 0.613769C7.12661 0.803288 7.0739 1.01806 7.08024 1.23518C7.08656 1.45231 7.15171 1.66364 7.26871 1.84664L9.23033 5.49836C3.69103 8.30494 0.921387 11.1117 0.921387 16.651C0.921387 21.7102 5.53747 23.9998 12 23.9998Z" fill="#002462"/>
<path fill-rule="evenodd" clip-rule="evenodd" d="M11.9998 7.30664C12.5915 7.30664 13.0712 7.78633 13.0712 8.37807V9.46916C13.879 9.55865 14.5971 9.94793 15.1097 10.5207C15.3857 10.8291 15.6037 11.1921 15.7452 11.5924C15.9424 12.1504 15.65 12.7625 15.0921 12.9597C14.5342 13.1569 13.922 12.8645 13.7248 12.3065C13.6782 12.1746 13.6059 12.0535 13.513 11.9498C13.3153 11.7289 13.0314 11.5924 12.7141 11.5924H11.0555C10.5908 11.5924 10.2141 11.969 10.2141 12.4337C10.2141 12.8291 10.4895 13.1711 10.8757 13.2556L13.401 13.808C14.877 14.1309 15.9284 15.4385 15.9284 16.9487C15.9284 18.6027 14.6788 19.9664 13.0712 20.1442V21.2351C13.0712 21.8269 12.5915 22.3066 11.9998 22.3066C11.4081 22.3066 10.9284 21.8269 10.9284 21.2351V20.1442C9.68496 20.0067 8.65723 19.1603 8.25448 18.0208C8.05728 17.4628 8.34969 16.8508 8.9076 16.6536C9.46552 16.4564 10.0777 16.7488 10.2748 17.3067C10.4224 17.7243 10.8207 18.0208 11.2856 18.0208H12.7141C13.3053 18.0208 13.7856 17.5408 13.7856 16.9487C13.7856 16.4448 13.4346 16.0089 12.9431 15.9014L10.4178 15.349C9.04778 15.0493 8.07129 13.8361 8.07129 12.4337C8.07129 10.8282 9.33921 9.51875 10.9284 9.45215V8.37807C10.9284 7.78633 11.4081 7.30664 11.9998 7.30664Z" fill="#FFA502"/>
</g>
<defs>
<clipPath id="clip0_3627_98182">
<rect width="24" height="24" fill="white"/>
</clipPath>
</defs>
</svg>
