<svg width="16" height="16" viewBox="0 0 16 16" fill="none" xmlns="http://www.w3.org/2000/svg">
<g clip-path="url(#clip0_5352_119139)">
<path fill-rule="evenodd" clip-rule="evenodd" d="M8.1608 2.40039C4.97941 2.40039 2.40039 4.97941 2.40039 8.1608C2.40039 11.3422 4.97941 13.9212 8.1608 13.9212C11.3422 13.9212 13.9212 11.3422 13.9212 8.1608C13.9212 4.97941 11.3422 2.40039 8.1608 2.40039ZM0.900391 8.1608C0.900391 4.15099 4.15099 0.900391 8.1608 0.900391C12.1706 0.900391 15.4212 4.15099 15.4212 8.1608C15.4212 12.1706 12.1706 15.4212 8.1608 15.4212C4.15099 15.4212 0.900391 12.1706 0.900391 8.1608ZM11.6208 5.67735C11.9137 5.97024 11.9137 6.44511 11.6208 6.73801L7.71457 10.6443C7.42168 10.9371 6.9468 10.9371 6.65391 10.6443L4.70079 8.69113C4.40789 8.39824 4.40789 7.92336 4.70079 7.63047C4.99368 7.33758 5.46855 7.33758 5.76145 7.63047L7.18424 9.05326L10.5602 5.67735C10.853 5.38445 11.3279 5.38445 11.6208 5.67735Z" fill="#2D7E58"/>
</g>
<defs>
<clipPath id="clip0_5352_119139">
<rect width="16" height="16" fill="white"/>
</clipPath>
</defs>
</svg>
