<svg width="16" height="16" viewBox="0 0 16 16" fill="none" xmlns="http://www.w3.org/2000/svg">
<g clip-path="url(#clip0_5352_119171)">
<path fill-rule="evenodd" clip-rule="evenodd" d="M8.1608 2.40039C4.97941 2.40039 2.40039 4.97941 2.40039 8.1608C2.40039 11.3422 4.97941 13.9212 8.1608 13.9212C11.3422 13.9212 13.9212 11.3422 13.9212 8.1608C13.9212 4.97941 11.3422 2.40039 8.1608 2.40039ZM0.900391 8.1608C0.900391 4.15099 4.15099 0.900391 8.1608 0.900391C12.1706 0.900391 15.4212 4.15099 15.4212 8.1608C15.4212 12.1706 12.1706 15.4212 8.1608 15.4212C4.15099 15.4212 0.900391 12.1706 0.900391 8.1608ZM5.67735 5.67735C5.97024 5.38445 6.44511 5.38445 6.73801 5.67735L8.1608 7.10014L9.58359 5.67735C9.87649 5.38445 10.3514 5.38445 10.6443 5.67735C10.9371 5.97024 10.9371 6.44511 10.6443 6.73801L9.22146 8.1608L10.6443 9.58359C10.9371 9.87649 10.9371 10.3514 10.6443 10.6443C10.3514 10.9371 9.87649 10.9371 9.58359 10.6443L8.1608 9.22146L6.73801 10.6443C6.44511 10.9371 5.97024 10.9371 5.67735 10.6443C5.38445 10.3514 5.38445 9.87649 5.67735 9.58359L7.10014 8.1608L5.67735 6.73801C5.38445 6.44511 5.38445 5.97024 5.67735 5.67735Z" fill="#C84949"/>
</g>
<defs>
<clipPath id="clip0_5352_119171">
<rect width="16" height="16" fill="white"/>
</clipPath>
</defs>
</svg>
