<svg width="48" height="48" viewBox="0 0 48 48" fill="none" xmlns="http://www.w3.org/2000/svg">
<g clip-path="url(#clip0_1106_32657)">
<path fill-rule="evenodd" clip-rule="evenodd" d="M23.9994 0.0200806C23.0529 0.0200806 22.1247 0.281296 21.3171 0.774962C20.5095 1.26863 19.8538 1.97559 19.4223 2.818L19.4146 2.83299L0.559918 40.5425C0.166355 41.3246 -0.0223757 42.1971 0.0142725 43.0721C0.0509635 43.9481 0.310954 44.8001 0.769555 45.5472C1.22816 46.2943 1.87014 46.9118 2.63454 47.341C3.39895 47.7703 4.2604 47.9969 5.13705 47.9996H5.14226H42.8564H42.8616C43.7383 47.9969 44.5999 47.7703 45.3641 47.341C46.1287 46.9118 46.7705 46.2943 47.2292 45.5472C47.688 44.8001 47.9479 43.9481 47.9846 43.0721C48.0212 42.1971 47.8337 41.327 47.4401 40.5449L28.5841 2.83299L28.5765 2.818C28.145 1.97559 27.4893 1.26863 26.6817 0.774962C25.8741 0.281296 24.9459 0.0200806 23.9994 0.0200806Z" fill="#FFCF24"/>
<path fill-rule="evenodd" clip-rule="evenodd" d="M26.5703 16.7143C26.5703 15.2941 25.419 14.1428 23.9989 14.1428C22.5787 14.1428 21.4275 15.2941 21.4275 16.7143V27.8571C21.4275 29.2773 22.5787 30.4285 23.9989 30.4285C25.419 30.4285 26.5703 29.2773 26.5703 27.8571V16.7143ZM23.9989 40.7143C25.8924 40.7143 27.4275 39.1793 27.4275 37.2857C27.4275 35.3921 25.8924 33.8571 23.9989 33.8571C22.1054 33.8571 20.5703 35.3921 20.5703 37.2857C20.5703 39.1793 22.1054 40.7143 23.9989 40.7143Z" fill="#FCFDFF"/>
</g>
<defs>
<clipPath id="clip0_1106_32657">
<rect width="48" height="48" fill="white"/>
</clipPath>
</defs>
</svg>
