<svg width="16" height="16" viewBox="0 0 16 16" fill="none" xmlns="http://www.w3.org/2000/svg">
<g clip-path="url(#clip0_4737_90935)">
<path fill-rule="evenodd" clip-rule="evenodd" d="M6.28571 2.28571C6.28571 3.54808 5.26237 4.57143 4 4.57143C2.73763 4.57143 1.71429 3.54808 1.71429 2.28571C1.71429 1.02335 2.73763 0 4 0C5.26237 0 6.28571 1.02335 6.28571 2.28571ZM6.33705 11.3949V11.4286H6.28571L5.77686 15.4994C5.74111 15.7854 5.49802 16 5.20984 16H2.79016C2.50198 16 2.25889 15.7854 2.22314 15.4994L1.71429 11.4286H0.571429C0.255838 11.4286 0 11.1727 0 10.8571V9.71429C0 8.65342 0.421427 7.636 1.17158 6.88586C1.92171 6.13571 2.93913 5.71429 4 5.71429C5.06087 5.71429 6.07829 6.13571 6.82842 6.88586C7.35022 7.40765 7.71296 8.05875 7.88545 8.76385C6.96192 9.27744 6.33705 10.2632 6.33705 11.3949Z" fill="#002462"/>
<path fill-rule="evenodd" clip-rule="evenodd" d="M11.0594 9.07129C11.0594 8.91348 11.1874 8.78557 11.3451 8.78557H12.3881C12.5458 8.78557 12.6738 8.91348 12.6738 9.07129V9.81514H11.0594V9.07129ZM9.34515 9.81514V9.07129C9.34515 7.96672 10.2406 7.07129 11.3451 7.07129H12.3881C13.4927 7.07129 14.3881 7.96672 14.3881 9.07129V9.81514C15.2603 9.81546 15.9673 10.5227 15.9673 11.395V14.4202C15.9673 15.2927 15.26 16 14.3875 16H9.34547C8.47294 16 7.76562 15.2927 7.76562 14.4202V11.395C7.76562 10.5226 8.47277 9.81532 9.34515 9.81514Z" fill="#FFA502"/>
</g>
<defs>
<clipPath id="clip0_4737_90935">
<rect width="16" height="16" fill="white"/>
</clipPath>
</defs>
</svg>
