<svg width="16" height="16" viewBox="0 0 16 16" fill="none" xmlns="http://www.w3.org/2000/svg">
<g id="hand-held-tablet-writing--tablet-kindle-device-electronics-ipad-writing-digital-paper-notepad">
<path id="Union" fill-rule="evenodd" clip-rule="evenodd" d="M2.134 0.107178C1.0552 0.107178 0.232422 1.00466 0.232422 2.04674V13.9533C0.232422 14.9955 1.0552 15.8928 2.134 15.8928H11.534C12.6129 15.8928 13.4356 14.9955 13.4356 13.9533V2.10718C13.4356 1.00261 12.5402 0.107178 11.4356 0.107178H2.134Z" fill="#002462"/>
<path id="Union_2" fill-rule="evenodd" clip-rule="evenodd" d="M1.0896 11.7144H0.232422L0.232461 12.5715L0.232522 13.9533C0.232543 14.9954 1.05531 15.8929 2.13411 15.8929H11.5341C12.613 15.8929 13.4357 14.9955 13.4357 13.9533L13.4356 12.5715V11.7144H12.5785H1.0896Z" fill="#FFA502"/>
<path id="Union_3" fill-rule="evenodd" clip-rule="evenodd" d="M3.23284 3.43689C2.83836 3.43689 2.51855 3.75668 2.51855 4.15118C2.51855 4.54567 2.83836 4.86546 3.23284 4.86546H6.0846C6.47909 4.86546 6.79889 4.54567 6.79889 4.15118C6.79889 3.75668 6.47909 3.43689 6.0846 3.43689H3.23284ZM3.23284 6.71438C2.83836 6.71438 2.51855 7.03417 2.51855 7.42866C2.51855 7.82315 2.83836 8.14295 3.23284 8.14295H4.65873C5.05322 8.14295 5.37301 7.82315 5.37301 7.42866C5.37301 7.03417 5.05322 6.71438 4.65873 6.71438H3.23284Z" fill="#FFA502"/>
<path id="Vector" d="M10.7453 8.4506C10.6628 8.53356 10.5567 8.58916 10.4416 8.60989L7.98635 9.05182C7.5979 9.12174 7.25721 8.78617 7.32127 8.3967L7.73142 5.90299C7.75089 5.7846 7.80713 5.67535 7.89217 5.59071L12.5956 0.909466C12.7019 0.802348 12.8283 0.717327 12.9675 0.659305C13.1068 0.601283 13.2562 0.571411 13.4071 0.571411C13.5579 0.571411 13.7073 0.601283 13.8466 0.659305C13.9859 0.717327 14.1123 0.802348 14.2185 0.909466L15.4299 2.1209C15.537 2.22714 15.622 2.35354 15.6801 2.49281C15.7381 2.63207 15.768 2.78146 15.768 2.93233C15.768 3.08319 15.7381 3.23258 15.6801 3.37183C15.622 3.5111 15.537 3.63751 15.4299 3.74375L10.7453 8.4506Z" fill="#FFA502"/>
</g>
</svg>
