<svg width="16" height="16" viewBox="0 0 16 16" fill="none" xmlns="http://www.w3.org/2000/svg">
<g id="hand-held-tablet-writing--tablet-kindle-device-electronics-ipad-writing-digital-paper-notepad">
<path id="Union" fill-rule="evenodd" clip-rule="evenodd" d="M2.13352 0.106934C1.05471 0.106934 0.231934 1.00441 0.231934 2.0465V13.953C0.231934 14.9952 1.05471 15.8926 2.13352 15.8926H11.5335C12.6124 15.8926 13.4351 14.9952 13.4351 13.953V2.10693C13.4351 1.00236 12.5397 0.106934 11.4351 0.106934H2.13352Z" fill="#002462"/>
<path id="Union_2" fill-rule="evenodd" clip-rule="evenodd" d="M1.08912 11.7139H0.231934L0.231972 12.571L0.232034 13.9528C0.232055 14.9949 1.05482 15.8924 2.13362 15.8924H11.5336C12.6125 15.8924 13.4352 14.995 13.4352 13.9528L13.4351 12.571V11.7139H12.578H1.08912Z" fill="#FFA502"/>
<path id="Union_3" fill-rule="evenodd" clip-rule="evenodd" d="M3.23186 3.43652C2.83738 3.43652 2.51758 3.75632 2.51758 4.15081C2.51758 4.5453 2.83738 4.86509 3.23186 4.86509H6.08362C6.47812 4.86509 6.79791 4.5453 6.79791 4.15081C6.79791 3.75632 6.47812 3.43652 6.08362 3.43652H3.23186ZM3.23186 6.71401C2.83738 6.71401 2.51758 7.0338 2.51758 7.42829C2.51758 7.82279 2.83738 8.14258 3.23186 8.14258H4.65775C5.05224 8.14258 5.37204 7.82279 5.37204 7.42829C5.37204 7.0338 5.05224 6.71401 4.65775 6.71401H3.23186Z" fill="#FFA502"/>
<path id="Vector" d="M10.7449 8.45048C10.6623 8.53344 10.5563 8.58904 10.4411 8.60977L7.98586 9.0517C7.59741 9.12162 7.25672 8.78604 7.32078 8.39658L7.73093 5.90287C7.7504 5.78448 7.80664 5.67523 7.89168 5.59059L12.5951 0.909344C12.7014 0.802226 12.8278 0.717204 12.967 0.659183C13.1063 0.601161 13.2557 0.571289 13.4066 0.571289C13.5574 0.571289 13.7068 0.601161 13.8461 0.659183C13.9854 0.717204 14.1118 0.802226 14.218 0.909344L15.4294 2.12077C15.5365 2.22701 15.6215 2.35341 15.6796 2.49268C15.7377 2.63195 15.7675 2.78133 15.7675 2.9322C15.7675 3.08307 15.7377 3.23246 15.6796 3.37171C15.6215 3.51098 15.5365 3.63739 15.4294 3.74363L10.7449 8.45048Z" fill="#FFA502"/>
</g>
</svg>
