<svg width="16" height="16" viewBox="0 0 16 16" fill="none" xmlns="http://www.w3.org/2000/svg">
<g id="icon-wrapper" clip-path="url(#clip0_5531_191528)">
<path id="Union" fill-rule="evenodd" clip-rule="evenodd" d="M8.16107 0.65625C7.93961 0.65625 7.72276 0.719607 7.53615 0.838842C7.35191 0.956554 7.20471 1.12387 7.11143 1.32148L5.3396 4.89858C5.33612 4.90561 5.33278 4.91271 5.3296 4.91989C5.3288 4.92166 5.32756 4.92321 5.32598 4.92436C5.32441 4.92551 5.32257 4.92624 5.32062 4.92645C5.31383 4.9272 5.30704 4.92808 5.30028 4.92909L1.39896 5.50705C1.18334 5.52802 0.977711 5.60894 0.805484 5.74086C0.627279 5.87737 0.492478 6.06261 0.417411 6.27416C0.342344 6.48571 0.330231 6.7145 0.38254 6.9328C0.434647 7.15024 0.548451 7.348 0.710243 7.5023L3.56602 10.2577L3.57252 10.2638C3.5766 10.2677 3.57967 10.2724 3.58143 10.2777C3.58319 10.283 3.58361 10.2887 3.58262 10.2942L3.582 10.2978L2.90149 14.2804C2.8641 14.4962 2.88777 14.7192 2.97015 14.9221C3.05264 15.1255 3.19054 15.3015 3.36814 15.4303C3.54575 15.559 3.75593 15.6353 3.97477 15.6505C4.19317 15.6657 4.41145 15.6193 4.60487 15.5169L4.60604 15.5162L8.12108 13.6585C8.13368 13.653 8.14731 13.6501 8.16109 13.6501C8.17487 13.6501 8.18849 13.653 8.2011 13.6585L11.7161 15.5162C11.9096 15.619 12.1288 15.6658 12.3473 15.6505C12.5662 15.6353 12.7764 15.559 12.954 15.4303C13.1316 15.3015 13.2695 15.1255 13.352 14.9221C13.4344 14.7192 13.4582 14.4974 13.4209 14.2816L13.4207 14.2804L12.7402 10.2978L12.7395 10.2942C12.7385 10.2887 12.739 10.283 12.7408 10.2777C12.7424 10.2724 12.7455 10.2677 12.7496 10.2638L12.7562 10.2577L15.612 7.50226C15.7737 7.34797 15.8875 7.15023 15.9396 6.9328C15.9919 6.7145 15.9798 6.48571 15.9047 6.27416C15.8297 6.06261 15.6949 5.87737 15.5166 5.74086C15.3444 5.60894 15.1388 5.52802 14.9232 5.50705L11.0219 4.92909C11.0151 4.92808 11.0083 4.9272 11.0015 4.92645C10.9996 4.92624 10.9977 4.92551 10.9962 4.92436C10.9946 4.92321 10.9933 4.92166 10.9925 4.91989C10.9894 4.91271 10.986 4.90561 10.9825 4.89858L9.21071 1.32146C9.11743 1.12386 8.97023 0.956551 8.786 0.838842C8.59937 0.719607 8.38253 0.65625 8.16107 0.65625Z" fill="#FFCF24"/>
</g>
<defs>
<clipPath id="clip0_5531_191528">
<rect width="16" height="16" fill="white"/>
</clipPath>
</defs>
</svg>
