<svg width="16" height="16" viewBox="0 0 16 16" fill="none" xmlns="http://www.w3.org/2000/svg">
<g id="1:1 / cn" clip-path="url(#clip0_4973_74600)">
<path id="Vector" d="M0 0H16V16H0V0Z" fill="#EE1C25"/>
<path id="Vector_2" d="M6.39961 3.27961L2.31961 5.91961L3.99961 1.59961L5.43961 5.91961L1.59961 3.27961H6.39961Z" fill="#FFFF00"/>
<path id="Vector_3" d="M7.39251 1.03264L8.84629 1.74467L7.32458 2.00614L8.31101 0.85382L8.21602 2.40318L7.39251 1.03264Z" fill="#FFFF00"/>
<path id="Vector_4" d="M9.24499 2.44448L10.3078 3.66692L8.80329 3.3154L10.1613 2.63729L9.47043 4.02852L9.24499 2.44448Z" fill="#FFFF00"/>
<path id="Vector_5" d="M9.57946 4.76599L10.0508 6.31669L8.82024 5.38097L10.3376 5.31645L9.1382 6.30483L9.57946 4.76599Z" fill="#FFFF00"/>
<path id="Vector_6" d="M8.31375 6.42622L8.15015 8.03702L7.37695 6.70022L8.80015 7.22582L7.31375 7.67422L8.31375 6.42622Z" fill="#FFFF00"/>
</g>
<defs>
<clipPath id="clip0_4973_74600">
<rect width="16" height="16" fill="white"/>
</clipPath>
</defs>
</svg>
