<svg width="16" height="16" viewBox="0 0 16 16" fill="none" xmlns="http://www.w3.org/2000/svg">
<g id="1:1 / hk" clip-path="url(#clip0_4973_74575)">
<path id="Vector" d="M0 0H16V16H0" fill="#EC1B2E"/>
<path id="hk-a" d="M8.82268 3.72463C6.34455 3.56213 5.20705 6.81213 7.5508 8.01213C6.7383 7.31213 6.90705 6.28088 7.23518 5.74963L7.29455 5.78088C6.8633 6.51838 6.94455 7.43088 7.6383 7.99963C7.24455 7.61838 7.34455 6.78088 8.01955 6.47463C8.69455 6.16838 8.75705 5.24651 8.53205 4.94025C8.2258 4.40692 8.32268 4.00067 8.82268 3.7215V3.72463ZM7.62268 5.62463L7.4758 5.85588L7.41955 5.58713L7.1508 5.51525L7.39455 5.38088L7.3758 5.09963L7.57893 5.29338L7.8383 5.19025L7.72268 5.44026L7.89768 5.65588L7.62268 5.62463Z" fill="white"/>
<path id="hk-a_2" d="M12.2619 7.75813C11.6507 5.35108 8.20821 5.27356 7.7912 7.87341C8.20587 6.88437 9.23879 6.72619 9.84544 6.87409L9.83406 6.94021C8.9994 6.75797 8.15666 7.11722 7.83013 7.95277C8.07105 7.46048 8.89846 7.29678 9.39831 7.84411C9.89815 8.39144 10.7942 8.166 11.016 7.85738C11.4285 7.40131 11.8448 7.3679 12.2649 7.75716L12.2619 7.75813ZM10.0841 7.20399L9.81874 7.13577L10.057 6.99922L10.0423 6.72142L10.2454 6.91171L10.5071 6.80697L10.3856 7.06002L10.5638 7.27484L10.2903 7.24212L10.1393 7.47519L10.0841 7.20399Z" fill="white"/>
<path id="hk-a_3" d="M9.48765 12.2772C11.588 10.9521 10.598 7.65414 7.99648 8.06095C9.06526 8.14968 9.53489 9.08317 9.58169 9.70583L9.51529 9.71544C9.43069 8.86531 8.8286 8.17484 7.93304 8.12249C8.47569 8.19949 8.88705 8.93582 8.52098 9.58033C8.1549 10.2249 8.6462 11.0074 9.00824 11.1229C9.56949 11.3744 9.7299 11.76 9.48948 12.2797L9.48765 12.2772ZM9.34167 10.0347L9.32457 9.7613L9.52805 9.94566L9.78772 9.84585L9.6695 10.0978L9.84999 10.3143L9.57177 10.277L9.42255 10.5129L9.36914 10.2427L9.10083 10.1711L9.34167 10.0347Z" fill="white"/>
<path id="hk-a_4" d="M4.3344 11.0356C6.24373 12.6236 9.07429 10.6629 7.8835 8.31449C8.12937 9.35837 7.3867 10.0935 6.80898 10.3304L6.77931 10.2702C7.56169 9.92706 8.03232 9.14107 7.80536 8.27317C7.89982 8.81305 7.32665 9.43182 6.60055 9.28283C5.87446 9.13383 5.28203 9.84291 5.28405 10.2229C5.21832 10.8344 4.90116 11.1061 4.33256 11.0381L4.3344 11.0356ZM6.42201 10.2038L6.67676 10.103L6.5643 10.3535L6.73948 10.5696L6.4633 10.5351L6.31315 10.7736L6.2627 10.4975L5.99225 10.4284L6.23274 10.2942L6.2179 10.0168L6.42201 10.2038Z" fill="white"/>
<path id="hk-a_5" d="M3.92151 5.74941C3.00118 8.05603 5.74061 10.1422 7.60614 8.28395C6.68932 8.84037 5.76069 8.3612 5.35684 7.88497L5.4049 7.83816C5.97305 8.4762 6.86599 8.68091 7.62129 8.19687C7.13702 8.45353 6.37141 8.09962 6.28874 7.36302C6.20606 6.62643 5.34862 6.28211 4.98783 6.40146C4.38596 6.52791 4.02953 6.31024 3.91854 5.74845L3.92151 5.74941ZM5.3577 7.47781L5.53224 7.68896L5.25926 7.65941L5.10786 7.89279L5.05538 7.61945L4.7821 7.55037L5.02914 7.41706L5.01121 7.13851L5.21325 7.32573L5.4724 7.22593L5.3577 7.47781Z" fill="white"/>
</g>
<defs>
<clipPath id="clip0_4973_74575">
<rect width="16" height="16" fill="white"/>
</clipPath>
</defs>
</svg>
