<svg width="16" height="16" viewBox="0 0 16 16" fill="none" xmlns="http://www.w3.org/2000/svg">
<g id="Clip path group">
<mask id="mask0_4973_74529" style="mask-type:luminance" maskUnits="userSpaceOnUse" x="0" y="0" width="16" height="16">
<g id="tw-a">
<path id="Vector" d="M0 0H16V16H0V0Z" fill="white"/>
</g>
</mask>
<g mask="url(#mask0_4973_74529)">
<g id="Group">
<path id="Vector_2" d="M0 0H24V16H0V0Z" fill="#FF0000"/>
<path id="Vector_3" d="M0 0H12V8H0V0Z" fill="#000095"/>
<g id="Group_2">
<path id="Vector_4" d="M5.13516 4.23203L5.05078 4.55078L5.36641 4.63516L5.30391 4.40391L5.13516 4.23203ZM6.69766 4.40391L6.63516 4.63516L6.95078 4.55078L6.86641 4.23203L6.69766 4.40391ZM5.30391 3.59766L5.13516 3.76953L5.19766 4.00078L5.30391 3.59766Z" fill="white"/>
<path id="Vector_5" d="M5.19727 4L5.13477 4.23125L5.30352 4.40312L5.19727 4Z" fill="white"/>
<path id="Vector_6" d="M5.13359 3.76953L4.90234 4.00078L5.13359 4.23203L5.19609 4.00078L5.13359 3.76953ZM5.59609 4.69766L5.76797 4.86641L5.99922 4.80391L5.59609 4.69766ZM6.23047 4.86641L6.54922 4.95078L6.63359 4.63516L6.40234 4.69766L6.23047 4.86641Z" fill="white"/>
<path id="Vector_7" d="M6.40273 4.69609L6.63398 4.63359L6.69648 4.40234L6.40273 4.69609ZM5.36523 4.63359L5.44961 4.94922L5.76836 4.86484L5.59648 4.69609L5.36523 4.63359ZM5.99961 4.80234L6.23086 4.86484L6.40273 4.69609L5.99961 4.80234Z" fill="white"/>
<path id="Vector_8" d="M5.76953 4.86523L6.00078 5.09648L6.23203 4.86523L6.00078 4.80273L5.76953 4.86523ZM5.36641 3.36523L5.05078 3.44961L5.13516 3.76836L5.30391 3.59648L5.36641 3.36523ZM5.30391 4.40273L5.36641 4.63398L5.59766 4.69648L5.30391 4.40273ZM6.80391 3.99961L6.86641 3.76836L6.69766 3.59648L6.80391 3.99961Z" fill="white"/>
<path id="Vector_9" d="M5.59648 3.30273L5.36523 3.36523L5.30273 3.59648L5.59648 3.30273ZM6.69648 3.59648L6.63398 3.36523L6.40273 3.30273L6.69648 3.59648ZM6.86523 4.23086L7.09649 3.99961L6.86523 3.76836L6.80273 3.99961L6.86523 4.23086Z" fill="white"/>
<path id="Vector_10" d="M6.69727 3.59727L6.40352 3.30352L6.00039 3.19727L5.59727 3.30352L5.30352 3.59727L5.19727 4.00039L5.30352 4.40352L5.59727 4.69727L6.00039 4.80352L6.40352 4.69727L6.69727 4.40352L6.80352 4.00039L6.69727 3.59727Z" fill="white"/>
<path id="Vector_11" d="M6.69648 4.40391L6.86523 4.23203L6.80273 4.00078L6.69648 4.40391ZM6.86523 3.76953L6.94961 3.45078L6.63398 3.36641L6.69648 3.59766L6.86523 3.76953ZM6.63398 3.36641L6.54961 3.05078L6.23086 3.13516L6.40273 3.30391L6.63398 3.36641ZM5.76836 3.13516L5.44961 3.05078L5.36523 3.36641L5.59648 3.30391L5.76836 3.13516Z" fill="white"/>
<path id="Vector_12" d="M6.00078 3.19727L5.76953 3.13477L5.59766 3.30352L6.00078 3.19727Z" fill="white"/>
<path id="Vector_13" d="M6.23203 3.13359L6.00078 2.90234L5.76953 3.13359L6.00078 3.19609L6.23203 3.13359Z" fill="white"/>
<path id="Vector_14" d="M6.40234 3.30352L6.23047 3.13477L5.99922 3.19727L6.40234 3.30352ZM5.76797 4.86602L5.44922 4.95039L5.59609 5.50039L5.99922 5.09727L5.76797 4.86602ZM5.59609 5.50039L5.99922 7.00039L6.40234 5.50039L5.99922 5.09727L5.59609 5.50039ZM5.36484 4.63477L5.04922 4.55039L4.90234 5.09727L5.44922 4.95039L5.36484 4.63477Z" fill="white"/>
<path id="Vector_15" d="M4.90234 5.09609L4.49922 6.59609L5.59609 5.49922L5.44922 4.94922L4.90234 5.09609ZM4.49922 4.40234L3.40234 5.49922L4.90234 5.09609L5.04922 4.54922L4.49922 4.40234Z" fill="white"/>
<path id="Vector_16" d="M5.13438 4.23047L4.90312 3.99922L4.5 4.40234L5.05 4.54922L5.13438 4.23047ZM5.13438 3.76797L5.05 3.44922L4.5 3.59609L4.90312 3.99922L5.13438 3.76797Z" fill="white"/>
<path id="Vector_17" d="M4.5 3.59766L3 4.00078L4.5 4.40391L4.90312 4.00078L4.5 3.59766ZM7.5 4.40391L6.95 4.55078L7.09688 5.09766L8.59688 5.50078L7.5 4.40391Z" fill="white"/>
<path id="Vector_18" d="M6.63438 4.63359L6.55 4.94922L7.09688 5.09609L6.95 4.54922L6.63438 4.63359ZM6.23125 4.86484L6 5.09609L6.40312 5.49922L6.55 4.94922L6.23125 4.86484ZM6.86562 4.23047L6.95 4.54922L7.5 4.40234L7.09688 3.99922L6.86562 4.23047ZM6.40312 5.49922L7.5 6.59609L7.09688 5.09609L6.55 4.94922L6.40312 5.49922ZM6.63438 3.36484L6.95 3.44922L7.09688 2.90234L6.55 3.04922L6.63438 3.36484ZM7.5 3.59609L8.59688 2.49922L7.09688 2.90234L6.95 3.44922L7.5 3.59609ZM7.09688 2.90234L7.5 1.40234L6.40312 2.49922L6.55 3.04922L7.09688 2.90234ZM7.5 4.40234L9 3.99922L7.5 3.59609L7.09688 3.99922L7.5 4.40234Z" fill="white"/>
<path id="Vector_19" d="M6.86562 3.76797L7.09688 3.99922L7.5 3.59609L6.95 3.44922L6.86562 3.76797ZM5.59688 2.49922L4.5 1.40234L4.90312 2.90234L5.45 3.04922L5.59688 2.49922ZM5.36562 3.36484L5.45 3.04922L4.90312 2.90234L5.05 3.44922L5.36562 3.36484Z" fill="white"/>
<path id="Vector_20" d="M4.90234 2.90313L3.40234 2.5L4.49922 3.59687L5.04922 3.45L4.90234 2.90313ZM6.23047 3.13438L6.54922 3.05L6.40234 2.5L5.99922 2.90313L6.23047 3.13438Z" fill="white"/>
<path id="Vector_21" d="M6.40391 2.5L6.00078 1L5.59766 2.5L6.00078 2.90313L6.40391 2.5Z" fill="white"/>
<path id="Vector_22" d="M5.76797 3.13438L5.99922 2.90313L5.59609 2.5L5.44922 3.05L5.76797 3.13438Z" fill="white"/>
</g>
<path id="Vector_23" d="M6.00078 5.70078C6.93967 5.70078 7.70078 4.93967 7.70078 4.00078C7.70078 3.0619 6.93967 2.30078 6.00078 2.30078C5.0619 2.30078 4.30078 3.0619 4.30078 4.00078C4.30078 4.93967 5.0619 5.70078 6.00078 5.70078Z" fill="#000095"/>
<path id="Vector_24" d="M6 5.5C6.82843 5.5 7.5 4.82843 7.5 4C7.5 3.17157 6.82843 2.5 6 2.5C5.17157 2.5 4.5 3.17157 4.5 4C4.5 4.82843 5.17157 5.5 6 5.5Z" fill="white"/>
</g>
</g>
</g>
</svg>
