<svg width="54" height="48" viewBox="0 0 54 48" fill="none" xmlns="http://www.w3.org/2000/svg">
<g id="_&#229;&#156;&#150;&#229;&#177;&#164;_1" clip-path="url(#clip0_5014_284558)">
<path id="Vector" d="M43.443 4.15585C38.1283 0.409056 32.1053 -0.726334 25.7363 0.43609C18.8068 1.69944 13.4849 5.40478 9.73633 11.2926C10.7023 15.845 12.6919 20.5289 15.6404 24.9641L25.3921 15.2124C26.3869 14.2176 27.9999 14.2176 28.9947 15.2124C29.9895 16.2072 29.9895 17.8202 28.9947 18.815L18.7221 29.0876C19.4412 29.9472 20.1999 30.7907 20.9947 31.6179L41.1831 11.4296C42.1779 10.4347 43.7908 10.4347 44.7857 11.4296C45.7805 12.4244 45.7805 14.0374 44.7857 15.0322L24.7163 35.1016C25.5994 35.8459 26.5005 36.5469 27.4124 37.2083L35.8629 28.7578C36.8578 27.763 38.4707 27.763 39.4655 28.7578C40.4604 29.7526 40.4604 31.3656 39.4655 32.3604L31.8044 40.0216C35.4719 42.0779 39.2511 43.4944 42.9366 44.2388C48.6082 40.6956 52.582 34.9303 53.6525 27.945C55.1754 18.0184 51.6683 9.96076 43.4412 4.15945L43.443 4.15585ZM33.1776 13.5255C31.7701 13.5255 30.6311 12.3847 30.6311 10.979C30.6311 9.57328 31.7719 8.43249 33.1776 8.43249C34.5834 8.43249 35.7242 9.57328 35.7242 10.979C35.7242 12.3847 34.5834 13.5255 33.1776 13.5255Z" fill="url(#paint0_linear_5014_284558)"/>
<path id="Vector_2" d="M28.1798 43.6435C26.6966 42.8073 25.2314 41.8648 23.7986 40.8213C21.8324 39.3885 19.9239 37.7647 18.1127 35.9535C17.053 34.8938 16.0581 33.8017 15.1264 32.6843C14.0072 31.3399 12.9818 29.9576 12.0536 28.5518C9.6585 24.9276 7.90134 21.1376 6.82002 17.3926C6.4758 18.2685 6.13698 19.1461 5.77474 20.013C3.97794 24.3185 2.19736 28.6311 0.418577 32.9438C0.112201 33.6881 0.229345 33.8648 1.02232 33.8756C2.29468 33.8918 3.56884 33.8702 4.8412 33.8792C5.75672 33.8864 5.97478 33.9368 6.02525 34.5784C6.03606 34.7208 6.03966 34.8902 6.03966 35.0975C6.04327 37.3196 6.04327 39.5435 6.04147 41.7656C6.04147 43.4471 6.04147 45.1268 6.04147 46.8082C6.04147 47.9418 6.09553 47.9941 7.24714 47.9959C10.3722 47.9977 13.4954 47.9959 16.6204 47.9959C17.4567 47.9959 18.2911 47.9959 19.1273 47.9959C20.6934 47.9959 22.2595 47.9959 23.8257 47.9959C25.909 47.9959 27.9906 47.9959 30.0739 47.9977C31.5517 47.9995 33.0151 47.8445 34.4587 47.5615C35.0786 47.439 35.6896 47.2966 36.2915 47.1326C33.581 46.318 30.8507 45.1484 28.1798 43.6435Z" fill="#1A2E50"/>
</g>
<defs>
<linearGradient id="paint0_linear_5014_284558" x1="46.8438" y1="7.23402" x2="22.0382" y2="32.0396" gradientUnits="userSpaceOnUse">
<stop stop-color="#FFA502"/>
<stop offset="1" stop-color="#FF8430"/>
</linearGradient>
<clipPath id="clip0_5014_284558">
<rect width="53.7382" height="48" fill="white" transform="translate(0.261719)"/>
</clipPath>
</defs>
</svg>
