<svg width="224" height="64" viewBox="0 0 224 64" fill="none" xmlns="http://www.w3.org/2000/svg">
<g clip-path="url(#clip0_12_4673)">
<path d="M90.8386 49.4178H84.7725V51.9896H90.8386V49.4178Z" fill="white"/>
<path d="M90.8386 32.2538H84.7725V41.7059H90.8386V32.2538Z" fill="white"/>
<path d="M90.8386 44.2776H84.7725V46.8494H90.8386V44.2776Z" fill="white"/>
<path d="M87.7571 28.8271C89.8604 28.8271 91.1824 27.4076 91.1824 25.5973C91.1324 23.737 89.8604 22.3175 87.8072 22.3175C85.754 22.3175 84.4319 23.737 84.4319 25.5973C84.4319 27.4577 85.754 28.8271 87.7604 28.8271H87.7571Z" fill="white"/>
<path d="M90.8386 54.5613H84.7725V56.091H90.8386V54.5613Z" fill="white"/>
<path d="M97.6392 49.5314C99.5956 50.6569 102.53 51.6355 105.615 51.6355C109.481 51.6355 111.634 49.8253 111.634 47.1333C111.634 44.6384 109.972 43.1688 105.762 41.6524C100.33 39.6952 96.858 36.8062 96.858 32.0601C96.858 26.6761 101.358 22.5647 108.503 22.5647C112.075 22.5647 114.716 23.3462 116.429 24.228L114.96 29.0742C113.784 28.4363 111.488 27.5078 108.403 27.5078C104.587 27.5078 102.924 29.5619 102.924 31.4723C102.924 34.0173 104.834 35.193 109.234 36.9064C114.96 39.0606 117.747 41.9464 117.747 46.6958C117.747 51.9829 113.734 56.582 105.221 56.582C101.749 56.582 98.1266 55.6034 96.3171 54.5279L97.6392 49.5347V49.5314Z" fill="white"/>
<path d="M144.509 48.9435C144.509 51.7825 144.606 54.1305 144.706 56.091H139.421L139.127 52.4705H139.031C138.002 54.1839 135.655 56.6321 131.399 56.6321C127.142 56.6321 123.082 54.037 123.082 46.2549V32.2572H129.098V45.2262C129.098 49.1907 130.37 51.7357 133.552 51.7357C135.949 51.7357 137.515 50.0223 138.152 48.506C138.349 47.9683 138.496 47.3304 138.496 46.6457V32.2572H144.516V48.9469L144.509 48.9435Z" fill="white"/>
<path d="M151.26 39.3479C151.26 36.6058 151.21 34.3079 151.063 32.2505H156.348L156.641 35.8242H156.788C157.817 33.9639 160.407 31.7128 164.37 31.7128C168.53 31.7128 172.833 34.4048 172.833 41.943V56.0877H166.817V42.6277C166.817 39.2009 165.545 36.6058 162.267 36.6058C159.87 36.6058 158.207 38.3192 157.57 40.1294C157.373 40.6672 157.326 41.4019 157.326 42.0866V56.0843H151.26V39.3445V39.3479Z" fill="white"/>
<path d="M178.459 21.7965H196.557V26.8164H184.475V36.5189H195.729V41.4587H184.475V56.091H178.462V21.7998L178.459 21.7965Z" fill="white"/>
<path d="M205.317 46.6223L202.717 56.0877H196.607L206.593 21.7965H214.078L224 56.0877H217.7L214.983 46.6223H205.314H205.317ZM214.091 42.0299L211.768 33.7535C211.183 31.5925 210.652 29.0108 210.178 26.8999H210.055C209.594 29.0341 209.073 31.676 208.526 33.7468L206.226 42.0332H214.091V42.0299Z" fill="white"/>
<path d="M57.5498 5.54096C50.4688 0.544403 42.4396 -0.968591 33.953 0.581142C24.7185 2.26447 17.6241 7.20425 12.6296 15.0565C13.9183 21.1251 16.5691 27.3708 20.4986 33.2859L33.4956 20.2835C34.821 18.9575 36.971 18.9575 38.2964 20.2835C39.6218 21.6094 39.6218 23.7604 38.2964 25.0863L24.605 38.7834C25.5632 39.929 26.5748 41.0546 27.6364 42.1568L54.5451 15.2368C55.8705 13.9109 58.0206 13.9109 59.346 15.2368C60.6714 16.5628 60.6714 18.7137 59.346 20.0397L32.5975 46.7993C33.776 47.7912 34.9746 48.7264 36.1898 49.6082L47.4541 38.3392C48.7795 37.0132 50.9295 37.0132 52.2549 38.3392C53.5803 39.6652 53.5803 41.8161 52.2549 43.142L42.0456 53.3556C46.9332 56.0977 51.9711 57.9881 56.8821 58.9801C64.4406 54.254 69.7355 46.5688 71.1644 37.2537C73.1943 24.0175 68.5203 13.2729 57.5565 5.53762L57.5498 5.54096ZM43.8718 18.0357C41.9955 18.0357 40.4765 16.516 40.4765 14.639C40.4765 12.7619 41.9955 11.2422 43.8718 11.2422C45.7481 11.2422 47.2671 12.7619 47.2671 14.639C47.2671 16.516 45.7481 18.0357 43.8718 18.0357Z" fill="url(#paint0_linear_12_4673)"/>
<path d="M37.2081 58.1952C35.2317 57.0796 33.2787 55.8238 31.369 54.4311C28.7483 52.5206 26.2043 50.3563 23.7905 47.9382C22.3783 46.5254 21.0496 45.0692 19.811 43.5796C18.3186 41.786 16.9532 39.9457 15.7146 38.0687C12.5229 33.2358 10.1826 28.1824 8.74033 23.1892C8.28295 24.3582 7.82891 25.5272 7.34816 26.6828C4.95108 32.4242 2.58071 38.1722 0.210339 43.9236C-0.200303 44.9156 -0.0433912 45.1527 1.01493 45.1661C2.71091 45.1894 4.4069 45.1594 6.10288 45.1727C7.32479 45.1828 7.61524 45.2495 7.68201 46.1046C7.69537 46.295 7.70204 46.5221 7.70204 46.7959C7.70538 49.7585 7.70538 52.7243 7.70538 55.6869C7.70538 57.928 7.70538 60.1691 7.70538 62.4102C7.70538 63.9232 7.77549 63.9933 9.31456 63.9933C13.4777 63.9967 17.6442 63.9933 21.8074 63.9933C22.9225 63.9933 24.0342 63.9933 25.1493 63.9933C27.2359 63.9933 29.3258 63.9933 31.4124 63.9933C34.1868 63.9933 36.9644 63.9933 39.7388 63.9933C41.7085 63.9933 43.6616 63.7896 45.5812 63.4122C46.4092 63.2485 47.2238 63.0581 48.0217 62.841C44.4094 61.7522 40.7704 60.1958 37.2115 58.1885L37.2081 58.1952Z" fill="white"/>
</g>
<defs>
<linearGradient id="paint0_linear_12_4673" x1="62.0836" y1="9.64575" x2="29.0115" y2="42.7074" gradientUnits="userSpaceOnUse">
<stop stop-color="#FFA502"/>
<stop offset="1" stop-color="#FF8430"/>
</linearGradient>
<clipPath id="clip0_12_4673">
<rect width="224" height="64" fill="white"/>
</clipPath>
</defs>
</svg>
