<svg xmlns="http://www.w3.org/2000/svg" width="60" height="60" viewBox="0 0 60 60" fill="none">
  <g clip-path="url(#clip0_1717_6940)">
    <path d="M30 60C46.5685 60 60 46.5709 60 30C60 13.429 46.5685 0 30 0C13.4315 0 0 13.4314 0 30C0 46.5686 13.4315 60 30 60Z" fill="url(#paint0_linear_1717_6940)"/>
    <path fill-rule="evenodd" clip-rule="evenodd" d="M18.1364 17.7645H36.3719C40.2822 17.7645 43.4503 20.9329 43.4503 24.8431C43.4503 28.7534 40.2821 31.9216 36.3719 31.9216H18.1364V17.7645ZM21.1364 20.7645V28.9216H36.3719C38.6253 28.9216 40.4503 27.0965 40.4503 24.8431C40.4503 22.5897 38.6252 20.7645 36.3719 20.7645H21.1364Z" fill="white"/>
    <path fill-rule="evenodd" clip-rule="evenodd" d="M18.1364 28.9221H36.3719C40.2821 28.9221 43.4503 32.0903 43.4503 36.0006C43.4503 39.9108 40.2821 43.0791 36.3719 43.0791H18.1364V28.9221ZM21.1364 31.9221V40.0791H36.3719C38.6253 40.0791 40.4503 38.254 40.4503 36.0006C40.4503 33.7472 38.6253 31.9221 36.3719 31.9221H21.1364Z" fill="white"/>
    <path fill-rule="evenodd" clip-rule="evenodd" d="M26.8136 19.1405V14.1818H29.8136V19.1405H26.8136Z" fill="white"/>
    <path fill-rule="evenodd" clip-rule="evenodd" d="M31.7727 19.1405V14.1818H34.7727V19.1405H31.7727Z" fill="white"/>
    <path fill-rule="evenodd" clip-rule="evenodd" d="M26.8136 46.4137V41.4551H29.8136V46.4137H26.8136Z" fill="white"/>
    <path fill-rule="evenodd" clip-rule="evenodd" d="M31.7727 46.4137V41.4551H34.7727V46.4137H31.7727Z" fill="white"/>
  </g>
  <defs>
    <linearGradient id="paint0_linear_1717_6940" x1="30.7376" y1="0" x2="30.7376" y2="60" gradientUnits="userSpaceOnUse">
      <stop stop-color="#FF9F00"/>
      <stop offset="1" stop-color="#FFF200"/>
    </linearGradient>
    <clipPath id="clip0_1717_6940">
      <rect width="60" height="60" fill="white"/>
    </clipPath>
  </defs>
</svg>