<svg version="1.1" id="Layer_1" xmlns="http://www.w3.org/2000/svg" xmlns:xlink="http://www.w3.org/1999/xlink" x="0px" y="0px"
	 width="100%" viewBox="0 0 735 490" enable-background="new 0 0 735 490" xml:space="preserve">
<path fill="#E70012" opacity="1.000000" stroke="none" 
	d="
M524.000000,491.000000 
	C349.333344,491.000000 175.166672,491.000000 1.000000,491.000000 
	C1.000000,327.666656 1.000000,164.333328 1.000000,1.000000 
	C246.000000,1.000000 491.000000,1.000000 736.000000,1.000000 
	C736.000000,164.333328 736.000000,327.666656 736.000000,491.000000 
	C665.500000,491.000000 595.000000,491.000000 524.000000,491.000000 
M149.040787,181.941162 
	C149.040787,181.941162 149.050598,182.086823 149.030319,182.927902 
	C149.023438,184.620682 149.016541,186.313446 148.620026,188.246780 
	C148.303558,188.626831 147.987091,189.006882 147.670624,189.386932 
	C147.868408,189.506744 148.066193,189.626556 148.263962,189.746368 
	C148.506439,189.160797 148.748901,188.575241 149.632172,187.832428 
	C151.249847,188.824066 152.867508,189.815704 154.747635,190.968246 
	C155.976425,190.505554 157.993271,189.746109 160.070740,189.150864 
	C160.070740,189.150864 160.236481,189.354935 160.236481,189.354935 
	C160.236481,189.354935 159.990982,189.002991 159.795135,188.306000 
	C157.743576,182.210648 155.470459,176.177307 153.739349,169.992264 
	C152.942764,167.146240 153.208084,164.003021 153.390472,160.758301 
	C153.709900,160.371750 154.029343,159.985184 154.348770,159.598633 
	C154.149292,159.464005 153.949814,159.329376 153.750336,159.194763 
	C153.502640,159.799332 153.254929,160.403915 152.294449,160.888641 
	C148.080399,158.880554 151.068771,155.687805 151.078339,152.855606 
	C151.078339,152.855606 151.146149,152.638412 151.146149,152.638412 
	C151.146149,152.638412 151.003296,153.004150 150.408630,153.125946 
	C149.322861,152.145065 147.861282,151.357239 147.235886,150.139862 
	C146.193756,148.111206 145.855972,145.732224 144.921051,143.634705 
	C142.800476,138.877182 142.496246,134.811905 148.089523,132.172974 
	C149.981018,131.280548 151.884796,130.186829 153.399979,128.774307 
	C156.050369,126.303474 158.404541,123.514893 161.001892,120.972389 
	C161.001892,120.972389 160.873306,120.873604 161.603149,120.862083 
	C165.711288,117.629860 169.464691,119.682503 172.855621,122.520126 
	C173.274246,119.436996 173.567932,117.274002 173.983627,114.991806 
	C173.983627,114.991806 174.102432,114.869423 174.738251,114.702637 
	C179.281769,111.007767 183.825287,107.312889 189.026199,103.083412 
	C187.130798,102.176346 185.914658,101.183472 184.603912,101.036980 
	C178.358627,100.338943 172.091919,99.483406 165.824738,99.413788 
	C156.872025,99.314339 147.913528,99.969849 138.954971,100.064713 
	C134.404144,100.112900 130.826996,98.034065 129.518967,93.441086 
	C128.189865,88.774071 127.754608,83.810921 126.076111,79.293983 
	C122.983276,70.971001 119.306259,62.862675 115.769135,54.709812 
	C115.220375,53.444954 114.122932,52.418133 112.909531,50.741215 
	C112.832077,50.537281 112.754623,50.333347 112.582603,49.664177 
	C111.772072,50.204395 110.501709,50.574551 110.228432,51.313461 
	C108.845032,55.054016 107.867058,58.946735 106.435242,62.666111 
	C105.843307,64.203751 104.473099,65.441780 104.112755,65.929070 
	C103.540909,69.691925 103.328094,72.738136 102.578651,75.646042 
	C101.391251,80.253296 99.783531,84.750313 98.462021,89.325279 
	C94.863297,101.783760 94.642830,101.419502 81.567787,100.530380 
	C69.337738,99.698715 57.013855,100.070763 44.736732,100.262611 
	C42.397434,100.299164 40.083622,101.966339 36.987144,103.184441 
	C53.139759,114.787041 68.243576,125.636284 83.733284,136.762711 
	C82.091171,140.226028 80.385590,143.823181 78.680016,147.420349 
	C78.314735,147.258896 77.949448,147.097443 77.584167,146.936005 
	C77.584167,148.986633 77.584167,151.037262 77.584167,153.528397 
	C75.898125,153.035492 74.769806,152.705643 73.517296,152.339478 
	C73.893440,155.387131 75.071869,158.340195 74.386276,160.766571 
	C73.000916,165.669525 71.414009,170.906723 68.397568,174.848526 
	C65.326767,178.861374 65.724243,182.926895 65.721794,187.070541 
	C65.720963,188.491592 67.788002,190.064346 69.191162,191.229599 
	C69.540710,191.519897 70.981201,190.496536 71.997139,189.998550 
	C71.997139,189.998550 72.072830,189.918976 72.638092,190.028900 
	C75.558342,185.849731 78.478592,181.670563 81.437172,177.367462 
	C81.437172,177.367462 81.564880,177.390305 82.328239,177.530289 
	C84.152336,176.832153 86.216446,176.472672 87.759995,175.378693 
	C95.449028,169.929138 102.956604,164.223450 110.650185,158.780548 
	C111.786713,157.976517 114.151588,157.309250 114.970558,157.910446 
	C121.183594,162.471298 127.294907,167.198990 133.138046,172.223450 
	C136.030655,174.710709 138.221451,177.998825 140.855713,180.806442 
	C143.165955,183.268723 145.875748,183.961212 149.040787,181.941162 
M292.594299,76.183815 
	C288.164795,78.469460 283.822754,80.959160 279.253143,82.917931 
	C277.859772,83.515205 275.368988,83.256882 274.194885,82.343704 
	C270.577454,79.530182 267.353577,76.210709 263.976776,73.087814 
	C263.670624,77.186546 264.026886,80.953445 265.236542,84.422775 
	C266.867950,89.101753 265.064636,91.452286 260.998444,93.339027 
	C257.498444,94.963066 254.253067,97.135818 249.715622,99.743927 
	C255.316589,100.273209 259.435638,100.905510 263.564606,100.978638 
	C267.108795,101.041397 269.039764,101.910294 269.321381,105.938408 
	C269.626099,110.297440 270.771881,114.597679 271.822906,120.434792 
	C274.382233,115.033020 276.434387,111.104805 278.114990,107.023582 
	C279.399109,103.905319 281.063141,102.702934 284.589813,103.559914 
	C288.641266,104.544403 292.861664,104.833473 297.385559,105.478333 
	C293.652222,101.507904 290.297913,98.274590 287.402832,94.672256 
	C286.448578,93.484909 285.935547,91.023834 286.505280,89.696472 
	C288.529327,84.980484 291.107391,80.502289 293.038208,75.860817 
	C293.192963,75.739433 293.347748,75.618057 293.502533,75.496681 
	C293.450073,75.663506 293.397614,75.830330 292.594299,76.183815 
M272.617004,174.015625 
	C274.570892,171.597961 276.559052,171.686157 279.030945,173.479950 
	C282.644989,176.102631 286.488098,178.409698 290.233582,180.851273 
	C289.594116,176.779205 288.672363,173.336395 286.932098,170.374496 
	C284.033569,165.441376 285.356934,162.255798 289.918762,159.399765 
	C292.822998,157.581467 295.325562,155.121552 298.008240,152.949326 
	C293.270111,152.300858 288.830475,152.429779 284.457153,153.036469 
	C280.987030,153.517853 279.286896,152.202866 278.162903,149.037109 
	C276.720551,144.974686 274.865295,141.058899 273.187927,137.079926 
	C271.254822,141.643555 270.178070,145.834869 269.500275,150.089737 
	C268.985809,153.319275 267.310669,154.544174 264.186371,154.670578 
	C259.752228,154.849976 255.329056,155.300735 250.901199,155.635544 
	C254.540588,158.884628 258.276947,161.272034 262.227905,163.225540 
	C265.229095,164.709457 265.753174,166.632584 264.805695,169.627213 
	C263.437561,173.951187 262.348907,178.363602 260.738556,184.195801 
	C265.305664,180.286316 268.691010,177.388412 272.617004,174.015625 
M206.051376,56.293423 
	C205.091629,57.669754 204.131866,59.046085 202.366821,61.577259 
	C208.124542,59.625519 212.414017,58.357021 216.550598,56.705589 
	C219.421494,55.559460 221.107681,56.152519 222.663132,58.827446 
	C224.958832,62.775425 227.626495,66.507103 230.135757,70.330902 
	C231.207077,65.739555 231.393341,61.443264 231.151093,57.171276 
	C230.938141,53.416245 232.066147,51.369991 236.071136,50.681458 
	C240.063095,49.995167 243.923080,48.541168 247.840927,47.423771 
	C244.315659,45.154140 240.862198,43.615528 237.250992,42.697605 
	C232.808624,41.568417 230.940140,39.417908 231.694977,34.593136 
	C232.279053,30.859922 231.811600,26.962194 231.811600,22.077412 
	C228.329681,26.670732 225.740021,30.561724 222.612076,33.956802 
	C221.511765,35.151096 218.925079,35.880493 217.307129,35.520046 
	C212.842331,34.525387 208.530746,32.843018 203.040710,31.072004 
	C204.593613,33.426041 205.413147,34.831909 206.388046,36.120220 
	C213.800995,45.916443 213.810471,45.909271 206.051376,56.293423 
M210.971832,217.474228 
	C208.983475,219.974823 206.995102,222.475418 205.006744,224.976013 
	C205.245697,225.342300 205.484634,225.708588 205.723572,226.074875 
	C210.908478,224.812607 216.093369,223.550323 221.600906,222.209503 
	C224.610336,227.076447 227.579910,231.878937 230.549484,236.681412 
	C231.847565,231.881241 232.392181,227.442688 232.510300,222.992798 
	C232.592987,219.878265 234.049576,218.668243 236.899857,218.113342 
	C241.252441,217.265976 245.544968,216.110199 251.348480,214.732788 
	C245.601456,212.453384 241.353729,210.606201 236.988953,209.097687 
	C234.319962,208.175247 233.450043,206.685303 233.598038,203.904541 
	C233.838303,199.389648 233.662781,194.852631 233.662781,189.326874 
	C230.330887,193.642654 227.812912,197.386261 224.751862,200.615005 
	C223.638412,201.789474 221.004562,202.532532 219.455109,202.093506 
	C214.877533,200.796478 210.495117,198.810638 206.036346,197.094269 
	C207.488312,200.929794 209.358047,204.241470 211.807144,207.047470 
	C214.963593,210.663849 215.489319,213.787949 210.971832,217.474228 
z"/>
<path fill="#FEED06" opacity="1.000000" stroke="none" 
	d="
M112.677162,50.129414 
	C112.754623,50.333347 112.832077,50.537281 113.105743,51.348007 
	C118.407547,67.446518 123.656181,82.893661 128.507797,98.464508 
	C129.582596,101.914001 131.186432,102.768997 134.495499,102.739571 
	C149.649170,102.604782 164.804749,102.686424 179.959656,102.690216 
	C181.678284,102.690643 183.396912,102.690277 185.115540,102.690277 
	C185.129288,103.026588 185.143036,103.362900 185.156784,103.699211 
	C177.062286,109.424011 168.967804,115.148811 160.873322,120.873611 
	C160.873306,120.873604 161.001892,120.972389 160.597473,120.978455 
	C154.785904,124.561745 149.473618,128.295578 143.933228,131.652969 
	C140.970825,133.448135 140.353867,135.308853 141.452744,138.590012 
	C145.358261,150.251694 149.012680,161.998215 152.688812,173.735580 
	C153.806808,177.305252 154.687973,180.949112 156.098236,186.093307 
	C152.850250,184.246872 150.950424,183.166855 149.050598,182.086823 
	C149.050598,182.086823 149.040787,181.941162 148.823563,181.657440 
	C137.917313,172.996170 127.205643,164.647202 116.559631,156.215347 
	C114.587761,154.653580 113.076096,153.706879 110.573692,155.634964 
	C101.000092,163.011353 91.249435,170.157928 81.564880,177.390305 
	C81.564880,177.390305 81.437172,177.367462 81.123413,177.581772 
	C76.730148,180.712524 72.650642,183.628983 67.367889,187.405655 
	C68.203888,184.586349 68.503723,183.332977 68.943062,182.130569 
	C74.201050,167.739990 79.394730,153.324829 84.817307,138.996353 
	C86.057404,135.719574 86.027527,133.702820 82.698135,131.622894 
	C74.650276,126.595299 66.869347,121.139488 58.996334,115.833275 
	C53.157166,111.897812 47.342396,107.926155 40.320904,103.158661 
	C43.174713,102.904655 44.438076,102.695824 45.701656,102.694504 
	C59.866470,102.679703 74.031311,102.700111 88.196152,102.704185 
	C96.672646,102.706627 96.656860,102.696388 99.135307,94.545609 
	C103.638275,79.736870 108.162064,64.934464 112.677162,50.129414 
z"/>
<path fill="#FCE311" opacity="1.000000" stroke="none" 
	d="
M293.475647,75.934029 
	C291.107391,80.502289 288.529327,84.980484 286.505280,89.696472 
	C285.935547,91.023834 286.448578,93.484909 287.402832,94.672256 
	C290.297913,98.274590 293.652222,101.507904 297.385559,105.478333 
	C292.861664,104.833473 288.641266,104.544403 284.589813,103.559914 
	C281.063141,102.702934 279.399109,103.905319 278.114990,107.023582 
	C276.434387,111.104805 274.382233,115.033020 271.822906,120.434792 
	C270.771881,114.597679 269.626099,110.297440 269.321381,105.938408 
	C269.039764,101.910294 267.108795,101.041397 263.564606,100.978638 
	C259.435638,100.905510 255.316589,100.273209 249.715622,99.743927 
	C254.253067,97.135818 257.498444,94.963066 260.998444,93.339027 
	C265.064636,91.452286 266.867950,89.101753 265.236542,84.422775 
	C264.026886,80.953445 263.670624,77.186546 263.976776,73.087814 
	C267.353577,76.210709 270.577454,79.530182 274.194885,82.343704 
	C275.368988,83.256882 277.859772,83.515205 279.253143,82.917931 
	C283.822754,80.959160 288.164795,78.469460 293.000061,76.069969 
	C293.405823,75.956123 293.475647,75.934029 293.475647,75.934029 
z"/>
<path fill="#FCE310" opacity="1.000000" stroke="none" 
	d="
M272.346680,174.253082 
	C268.691010,177.388412 265.305664,180.286316 260.738556,184.195801 
	C262.348907,178.363602 263.437561,173.951187 264.805695,169.627213 
	C265.753174,166.632584 265.229095,164.709457 262.227905,163.225540 
	C258.276947,161.272034 254.540588,158.884628 250.901199,155.635544 
	C255.329056,155.300735 259.752228,154.849976 264.186371,154.670578 
	C267.310669,154.544174 268.985809,153.319275 269.500275,150.089737 
	C270.178070,145.834869 271.254822,141.643555 273.187927,137.079926 
	C274.865295,141.058899 276.720551,144.974686 278.162903,149.037109 
	C279.286896,152.202866 280.987030,153.517853 284.457153,153.036469 
	C288.830475,152.429779 293.270111,152.300858 298.008240,152.949326 
	C295.325562,155.121552 292.822998,157.581467 289.918762,159.399765 
	C285.356934,162.255798 284.033569,165.441376 286.932098,170.374496 
	C288.672363,173.336395 289.594116,176.779205 290.233582,180.851273 
	C286.488098,178.409698 282.644989,176.102631 279.030945,173.479950 
	C276.559052,171.686157 274.570892,171.597961 272.346680,174.253082 
z"/>
<path fill="#FCE510" opacity="1.000000" stroke="none" 
	d="
M206.253464,56.020535 
	C213.810471,45.909271 213.800995,45.916443 206.388046,36.120220 
	C205.413147,34.831909 204.593613,33.426041 203.040710,31.072004 
	C208.530746,32.843018 212.842331,34.525387 217.307129,35.520046 
	C218.925079,35.880493 221.511765,35.151096 222.612076,33.956802 
	C225.740021,30.561724 228.329681,26.670732 231.811600,22.077412 
	C231.811600,26.962194 232.279053,30.859922 231.694977,34.593136 
	C230.940140,39.417908 232.808624,41.568417 237.250992,42.697605 
	C240.862198,43.615528 244.315659,45.154140 247.840927,47.423771 
	C243.923080,48.541168 240.063095,49.995167 236.071136,50.681458 
	C232.066147,51.369991 230.938141,53.416245 231.151093,57.171276 
	C231.393341,61.443264 231.207077,65.739555 230.135757,70.330902 
	C227.626495,66.507103 224.958832,62.775425 222.663132,58.827446 
	C221.107681,56.152519 219.421494,55.559460 216.550598,56.705589 
	C212.414017,58.357021 208.124542,59.625519 202.366821,61.577259 
	C204.131866,59.046085 205.091629,57.669754 206.253464,56.020535 
z"/>
<path fill="#FDE310" opacity="1.000000" stroke="none" 
	d="
M211.218201,217.218964 
	C215.489319,213.787949 214.963593,210.663849 211.807144,207.047470 
	C209.358047,204.241470 207.488312,200.929794 206.036346,197.094269 
	C210.495117,198.810638 214.877533,200.796478 219.455109,202.093506 
	C221.004562,202.532532 223.638412,201.789474 224.751862,200.615005 
	C227.812912,197.386261 230.330887,193.642654 233.662781,189.326874 
	C233.662781,194.852631 233.838303,199.389648 233.598038,203.904541 
	C233.450043,206.685303 234.319962,208.175247 236.988953,209.097687 
	C241.353729,210.606201 245.601456,212.453384 251.348480,214.732788 
	C245.544968,216.110199 241.252441,217.265976 236.899857,218.113342 
	C234.049576,218.668243 232.592987,219.878265 232.510300,222.992798 
	C232.392181,227.442688 231.847565,231.881241 230.549484,236.681412 
	C227.579910,231.878937 224.610336,227.076447 221.600906,222.209503 
	C216.093369,223.550323 210.908478,224.812607 205.723572,226.074875 
	C205.484634,225.708588 205.245697,225.342300 205.006744,224.976013 
	C206.995102,222.475418 208.983475,219.974823 211.218201,217.218964 
z"/>
<path fill="#D72604" opacity="1.000000" stroke="none" 
	d="
M112.629883,49.896797 
	C108.162064,64.934464 103.638275,79.736870 99.135307,94.545609 
	C96.656860,102.696388 96.672646,102.706627 88.196152,102.704185 
	C74.031311,102.700111 59.866470,102.679703 45.701656,102.694504 
	C44.438076,102.695824 43.174713,102.904655 40.320904,103.158661 
	C47.342396,107.926155 53.157166,111.897812 58.996334,115.833275 
	C66.869347,121.139488 74.650276,126.595299 82.698135,131.622894 
	C86.027527,133.702820 86.057404,135.719574 84.817307,138.996353 
	C79.394730,153.324829 74.201050,167.739990 68.943062,182.130569 
	C68.503723,183.332977 68.203888,184.586349 67.367889,187.405655 
	C72.650642,183.628983 76.730148,180.712524 81.104248,177.643738 
	C78.478592,181.670563 75.558342,185.849731 72.255661,189.751862 
	C71.468849,189.107178 71.064468,188.739517 70.660080,188.371841 
	C70.497009,188.589920 70.333931,188.807983 70.170860,189.026062 
	C70.753998,189.376358 71.337128,189.726669 71.920258,190.076965 
	C70.981201,190.496536 69.540710,191.519897 69.191162,191.229599 
	C67.788002,190.064346 65.720963,188.491592 65.721794,187.070541 
	C65.724243,182.926895 65.326767,178.861374 68.397568,174.848526 
	C71.414009,170.906723 73.000916,165.669525 74.386276,160.766571 
	C75.071869,158.340195 73.893440,155.387131 73.517296,152.339478 
	C74.769806,152.705643 75.898125,153.035492 77.584167,153.528397 
	C77.584167,151.037262 77.584167,148.986633 77.584167,146.936005 
	C77.949448,147.097443 78.314735,147.258896 78.680016,147.420349 
	C80.385590,143.823181 82.091171,140.226028 83.733284,136.762711 
	C68.243576,125.636284 53.139759,114.787041 36.987144,103.184441 
	C40.083622,101.966339 42.397434,100.299164 44.736732,100.262611 
	C57.013855,100.070763 69.337738,99.698715 81.567787,100.530380 
	C94.642830,101.419502 94.863297,101.783760 98.462021,89.325279 
	C99.783531,84.750313 101.391251,80.253296 102.578651,75.646042 
	C103.328094,72.738136 103.540909,69.691925 104.112755,65.929070 
	C104.473099,65.441780 105.843307,64.203751 106.435242,62.666111 
	C107.867058,58.946735 108.845032,55.054016 110.228432,51.313461 
	C110.501709,50.574551 111.772072,50.204395 112.629883,49.896797 
z"/>
<path fill="#D72604" opacity="1.000000" stroke="none" 
	d="
M161.238235,120.867844 
	C168.967804,115.148811 177.062286,109.424011 185.156784,103.699211 
	C185.143036,103.362900 185.129288,103.026588 185.115540,102.690277 
	C183.396912,102.690277 181.678284,102.690643 179.959656,102.690216 
	C164.804749,102.686424 149.649170,102.604782 134.495499,102.739571 
	C131.186432,102.768997 129.582596,101.914001 128.507797,98.464508 
	C123.656181,82.893661 118.407547,67.446518 113.290588,51.618015 
	C114.122932,52.418133 115.220375,53.444954 115.769135,54.709812 
	C119.306259,62.862675 122.983276,70.971001 126.076111,79.293983 
	C127.754608,83.810921 128.189865,88.774071 129.518967,93.441086 
	C130.826996,98.034065 134.404144,100.112900 138.954971,100.064713 
	C147.913528,99.969849 156.872025,99.314339 165.824738,99.413788 
	C172.091919,99.483406 178.358627,100.338943 184.603912,101.036980 
	C185.914658,101.183472 187.130798,102.176346 189.026199,103.083412 
	C183.825287,107.312889 179.281769,111.007767 174.364990,114.757950 
	C173.991714,114.813263 173.861633,115.111015 173.861633,115.111015 
	C173.567932,117.274002 173.274246,119.436996 172.855621,122.520126 
	C169.464691,119.682503 165.711288,117.629860 161.238235,120.867844 
z"/>
<path fill="#D72604" opacity="1.000000" stroke="none" 
	d="
M149.040466,182.507370 
	C150.950424,183.166855 152.850250,184.246872 156.098236,186.093307 
	C154.687973,180.949112 153.806808,177.305252 152.688812,173.735580 
	C149.012680,161.998215 145.358261,150.251694 141.452744,138.590012 
	C140.353867,135.308853 140.970825,133.448135 143.933228,131.652969 
	C149.473618,128.295578 154.785904,124.561745 160.537949,120.921982 
	C158.404541,123.514893 156.050369,126.303474 153.399979,128.774307 
	C151.884796,130.186829 149.981018,131.280548 148.089523,132.172974 
	C142.496246,134.811905 142.800476,138.877182 144.921051,143.634705 
	C145.855972,145.732224 146.193756,148.111206 147.235886,150.139862 
	C147.861282,151.357239 149.322861,152.145065 150.704315,153.062973 
	C151.000000,153.000000 150.996643,152.998444 150.996643,152.998444 
	C151.068771,155.687805 148.080399,158.880554 152.647278,160.944489 
	C153.000122,161.000320 152.991913,160.994553 152.991913,160.994553 
	C153.208084,164.003021 152.942764,167.146240 153.739349,169.992264 
	C155.470459,176.177307 157.743576,182.210648 159.898254,188.651947 
	C160.001389,188.997910 160.010117,188.986664 160.010117,188.986664 
	C157.993271,189.746109 155.976425,190.505554 154.747635,190.968246 
	C152.867508,189.815704 151.249847,188.824066 149.315933,187.915924 
	C148.999695,187.999435 149.009659,188.006226 149.009644,188.006226 
	C149.016541,186.313446 149.023438,184.620682 149.040466,182.507370 
z"/>
<path fill="#D72604" opacity="1.000000" stroke="none" 
	d="
M81.946564,177.460297 
	C91.249435,170.157928 101.000092,163.011353 110.573692,155.634964 
	C113.076096,153.706879 114.587761,154.653580 116.559631,156.215347 
	C127.205643,164.647202 137.917313,172.996170 148.750671,181.661438 
	C145.875748,183.961212 143.165955,183.268723 140.855713,180.806442 
	C138.221451,177.998825 136.030655,174.710709 133.138046,172.223450 
	C127.294907,167.198990 121.183594,162.471298 114.970558,157.910446 
	C114.151588,157.309250 111.786713,157.976517 110.650185,158.780548 
	C102.956604,164.223450 95.449028,169.929138 87.759995,175.378693 
	C86.216446,176.472672 84.152336,176.832153 81.946564,177.460297 
z"/>
<path fill="#D72604" opacity="1.000000" stroke="none" 
	d="
M153.003677,161.004395 
	C153.254929,160.403915 153.502640,159.799332 153.750336,159.194763 
	C153.949814,159.329376 154.149292,159.464005 154.348770,159.598633 
	C154.029343,159.985184 153.709900,160.371750 153.191193,160.876434 
	C152.991913,160.994553 153.000122,161.000320 153.003677,161.004395 
z"/>
<path fill="#D72604" opacity="1.000000" stroke="none" 
	d="
M148.995529,187.994568 
	C148.748901,188.575241 148.506439,189.160797 148.263962,189.746368 
	C148.066193,189.626556 147.868408,189.506744 147.670624,189.386932 
	C147.987091,189.006882 148.303558,188.626831 148.814850,188.126495 
	C149.009659,188.006226 148.999695,187.999435 148.995529,187.994568 
z"/>
<path fill="#D72604" opacity="1.000000" stroke="none" 
	d="
M151.001648,153.002075 
	C151.003296,153.004150 151.146149,152.638412 151.146149,152.638412 
	C151.146149,152.638412 151.078339,152.855606 151.037491,152.927032 
	C150.996643,152.998444 151.000000,153.000000 151.001648,153.002075 
z"/>
<path fill="#D72604" opacity="1.000000" stroke="none" 
	d="
M159.996185,189.000458 
	C159.990982,189.002991 160.236481,189.354935 160.236481,189.354935 
	C160.236481,189.354935 160.070740,189.150864 160.040436,189.068756 
	C160.010117,188.986664 160.001389,188.997910 159.996185,189.000458 
z"/>
<path fill="#FCE311" opacity="1.000000" stroke="none" 
	d="
M293.375488,75.976639 
	C293.397614,75.830330 293.450073,75.663506 293.502533,75.496674 
	C293.347748,75.618057 293.192963,75.739433 293.256927,75.897423 
	C293.475647,75.934029 293.405823,75.956123 293.375488,75.976639 
z"/>
<path fill="#E70012" opacity="1.000000" stroke="none" 
	d="
M71.958702,190.037750 
	C71.337128,189.726669 70.753998,189.376358 70.170860,189.026062 
	C70.333931,188.807983 70.497009,188.589920 70.660080,188.371841 
	C71.064468,188.739517 71.468849,189.107178 71.973030,189.696899 
	C72.072830,189.918976 71.997139,189.998550 71.958702,190.037750 
z"/>
<path fill="#E70012" opacity="1.000000" stroke="none" 
	d="
M173.922638,115.051407 
	C173.861633,115.111015 173.991714,114.813263 174.047073,114.841339 
	C174.102432,114.869423 173.983627,114.991806 173.922638,115.051407 
z"/>
</svg>