<svg width="16" height="16" viewBox="0 0 16 16" fill="none" xmlns="http://www.w3.org/2000/svg">
<g id="1:1 / gb" clip-path="url(#clip0_2095_67356)">
<path id="Vector" d="M0 0H16V16H0V0Z" fill="#012169"/>
<path id="Vector_2" d="M16 0V2L10.0625 8L16 13.8438V16H13.9062L7.9375 10.125L2.125 16H0V13.875L5.8125 8.03125L0 2.3125V0H1.9375L7.9375 5.875L13.75 0H16Z" fill="white"/>
<path id="Vector_3" d="M5.75 10.125L6.09375 11.1875L1.3125 16H0V15.9062L5.75 10.125ZM9.625 9.75L11.3125 10L16 14.5938V16L9.625 9.75ZM16 0L10 6.125L9.875 4.75L14.5625 0H16ZM0 0.03125L6.03125 5.9375L4.1875 5.6875L0 1.53125V0.03125Z" fill="#C8102E"/>
<path id="Vector_4" d="M5.5 0V16H10.5V0H5.5ZM0 5.5V10.5H16V5.5H0Z" fill="white"/>
<path id="Vector_5" d="M0 6.5V9.5H16V6.5H0ZM6.5 0V16H9.5V0H6.5Z" fill="#C8102E"/>
</g>
<defs>
<clipPath id="clip0_2095_67356">
<rect width="16" height="16" fill="white"/>
</clipPath>
</defs>
</svg>
