<svg width="16" height="16" viewBox="0 0 16 16" fill="none" xmlns="http://www.w3.org/2000/svg">
<mask id="mask0_898_84909" style="mask-type:luminance" maskUnits="userSpaceOnUse" x="0" y="0" width="16" height="16">
<path d="M0 0H16V16H0V0Z" fill="white"/>
</mask>
<g mask="url(#mask0_898_84909)">
<path d="M0 0H24V16H0V0Z" fill="#FF0000"/>
<path d="M0 0H12V8H0V0Z" fill="#000095"/>
<path d="M5.13516 4.23125L5.05078 4.55L5.36641 4.63438L5.30391 4.40313L5.13516 4.23125ZM6.69766 4.40313L6.63516 4.63438L6.95078 4.55L6.86641 4.23125L6.69766 4.40313ZM5.30391 3.59688L5.13516 3.76875L5.19766 4L5.30391 3.59688Z" fill="white"/>
<path d="M5.19727 4L5.13477 4.23125L5.30352 4.40312L5.19727 4Z" fill="white"/>
<path d="M5.13359 3.76875L4.90234 4L5.13359 4.23125L5.19609 4L5.13359 3.76875ZM5.59609 4.69688L5.76797 4.86563L5.99922 4.80313L5.59609 4.69688ZM6.23047 4.86563L6.54922 4.95L6.63359 4.63438L6.40234 4.69688L6.23047 4.86563Z" fill="white"/>
<path d="M6.40273 4.69687L6.63398 4.63437L6.69648 4.40312L6.40273 4.69687ZM5.36523 4.63437L5.44961 4.95L5.76836 4.86562L5.59648 4.69687L5.36523 4.63437ZM5.99961 4.80312L6.23086 4.86562L6.40273 4.69687L5.99961 4.80312Z" fill="white"/>
<path d="M5.76953 4.86562L6.00078 5.09687L6.23203 4.86562L6.00078 4.80312L5.76953 4.86562ZM5.36641 3.36562L5.05078 3.45L5.13516 3.76875L5.30391 3.59687L5.36641 3.36562ZM5.30391 4.40312L5.36641 4.63437L5.59766 4.69687L5.30391 4.40312ZM6.80391 4L6.86641 3.76875L6.69766 3.59687L6.80391 4Z" fill="white"/>
<path d="M5.59648 3.30312L5.36523 3.36562L5.30273 3.59687L5.59648 3.30312ZM6.69648 3.59687L6.63398 3.36562L6.40273 3.30312L6.69648 3.59687ZM6.86523 4.23125L7.09649 4L6.86523 3.76875L6.80273 4L6.86523 4.23125Z" fill="white"/>
<path d="M6.69727 3.59688L6.40352 3.30313L6.00039 3.19688L5.59727 3.30313L5.30352 3.59688L5.19727 4L5.30352 4.40313L5.59727 4.69688L6.00039 4.80313L6.40352 4.69688L6.69727 4.40313L6.80352 4L6.69727 3.59688Z" fill="white"/>
<path d="M6.69648 4.40313L6.86523 4.23125L6.80273 4L6.69648 4.40313ZM6.86523 3.76875L6.94961 3.45L6.63398 3.36563L6.69648 3.59688L6.86523 3.76875ZM6.63398 3.36563L6.54961 3.05L6.23086 3.13438L6.40273 3.30313L6.63398 3.36563ZM5.76836 3.13438L5.44961 3.05L5.36523 3.36563L5.59648 3.30313L5.76836 3.13438Z" fill="white"/>
<path d="M6.00078 3.19688L5.76953 3.13438L5.59766 3.30313L6.00078 3.19688Z" fill="white"/>
<path d="M6.23203 3.13437L6.00078 2.90312L5.76953 3.13437L6.00078 3.19687L6.23203 3.13437Z" fill="white"/>
<path d="M6.40234 3.30313L6.23047 3.13438L5.99922 3.19688L6.40234 3.30313ZM5.76797 4.86563L5.44922 4.95L5.59609 5.5L5.99922 5.09688L5.76797 4.86563ZM5.59609 5.5L5.99922 7L6.40234 5.5L5.99922 5.09688L5.59609 5.5ZM5.36484 4.63438L5.04922 4.55L4.90234 5.09688L5.44922 4.95L5.36484 4.63438Z" fill="white"/>
<path d="M4.90234 5.09687L4.49922 6.59687L5.59609 5.5L5.44922 4.95L4.90234 5.09687ZM4.49922 4.40312L3.40234 5.5L4.90234 5.09687L5.04922 4.55L4.49922 4.40312Z" fill="white"/>
<path d="M5.13438 4.23125L4.90312 4L4.5 4.40312L5.05 4.55L5.13438 4.23125ZM5.13438 3.76875L5.05 3.45L4.5 3.59687L4.90312 4L5.13438 3.76875Z" fill="white"/>
<path d="M4.5 3.59688L3 4L4.5 4.40313L4.90312 4L4.5 3.59688ZM7.5 4.40313L6.95 4.55L7.09688 5.09688L8.59688 5.5L7.5 4.40313Z" fill="white"/>
<path d="M6.63438 4.63437L6.55 4.95L7.09688 5.09687L6.95 4.55L6.63438 4.63437ZM6.23125 4.86562L6 5.09687L6.40312 5.5L6.55 4.95L6.23125 4.86562ZM6.86562 4.23125L6.95 4.55L7.5 4.40312L7.09688 4L6.86562 4.23125ZM6.40312 5.5L7.5 6.59687L7.09688 5.09687L6.55 4.95L6.40312 5.5ZM6.63438 3.36562L6.95 3.45L7.09688 2.90312L6.55 3.05L6.63438 3.36562ZM7.5 3.59687L8.59688 2.5L7.09688 2.90312L6.95 3.45L7.5 3.59687ZM7.09688 2.90312L7.5 1.40312L6.40312 2.5L6.55 3.05L7.09688 2.90312ZM7.5 4.40312L9 4L7.5 3.59687L7.09688 4L7.5 4.40312Z" fill="white"/>
<path d="M6.86562 3.76875L7.09688 4L7.5 3.59687L6.95 3.45L6.86562 3.76875ZM5.59688 2.5L4.5 1.40312L4.90312 2.90312L5.45 3.05L5.59688 2.5ZM5.36562 3.36562L5.45 3.05L4.90312 2.90312L5.05 3.45L5.36562 3.36562Z" fill="white"/>
<path d="M4.90234 2.90313L3.40234 2.5L4.49922 3.59687L5.04922 3.45L4.90234 2.90313ZM6.23047 3.13438L6.54922 3.05L6.40234 2.5L5.99922 2.90313L6.23047 3.13438Z" fill="white"/>
<path d="M6.40391 2.5L6.00078 1L5.59766 2.5L6.00078 2.90313L6.40391 2.5Z" fill="white"/>
<path d="M5.76797 3.13438L5.99922 2.90313L5.59609 2.5L5.44922 3.05L5.76797 3.13438Z" fill="white"/>
<path d="M6.00078 5.7C6.93967 5.7 7.70078 4.93889 7.70078 4C7.70078 3.06112 6.93967 2.3 6.00078 2.3C5.0619 2.3 4.30078 3.06112 4.30078 4C4.30078 4.93889 5.0619 5.7 6.00078 5.7Z" fill="#000095"/>
<path d="M6 5.5C6.82843 5.5 7.5 4.82843 7.5 4C7.5 3.17157 6.82843 2.5 6 2.5C5.17157 2.5 4.5 3.17157 4.5 4C4.5 4.82843 5.17157 5.5 6 5.5Z" fill="white"/>
</g>
</svg>
