<svg xmlns="http://www.w3.org/2000/svg" width="31" height="31" viewBox="0 0 31 31" fill="none">
  <g clip-path="url(#clip0_1897_105475)">
    <path d="M15.2734 30.5C23.5577 30.5 30.2734 23.7854 30.2734 15.5C30.2734 7.21452 23.5577 0.5 15.2734 0.5C6.98918 0.5 0.273438 7.21572 0.273438 15.5C0.273438 23.7843 6.98918 30.5 15.2734 30.5Z" fill="url(#paint0_linear_1897_105475)"/>
    <path fill-rule="evenodd" clip-rule="evenodd" d="M6.77344 7.45459H23.562V9.45459H6.77344V7.45459Z" fill="white"/>
    <path fill-rule="evenodd" clip-rule="evenodd" d="M16.168 7.45459L16.168 15.7205L14.168 15.7205L14.168 7.45459L16.168 7.45459Z" fill="white"/>
    <path fill-rule="evenodd" clip-rule="evenodd" d="M16.168 17.1265L16.168 25.8604L14.168 25.8604L14.168 17.1265L16.168 17.1265Z" fill="white"/>
    <path fill-rule="evenodd" clip-rule="evenodd" d="M20.8219 16.4044C20.6438 16.4445 20.4539 16.4826 20.2535 16.5187C18.9282 16.7571 17.1379 16.9033 15.1677 16.9033C13.1975 16.9033 11.4073 16.7571 10.082 16.5187C9.88151 16.4826 9.69169 16.4445 9.5135 16.4044C8.42778 16.1601 7.77344 15.8446 7.77344 15.5C7.77344 15.1554 8.42778 14.8399 9.5135 14.5956C9.69169 14.5555 9.88151 14.5174 10.082 14.4813C11.4073 14.2429 13.1975 14.0967 15.1677 14.0967C17.1379 14.0967 18.9282 14.2429 20.2535 14.4813C20.4539 14.5174 20.6438 14.5555 20.8219 14.5956C21.9077 14.8399 22.562 15.1554 22.562 15.5C22.562 15.8446 21.9077 16.1601 20.8219 16.4044ZM21.2017 14.2022C21.2018 14.2022 21.1991 14.2038 21.1933 14.2067C21.1987 14.2036 21.2015 14.2021 21.2017 14.2022ZM9.13379 14.2022C9.13391 14.2021 9.1368 14.2036 9.14211 14.2067C9.13633 14.2038 9.13367 14.2022 9.13379 14.2022ZM9.13379 16.7978C9.13367 16.7978 9.13633 16.7962 9.14211 16.7933C9.1368 16.7964 9.13391 16.7979 9.13379 16.7978ZM21.2017 16.7978C21.2015 16.7979 21.1987 16.7964 21.1934 16.7933C21.1991 16.7962 21.2018 16.7978 21.2017 16.7978ZM20.7692 18.4572C19.2748 18.7408 17.2954 18.9033 15.1677 18.9033C13.04 18.9033 11.0607 18.7408 9.56626 18.4572C8.83551 18.3185 8.11813 18.1323 7.53576 17.871C7.25113 17.7433 6.88675 17.5489 6.56364 17.2492C6.24276 16.9516 5.77344 16.3642 5.77344 15.5C5.77344 14.6358 6.24276 14.0484 6.56364 13.7508C6.88675 13.4511 7.25113 13.2567 7.53576 13.129C8.11813 12.8677 8.83551 12.6815 9.56626 12.5428C11.0607 12.2592 13.04 12.0967 15.1677 12.0967C17.2954 12.0967 19.2748 12.2592 20.7692 12.5428C21.4999 12.6815 22.2173 12.8677 22.7997 13.129C23.0843 13.2567 23.4487 13.4511 23.7718 13.7508C24.0927 14.0484 24.562 14.6358 24.562 15.5C24.562 16.3642 24.0927 16.9516 23.7718 17.2492C23.4487 17.5489 23.0843 17.7433 22.7997 17.871C22.2173 18.1323 21.4999 18.3185 20.7692 18.4572Z" fill="white"/>
  </g>
  <defs>
    <linearGradient id="paint0_linear_1897_105475" x1="7.49945" y1="2.98868" x2="24.8336" y2="27.3898" gradientUnits="userSpaceOnUse">
      <stop stop-color="#15D5A7"/>
      <stop offset="1" stop-color="#E4F752"/>
    </linearGradient>
    <clipPath id="clip0_1897_105475">
      <rect width="30" height="30" fill="white" transform="translate(0.273438 0.5)"/>
    </clipPath>
  </defs>
</svg>