<svg width="79" height="72" viewBox="0 0 79 72" fill="none" xmlns="http://www.w3.org/2000/svg">
<path d="M64.6409 11.5626C64.1128 11.0404 63.5408 10.5485 62.9403 10.1021C60.1528 8.02404 56.8153 6.92759 53.2893 6.92759C50.7319 6.92759 48.2687 7.51048 46.0553 8.61344L42.9939 5.65562C41.0479 3.73357 38.76 2.26658 36.1983 1.29364C33.9367 0.435547 31.559 0 29.1353 0H29.0498C23.8298 0.0043338 18.9232 2.01739 15.2306 5.66645C11.5358 9.31768 9.5 14.178 9.5 19.3439C9.5 24.5098 11.5358 29.3702 15.2306 33.0236C18.9144 36.6662 23.8145 38.6792 29.0301 38.69H36.3188V38.6944H43.4212L46.5418 38.69H53.2695C57.5691 38.69 61.608 37.0324 64.6431 34.0225L65.5394 33.1341L65.5701 33.0128C68.0026 30.1611 69.3306 26.5619 69.3306 22.785C69.3306 18.5357 67.6651 14.5486 64.6431 11.5604L64.6409 11.5626Z" fill="#FFA502"/>
<path d="M62.4341 13.7447C62.0024 13.3178 61.5444 12.9256 61.0623 12.5659C58.838 10.9082 56.1359 10.0111 53.2892 10.0111C49.8268 10.0111 46.5791 11.3373 44.1444 13.7425L35.7271 22.0656L34.7541 23.0277H38.9485L46.2416 15.8162C48.1153 13.9635 50.6179 12.9429 53.2892 12.9429C55.2966 12.9429 57.2097 13.5193 58.8314 14.5919C59.3683 14.9473 59.8723 15.3547 60.3369 15.8162C62.2106 17.6689 63.2427 20.1436 63.2427 22.785C63.2427 25.4265 62.2106 27.9011 60.3369 29.7538L60.0476 30.0398V30.0441C58.1981 31.7408 55.8072 32.6704 53.2695 32.6704H42.5622V32.6747H40.3422H29.0673C21.634 32.6747 15.5856 26.6941 15.5856 19.344C15.5856 11.9938 21.4061 6.2407 28.6466 6.01968L29.0848 6.01318C29.1002 6.01318 29.1155 6.01318 29.1309 6.01318C30.8117 6.01318 32.4531 6.31438 34.02 6.90811C35.7862 7.57768 37.3619 8.59179 38.7052 9.91794L41.2451 12.3709C41.2451 12.3709 43.3467 10.2971 43.3467 10.3058L40.8046 7.85071C39.1654 6.22987 37.2414 4.99257 35.0828 4.17348C33.1521 3.44106 31.1251 3.07486 29.0542 3.08352C24.6669 3.08786 20.5426 4.77804 17.4417 7.84638C14.3365 10.9169 12.625 15.0015 12.625 19.344C12.625 23.6864 14.3365 27.771 17.4417 30.8415C20.5382 33.9034 24.6559 35.5957 29.0344 35.6044H39.4438V35.6087H43.4234V35.6044H53.2717C56.7342 35.6044 59.9885 34.2696 62.4341 31.8427L62.7234 31.5566L62.7299 31.5285C64.9784 29.1579 66.2099 26.07 66.2099 22.785C66.2099 19.5 64.8688 16.1499 62.4363 13.7425L62.4341 13.7447Z" fill="white"/>
<path d="M22.2717 19.7882C22.2717 15.8726 25.4931 12.6894 29.4509 12.6894C32.7665 12.6894 35.5628 14.9235 36.3846 17.9485L38.8149 15.5454C37.1844 12.0415 33.6014 9.60156 29.4509 9.60156C23.7707 9.60156 19.1489 14.1716 19.1489 19.7882C19.1489 23.8923 21.6165 27.4352 25.16 29.0473L27.5903 26.6443C24.5311 25.8317 22.2717 23.0645 22.2717 19.7882Z" fill="white"/>
<path d="M4.0814 67.4133H0.693481V68.8697H4.0814V67.4133Z" fill="white"/>
<path d="M4.0814 57.6853H0.693481V63.0422H4.0814V57.6853Z" fill="white"/>
<path d="M4.0814 64.4985H0.693481V65.9549H4.0814V64.4985Z" fill="white"/>
<path d="M2.36023 55.7443C3.53522 55.7443 4.27286 54.9404 4.27286 53.9136C4.24465 52.8602 3.53522 52.0564 2.38643 52.0564C1.23764 52.0564 0.5 52.8602 0.5 53.9136C0.5 54.967 1.23764 55.7443 2.35822 55.7443H2.36023Z" fill="white"/>
<path d="M4.0814 70.3259H0.693481V71.1911H4.0814V70.3259Z" fill="white"/>
<path d="M7.88047 67.4767C8.97283 68.1149 10.6134 68.6692 12.3345 68.6692C14.4931 68.6692 15.6963 67.6424 15.6963 66.1165C15.6963 64.7011 14.7671 63.8707 12.4172 63.0096C9.38397 61.901 7.44312 60.2646 7.44312 57.5729C7.44312 54.5211 9.95837 52.1914 13.9469 52.1914C15.9421 52.1914 17.4174 52.6353 18.3748 53.1343L17.5545 55.8793C16.8995 55.5193 15.6136 54.9916 13.8925 54.9916C11.7601 54.9916 10.831 56.1575 10.831 57.2374C10.831 58.6794 11.8972 59.3462 14.356 60.3158C17.5545 61.5369 19.1104 63.1732 19.1104 65.8629C19.1104 68.8574 16.8692 71.4653 12.1149 71.4653C10.174 71.4653 8.15255 70.911 7.14081 70.2994L7.87845 67.4706L7.88047 67.4767Z" fill="white"/>
<path d="M34.0628 67.1433C34.0628 68.751 34.1172 70.0825 34.1716 71.1932H31.221L31.0578 69.1416H31.0034C30.429 70.1132 29.1169 71.5 26.7407 71.5C24.3646 71.5 22.0952 70.0293 22.0952 65.6194V57.6873H25.4569V65.0365C25.4569 67.2824 26.1684 68.7244 27.944 68.7244C29.2822 68.7244 30.1569 67.7528 30.5136 66.8937C30.6224 66.589 30.7051 66.229 30.7051 65.8403V57.6853H34.0668V67.1433H34.0628Z" fill="white"/>
<path d="M37.8336 61.7065C37.8336 60.1541 37.8054 58.8491 37.7248 57.6853H40.6754L40.8386 59.7102H40.9212C41.4956 58.6568 42.9427 57.3805 45.1577 57.3805C47.4814 57.3805 49.8858 58.9064 49.8858 63.1772V71.1931H46.5241V63.5658C46.5241 61.6247 45.8127 60.1541 43.9827 60.1541C42.6444 60.1541 41.7153 61.1256 41.3586 62.1504C41.2498 62.4552 41.2215 62.8724 41.2215 63.259V71.1911H37.8336V61.7065Z" fill="white"/>
<path d="M63.5 71L69.3403 53H72.6597L78.5 71H75.4202L74.0399 66.3472H67.9487L66.5798 71H63.5ZM70.903 56.343L68.6901 63.8649H73.3099L71.097 56.343H70.903Z" fill="white"/>
<path d="M52.5 71.3193V53H64.1797V55.7549H55.7754V61.1758H63.4561V63.8418H55.7754V71.3193H52.5Z" fill="white"/>
</svg>
