<svg width="46" height="36" viewBox="0 0 46 36" fill="none" xmlns="http://www.w3.org/2000/svg">
<g clip-path="url(#clip0_533_1537886)">
<path d="M36.827 3.77777C36.5864 3.46121 36.3267 3.15756 36.0417 2.86684C36.0417 2.86684 36.0354 2.86038 36.0291 2.85392C32.299 -0.951306 26.2512 -0.951306 22.5211 2.85392L23.4267 3.77777C24.6236 4.9988 26.3715 5.44457 28.0054 4.99234C28.2777 4.91481 28.5627 4.86313 28.8413 4.83729L31.3428 3.46767C33.211 2.44045 35.2945 2.69887 36.827 3.77777Z" fill="#FFA502"/>
<path d="M31.3428 16.0592L28.8287 14.6766C28.5564 14.6508 28.2841 14.5991 28.0181 14.528C26.3842 14.0823 24.649 14.528 23.4521 15.7491L22.5402 16.6794C26.2765 20.4652 32.3117 20.4588 36.0418 16.6535C36.0861 16.6083 36.1305 16.5631 36.1748 16.5179C36.4091 16.2724 36.6244 16.0139 36.8271 15.7491C35.2945 16.8215 33.2173 17.0735 31.3492 16.0527L31.3428 16.0592Z" fill="#FFA502"/>
<path d="M37.7263 5.19267C37.473 4.70167 37.1753 4.23005 36.8333 3.77782C35.2945 2.69892 33.2173 2.4405 31.3491 3.46772L28.8476 4.83734C29.4746 4.77919 30.1142 4.85026 30.7221 5.03761C31.4694 5.27665 32.1724 5.69658 32.755 6.31679C33.6606 7.26648 34.1102 8.50043 34.1166 9.74085C34.1419 9.74085 34.1419 9.74085 34.1166 9.74085C34.1166 10.9877 33.6669 12.2346 32.7613 13.1907C32.1787 13.8045 31.4821 14.2309 30.7348 14.4699C30.1205 14.6702 29.4682 14.7348 28.835 14.6767L31.3491 16.0592C33.2173 17.08 35.2881 16.828 36.827 15.7556C37.1627 15.3162 37.454 14.8511 37.7073 14.373C39.2018 11.5175 39.2145 8.05466 37.7326 5.19267H37.7263Z" fill="#FFC40C"/>
<path d="M34.3508 9.74084C34.3952 9.74084 34.4458 9.74084 34.4902 9.73438C34.4458 9.73438 34.3952 9.74084 34.3508 9.74084Z" fill="#FFA502"/>
<path d="M14.8584 0.0241699C16.9672 0.0241699 18.6771 1.7685 18.6771 3.91984V19.5025C16.5683 19.5025 14.8584 17.7582 14.8584 15.6069V0.0241699Z" fill="#FFA502"/>
<path d="M30.6398 8.38413C29.8926 7.62179 28.683 7.62179 27.942 8.38413C27.6824 8.64901 27.3594 8.83636 26.9984 8.90097C26.6881 8.95265 26.3778 8.99142 26.0675 9.00434C25.0226 9.05602 24.0093 8.64901 23.2747 7.89313L22.9328 7.54427C22.7808 7.38922 22.5401 7.38922 22.3945 7.54427L20.6213 9.3532L20.4946 9.48241C20.3426 9.63746 20.3426 9.88296 20.4946 10.0316L20.6213 10.1608L22.3945 11.9697C22.5464 12.1248 22.7871 12.1248 22.9328 11.9697L23.2747 11.6208C23.9143 10.9683 24.7819 10.5872 25.6939 10.5807C26.2195 10.5807 26.7515 10.6324 27.2708 10.7422C27.5304 10.7939 27.7647 10.936 27.9547 11.1298C28.702 11.8922 29.9116 11.8922 30.6525 11.1298C31.3998 10.3675 31.3998 9.13355 30.6525 8.37767L30.6398 8.38413Z" fill="#FFA502"/>
<path d="M11.9389 1.25171C9.08279 2.9702 7.16394 6.13584 7.16394 9.76017C7.16394 13.3845 9.08279 16.5566 11.9389 18.2751V1.25171Z" fill="#FFA502"/>
<path d="M2.11382 33.578H0.114502V34.4438H2.11382V33.578Z" fill="#002462"/>
<path d="M2.11382 27.8097H0.114502V30.986H2.11382V27.8097Z" fill="#002462"/>
<path d="M2.11382 31.8517H0.114502V32.7175H2.11382V31.8517Z" fill="#002462"/>
<path d="M1.09858 26.6571C1.79106 26.6571 2.22841 26.1791 2.22841 25.5735C2.21279 24.9468 1.79106 24.4688 1.1142 24.4688C0.437351 24.4688 0 24.9468 0 25.5735C0 26.2003 0.43735 26.6571 1.09858 26.6571Z" fill="#002462"/>
<path d="M2.11382 35.3042H0.114502V35.8194H2.11382V35.3042Z" fill="#002462"/>
<path d="M4.35263 33.6152C4.99825 33.9923 5.96667 34.3216 6.98195 34.3216C8.25756 34.3216 8.96565 33.7108 8.96565 32.8078C8.96565 31.9686 8.41896 31.4747 7.02881 30.9648C5.23775 30.3061 4.0923 29.3341 4.0923 27.7407C4.0923 25.9295 5.57618 24.5485 7.92954 24.5485C9.10623 24.5485 9.97572 24.814 10.5432 25.1062L10.059 26.7368C9.67374 26.5243 8.91359 26.211 7.89831 26.211C6.63832 26.211 6.09163 26.9015 6.09163 27.5441C6.09163 28.3993 6.72162 28.7924 8.17425 29.3713C10.059 30.0937 10.9806 31.0657 10.9806 32.6591C10.9806 34.4332 9.65812 35.9841 6.85178 35.9841C5.70634 35.9841 4.51404 35.6548 3.91528 35.2936L4.35263 33.6152Z" fill="#002462"/>
<path d="M19.8005 33.4186C19.8005 34.3746 19.8318 35.1607 19.863 35.8194H18.124L18.0251 34.603H17.9939C17.6554 35.1767 16.8797 36 15.4791 36C14.0785 36 12.7352 35.1289 12.7352 32.5103V27.8043H14.7189V32.1651C14.7189 33.4982 15.1407 34.3534 16.1872 34.3534C16.9786 34.3534 17.494 33.7798 17.7023 33.2699C17.7648 33.0893 17.8168 32.8768 17.8168 32.6431V27.8043H19.8005V33.4133V33.4186Z" fill="#002462"/>
<path d="M22.029 30.1945C22.029 29.2756 22.0134 28.5001 21.9666 27.8096H23.7055L23.8045 29.01H23.8513C24.1898 28.3833 25.0436 27.629 26.3505 27.629C27.7198 27.629 29.1412 28.532 29.1412 31.0656V35.8194H27.1575V31.294C27.1575 30.1414 26.7358 29.2703 25.658 29.2703C24.8666 29.2703 24.3199 29.8439 24.1117 30.4547C24.0492 30.6353 24.0336 30.885 24.0336 31.1134V35.8194H22.0342V30.1945H22.029Z" fill="#002462"/>
<path d="M30.9946 24.2935H36.9614V25.9825H32.9783V29.2438H36.6906V30.901H32.9783V35.8194H30.9946V24.2935Z" fill="#002462"/>
<path d="M39.8458 32.6378L38.9867 35.8194H36.9718L40.2623 24.2935H42.7303L46 35.8194H43.9226L43.027 32.6378H39.8406H39.8458ZM42.7355 31.0975L41.9701 28.3143C41.7775 27.5866 41.6004 26.7208 41.4442 26.0091H41.4026C41.2516 26.7261 41.0798 27.6131 40.8975 28.309L40.1374 31.0922H42.7303L42.7355 31.0975Z" fill="#002462"/>
</g>
<defs>
<clipPath id="clip0_533_1537886">
<rect width="46" height="36" fill="white"/>
</clipPath>
</defs>
</svg>
