<svg width="89" height="68" viewBox="0 0 89 68" fill="none" xmlns="http://www.w3.org/2000/svg">
<g clip-path="url(#clip0_177_151)">
<path d="M70.7319 7.11243C70.2697 6.51644 69.771 5.94476 69.2236 5.39742C69.2236 5.39742 69.2115 5.38526 69.1993 5.37309C62.0352 -1.79103 50.4193 -1.79103 43.2552 5.37309L44.9945 7.11243C47.2934 9.41128 50.6504 10.2505 53.7885 9.39911C54.3115 9.25316 54.8589 9.15585 55.3941 9.1072L60.1985 6.5286C63.7867 4.59465 67.7884 5.08118 70.7319 7.11243Z" fill="#FFA502"/>
<path d="M60.1985 30.2346L55.3697 27.6317C54.8467 27.583 54.3237 27.4857 53.8129 27.3519C50.6747 26.5127 47.342 27.3519 45.0432 29.6508L43.2917 31.4023C50.468 38.5299 62.0595 38.5177 69.2236 31.3536C69.3088 31.2685 69.3939 31.1833 69.4791 31.0982C69.9291 30.636 70.3426 30.1495 70.7319 29.6508C67.7884 31.6699 63.7988 32.1442 60.2107 30.2224L60.1985 30.2346Z" fill="#FFA502"/>
<path d="M72.459 9.77607C71.9724 8.85167 71.4008 7.96376 70.744 7.11233C67.7883 5.08108 63.7988 4.59455 60.2106 6.5285L55.4062 9.1071C56.6103 8.99763 57.8388 9.13142 59.0065 9.48416C60.4417 9.9342 61.7918 10.7248 62.9109 11.8925C64.6502 13.6805 65.5138 16.0036 65.5259 18.339C65.5746 18.339 65.5746 18.339 65.5259 18.339C65.5259 20.6865 64.6624 23.034 62.923 24.8341C61.804 25.9896 60.4661 26.7924 59.0308 27.2424C57.851 27.6195 56.5982 27.7411 55.3818 27.6317L60.2106 30.2346C63.7988 32.1564 67.7761 31.682 70.7318 29.6629C71.3764 28.8358 71.9359 27.9601 72.4225 27.06C75.293 21.6838 75.3173 15.1644 72.4711 9.77607H72.459Z" fill="#FFC40C"/>
<path d="M65.976 18.3391C66.0612 18.3391 66.1585 18.3391 66.2436 18.3269C66.1585 18.3269 66.0612 18.3391 65.976 18.3391Z" fill="#FFA502"/>
<path d="M28.5377 0.0456543C32.5881 0.0456543 35.8721 3.32972 35.8721 7.38006V36.7177C31.8218 36.7177 28.5377 33.4336 28.5377 29.3833V0.0456543Z" fill="#FFA502"/>
<path d="M58.8484 15.7848C57.4131 14.3495 55.0899 14.3495 53.6668 15.7848C53.1682 16.2835 52.5478 16.6362 51.8545 16.7578C51.2585 16.8551 50.6625 16.9281 50.0665 16.9524C48.0596 17.0497 46.1135 16.2835 44.7026 14.8604L44.0458 14.2036C43.7538 13.9116 43.2916 13.9116 43.0119 14.2036L39.6062 17.6093L39.3629 17.8525C39.071 18.1444 39.071 18.6066 39.3629 18.8864L39.6062 19.1297L43.0119 22.5353C43.3038 22.8273 43.766 22.8273 44.0458 22.5353L44.7026 21.8785C45.931 20.6501 47.5974 19.9324 49.3489 19.9203C50.3585 19.9203 51.3802 20.0176 52.3775 20.2243C52.8762 20.3216 53.3263 20.5892 53.6912 20.9541C55.1264 22.3894 57.4496 22.3894 58.8727 20.9541C60.308 19.5189 60.308 17.1957 58.8727 15.7726L58.8484 15.7848Z" fill="#FFA502"/>
<path d="M22.9305 2.35669C17.4448 5.5921 13.7594 11.5521 13.7594 18.3756C13.7594 25.1992 17.4448 31.1713 22.9305 34.4067V2.35669Z" fill="#FFA502"/>
<path d="M4.05997 63.2175H0.219971V64.8475H4.05997V63.2175Z" fill="white"/>
<path d="M4.05997 52.3577H0.219971V58.3377H4.05997V52.3577Z" fill="white"/>
<path d="M4.05997 59.9675H0.219971V61.5975H4.05997V59.9675Z" fill="white"/>
<path d="M2.11 50.1876C3.44 50.1876 4.28 49.2876 4.28 48.1476C4.25 46.9676 3.44 46.0676 2.14 46.0676C0.839999 46.0676 0 46.9676 0 48.1476C0 49.3276 0.839997 50.1876 2.11 50.1876Z" fill="white"/>
<path d="M4.05997 66.4675H0.219971V67.4375H4.05997V66.4675Z" fill="white"/>
<path d="M8.36002 63.2875C9.60002 63.9975 11.46 64.6175 13.41 64.6175C15.86 64.6175 17.22 63.4675 17.22 61.7675C17.22 60.1875 16.17 59.2575 13.5 58.2975C10.06 57.0575 7.86002 55.2275 7.86002 52.2275C7.86002 48.8175 10.71 46.2175 15.23 46.2175C17.49 46.2175 19.16 46.7175 20.25 47.2675L19.32 50.3375C18.58 49.9375 17.12 49.3475 15.17 49.3475C12.75 49.3475 11.7 50.6475 11.7 51.8575C11.7 53.4675 12.91 54.2075 15.7 55.2975C19.32 56.6575 21.09 58.4875 21.09 61.4875C21.09 64.8275 18.55 67.7475 13.16 67.7475C10.96 67.7475 8.67002 67.1275 7.52002 66.4475L8.36002 63.2875Z" fill="white"/>
<path d="M38.03 62.9177C38.03 64.7177 38.09 66.1977 38.15 67.4377H34.81L34.62 65.1477H34.56C33.91 66.2277 32.42 67.7777 29.73 67.7777C27.04 67.7777 24.46 66.1377 24.46 61.2077V52.3477H28.27V60.5577C28.27 63.0677 29.08 64.6777 31.09 64.6777C32.61 64.6777 33.6 63.5977 34 62.6377C34.12 62.2977 34.22 61.8977 34.22 61.4577V52.3477H38.03V62.9077V62.9177Z" fill="white"/>
<path d="M42.31 56.8476C42.31 55.1176 42.28 53.6576 42.19 52.3576H45.53L45.72 54.6176H45.81C46.46 53.4376 48.1 52.0176 50.61 52.0176C53.24 52.0176 55.97 53.7176 55.97 58.4876V67.4376H52.16V58.9176C52.16 56.7476 51.35 55.1076 49.28 55.1076C47.76 55.1076 46.71 56.1876 46.31 57.3376C46.19 57.6776 46.16 58.1476 46.16 58.5776V67.4376H42.32V56.8476H42.31Z" fill="white"/>
<path d="M59.53 45.7375H70.99V48.9175H63.34V55.0575H70.47V58.1775H63.34V67.4375H59.53V45.7375Z" fill="white"/>
<path d="M76.53 61.4475L74.88 67.4375H71.01L77.33 45.7375H82.07L88.35 67.4375H84.36L82.64 61.4475H76.52H76.53ZM82.08 58.5475L80.61 53.3075C80.24 51.9375 79.9 50.3075 79.6 48.9675H79.52C79.23 50.3175 78.9 51.9875 78.55 53.2975L77.09 58.5375H82.07L82.08 58.5475Z" fill="white"/>
</g>
<defs>
<clipPath id="clip0_177_151">
<rect width="88.35" height="67.7775" fill="white"/>
</clipPath>
</defs>
</svg>
