<svg width="147" height="30" viewBox="0 0 147 30" fill="none" xmlns="http://www.w3.org/2000/svg">
<g clip-path="url(#clip0_78_4273)">
<path d="M46.7247 5.80805C46.3457 5.32136 45.9367 4.85453 45.4878 4.40756C45.4878 4.40756 45.4778 4.39763 45.4678 4.3877C39.5923 -1.46257 30.0658 -1.46257 24.1903 4.3877L25.6168 5.80805C27.5021 7.6853 30.2553 8.37064 32.829 7.67537C33.2579 7.55618 33.7068 7.47672 34.1458 7.43699L38.086 5.33129C41.0288 3.75202 44.3107 4.14932 46.7247 5.80805Z" fill="#FFA502"/>
<path d="M38.0861 24.6898L34.1258 22.5642C33.6969 22.5245 33.268 22.4451 32.849 22.3358C30.2753 21.6505 27.5421 22.3358 25.6567 24.213L24.2203 25.6433C30.1058 31.4638 39.6123 31.4539 45.4878 25.6036C45.5576 25.5341 45.6275 25.4645 45.6973 25.395C46.0664 25.0176 46.4056 24.6203 46.7248 24.213C44.3107 25.8618 41.0388 26.2492 38.096 24.6799L38.0861 24.6898Z" fill="#FFA502"/>
<path d="M48.1413 7.98329C47.7422 7.22842 47.2734 6.50334 46.7347 5.80806C44.3107 4.14933 41.0388 3.75203 38.096 5.3313L34.1558 7.437C35.1433 7.34761 36.1508 7.45687 37.1085 7.74491C38.2856 8.11241 39.3928 8.75803 40.3106 9.71155C41.7371 11.1716 42.4453 13.0687 42.4553 14.9758C42.4952 14.9758 42.4952 14.9758 42.4553 14.9758C42.4553 16.8928 41.747 18.8098 40.3205 20.2798C39.4028 21.2234 38.3055 21.8789 37.1284 22.2464C36.1608 22.5543 35.1333 22.6536 34.1358 22.5643L38.096 24.6898C41.0388 26.2592 44.3007 25.8718 46.7248 24.223C47.2534 23.5476 47.7123 22.8324 48.1113 22.0974C50.4655 17.7072 50.4855 12.3834 48.1512 7.98329H48.1413Z" fill="#FFC40C"/>
<path d="M42.8243 14.9758C42.8942 14.9758 42.974 14.9758 43.0438 14.9659C42.974 14.9659 42.8942 14.9758 42.8243 14.9758Z" fill="#FFA502"/>
<path d="M12.1201 0.037262C15.4419 0.037262 18.1353 2.71905 18.1353 6.02658V29.9839C14.8135 29.9839 12.1201 27.3021 12.1201 23.9945V0.037262Z" fill="#FFA502"/>
<path d="M36.9788 12.8899C35.8017 11.7179 33.8964 11.7179 32.7293 12.8899C32.3203 13.2972 31.8116 13.5852 31.243 13.6845C30.7542 13.764 30.2654 13.8236 29.7766 13.8435C28.1306 13.9229 26.5346 13.2972 25.3774 12.1351L24.8387 11.5987C24.5993 11.3603 24.2203 11.3603 23.9908 11.5987L21.1977 14.3798L20.9982 14.5785C20.7588 14.8168 20.7588 15.1943 20.9982 15.4227L21.1977 15.6214L23.9908 18.4025C24.2302 18.6409 24.6093 18.6409 24.8387 18.4025L25.3774 17.8661C26.3849 16.863 27.7516 16.2769 29.188 16.267C30.016 16.267 30.8539 16.3465 31.6719 16.5153C32.0809 16.5948 32.45 16.8133 32.7492 17.1113C33.9263 18.2833 35.8316 18.2833 36.9988 17.1113C38.1759 15.9392 38.1759 14.0421 36.9988 12.88L36.9788 12.8899Z" fill="#FFA502"/>
<path d="M7.52145 1.92444C3.02254 4.56649 0 9.43343 0 15.0056C0 20.5777 3.02254 25.4546 7.52145 28.0967V1.92444Z" fill="#FFA502"/>
<path d="M62.9174 21.4164H59.0869V23.0354H62.9174V21.4164Z" fill="#002462"/>
<path d="M62.9174 10.6297H59.0869V16.5694H62.9174V10.6297Z" fill="#002462"/>
<path d="M62.9174 18.1884H59.0869V19.8074H62.9174V18.1884Z" fill="#002462"/>
<path d="M60.9722 8.47432C62.2989 8.47432 63.1368 7.58039 63.1368 6.44808C63.1069 5.27604 62.2989 4.38211 61.0021 4.38211C59.7053 4.38211 58.8674 5.27604 58.8674 6.44808C58.8674 7.62012 59.7053 8.47432 60.9722 8.47432Z" fill="#002462"/>
<path d="M62.9174 24.6445H59.0869V25.608H62.9174V24.6445Z" fill="#002462"/>
<path d="M67.2068 21.486C68.4438 22.1912 70.2992 22.807 72.2444 22.807C74.6884 22.807 76.045 21.6648 76.045 19.9762C76.045 18.4069 74.9976 17.4832 72.3342 16.5296C68.9026 15.298 66.7081 13.4803 66.7081 10.5006C66.7081 7.11359 69.551 4.53113 74.0599 4.53113C76.3144 4.53113 77.9803 5.02775 79.0676 5.57404L78.1399 8.62333C77.4017 8.22603 75.9453 7.64001 74.0001 7.64001C71.586 7.64001 70.5386 8.93124 70.5386 10.1331C70.5386 11.7322 71.7456 12.4672 74.5288 13.5499C78.1399 14.9007 79.9055 16.7183 79.9055 19.6981C79.9055 23.0156 77.3718 25.9159 71.995 25.9159C69.8004 25.9159 67.5161 25.3001 66.3689 24.6246L67.2068 21.486Z" fill="#002462"/>
<path d="M96.8038 21.1184C96.8038 22.9063 96.8637 24.3763 96.9235 25.6079H93.5918L93.4022 23.3334H93.3424C92.694 24.4061 91.2076 25.9457 88.5242 25.9457C85.8409 25.9457 83.2672 24.3167 83.2672 19.42V10.6198H87.0678V18.7744C87.0678 21.2674 87.8758 22.8666 89.8809 22.8666C91.3972 22.8666 92.3847 21.7939 92.7837 20.8403C92.9034 20.5026 93.0032 20.1053 93.0032 19.6683V10.6198H96.8038V21.1085V21.1184Z" fill="#002462"/>
<path d="M101.073 15.0894C101.073 13.3711 101.043 11.9209 100.954 10.6297H104.285L104.475 12.8745H104.565C105.213 11.7024 106.849 10.292 109.353 10.292C111.976 10.292 114.7 11.9805 114.7 16.7183V25.608H110.899V17.1454C110.899 14.9901 110.091 13.3611 108.026 13.3611C106.51 13.3611 105.462 14.4339 105.063 15.5761C104.944 15.9138 104.914 16.3806 104.914 16.8077V25.608H101.083V15.0894H101.073Z" fill="#002462"/>
<path d="M118.251 4.05435H129.683V7.2129H122.052V13.3115H129.164V16.4104H122.052V25.608H118.251V4.05435Z" fill="#002462"/>
<path d="M135.209 19.6584L133.563 25.608H129.703L136.007 4.05435H140.735L147 25.608H143.02L141.304 19.6584H135.199H135.209ZM140.745 16.7779L139.279 11.5733C138.91 10.2125 138.571 8.59352 138.272 7.26256H138.192C137.902 8.60345 137.573 10.2622 137.224 11.5633L135.768 16.768H140.735L140.745 16.7779Z" fill="#002462"/>
</g>
<defs>
<clipPath id="clip0_78_4273">
<rect width="147" height="30" fill="white"/>
</clipPath>
</defs>
</svg>
