<svg width="148" height="32" viewBox="0 0 148 32" fill="none" xmlns="http://www.w3.org/2000/svg">
<g clip-path="url(#clip0_177_2017)">
<path d="M46.84 6.74569C46.46 6.25569 46.05 5.78569 45.6 5.33569C45.6 5.33569 45.59 5.32569 45.58 5.31569C39.69 -0.574306 30.14 -0.574306 24.25 5.31569L25.68 6.74569C27.57 8.63569 30.33 9.32569 32.91 8.62569C33.34 8.50569 33.79 8.42569 34.23 8.38569L38.18 6.26569C41.13 4.67569 44.42 5.07569 46.84 6.74569Z" fill="#FFA502"/>
<path d="M38.18 25.7557L34.21 23.6157C33.78 23.5757 33.35 23.4957 32.93 23.3857C30.35 22.6957 27.61 23.3857 25.72 25.2757L24.28 26.7157C30.18 32.5757 39.71 32.5657 45.6 26.6757C45.67 26.6057 45.74 26.5357 45.81 26.4657C46.18 26.0857 46.52 25.6857 46.84 25.2757C44.42 26.9357 41.14 27.3257 38.19 25.7457L38.18 25.7557Z" fill="#FFA502"/>
<path d="M48.26 8.93578C47.86 8.17578 47.39 7.44578 46.85 6.74578C44.42 5.07578 41.14 4.67578 38.19 6.26578L34.24 8.38578C35.23 8.29578 36.24 8.40578 37.2 8.69578C38.38 9.06578 39.49 9.71578 40.41 10.6758C41.84 12.1458 42.55 14.0558 42.56 15.9758C42.6 15.9758 42.6 15.9758 42.56 15.9758C42.56 17.9058 41.85 19.8358 40.42 21.3158C39.5 22.2658 38.4 22.9258 37.22 23.2958C36.25 23.6058 35.22 23.7058 34.22 23.6158L38.19 25.7558C41.14 27.3358 44.41 26.9458 46.84 25.2858C47.37 24.6058 47.83 23.8858 48.23 23.1458C50.59 18.7258 50.61 13.3658 48.27 8.93578H48.26Z" fill="#FFC40C"/>
<path d="M42.93 15.9756C43 15.9756 43.08 15.9756 43.15 15.9656C43.08 15.9656 43 15.9756 42.93 15.9756Z" fill="#FFA502"/>
<path d="M12.15 0.935791C15.48 0.935791 18.18 3.63579 18.18 6.96579V31.0858C14.85 31.0858 12.15 28.3858 12.15 25.0558V0.935791Z" fill="#FFA502"/>
<path d="M37.07 13.8758C35.89 12.6958 33.98 12.6958 32.81 13.8758C32.4 14.2858 31.89 14.5758 31.32 14.6758C30.83 14.7558 30.34 14.8158 29.85 14.8358C28.2 14.9158 26.6 14.2858 25.44 13.1158L24.9 12.5758C24.66 12.3358 24.28 12.3358 24.05 12.5758L21.25 15.3758L21.05 15.5758C20.81 15.8158 20.81 16.1958 21.05 16.4258L21.25 16.6258L24.05 19.4258C24.29 19.6658 24.67 19.6658 24.9 19.4258L25.44 18.8858C26.45 17.8758 27.82 17.2858 29.26 17.2758C30.09 17.2758 30.93 17.3558 31.75 17.5258C32.16 17.6058 32.53 17.8258 32.83 18.1258C34.01 19.3058 35.92 19.3058 37.09 18.1258C38.27 16.9458 38.27 15.0358 37.09 13.8658L37.07 13.8758Z" fill="#FFA502"/>
<path d="M7.54 2.83569C3.03 5.49569 0 10.3957 0 16.0057C0 21.6157 3.03 26.5257 7.54 29.1857V2.83569Z" fill="#FFA502"/>
<path d="M63.0725 22.46H59.2325V24.09H63.0725V22.46Z" fill="white"/>
<path d="M63.0725 11.6001H59.2325V17.5801H63.0725V11.6001Z" fill="white"/>
<path d="M63.0725 19.21H59.2325V20.84H63.0725V19.21Z" fill="white"/>
<path d="M61.1226 9.43006C62.4526 9.43006 63.2926 8.53006 63.2926 7.39006C63.2626 6.21006 62.4526 5.31006 61.1526 5.31006C59.8526 5.31006 59.0126 6.21006 59.0126 7.39006C59.0126 8.57006 59.8526 9.43006 61.1226 9.43006Z" fill="white"/>
<path d="M63.0725 25.71H59.2325V26.68H63.0725V25.71Z" fill="white"/>
<path d="M67.3726 22.53C68.6126 23.24 70.4726 23.86 72.4226 23.86C74.8726 23.86 76.2326 22.71 76.2326 21.01C76.2326 19.43 75.1826 18.5 72.5126 17.54C69.0726 16.3 66.8726 14.47 66.8726 11.47C66.8726 8.05996 69.7226 5.45996 74.2426 5.45996C76.5026 5.45996 78.1726 5.95996 79.2626 6.50996L78.3326 9.57996C77.5926 9.17996 76.1326 8.58996 74.1826 8.58996C71.7626 8.58996 70.7126 9.88996 70.7126 11.1C70.7126 12.71 71.9226 13.45 74.7126 14.54C78.3326 15.9 80.1026 17.73 80.1026 20.73C80.1026 24.07 77.5626 26.99 72.1726 26.99C69.9726 26.99 67.6826 26.37 66.5326 25.69L67.3726 22.53Z" fill="white"/>
<path d="M97.0426 22.1601C97.0426 23.9601 97.1026 25.4401 97.1626 26.6801H93.8226L93.6326 24.3901H93.5726C92.9226 25.4701 91.4326 27.0201 88.7426 27.0201C86.0526 27.0201 83.4726 25.3801 83.4726 20.4501V11.5901H87.2826V19.8001C87.2826 22.3101 88.0926 23.9201 90.1026 23.9201C91.6226 23.9201 92.6126 22.8401 93.0126 21.8801C93.1326 21.5401 93.2326 21.1401 93.2326 20.7001V11.5901H97.0426V22.1501V22.1601Z" fill="white"/>
<path d="M101.323 16.09C101.323 14.36 101.293 12.9 101.203 11.6H104.543L104.733 13.86H104.823C105.473 12.68 107.113 11.26 109.623 11.26C112.253 11.26 114.983 12.96 114.983 17.73V26.68H111.173V18.16C111.173 15.99 110.363 14.35 108.293 14.35C106.773 14.35 105.723 15.43 105.323 16.58C105.203 16.92 105.173 17.39 105.173 17.82V26.68H101.333V16.09H101.323Z" fill="white"/>
<path d="M118.543 4.97998H130.003V8.15998H122.353V14.3H129.483V17.42H122.353V26.68H118.543V4.97998Z" fill="white"/>
<path d="M135.543 20.69L133.893 26.68H130.023L136.343 4.97998H141.083L147.363 26.68H143.373L141.653 20.69H135.533H135.543ZM141.093 17.79L139.623 12.55C139.253 11.18 138.913 9.54998 138.613 8.20998H138.533C138.243 9.55998 137.913 11.23 137.563 12.54L136.103 17.78H141.083L141.093 17.79Z" fill="white"/>
</g>
<defs>
<clipPath id="clip0_177_2017">
<rect width="147.363" height="30.2038" fill="white" transform="translate(0 0.898193)"/>
</clipPath>
</defs>
</svg>
