<svg width="149" height="39" viewBox="0 0 149 39" fill="none" xmlns="http://www.w3.org/2000/svg">
<path d="M55.1409 11.5626C54.6128 11.0404 54.0408 10.5485 53.4403 10.1021C50.6528 8.02404 47.3153 6.92759 43.7893 6.92759C41.2319 6.92759 38.7687 7.51048 36.5553 8.61344L33.4939 5.65562C31.5479 3.73357 29.26 2.26658 26.6983 1.29364C24.4367 0.435547 22.059 0 19.6353 0H19.5498C14.3298 0.0043338 9.42317 2.01739 5.7306 5.66645C2.03584 9.31768 0 14.178 0 19.3439C0 24.5098 2.03584 29.3702 5.7306 33.0236C9.41441 36.6662 14.3145 38.6792 19.5301 38.69H26.8188V38.6944H33.9212L37.0418 38.69H43.7695C48.0691 38.69 52.108 37.0324 55.1431 34.0225L56.0394 33.1341L56.0701 33.0128C58.5026 30.1611 59.8306 26.5619 59.8306 22.785C59.8306 18.5357 58.1651 14.5486 55.1431 11.5604L55.1409 11.5626Z" fill="#FFA502"/>
<path d="M52.9341 13.7446C52.5024 13.3177 52.0444 12.9255 51.5623 12.5658C49.338 10.9081 46.6359 10.011 43.7892 10.011C40.3268 10.011 37.0791 11.3371 34.6444 13.7424L26.2271 22.0655L25.2541 23.0276H29.4485L36.7416 15.8161C38.6153 13.9634 41.1179 12.9428 43.7892 12.9428C45.7966 12.9428 47.7097 13.5192 49.3314 14.5918C49.8683 14.9472 50.3723 15.3546 50.8369 15.8161C52.7106 17.6688 53.7427 20.1434 53.7427 22.7849C53.7427 25.4263 52.7106 27.9009 50.8369 29.7536L50.5476 30.0397V30.044C48.6981 31.7407 46.3072 32.6703 43.7695 32.6703H33.0622V32.6746H30.8422H19.5673C12.134 32.6746 6.0856 26.694 6.0856 19.3438C6.0856 11.9937 11.9061 6.24058 19.1466 6.01956L19.5848 6.01305C19.6002 6.01305 19.6155 6.01305 19.6309 6.01305C21.3117 6.01305 22.9531 6.31425 24.52 6.90799C26.2862 7.57756 27.8619 8.59167 29.2052 9.91781L31.7451 12.3707C31.7451 12.3707 33.8467 10.297 33.8467 10.3057L31.3046 7.85059C29.6654 6.22975 27.7414 4.99244 25.5828 4.17335C23.6521 3.44094 21.6251 3.07473 19.5542 3.0834C15.1669 3.08774 11.0426 4.77792 7.94174 7.84625C4.83648 10.9168 3.12497 15.0014 3.12497 19.3438C3.12497 23.6863 4.83648 27.7709 7.94174 30.8414C11.0382 33.9033 15.1559 35.5956 19.5344 35.6043H29.9438V35.6086H33.9234V35.6043H43.7717C47.2342 35.6043 50.4885 34.2695 52.9341 31.8425L53.2234 31.5565L53.2299 31.5283C55.4784 29.1577 56.7099 26.0699 56.7099 22.7849C56.7099 19.4999 55.3688 16.1498 52.9363 13.7424L52.9341 13.7446Z" fill="white"/>
<path d="M12.7717 19.7882C12.7717 15.8726 15.9931 12.6894 19.9509 12.6894C23.2665 12.6894 26.0628 14.9235 26.8846 17.9485L29.3149 15.5454C27.6844 12.0415 24.1014 9.60156 19.9509 9.60156C14.2707 9.60156 9.64893 14.1716 9.64893 19.7882C9.64893 23.8923 12.1165 27.4352 15.66 29.0473L18.0903 26.6443C15.0311 25.8317 12.7717 23.0645 12.7717 19.7882Z" fill="white"/>
<path d="M74.0814 25.9133H70.6935V27.3697H74.0814V25.9133Z" fill="white"/>
<path d="M74.0814 16.1853H70.6935V21.5422H74.0814V16.1853Z" fill="white"/>
<path d="M74.0814 22.9985H70.6935V24.4549H74.0814V22.9985Z" fill="white"/>
<path d="M72.3602 14.2443C73.5352 14.2443 74.2729 13.4404 74.2729 12.4136C74.2446 11.3602 73.5352 10.5564 72.3864 10.5564C71.2376 10.5564 70.5 11.3602 70.5 12.4136C70.5 13.467 71.2376 14.2443 72.3582 14.2443H72.3602Z" fill="white"/>
<path d="M74.0814 28.8259H70.6935V29.6911H74.0814V28.8259Z" fill="white"/>
<path d="M77.8805 25.9767C78.9728 26.6149 80.6134 27.1692 82.3345 27.1692C84.4931 27.1692 85.6963 26.1424 85.6963 24.6165C85.6963 23.2011 84.7671 22.3707 82.4172 21.5096C79.384 20.401 77.4431 18.7646 77.4431 16.0729C77.4431 13.0211 79.9584 10.6914 83.9469 10.6914C85.9421 10.6914 87.4174 11.1353 88.3748 11.6343L87.5545 14.3793C86.8995 14.0193 85.6136 13.4916 83.8925 13.4916C81.7601 13.4916 80.831 14.6575 80.831 15.7374C80.831 17.1794 81.8972 17.8462 84.356 18.8158C87.5545 20.0369 89.1104 21.6732 89.1104 24.3629C89.1104 27.3574 86.8692 29.9653 82.1149 29.9653C80.174 29.9653 78.1525 29.411 77.1408 28.7994L77.8785 25.9706L77.8805 25.9767Z" fill="white"/>
<path d="M104.063 25.6433C104.063 27.251 104.117 28.5825 104.172 29.6932H101.221L101.058 27.6416H101.003C100.429 28.6132 99.1169 30 96.7407 30C94.3646 30 92.0952 28.5293 92.0952 24.1194V16.1873H95.4569V23.5365C95.4569 25.7824 96.1684 27.2244 97.944 27.2244C99.2822 27.2244 100.157 26.2528 100.514 25.3937C100.622 25.089 100.705 24.729 100.705 24.3403V16.1853H104.067V25.6433H104.063Z" fill="white"/>
<path d="M107.834 20.2067C107.834 18.6542 107.805 17.3492 107.725 16.1854H110.675L110.839 18.2103H110.921C111.496 17.1569 112.943 15.8806 115.158 15.8806C117.481 15.8806 119.886 17.4065 119.886 21.6773V29.6933H116.524V22.0659C116.524 20.1248 115.813 18.6542 113.983 18.6542C112.644 18.6542 111.715 19.6258 111.359 20.6505C111.25 20.9553 111.222 21.3725 111.222 21.7591V29.6912H107.834V20.2067Z" fill="white"/>
<path d="M133.5 29.5L139.34 11.5H142.66L148.5 29.5H145.42L144.04 24.8472H137.949L136.58 29.5H133.5ZM140.903 14.843L138.69 22.3649H143.31L141.097 14.843H140.903Z" fill="white"/>
<path d="M122.5 29.8193V11.5H134.18V14.2549H125.775V19.6758H133.456V22.3418H125.775V29.8193H122.5Z" fill="white"/>
</svg>
