<svg width="75" height="20" viewBox="0 0 75 20" fill="none" xmlns="http://www.w3.org/2000/svg">
<g id="Group">
<path id="Vector" d="M3.66354 15.2529H0.413818V16.6192H3.66354V15.2529Z" fill="#002462"/>
<path id="Vector_2" d="M3.66354 6.13477H0.413818V11.1562H3.66354V6.13477Z" fill="#002462"/>
<path id="Vector_3" d="M3.66354 12.5225H0.413818V13.8887H3.66354V12.5225Z" fill="#002462"/>
<path id="Vector_4" d="M2.01274 4.31367C3.1395 4.31367 3.84775 3.55957 3.84775 2.59788C3.82092 1.60957 3.1395 0.855469 2.03957 0.855469C0.939636 0.855469 0.231384 1.60957 0.231384 2.59788C0.231384 3.58619 0.939634 4.31367 2.01453 4.31367H2.01274Z" fill="#002462"/>
<path id="Vector_5" d="M3.66354 17.9854H0.413818V18.798H3.66354V17.9854Z" fill="#002462"/>
<path id="Vector_6" d="M7.3067 15.3134C8.35476 15.9113 9.92686 16.4312 11.5794 16.4312C13.6505 16.4312 14.8041 15.4695 14.8041 14.0394C14.8041 12.714 13.9134 11.9332 11.6581 11.1277C8.74824 10.0879 6.88819 8.55311 6.88819 6.03177C6.88819 3.17152 9.2991 0.987305 13.1265 0.987305C15.0402 0.987305 16.4549 1.4025 17.3724 1.87093L16.5855 4.4455C15.9559 4.1066 14.7254 3.61334 13.0729 3.61334C11.0286 3.61334 10.1379 4.70456 10.1379 5.71948C10.1379 7.07153 11.1609 7.6961 13.5182 8.60634C16.5855 9.7508 18.0789 11.2838 18.0789 13.8069C18.0789 16.6157 15.9291 19.059 11.3684 19.059C9.50835 19.059 7.56782 18.5391 6.59845 17.9678L7.3067 15.3151V15.3134Z" fill="#002462"/>
<path id="Vector_7" d="M32.4156 15.0013C32.4156 16.5095 32.4675 17.7569 32.5211 18.7984H29.6899L29.5325 16.8751H29.4807C28.9298 17.7853 27.6725 19.0859 25.3921 19.0859C23.1118 19.0859 20.937 17.7072 20.937 13.573V6.13672H24.1598V13.0265C24.1598 15.1327 24.8413 16.4847 26.5457 16.4847C27.8299 16.4847 28.6687 15.5745 29.0103 14.7689C29.1158 14.4832 29.1945 14.1443 29.1945 13.7806V6.13672H32.4192V15.0031L32.4156 15.0013Z" fill="#002462"/>
<path id="Vector_8" d="M36.032 9.90283C36.032 8.4461 36.0051 7.22535 35.9265 6.13235H38.7577L38.915 8.0309H38.9937C39.5446 7.04259 40.9325 5.84668 43.0554 5.84668C45.2839 5.84668 47.5893 7.2768 47.5893 11.2815V18.7958H44.3664V11.6452C44.3664 9.82476 43.685 8.4461 41.9287 8.4461C40.6445 8.4461 39.7539 9.35633 39.4123 10.318C39.3067 10.6037 39.2817 10.9941 39.2817 11.3578V18.7941H36.032V9.90106V9.90283Z" fill="#002462"/>
<g id="Group_2">
<path id="Vector_9" d="M50.603 0.579102H60.2985V3.24594H53.8259V8.40041H59.8549V11.0247H53.8259V18.7981H50.6048V0.580875L50.603 0.579102Z" fill="#002462"/>
<path id="Vector_10" d="M64.9915 13.7678L63.5983 18.7963H60.3253L65.6747 0.579102H69.6846L75 18.7963H71.6251L70.1693 13.7678H64.9897H64.9915ZM69.6917 11.3281L68.4469 6.93126C68.1339 5.78325 67.8496 4.41169 67.5956 3.2903H67.5294C67.2826 4.42411 67.0036 5.82761 66.7103 6.92771L65.478 11.3299H69.6917V11.3281Z" fill="#002462"/>
</g>
</g>
</svg>
