<svg width="192" height="40" viewBox="0 0 192 40" fill="none" xmlns="http://www.w3.org/2000/svg">
<g clip-path="url(#clip0_375_51833)">
<path d="M35.3295 3.60541H15.4761C12.0447 3.60541 8.93758 5.01794 6.68875 7.30235L9.19807 9.85137C10.8753 8.14758 13.1054 7.20907 15.4761 7.20907H31.7801V23.771C31.7801 26.1811 30.8562 28.4446 29.179 30.1484L31.6883 32.6974C33.9371 30.413 35.3276 27.2567 35.3276 23.771V3.60541H35.3295Z" fill="#A97BFE"/>
<path d="M15.4761 0C13.321 0 11.2277 0.430231 9.25619 1.27737C7.35405 2.09404 5.64493 3.2648 4.17944 4.75348L6.68877 7.3025C8.9376 5.01809 12.0447 3.60556 15.4761 3.60556H35.3295V23.7731C35.3295 27.2587 33.939 30.415 31.6902 32.6994L34.1995 35.2485C35.665 33.7598 36.8175 32.0236 37.6215 30.0914C38.4554 28.0887 38.879 25.9623 38.879 23.7731V0H15.4761Z" fill="#7160FF"/>
<path d="M3.04941 36.3945H22.9029C26.3342 36.3945 29.4413 34.9819 31.6902 32.6975L29.1809 30.1485C27.5036 31.8523 25.2735 32.7908 22.9029 32.7908H6.59694V16.2288C6.59694 13.8188 7.52084 11.5553 9.19809 9.85151L6.68877 7.30249C4.43994 9.5869 3.04941 12.7432 3.04941 16.2288V36.3964V36.3945Z" fill="#12CFFF"/>
<path d="M22.9029 40C25.058 40 27.1513 39.5698 29.1228 38.7227C31.0249 37.906 32.734 36.7352 34.1995 35.2466L31.6902 32.6975C29.4414 34.982 26.3342 36.3945 22.9029 36.3945H3.04941V16.2269C3.04941 12.7413 4.43994 9.58502 6.68877 7.30061L4.17945 4.75159C2.71396 6.24026 1.56143 7.97641 0.757473 9.90864C-0.0764696 11.9132 -0.5 14.0377 -0.5 16.2269V40H22.9029Z" fill="#11FFF5"/>
<path d="M14.7959 15.5473C12.3709 18.0106 12.3709 22.0026 14.7959 24.4641C17.2208 26.9274 21.1507 26.9274 23.5738 24.4641L21.0645 21.9151C20.5622 22.4252 19.8951 22.707 19.1848 22.707C18.4746 22.707 17.8074 22.4252 17.3052 21.9151C16.2688 20.8623 16.2688 19.149 17.3052 18.0944L14.7959 15.5435V15.5473Z" fill="#A97BFE"/>
<path d="M12.0222 13.2629L11.9904 13.3143C10.3356 15.1456 9.42859 17.5062 9.42859 20.0076C9.42859 22.6556 10.4424 25.1438 12.2865 27.0151C14.1287 28.8864 16.5799 29.9182 19.1848 29.9182C21.7916 29.9182 24.2409 28.8864 26.0831 27.0151L23.5738 24.466C21.1488 26.9294 17.2189 26.9294 14.7958 24.466C12.3708 22.0027 12.3708 18.0107 14.7958 15.5492L12.2846 12.9964L12.0204 13.2648L12.0222 13.2629Z" fill="#7160FF"/>
<path d="M14.8052 15.534L17.3145 18.083C17.8167 17.5728 18.4839 17.2911 19.1942 17.2911C19.9044 17.2911 20.5716 17.5728 21.0738 18.083C22.1101 19.1357 22.1101 20.849 21.0738 21.9037L21.0644 21.9132L23.5756 24.4641L23.5831 24.4527C26.0081 21.9893 26.0081 17.9973 23.5831 15.5359C21.1581 13.0725 17.2283 13.0725 14.8052 15.5359V15.534Z" fill="#12CFFF"/>
<path d="M19.1942 10.0819C16.5874 10.0819 14.1381 11.1137 12.2959 12.985L14.8052 15.534C17.2302 13.0706 21.1601 13.0706 23.5832 15.534C26.0082 17.9973 26.0082 21.9894 23.5832 24.4508L23.5757 24.4622L26.085 27.0112L26.3567 26.7352L26.3886 26.6838C28.0434 24.8525 28.9504 22.4919 28.9504 19.9905C28.9504 17.3425 27.9365 14.8544 26.0925 12.9831C24.2503 11.1117 21.7991 10.08 19.1942 10.08V10.0819Z" fill="#11FFF5"/>
<path d="M14.8052 15.534L14.7977 15.5454L17.307 18.0944L17.4926 17.906C20.774 14.7611 25.9632 14.8201 29.1752 18.083C32.4454 21.4049 32.4454 26.8095 29.1752 30.1314L31.6846 32.6804C36.3453 27.946 36.3453 20.2684 31.6846 15.534C27.0239 10.7995 19.4659 10.7995 14.8052 15.534Z" fill="#A97BFE"/>
<path d="M29.0684 9.5299C27.2131 8.76462 25.2529 8.37817 23.2439 8.37817C21.235 8.37817 19.2747 8.76652 17.4195 9.5299C15.4967 10.3218 13.7726 11.485 12.2959 12.9851L12.2865 12.9946L14.7977 15.5455L14.8052 15.5341C19.4659 10.7996 27.0239 10.7996 31.6846 15.5341C36.3453 20.2685 36.3453 27.9461 31.6846 32.6805L34.1939 35.2295C35.6706 33.7294 36.8157 31.978 37.5952 30.0249C38.3486 28.1402 38.729 26.149 38.729 24.1082C38.729 22.0675 38.3467 20.0763 37.5952 18.1916C36.8157 16.2385 35.6706 14.4871 34.1939 12.987C32.7172 11.4869 30.993 10.3237 29.0703 9.5318L29.0684 9.5299Z" fill="#7160FF"/>
<path d="M20.8864 22.0922C17.605 25.2371 12.4158 25.1781 9.20371 21.9152C5.93353 18.5933 5.93353 13.1887 9.20371 9.86683L6.69438 7.31781C2.03368 12.0523 2.03368 19.7298 6.69438 24.4642C11.3551 29.1987 18.9131 29.1987 23.5738 24.4642L21.0626 21.9114L20.8845 22.0922H20.8864Z" fill="#12CFFF"/>
<path d="M23.5737 24.4661C18.913 29.2006 11.3551 29.2006 6.69437 24.4661C2.03367 19.7317 2.03367 12.0542 6.69437 7.31971L4.18505 4.77069C2.70832 6.27079 1.56329 8.02217 0.783689 9.97534C0.032204 11.86 -0.350098 13.8512 -0.350098 15.892C-0.350098 17.9327 0.032204 19.924 0.783689 21.8086C1.56329 23.7618 2.70832 25.5131 4.18505 27.0132C5.66179 28.5133 7.38589 29.6765 9.30864 30.4684C11.1639 31.2337 13.1242 31.6201 15.1331 31.6201C17.1421 31.6201 19.1023 31.2318 20.9576 30.4684C22.8804 29.6765 24.6045 28.5133 26.0812 27.0132L23.5719 24.4623L23.5737 24.4661Z" fill="#11FFF5"/>
<path d="M83.9906 7.78589V33.7101H58.4682V7.78589H83.9906ZM78.8857 12.9715H63.5731V28.5264H78.8857V23.3408H68.6779V18.1552H78.8857V12.9696V12.9715Z" fill="white"/>
<path d="M102.596 33.7122V28.5266H107.541L102.596 15.5645L95.6564 33.7122H89.8338L100.042 7.78796H105.146L115.354 33.7122H102.594H102.596Z" fill="white"/>
<path d="M126.866 7.78589V33.7101H121.762V7.78589H126.866Z" fill="white"/>
<path d="M138.096 7.78589H163.618V12.9715H143.2V18.1571H163.618V23.3427H143.2V33.712H138.096V7.78589Z" fill="white"/>
<path d="M170.751 33.7121L178.474 14.0985L179.778 17.409L183.946 27.9934H177.267V26.4876H181.262L178.474 19.1756L172.915 33.7121H170.751Z" fill="white"/>
<path d="M177.267 33.7121V32.1206H189.714L180.675 9.17179H176.258L166.607 33.7121H164.949L175.308 7.40137H181.641L192 33.7121H177.267Z" fill="white"/>
<path d="M185.473 29.0443H177.267V31.0679H188.185L179.976 10.2227H176.959L167.722 33.7121H169.637L177.983 12.5204H178.966L185.473 29.0443Z" fill="white"/>
</g>
<defs>
<clipPath id="clip0_375_51833">
<rect width="192" height="40" fill="white"/>
</clipPath>
</defs>
</svg>
