<svg width="44" height="59" viewBox="0 0 44 59" fill="none" xmlns="http://www.w3.org/2000/svg">
<g id="BAIFAAA_Logo" clip-path="url(#clip0_924_125923)">
<g id="Group">
<g id="Group_2">
<path id="Vector" d="M40.0341 4.04718H17.8508C14.0168 4.04718 10.5451 5.63278 8.03235 8.19708L10.8361 11.0584C12.7102 9.14588 15.202 8.09237 17.8508 8.09237H36.0681V26.6836C36.0681 29.3889 35.0358 31.9297 33.1617 33.8423L35.9655 36.7036C38.4783 34.1393 40.032 30.5963 40.032 26.6836V4.04718H40.0341Z" fill="#A97BFE"/>
<path id="Vector_2" d="M17.8509 0C15.4428 0 13.1039 0.482944 10.9011 1.43387C8.77571 2.35061 6.86604 3.66482 5.22858 5.33589L8.03237 8.19723C10.5451 5.63293 14.0169 4.04733 17.8509 4.04733H40.0341V26.6859C40.0341 30.5986 38.4804 34.1416 35.9676 36.7059L38.7714 39.5672C40.4089 37.8962 41.6967 35.9473 42.595 33.7783C43.5268 31.5303 44 29.1433 44 26.6859V0H17.8509Z" fill="#7160FF"/>
</g>
<g id="Group_3">
<path id="Vector_3" d="M3.96588 40.8537H26.1491C29.9831 40.8537 33.4549 39.2681 35.9676 36.7038L33.1638 33.8424C31.2897 35.755 28.7979 36.8085 26.1491 36.8085H7.92971V18.2173C7.92971 15.5119 8.96203 12.9711 10.8361 11.0586L8.03232 8.19724C5.51959 10.7615 3.96588 14.3046 3.96588 18.2173V40.8558V40.8537Z" fill="#12CFFF"/>
<path id="Vector_4" d="M26.1491 44.901C28.5572 44.901 30.8961 44.4181 33.0989 43.4671C35.2243 42.5504 37.134 41.2362 38.7714 39.5651L35.9676 36.7038C33.4549 39.2681 29.9832 40.8537 26.1491 40.8537H3.96593V18.2151C3.96593 14.3024 5.51963 10.7594 8.03236 8.19511L5.22857 5.33377C3.59111 7.00484 2.30334 8.95372 1.40504 11.1227C0.473231 13.3729 0 15.7577 0 18.2151V44.901H26.1491Z" fill="#11FFF5"/>
</g>
<g id="Group_4">
<g id="Group_5">
<path id="Vector_5" d="M17.0908 17.4522C14.3813 20.2174 14.3813 24.6985 17.0908 27.4616C19.8004 30.2267 24.1914 30.2267 26.8988 27.4616L24.0951 24.6002C23.5339 25.1729 22.7884 25.4892 21.9948 25.4892C21.2012 25.4892 20.4558 25.1729 19.8946 24.6002C18.7367 23.4185 18.7367 21.4953 19.8946 20.3114L17.0908 17.4479V17.4522Z" fill="#A97BFE"/>
<path id="Vector_6" d="M13.9917 14.888L13.9561 14.9457C12.1072 17.0014 11.0937 19.6512 11.0937 22.4591C11.0937 25.4315 12.2265 28.2245 14.287 30.3251C16.3453 32.4257 19.0842 33.5839 21.9947 33.5839C24.9074 33.5839 27.6442 32.4257 29.7026 30.3251L26.8988 27.4638C24.1892 30.2289 19.7982 30.2289 17.0907 27.4638C14.3812 24.6986 14.3812 20.2175 17.0907 17.4544L14.2849 14.5888L13.9896 14.8901L13.9917 14.888Z" fill="#7160FF"/>
</g>
<g id="Group_6">
<path id="Vector_7" d="M17.1012 17.4372L19.905 20.2986C20.4662 19.7259 21.2116 19.4096 22.0052 19.4096C22.7988 19.4096 23.5443 19.7259 24.1054 20.2986C25.2634 21.4803 25.2634 23.4035 24.1054 24.5874L24.095 24.598L26.9008 27.4615L26.9092 27.4487C29.6188 24.6835 29.6188 20.2024 26.9092 17.4394C24.1997 14.6742 19.8087 14.6742 17.1012 17.4394V17.4372Z" fill="#12CFFF"/>
<path id="Vector_8" d="M22.0052 11.3171C19.0926 11.3171 16.3558 12.4754 14.2974 14.5759L17.1012 17.4373C19.8108 14.6721 24.2018 14.6721 26.9092 17.4373C29.6188 20.2025 29.6188 24.6836 26.9092 27.4466L26.9009 27.4594L29.7046 30.3208L30.0083 30.0109L30.0439 29.9532C31.8928 27.8975 32.9063 25.2477 32.9063 22.4398C32.9063 19.4674 31.7735 16.6744 29.713 14.5738C27.6547 12.4732 24.9158 11.315 22.0052 11.315V11.3171Z" fill="#11FFF5"/>
</g>
<g id="Group_7">
<path id="Vector_9" d="M17.1012 17.4373L17.0928 17.4501L19.8966 20.3115L20.1039 20.0999C23.7704 16.5697 29.5685 16.636 33.1576 20.2986C36.8115 24.0276 36.8115 30.0943 33.1576 33.8232L35.9613 36.6846C41.169 31.37 41.169 22.7518 35.9613 17.4373C30.7537 12.1228 22.3088 12.1228 17.1012 17.4373Z" fill="#A97BFE"/>
<path id="Vector_10" d="M33.0382 10.6976C30.9652 9.83852 28.7749 9.40472 26.5302 9.40472C24.2855 9.40472 22.0952 9.84066 20.0222 10.6976C17.8738 11.5865 15.9474 12.8922 14.2974 14.5761L14.2869 14.5868L17.0928 17.4502L17.1012 17.4374C22.3088 12.1229 30.7537 12.1229 35.9613 17.4374C41.169 22.7519 41.169 31.3701 35.9613 36.6847L38.7651 39.546C40.4151 37.8621 41.6945 35.8961 42.5656 33.7037C43.4074 31.5881 43.8324 29.3529 43.8324 27.0621C43.8324 24.7713 43.4053 22.5361 42.5656 20.4206C41.6945 18.2281 40.4151 16.2621 38.7651 14.5782C37.1151 12.8943 35.1887 11.5887 33.0403 10.6997L33.0382 10.6976Z" fill="#7160FF"/>
</g>
<g id="Group_8">
<path id="Vector_11" d="M23.896 24.7991C20.2295 28.3293 14.4314 28.263 10.8424 24.6003C7.18846 20.8714 7.18846 14.8047 10.8424 11.0758L8.0386 8.21442C2.83096 13.5289 2.83096 22.1471 8.0386 27.4617C13.2462 32.7762 21.6911 32.7762 26.8987 27.4617L24.0929 24.5961L23.8939 24.7991H23.896Z" fill="#12CFFF"/>
<path id="Vector_12" d="M26.8987 27.4638C21.6911 32.7783 13.2462 32.7783 8.03861 27.4638C2.83097 22.1493 2.83097 13.5311 8.03861 8.21656L5.23482 5.35522C3.58479 7.03912 2.3054 9.00509 1.43432 11.1976C0.594645 13.3131 0.16748 15.5483 0.16748 17.8391C0.16748 20.1299 0.594645 22.3651 1.43432 24.4807C2.3054 26.6732 3.58479 28.6391 5.23482 30.323C6.88485 32.0069 8.81127 33.3126 10.9597 34.2015C13.0327 35.0606 15.2229 35.4944 17.4676 35.4944C19.7123 35.4944 21.9026 35.0584 23.9756 34.2015C26.124 33.3126 28.0504 32.0069 29.7004 30.323L26.8966 27.4595L26.8987 27.4638Z" fill="#11FFF5"/>
</g>
</g>
</g>
<g id="Group_9">
<path id="Vector_13" d="M8.40986 50.0796V58.6218H0V50.0796H8.40986ZM6.72776 51.7883H1.68209V56.9138H6.72776V55.205H3.36419V53.4963H6.72776V51.7876V51.7883Z" fill="white"/>
<path id="Vector_14" d="M14.5405 58.6226V56.9139H16.1701L14.5405 52.6427L12.2539 58.6226H10.3353L13.6988 50.0803H15.3809L18.7445 58.6226H14.5399H14.5405Z" fill="white"/>
<path id="Vector_15" d="M22.5379 50.0796V58.6218H20.8558V50.0796H22.5379Z" fill="white"/>
<path id="Vector_16" d="M26.238 50.0796H34.6478V51.7883H27.9201V53.497H34.6478V55.2057H27.9201V58.6225H26.238V50.0796Z" fill="white"/>
<g id="Group_10">
<path id="Vector_17" d="M36.9981 58.6225L39.5429 52.1596L39.9726 53.2505L41.346 56.7381H39.1452V56.242H40.4617L39.5429 53.8326L37.7113 58.6225H36.9981Z" fill="white"/>
<path id="Vector_18" d="M39.1451 58.6225V58.0981H43.2466L40.2684 50.5362H38.8129L35.6327 58.6225H35.0862L38.4998 49.9529H40.5864L44 58.6225H39.1451Z" fill="white"/>
<path id="Vector_19" d="M41.8492 57.0844H39.1452V57.7512H42.7428L40.0381 50.8825H39.0439L36.0002 58.6225H36.6313L39.381 51.6396H39.7052L41.8492 57.0844Z" fill="white"/>
</g>
</g>
</g>
<defs>
<clipPath id="clip0_924_125923">
<rect width="44" height="59" fill="white"/>
</clipPath>
</defs>
</svg>
