<svg width="72" height="16" viewBox="0 0 72 16" fill="none" xmlns="http://www.w3.org/2000/svg">
<g clip-path="url(#clip0_1479_678)">
<path d="M13.2486 1.85205H5.80354C4.51679 1.85205 3.35161 2.38175 2.5083 3.2384L3.4493 4.19429C4.07827 3.55536 4.91455 3.20342 5.80354 3.20342H11.9176V9.41417C11.9176 10.3179 11.5711 11.1667 10.9421 11.8057L11.8831 12.7615C12.7264 11.9049 13.2479 10.7213 13.2479 9.41417V1.85205H13.2486Z" fill="#E2E2E2"/>
<path d="M5.8035 0.5C4.99533 0.5 4.21034 0.661337 3.47104 0.979012C2.75774 1.28527 2.11682 1.7243 1.56726 2.28255L2.50826 3.23844C3.35157 2.38178 4.51675 1.85209 5.8035 1.85209H13.2485V9.41491C13.2485 10.722 12.7271 11.9056 11.8838 12.7623L12.8248 13.7182C13.3743 13.1599 13.8065 12.5089 14.108 11.7843C14.4208 11.0333 14.5796 10.2359 14.5796 9.41491V0.5H5.8035Z" fill="#D0D0D0"/>
<path d="M1.14355 14.1479H8.5886C9.87535 14.1479 11.0405 13.6182 11.8838 12.7616L10.9428 11.8057C10.3139 12.4446 9.47759 12.7966 8.5886 12.7966H2.47388V6.58581C2.47388 5.68204 2.82034 4.83324 3.44931 4.19432L2.50832 3.23843C1.665 4.09509 1.14355 5.2787 1.14355 6.58581V14.1486V14.1479Z" fill="#D0D0D0"/>
<path d="M8.58857 15.5C9.39675 15.5 10.1817 15.3387 10.921 15.021C11.6343 14.7147 12.2753 14.2757 12.8248 13.7174L11.8838 12.7616C11.0405 13.6182 9.87533 14.1479 8.58857 14.1479H1.14353V6.58509C1.14353 5.27798 1.66498 4.09437 2.50829 3.23771L1.56729 2.28183C1.01773 2.84008 0.585537 3.49114 0.284052 4.21573C-0.0286761 4.96744 -0.1875 5.76413 -0.1875 6.58509V15.5H8.58857Z" fill="#E2E2E2"/>
<path d="M5.54836 6.33019C4.63899 7.25395 4.63899 8.75095 5.54836 9.674C6.45773 10.5978 7.93142 10.5978 8.84009 9.674L7.8991 8.71812C7.71076 8.90944 7.46057 9.01509 7.19423 9.01509C6.92788 9.01509 6.6777 8.90944 6.48936 8.71812C6.10073 8.32334 6.10073 7.68085 6.48936 7.28536L5.54836 6.32877V6.33019Z" fill="#E2E2E2"/>
<path d="M4.50827 5.47357L4.49632 5.49284C3.87578 6.1796 3.53564 7.0648 3.53564 8.00284C3.53564 8.99585 3.91584 9.92888 4.60735 10.6306C5.29817 11.3324 6.21738 11.7193 7.19422 11.7193C8.17176 11.7193 9.09026 11.3324 9.78108 10.6306L8.84008 9.67474C7.93071 10.5985 6.45702 10.5985 5.54835 9.67474C4.63898 8.75099 4.63898 7.25398 5.54835 6.33094L4.60665 5.37363L4.50756 5.47428L4.50827 5.47357Z" fill="#D0D0D0"/>
<path d="M5.552 6.32522L6.493 7.28111C6.68134 7.08979 6.93152 6.98413 7.19787 6.98413C7.46421 6.98413 7.7144 7.08979 7.90274 7.28111C8.29136 7.67588 8.29136 8.31837 7.90274 8.71386L7.89922 8.71743L8.84092 9.67403L8.84373 9.66974C9.75311 8.74598 9.75311 7.24898 8.84373 6.32594C7.93436 5.40218 6.46067 5.40218 5.552 6.32594V6.32522Z" fill="#D0D0D0"/>
<path d="M7.19782 4.28068C6.22028 4.28068 5.30178 4.6676 4.61096 5.36935L5.55196 6.32523C6.46133 5.40147 7.93502 5.40147 8.84369 6.32523C9.75306 7.24899 9.75306 8.74599 8.84369 9.66904L8.84088 9.67332L9.78187 10.6292L9.88377 10.5257L9.89572 10.5064C10.5163 9.81966 10.8564 8.93446 10.8564 7.99642C10.8564 7.00341 10.4762 6.07038 9.78469 5.36863C9.09387 4.66689 8.17466 4.27997 7.19782 4.27997V4.28068Z" fill="#E2E2E2"/>
<path d="M5.55188 6.32521L5.54907 6.3295L6.49007 7.28538L6.55964 7.21471C7.79018 6.03538 9.73612 6.05751 10.9407 7.2811C12.167 8.52682 12.167 10.5535 10.9407 11.7992L11.8816 12.7551C13.6294 10.9797 13.6294 8.10063 11.8816 6.32521C10.1339 4.5498 7.29965 4.5498 5.55188 6.32521Z" fill="#E2E2E2"/>
<path d="M10.9006 4.07368C10.2049 3.7867 9.46982 3.64178 8.71646 3.64178C7.9631 3.64178 7.22802 3.78742 6.53228 4.07368C5.81125 4.37065 5.16471 4.80683 4.61094 5.36937L4.60742 5.37294L5.54912 6.32954L5.55193 6.32525C7.2997 4.54984 10.1339 4.54984 11.8817 6.32525C13.6295 8.10067 13.6295 10.9797 11.8817 12.7552L12.8227 13.711C13.3765 13.1485 13.8059 12.4917 14.0982 11.7593C14.3807 11.0526 14.5234 10.3058 14.5234 9.54056C14.5234 8.77529 14.38 8.02857 14.0982 7.32183C13.8059 6.58939 13.3765 5.93262 12.8227 5.37008C12.2689 4.80755 11.6224 4.37137 10.9013 4.0744L10.9006 4.07368Z" fill="#D0D0D0"/>
<path d="M7.83229 8.78458C6.60176 9.96391 4.65582 9.94178 3.45128 8.71819C2.22497 7.47247 2.22497 5.44577 3.45128 4.20005L2.51029 3.24417C0.762521 5.01959 0.762521 7.89866 2.51029 9.67407C4.25805 11.4495 7.09229 11.4495 8.84005 9.67407L7.89835 8.71676L7.83159 8.78458H7.83229Z" fill="#D0D0D0"/>
<path d="M8.8401 9.67479C7.09233 11.4502 4.2581 11.4502 2.51033 9.67479C0.762564 7.89937 0.762564 5.0203 2.51033 3.24488L1.56933 2.289C1.01556 2.85154 0.586171 3.50831 0.293823 4.24075C0.0120155 4.94749 -0.131348 5.6942 -0.131348 6.45948C-0.131348 7.22476 0.0120155 7.97147 0.293823 8.67821C0.586171 9.41065 1.01556 10.0674 1.56933 10.63C2.12311 11.1925 2.76965 11.6287 3.49068 11.9256C4.18641 12.2126 4.9215 12.3575 5.67486 12.3575C6.42822 12.3575 7.16331 12.2119 7.85904 11.9256C8.58007 11.6287 9.22661 11.1925 9.78039 10.63L8.83939 9.67336L8.8401 9.67479Z" fill="#E2E2E2"/>
<path d="M31.4964 3.41971V13.1413H21.9255V3.41971H31.4964ZM29.5821 5.36431H23.8399V11.1974H29.5821V9.25281H25.7542V7.3082H29.5821V5.3636V5.36431Z" fill="#D0D0D0"/>
<path d="M38.4734 13.1421V11.1975H40.328L38.4734 6.33666L35.8711 13.1421H33.6876L37.5156 3.42047H39.4299L43.2578 13.1421H38.4727H38.4734Z" fill="#D0D0D0"/>
<path d="M47.5748 3.41971V13.1413H45.6605V3.41971H47.5748Z" fill="#D0D0D0"/>
<path d="M51.7858 3.41971H61.3567V5.36431H53.7001V7.30892H61.3567V9.25352H53.7001V13.142H51.7858V3.41971Z" fill="#D0D0D0"/>
<path d="M64.0315 13.142L66.9276 5.78696L67.4167 7.02839L68.9796 10.9976H66.475V10.4329H67.9733L66.9276 7.69087L64.8432 13.142H64.0315Z" fill="#D0D0D0"/>
<path d="M66.475 13.142V12.5452H71.1427L67.7533 3.93942H66.0969L62.4777 13.142H61.8557L65.7406 3.27551H68.1152L72.0001 13.142H66.475Z" fill="#D0D0D0"/>
<path d="M69.5524 11.3916H66.475V12.1505H70.5693L67.4912 4.3335H66.3598L62.8959 13.142H63.6141L66.7435 5.19515H67.1124L69.5524 11.3916Z" fill="#D0D0D0"/>
</g>
<defs>
<clipPath id="clip0_1479_678">
<rect width="72" height="15" fill="white" transform="translate(0 0.5)"/>
</clipPath>
</defs>
</svg>
