<svg width="382" height="300" viewBox="0 0 382 300" fill="none" xmlns="http://www.w3.org/2000/svg">
<g clip-path="url(#clip0_3_150)">
<path d="M466.662 58.0805C462.876 53.2136 458.791 48.5453 454.308 44.0756C454.308 44.0756 454.208 43.9763 454.109 43.877C395.427 -14.6257 300.282 -14.6257 241.6 43.877L255.847 58.0805C274.677 76.853 302.175 83.7064 327.879 76.7537C332.163 75.5618 336.646 74.7672 341.03 74.3699L380.383 53.3129C409.774 37.5202 442.552 41.4932 466.662 58.0805Z" fill="#F9F9F9"/>
<path d="M380.383 246.898L340.831 225.642C336.547 225.245 332.262 224.45 328.078 223.358C302.374 216.504 275.075 223.358 256.246 242.13L241.899 256.433C300.68 314.638 395.626 314.539 454.308 256.036C455.005 255.341 455.703 254.645 456.4 253.95C460.086 250.176 463.474 246.203 466.662 242.13C442.552 258.618 409.873 262.492 380.483 246.799L380.383 246.898Z" fill="#F9F9F9"/>
<path d="M480.809 79.8327C476.824 72.284 472.141 65.0333 466.761 58.0805C442.552 41.4932 409.873 37.5202 380.483 53.3129L341.129 74.3699C350.993 73.4759 361.055 74.5685 370.62 77.4489C382.376 81.124 393.435 87.5801 402.6 97.1154C416.847 111.716 423.921 130.687 424.021 149.758C424.419 149.758 424.419 149.758 424.021 149.758C424.021 168.928 416.947 188.097 402.7 202.798C393.534 212.233 382.575 218.789 370.819 222.464C361.155 225.543 350.893 226.536 340.93 225.642L380.483 246.898C409.873 262.591 442.452 258.718 466.662 242.23C471.942 235.476 476.525 228.324 480.51 220.974C504.023 177.072 504.222 123.834 480.909 79.8327H480.809Z" fill="#F9F9F9"/>
<path d="M121.049 0.372471C154.226 0.372471 181.125 27.1903 181.125 60.2656V299.838C147.949 299.838 121.049 273.021 121.049 239.945V0.372471Z" fill="#F9F9F9"/>
<path d="M369.324 128.899C357.568 117.179 338.539 117.179 326.882 128.899C322.798 132.972 317.717 135.852 312.038 136.845C307.156 137.64 302.274 138.236 297.392 138.435C280.954 139.229 265.013 132.972 253.456 121.351L248.076 115.987C245.685 113.603 241.899 113.603 239.608 115.987L211.711 143.798L209.719 145.785C207.328 148.169 207.328 151.943 209.719 154.227L211.711 156.214L239.608 184.025C241.999 186.409 245.785 186.409 248.076 184.025L253.456 178.661C263.518 168.63 277.168 162.769 291.514 162.67C299.783 162.67 308.152 163.465 316.322 165.153C320.407 165.948 324.093 168.133 327.082 171.113C338.838 182.833 357.867 182.833 369.524 171.113C381.28 159.392 381.28 140.421 369.524 128.8L369.324 128.899Z" fill="#F9F9F9"/>
<path d="M75.1202 19.2443C30.1876 45.6648 0 94.3342 0 150.056C0 205.777 30.1876 254.546 75.1202 280.967V19.2443Z" fill="#F9F9F9"/>
</g>
<defs>
<clipPath id="clip0_3_150">
<rect width="492" height="300" fill="white"/>
</clipPath>
</defs>
</svg>
