<svg width="78" height="16" viewBox="0 0 78 16" fill="none" xmlns="http://www.w3.org/2000/svg">
<g clip-path="url(#clip0_2_118)">
<path d="M24.7927 3.09763C24.5916 2.83806 24.3746 2.58908 24.1364 2.3507C24.1364 2.3507 24.1311 2.3454 24.1258 2.34011C21.0082 -0.780035 15.9533 -0.780035 12.8357 2.34011L13.5926 3.09763C14.593 4.09883 16.0539 4.46434 17.4195 4.09353C17.6471 4.02996 17.8853 3.98758 18.1182 3.96639L20.2089 2.84335C21.7704 2.00107 23.5118 2.21297 24.7927 3.09763Z" fill="#FFA502"/>
<path d="M20.2089 13.1679L18.1076 12.0342C17.88 12.013 17.6524 11.9707 17.4301 11.9124C16.0645 11.5469 14.6142 11.9124 13.6138 12.9136L12.8516 13.6764C15.9745 16.7807 21.0188 16.7754 24.1364 13.6552C24.1734 13.6181 24.2105 13.5811 24.2475 13.544C24.4434 13.3427 24.6233 13.1308 24.7927 12.9136C23.5118 13.793 21.7757 13.9996 20.2142 13.1626L20.2089 13.1679Z" fill="#FFA502"/>
<path d="M25.5443 4.25776C25.3326 3.85516 25.0838 3.46845 24.798 3.09764C23.5118 2.21298 21.7757 2.00109 20.2142 2.84337L18.1234 3.9664C18.6475 3.91873 19.1821 3.977 19.6902 4.13062C20.3148 4.32662 20.9023 4.67095 21.3893 5.1795C22.1462 5.95821 22.522 6.97 22.5273 7.98709C22.5484 7.98709 22.5484 7.98709 22.5273 7.98709C22.5273 9.00948 22.1515 10.0319 21.3946 10.8159C20.9076 11.3191 20.3254 11.6688 19.7008 11.8648C19.1873 12.029 18.6422 12.0819 18.1129 12.0343L20.2142 13.1679C21.7757 14.0049 23.5065 13.7983 24.7927 12.9189C25.0732 12.5587 25.3167 12.1773 25.5284 11.7853C26.7776 9.44387 26.7882 6.60449 25.5496 4.25776H25.5443Z" fill="#FFC40C"/>
<path d="M22.7231 7.98711C22.7602 7.98711 22.8025 7.98711 22.8396 7.98181C22.8025 7.98181 22.7602 7.98711 22.7231 7.98711Z" fill="#FFA502"/>
<path d="M6.43109 0.0198364C8.19368 0.0198364 9.62281 1.45012 9.62281 3.21414V15.9914C7.86022 15.9914 6.43109 14.5611 6.43109 12.797V0.0198364Z" fill="#FFA502"/>
<path d="M19.6214 6.87465C18.9968 6.24956 17.9858 6.24956 17.3666 6.87465C17.1495 7.09184 16.8796 7.24546 16.5779 7.29843C16.3185 7.34081 16.0592 7.3726 15.7998 7.38319C14.9264 7.42557 14.0796 7.09184 13.4656 6.47205L13.1797 6.18599C13.0527 6.05885 12.8516 6.05885 12.7298 6.18599L11.2478 7.66925L11.1419 7.7752C11.0149 7.90233 11.0149 8.10363 11.1419 8.22547L11.2478 8.33142L12.7298 9.81468C12.8569 9.94181 13.058 9.94181 13.1797 9.81468L13.4656 9.52862C14.0002 8.99359 14.7253 8.68104 15.4875 8.67575C15.9268 8.67575 16.3715 8.71812 16.8055 8.80818C17.0225 8.85056 17.2183 8.9671 17.3771 9.12602C18.0017 9.75111 19.0127 9.75111 19.632 9.12602C20.2566 8.50093 20.2566 7.48914 19.632 6.86935L19.6214 6.87465Z" fill="#FFA502"/>
<path d="M3.99097 1.02637C1.6038 2.43546 0 5.03117 0 8.00298C0 10.9748 1.6038 13.5758 3.99097 14.9849V1.02637Z" fill="#FFA502"/>
<path d="M33.3848 11.4221H31.3522V12.2855H33.3848V11.4221Z" fill="#FCFDFF"/>
<path d="M33.3848 5.66913H31.3522V8.83694H33.3848V5.66913Z" fill="#FCFDFF"/>
<path d="M33.3848 9.70044H31.3522V10.5639H33.3848V9.70044Z" fill="#FCFDFF"/>
<path d="M32.3526 4.51961C33.0566 4.51961 33.5012 4.04284 33.5012 3.43895C33.4853 2.81386 33.0566 2.3371 32.3685 2.3371C31.6804 2.3371 31.2358 2.81386 31.2358 3.43895C31.2358 4.06403 31.6804 4.51961 32.3526 4.51961Z" fill="#FCFDFF"/>
<path d="M33.3848 13.1437H31.3522V13.6575H33.3848V13.1437Z" fill="#FCFDFF"/>
<path d="M35.6608 11.4591C36.3171 11.8353 37.3017 12.1637 38.3338 12.1637C39.6306 12.1637 40.3505 11.5545 40.3505 10.6539C40.3505 9.81697 39.7947 9.32431 38.3814 8.81577C36.5606 8.15889 35.3961 7.18948 35.3961 5.60027C35.3961 3.79388 36.9047 2.41656 39.2971 2.41656C40.4934 2.41656 41.3773 2.68143 41.9543 2.97279L41.462 4.59907C41.0703 4.38718 40.2975 4.07464 39.2654 4.07464C37.9845 4.07464 37.4287 4.76329 37.4287 5.40427C37.4287 6.25714 38.0691 6.64915 39.5459 7.22656C41.462 7.947 42.3989 8.91642 42.3989 10.5056C42.3989 12.2749 41.0544 13.8218 38.2015 13.8218C37.037 13.8218 35.8249 13.4933 35.2162 13.1331L35.6608 11.4591Z" fill="#FCFDFF"/>
<path d="M51.3653 11.2631C51.3653 12.2166 51.3971 13.0007 51.4288 13.6575H49.6609L49.5604 12.4444H49.5286C49.1846 13.0165 48.3959 13.8376 46.9721 13.8376C45.5482 13.8376 44.1826 12.9689 44.1826 10.3573V5.66382H46.1993V10.0129C46.1993 11.3426 46.628 12.1955 47.6919 12.1955C48.4965 12.1955 49.0205 11.6233 49.2322 11.1148C49.2957 10.9347 49.3487 10.7228 49.3487 10.4897V5.66382H51.3653V11.2578V11.2631Z" fill="#FCFDFF"/>
<path d="M53.6307 8.04763C53.6307 7.13119 53.6148 6.35778 53.5672 5.66912H55.3351L55.4357 6.86632H55.4833C55.8273 6.24124 56.6954 5.48901 58.024 5.48901C59.416 5.48901 60.861 6.38956 60.861 8.9164V13.6575H58.8444V9.14419C58.8444 7.99466 58.4156 7.12589 57.32 7.12589C56.5154 7.12589 55.9597 7.69801 55.7479 8.3072C55.6844 8.48731 55.6685 8.73629 55.6685 8.96408V13.6575H53.636V8.04763H53.6307Z" fill="#FCFDFF"/>
<path d="M62.7454 2.16229H68.8113V3.84685H64.7621V7.09942H68.536V8.7522H64.7621V13.6575H62.7454V2.16229Z" fill="#FCFDFF"/>
<path d="M71.7437 10.4844L70.8703 13.6575H68.8219L72.1671 2.16229H74.676L78.0001 13.6575H75.8881L74.9777 10.4844H71.7384H71.7437ZM74.6813 8.9482L73.9032 6.17239C73.7074 5.44665 73.5274 4.58318 73.3686 3.87334H73.3263C73.1728 4.58848 72.9981 5.47314 72.8129 6.16709L72.0401 8.9429H74.676L74.6813 8.9482Z" fill="#FCFDFF"/>
</g>
<defs>
<clipPath id="clip0_2_118">
<rect width="78" height="16" fill="white"/>
</clipPath>
</defs>
</svg>
