<svg width="31" height="30" viewBox="0 0 31 30" fill="none" xmlns="http://www.w3.org/2000/svg">
<rect x="0.5" width="30" height="30" rx="15" fill="#FFA502"/>
<g clip-path="url(#clip0_1152_10538)">
<g clip-path="url(#clip1_1152_10538)">
<path fill-rule="evenodd" clip-rule="evenodd" d="M16.866 15.3852C16.4663 15.9073 15.9659 16.3482 15.3939 16.6791V17.848C15.3939 18.4003 14.9462 18.848 14.3939 18.848H11.3939C10.8416 18.848 10.3939 18.4003 10.3939 17.848V16.6791C8.89942 15.8145 7.89392 14.1987 7.89392 12.348C7.89392 9.58656 10.1325 7.34798 12.8939 7.34798C14.3385 7.34798 15.6399 7.96055 16.5527 8.9401C16.4342 9.44386 16.0263 9.82938 15.5151 9.91831C13.4433 10.2788 13.4433 13.253 15.5151 13.6134C16.0329 13.7035 16.4448 14.0979 16.5572 14.6113L16.5763 14.6989C16.6341 14.9628 16.7345 15.1916 16.866 15.3852ZM10.3939 20.598C10.3939 20.1838 10.7297 19.848 11.1439 19.848H14.6439C15.0581 19.848 15.3939 20.1838 15.3939 20.598C15.3939 21.0122 15.0581 21.348 14.6439 21.348H11.1439C10.7297 21.348 10.3939 21.0122 10.3939 20.598ZM17.6384 9.0652C17.8215 8.22887 19.0123 8.22366 19.2027 9.05837L19.2117 9.09784C19.2177 9.12474 19.2234 9.14958 19.2295 9.17547C19.4488 10.1096 20.2047 10.8233 21.151 10.9879C22.0233 11.1397 22.0233 12.3919 21.151 12.5437C20.1997 12.7092 19.4407 13.4297 19.226 14.3711L19.2027 14.4733C19.0123 15.308 17.8215 15.3027 17.6384 14.4664L17.6192 14.3788C17.4124 13.4339 16.6544 12.708 15.7015 12.5422C14.8308 12.3908 14.8308 11.1409 15.7015 10.9894C16.6511 10.8242 17.4071 10.1028 17.6171 9.16271L17.6312 9.09823L17.6384 9.0652Z" fill="#000A12"/>
</g>
</g>
<defs>
<clipPath id="clip0_1152_10538">
<rect width="16" height="16" fill="white" transform="translate(7.5 7)"/>
</clipPath>
<clipPath id="clip1_1152_10538">
<rect width="16" height="16" fill="white" transform="translate(7.5 7)"/>
</clipPath>
</defs>
</svg>
