<svg width="31" height="30" viewBox="0 0 31 30" fill="none" xmlns="http://www.w3.org/2000/svg">
<rect x="0.5" width="30" height="30" rx="15" fill="#CDD1D9"/>
<g clip-path="url(#clip0_1152_5010)">
<g clip-path="url(#clip1_1152_5010)">
<path fill-rule="evenodd" clip-rule="evenodd" d="M17.9119 16.3181C17.4658 16.9008 16.9073 17.3929 16.269 17.7621V19.0667C16.269 19.6831 15.7693 20.1828 15.1529 20.1828H11.8047C11.1883 20.1828 10.6886 19.6831 10.6886 19.0667V17.7621C9.02064 16.7973 7.89844 14.9939 7.89844 12.9283C7.89844 9.8464 10.3968 7.34799 13.4788 7.34799C15.091 7.34799 16.5435 8.03167 17.5622 9.12491C17.43 9.68714 16.9747 10.1174 16.4042 10.2167C14.0919 10.6189 14.0919 13.9384 16.4042 14.3406C16.9821 14.4412 17.4418 14.8814 17.5672 15.4544L17.5886 15.5522C17.6531 15.8467 17.7651 16.1021 17.9119 16.3181ZM10.6886 22.1359C10.6886 21.6736 11.0634 21.2989 11.5257 21.2989H15.4319C15.8942 21.2989 16.269 21.6736 16.269 22.1359C16.269 22.5982 15.8942 22.973 15.4319 22.973H11.5257C11.0634 22.973 10.6886 22.5982 10.6886 22.1359ZM18.774 9.26453C18.9783 8.33113 20.3073 8.32532 20.5198 9.25691L20.5299 9.30096C20.5366 9.33098 20.5429 9.3587 20.5497 9.3876C20.7945 10.4301 21.6381 11.2267 22.6943 11.4104C23.6678 11.5798 23.6678 12.9774 22.6943 13.1468C21.6326 13.3315 20.7855 14.1356 20.5458 15.1863L20.5198 15.3003C20.3073 16.2319 18.9783 16.2261 18.774 15.2927L18.7526 15.1949C18.5217 14.1403 17.6758 13.3302 16.6122 13.1452C15.6405 12.9761 15.6405 11.5811 16.6122 11.412C17.6721 11.2277 18.5158 10.4226 18.7501 9.37336L18.7659 9.30139L18.774 9.26453Z" fill="#7F8A9D"/>
</g>
</g>
<defs>
<clipPath id="clip0_1152_5010">
<rect width="16" height="16" fill="white" transform="translate(7.5 7)"/>
</clipPath>
<clipPath id="clip1_1152_5010">
<rect width="16" height="16" fill="white" transform="translate(7.5 7)"/>
</clipPath>
</defs>
</svg>
