<svg width="31" height="30" viewBox="0 0 31 30" fill="none" xmlns="http://www.w3.org/2000/svg">
<rect x="0.5" width="30" height="30" rx="15" fill="#CDD1D9"/>
<g clip-path="url(#clip0_1152_33609)">
<g clip-path="url(#clip1_1152_33609)">
<path fill-rule="evenodd" clip-rule="evenodd" d="M11.3496 7.34799C10.9518 7.34799 10.5702 7.50603 10.2889 7.78733C10.0076 8.06864 9.84961 8.45017 9.84961 8.84799V14.0367C10.192 13.7622 10.6266 13.598 11.0996 13.598C12.2042 13.598 13.0996 14.4934 13.0996 15.598V16.098H13.5996C14.7042 16.098 15.5996 16.9934 15.5996 18.098C15.5996 19.2026 14.7042 20.098 13.5996 20.098H13.0996V20.598C13.0996 20.8632 13.048 21.1164 12.9542 21.348H20.3496C20.7474 21.348 21.129 21.19 21.4103 20.9087C21.6916 20.6274 21.8496 20.2458 21.8496 19.848V11.848C21.8496 11.7154 21.7969 11.5882 21.7032 11.4944L17.7032 7.49444C17.6094 7.40067 17.4822 7.34799 17.3496 7.34799H11.3496ZM11.8496 15.598C11.8496 15.1838 11.5138 14.848 11.0996 14.848C10.6854 14.848 10.3496 15.1838 10.3496 15.598V17.348H8.59961C8.1854 17.348 7.84961 17.6838 7.84961 18.098C7.84961 18.5122 8.1854 18.848 8.59961 18.848H10.3496V20.598C10.3496 21.0122 10.6854 21.348 11.0996 21.348C11.5138 21.348 11.8496 21.0122 11.8496 20.598V18.848H13.5996C14.0138 18.848 14.3496 18.5122 14.3496 18.098C14.3496 17.6838 14.0138 17.348 13.5996 17.348H11.8496V15.598Z" fill="#7F8A9D"/>
</g>
</g>
<defs>
<clipPath id="clip0_1152_33609">
<rect width="16" height="16" fill="white" transform="translate(7.5 7)"/>
</clipPath>
<clipPath id="clip1_1152_33609">
<rect width="16" height="16" fill="white" transform="translate(7.5 7)"/>
</clipPath>
</defs>
</svg>
