<svg width="31" height="30" viewBox="0 0 31 30" fill="none" xmlns="http://www.w3.org/2000/svg">
<rect x="0.5" width="30" height="30" rx="15" fill="#CDD1D9"/>
<g clip-path="url(#clip0_1152_9288)">
<g clip-path="url(#clip1_1152_9288)">
<path fill-rule="evenodd" clip-rule="evenodd" d="M15.6616 7.35059C12.7461 7.35059 10.3826 9.71408 10.3826 12.6296C10.3826 14.6195 11.4837 16.3523 13.1098 17.252C12.383 17.5035 11.6929 17.8627 11.0638 18.3216C9.7287 19.2955 8.73736 20.6683 8.23271 22.242C8.17828 22.4117 8.20821 22.5972 8.31326 22.7412C8.41831 22.8853 8.58584 22.9704 8.76409 22.9704H22.5587C22.7369 22.9704 22.9044 22.8853 23.0096 22.7412C23.1146 22.5972 23.1445 22.4117 23.0901 22.242C22.5855 20.6683 21.5941 19.2955 20.259 18.3216C19.63 17.8628 18.94 17.5036 18.2133 17.2521C19.8395 16.3524 20.9406 14.6196 20.9406 12.6296C20.9406 9.71408 18.5771 7.35059 15.6616 7.35059Z" fill="#7F8A9D"/>
</g>
</g>
<defs>
<clipPath id="clip0_1152_9288">
<rect width="16" height="16" fill="white" transform="translate(7.5 7)"/>
</clipPath>
<clipPath id="clip1_1152_9288">
<rect width="16" height="16" fill="white" transform="translate(7.5 7)"/>
</clipPath>
</defs>
</svg>
