<svg width="31" height="30" viewBox="0 0 31 30" fill="none" xmlns="http://www.w3.org/2000/svg">
<rect x="0.5" width="30" height="30" rx="15" fill="#CDD1D9"/>
<g clip-path="url(#clip0_1152_9307)">
<g clip-path="url(#clip1_1152_9307)">
<path fill-rule="evenodd" clip-rule="evenodd" d="M11.3496 11.348C12.4542 11.348 13.3496 10.4526 13.3496 9.34799C13.3496 8.24342 12.4542 7.34799 11.3496 7.34799C10.245 7.34799 9.34961 8.24342 9.34961 9.34799C9.34961 10.4526 10.245 11.348 11.3496 11.348ZM13.3945 17.348V17.3185C13.3945 16.3283 13.9413 15.4658 14.7494 15.0164C14.5984 14.3994 14.281 13.8297 13.8245 13.3731C13.1681 12.7167 12.2779 12.348 11.3496 12.348C10.4213 12.348 9.53111 12.7167 8.87474 13.3731C8.21836 14.0295 7.84961 14.9197 7.84961 15.848V16.848C7.84961 17.1241 8.07347 17.348 8.34961 17.348H9.34961L9.79486 20.91C9.82614 21.1602 10.0388 21.348 10.291 21.348H12.4082C12.6604 21.348 12.8731 21.1602 12.9044 20.91L13.3496 17.348H13.3945ZM17.7766 15.0353C17.6385 15.0353 17.5266 15.1472 17.5266 15.2853V15.9361H18.9392V15.2853C18.9392 15.1472 18.8272 15.0353 18.6892 15.0353H17.7766ZM16.0266 15.2853V15.9361C15.2633 15.9363 14.6445 16.5551 14.6445 17.3185V19.9656C14.6445 20.729 15.2634 21.3479 16.0269 21.3479H20.4387C21.2021 21.3479 21.821 20.729 21.821 19.9656V17.3185C21.821 16.5552 21.2024 15.9364 20.4392 15.9361V15.2853C20.4392 14.3188 19.6557 13.5353 18.6892 13.5353H17.7766C16.8101 13.5353 16.0266 14.3188 16.0266 15.2853Z" fill="#7F8A9D"/>
</g>
</g>
<defs>
<clipPath id="clip0_1152_9307">
<rect width="16" height="16" fill="white" transform="translate(7.5 7)"/>
</clipPath>
<clipPath id="clip1_1152_9307">
<rect width="16" height="16" fill="white" transform="translate(7.5 7)"/>
</clipPath>
</defs>
</svg>
