<svg width="31" height="30" viewBox="0 0 31 30" fill="none" xmlns="http://www.w3.org/2000/svg">
<rect x="0.5" width="30" height="30" rx="15" fill="#FFA502"/>
<g clip-path="url(#clip0_1152_10520)">
<g clip-path="url(#clip1_1152_10520)">
<path fill-rule="evenodd" clip-rule="evenodd" d="M11.7559 11.8123C12.9886 11.8123 13.988 10.8129 13.988 9.58013C13.988 8.34735 12.9886 7.34799 11.7559 7.34799C10.5231 7.34799 9.52371 8.34735 9.52371 9.58013C9.52371 10.8129 10.5231 11.8123 11.7559 11.8123ZM14.0381 18.5087V18.4758C14.0381 17.3706 14.6484 16.408 15.5502 15.9064C15.3818 15.2179 15.0275 14.582 14.518 14.0725C13.7854 13.3399 12.7919 12.9283 11.7559 12.9283C10.7199 12.9283 9.72628 13.3399 8.99373 14.0725C8.26116 14.805 7.84961 15.7986 7.84961 16.8346V17.9507C7.84961 18.2589 8.09945 18.5087 8.40764 18.5087H9.52371L10.0206 22.4841C10.0556 22.7634 10.2929 22.973 10.5744 22.973H12.9373C13.2188 22.973 13.4562 22.7634 13.4911 22.4841L13.988 18.5087H14.0381ZM18.9288 15.9275C18.7747 15.9275 18.6498 16.0524 18.6498 16.2065V16.9329H20.2264V16.2065C20.2264 16.0524 20.1014 15.9275 19.9474 15.9275H18.9288ZM16.9757 16.2065V16.9329C16.1238 16.9331 15.4332 17.6238 15.4332 18.4758V21.4301C15.4332 22.2821 16.124 22.9729 16.976 22.9729H21.8999C22.7519 22.9729 23.4427 22.2821 23.4427 21.4301V18.4758C23.4427 17.6239 22.7523 16.9333 21.9005 16.9329V16.2065C21.9005 15.1278 21.026 14.2534 19.9474 14.2534H18.9288C17.8502 14.2534 16.9757 15.1278 16.9757 16.2065Z" fill="#000A12"/>
</g>
</g>
<defs>
<clipPath id="clip0_1152_10520">
<rect width="16" height="16" fill="white" transform="translate(7.5 7)"/>
</clipPath>
<clipPath id="clip1_1152_10520">
<rect width="16" height="16" fill="white" transform="translate(7.5 7)"/>
</clipPath>
</defs>
</svg>
