<svg width="610" height="619" viewBox="0 0 350 619" fill="none" xmlns="http://www.w3.org/2000/svg">
<mask id="mask0_1248_186034" style="mask-type:luminance" maskUnits="userSpaceOnUse" x="0" y="0" width="595" height="619">
<path d="M594.035 0.407837H0.0462646V619H594.035V0.407837Z" fill="white"/>
</mask>
<g mask="url(#mask0_1248_186034)">
<path d="M440.629 108.473V187.759" stroke="#8A8A8A" stroke-width="0.64" stroke-miterlimit="10"/>
<path d="M480.252 187.759H401.015" stroke="#8A8A8A" stroke-width="0.64" stroke-miterlimit="10"/>
<path d="M440.629 187.759V267.055" stroke="#8A8A8A" stroke-width="0.64" stroke-miterlimit="10"/>
<path d="M480.252 267.055H401.015" stroke="#8A8A8A" stroke-width="0.64" stroke-miterlimit="10"/>
<path d="M480.252 227.412H401.015" stroke="#8A8A8A" stroke-width="0.64" stroke-miterlimit="10"/>
<path d="M480.252 187.759H401.015" stroke="#8A8A8A" stroke-width="0.64" stroke-miterlimit="10"/>
<path d="M440.629 267.055V346.361" stroke="#8A8A8A" stroke-width="0.64" stroke-miterlimit="10"/>
<path d="M401.015 267.055V346.361" stroke="#8A8A8A" stroke-width="0.64" stroke-miterlimit="10"/>
<path d="M480.252 346.361H401.015" stroke="#8A8A8A" stroke-width="0.64" stroke-miterlimit="10"/>
<path d="M480.252 306.708H401.015" stroke="#8A8A8A" stroke-width="0.64" stroke-miterlimit="10"/>
<path d="M480.252 267.055H401.015" stroke="#8A8A8A" stroke-width="0.64" stroke-miterlimit="10"/>
<path d="M440.629 346.361V425.647" stroke="#8A8A8A" stroke-width="0.64" stroke-miterlimit="10"/>
<path d="M401.015 346.361V425.647" stroke="#8A8A8A" stroke-width="0.64" stroke-miterlimit="10"/>
<path d="M480.252 425.647H401.015" stroke="#8A8A8A" stroke-width="0.64" stroke-miterlimit="10"/>
<path d="M480.252 386.004H401.015" stroke="#8A8A8A" stroke-width="0.64" stroke-miterlimit="10"/>
<path d="M480.252 346.361H401.015" stroke="#8A8A8A" stroke-width="0.64" stroke-miterlimit="10"/>
<path d="M440.629 425.647V504.944" stroke="#8A8A8A" stroke-width="0.64" stroke-miterlimit="10"/>
<path d="M401.015 425.647V504.944" stroke="#8A8A8A" stroke-width="0.64" stroke-miterlimit="10"/>
<path d="M480.252 504.944H401.015" stroke="#8A8A8A" stroke-width="0.64" stroke-miterlimit="10"/>
<path d="M480.252 465.301H401.015" stroke="#8A8A8A" stroke-width="0.64" stroke-miterlimit="10"/>
<path d="M480.252 425.647H401.015" stroke="#8A8A8A" stroke-width="0.64" stroke-miterlimit="10"/>
<path d="M440.629 504.944V584.25" stroke="#8A8A8A" stroke-width="0.64" stroke-miterlimit="10"/>
<path d="M401.015 504.944V584.25" stroke="#8A8A8A" stroke-width="0.64" stroke-miterlimit="10"/>
<path d="M480.252 584.25H401.015" stroke="#8A8A8A" stroke-width="0.64" stroke-miterlimit="10"/>
<path d="M480.252 544.597H401.015" stroke="#8A8A8A" stroke-width="0.64" stroke-miterlimit="10"/>
<path d="M401.015 584.25V663.546" stroke="#8A8A8A" stroke-width="0.64" stroke-miterlimit="10"/>
<path d="M401.015 267.055H321.777" stroke="#8A8A8A" stroke-width="0.64" stroke-miterlimit="10"/>
<path d="M401.015 267.055V346.361" stroke="#8A8A8A" stroke-width="0.64" stroke-miterlimit="10"/>
<path d="M361.391 267.055V346.361" stroke="#8A8A8A" stroke-width="0.64" stroke-miterlimit="10"/>
<path d="M321.777 267.055V346.361" stroke="#8A8A8A" stroke-width="0.64" stroke-miterlimit="10"/>
<path d="M401.015 346.361H321.777" stroke="#8A8A8A" stroke-width="0.64" stroke-miterlimit="10"/>
<path d="M401.015 267.055H321.777" stroke="#8A8A8A" stroke-width="0.64" stroke-miterlimit="10"/>
<path d="M401.015 346.361V425.647" stroke="#8A8A8A" stroke-width="0.64" stroke-miterlimit="10"/>
<path d="M361.391 346.361V425.647" stroke="#8A8A8A" stroke-width="0.64" stroke-miterlimit="10"/>
<path d="M401.015 386.004H321.777" stroke="#8A8A8A" stroke-width="0.64" stroke-miterlimit="10"/>
<path d="M401.015 346.361H321.777" stroke="#8A8A8A" stroke-width="0.64" stroke-miterlimit="10"/>
<path d="M401.015 425.647V504.944" stroke="#8A8A8A" stroke-width="0.64" stroke-miterlimit="10"/>
<path d="M361.391 425.647V504.944" stroke="#8A8A8A" stroke-width="0.64" stroke-miterlimit="10"/>
<path d="M401.015 504.944H321.777" stroke="#8A8A8A" stroke-width="0.64" stroke-miterlimit="10"/>
<path d="M401.015 465.301H321.777" stroke="#8A8A8A" stroke-width="0.64" stroke-miterlimit="10"/>
<path d="M401.015 504.944V584.25" stroke="#8A8A8A" stroke-width="0.64" stroke-miterlimit="10"/>
<path d="M321.777 504.944V584.25" stroke="#8A8A8A" stroke-width="0.64" stroke-miterlimit="10"/>
<path d="M401.015 584.25H321.777" stroke="#8A8A8A" stroke-width="0.64" stroke-miterlimit="10"/>
<path d="M401.015 544.597H321.777" stroke="#8A8A8A" stroke-width="0.64" stroke-miterlimit="10"/>
<path d="M401.015 584.25V663.546" stroke="#8A8A8A" stroke-width="0.64" stroke-miterlimit="10"/>
<path d="M361.391 584.25V663.546" stroke="#8A8A8A" stroke-width="0.64" stroke-miterlimit="10"/>
<path d="M321.777 584.25V663.546" stroke="#8A8A8A" stroke-width="0.64" stroke-miterlimit="10"/>
<path d="M321.777 267.055V346.361" stroke="#8A8A8A" stroke-width="0.64" stroke-miterlimit="10"/>
<path d="M321.777 346.361H242.539" stroke="#8A8A8A" stroke-width="0.64" stroke-miterlimit="10"/>
<path d="M321.777 306.708H242.539" stroke="#8A8A8A" stroke-width="0.64" stroke-miterlimit="10"/>
<path d="M282.163 346.361V425.647" stroke="#8A8A8A" stroke-width="0.64" stroke-miterlimit="10"/>
<path d="M242.539 346.361V425.647" stroke="#8A8A8A" stroke-width="0.64" stroke-miterlimit="10"/>
<path d="M321.777 386.004H242.539" stroke="#8A8A8A" stroke-width="0.64" stroke-miterlimit="10"/>
<path d="M321.777 346.361H242.539" stroke="#8A8A8A" stroke-width="0.64" stroke-miterlimit="10"/>
<path d="M282.163 425.647V504.944" stroke="#8A8A8A" stroke-width="0.64" stroke-miterlimit="10"/>
<path d="M242.539 425.647V504.944" stroke="#8A8A8A" stroke-width="0.64" stroke-miterlimit="10"/>
<path d="M321.777 504.944H242.539" stroke="#8A8A8A" stroke-width="0.64" stroke-miterlimit="10"/>
<path d="M321.777 465.301H242.539" stroke="#8A8A8A" stroke-width="0.64" stroke-miterlimit="10"/>
<path d="M321.777 504.944V584.25" stroke="#8A8A8A" stroke-width="0.64" stroke-miterlimit="10"/>
<path d="M282.163 504.944V584.25" stroke="#8A8A8A" stroke-width="0.64" stroke-miterlimit="10"/>
<path d="M242.539 504.944V584.25" stroke="#8A8A8A" stroke-width="0.64" stroke-miterlimit="10"/>
<path d="M321.777 584.25H242.539" stroke="#8A8A8A" stroke-width="0.64" stroke-miterlimit="10"/>
<path d="M321.777 584.25V663.546" stroke="#8A8A8A" stroke-width="0.64" stroke-miterlimit="10"/>
<path d="M282.163 584.25V663.546" stroke="#8A8A8A" stroke-width="0.64" stroke-miterlimit="10"/>
<path d="M242.539 584.25V663.546" stroke="#8A8A8A" stroke-width="0.64" stroke-miterlimit="10"/>
<path d="M242.539 346.361V425.647" stroke="#8A8A8A" stroke-width="0.64" stroke-miterlimit="10"/>
<path d="M242.539 425.647H163.301" stroke="#8A8A8A" stroke-width="0.64" stroke-miterlimit="10"/>
<path d="M242.539 386.004H163.301" stroke="#8A8A8A" stroke-width="0.64" stroke-miterlimit="10"/>
<path d="M242.539 425.647V504.944" stroke="#8A8A8A" stroke-width="0.64" stroke-miterlimit="10"/>
<path d="M202.915 425.647V504.944" stroke="#8A8A8A" stroke-width="0.64" stroke-miterlimit="10"/>
<path d="M163.301 425.647V504.944" stroke="#8A8A8A" stroke-width="0.64" stroke-miterlimit="10"/>
<path d="M242.539 504.944H163.301" stroke="#8A8A8A" stroke-width="0.64" stroke-miterlimit="10"/>
<path d="M242.539 465.301H163.301" stroke="#8A8A8A" stroke-width="0.64" stroke-miterlimit="10"/>
<path d="M242.539 425.647H163.301" stroke="#8A8A8A" stroke-width="0.64" stroke-miterlimit="10"/>
<path d="M242.539 504.944V584.25" stroke="#8A8A8A" stroke-width="0.64" stroke-miterlimit="10"/>
<path d="M202.915 504.944V584.25" stroke="#8A8A8A" stroke-width="0.64" stroke-miterlimit="10"/>
<path d="M163.301 504.944V584.25" stroke="#8A8A8A" stroke-width="0.64" stroke-miterlimit="10"/>
<path d="M242.539 584.25H163.301" stroke="#8A8A8A" stroke-width="0.64" stroke-miterlimit="10"/>
<path d="M242.539 544.597H163.301" stroke="#8A8A8A" stroke-width="0.64" stroke-miterlimit="10"/>
<path d="M242.539 584.25V663.546" stroke="#8A8A8A" stroke-width="0.64" stroke-miterlimit="10"/>
<path d="M202.915 584.25V663.546" stroke="#8A8A8A" stroke-width="0.64" stroke-miterlimit="10"/>
<path d="M163.301 584.25V663.546" stroke="#8A8A8A" stroke-width="0.64" stroke-miterlimit="10"/>
<path d="M163.301 425.647H84.0636" stroke="#8A8A8A" stroke-width="0.64" stroke-miterlimit="10"/>
<path d="M163.301 425.647V504.944" stroke="#8A8A8A" stroke-width="0.64" stroke-miterlimit="10"/>
<path d="M123.677 425.647V504.944" stroke="#8A8A8A" stroke-width="0.64" stroke-miterlimit="10"/>
<path d="M163.301 504.944H84.0636" stroke="#8A8A8A" stroke-width="0.64" stroke-miterlimit="10"/>
<path d="M163.301 425.647H84.0636" stroke="#8A8A8A" stroke-width="0.64" stroke-miterlimit="10"/>
<path d="M163.301 504.944V584.25" stroke="#8A8A8A" stroke-width="0.64" stroke-miterlimit="10"/>
<path d="M123.677 504.944V584.25" stroke="#8A8A8A" stroke-width="0.64" stroke-miterlimit="10"/>
<path d="M84.0636 504.944V584.25" stroke="#8A8A8A" stroke-width="0.64" stroke-miterlimit="10"/>
<path d="M163.301 584.25H84.0636" stroke="#8A8A8A" stroke-width="0.64" stroke-miterlimit="10"/>
<path d="M163.301 584.25V663.546" stroke="#8A8A8A" stroke-width="0.64" stroke-miterlimit="10"/>
<path d="M123.677 584.25V663.546" stroke="#8A8A8A" stroke-width="0.64" stroke-miterlimit="10"/>
<path d="M84.0636 584.25V663.546" stroke="#8A8A8A" stroke-width="0.64" stroke-miterlimit="10"/>
<path d="M84.0636 504.944V584.25" stroke="#8A8A8A" stroke-width="0.64" stroke-miterlimit="10"/>
<path d="M84.0636 544.597H44.4398" stroke="#8A8A8A" stroke-width="0.64" stroke-miterlimit="10"/>
<path d="M84.0636 584.25V663.546" stroke="#8A8A8A" stroke-width="0.64" stroke-miterlimit="10"/>
<path d="M44.4398 584.25V663.546" stroke="#8A8A8A" stroke-width="0.64" stroke-miterlimit="10"/>
<path d="M444.67 148.106C444.67 150.343 442.864 152.15 440.629 152.15C438.393 152.15 436.587 150.343 436.587 148.106C436.587 145.869 438.393 144.072 440.629 144.072C442.864 144.072 444.67 145.879 444.67 148.106Z" fill="#6857D7"/>
<path d="M444.68 187.759C444.68 189.996 442.874 191.803 440.638 191.803C438.403 191.803 436.597 189.996 436.597 187.759C436.597 185.522 438.403 183.715 440.638 183.715C442.874 183.715 444.68 185.522 444.68 187.759Z" fill="#BE80F5"/>
<path d="M444.68 108.473C444.68 110.7 442.874 112.507 440.638 112.507C438.403 112.507 436.597 110.7 436.597 108.473C436.597 106.246 438.403 104.429 440.638 104.429C442.874 104.429 444.68 106.236 444.68 108.473Z" fill="#BE80F5"/>
<path d="M444.67 227.412C444.67 229.649 442.864 231.456 440.629 231.456C438.393 231.456 436.587 229.649 436.587 227.412C436.587 225.175 438.393 223.378 440.629 223.378C442.864 223.378 444.67 225.185 444.67 227.412Z" fill="#6857D7"/>
<path d="M405.056 267.055C405.056 269.292 403.25 271.099 401.015 271.099C398.78 271.099 396.983 269.292 396.983 267.055C396.983 264.818 398.789 263.011 401.015 263.011C403.24 263.011 405.056 264.818 405.056 267.055Z" fill="#11FFF5"/>
<path d="M444.68 267.055C444.68 269.292 442.874 271.099 440.638 271.099C438.403 271.099 436.597 269.292 436.597 267.055C436.597 264.818 438.403 263.011 440.638 263.011C442.874 263.011 444.68 264.818 444.68 267.055Z" fill="#BE80F5"/>
<path d="M405.046 227.412C405.046 229.649 403.24 231.456 401.015 231.456C398.789 231.456 396.973 229.649 396.973 227.412C396.973 225.175 398.779 223.378 401.015 223.378C403.25 223.378 405.046 225.185 405.046 227.412Z" fill="#3273E2"/>
<path d="M405.056 187.759C405.056 189.996 403.25 191.803 401.015 191.803C398.779 191.803 396.973 189.996 396.973 187.759C396.973 185.522 398.779 183.715 401.015 183.715C403.25 183.715 405.056 185.522 405.056 187.759Z" fill="#11FFF5"/>
<path d="M444.68 187.759C444.68 189.996 442.874 191.803 440.638 191.803C438.403 191.803 436.597 189.996 436.597 187.759C436.597 185.522 438.403 183.715 440.638 183.715C442.874 183.715 444.68 185.522 444.68 187.759Z" fill="#BE80F5"/>
<path d="M405.056 306.708C405.056 308.945 403.25 310.742 401.015 310.742C398.78 310.742 396.983 308.935 396.983 306.708C396.983 304.481 398.789 302.664 401.015 302.664C403.24 302.664 405.056 304.471 405.056 306.708Z" fill="#3273E2"/>
<path d="M444.67 306.708C444.67 308.945 442.864 310.742 440.629 310.742C438.393 310.742 436.587 308.935 436.587 306.708C436.587 304.481 438.393 302.664 440.629 302.664C442.864 302.664 444.67 304.471 444.67 306.708Z" fill="#6857D7"/>
<path d="M405.056 346.361C405.056 348.588 403.25 350.405 401.015 350.405C398.78 350.405 396.983 348.588 396.983 346.361C396.983 344.134 398.789 342.317 401.015 342.317C403.24 342.317 405.056 344.134 405.056 346.361Z" fill="#11FFF5"/>
<path d="M444.68 346.361C444.68 348.588 442.874 350.405 440.638 350.405C438.403 350.405 436.597 348.588 436.597 346.361C436.597 344.134 438.403 342.317 440.638 342.317C442.874 342.317 444.68 344.134 444.68 346.361Z" fill="#BE80F5"/>
<path d="M405.056 267.055C405.056 269.292 403.25 271.099 401.015 271.099C398.78 271.099 396.983 269.292 396.983 267.055C396.983 264.818 398.789 263.011 401.015 263.011C403.24 263.011 405.056 264.818 405.056 267.055Z" fill="#11FFF5"/>
<path d="M444.68 267.055C444.68 269.292 442.874 271.099 440.638 271.099C438.403 271.099 436.597 269.292 436.597 267.055C436.597 264.818 438.403 263.011 440.638 263.011C442.874 263.011 444.68 264.818 444.68 267.055Z" fill="#BE80F5"/>
<path d="M405.056 386.004C405.056 388.241 403.25 390.049 401.015 390.049C398.78 390.049 396.983 388.241 396.983 386.004C396.983 383.768 398.789 381.97 401.015 381.97C403.24 381.97 405.056 383.778 405.056 386.004Z" fill="#3273E2"/>
<path d="M444.67 386.004C444.67 388.241 442.864 390.049 440.629 390.049C438.393 390.049 436.587 388.241 436.587 386.004C436.587 383.768 438.393 381.97 440.629 381.97C442.864 381.97 444.67 383.778 444.67 386.004Z" fill="#6857D7"/>
<path d="M405.056 425.648C405.056 427.884 403.25 429.692 401.015 429.692C398.78 429.692 396.983 427.884 396.983 425.648C396.983 423.411 398.789 421.603 401.015 421.603C403.24 421.603 405.056 423.421 405.056 425.648Z" fill="#11FFF5"/>
<path d="M444.68 425.648C444.68 427.884 442.874 429.692 440.638 429.692C438.403 429.692 436.597 427.884 436.597 425.648C436.597 423.411 438.403 421.603 440.638 421.603C442.874 421.603 444.68 423.421 444.68 425.648Z" fill="#BE80F5"/>
<path d="M405.056 346.361C405.056 348.588 403.25 350.405 401.015 350.405C398.78 350.405 396.983 348.588 396.983 346.361C396.983 344.134 398.789 342.317 401.015 342.317C403.24 342.317 405.056 344.134 405.056 346.361Z" fill="#11FFF5"/>
<path d="M444.68 346.361C444.68 348.588 442.874 350.405 440.638 350.405C438.403 350.405 436.597 348.588 436.597 346.361C436.597 344.134 438.403 342.317 440.638 342.317C442.874 342.317 444.68 344.134 444.68 346.361Z" fill="#BE80F5"/>
<path d="M405.056 465.301C405.056 467.537 403.25 469.345 401.015 469.345C398.78 469.345 396.983 467.527 396.983 465.301C396.983 463.074 398.789 461.256 401.015 461.256C403.24 461.256 405.056 463.064 405.056 465.301Z" fill="#3273E2"/>
<path d="M444.67 465.301C444.67 467.537 442.864 469.345 440.629 469.345C438.393 469.345 436.587 467.527 436.587 465.301C436.587 463.074 438.393 461.256 440.629 461.256C442.864 461.256 444.67 463.064 444.67 465.301Z" fill="#6857D7"/>
<path d="M405.056 504.944C405.056 507.181 403.25 508.988 401.015 508.988C398.78 508.988 396.983 507.181 396.983 504.944C396.983 502.707 398.789 500.91 401.015 500.91C403.24 500.91 405.056 502.717 405.056 504.944Z" fill="#11FFF5"/>
<path d="M444.68 504.944C444.68 507.181 442.874 508.988 440.638 508.988C438.403 508.988 436.597 507.181 436.597 504.944C436.597 502.707 438.403 500.91 440.638 500.91C442.874 500.91 444.68 502.717 444.68 504.944Z" fill="#BE80F5"/>
<path d="M405.056 425.648C405.056 427.884 403.25 429.692 401.015 429.692C398.78 429.692 396.983 427.884 396.983 425.648C396.983 423.411 398.789 421.603 401.015 421.603C403.24 421.603 405.056 423.421 405.056 425.648Z" fill="#11FFF5"/>
<path d="M444.68 425.648C444.68 427.884 442.874 429.692 440.638 429.692C438.403 429.692 436.597 427.884 436.597 425.648C436.597 423.411 438.403 421.603 440.638 421.603C442.874 421.603 444.68 423.421 444.68 425.648Z" fill="#BE80F5"/>
<path d="M405.056 544.597C405.056 546.824 403.25 548.641 401.015 548.641C398.78 548.641 396.983 546.824 396.983 544.597C396.983 542.37 398.789 540.553 401.015 540.553C403.24 540.553 405.056 542.36 405.056 544.597Z" fill="#3273E2"/>
<path d="M444.67 544.597C444.67 546.824 442.864 548.641 440.629 548.641C438.393 548.641 436.587 546.824 436.587 544.597C436.587 542.37 438.393 540.553 440.629 540.553C442.864 540.553 444.67 542.36 444.67 544.597Z" fill="#6857D7"/>
<path d="M405.056 584.25C405.056 586.477 403.25 588.294 401.015 588.294C398.78 588.294 396.983 586.487 396.983 584.25C396.983 582.013 398.789 580.206 401.015 580.206C403.24 580.206 405.056 582.013 405.056 584.25Z" fill="#11FFF5"/>
<path d="M444.68 584.25C444.68 586.477 442.874 588.294 440.638 588.294C438.403 588.294 436.597 586.487 436.597 584.25C436.597 582.013 438.403 580.206 440.638 580.206C442.874 580.206 444.68 582.013 444.68 584.25Z" fill="#BE80F5"/>
<path d="M405.056 504.944C405.056 507.181 403.25 508.988 401.015 508.988C398.78 508.988 396.983 507.181 396.983 504.944C396.983 502.707 398.789 500.91 401.015 500.91C403.24 500.91 405.056 502.717 405.056 504.944Z" fill="#11FFF5"/>
<path d="M444.68 504.944C444.68 507.181 442.874 508.988 440.638 508.988C438.403 508.988 436.597 507.181 436.597 504.944C436.597 502.707 438.403 500.91 440.638 500.91C442.874 500.91 444.68 502.717 444.68 504.944Z" fill="#BE80F5"/>
<path d="M405.056 584.25C405.056 586.477 403.25 588.294 401.015 588.294C398.78 588.294 396.983 586.487 396.983 584.25C396.983 582.013 398.789 580.206 401.015 580.206C403.24 580.206 405.056 582.013 405.056 584.25Z" fill="#11FFF5"/>
<path d="M444.68 584.25C444.68 586.477 442.874 588.294 440.638 588.294C438.403 588.294 436.597 586.487 436.597 584.25C436.597 582.013 438.403 580.206 440.638 580.206C442.874 580.206 444.68 582.013 444.68 584.25Z" fill="#BE80F5"/>
<path d="M405.056 267.055C405.056 269.292 403.25 271.099 401.015 271.099C398.78 271.099 396.983 269.292 396.983 267.055C396.983 264.818 398.789 263.011 401.015 263.011C403.24 263.011 405.056 264.818 405.056 267.055Z" fill="#11FFF5"/>
<path d="M365.442 267.055C365.442 269.292 363.626 271.099 361.401 271.099C359.176 271.099 357.37 269.292 357.37 267.055C357.37 264.818 359.176 263.011 361.401 263.011C363.626 263.011 365.442 264.818 365.442 267.055Z" fill="#BE80F5"/>
<path d="M405.056 306.708C405.056 308.945 403.25 310.742 401.015 310.742C398.78 310.742 396.983 308.935 396.983 306.708C396.983 304.481 398.789 302.664 401.015 302.664C403.24 302.664 405.056 304.471 405.056 306.708Z" fill="#3273E2"/>
<path d="M405.056 346.361C405.056 348.588 403.25 350.405 401.015 350.405C398.78 350.405 396.983 348.588 396.983 346.361C396.983 344.134 398.789 342.317 401.015 342.317C403.24 342.317 405.056 344.134 405.056 346.361Z" fill="#11FFF5"/>
<path d="M325.818 306.708C325.818 308.945 324.012 310.742 321.777 310.742C319.542 310.742 317.736 308.935 317.736 306.708C317.736 304.481 319.552 302.664 321.777 302.664C324.002 302.664 325.818 304.471 325.818 306.708Z" fill="#3273E2"/>
<path d="M365.432 306.708C365.432 308.945 363.626 310.742 361.391 310.742C359.156 310.742 357.36 308.935 357.36 306.708C357.36 304.481 359.166 302.664 361.391 302.664C363.616 302.664 365.432 304.471 365.432 306.708Z" fill="#6857D7"/>
<path d="M325.818 346.361C325.818 348.588 324.012 350.405 321.777 350.405C319.542 350.405 317.736 348.588 317.736 346.361C317.736 344.134 319.552 342.317 321.777 342.317C324.002 342.317 325.818 344.134 325.818 346.361Z" fill="#11FFF5"/>
<path d="M365.442 346.361C365.442 348.588 363.626 350.405 361.401 350.405C359.176 350.405 357.37 348.588 357.37 346.361C357.37 344.134 359.176 342.317 361.401 342.317C363.626 342.317 365.442 344.134 365.442 346.361Z" fill="#BE80F5"/>
<path d="M405.056 267.055C405.056 269.292 403.25 271.099 401.015 271.099C398.78 271.099 396.983 269.292 396.983 267.055C396.983 264.818 398.789 263.011 401.015 263.011C403.24 263.011 405.056 264.818 405.056 267.055Z" fill="#11FFF5"/>
<path d="M365.442 267.055C365.442 269.292 363.626 271.099 361.401 271.099C359.176 271.099 357.37 269.292 357.37 267.055C357.37 264.818 359.176 263.011 361.401 263.011C363.626 263.011 365.442 264.818 365.442 267.055Z" fill="#BE80F5"/>
<path d="M405.056 386.004C405.056 388.241 403.25 390.049 401.015 390.049C398.78 390.049 396.983 388.241 396.983 386.004C396.983 383.768 398.789 381.97 401.015 381.97C403.24 381.97 405.056 383.778 405.056 386.004Z" fill="#3273E2"/>
<path d="M405.056 425.648C405.056 427.884 403.25 429.692 401.015 429.692C398.78 429.692 396.983 427.884 396.983 425.648C396.983 423.411 398.789 421.603 401.015 421.603C403.24 421.603 405.056 423.421 405.056 425.648Z" fill="#11FFF5"/>
<path d="M325.818 386.004C325.818 388.241 324.012 390.049 321.777 390.049C319.542 390.049 317.736 388.241 317.736 386.004C317.736 383.768 319.552 381.97 321.777 381.97C324.002 381.97 325.818 383.778 325.818 386.004Z" fill="#3273E2"/>
<path d="M365.432 386.004C365.432 388.241 363.626 390.049 361.391 390.049C359.156 390.049 357.36 388.241 357.36 386.004C357.36 383.768 359.166 381.97 361.391 381.97C363.616 381.97 365.432 383.778 365.432 386.004Z" fill="#6857D7"/>
<path d="M365.442 425.648C365.442 427.884 363.626 429.692 361.401 429.692C359.176 429.692 357.37 427.884 357.37 425.648C357.37 423.411 359.176 421.603 361.401 421.603C363.626 421.603 365.442 423.421 365.442 425.648Z" fill="#BE80F5"/>
<path d="M405.056 346.361C405.056 348.588 403.25 350.405 401.015 350.405C398.78 350.405 396.983 348.588 396.983 346.361C396.983 344.134 398.789 342.317 401.015 342.317C403.24 342.317 405.056 344.134 405.056 346.361Z" fill="#11FFF5"/>
<path d="M325.818 346.361C325.818 348.588 324.012 350.405 321.777 350.405C319.542 350.405 317.736 348.588 317.736 346.361C317.736 344.134 319.552 342.317 321.777 342.317C324.002 342.317 325.818 344.134 325.818 346.361Z" fill="#11FFF5"/>
<path d="M365.442 346.361C365.442 348.588 363.626 350.405 361.401 350.405C359.176 350.405 357.37 348.588 357.37 346.361C357.37 344.134 359.176 342.317 361.401 342.317C363.626 342.317 365.442 344.134 365.442 346.361Z" fill="#BE80F5"/>
<path d="M405.056 465.301C405.056 467.537 403.25 469.345 401.015 469.345C398.78 469.345 396.983 467.527 396.983 465.301C396.983 463.074 398.789 461.256 401.015 461.256C403.24 461.256 405.056 463.064 405.056 465.301Z" fill="#3273E2"/>
<path d="M405.056 504.944C405.056 507.181 403.25 508.988 401.015 508.988C398.78 508.988 396.983 507.181 396.983 504.944C396.983 502.707 398.789 500.91 401.015 500.91C403.24 500.91 405.056 502.717 405.056 504.944Z" fill="#11FFF5"/>
<path d="M325.818 465.301C325.818 467.537 324.012 469.345 321.777 469.345C319.542 469.345 317.736 467.527 317.736 465.301C317.736 463.074 319.552 461.256 321.777 461.256C324.002 461.256 325.818 463.064 325.818 465.301Z" fill="#3273E2"/>
<path d="M365.432 465.301C365.432 467.537 363.626 469.345 361.391 469.345C359.156 469.345 357.36 467.527 357.36 465.301C357.36 463.074 359.166 461.256 361.391 461.256C363.616 461.256 365.432 463.064 365.432 465.301Z" fill="#6857D7"/>
<path d="M325.818 504.944C325.818 507.181 324.012 508.988 321.777 508.988C319.542 508.988 317.736 507.181 317.736 504.944C317.736 502.707 319.552 500.91 321.777 500.91C324.002 500.91 325.818 502.717 325.818 504.944Z" fill="#11FFF5"/>
<path d="M365.442 504.944C365.442 507.181 363.626 508.988 361.401 508.988C359.176 508.988 357.37 507.181 357.37 504.944C357.37 502.707 359.176 500.91 361.401 500.91C363.626 500.91 365.442 502.717 365.442 504.944Z" fill="#BE80F5"/>
<path d="M405.056 425.648C405.056 427.884 403.25 429.692 401.015 429.692C398.78 429.692 396.983 427.884 396.983 425.648C396.983 423.411 398.789 421.603 401.015 421.603C403.24 421.603 405.056 423.421 405.056 425.648Z" fill="#11FFF5"/>
<path d="M365.442 425.648C365.442 427.884 363.626 429.692 361.401 429.692C359.176 429.692 357.37 427.884 357.37 425.648C357.37 423.411 359.176 421.603 361.401 421.603C363.626 421.603 365.442 423.421 365.442 425.648Z" fill="#BE80F5"/>
<path d="M405.056 544.597C405.056 546.824 403.25 548.641 401.015 548.641C398.78 548.641 396.983 546.824 396.983 544.597C396.983 542.37 398.789 540.553 401.015 540.553C403.24 540.553 405.056 542.36 405.056 544.597Z" fill="#3273E2"/>
<path d="M405.056 584.25C405.056 586.477 403.25 588.294 401.015 588.294C398.78 588.294 396.983 586.487 396.983 584.25C396.983 582.013 398.789 580.206 401.015 580.206C403.24 580.206 405.056 582.013 405.056 584.25Z" fill="#11FFF5"/>
<path d="M325.818 544.597C325.818 546.824 324.012 548.641 321.777 548.641C319.542 548.641 317.736 546.824 317.736 544.597C317.736 542.37 319.552 540.553 321.777 540.553C324.002 540.553 325.818 542.36 325.818 544.597Z" fill="#3273E2"/>
<path d="M365.432 544.597C365.432 546.824 363.626 548.641 361.391 548.641C359.156 548.641 357.36 546.824 357.36 544.597C357.36 542.37 359.166 540.553 361.391 540.553C363.616 540.553 365.432 542.36 365.432 544.597Z" fill="#6857D7"/>
<path d="M325.818 584.25C325.818 586.477 324.012 588.294 321.777 588.294C319.542 588.294 317.736 586.487 317.736 584.25C317.736 582.013 319.552 580.206 321.777 580.206C324.002 580.206 325.818 582.013 325.818 584.25Z" fill="#11FFF5"/>
<path d="M365.442 584.25C365.442 586.477 363.626 588.294 361.401 588.294C359.176 588.294 357.37 586.487 357.37 584.25C357.37 582.013 359.176 580.206 361.401 580.206C363.626 580.206 365.442 582.013 365.442 584.25Z" fill="#BE80F5"/>
<path d="M405.056 504.944C405.056 507.181 403.25 508.988 401.015 508.988C398.78 508.988 396.983 507.181 396.983 504.944C396.983 502.707 398.789 500.91 401.015 500.91C403.24 500.91 405.056 502.717 405.056 504.944Z" fill="#11FFF5"/>
<path d="M325.818 504.944C325.818 507.181 324.012 508.988 321.777 508.988C319.542 508.988 317.736 507.181 317.736 504.944C317.736 502.707 319.552 500.91 321.777 500.91C324.002 500.91 325.818 502.717 325.818 504.944Z" fill="#11FFF5"/>
<path d="M365.442 504.944C365.442 507.181 363.626 508.988 361.401 508.988C359.176 508.988 357.37 507.181 357.37 504.944C357.37 502.707 359.176 500.91 361.401 500.91C363.626 500.91 365.442 502.717 365.442 504.944Z" fill="#BE80F5"/>
<path d="M405.056 584.25C405.056 586.477 403.25 588.294 401.015 588.294C398.78 588.294 396.983 586.487 396.983 584.25C396.983 582.013 398.789 580.206 401.015 580.206C403.24 580.206 405.056 582.013 405.056 584.25Z" fill="#11FFF5"/>
<path d="M325.818 584.25C325.818 586.477 324.012 588.294 321.777 588.294C319.542 588.294 317.736 586.487 317.736 584.25C317.736 582.013 319.552 580.206 321.777 580.206C324.002 580.206 325.818 582.013 325.818 584.25Z" fill="#11FFF5"/>
<path d="M365.442 584.25C365.442 586.477 363.626 588.294 361.401 588.294C359.176 588.294 357.37 586.487 357.37 584.25C357.37 582.013 359.176 580.206 361.401 580.206C363.626 580.206 365.442 582.013 365.442 584.25Z" fill="#BE80F5"/>
<path d="M325.818 306.708C325.818 308.945 324.012 310.742 321.777 310.742C319.542 310.742 317.736 308.935 317.736 306.708C317.736 304.481 319.552 302.664 321.777 302.664C324.002 302.664 325.818 304.471 325.818 306.708Z" fill="#3273E2"/>
<path d="M325.818 346.361C325.818 348.588 324.012 350.405 321.777 350.405C319.542 350.405 317.736 348.588 317.736 346.361C317.736 344.134 319.552 342.317 321.777 342.317C324.002 342.317 325.818 344.134 325.818 346.361Z" fill="#11FFF5"/>
<path d="M246.57 306.708C246.57 308.945 244.764 310.742 242.539 310.742C240.314 310.742 238.498 308.935 238.498 306.708C238.498 304.481 240.304 302.664 242.539 302.664C244.774 302.664 246.57 304.471 246.57 306.708Z" fill="#3273E2"/>
<path d="M286.194 306.708C286.194 308.945 284.388 310.742 282.163 310.742C279.938 310.742 278.122 308.935 278.122 306.708C278.122 304.481 279.928 302.664 282.163 302.664C284.398 302.664 286.194 304.471 286.194 306.708Z" fill="#6857D7"/>
<path d="M246.58 346.361C246.58 348.588 244.774 350.405 242.539 350.405C240.304 350.405 238.498 348.588 238.498 346.361C238.498 344.134 240.304 342.317 242.539 342.317C244.774 342.317 246.58 344.134 246.58 346.361Z" fill="#11FFF5"/>
<path d="M286.194 346.361C286.194 348.588 284.388 350.405 282.153 350.405C279.918 350.405 278.112 348.588 278.112 346.361C278.112 344.134 279.918 342.317 282.153 342.317C284.388 342.317 286.194 344.134 286.194 346.361Z" fill="#BE80F5"/>
<path d="M325.818 386.004C325.818 388.241 324.012 390.049 321.777 390.049C319.542 390.049 317.736 388.241 317.736 386.004C317.736 383.768 319.552 381.97 321.777 381.97C324.002 381.97 325.818 383.778 325.818 386.004Z" fill="#3273E2"/>
<path d="M246.57 386.004C246.57 388.241 244.764 390.049 242.539 390.049C240.314 390.049 238.498 388.241 238.498 386.004C238.498 383.768 240.304 381.97 242.539 381.97C244.774 381.97 246.57 383.778 246.57 386.004Z" fill="#3273E2"/>
<path d="M286.194 386.004C286.194 388.241 284.388 390.049 282.163 390.049C279.938 390.049 278.122 388.241 278.122 386.004C278.122 383.768 279.928 381.97 282.163 381.97C284.398 381.97 286.194 383.778 286.194 386.004Z" fill="#6857D7"/>
<path d="M246.58 425.648C246.58 427.884 244.774 429.692 242.539 429.692C240.304 429.692 238.498 427.884 238.498 425.648C238.498 423.411 240.304 421.603 242.539 421.603C244.774 421.603 246.58 423.421 246.58 425.648Z" fill="#11FFF5"/>
<path d="M286.194 425.648C286.194 427.884 284.388 429.692 282.153 429.692C279.918 429.692 278.112 427.884 278.112 425.648C278.112 423.411 279.918 421.603 282.153 421.603C284.388 421.603 286.194 423.421 286.194 425.648Z" fill="#BE80F5"/>
<path d="M325.818 346.361C325.818 348.588 324.012 350.405 321.777 350.405C319.542 350.405 317.736 348.588 317.736 346.361C317.736 344.134 319.552 342.317 321.777 342.317C324.002 342.317 325.818 344.134 325.818 346.361Z" fill="#11FFF5"/>
<path d="M246.58 346.361C246.58 348.588 244.774 350.405 242.539 350.405C240.304 350.405 238.498 348.588 238.498 346.361C238.498 344.134 240.304 342.317 242.539 342.317C244.774 342.317 246.58 344.134 246.58 346.361Z" fill="#11FFF5"/>
<path d="M286.194 346.361C286.194 348.588 284.388 350.405 282.153 350.405C279.918 350.405 278.112 348.588 278.112 346.361C278.112 344.134 279.918 342.317 282.153 342.317C284.388 342.317 286.194 344.134 286.194 346.361Z" fill="#BE80F5"/>
<path d="M325.818 465.301C325.818 467.537 324.012 469.345 321.777 469.345C319.542 469.345 317.736 467.527 317.736 465.301C317.736 463.074 319.552 461.256 321.777 461.256C324.002 461.256 325.818 463.064 325.818 465.301Z" fill="#3273E2"/>
<path d="M325.818 504.944C325.818 507.181 324.012 508.988 321.777 508.988C319.542 508.988 317.736 507.181 317.736 504.944C317.736 502.707 319.552 500.91 321.777 500.91C324.002 500.91 325.818 502.717 325.818 504.944Z" fill="#11FFF5"/>
<path d="M246.57 465.301C246.57 467.537 244.764 469.345 242.539 469.345C240.314 469.345 238.498 467.527 238.498 465.301C238.498 463.074 240.304 461.256 242.539 461.256C244.774 461.256 246.57 463.064 246.57 465.301Z" fill="#3273E2"/>
<path d="M286.194 465.301C286.194 467.537 284.388 469.345 282.163 469.345C279.938 469.345 278.122 467.527 278.122 465.301C278.122 463.074 279.928 461.256 282.163 461.256C284.398 461.256 286.194 463.064 286.194 465.301Z" fill="#6857D7"/>
<path d="M246.58 504.944C246.58 507.181 244.774 508.988 242.539 508.988C240.304 508.988 238.498 507.181 238.498 504.944C238.498 502.707 240.304 500.91 242.539 500.91C244.774 500.91 246.58 502.717 246.58 504.944Z" fill="#11FFF5"/>
<path d="M286.194 504.944C286.194 507.181 284.388 508.988 282.153 508.988C279.918 508.988 278.112 507.181 278.112 504.944C278.112 502.707 279.918 500.91 282.153 500.91C284.388 500.91 286.194 502.717 286.194 504.944Z" fill="#BE80F5"/>
<path d="M246.58 425.648C246.58 427.884 244.774 429.692 242.539 429.692C240.304 429.692 238.498 427.884 238.498 425.648C238.498 423.411 240.304 421.603 242.539 421.603C244.774 421.603 246.58 423.421 246.58 425.648Z" fill="#11FFF5"/>
<path d="M286.194 425.648C286.194 427.884 284.388 429.692 282.153 429.692C279.918 429.692 278.112 427.884 278.112 425.648C278.112 423.411 279.918 421.603 282.153 421.603C284.388 421.603 286.194 423.421 286.194 425.648Z" fill="#BE80F5"/>
<path d="M325.818 544.597C325.818 546.824 324.012 548.641 321.777 548.641C319.542 548.641 317.736 546.824 317.736 544.597C317.736 542.37 319.552 540.553 321.777 540.553C324.002 540.553 325.818 542.36 325.818 544.597Z" fill="#3273E2"/>
<path d="M325.818 584.25C325.818 586.477 324.012 588.294 321.777 588.294C319.542 588.294 317.736 586.487 317.736 584.25C317.736 582.013 319.552 580.206 321.777 580.206C324.002 580.206 325.818 582.013 325.818 584.25Z" fill="#11FFF5"/>
<path d="M246.57 544.597C246.57 546.824 244.764 548.641 242.539 548.641C240.314 548.641 238.498 546.824 238.498 544.597C238.498 542.37 240.304 540.553 242.539 540.553C244.774 540.553 246.57 542.36 246.57 544.597Z" fill="#3273E2"/>
<path d="M286.194 544.597C286.194 546.824 284.388 548.641 282.163 548.641C279.938 548.641 278.122 546.824 278.122 544.597C278.122 542.37 279.928 540.553 282.163 540.553C284.398 540.553 286.194 542.36 286.194 544.597Z" fill="#6857D7"/>
<path d="M246.58 584.25C246.58 586.477 244.774 588.294 242.539 588.294C240.304 588.294 238.498 586.487 238.498 584.25C238.498 582.013 240.304 580.206 242.539 580.206C244.774 580.206 246.58 582.013 246.58 584.25Z" fill="#11FFF5"/>
<path d="M286.194 584.25C286.194 586.477 284.388 588.294 282.153 588.294C279.918 588.294 278.112 586.487 278.112 584.25C278.112 582.013 279.918 580.206 282.153 580.206C284.388 580.206 286.194 582.013 286.194 584.25Z" fill="#BE80F5"/>
<path d="M325.818 504.944C325.818 507.181 324.012 508.988 321.777 508.988C319.542 508.988 317.736 507.181 317.736 504.944C317.736 502.707 319.552 500.91 321.777 500.91C324.002 500.91 325.818 502.717 325.818 504.944Z" fill="#11FFF5"/>
<path d="M246.58 504.944C246.58 507.181 244.774 508.988 242.539 508.988C240.304 508.988 238.498 507.181 238.498 504.944C238.498 502.707 240.304 500.91 242.539 500.91C244.774 500.91 246.58 502.717 246.58 504.944Z" fill="#11FFF5"/>
<path d="M286.194 504.944C286.194 507.181 284.388 508.988 282.153 508.988C279.918 508.988 278.112 507.181 278.112 504.944C278.112 502.707 279.918 500.91 282.153 500.91C284.388 500.91 286.194 502.717 286.194 504.944Z" fill="#BE80F5"/>
<path d="M325.818 584.25C325.818 586.477 324.012 588.294 321.777 588.294C319.542 588.294 317.736 586.487 317.736 584.25C317.736 582.013 319.552 580.206 321.777 580.206C324.002 580.206 325.818 582.013 325.818 584.25Z" fill="#11FFF5"/>
<path d="M246.58 584.25C246.58 586.477 244.774 588.294 242.539 588.294C240.304 588.294 238.498 586.487 238.498 584.25C238.498 582.013 240.304 580.206 242.539 580.206C244.774 580.206 246.58 582.013 246.58 584.25Z" fill="#11FFF5"/>
<path d="M286.194 584.25C286.194 586.477 284.388 588.294 282.153 588.294C279.918 588.294 278.112 586.487 278.112 584.25C278.112 582.013 279.918 580.206 282.153 580.206C284.388 580.206 286.194 582.013 286.194 584.25Z" fill="#BE80F5"/>
<path d="M246.57 306.708C246.57 308.945 244.764 310.742 242.539 310.742C240.314 310.742 238.498 308.935 238.498 306.708C238.498 304.481 240.304 302.664 242.539 302.664C244.774 302.664 246.57 304.471 246.57 306.708Z" fill="#3273E2"/>
<path d="M246.58 346.361C246.58 348.588 244.774 350.405 242.539 350.405C240.304 350.405 238.498 348.588 238.498 346.361C238.498 344.134 240.304 342.317 242.539 342.317C244.774 342.317 246.58 344.134 246.58 346.361Z" fill="#11FFF5"/>
<path d="M246.57 386.004C246.57 388.241 244.764 390.049 242.539 390.049C240.314 390.049 238.498 388.241 238.498 386.004C238.498 383.768 240.304 381.97 242.539 381.97C244.774 381.97 246.57 383.778 246.57 386.004Z" fill="#3273E2"/>
<path d="M246.58 425.648C246.58 427.884 244.774 429.692 242.539 429.692C240.304 429.692 238.498 427.884 238.498 425.648C238.498 423.411 240.304 421.603 242.539 421.603C244.774 421.603 246.58 423.421 246.58 425.648Z" fill="#11FFF5"/>
<path d="M167.343 386.004C167.343 388.241 165.537 390.049 163.301 390.049C161.066 390.049 159.26 388.241 159.26 386.004C159.26 383.768 161.066 381.97 163.301 381.97C165.537 381.97 167.343 383.778 167.343 386.004Z" fill="#3273E2"/>
<path d="M206.956 386.004C206.956 388.241 205.15 390.049 202.925 390.049C200.7 390.049 198.884 388.241 198.884 386.004C198.884 383.768 200.69 381.97 202.925 381.97C205.16 381.97 206.956 383.778 206.956 386.004Z" fill="#6857D7"/>
<path d="M167.343 425.648C167.343 427.884 165.537 429.692 163.301 429.692C161.066 429.692 159.26 427.884 159.26 425.648C159.26 423.411 161.066 421.603 163.301 421.603C165.537 421.603 167.343 423.421 167.343 425.648Z" fill="#11FFF5"/>
<path d="M206.956 425.648C206.956 427.884 205.15 429.692 202.915 429.692C200.68 429.692 198.874 427.884 198.874 425.648C198.874 423.411 200.68 421.603 202.915 421.603C205.15 421.603 206.956 423.421 206.956 425.648Z" fill="#BE80F5"/>
<path d="M246.58 346.361C246.58 348.588 244.774 350.405 242.539 350.405C240.304 350.405 238.498 348.588 238.498 346.361C238.498 344.134 240.304 342.317 242.539 342.317C244.774 342.317 246.58 344.134 246.58 346.361Z" fill="#11FFF5"/>
<path d="M246.57 465.301C246.57 467.537 244.764 469.345 242.539 469.345C240.314 469.345 238.498 467.527 238.498 465.301C238.498 463.074 240.304 461.256 242.539 461.256C244.774 461.256 246.57 463.064 246.57 465.301Z" fill="#3273E2"/>
<path d="M246.58 504.944C246.58 507.181 244.774 508.988 242.539 508.988C240.304 508.988 238.498 507.181 238.498 504.944C238.498 502.707 240.304 500.91 242.539 500.91C244.774 500.91 246.58 502.717 246.58 504.944Z" fill="#11FFF5"/>
<path d="M167.343 465.301C167.343 467.537 165.537 469.345 163.301 469.345C161.066 469.345 159.26 467.527 159.26 465.301C159.26 463.074 161.066 461.256 163.301 461.256C165.537 461.256 167.343 463.064 167.343 465.301Z" fill="#3273E2"/>
<path d="M206.956 465.301C206.956 467.537 205.15 469.345 202.925 469.345C200.7 469.345 198.884 467.527 198.884 465.301C198.884 463.074 200.69 461.256 202.925 461.256C205.16 461.256 206.956 463.064 206.956 465.301Z" fill="#6857D7"/>
<path d="M167.343 504.944C167.343 507.181 165.537 508.988 163.301 508.988C161.066 508.988 159.26 507.181 159.26 504.944C159.26 502.707 161.066 500.91 163.301 500.91C165.537 500.91 167.343 502.717 167.343 504.944Z" fill="#11FFF5"/>
<path d="M206.956 504.944C206.956 507.181 205.15 508.988 202.915 508.988C200.68 508.988 198.874 507.181 198.874 504.944C198.874 502.707 200.68 500.91 202.915 500.91C205.15 500.91 206.956 502.717 206.956 504.944Z" fill="#BE80F5"/>
<path d="M246.58 425.648C246.58 427.884 244.774 429.692 242.539 429.692C240.304 429.692 238.498 427.884 238.498 425.648C238.498 423.411 240.304 421.603 242.539 421.603C244.774 421.603 246.58 423.421 246.58 425.648Z" fill="#11FFF5"/>
<path d="M167.343 425.648C167.343 427.884 165.537 429.692 163.301 429.692C161.066 429.692 159.26 427.884 159.26 425.648C159.26 423.411 161.066 421.603 163.301 421.603C165.537 421.603 167.343 423.421 167.343 425.648Z" fill="#11FFF5"/>
<path d="M206.956 425.648C206.956 427.884 205.15 429.692 202.915 429.692C200.68 429.692 198.874 427.884 198.874 425.648C198.874 423.411 200.68 421.603 202.915 421.603C205.15 421.603 206.956 423.421 206.956 425.648Z" fill="#BE80F5"/>
<path d="M246.57 544.597C246.57 546.824 244.764 548.641 242.539 548.641C240.314 548.641 238.498 546.824 238.498 544.597C238.498 542.37 240.304 540.553 242.539 540.553C244.774 540.553 246.57 542.36 246.57 544.597Z" fill="#3273E2"/>
<path d="M246.58 584.25C246.58 586.477 244.774 588.294 242.539 588.294C240.304 588.294 238.498 586.487 238.498 584.25C238.498 582.013 240.304 580.206 242.539 580.206C244.774 580.206 246.58 582.013 246.58 584.25Z" fill="#11FFF5"/>
<path d="M167.343 544.597C167.343 546.824 165.537 548.641 163.301 548.641C161.066 548.641 159.26 546.824 159.26 544.597C159.26 542.37 161.066 540.553 163.301 540.553C165.537 540.553 167.343 542.36 167.343 544.597Z" fill="#3273E2"/>
<path d="M206.956 544.597C206.956 546.824 205.15 548.641 202.925 548.641C200.7 548.641 198.884 546.824 198.884 544.597C198.884 542.37 200.69 540.553 202.925 540.553C205.16 540.553 206.956 542.36 206.956 544.597Z" fill="#6857D7"/>
<path d="M167.343 584.25C167.343 586.477 165.537 588.294 163.301 588.294C161.066 588.294 159.26 586.487 159.26 584.25C159.26 582.013 161.066 580.206 163.301 580.206C165.537 580.206 167.343 582.013 167.343 584.25Z" fill="#11FFF5"/>
<path d="M206.956 584.25C206.956 586.477 205.15 588.294 202.915 588.294C200.68 588.294 198.874 586.487 198.874 584.25C198.874 582.013 200.68 580.206 202.915 580.206C205.15 580.206 206.956 582.013 206.956 584.25Z" fill="#BE80F5"/>
<path d="M246.58 504.944C246.58 507.181 244.774 508.988 242.539 508.988C240.304 508.988 238.498 507.181 238.498 504.944C238.498 502.707 240.304 500.91 242.539 500.91C244.774 500.91 246.58 502.717 246.58 504.944Z" fill="#11FFF5"/>
<path d="M167.343 504.944C167.343 507.181 165.537 508.988 163.301 508.988C161.066 508.988 159.26 507.181 159.26 504.944C159.26 502.707 161.066 500.91 163.301 500.91C165.537 500.91 167.343 502.717 167.343 504.944Z" fill="#11FFF5"/>
<path d="M206.956 504.944C206.956 507.181 205.15 508.988 202.915 508.988C200.68 508.988 198.874 507.181 198.874 504.944C198.874 502.707 200.68 500.91 202.915 500.91C205.15 500.91 206.956 502.717 206.956 504.944Z" fill="#BE80F5"/>
<path d="M246.58 584.25C246.58 586.477 244.774 588.294 242.539 588.294C240.304 588.294 238.498 586.487 238.498 584.25C238.498 582.013 240.304 580.206 242.539 580.206C244.774 580.206 246.58 582.013 246.58 584.25Z" fill="#11FFF5"/>
<path d="M167.343 584.25C167.343 586.477 165.537 588.294 163.301 588.294C161.066 588.294 159.26 586.487 159.26 584.25C159.26 582.013 161.066 580.206 163.301 580.206C165.537 580.206 167.343 582.013 167.343 584.25Z" fill="#11FFF5"/>
<path d="M206.956 584.25C206.956 586.477 205.15 588.294 202.915 588.294C200.68 588.294 198.874 586.487 198.874 584.25C198.874 582.013 200.68 580.206 202.915 580.206C205.15 580.206 206.956 582.013 206.956 584.25Z" fill="#BE80F5"/>
<path d="M167.343 386.004C167.343 388.241 165.537 390.049 163.301 390.049C161.066 390.049 159.26 388.241 159.26 386.004C159.26 383.768 161.066 381.97 163.301 381.97C165.537 381.97 167.343 383.778 167.343 386.004Z" fill="#3273E2"/>
<path d="M167.343 425.648C167.343 427.884 165.537 429.692 163.301 429.692C161.066 429.692 159.26 427.884 159.26 425.648C159.26 423.411 161.066 421.603 163.301 421.603C165.537 421.603 167.343 423.421 167.343 425.648Z" fill="#11FFF5"/>
<path d="M127.719 386.004C127.719 388.241 125.913 390.049 123.678 390.049C121.442 390.049 119.636 388.241 119.636 386.004C119.636 383.768 121.442 381.97 123.678 381.97C125.913 381.97 127.719 383.778 127.719 386.004Z" fill="#6857D7"/>
<path d="M88.1048 425.648C88.1048 427.884 86.2988 429.692 84.0636 429.692C81.8285 429.692 80.0224 427.884 80.0224 425.648C80.0224 423.411 81.8285 421.603 84.0636 421.603C86.2988 421.603 88.1048 423.421 88.1048 425.648Z" fill="#11FFF5"/>
<path d="M127.719 425.648C127.719 427.884 125.913 429.692 123.678 429.692C121.442 429.692 119.636 427.884 119.636 425.648C119.636 423.411 121.442 421.603 123.678 421.603C125.913 421.603 127.719 423.421 127.719 425.648Z" fill="#BE80F5"/>
<path d="M167.343 465.301C167.343 467.537 165.537 469.345 163.301 469.345C161.066 469.345 159.26 467.527 159.26 465.301C159.26 463.074 161.066 461.256 163.301 461.256C165.537 461.256 167.343 463.064 167.343 465.301Z" fill="#3273E2"/>
<path d="M167.343 504.944C167.343 507.181 165.537 508.988 163.301 508.988C161.066 508.988 159.26 507.181 159.26 504.944C159.26 502.707 161.066 500.91 163.301 500.91C165.537 500.91 167.343 502.717 167.343 504.944Z" fill="#11FFF5"/>
<path d="M127.719 465.301C127.719 467.537 125.913 469.345 123.678 469.345C121.442 469.345 119.636 467.527 119.636 465.301C119.636 463.074 121.442 461.256 123.678 461.256C125.913 461.256 127.719 463.064 127.719 465.301Z" fill="#6857D7"/>
<path d="M88.1048 504.944C88.1048 507.181 86.2988 508.988 84.0636 508.988C81.8285 508.988 80.0224 507.181 80.0224 504.944C80.0224 502.707 81.8285 500.91 84.0636 500.91C86.2988 500.91 88.1048 502.717 88.1048 504.944Z" fill="#11FFF5"/>
<path d="M127.719 504.944C127.719 507.181 125.913 508.988 123.678 508.988C121.442 508.988 119.636 507.181 119.636 504.944C119.636 502.707 121.442 500.91 123.678 500.91C125.913 500.91 127.719 502.717 127.719 504.944Z" fill="#BE80F5"/>
<path d="M167.343 425.648C167.343 427.884 165.537 429.692 163.301 429.692C161.066 429.692 159.26 427.884 159.26 425.648C159.26 423.411 161.066 421.603 163.301 421.603C165.537 421.603 167.343 423.421 167.343 425.648Z" fill="#11FFF5"/>
<path d="M88.1048 425.648C88.1048 427.884 86.2988 429.692 84.0636 429.692C81.8285 429.692 80.0224 427.884 80.0224 425.648C80.0224 423.411 81.8285 421.603 84.0636 421.603C86.2988 421.603 88.1048 423.421 88.1048 425.648Z" fill="#11FFF5"/>
<path d="M127.719 425.648C127.719 427.884 125.913 429.692 123.678 429.692C121.442 429.692 119.636 427.884 119.636 425.648C119.636 423.411 121.442 421.603 123.678 421.603C125.913 421.603 127.719 423.421 127.719 425.648Z" fill="#BE80F5"/>
<path d="M167.343 544.597C167.343 546.824 165.537 548.641 163.301 548.641C161.066 548.641 159.26 546.824 159.26 544.597C159.26 542.37 161.066 540.553 163.301 540.553C165.537 540.553 167.343 542.36 167.343 544.597Z" fill="#3273E2"/>
<path d="M167.343 584.25C167.343 586.477 165.537 588.294 163.301 588.294C161.066 588.294 159.26 586.487 159.26 584.25C159.26 582.013 161.066 580.206 163.301 580.206C165.537 580.206 167.343 582.013 167.343 584.25Z" fill="#11FFF5"/>
<path d="M88.0948 544.597C88.0948 546.824 86.2888 548.641 84.0636 548.641C81.8384 548.641 80.0224 546.824 80.0224 544.597C80.0224 542.37 81.8285 540.553 84.0636 540.553C86.2988 540.553 88.0948 542.36 88.0948 544.597Z" fill="#3273E2"/>
<path d="M127.719 544.597C127.719 546.824 125.913 548.641 123.678 548.641C121.442 548.641 119.636 546.824 119.636 544.597C119.636 542.37 121.442 540.553 123.678 540.553C125.913 540.553 127.719 542.36 127.719 544.597Z" fill="#6857D7"/>
<path d="M88.1048 584.25C88.1048 586.477 86.2988 588.294 84.0636 588.294C81.8285 588.294 80.0224 586.487 80.0224 584.25C80.0224 582.013 81.8285 580.206 84.0636 580.206C86.2988 580.206 88.1048 582.013 88.1048 584.25Z" fill="#11FFF5"/>
<path d="M127.719 584.25C127.719 586.477 125.913 588.294 123.678 588.294C121.442 588.294 119.636 586.487 119.636 584.25C119.636 582.013 121.442 580.206 123.678 580.206C125.913 580.206 127.719 582.013 127.719 584.25Z" fill="#BE80F5"/>
<path d="M167.343 504.944C167.343 507.181 165.537 508.988 163.301 508.988C161.066 508.988 159.26 507.181 159.26 504.944C159.26 502.707 161.066 500.91 163.301 500.91C165.537 500.91 167.343 502.717 167.343 504.944Z" fill="#11FFF5"/>
<path d="M88.1048 504.944C88.1048 507.181 86.2988 508.988 84.0636 508.988C81.8285 508.988 80.0224 507.181 80.0224 504.944C80.0224 502.707 81.8285 500.91 84.0636 500.91C86.2988 500.91 88.1048 502.717 88.1048 504.944Z" fill="#11FFF5"/>
<path d="M127.719 504.944C127.719 507.181 125.913 508.988 123.678 508.988C121.442 508.988 119.636 507.181 119.636 504.944C119.636 502.707 121.442 500.91 123.678 500.91C125.913 500.91 127.719 502.717 127.719 504.944Z" fill="#BE80F5"/>
<path d="M167.343 584.25C167.343 586.477 165.537 588.294 163.301 588.294C161.066 588.294 159.26 586.487 159.26 584.25C159.26 582.013 161.066 580.206 163.301 580.206C165.537 580.206 167.343 582.013 167.343 584.25Z" fill="#11FFF5"/>
<path d="M88.1048 584.25C88.1048 586.477 86.2988 588.294 84.0636 588.294C81.8285 588.294 80.0224 586.487 80.0224 584.25C80.0224 582.013 81.8285 580.206 84.0636 580.206C86.2988 580.206 88.1048 582.013 88.1048 584.25Z" fill="#11FFF5"/>
<path d="M127.719 584.25C127.719 586.477 125.913 588.294 123.678 588.294C121.442 588.294 119.636 586.487 119.636 584.25C119.636 582.013 121.442 580.206 123.678 580.206C125.913 580.206 127.719 582.013 127.719 584.25Z" fill="#BE80F5"/>
<path d="M88.1048 425.648C88.1048 427.884 86.2988 429.692 84.0636 429.692C81.8285 429.692 80.0224 427.884 80.0224 425.648C80.0224 423.411 81.8285 421.603 84.0636 421.603C86.2988 421.603 88.1048 423.421 88.1048 425.648Z" fill="#11FFF5"/>
<path d="M88.1048 504.944C88.1048 507.181 86.2988 508.988 84.0636 508.988C81.8285 508.988 80.0224 507.181 80.0224 504.944C80.0224 502.707 81.8285 500.91 84.0636 500.91C86.2988 500.91 88.1048 502.717 88.1048 504.944Z" fill="#11FFF5"/>
<path d="M88.1048 425.648C88.1048 427.884 86.2988 429.692 84.0636 429.692C81.8285 429.692 80.0224 427.884 80.0224 425.648C80.0224 423.411 81.8285 421.603 84.0636 421.603C86.2988 421.603 88.1048 423.421 88.1048 425.648Z" fill="#11FFF5"/>
<path d="M88.0948 544.597C88.0948 546.824 86.2888 548.641 84.0636 548.641C81.8384 548.641 80.0224 546.824 80.0224 544.597C80.0224 542.37 81.8285 540.553 84.0636 540.553C86.2988 540.553 88.0948 542.36 88.0948 544.597Z" fill="#3273E2"/>
<path d="M88.1048 584.25C88.1048 586.477 86.2988 588.294 84.0636 588.294C81.8285 588.294 80.0224 586.487 80.0224 584.25C80.0224 582.013 81.8285 580.206 84.0636 580.206C86.2988 580.206 88.1048 582.013 88.1048 584.25Z" fill="#11FFF5"/>
<path d="M48.481 544.597C48.481 546.824 46.6749 548.641 44.4398 548.641C42.2046 548.641 40.3986 546.824 40.3986 544.597C40.3986 542.37 42.2046 540.553 44.4398 540.553C46.6749 540.553 48.481 542.36 48.481 544.597Z" fill="#6857D7"/>
<path d="M48.481 584.25C48.481 586.477 46.6749 588.294 44.4398 588.294C42.2046 588.294 40.3986 586.487 40.3986 584.25C40.3986 582.013 42.2046 580.206 44.4398 580.206C46.6749 580.206 48.481 582.013 48.481 584.25Z" fill="#BE80F5"/>
<path d="M88.1048 504.944C88.1048 507.181 86.2988 508.988 84.0636 508.988C81.8285 508.988 80.0224 507.181 80.0224 504.944C80.0224 502.707 81.8285 500.91 84.0636 500.91C86.2988 500.91 88.1048 502.717 88.1048 504.944Z" fill="#11FFF5"/>
<path d="M88.1048 584.25C88.1048 586.477 86.2988 588.294 84.0636 588.294C81.8285 588.294 80.0224 586.487 80.0224 584.25C80.0224 582.013 81.8285 580.206 84.0636 580.206C86.2988 580.206 88.1048 582.013 88.1048 584.25Z" fill="#11FFF5"/>
<path d="M48.481 584.25C48.481 586.477 46.6749 588.294 44.4398 588.294C42.2046 588.294 40.3986 586.487 40.3986 584.25C40.3986 582.013 42.2046 580.206 44.4398 580.206C46.6749 580.206 48.481 582.013 48.481 584.25Z" fill="#BE80F5"/>
</g>
</svg>
