<svg width="595" height="81" viewBox="0 0 595 81" fill="none" xmlns="http://www.w3.org/2000/svg">
<g clip-path="url(#clip0_1248_189132)">
<path d="M29.1149 145.462L29.1149 66.1657" stroke="#8A8A8A" stroke-width="0.64" stroke-miterlimit="10"/>
<path d="M-10.509 66.1658L68.7288 66.1658" stroke="#8A8A8A" stroke-width="0.64" stroke-miterlimit="10"/>
<path d="M29.1149 66.1658L29.1149 -13.1404" stroke="#8A8A8A" stroke-width="0.64" stroke-miterlimit="10"/>
<path d="M68.7288 66.1658L68.7288 -13.1404" stroke="#8A8A8A" stroke-width="0.64" stroke-miterlimit="10"/>
<path d="M-10.509 26.5126L68.7288 26.5126" stroke="#8A8A8A" stroke-width="0.64" stroke-miterlimit="10"/>
<path d="M-10.509 66.1658L68.7288 66.1658" stroke="#8A8A8A" stroke-width="0.64" stroke-miterlimit="10"/>
<path d="M68.7286 66.1658L147.966 66.1658" stroke="#8A8A8A" stroke-width="0.64" stroke-miterlimit="10"/>
<path d="M68.7288 66.1658L68.7288 -13.1404" stroke="#8A8A8A" stroke-width="0.64" stroke-miterlimit="10"/>
<path d="M108.353 66.1658L108.353 -13.1404" stroke="#8A8A8A" stroke-width="0.64" stroke-miterlimit="10"/>
<path d="M147.966 66.1658L147.966 -13.1404" stroke="#8A8A8A" stroke-width="0.64" stroke-miterlimit="10"/>
<path d="M68.7286 66.1658L147.966 66.1658" stroke="#8A8A8A" stroke-width="0.64" stroke-miterlimit="10"/>
<path d="M147.966 66.1658L147.966 -13.1404" stroke="#8A8A8A" stroke-width="0.64" stroke-miterlimit="10"/>
<path d="M147.967 26.5126L227.204 26.5126" stroke="#8A8A8A" stroke-width="0.64" stroke-miterlimit="10"/>
<path d="M64.6875 66.1658C64.6875 63.929 66.4936 62.1216 68.7288 62.1216C70.9639 62.1216 72.76 63.929 72.76 66.1658C72.76 68.4026 70.9539 70.21 68.7288 70.21C66.5036 70.21 64.6875 68.4026 64.6875 66.1658Z" fill="#11FFF5"/>
<path d="M25.0637 66.1658C25.0637 63.929 26.8698 62.1216 29.1049 62.1216C31.3401 62.1216 33.1461 63.929 33.1461 66.1658C33.1461 68.4026 31.3401 70.21 29.1049 70.21C26.8698 70.21 25.0637 68.4026 25.0637 66.1658Z" fill="#BE80F5"/>
<path d="M64.6875 26.5126C64.6875 24.2759 66.4936 22.4784 68.7288 22.4784C70.9639 22.4784 72.76 24.2858 72.76 26.5126C72.76 28.7394 70.9539 30.5568 68.7288 30.5568C66.5036 30.5568 64.6875 28.7494 64.6875 26.5126Z" fill="#3273E2"/>
<path d="M25.0737 26.5126C25.0737 24.2759 26.8798 22.4784 29.1149 22.4784C31.35 22.4784 33.1561 24.2858 33.1561 26.5126C33.1561 28.7394 31.35 30.5568 29.1149 30.5568C26.8798 30.5568 25.0737 28.7494 25.0737 26.5126Z" fill="#6857D7"/>
<path d="M64.6875 66.1658C64.6875 63.929 66.4936 62.1216 68.7288 62.1216C70.9639 62.1216 72.76 63.929 72.76 66.1658C72.76 68.4026 70.9539 70.21 68.7288 70.21C66.5036 70.21 64.6875 68.4026 64.6875 66.1658Z" fill="#11FFF5"/>
<path d="M25.0637 66.1658C25.0637 63.929 26.8698 62.1216 29.1049 62.1216C31.3401 62.1216 33.1461 63.929 33.1461 66.1658C33.1461 68.4026 31.3401 70.21 29.1049 70.21C26.8698 70.21 25.0637 68.4026 25.0637 66.1658Z" fill="#BE80F5"/>
<path d="M64.6875 66.1658C64.6875 63.929 66.4936 62.1216 68.7288 62.1216C70.9639 62.1216 72.76 63.929 72.76 66.1658C72.76 68.4026 70.9539 70.21 68.7288 70.21C66.5036 70.21 64.6875 68.4026 64.6875 66.1658Z" fill="#11FFF5"/>
<path d="M104.301 66.1658C104.301 63.929 106.117 62.1216 108.343 62.1216C110.568 62.1216 112.374 63.929 112.374 66.1658C112.374 68.4026 110.568 70.21 108.343 70.21C106.117 70.21 104.301 68.4026 104.301 66.1658Z" fill="#BE80F5"/>
<path d="M64.6875 26.5126C64.6875 24.2759 66.4936 22.4784 68.7288 22.4784C70.9639 22.4784 72.76 24.2858 72.76 26.5126C72.76 28.7394 70.9539 30.5568 68.7288 30.5568C66.5036 30.5568 64.6875 28.7494 64.6875 26.5126Z" fill="#3273E2"/>
<path d="M143.925 26.5126C143.925 24.2758 145.731 22.4784 147.966 22.4784C150.202 22.4784 152.008 24.2858 152.008 26.5126C152.008 28.7394 150.192 30.5568 147.966 30.5568C145.741 30.5568 143.925 28.7494 143.925 26.5126Z" fill="#3273E2"/>
<path d="M104.311 26.5126C104.311 24.2759 106.117 22.4784 108.353 22.4784C110.588 22.4784 112.384 24.2858 112.384 26.5126C112.384 28.7394 110.578 30.5568 108.353 30.5568C106.127 30.5568 104.311 28.7494 104.311 26.5126Z" fill="#6857D7"/>
<path d="M64.6875 66.1658C64.6875 63.929 66.4936 62.1216 68.7288 62.1216C70.9639 62.1216 72.76 63.929 72.76 66.1658C72.76 68.4026 70.9539 70.21 68.7288 70.21C66.5036 70.21 64.6875 68.4026 64.6875 66.1658Z" fill="#11FFF5"/>
<path d="M104.301 66.1658C104.301 63.929 106.117 62.1216 108.343 62.1216C110.568 62.1216 112.374 63.929 112.374 66.1658C112.374 68.4026 110.568 70.21 108.343 70.21C106.117 70.21 104.301 68.4026 104.301 66.1658Z" fill="#BE80F5"/>
<path d="M143.925 26.5126C143.925 24.2758 145.731 22.4784 147.966 22.4784C150.202 22.4784 152.008 24.2858 152.008 26.5126C152.008 28.7394 150.192 30.5568 147.966 30.5568C145.741 30.5568 143.925 28.7494 143.925 26.5126Z" fill="#3273E2"/>
<path d="M223.173 26.5126C223.173 24.2758 224.979 22.4784 227.204 22.4784C229.429 22.4784 231.245 24.2858 231.245 26.5126C231.245 28.7394 229.439 30.5568 227.204 30.5568C224.969 30.5568 223.173 28.7494 223.173 26.5126Z" fill="#3273E2"/>
<path d="M183.549 26.5126C183.549 24.2758 185.355 22.4784 187.58 22.4784C189.806 22.4784 191.622 24.2858 191.622 26.5126C191.622 28.7394 189.815 30.5568 187.58 30.5568C185.345 30.5568 183.549 28.7494 183.549 26.5126Z" fill="#6857D7"/>
<path d="M223.173 26.5126C223.173 24.2758 224.979 22.4784 227.204 22.4784C229.429 22.4784 231.245 24.2858 231.245 26.5126C231.245 28.7394 229.439 30.5568 227.204 30.5568C224.969 30.5568 223.173 28.7494 223.173 26.5126Z" fill="#3273E2"/>
</g>
<defs>
<clipPath id="clip0_1248_189132">
<rect width="595" height="80" fill="white" transform="translate(0 0.5)"/>
</clipPath>
</defs>
</svg>
